<svg width="24" height="24" viewBox="0 0 24 24" fill="none" xmlns="http://www.w3.org/2000/svg">
    <path d="M12 2.5C14.3439 2.5 16.25 4.40614 16.25 6.75C16.24 9.05196 14.4419 10.9097 12.1523 10.9902H12.124C12.0448 10.9818 11.9635 10.9833 11.8867 10.9893C9.53765 10.9032 7.75 9.04362 7.75 6.75C7.75 4.40614 9.65614 2.5 12 2.5Z" fill="white" stroke="#077BF8"/>
    <path d="M17.08 14.15C14.29 12.29 9.73996 12.29 6.92996 14.15C5.65996 15 4.95996 16.15 4.95996 17.38C4.95996 18.61 5.65996 19.75 6.91996 20.59C8.31996 21.53 10.16 22 12 22C13.84 22 15.68 21.53 17.08 20.59C18.34 19.74 19.04 18.6 19.04 17.36C19.03 16.13 18.34 14.99 17.08 14.15Z" fill="#077BF8"/>
</svg>
