<svg width="22" height="22" viewBox="0 0 22 22" fill="none" xmlns="http://www.w3.org/2000/svg">
    <path fill-rule="evenodd" clip-rule="evenodd" d="M18.2563 0.366057C17.3926 0.24994 16.3014 0.249968 14.9781 0.250001H10.931C9.60767 0.249968 8.51641 0.24994 7.65275 0.366057C6.746 0.487965 5.9452 0.753752 5.304 1.39495C4.66281 2.03615 4.39702 2.83695 4.27511 3.74369C4.15899 4.60736 4.15902 5.6986 4.15906 7.02195L4.15906 14.3091C4.15906 14.5919 4.15906 14.7334 4.07119 14.8212C3.98332 14.9091 3.8419 14.9091 3.55905 14.9091L3.08344 14.9091C2.65936 14.9089 2.22951 14.9088 1.87244 14.9682C1.44525 15.0393 0.998763 15.2128 0.654575 15.6424C0.333301 16.0435 0.236304 16.4787 0.251513 16.9104C0.263525 17.2512 0.350162 17.6332 0.429535 17.9831C0.626294 18.8528 0.98532 19.8094 1.56295 20.5101C2.16342 21.2384 3.01879 21.75 4.12398 21.75H17.8347C19.2282 21.75 20.278 21.161 20.9321 20.1638C21.5448 19.23 21.75 18.033 21.75 16.8636V7.02197C21.75 5.69861 21.75 4.60737 21.6339 3.74369C21.512 2.83695 21.2462 2.03615 20.605 1.39495C19.9638 0.753752 19.163 0.487965 18.2563 0.366057ZM6.71377 14.9091C6.43093 14.9091 6.28951 14.9091 6.20164 14.8213C6.11377 14.7334 6.11377 14.592 6.11377 14.3091V7.09095C6.11377 5.68125 6.11585 4.72229 6.21239 4.00417C6.30516 3.31417 6.46873 2.99458 6.68624 2.77706C6.90376 2.55955 7.22334 2.39598 7.91335 2.30322C8.63147 2.20667 9.59043 2.20459 11.0001 2.20459H14.9092C16.3189 2.20459 17.2779 2.20667 17.996 2.30322C18.686 2.39598 19.0056 2.55955 19.2231 2.77706C19.4406 2.99458 19.6042 3.31417 19.697 4.00417C19.7935 4.72229 19.7956 5.68126 19.7956 7.09095V16.8637C19.7956 17.8532 19.6135 18.6108 19.298 19.0918C19.024 19.5095 18.6048 19.7955 17.8349 19.7955C17.4034 19.7955 17.0724 19.6191 16.7819 19.2668C16.4685 18.8867 16.2187 18.3115 16.06 17.6103C15.9543 17.143 15.8508 16.6854 15.7463 16.3635C15.6437 16.0476 15.4758 15.6313 15.1061 15.3364C14.7596 15.0599 14.3672 14.9763 14.044 14.9415C13.7424 14.909 13.3743 14.9091 12.9832 14.9091L6.71377 14.9091Z" fill="#077BF8"/>
    <path fill-rule="evenodd" clip-rule="evenodd" d="M8.5 6C8.5 5.44772 8.94772 5 9.5 5H16.5C17.0523 5 17.5 5.44772 17.5 6C17.5 6.55228 17.0523 7 16.5 7H9.5C8.94772 7 8.5 6.55228 8.5 6Z" fill="#077BF8"/>
    <path fill-rule="evenodd" clip-rule="evenodd" d="M8.5 10C8.5 9.44772 8.94772 9 9.5 9H13C13.5523 9 14 9.44772 14 10C14 10.5523 13.5523 11 13 11H9.5C8.94772 11 8.5 10.5523 8.5 10Z" fill="#077BF8"/>
</svg>
