<svg width="25" height="24" viewBox="0 0 25 24" fill="none" xmlns="http://www.w3.org/2000/svg">
    <path d="M12.5 22C18.0228 22 22.5 17.5228 22.5 12C22.5 6.47715 18.0228 2 12.5 2C6.97715 2 2.5 6.47715 2.5 12C2.5 17.5228 6.97715 22 12.5 22Z" fill="#077BF8"/>
    <path d="M16.5324 6.91311C15.3865 7.28557 12.322 8.40204 10.8821 10.0829C9.44221 11.7638 8.46904 15.359 8.14327 16.7034C8.12893 16.7595 8.12694 16.8176 8.13749 16.8721C8.14805 16.9266 8.1708 16.9756 8.2035 17.0143C8.2362 17.053 8.27773 17.08 8.32402 17.0928C8.37031 17.1055 8.41976 17.1035 8.46754 17.087C9.61344 16.7145 12.678 15.5981 14.1179 13.9172C15.5578 12.2363 16.5309 8.64113 16.8567 7.29672C16.8711 7.24065 16.873 7.18251 16.8625 7.12801C16.8519 7.07351 16.8292 7.02451 16.7965 6.98583C16.7638 6.94714 16.7223 6.9201 16.676 6.90735C16.6297 6.8946 16.5802 6.89659 16.5324 6.91311Z" fill="#000D1C"/>
    <circle cx="12.5" cy="12" r="1" fill="#D0D5DD"/>
</svg>
