<svg width="24" height="24" viewBox="0 0 24 24" fill="none" xmlns="http://www.w3.org/2000/svg">
    <path d="M17.98 10.79V14.79C17.98 15.05 17.97 15.3 17.94 15.54C17.71 18.24 16.12 19.58 13.19 19.58H12.79C12.54 19.58 12.3 19.7 12.15 19.9L10.95 21.5C10.42 22.21 9.56 22.21 9.03 21.5L7.82999 19.9C7.69999 19.73 7.41 19.58 7.19 19.58H6.79001C3.60001 19.58 2 18.79 2 14.79V10.79C2 7.86001 3.35001 6.27001 6.04001 6.04001C6.28001 6.01001 6.53001 6 6.79001 6H13.19C16.38 6 17.98 7.60001 17.98 10.79Z" fill="#077BF8"/>
    <path d="M9.99023 14C9.43023 14 8.99023 13.55 8.99023 13C8.99023 12.45 9.44023 12 9.99023 12C10.5402 12 10.9902 12.45 10.9902 13C10.9902 13.55 10.5502 14 9.99023 14Z" fill="white"/>
    <path d="M13.4902 14C12.9302 14 12.4902 13.55 12.4902 13C12.4902 12.45 12.9402 12 13.4902 12C14.0402 12 14.4902 12.45 14.4902 13C14.4902 13.55 14.0402 14 13.4902 14Z" fill="white"/>
    <path d="M6.5 14C5.94 14 5.5 13.55 5.5 13C5.5 12.45 5.95 12 6.5 12C7.05 12 7.5 12.45 7.5 13C7.5 13.55 7.05 14 6.5 14Z" fill="white"/>
    <path d="M10.79 2.5H17.1904C18.7077 2.50007 19.7557 2.88068 20.4277 3.55273C21.0997 4.22485 21.4805 5.27267 21.4805 6.79004V10.79C21.4805 12.1896 21.1582 13.1877 20.5879 13.8574C20.1143 14.4135 19.4252 14.7921 18.4756 14.9639C18.4767 14.9059 18.4805 14.848 18.4805 14.79V10.79C18.4805 9.11757 18.0602 7.77012 17.1348 6.84473C16.2095 5.9196 14.8625 5.50007 13.1904 5.5H6.79004C6.73177 5.5 6.67351 5.50283 6.61523 5.50391C6.78754 4.55495 7.16928 3.8664 7.72656 3.39258C8.39789 2.82185 9.39585 2.5 10.79 2.5Z" fill="white" stroke="#077BF8"/>
</svg>
