<svg width="25" height="24" viewBox="0 0 25 24" fill="none" xmlns="http://www.w3.org/2000/svg">
    <path d="M20.5402 6.82L14.7802 2.79C13.2102 1.69 10.8002 1.75 9.29023 2.92L4.28023 6.83C3.28023 7.61 2.49023 9.21 2.49023 10.47V17.37C2.49023 19.92 4.56023 22 7.11023 22H17.8902C20.4402 22 22.5102 19.93 22.5102 17.38V10.6C22.5102 9.25 21.6402 7.59 20.5402 6.82Z" fill="#077BF8"/>
    <path d="M12.5 18.75C12.09 18.75 11.75 18.41 11.75 18V15C11.75 14.59 12.09 14.25 12.5 14.25C12.91 14.25 13.25 14.59 13.25 15V18C13.25 18.41 12.91 18.75 12.5 18.75Z" fill="white"/>
</svg>
