<svg width="14" height="14" viewBox="0 0 14 14" fill="none" xmlns="http://www.w3.org/2000/svg">
<g clip-path="url(#clip0_2131_21186)">
<path fill-rule="evenodd" clip-rule="evenodd" d="M6.43035 1.2992C6.43035 0.984358 6.68558 0.729126 7.00043 0.729126C10.4643 0.729126 13.2713 3.53709 13.2713 6.99996C13.2713 10.4628 10.4643 13.2708 7.00043 13.2708C6.68558 13.2708 6.43035 13.0156 6.43035 12.7007C6.43035 12.3859 6.68558 12.1306 7.00043 12.1306C9.83446 12.1306 12.1311 9.83325 12.1311 6.99996C12.1311 4.16666 9.83446 1.86928 7.00043 1.86928C6.68558 1.86928 6.43035 1.61405 6.43035 1.2992ZM5.58927 1.46468C5.7019 1.75869 5.55486 2.08834 5.26085 2.20097C4.72107 2.40774 4.21586 2.69024 3.7712 3.03472C3.52231 3.22754 3.16423 3.18209 2.97141 2.9332C2.77859 2.68431 2.82405 2.32623 3.07294 2.13341C3.60867 1.71836 4.21229 1.3817 4.85299 1.13626C5.147 1.02363 5.47664 1.17067 5.58927 1.46468ZM2.33975 3.63171C2.60711 3.79797 2.68907 4.1495 2.52281 4.41686C2.19591 4.94257 1.96969 5.51721 1.86007 6.10468C1.80232 6.41418 1.50461 6.61827 1.19511 6.56052C0.885603 6.50277 0.681516 6.20505 0.739266 5.89555C0.875999 5.16274 1.15614 4.45554 1.5546 3.81478C1.72086 3.54742 2.07238 3.46545 2.33975 3.63171ZM1.19511 7.4394C1.50461 7.38165 1.80232 7.58574 1.86007 7.89524C1.96969 8.48271 2.19591 9.05735 2.52281 9.58306C2.68907 9.85042 2.60711 10.2019 2.33975 10.3682C2.07238 10.5345 1.72086 10.4525 1.5546 10.1851C1.15614 9.54438 0.875999 8.83718 0.739266 8.10437C0.681516 7.79487 0.885603 7.49715 1.19511 7.4394ZM2.97393 11.0635C3.16854 10.816 3.52693 10.7731 3.77443 10.9677C4.21554 11.3145 4.71869 11.5925 5.26 11.7989C5.55419 11.911 5.70175 12.2404 5.5896 12.5346C5.47744 12.8288 5.14803 12.9764 4.85384 12.8642C4.21467 12.6205 3.60899 12.288 3.06971 11.864C2.82221 11.6694 2.77933 11.311 2.97393 11.0635Z" fill="#D0D5DD"/>
<path d="M5.26027 5.6875C5.26027 4.72555 6.03282 3.9375 6.99592 3.9375C7.95901 3.9375 8.73156 4.72555 8.73156 5.6875C8.73156 6.64945 7.95901 7.4375 6.99592 7.4375C6.03282 7.4375 5.26027 6.64945 5.26027 5.6875Z" fill="#1D2939"/>
<path d="M4.35823 9.31475C5.73065 7.87129 8.24548 7.79243 9.64779 9.32023C9.72706 9.40659 9.76835 9.52114 9.76242 9.63821C9.75649 9.75528 9.70383 9.86507 9.61624 9.94297C8.92101 10.5613 8.00406 10.9375 7.00031 10.9375C5.99664 10.9375 5.07976 10.5614 4.38455 9.94313C4.29596 9.86434 4.24314 9.75298 4.23818 9.63452C4.23321 9.51607 4.27654 9.40067 4.35823 9.31475Z" fill="#1D2939"/>
</g>
<defs>
<clipPath id="clip0_2131_21186">
<rect width="14" height="14" fill="white"/>
</clipPath>
</defs>
</svg>
