<svg width="16" height="16" viewBox="0 0 16 16" fill="none" xmlns="http://www.w3.org/2000/svg">
<path fill-rule="evenodd" clip-rule="evenodd" d="M2.78658 2.16675C2.32148 2.16675 1.98208 2.44866 1.76767 2.71932C1.54747 2.99728 1.37766 3.35934 1.24711 3.74896C0.983748 4.53498 0.832031 5.57962 0.832031 6.70378C0.832031 7.88223 0.930686 9.13347 1.54816 10.2289C2.83576 12.3601 5.2632 13.8334 7.9987 13.8334C10.7342 13.8334 13.1616 12.3601 14.4492 10.2289C15.0667 9.13347 15.1654 7.88223 15.1654 6.70378C15.1654 5.57962 15.0136 4.53498 14.7503 3.74896C14.6197 3.35934 14.4499 2.99728 14.2297 2.71932C14.0153 2.44866 13.6759 2.16675 13.2108 2.16675C12.7457 2.16675 12.4063 2.44866 12.1919 2.71932C11.9717 2.99728 11.8019 3.35934 11.6714 3.74896C11.544 4.12896 11.4287 4.60467 11.3547 5.09378C11.3426 5.17384 11.2636 5.22615 11.1853 5.20583C10.2679 4.96802 9.16853 4.83341 7.99883 4.83341C6.82315 4.83341 5.71854 4.9694 4.79836 5.20948C4.7198 5.22998 4.64058 5.17747 4.62895 5.09712C4.55782 4.60594 4.45412 4.13122 4.32604 3.74896C4.19549 3.35934 4.02568 2.99728 3.80548 2.71932C3.59107 2.44866 3.25168 2.16675 2.78658 2.16675ZM2.48363 4.15887C2.27539 4.78036 2.13542 5.68016 2.13542 6.70377C2.13542 7.56085 2.19504 8.31857 2.41377 8.97693C2.44144 9.06023 2.54206 9.08965 2.6065 9.03004C2.69157 8.95136 2.78197 8.85127 2.87276 8.72481C3.17598 8.3025 3.43845 7.63602 3.43845 6.70377C3.43845 5.68016 3.29847 4.78036 3.09023 4.15887C3.02051 3.95078 2.94827 3.78949 2.88082 3.67071C2.83788 3.59508 2.73598 3.59508 2.69304 3.67071C2.62559 3.78949 2.55336 3.95078 2.48363 4.15887ZM12.9079 4.15887C12.6996 4.78036 12.5597 5.68016 12.5597 6.70377C12.5597 7.63602 12.8221 8.3025 13.1253 8.72481C13.2161 8.85127 13.3065 8.95136 13.3916 9.03005C13.456 9.08965 13.5567 9.06023 13.5843 8.97693C13.8031 8.31857 13.8627 7.56085 13.8627 6.70377C13.8627 5.68016 13.7227 4.78036 13.5145 4.15887C13.4447 3.95078 13.3725 3.78949 13.3051 3.67071C13.2621 3.59508 13.1602 3.59508 13.1173 3.67071C13.0498 3.78949 12.9776 3.95078 12.9079 4.15887Z" fill="#077BF8"/>
<path fill-rule="evenodd" clip-rule="evenodd" d="M5.83717 7.19389C6.51543 6.96006 7.24342 6.83325 8.00014 6.83325C8.75685 6.83325 9.48484 6.96006 10.1631 7.19389C10.4242 7.28389 10.5628 7.56848 10.4728 7.82955C10.3828 8.09061 10.0982 8.22929 9.83717 8.13928C9.26244 7.94115 8.64453 7.83325 8.00014 7.83325C7.35574 7.83325 6.73783 7.94115 6.1631 8.13928C5.90203 8.22929 5.61744 8.09061 5.52744 7.82955C5.43744 7.56848 5.57611 7.28389 5.83717 7.19389Z" fill="#000D1C"/>
<path fill-rule="evenodd" clip-rule="evenodd" d="M4.89227 9.76235C5.02357 9.51942 5.32694 9.42893 5.56987 9.56023C6.28201 9.94514 7.11117 10.1668 7.99879 10.1668C8.88642 10.1668 9.71558 9.94514 10.4277 9.56023C10.6706 9.42893 10.974 9.51942 11.1053 9.76235C11.2366 10.0053 11.1461 10.3087 10.9032 10.44C10.0464 10.903 9.05403 11.1668 7.99879 11.1668C6.94356 11.1668 5.95117 10.903 5.09438 10.44C4.85146 10.3087 4.76096 10.0053 4.89227 9.76235Z" fill="#000D1C"/>
</svg>
