<svg width="52" height="39" viewBox="0 0 52 39" fill="none" xmlns="http://www.w3.org/2000/svg">
    <path d="M22.6198 0.625003L9.55608 0.625003C8.00487 0.624928 6.66798 0.624863 5.59765 0.768765C4.4505 0.922996 3.35088 1.2708 2.45897 2.16271C1.56706 3.05462 1.21926 4.15423 1.06503 5.30139C0.921128 6.37171 0.921193 7.70851 0.921268 9.25971L0.921268 25.8238C0.921193 27.375 0.921128 28.7117 1.06503 29.782C1.21926 30.9291 1.56706 32.0288 2.45897 32.9207C3.22322 33.6849 4.1266 34.0484 5.10208 34.2349C5.37728 34.2875 5.51488 34.3138 5.60141 34.2336C5.68794 34.1534 5.67093 34.003 5.63691 33.7021C5.60004 33.3759 5.5811 33.0443 5.5811 32.7083C5.5811 27.8759 9.49861 23.9583 14.3311 23.9583C19.1636 23.9583 23.0811 27.8759 23.0811 32.7083C23.0811 32.7247 23.0811 32.741 23.081 32.7573C23.0763 33.6162 23.0739 34.0456 23.2792 34.252C23.4844 34.4584 23.8625 34.4584 24.6188 34.4584H27.3767C28.133 34.4584 28.5111 34.4584 28.7164 34.252C28.9216 34.0456 28.9193 33.6162 28.9146 32.7573C28.9145 32.741 28.9144 32.7247 28.9144 32.7083C28.9144 27.8759 32.8319 23.9583 37.6644 23.9583C42.4969 23.9583 46.4144 27.8759 46.4144 32.7083C46.4144 33.0638 46.3932 33.4144 46.352 33.7588C46.3132 34.0831 46.5732 34.3774 46.8967 34.3321C48.0211 34.1748 49.0721 33.7396 49.8347 32.8771C50.5762 32.0384 50.8516 31.0411 50.9735 30.0356C51.0618 29.3065 51.082 28.4404 51.0866 27.4584H48.7546C47.7881 27.4584 47.0046 26.6748 47.0046 25.7084C47.0046 24.7419 47.7881 23.9584 48.7546 23.9584H51.0433C50.9843 23.0513 50.8478 22.255 50.454 21.4518C49.7619 20.0406 48.5128 19.1852 46.9421 18.1096C45.3182 16.9969 44.0111 15.6271 42.9518 13.9664L42.9097 13.9003C42.0812 12.6015 41.3974 11.5293 40.7548 10.6974C40.0818 9.82619 39.3746 9.10973 38.4497 8.58604C37.5189 8.05905 36.5519 7.8315 35.4791 7.72527C35.0862 7.68637 34.7546 8.00296 34.7546 8.39773L34.7546 16.375C34.7546 17.3415 33.9711 18.125 33.0046 18.125C32.0381 18.125 31.2546 17.3415 31.2546 16.375L31.2546 7.62502H31.2474C31.235 6.75365 31.2014 5.97482 31.1109 5.30139C30.9566 4.15423 30.6088 3.05462 29.7169 2.16271C28.825 1.2708 27.7254 0.922996 26.5783 0.768765C25.5079 0.624863 24.171 0.624928 22.6198 0.625003Z" fill="#FFFBFA"/>
    <path d="M51.0865 27.4583H48.7545C47.788 27.4583 47.0045 26.6748 47.0045 25.7083C47.0045 24.7418 47.788 23.9583 48.7545 23.9583H51.0432L51.0865 27.4583Z" fill="#912018"/>
    <path fill-rule="evenodd" clip-rule="evenodd" d="M16.6712 7.625C17.6377 7.625 18.4212 8.4085 18.4212 9.375V12.2917L21.3379 12.2917C22.3043 12.2917 23.0879 13.0752 23.0879 14.0417C23.0879 15.0082 22.3043 15.7917 21.3379 15.7917L18.4212 15.7917L18.4212 18.7083C18.4212 19.6748 17.6377 20.4583 16.6712 20.4583C15.7047 20.4583 14.9212 19.6748 14.9212 18.7083L14.9212 15.7917L12.0045 15.7917C11.038 15.7917 10.2545 15.0082 10.2545 14.0417C10.2545 13.0752 11.038 12.2917 12.0045 12.2917H14.9212V9.375C14.9212 8.4085 15.7047 7.625 16.6712 7.625Z" fill="#F04438"/>
    <circle cx="37.6667" cy="32.7083" r="5.83333" fill="#FFFBFA"/>
    <circle cx="14.3333" cy="32.7083" r="5.83333" fill="#FFFBFA"/>
</svg>
