<svg width="252" height="327" viewBox="0 0 252 327" fill="none" xmlns="http://www.w3.org/2000/svg">
<ellipse cx="126.371" cy="231.5" rx="125.5" ry="38.5" fill="#F2F4F7"/>
<path d="M14.7789 223.723C14.4412 223.496 14.1784 223.174 14.0242 222.798C13.8699 222.422 13.8312 222.008 13.9128 221.61L34.6646 129.766C34.9144 128.878 35.4779 128.11 36.2506 127.606L159.732 56.3269C160.109 56.1272 160.529 56.0195 160.956 56.0123C161.383 56.0052 161.805 56.099 162.189 56.2859C162.522 56.5138 162.78 56.8347 162.931 57.2084C163.082 57.5821 163.119 57.992 163.038 58.3869L142.28 150.231C142.03 151.12 141.464 151.888 140.689 152.39L17.2368 223.67C16.8602 223.871 16.4413 223.981 16.0142 223.99C15.5871 224 15.1639 223.908 14.7789 223.723Z" fill="#F0F0F0"/>
<path d="M37.0407 131.124L16.2888 223.003C16.1133 223.787 16.5346 224.103 17.2369 223.699L140.718 152.42C141.493 151.917 142.059 151.15 142.31 150.26L163.038 58.3868C163.214 57.5968 162.792 57.2866 162.09 57.6904L38.609 128.97C37.8445 129.476 37.2877 130.241 37.0407 131.124Z" fill="#E6E6E6"/>
<path d="M164.542 57.6437C164.157 57.4577 163.734 57.3649 163.307 57.3731C162.88 57.3812 162.461 57.49 162.084 57.6905L38.603 128.97C38.2448 129.202 37.9568 129.527 37.7701 129.911C37.5834 130.295 37.5052 130.722 37.5438 131.147L53.7953 244.908C53.8746 245.339 54.0391 245.75 54.2793 246.117C54.5195 246.483 54.8304 246.799 55.194 247.044C55.5771 247.231 55.9993 247.325 56.4257 247.316C56.852 247.308 57.2704 247.199 57.646 246.997L181.104 175.735C181.463 175.503 181.751 175.176 181.938 174.791C182.125 174.407 182.203 173.978 182.163 173.552L165.964 59.7798C165.882 59.3466 165.714 58.9343 165.47 58.5673C165.226 58.2004 164.91 57.8863 164.542 57.6437Z" fill="#F0F0F0"/>
<path d="M39.9434 132.522L56.1715 246.283C56.1747 246.452 56.2248 246.618 56.3163 246.761C56.4078 246.903 56.537 247.018 56.6897 247.092C56.8425 247.166 57.0127 247.196 57.1815 247.179C57.3503 247.163 57.5112 247.099 57.6462 246.997L181.104 175.735C181.463 175.502 181.752 175.176 181.938 174.791C182.125 174.406 182.203 173.978 182.163 173.552L165.964 59.7795C165.962 59.6093 165.913 59.4432 165.822 59.2994C165.731 59.1557 165.601 59.0401 165.449 58.9654C165.296 58.8908 165.125 58.8601 164.956 58.8767C164.786 58.8934 164.625 58.9567 164.489 59.0597L41.0085 130.339C40.6483 130.571 40.3585 130.897 40.1707 131.282C39.9829 131.667 39.9043 132.096 39.9434 132.522Z" fill="#FAFAFA"/>
<path d="M16.4004 222.488L48.0022 204.235L48.921 210.848L34.431 219.216C34.431 219.216 30.5685 220.586 29.0352 220.972C27.502 221.358 16.4004 222.488 16.4004 222.488Z" fill="#E0E0E0"/>
<path d="M48.9382 210.854L53.6785 244.094L34.4482 219.222L48.9382 210.854Z" fill="#E6E6E6"/>
<path d="M53.1108 245.2L35.8761 222.816C35.59 222.482 35.2283 222.221 34.8212 222.055C34.414 221.889 33.9731 221.823 33.5352 221.862L17.4183 224.203C16.5107 224.3 15.5943 224.133 14.779 223.723C14.1235 223.348 14.2347 222.915 15.0248 222.763L33.5469 219.199C33.9812 219.134 34.425 219.182 34.8352 219.339C35.2454 219.496 35.608 219.756 35.8878 220.094L55.5101 246.546C55.99 247.196 55.8496 247.412 55.1941 247.032C54.4041 246.54 53.7003 245.921 53.1108 245.2Z" fill="#E0E0E0"/>
<path d="M163.067 57.936C163.065 57.6062 162.982 57.2821 162.824 56.9922C162.667 56.7024 162.441 56.4557 162.166 56.274C161.781 56.0897 161.358 55.998 160.931 56.0061C160.505 56.0142 160.086 56.122 159.708 56.3208L36.2269 127.6C35.8504 127.836 35.5226 128.142 35.2613 128.502C34.9712 128.875 34.7584 129.303 34.6351 129.76L31.709 142.734L34.085 144.098L160.112 71.355L163.038 58.3866C163.066 58.2381 163.077 58.087 163.073 57.936H163.067Z" fill="#98A2B3"/>
<path opacity="0.2" d="M163.038 58.3868C163.213 57.5968 162.792 57.2866 162.09 57.6904L38.6087 128.97C37.8375 129.473 37.2743 130.238 37.0228 131.124L34.0967 144.098L160.112 71.3553L163.038 58.3868Z" fill="#191919"/>
<path opacity="0.1" d="M37.6607 129.871C37.3701 130.242 37.159 130.668 37.0404 131.123L34.1143 144.098L31.7383 142.728L34.6644 129.754C34.7877 129.297 35.0005 128.87 35.2906 128.496L37.6607 129.871Z" fill="#191919"/>
<path opacity="0.4" d="M163.067 57.9304C163.009 57.4915 162.629 57.3452 162.084 57.6904L38.6033 128.964C38.2241 129.199 37.8958 129.507 37.6377 129.871L35.2617 128.496C35.523 128.137 35.8508 127.831 36.2273 127.595L159.708 56.3152C160.086 56.1164 160.505 56.0086 160.932 56.0005C161.358 55.9924 161.781 56.0841 162.166 56.2684C162.441 56.4501 162.668 56.6967 162.825 56.9866C162.982 57.2765 163.065 57.6006 163.067 57.9304Z" fill="white"/>
<path d="M166.087 60.8683L165.965 59.7798C165.956 59.7265 165.944 59.6738 165.929 59.6218C165.932 59.6063 165.932 59.5904 165.929 59.5749C165.73 58.7874 165.249 58.1003 164.578 57.6437C164.193 57.4577 163.77 57.3649 163.343 57.3731C162.916 57.3812 162.497 57.49 162.12 57.6905L38.6387 128.97C38.2649 129.202 37.9693 129.54 37.7901 129.942C37.6073 130.315 37.5342 130.733 37.5794 131.147L39.9203 147.445L42.2963 148.821L168.264 76.0839L166.087 60.8683Z" fill="#98A2B3"/>
<path opacity="0.1" d="M42.2728 148.815L39.8969 147.439L37.556 131.141C37.5108 130.727 37.5838 130.309 37.7667 129.936L40.1485 131.305C39.9615 131.677 39.8863 132.096 39.932 132.511L42.2728 148.815Z" fill="#191919"/>
<path opacity="0.4" d="M165.894 59.5749C165.861 59.4275 165.791 59.2909 165.691 59.1776C165.59 59.0644 165.463 58.9781 165.321 58.9268C165.179 58.8755 165.026 58.8608 164.877 58.8841C164.727 58.9074 164.586 58.9678 164.466 59.06L40.9853 130.34C40.6101 130.569 40.3141 130.908 40.1368 131.311L37.8018 129.942C37.9824 129.539 38.2775 129.199 38.6503 128.964L162.131 57.6905C162.508 57.49 162.928 57.3812 163.355 57.3731C163.782 57.3649 164.205 57.4577 164.589 57.6437C165.245 58.107 165.709 58.7937 165.894 59.5749Z" fill="white"/>
<path d="M75.0506 227.433L73.5758 217.069C73.5737 216.934 73.5346 216.802 73.4628 216.688C73.3909 216.573 73.2891 216.481 73.1683 216.421C73.0476 216.36 72.9126 216.334 72.7781 216.345C72.6436 216.356 72.5147 216.404 72.4054 216.483L61.6433 222.698C61.3533 222.884 61.1204 223.146 60.9706 223.456C60.8208 223.766 60.7599 224.112 60.7947 224.454L62.2636 234.842C62.2636 234.978 62.3014 235.111 62.3728 235.226C62.4443 235.342 62.5464 235.435 62.668 235.496C62.7895 235.557 62.9255 235.582 63.0608 235.57C63.1961 235.558 63.3253 235.508 63.434 235.427L74.1962 229.212C74.4916 229.026 74.7285 228.76 74.8796 228.445C75.0307 228.131 75.09 227.78 75.0506 227.433Z" fill="#98A2B3"/>
<path d="M91.6938 217.835L90.2132 207.477C90.2132 207.341 90.1754 207.208 90.104 207.092C90.0325 206.977 89.9303 206.883 89.8088 206.823C89.6873 206.762 89.5513 206.736 89.416 206.748C89.2807 206.761 89.1515 206.81 89.0428 206.892L78.2806 213.101C77.9911 213.287 77.7586 213.549 77.6089 213.859C77.4591 214.169 77.3979 214.514 77.432 214.856L78.9126 225.221C78.9126 225.357 78.9505 225.49 79.0219 225.605C79.0933 225.721 79.1955 225.814 79.317 225.875C79.4385 225.936 79.5746 225.961 79.7099 225.949C79.8452 225.937 79.9744 225.887 80.0831 225.806L90.8452 219.591C91.1357 219.406 91.3689 219.144 91.5188 218.834C91.6687 218.523 91.7293 218.178 91.6938 217.835Z" fill="#EBEBEB"/>
<path d="M108.337 208.238L106.857 197.879C106.857 197.744 106.819 197.61 106.748 197.495C106.676 197.379 106.574 197.286 106.452 197.225C106.331 197.164 106.195 197.139 106.06 197.151C105.924 197.163 105.795 197.213 105.686 197.294L94.9183 203.515C94.6288 203.701 94.3963 203.964 94.2466 204.273C94.0968 204.583 94.0356 204.928 94.0697 205.271L95.5503 215.635C95.5503 215.771 95.5882 215.904 95.6596 216.02C95.731 216.135 95.8332 216.229 95.9547 216.289C96.0762 216.35 96.2123 216.376 96.3476 216.364C96.4829 216.351 96.6121 216.302 96.7208 216.22L107.483 210.005C107.776 209.82 108.012 209.556 108.163 209.244C108.314 208.931 108.374 208.583 108.337 208.238Z" fill="#EBEBEB"/>
<path d="M124.999 198.646L123.519 188.282C123.519 188.146 123.481 188.013 123.409 187.897C123.338 187.782 123.236 187.688 123.114 187.628C122.993 187.567 122.857 187.541 122.721 187.553C122.586 187.565 122.457 187.615 122.348 187.697L111.539 193.923C111.249 194.108 111.015 194.371 110.866 194.681C110.716 194.991 110.655 195.336 110.691 195.679L112.171 206.037C112.171 206.173 112.209 206.306 112.28 206.422C112.352 206.537 112.454 206.631 112.576 206.692C112.697 206.752 112.833 206.778 112.968 206.766C113.104 206.754 113.233 206.704 113.342 206.623L124.104 200.413C124.404 200.233 124.647 199.971 124.805 199.658C124.964 199.346 125.031 198.995 124.999 198.646Z" fill="#EBEBEB"/>
<path d="M141.625 189.049L140.145 178.661C140.145 178.525 140.107 178.392 140.035 178.276C139.964 178.161 139.862 178.067 139.74 178.007C139.619 177.946 139.483 177.92 139.347 177.932C139.212 177.945 139.083 177.994 138.974 178.076L128.212 184.291C127.921 184.476 127.688 184.738 127.538 185.048C127.389 185.358 127.328 185.704 127.363 186.046L128.844 196.405C128.844 196.541 128.882 196.674 128.953 196.789C129.025 196.905 129.127 196.998 129.248 197.059C129.37 197.12 129.506 197.146 129.641 197.133C129.776 197.121 129.906 197.072 130.014 196.99L140.8 190.793C141.083 190.605 141.31 190.343 141.455 190.035C141.601 189.728 141.659 189.387 141.625 189.049Z" fill="#EBEBEB"/>
<path d="M158.269 179.451L156.788 169.087C156.788 168.951 156.75 168.818 156.679 168.702C156.607 168.587 156.505 168.493 156.384 168.432C156.262 168.372 156.126 168.346 155.991 168.358C155.856 168.37 155.726 168.42 155.618 168.502L144.855 174.717C144.565 174.902 144.332 175.164 144.182 175.474C144.032 175.784 143.971 176.13 144.007 176.472L145.482 186.854C145.482 186.99 145.519 187.123 145.591 187.239C145.662 187.354 145.765 187.448 145.886 187.508C146.008 187.569 146.144 187.595 146.279 187.583C146.414 187.57 146.543 187.521 146.652 187.439L157.414 181.224C157.708 181.038 157.944 180.773 158.095 180.46C158.246 180.146 158.306 179.797 158.269 179.451Z" fill="#EBEBEB"/>
<path d="M174.912 169.883L173.431 159.518C173.431 159.383 173.393 159.249 173.322 159.134C173.251 159.018 173.148 158.925 173.027 158.864C172.905 158.803 172.769 158.778 172.634 158.79C172.499 158.802 172.37 158.852 172.261 158.933L161.499 165.148C161.209 165.334 160.976 165.596 160.826 165.906C160.676 166.216 160.615 166.561 160.65 166.904L162.125 177.268C162.127 177.403 162.166 177.535 162.238 177.649C162.31 177.763 162.412 177.856 162.532 177.916C162.653 177.976 162.788 178.002 162.923 177.991C163.057 177.98 163.186 177.933 163.295 177.853L174.057 171.638C174.349 171.453 174.583 171.191 174.733 170.881C174.884 170.571 174.946 170.226 174.912 169.883Z" fill="#EBEBEB"/>
<path d="M72.159 207.155L70.6784 196.803C70.6763 196.668 70.6372 196.536 70.5653 196.422C70.4934 196.307 70.3916 196.215 70.2709 196.155C70.1501 196.094 70.0151 196.068 69.8806 196.079C69.7461 196.09 69.6172 196.138 69.5079 196.218L58.7458 202.433C58.4558 202.618 58.223 202.88 58.0732 203.19C57.9233 203.5 57.8624 203.846 57.8972 204.188L59.372 214.552C59.3741 214.687 59.4132 214.819 59.4851 214.933C59.5569 215.048 59.6588 215.14 59.7795 215.2C59.9002 215.261 60.0352 215.287 60.1697 215.276C60.3043 215.265 60.4332 215.217 60.5424 215.138L71.3046 208.923C71.5956 208.735 71.8294 208.471 71.9801 208.159C72.1308 207.847 72.1927 207.5 72.159 207.155Z" fill="#98A2B3"/>
<path d="M88.8035 197.558L87.3229 187.193C87.3208 187.058 87.2817 186.927 87.2098 186.812C87.138 186.698 87.0361 186.606 86.9154 186.545C86.7947 186.485 86.6597 186.459 86.5251 186.47C86.3906 186.481 86.2617 186.529 86.1525 186.608L75.3903 192.823C75.1003 193.009 74.8675 193.271 74.7177 193.581C74.5679 193.891 74.507 194.236 74.5418 194.579L76.0165 204.943C76.0186 205.078 76.0577 205.21 76.1296 205.324C76.2014 205.438 76.3033 205.531 76.424 205.591C76.5448 205.651 76.6797 205.677 76.8143 205.666C76.9488 205.655 77.0777 205.608 77.1869 205.528L87.9491 199.313C88.2383 199.127 88.4708 198.864 88.6214 198.555C88.7721 198.245 88.835 197.9 88.8035 197.558Z" fill="#EBEBEB"/>
<path d="M105.447 187.96L103.966 177.596C103.964 177.461 103.925 177.329 103.853 177.215C103.782 177.1 103.68 177.008 103.559 176.948C103.438 176.887 103.303 176.861 103.169 176.872C103.034 176.883 102.905 176.931 102.796 177.011L92.0339 183.226C91.7439 183.411 91.511 183.673 91.3612 183.983C91.2114 184.293 91.1505 184.639 91.1853 184.981L92.6601 195.345C92.6622 195.48 92.7013 195.612 92.7731 195.726C92.845 195.841 92.9468 195.933 93.0676 195.993C93.1883 196.054 93.3233 196.08 93.4578 196.069C93.5923 196.058 93.7213 196.01 93.8305 195.931L104.593 189.716C104.882 189.529 105.114 189.267 105.265 188.957C105.416 188.648 105.479 188.303 105.447 187.96Z" fill="#EBEBEB"/>
<path d="M122.073 178.362L120.592 167.998C120.59 167.863 120.551 167.731 120.479 167.617C120.407 167.503 120.305 167.41 120.185 167.35C120.064 167.29 119.929 167.264 119.794 167.275C119.66 167.286 119.531 167.334 119.422 167.413L108.671 173.64C108.382 173.826 108.149 174.088 108 174.398C107.85 174.708 107.789 175.053 107.823 175.395L109.297 185.759C109.3 185.894 109.339 186.026 109.411 186.14C109.482 186.255 109.584 186.347 109.705 186.407C109.826 186.468 109.961 186.494 110.095 186.483C110.23 186.472 110.359 186.424 110.468 186.345L121.23 180.13C121.519 179.941 121.751 179.676 121.9 179.364C122.049 179.053 122.108 178.706 122.073 178.362Z" fill="#EBEBEB"/>
<path d="M138.734 168.765L137.253 158.407C137.253 158.271 137.215 158.138 137.144 158.022C137.073 157.906 136.97 157.813 136.849 157.752C136.727 157.692 136.591 157.666 136.456 157.678C136.321 157.69 136.191 157.74 136.083 157.821L125.315 164.031C125.025 164.217 124.793 164.479 124.643 164.789C124.493 165.099 124.432 165.444 124.466 165.786L125.941 176.15C125.943 176.285 125.982 176.417 126.054 176.531C126.126 176.646 126.228 176.738 126.349 176.798C126.469 176.859 126.604 176.885 126.739 176.874C126.873 176.863 127.002 176.815 127.111 176.736L137.874 170.509C138.162 170.324 138.395 170.064 138.547 169.757C138.699 169.449 138.763 169.106 138.734 168.765Z" fill="#EBEBEB"/>
<path d="M155.378 159.167L153.897 148.815C153.897 148.679 153.86 148.546 153.788 148.43C153.717 148.315 153.615 148.221 153.493 148.16C153.372 148.1 153.236 148.074 153.1 148.086C152.965 148.098 152.836 148.148 152.727 148.23L141.971 154.45C141.68 154.635 141.447 154.898 141.297 155.208C141.147 155.518 141.087 155.864 141.122 156.206L142.597 166.564C142.599 166.699 142.638 166.831 142.71 166.945C142.782 167.06 142.884 167.152 143.004 167.212C143.125 167.273 143.26 167.299 143.395 167.288C143.529 167.277 143.658 167.229 143.767 167.15L154.53 160.935C154.82 160.747 155.053 160.482 155.203 160.17C155.352 159.859 155.413 159.511 155.378 159.167Z" fill="#EBEBEB"/>
<path d="M172.022 149.575L170.541 139.211C170.541 139.075 170.503 138.942 170.432 138.827C170.36 138.711 170.258 138.618 170.137 138.557C170.015 138.496 169.879 138.47 169.744 138.483C169.609 138.495 169.479 138.545 169.371 138.626L158.603 144.841C158.314 145.027 158.082 145.29 157.933 145.6C157.785 145.91 157.725 146.255 157.76 146.597L159.235 156.955C159.237 157.09 159.276 157.222 159.348 157.336C159.42 157.45 159.521 157.543 159.642 157.603C159.763 157.663 159.898 157.69 160.032 157.678C160.167 157.667 160.296 157.62 160.405 157.54L171.167 151.331C171.456 151.144 171.688 150.882 171.839 150.572C171.989 150.263 172.053 149.918 172.022 149.575Z" fill="#EBEBEB"/>
<path d="M69.2625 186.854L67.7878 176.49C67.7856 176.355 67.7465 176.223 67.6747 176.109C67.6028 175.994 67.501 175.902 67.3802 175.842C67.2595 175.781 67.1245 175.755 66.99 175.766C66.8555 175.777 66.7266 175.825 66.6173 175.905L55.8434 182.172C55.5549 182.359 55.3232 182.622 55.1735 182.931C55.0239 183.241 54.9621 183.586 54.9949 183.928L56.4755 194.286C56.4755 194.422 56.5133 194.555 56.5847 194.671C56.6562 194.786 56.7583 194.88 56.8799 194.941C57.0014 195.001 57.1374 195.027 57.2727 195.015C57.408 195.003 57.5372 194.953 57.6459 194.871L68.4139 188.61C68.7034 188.424 68.9359 188.161 69.0857 187.851C69.2354 187.542 69.2966 187.196 69.2625 186.854Z" fill="#98A2B3"/>
<path d="M85.9061 177.28L84.4313 166.916C84.4292 166.781 84.3901 166.649 84.3182 166.535C84.2464 166.42 84.1445 166.328 84.0238 166.268C83.9031 166.207 83.7681 166.181 83.6336 166.192C83.499 166.203 83.3701 166.251 83.2609 166.33L72.4987 172.545C72.2102 172.732 71.9784 172.995 71.8288 173.304C71.6792 173.614 71.6174 173.959 71.6502 174.301L73.1308 184.665C73.1329 184.8 73.172 184.932 73.2438 185.046C73.3157 185.16 73.4176 185.253 73.5383 185.313C73.659 185.374 73.794 185.4 73.9285 185.389C74.063 185.378 74.192 185.33 74.3012 185.25L85.0634 179.035C85.3523 178.849 85.5839 178.587 85.7327 178.277C85.8814 177.967 85.9414 177.622 85.9061 177.28Z" fill="#EBEBEB"/>
<path d="M102.55 167.682L101.076 157.318C101.073 157.183 101.034 157.051 100.962 156.937C100.891 156.823 100.789 156.73 100.668 156.67C100.547 156.61 100.412 156.583 100.278 156.595C100.143 156.606 100.014 156.653 99.9051 156.733L89.1429 162.948C88.8548 163.135 88.6235 163.398 88.4739 163.707C88.3244 164.017 88.2623 164.361 88.2944 164.703L89.775 175.068C89.7771 175.203 89.8162 175.334 89.8881 175.449C89.9599 175.563 90.0618 175.655 90.1825 175.716C90.3032 175.776 90.4382 175.802 90.5727 175.791C90.7073 175.78 90.8362 175.732 90.9454 175.653L101.708 169.438C101.996 169.252 102.228 168.989 102.377 168.679C102.526 168.369 102.586 168.024 102.55 167.682Z" fill="#EBEBEB"/>
<path d="M119.194 158.085L117.719 147.72C117.717 147.586 117.678 147.454 117.606 147.339C117.534 147.225 117.432 147.133 117.312 147.072C117.191 147.012 117.056 146.986 116.921 146.997C116.787 147.008 116.658 147.056 116.549 147.135L105.786 153.35C105.498 153.538 105.267 153.8 105.117 154.11C104.968 154.419 104.906 154.764 104.938 155.106L106.419 165.47C106.421 165.605 106.46 165.737 106.532 165.851C106.603 165.965 106.705 166.058 106.826 166.118C106.947 166.179 107.082 166.205 107.216 166.194C107.351 166.182 107.48 166.135 107.589 166.055L118.351 159.84C118.64 159.654 118.872 159.391 119.02 159.082C119.169 158.772 119.229 158.427 119.194 158.085Z" fill="#EBEBEB"/>
<path d="M135.837 148.487L134.363 138.123C134.361 137.988 134.321 137.856 134.25 137.742C134.178 137.628 134.076 137.535 133.955 137.475C133.834 137.414 133.699 137.388 133.565 137.399C133.43 137.411 133.301 137.458 133.192 137.538L122.43 143.753C122.142 143.94 121.911 144.203 121.761 144.512C121.611 144.822 121.549 145.166 121.581 145.508L123.062 155.872C123.064 156.007 123.103 156.139 123.175 156.254C123.247 156.368 123.349 156.46 123.47 156.52C123.59 156.581 123.725 156.607 123.86 156.596C123.994 156.585 124.123 156.537 124.233 156.458L134.995 150.243C135.284 150.056 135.515 149.794 135.664 149.484C135.813 149.174 135.873 148.829 135.837 148.487Z" fill="#EBEBEB"/>
<path d="M152.504 138.866L151.03 128.502C151.027 128.367 150.988 128.235 150.917 128.121C150.845 128.007 150.743 127.914 150.622 127.854C150.501 127.794 150.366 127.768 150.232 127.779C150.097 127.79 149.968 127.837 149.859 127.917L139.044 134.184C138.756 134.372 138.525 134.635 138.375 134.944C138.226 135.253 138.164 135.598 138.196 135.94L139.676 146.304C139.678 146.439 139.718 146.571 139.789 146.685C139.861 146.8 139.963 146.892 140.084 146.952C140.205 147.013 140.34 147.039 140.474 147.028C140.609 147.017 140.738 146.969 140.847 146.89L151.632 140.622C151.927 140.44 152.165 140.179 152.319 139.869C152.473 139.558 152.537 139.211 152.504 138.866Z" fill="#EBEBEB"/>
<path d="M169.125 129.292L167.65 118.934C167.648 118.799 167.609 118.667 167.537 118.553C167.465 118.438 167.363 118.346 167.243 118.286C167.122 118.225 166.987 118.199 166.852 118.21C166.718 118.221 166.589 118.269 166.48 118.348L155.717 124.558C155.429 124.745 155.197 125.007 155.048 125.317C154.898 125.626 154.836 125.971 154.869 126.313L156.35 136.677C156.352 136.812 156.391 136.944 156.463 137.058C156.534 137.173 156.636 137.265 156.757 137.325C156.878 137.386 157.013 137.412 157.147 137.401C157.282 137.39 157.411 137.342 157.52 137.263L168.306 131.036C168.589 130.848 168.815 130.586 168.959 130.279C169.104 129.971 169.161 129.63 169.125 129.292Z" fill="#EBEBEB"/>
<path d="M66.3715 166.594L64.8909 156.235C64.8909 156.099 64.8531 155.966 64.7817 155.851C64.7103 155.735 64.6081 155.642 64.4866 155.581C64.3651 155.52 64.229 155.494 64.0937 155.507C63.9584 155.519 63.8292 155.568 63.7205 155.65L52.9583 161.859C52.6688 162.045 52.4364 162.308 52.2866 162.617C52.1369 162.927 52.0757 163.272 52.1098 163.615L53.6021 173.979C53.6021 174.115 53.6399 174.248 53.7113 174.364C53.7828 174.479 53.8849 174.573 54.0065 174.633C54.128 174.694 54.264 174.72 54.3993 174.708C54.5346 174.695 54.6638 174.646 54.7725 174.564L65.5347 168.349C65.823 168.163 66.0539 167.9 66.2016 167.59C66.3494 167.28 66.4082 166.935 66.3715 166.594Z" fill="#98A2B3"/>
<path d="M83.0158 157.008L81.5352 146.649C81.5352 146.513 81.4973 146.38 81.4259 146.265C81.3545 146.149 81.2523 146.056 81.1308 145.995C81.0093 145.934 80.8732 145.908 80.7379 145.921C80.6026 145.933 80.4734 145.983 80.3647 146.064L69.6026 152.279C69.3121 152.464 69.0789 152.726 68.929 153.036C68.7791 153.346 68.7185 153.692 68.754 154.035L70.2346 164.393C70.2346 164.529 70.2724 164.662 70.3439 164.778C70.4153 164.893 70.5175 164.987 70.639 165.047C70.7605 165.108 70.8965 165.134 71.0318 165.122C71.1671 165.109 71.2964 165.06 71.405 164.978L82.1672 158.763C82.4577 158.578 82.6909 158.316 82.8408 158.006C82.9906 157.696 83.0512 157.35 83.0158 157.008Z" fill="#EBEBEB"/>
<path d="M99.6583 147.404L98.1777 137.04C98.1777 136.904 98.1399 136.771 98.0685 136.656C97.9971 136.54 97.8949 136.447 97.7734 136.386C97.6519 136.325 97.5158 136.299 97.3805 136.312C97.2452 136.324 97.116 136.373 97.0073 136.455L86.2451 142.67C85.9547 142.855 85.7215 143.117 85.5716 143.427C85.4217 143.737 85.3611 144.083 85.3966 144.426L86.8772 154.784C86.8772 154.92 86.915 155.053 86.9864 155.169C87.0579 155.284 87.16 155.377 87.2816 155.438C87.4031 155.499 87.5391 155.525 87.6744 155.512C87.8097 155.5 87.9389 155.451 88.0476 155.369L98.8098 149.16C99.0993 148.974 99.3318 148.712 99.4815 148.402C99.6313 148.092 99.6924 147.747 99.6583 147.404Z" fill="#EBEBEB"/>
<path d="M116.303 137.807L114.822 127.443C114.822 127.307 114.784 127.174 114.713 127.058C114.642 126.943 114.539 126.849 114.418 126.788C114.296 126.728 114.16 126.702 114.025 126.714C113.89 126.726 113.761 126.776 113.652 126.857L102.89 133.073C102.599 133.258 102.366 133.52 102.216 133.83C102.066 134.14 102.006 134.486 102.041 134.828L103.516 145.192C103.518 145.327 103.557 145.459 103.629 145.573C103.701 145.688 103.803 145.78 103.923 145.84C104.044 145.901 104.179 145.927 104.314 145.916C104.448 145.905 104.577 145.857 104.686 145.778L115.448 139.563C115.739 139.377 115.973 139.115 116.123 138.805C116.274 138.495 116.336 138.15 116.303 137.807Z" fill="#EBEBEB"/>
<path d="M132.945 128.209L131.465 117.845C131.465 117.709 131.427 117.576 131.356 117.46C131.284 117.345 131.182 117.252 131.06 117.191C130.939 117.13 130.803 117.104 130.668 117.116C130.532 117.129 130.403 117.178 130.294 117.26L119.532 123.475C119.242 123.66 119.009 123.922 118.859 124.232C118.709 124.542 118.648 124.888 118.684 125.23L120.158 135.595C120.161 135.73 120.2 135.861 120.272 135.976C120.343 136.09 120.445 136.182 120.566 136.243C120.687 136.303 120.822 136.329 120.956 136.318C121.091 136.307 121.22 136.259 121.329 136.18L132.091 129.965C132.382 129.78 132.616 129.518 132.767 129.208C132.918 128.898 132.98 128.552 132.945 128.209Z" fill="#EBEBEB"/>
<path d="M149.578 118.612L148.097 108.247C148.097 108.112 148.059 107.978 147.988 107.863C147.917 107.747 147.814 107.654 147.693 107.593C147.571 107.532 147.435 107.507 147.3 107.519C147.165 107.531 147.036 107.581 146.927 107.662L136.165 113.877C135.875 114.063 135.642 114.325 135.492 114.635C135.342 114.945 135.281 115.29 135.316 115.633L136.797 125.991C136.799 126.126 136.838 126.258 136.91 126.372C136.982 126.486 137.084 126.579 137.204 126.639C137.325 126.7 137.46 126.726 137.595 126.715C137.729 126.704 137.858 126.656 137.967 126.576L148.729 120.361C149.018 120.176 149.251 119.915 149.4 119.606C149.55 119.297 149.612 118.953 149.578 118.612Z" fill="#EBEBEB"/>
<path d="M166.233 109.02L164.753 98.6558C164.753 98.52 164.715 98.3868 164.643 98.2713C164.572 98.1557 164.47 98.0623 164.348 98.0015C164.227 97.9408 164.091 97.9151 163.955 97.9273C163.82 97.9395 163.691 97.9891 163.582 98.0706L152.82 104.286C152.53 104.471 152.297 104.733 152.147 105.043C151.998 105.353 151.937 105.699 151.971 106.041L153.446 116.406C153.448 116.54 153.487 116.672 153.559 116.787C153.631 116.901 153.733 116.993 153.854 117.054C153.974 117.114 154.109 117.14 154.244 117.129C154.378 117.118 154.507 117.07 154.617 116.991L165.379 110.776C165.67 110.591 165.904 110.329 166.055 110.019C166.206 109.709 166.267 109.363 166.233 109.02Z" fill="#EBEBEB"/>
<path d="M63.8146 148.276L63.4401 145.631C63.4401 145.495 63.4023 145.362 63.3308 145.247C63.2594 145.131 63.1572 145.038 63.0357 144.977C62.9142 144.916 62.7782 144.89 62.6429 144.903C62.5076 144.915 62.3783 144.964 62.2697 145.046L51.5016 151.273C51.2117 151.458 50.9788 151.721 50.829 152.03C50.6792 152.34 50.6183 152.686 50.6531 153.028L51.0218 155.674C51.0239 155.808 51.063 155.94 51.1348 156.055C51.2067 156.169 51.3086 156.261 51.4293 156.322C51.55 156.382 51.685 156.408 51.8195 156.397C51.954 156.386 52.083 156.338 52.1922 156.259L62.9661 150.02C63.2528 149.834 63.4833 149.574 63.6328 149.266C63.7823 148.959 63.8452 148.617 63.8146 148.276Z" fill="#E6E6E6"/>
<path d="M80.4582 138.679L80.0837 136.034C80.0837 135.898 80.0458 135.765 79.9744 135.649C79.903 135.534 79.8008 135.44 79.6793 135.379C79.5578 135.319 79.4217 135.293 79.2864 135.305C79.1511 135.317 79.0219 135.367 78.9132 135.449L68.1452 141.675C67.8552 141.861 67.6224 142.123 67.4726 142.433C67.3228 142.743 67.2619 143.088 67.2966 143.431L67.6653 146.076C67.6674 146.211 67.7065 146.343 67.7784 146.457C67.8503 146.571 67.9521 146.664 68.0728 146.724C68.1936 146.784 68.3286 146.811 68.4631 146.799C68.5976 146.788 68.7265 146.741 68.8358 146.661L79.6038 140.446C79.8953 140.259 80.1294 139.995 80.2802 139.683C80.431 139.371 80.4926 139.024 80.4582 138.679Z" fill="#E6E6E6"/>
<path d="M97.1017 129.081L96.7272 126.436C96.7251 126.301 96.686 126.169 96.6141 126.055C96.5423 125.941 96.4404 125.848 96.3197 125.788C96.1989 125.728 96.064 125.702 95.9294 125.713C95.7949 125.724 95.666 125.772 95.5568 125.851L84.7888 132.078C84.4988 132.263 84.2659 132.525 84.1161 132.835C83.9663 133.145 83.9054 133.491 83.9402 133.833L84.3089 136.478C84.3089 136.614 84.3467 136.747 84.4181 136.863C84.4896 136.979 84.5917 137.072 84.7133 137.133C84.8348 137.193 84.9708 137.219 85.1061 137.207C85.2414 137.195 85.3706 137.145 85.4793 137.064L96.2473 130.849C96.5389 130.661 96.773 130.397 96.9238 130.085C97.0745 129.773 97.1361 129.426 97.1017 129.081Z" fill="#E6E6E6"/>
<path d="M113.745 119.489L113.371 116.838C113.369 116.703 113.33 116.572 113.258 116.457C113.186 116.343 113.084 116.251 112.963 116.19C112.843 116.13 112.708 116.104 112.573 116.115C112.438 116.126 112.31 116.174 112.2 116.253L101.432 122.48C101.142 122.665 100.909 122.928 100.76 123.238C100.61 123.548 100.549 123.893 100.584 124.236L100.952 126.881C100.952 127.017 100.99 127.15 101.062 127.265C101.133 127.381 101.235 127.474 101.357 127.535C101.478 127.596 101.614 127.622 101.75 127.609C101.885 127.597 102.014 127.547 102.123 127.466L112.891 121.257C113.181 121.069 113.415 120.804 113.566 120.493C113.716 120.181 113.778 119.834 113.745 119.489Z" fill="#E6E6E6"/>
<path d="M130.389 109.892L130.014 107.241C130.012 107.106 129.973 106.974 129.901 106.86C129.829 106.746 129.727 106.653 129.606 106.593C129.486 106.533 129.351 106.507 129.216 106.518C129.082 106.529 128.953 106.576 128.844 106.656L118.076 112.882C117.786 113.068 117.554 113.331 117.404 113.641C117.254 113.951 117.193 114.296 117.227 114.638L117.596 117.283C117.596 117.419 117.633 117.552 117.705 117.668C117.776 117.783 117.879 117.877 118 117.938C118.122 117.998 118.258 118.024 118.393 118.012C118.528 118 118.657 117.95 118.766 117.869L129.534 111.659C129.825 111.471 130.058 111.207 130.209 110.895C130.359 110.584 130.422 110.237 130.389 109.892Z" fill="#E6E6E6"/>
<path d="M147.032 100.294L146.658 97.649C146.658 97.5132 146.62 97.38 146.548 97.2644C146.477 97.1489 146.375 97.0555 146.253 96.9947C146.132 96.934 145.996 96.9082 145.86 96.9204C145.725 96.9326 145.596 96.9823 145.487 97.0638L134.719 103.285C134.43 103.471 134.197 103.733 134.047 104.043C133.898 104.353 133.836 104.698 133.871 105.04L134.239 107.691C134.241 107.826 134.28 107.958 134.352 108.072C134.424 108.187 134.526 108.279 134.647 108.339C134.767 108.4 134.902 108.426 135.037 108.415C135.172 108.404 135.3 108.356 135.41 108.277L146.178 102.062C146.469 101.874 146.702 101.61 146.853 101.298C147.004 100.986 147.066 100.639 147.032 100.294Z" fill="#E6E6E6"/>
<path d="M163.67 90.6968L163.302 88.0516C163.302 87.9157 163.264 87.7826 163.193 87.667C163.121 87.5514 163.019 87.4581 162.897 87.3973C162.776 87.3365 162.64 87.3108 162.505 87.323C162.369 87.3352 162.24 87.3849 162.131 87.4664L151.369 93.6814C151.079 93.8664 150.845 94.1287 150.696 94.4387C150.546 94.7488 150.485 95.0945 150.521 95.437L150.889 98.0822C150.891 98.2172 150.931 98.349 151.002 98.4633C151.074 98.5775 151.176 98.6699 151.297 98.7302C151.418 98.7906 151.553 98.8167 151.687 98.8056C151.822 98.7945 151.95 98.7467 152.06 98.6674L162.828 92.4524C163.116 92.2657 163.347 92.003 163.496 91.6932C163.645 91.3834 163.705 91.0386 163.67 90.6968Z" fill="#E6E6E6"/>
<path opacity="0.2" d="M51.2609 132.651C51.208 131.878 51.3676 131.105 51.7224 130.416C52.0773 129.727 52.6138 129.148 53.274 128.742C54.5849 127.987 55.808 128.508 56.0129 129.912C56.0672 130.686 55.9076 131.461 55.5515 132.15C55.1954 132.84 54.6565 133.418 53.9939 133.822C52.6888 134.577 51.4657 134.056 51.2609 132.651Z" fill="#191919"/>
<path opacity="0.2" d="M67.9225 123.065C67.8683 122.292 68.0273 121.518 68.3822 120.829C68.7372 120.14 69.2745 119.561 69.9356 119.156C71.2465 118.395 72.4696 118.916 72.6745 120.326C72.7283 121.1 72.5685 121.873 72.2124 122.561C71.8563 123.25 71.3176 123.827 70.6555 124.23C69.3446 124.961 68.1215 124.44 67.9225 123.065Z" fill="#191919"/>
<path opacity="0.2" d="M84.5485 113.438C84.4942 112.665 84.6532 111.892 85.0082 111.202C85.3632 110.513 85.9005 109.934 86.5616 109.529C87.8725 108.768 89.1015 109.289 89.3004 110.7C89.3542 111.472 89.195 112.245 88.84 112.933C88.485 113.621 87.9479 114.199 87.2873 114.603C85.9764 115.358 84.7474 114.837 84.5485 113.438Z" fill="#191919"/>
<path opacity="0.2" d="M117.824 94.2257C117.77 93.4522 117.929 92.6788 118.284 91.9895C118.639 91.3002 119.176 90.7215 119.837 90.3164C121.148 89.5615 122.371 90.0823 122.57 91.4869C122.627 92.2606 122.469 93.0351 122.114 93.7249C121.759 94.4147 121.22 94.993 120.557 95.3961C119.246 96.1452 118.023 95.6302 117.824 94.2257Z" fill="#191919"/>
<path opacity="0.2" d="M134.48 84.6164C134.424 83.8428 134.582 83.0688 134.938 82.3793C135.293 81.6897 135.831 81.1112 136.493 80.7071C137.804 79.9464 139.027 80.4672 139.232 81.8776C139.286 82.6517 139.126 83.4258 138.77 84.1153C138.414 84.8048 137.875 85.383 137.213 85.7868C135.902 86.5359 134.679 86.0151 134.48 84.6164Z" fill="#191919"/>
<path opacity="0.2" d="M151.105 75.0129C151.051 74.2395 151.21 73.466 151.565 72.7767C151.92 72.0874 152.457 71.5087 153.118 71.1036C154.429 70.3428 155.658 70.8637 155.857 72.2741C155.911 73.0466 155.752 73.8191 155.397 74.5074C155.042 75.1957 154.505 75.7734 153.844 76.1775C152.504 76.9324 151.333 76.4116 151.105 75.0129Z" fill="#191919"/>
<path d="M49.5404 116.838C47.7848 115.814 46.0643 115.668 44.7534 116.423C43.4425 117.178 42.7168 118.723 42.7168 120.777C42.7282 121.738 42.87 122.692 43.1382 123.615L44.1798 123.03C43.9928 122.297 43.8946 121.545 43.8872 120.789C43.8872 119.173 44.4022 117.985 45.3386 117.447C45.7227 117.232 46.1569 117.123 46.5968 117.131C47.4268 117.171 48.2328 117.422 48.9377 117.862C52.051 119.665 54.585 124.054 54.585 127.647C54.5868 127.903 54.5731 128.159 54.5441 128.414C54.5297 128.923 54.395 129.422 54.1509 129.87C53.9068 130.318 53.5602 130.701 53.1395 130.989C52.603 131.279 51.984 131.378 51.3839 131.27C51.2657 131.648 51.2162 132.044 51.2376 132.44C51.4563 132.475 51.6774 132.493 51.8989 132.493C52.5434 132.501 53.1782 132.335 53.7365 132.013C54.2589 131.685 54.7018 131.245 55.0328 130.725C55.3639 130.205 55.5747 129.617 55.6501 129.005C55.729 128.561 55.7681 128.11 55.7672 127.659C55.773 123.65 52.9757 118.822 49.5404 116.838Z" fill="#F5F5F5"/>
<path d="M66.1957 107.229C64.4401 106.205 62.7195 106.059 61.4086 106.814C60.0977 107.569 59.3721 109.114 59.3721 111.168C59.3835 112.128 59.5252 113.083 59.7934 114.006L60.8351 113.421C60.6481 112.688 60.5499 111.936 60.5425 111.179C60.5425 109.564 61.0575 108.376 61.9938 107.838C62.378 107.623 62.8121 107.514 63.2521 107.522C64.0821 107.561 64.8881 107.813 65.5929 108.253C68.7063 110.056 71.2403 114.445 71.2403 118.038C71.242 118.294 71.2284 118.55 71.1993 118.805C71.185 119.314 71.0503 119.813 70.8062 120.261C70.562 120.708 70.2155 121.092 69.7948 121.38C69.2583 121.67 68.6393 121.769 68.0391 121.661C67.921 122.039 67.8714 122.435 67.8928 122.831C68.1116 122.866 68.3327 122.883 68.5541 122.884C69.1987 122.892 69.8334 122.726 70.3917 122.404C70.9142 122.076 71.3571 121.636 71.6881 121.116C72.0191 120.596 72.23 120.008 72.3054 119.396C72.3842 118.952 72.4234 118.501 72.4224 118.05C72.4283 114.059 69.6309 109.213 66.1957 107.229Z" fill="#F5F5F5"/>
<path d="M82.8217 97.6257C81.066 96.6015 79.3455 96.4552 78.0346 97.2101C76.7237 97.9651 75.998 99.5101 75.998 101.564C76.0095 102.525 76.1512 103.48 76.4194 104.402L77.4611 103.817C77.2741 103.085 77.1758 102.332 77.1685 101.576C77.1685 99.9607 77.6835 98.7727 78.6198 98.2343C79.004 98.0198 79.4381 97.9107 79.878 97.9183C80.7081 97.9579 81.514 98.2097 82.2189 98.6498C85.3323 100.452 87.8663 104.841 87.8663 108.435C87.868 108.691 87.8543 108.947 87.8253 109.201C87.811 109.711 87.6762 110.21 87.4321 110.657C87.188 111.105 86.8415 111.488 86.4208 111.776C85.8843 112.066 85.2653 112.165 84.6651 112.057C84.547 112.435 84.4974 112.832 84.5188 113.228C84.7375 113.262 84.9587 113.28 85.1801 113.28C85.8246 113.288 86.4594 113.123 87.0177 112.8C87.5402 112.473 87.983 112.033 88.3141 111.512C88.6451 110.992 88.856 110.404 88.9314 109.792C89.0102 109.348 89.0494 108.898 89.0484 108.446C89.0543 104.455 86.2569 99.6095 82.8217 97.6257Z" fill="#F5F5F5"/>
<path d="M116.104 78.4423C114.348 77.4182 112.628 77.2719 111.317 78.0268C110.006 78.7817 109.28 80.3267 109.28 82.3808C109.292 83.3416 109.433 84.2964 109.702 85.2191L110.743 84.6339C110.556 83.9012 110.458 83.1487 110.451 82.3925C110.451 80.7773 110.966 79.5893 111.902 79.0509C112.286 78.8364 112.72 78.7274 113.16 78.7349C113.99 78.7745 114.796 79.0264 115.501 79.4664C118.614 81.2689 121.149 85.658 121.149 89.2513C121.15 89.5074 121.137 89.7634 121.108 90.0179C121.093 90.5275 120.958 91.0265 120.714 91.474C120.47 91.9215 120.124 92.3049 119.703 92.5929C119.167 92.8826 118.548 92.9817 117.947 92.8738C117.829 93.2521 117.78 93.6485 117.801 94.0442C118.02 94.079 118.241 94.0966 118.462 94.0969C119.107 94.1049 119.742 93.9391 120.3 93.617C120.822 93.2894 121.265 92.8493 121.596 92.329C121.927 91.8087 122.138 91.2211 122.214 90.609C122.292 90.1647 122.332 89.7142 122.331 89.263C122.336 85.2718 119.539 80.4262 116.104 78.4423Z" fill="#F5F5F5"/>
<path d="M132.759 68.8271C131.004 67.8029 129.283 67.6566 127.972 68.4116C126.661 69.1665 125.936 70.7115 125.936 72.7656C125.947 73.7264 126.089 74.6812 126.357 75.6039L127.399 75.0187C127.212 74.286 127.113 73.5334 127.106 72.7773C127.106 71.1621 127.621 69.9741 128.557 69.4357C128.941 69.2212 129.376 69.1121 129.816 69.1197C130.646 69.1593 131.452 69.4111 132.156 69.8512C135.27 71.6537 137.804 76.0428 137.804 79.636C137.806 79.8922 137.792 80.1482 137.763 80.4027C137.748 80.9123 137.614 81.4112 137.37 81.8588C137.126 82.3063 136.779 82.6897 136.358 82.9776C135.822 83.2674 135.203 83.3665 134.603 83.2585C134.484 83.6369 134.435 84.0332 134.456 84.429C134.675 84.4637 134.896 84.4813 135.118 84.4817C135.762 84.4897 136.397 84.3239 136.955 84.0018C137.478 83.6741 137.921 83.2341 138.252 82.7138C138.583 82.1934 138.793 81.6058 138.869 80.9938C138.948 80.5494 138.987 80.099 138.986 79.6477C138.992 75.6624 136.194 70.811 132.759 68.8271Z" fill="#F5F5F5"/>
<path d="M149.385 59.2238C147.63 58.1997 145.909 58.0534 144.598 58.8083C143.287 59.5632 142.556 61.1082 142.556 63.1623C142.567 64.1231 142.709 65.0779 142.977 66.0006L144.019 65.4154C143.832 64.6827 143.733 63.9302 143.726 63.174C143.726 61.5588 144.241 60.3708 145.177 59.8324C145.562 59.6179 145.996 59.5089 146.436 59.5164C147.266 59.556 148.072 59.8079 148.777 60.2479C151.89 62.0504 154.424 66.4395 154.424 70.0328C154.426 70.2889 154.412 70.5449 154.383 70.7994C154.369 71.309 154.234 71.808 153.99 72.2555C153.746 72.703 153.399 73.0864 152.978 73.3744C152.442 73.6641 151.823 73.7632 151.223 73.6553C151.105 74.0336 151.055 74.43 151.076 74.8257C151.295 74.8605 151.516 74.8781 151.738 74.8784C152.382 74.8864 153.017 74.7206 153.575 74.3985C154.098 74.0708 154.541 73.6308 154.872 73.1105C155.203 72.5902 155.414 72.0026 155.489 71.3905C155.568 70.9462 155.607 70.4957 155.606 70.0445C155.618 66.0533 152.82 61.2077 149.385 59.2238Z" fill="#F5F5F5"/>
<path d="M224.283 159.765L228.207 162.028V168.828L224.283 166.561V159.765Z" fill="#020C0A"/>
<path d="M221.274 143.372L208.581 150.698V136.027C208.592 135.671 208.507 135.319 208.333 135.008C208.16 134.697 207.905 134.439 207.597 134.261C207.288 134.084 206.937 133.994 206.581 134C206.225 134.007 205.877 134.11 205.576 134.299L142.797 170.556C140.37 171.976 139.153 173.788 139.153 175.625V236.808C139.153 238.644 140.37 240.48 142.797 241.881L142.883 241.933C147.738 244.735 155.604 244.735 160.46 241.933L223.223 205.691C223.527 205.491 223.779 205.223 223.961 204.908C224.142 204.593 224.248 204.241 224.269 203.878V143.902L223.285 143.334C222.97 143.184 222.624 143.109 222.275 143.115C221.926 143.122 221.583 143.21 221.274 143.372Z" fill="#98A2B3"/>
<path d="M142.797 180.679C137.961 177.891 137.961 173.324 142.797 170.537L205.576 134.299C205.886 134.134 206.232 134.044 206.584 134.037C206.936 134.031 207.284 134.108 207.601 134.261C208.141 134.574 208.112 135.099 207.535 135.43L146.513 170.674C145.935 171.01 144.989 171.54 144.454 171.942C141.614 174.067 141.368 176.902 143.806 178.909C144.446 179.398 145.143 179.806 145.883 180.125C149.385 181.588 154.402 181.441 158.126 179.761C158.737 179.486 159.669 178.937 160.247 178.606L221.297 143.372C221.608 143.207 221.954 143.118 222.306 143.112C222.657 143.105 223.006 143.181 223.323 143.334C223.867 143.646 223.839 144.171 223.261 144.508L160.46 180.75C155.623 183.542 147.719 183.542 142.883 180.75L142.797 180.679Z" fill="#98A2B3"/>
<path opacity="0.3" d="M142.797 180.679C137.961 177.891 137.961 173.324 142.797 170.537L205.576 134.299C205.886 134.134 206.232 134.044 206.584 134.037C206.936 134.031 207.284 134.108 207.601 134.261C208.141 134.574 208.112 135.099 207.535 135.43L146.513 170.674C145.935 171.01 144.989 171.54 144.454 171.942C141.614 174.067 141.368 176.902 143.806 178.909C144.446 179.398 145.143 179.806 145.883 180.125C149.385 181.588 154.402 181.441 158.126 179.761C158.737 179.486 159.669 178.937 160.247 178.606L221.297 143.372C221.608 143.207 221.954 143.118 222.306 143.112C222.657 143.105 223.006 143.181 223.323 143.334C223.867 143.646 223.839 144.171 223.261 144.508L160.46 180.75C155.623 183.542 147.719 183.542 142.883 180.75L142.797 180.679Z" fill="#191919"/>
<path d="M141.222 184.351C141.165 184.351 141.11 184.331 141.066 184.295C140.758 184.027 140.471 183.736 140.209 183.424C140.169 183.375 140.15 183.313 140.155 183.251C140.161 183.188 140.191 183.13 140.24 183.09C140.288 183.05 140.35 183.031 140.413 183.036C140.476 183.042 140.533 183.073 140.573 183.121C140.82 183.413 141.089 183.685 141.378 183.935C141.425 183.977 141.454 184.035 141.458 184.098C141.463 184.161 141.442 184.223 141.402 184.271C141.379 184.296 141.351 184.316 141.32 184.33C141.289 184.344 141.256 184.351 141.222 184.351Z" fill="#F5F5F5"/>
<path d="M152.433 187.598C152.372 187.598 152.313 187.574 152.269 187.532C152.225 187.49 152.199 187.432 152.197 187.371C152.195 187.339 152.2 187.308 152.211 187.279C152.222 187.249 152.239 187.222 152.261 187.199C152.282 187.176 152.308 187.158 152.337 187.145C152.366 187.132 152.397 187.125 152.428 187.125C153.221 187.098 154.011 187.027 154.795 186.912C154.826 186.907 154.857 186.909 154.887 186.916C154.917 186.923 154.946 186.937 154.971 186.955C154.996 186.974 155.017 186.997 155.033 187.024C155.049 187.05 155.06 187.08 155.065 187.111C155.073 187.173 155.057 187.235 155.02 187.286C154.983 187.336 154.927 187.37 154.866 187.38C154.069 187.496 153.266 187.569 152.462 187.598H152.433ZM150.067 187.551C149.273 187.49 148.482 187.382 147.701 187.229C147.67 187.224 147.641 187.213 147.614 187.196C147.588 187.179 147.565 187.157 147.548 187.132C147.53 187.106 147.518 187.077 147.512 187.047C147.505 187.016 147.505 186.985 147.511 186.954C147.524 186.893 147.56 186.838 147.612 186.803C147.665 186.768 147.728 186.754 147.791 186.765C148.561 186.916 149.34 187.02 150.124 187.077C150.186 187.077 150.247 187.102 150.291 187.147C150.335 187.191 150.36 187.251 150.36 187.314C150.36 187.377 150.335 187.437 150.291 187.481C150.247 187.526 150.186 187.551 150.124 187.551H150.067ZM157.166 186.883C157.114 186.883 157.064 186.866 157.023 186.834C156.982 186.803 156.952 186.758 156.939 186.708C156.93 186.679 156.927 186.648 156.931 186.617C156.934 186.587 156.944 186.557 156.959 186.53C156.974 186.503 156.994 186.48 157.018 186.461C157.042 186.442 157.07 186.428 157.1 186.42C157.854 186.208 158.591 185.939 159.305 185.615C159.333 185.602 159.363 185.594 159.394 185.592C159.425 185.591 159.456 185.595 159.485 185.606C159.514 185.617 159.541 185.633 159.564 185.654C159.586 185.675 159.605 185.7 159.617 185.729C159.631 185.757 159.639 185.788 159.64 185.819C159.642 185.85 159.637 185.881 159.627 185.911C159.616 185.94 159.6 185.968 159.579 185.991C159.558 186.014 159.532 186.033 159.504 186.046C158.767 186.379 158.006 186.656 157.227 186.874L157.166 186.883ZM145.405 186.628C145.38 186.632 145.355 186.632 145.33 186.628C144.563 186.375 143.819 186.059 143.105 185.681C143.054 185.65 143.018 185.6 143.002 185.542C142.987 185.484 142.994 185.422 143.022 185.369C143.05 185.316 143.098 185.276 143.154 185.257C143.211 185.237 143.273 185.24 143.328 185.265C144.018 185.639 144.739 185.955 145.481 186.211C145.544 186.221 145.6 186.256 145.637 186.307C145.675 186.359 145.69 186.423 145.68 186.486C145.67 186.549 145.635 186.605 145.584 186.642C145.532 186.679 145.468 186.695 145.405 186.685V186.628ZM161.496 184.924C161.445 184.924 161.394 184.906 161.354 184.875C161.313 184.843 161.283 184.799 161.27 184.749C161.257 184.699 161.26 184.646 161.279 184.598C161.299 184.55 161.333 184.51 161.378 184.484L163.446 183.291C163.473 183.272 163.503 183.258 163.536 183.251C163.568 183.244 163.602 183.244 163.634 183.251C163.666 183.258 163.697 183.272 163.724 183.291C163.751 183.31 163.773 183.335 163.79 183.364C163.806 183.392 163.817 183.424 163.82 183.457C163.824 183.49 163.821 183.523 163.811 183.555C163.8 183.586 163.784 183.615 163.762 183.64C163.74 183.665 163.713 183.685 163.683 183.698L161.615 184.891C161.574 184.923 161.524 184.94 161.473 184.938L161.496 184.924ZM165.632 182.558C165.59 182.558 165.549 182.547 165.513 182.526C165.476 182.506 165.446 182.476 165.424 182.44C165.405 182.413 165.391 182.384 165.383 182.352C165.376 182.321 165.375 182.288 165.381 182.256C165.387 182.224 165.399 182.193 165.417 182.166C165.435 182.139 165.458 182.116 165.486 182.099L167.549 180.901C167.604 180.871 167.668 180.863 167.729 180.88C167.789 180.897 167.84 180.937 167.871 180.991C167.887 181.018 167.898 181.047 167.902 181.078C167.906 181.109 167.904 181.14 167.897 181.17C167.889 181.2 167.875 181.228 167.856 181.253C167.837 181.277 167.813 181.298 167.786 181.313L165.722 182.506C165.688 182.527 165.649 182.538 165.609 182.539L165.632 182.558ZM169.764 180.192C169.723 180.191 169.682 180.18 169.647 180.159C169.611 180.139 169.581 180.109 169.561 180.073C169.529 180.018 169.521 179.954 169.537 179.893C169.553 179.832 169.592 179.779 169.646 179.747L171.709 178.554C171.765 178.524 171.83 178.517 171.89 178.534C171.951 178.551 172.003 178.59 172.036 178.644C172.066 178.699 172.074 178.763 172.057 178.823C172.04 178.884 172 178.935 171.946 178.966L169.882 180.158C169.837 180.171 169.789 180.17 169.745 180.154L169.764 180.192ZM173.896 177.825C173.854 177.825 173.814 177.814 173.778 177.793C173.742 177.772 173.713 177.743 173.692 177.707C173.661 177.652 173.652 177.587 173.668 177.526C173.684 177.465 173.723 177.413 173.777 177.38L175.845 176.188C175.872 176.172 175.902 176.162 175.933 176.158C175.964 176.154 175.995 176.156 176.026 176.164C176.056 176.173 176.084 176.187 176.108 176.206C176.132 176.226 176.153 176.25 176.167 176.278C176.198 176.332 176.207 176.396 176.191 176.456C176.175 176.516 176.136 176.568 176.082 176.599L174.004 177.735C173.964 177.758 173.918 177.769 173.872 177.768L173.896 177.825ZM178.027 175.459C177.986 175.46 177.945 175.449 177.909 175.428C177.873 175.407 177.844 175.377 177.824 175.341C177.793 175.287 177.784 175.222 177.8 175.162C177.816 175.102 177.855 175.05 177.909 175.019L179.977 173.826C180.004 173.81 180.033 173.8 180.064 173.795C180.095 173.791 180.126 173.793 180.156 173.801C180.186 173.809 180.214 173.822 180.239 173.842C180.263 173.861 180.284 173.884 180.299 173.911C180.33 173.966 180.339 174.031 180.323 174.092C180.307 174.153 180.268 174.205 180.214 174.238L178.146 175.431C178.094 175.428 178.045 175.41 178.004 175.378L178.027 175.459ZM182.159 173.093C182.107 173.092 182.057 173.075 182.016 173.043C181.975 173.011 181.946 172.967 181.933 172.917C181.919 172.868 181.923 172.815 181.942 172.767C181.961 172.719 181.996 172.679 182.04 172.652L184.109 171.46C184.135 171.444 184.165 171.433 184.195 171.429C184.226 171.425 184.258 171.426 184.288 171.434C184.318 171.442 184.346 171.456 184.37 171.475C184.395 171.494 184.415 171.518 184.43 171.545C184.462 171.6 184.47 171.665 184.454 171.726C184.438 171.787 184.399 171.839 184.345 171.872L182.277 173.064C182.223 173.056 182.174 173.031 182.135 172.993L182.159 173.093ZM186.295 170.726C186.243 170.726 186.193 170.708 186.153 170.677C186.112 170.645 186.082 170.601 186.069 170.551C186.056 170.501 186.059 170.448 186.078 170.4C186.098 170.353 186.132 170.312 186.177 170.286L188.24 169.094C188.294 169.069 188.354 169.066 188.41 169.084C188.466 169.102 188.513 169.14 188.542 169.19C188.572 169.241 188.581 169.301 188.569 169.358C188.557 169.415 188.524 169.466 188.477 169.501L186.413 170.698C186.358 170.684 186.308 170.652 186.271 170.608L186.295 170.726ZM190.427 168.36C190.385 168.36 190.344 168.349 190.307 168.328C190.271 168.307 190.24 168.277 190.218 168.242C190.189 168.187 190.182 168.123 190.199 168.063C190.215 168.003 190.255 167.952 190.308 167.92L192.372 166.727C192.399 166.708 192.429 166.694 192.461 166.687C192.494 166.68 192.527 166.68 192.56 166.687C192.592 166.694 192.623 166.707 192.65 166.727C192.676 166.746 192.699 166.771 192.716 166.8C192.732 166.828 192.743 166.86 192.746 166.893C192.75 166.926 192.746 166.959 192.736 166.991C192.726 167.022 192.71 167.051 192.688 167.076C192.666 167.101 192.639 167.121 192.608 167.134L190.545 168.327C190.515 168.32 190.488 168.307 190.463 168.289C190.439 168.272 190.418 168.249 190.403 168.223L190.427 168.36ZM194.558 165.994C194.507 165.993 194.457 165.976 194.416 165.944C194.375 165.912 194.346 165.868 194.332 165.818C194.319 165.769 194.322 165.716 194.341 165.668C194.361 165.62 194.395 165.58 194.44 165.554L196.503 164.361C196.558 164.33 196.623 164.321 196.684 164.337C196.745 164.353 196.797 164.392 196.83 164.446C196.861 164.501 196.868 164.565 196.851 164.626C196.835 164.686 196.794 164.737 196.74 164.768L194.677 165.961C194.645 165.952 194.616 165.936 194.592 165.915C194.567 165.893 194.548 165.867 194.535 165.837L194.558 165.994ZM198.69 163.627C198.638 163.627 198.588 163.609 198.547 163.578C198.506 163.546 198.477 163.502 198.464 163.452C198.45 163.402 198.454 163.349 198.473 163.302C198.492 163.254 198.527 163.214 198.571 163.187L200.64 161.99C200.695 161.96 200.759 161.953 200.819 161.97C200.879 161.987 200.93 162.026 200.961 162.08C200.977 162.106 200.988 162.136 200.992 162.167C200.997 162.197 200.995 162.229 200.987 162.259C200.979 162.289 200.965 162.317 200.946 162.341C200.927 162.366 200.903 162.386 200.876 162.402L198.808 163.594C198.775 163.584 198.744 163.566 198.719 163.541C198.695 163.516 198.676 163.486 198.666 163.452L198.69 163.627ZM202.821 161.261C202.78 161.261 202.74 161.25 202.704 161.229C202.668 161.208 202.639 161.179 202.618 161.143C202.587 161.088 202.578 161.023 202.594 160.962C202.61 160.901 202.649 160.849 202.703 160.816L204.766 159.43C204.821 159.4 204.885 159.393 204.945 159.41C205.005 159.427 205.057 159.466 205.088 159.519C205.104 159.546 205.115 159.576 205.119 159.606C205.124 159.637 205.122 159.668 205.114 159.698C205.106 159.728 205.092 159.757 205.073 159.781C205.054 159.806 205.03 159.826 205.003 159.841L202.935 161.034C202.894 161.06 202.846 161.072 202.798 161.067L202.821 161.261ZM206.953 158.895C206.912 158.894 206.871 158.883 206.835 158.863C206.8 158.842 206.77 158.812 206.749 158.776C206.718 158.722 206.71 158.657 206.725 158.596C206.741 158.535 206.781 158.482 206.835 158.45L208.903 157.257C208.929 157.241 208.959 157.231 208.99 157.226C209.02 157.222 209.052 157.224 209.082 157.232C209.112 157.24 209.14 157.254 209.164 157.273C209.189 157.292 209.209 157.315 209.225 157.342C209.256 157.397 209.264 157.462 209.249 157.523C209.233 157.584 209.193 157.636 209.139 157.669L207.071 158.862C207.035 158.844 207.004 158.819 206.979 158.788C206.955 158.757 206.938 158.721 206.929 158.682L206.953 158.895ZM211.089 156.528C211.047 156.529 211.006 156.518 210.969 156.497C210.933 156.476 210.902 156.446 210.881 156.41C210.85 156.356 210.843 156.291 210.859 156.231C210.876 156.17 210.916 156.119 210.971 156.088L213.034 154.896C213.061 154.88 213.09 154.869 213.121 154.865C213.152 154.86 213.183 154.862 213.213 154.87C213.243 154.878 213.271 154.892 213.296 154.911C213.321 154.93 213.341 154.954 213.356 154.981C213.387 155.036 213.396 155.1 213.38 155.162C213.364 155.223 213.325 155.275 213.271 155.307L211.208 156.5C211.169 156.48 211.136 156.45 211.111 156.414C211.086 156.377 211.071 156.335 211.066 156.292L211.089 156.528ZM215.221 154.162C215.179 154.162 215.138 154.151 215.101 154.13C215.065 154.109 215.034 154.08 215.013 154.044C214.983 153.989 214.976 153.925 214.993 153.865C215.01 153.805 215.049 153.754 215.103 153.722L217.166 152.529C217.221 152.498 217.285 152.49 217.346 152.506C217.407 152.522 217.459 152.562 217.49 152.617C217.521 152.672 217.53 152.736 217.513 152.797C217.497 152.858 217.457 152.91 217.403 152.941L215.339 154.134C215.294 154.114 215.255 154.083 215.227 154.043C215.199 154.002 215.182 153.955 215.178 153.907L215.221 154.162Z" fill="#F5F5F5"/>
<path d="M220.355 152.113C220.293 152.112 220.233 152.086 220.189 152.042C220.145 151.998 220.12 151.939 220.119 151.876V151.1L219.451 151.488C219.425 151.504 219.395 151.515 219.364 151.519C219.334 151.523 219.302 151.522 219.272 151.514C219.242 151.506 219.214 151.492 219.19 151.473C219.165 151.454 219.145 151.43 219.129 151.403C219.098 151.348 219.09 151.283 219.105 151.222C219.121 151.161 219.161 151.109 219.215 151.076L220.237 150.485C220.273 150.464 220.314 150.453 220.356 150.453C220.398 150.453 220.439 150.464 220.475 150.486C220.511 150.507 220.541 150.537 220.561 150.574C220.582 150.61 220.592 150.651 220.592 150.693V151.876C220.592 151.939 220.567 151.999 220.522 152.044C220.478 152.088 220.418 152.113 220.355 152.113Z" fill="#F5F5F5"/>
<path d="M220.356 199.505C220.293 199.504 220.234 199.479 220.19 199.435C220.146 199.391 220.12 199.331 220.119 199.269V196.902C220.119 196.84 220.144 196.779 220.188 196.735C220.233 196.691 220.293 196.666 220.356 196.666C220.419 196.666 220.479 196.691 220.523 196.735C220.567 196.779 220.592 196.84 220.592 196.902V199.269C220.592 199.331 220.567 199.392 220.523 199.436C220.479 199.48 220.419 199.505 220.356 199.505ZM220.356 194.773C220.293 194.773 220.233 194.748 220.188 194.703C220.144 194.659 220.119 194.599 220.119 194.536V192.17C220.12 192.107 220.146 192.048 220.19 192.004C220.234 191.96 220.293 191.934 220.356 191.933C220.419 191.933 220.479 191.958 220.523 192.002C220.567 192.047 220.592 192.107 220.592 192.17V194.536C220.59 194.597 220.564 194.655 220.52 194.697C220.476 194.74 220.417 194.763 220.356 194.763V194.773ZM220.356 190.04C220.293 190.039 220.234 190.014 220.19 189.969C220.146 189.925 220.12 189.866 220.119 189.804V187.437C220.119 187.374 220.144 187.314 220.188 187.27C220.233 187.226 220.293 187.201 220.356 187.201C220.419 187.201 220.479 187.226 220.523 187.27C220.567 187.314 220.592 187.374 220.592 187.437V189.804C220.589 189.864 220.562 189.92 220.518 189.962C220.474 190.003 220.416 190.026 220.356 190.026V190.04ZM220.356 185.308C220.293 185.308 220.233 185.283 220.188 185.238C220.144 185.194 220.119 185.134 220.119 185.071V182.705C220.119 182.642 220.144 182.582 220.188 182.537C220.233 182.493 220.293 182.468 220.356 182.468C220.419 182.468 220.479 182.493 220.523 182.537C220.567 182.582 220.592 182.642 220.592 182.705V185.071C220.587 185.129 220.559 185.184 220.515 185.223C220.471 185.262 220.415 185.284 220.356 185.284V185.308ZM220.356 180.575C220.293 180.575 220.233 180.55 220.188 180.506C220.144 180.461 220.119 180.401 220.119 180.338V177.972C220.12 177.91 220.146 177.85 220.19 177.806C220.234 177.762 220.293 177.737 220.356 177.735C220.419 177.735 220.479 177.76 220.523 177.805C220.567 177.849 220.592 177.909 220.592 177.972V180.338C220.585 180.396 220.557 180.449 220.514 180.488C220.47 180.526 220.414 180.547 220.356 180.547V180.575ZM220.356 175.842C220.293 175.841 220.234 175.816 220.19 175.772C220.146 175.728 220.12 175.668 220.119 175.606V173.239C220.119 173.177 220.144 173.116 220.188 173.072C220.233 173.028 220.293 173.003 220.356 173.003C220.419 173.003 220.479 173.028 220.523 173.072C220.567 173.116 220.592 173.177 220.592 173.239V175.606C220.584 175.663 220.556 175.715 220.512 175.752C220.469 175.789 220.413 175.81 220.356 175.809V175.842ZM220.356 171.11C220.293 171.11 220.233 171.085 220.188 171.04C220.144 170.996 220.119 170.936 220.119 170.873V168.507C220.119 168.444 220.144 168.384 220.188 168.339C220.233 168.295 220.293 168.27 220.356 168.27C220.419 168.27 220.479 168.295 220.523 168.339C220.567 168.384 220.592 168.444 220.592 168.507V170.873C220.582 170.928 220.553 170.978 220.51 171.013C220.466 171.049 220.412 171.068 220.356 171.067V171.11ZM220.356 166.377C220.293 166.376 220.234 166.351 220.19 166.306C220.146 166.262 220.12 166.203 220.119 166.14V163.774C220.119 163.711 220.144 163.651 220.188 163.607C220.233 163.562 220.293 163.537 220.356 163.537C220.419 163.537 220.479 163.562 220.523 163.607C220.567 163.651 220.592 163.711 220.592 163.774V166.14C220.581 166.195 220.552 166.243 220.508 166.278C220.465 166.313 220.411 166.331 220.356 166.33V166.377ZM220.356 161.644C220.293 161.644 220.233 161.62 220.188 161.575C220.144 161.531 220.119 161.471 220.119 161.408V159.042C220.119 158.979 220.144 158.919 220.188 158.874C220.233 158.83 220.293 158.805 220.356 158.805C220.419 158.805 220.479 158.83 220.523 158.874C220.567 158.919 220.592 158.979 220.592 159.042V161.408C220.579 161.46 220.549 161.507 220.506 161.54C220.463 161.572 220.41 161.589 220.356 161.588V161.644ZM220.356 156.912C220.293 156.912 220.233 156.887 220.188 156.843C220.144 156.798 220.119 156.738 220.119 156.675V154.309C220.12 154.247 220.146 154.187 220.19 154.143C220.234 154.099 220.293 154.073 220.356 154.072C220.419 154.072 220.479 154.097 220.523 154.142C220.567 154.186 220.592 154.246 220.592 154.309V156.675C220.579 156.727 220.548 156.772 220.505 156.804C220.462 156.836 220.409 156.852 220.356 156.85V156.912Z" fill="#F5F5F5"/>
<path d="M219.333 203.646C219.281 203.646 219.231 203.628 219.19 203.597C219.15 203.565 219.12 203.521 219.107 203.471C219.093 203.421 219.097 203.368 219.116 203.321C219.136 203.273 219.17 203.233 219.215 203.206L220.118 202.681V201.635C220.12 201.573 220.145 201.513 220.189 201.469C220.233 201.425 220.293 201.4 220.355 201.398C220.418 201.398 220.478 201.423 220.522 201.468C220.567 201.512 220.592 201.572 220.592 201.635V202.818C220.592 202.86 220.582 202.902 220.561 202.938C220.54 202.975 220.51 203.005 220.473 203.026L219.437 203.618C219.405 203.634 219.369 203.644 219.333 203.646Z" fill="#F5F5F5"/>
<path d="M152.442 239.728C152.379 239.728 152.319 239.703 152.275 239.659C152.23 239.614 152.205 239.554 152.205 239.491C152.205 239.429 152.23 239.368 152.275 239.324C152.319 239.28 152.379 239.255 152.442 239.255C153.234 239.229 154.025 239.156 154.808 239.037C154.87 239.029 154.933 239.045 154.983 239.082C155.034 239.119 155.068 239.174 155.078 239.236C155.083 239.267 155.081 239.298 155.074 239.328C155.066 239.358 155.053 239.387 155.035 239.412C155.016 239.437 154.993 239.458 154.966 239.474C154.94 239.49 154.91 239.501 154.879 239.506C154.083 239.625 153.28 239.7 152.475 239.728H152.442ZM150.076 239.681C149.273 239.62 148.475 239.512 147.686 239.359C147.624 239.347 147.57 239.312 147.535 239.261C147.499 239.209 147.485 239.146 147.496 239.084C147.509 239.023 147.545 238.968 147.597 238.933C147.65 238.897 147.714 238.884 147.776 238.895C148.546 239.045 149.326 239.15 150.109 239.207C150.172 239.207 150.232 239.232 150.276 239.277C150.321 239.321 150.345 239.381 150.345 239.444C150.345 239.507 150.321 239.567 150.276 239.611C150.232 239.656 150.172 239.681 150.109 239.681H150.076ZM157.175 239.009C157.123 239.009 157.073 238.993 157.032 238.962C156.991 238.931 156.961 238.888 156.947 238.838C156.939 238.808 156.936 238.777 156.939 238.746C156.943 238.715 156.952 238.685 156.967 238.658C156.982 238.631 157.002 238.607 157.026 238.587C157.051 238.568 157.079 238.553 157.108 238.545C157.863 238.333 158.6 238.065 159.314 237.74C159.342 237.727 159.373 237.719 159.404 237.718C159.435 237.717 159.466 237.722 159.495 237.733C159.524 237.744 159.551 237.761 159.573 237.782C159.596 237.804 159.614 237.83 159.626 237.859C159.64 237.886 159.647 237.917 159.649 237.948C159.65 237.979 159.646 238.01 159.635 238.039C159.625 238.068 159.608 238.095 159.587 238.117C159.566 238.14 159.541 238.158 159.513 238.171C158.777 238.504 158.018 238.781 157.241 238.999C157.211 239.011 157.178 239.014 157.146 239.009H157.175ZM145.414 238.758C145.389 238.762 145.363 238.762 145.338 238.758C144.572 238.504 143.828 238.188 143.114 237.811C143.063 237.779 143.026 237.73 143.011 237.672C142.995 237.614 143.003 237.552 143.031 237.499C143.059 237.446 143.106 237.406 143.163 237.387C143.22 237.367 143.282 237.37 143.336 237.395C144.028 237.767 144.748 238.083 145.49 238.341C145.521 238.346 145.551 238.357 145.577 238.374C145.604 238.39 145.628 238.412 145.646 238.437C145.664 238.463 145.678 238.492 145.685 238.522C145.692 238.553 145.694 238.585 145.689 238.616C145.684 238.647 145.673 238.677 145.656 238.703C145.64 238.73 145.618 238.754 145.592 238.772C145.567 238.79 145.538 238.804 145.508 238.811C145.477 238.818 145.445 238.82 145.414 238.815V238.758ZM161.505 237.049C161.453 237.049 161.403 237.031 161.362 237C161.322 236.968 161.292 236.924 161.279 236.874C161.265 236.824 161.269 236.771 161.288 236.723C161.308 236.676 161.342 236.636 161.387 236.609L163.455 235.417C163.508 235.392 163.569 235.389 163.624 235.407C163.68 235.425 163.727 235.463 163.757 235.513C163.786 235.564 163.796 235.624 163.784 235.681C163.772 235.738 163.739 235.789 163.691 235.824L161.595 236.997C161.562 237.026 161.52 237.045 161.477 237.049H161.505ZM165.641 234.683C165.599 234.684 165.558 234.673 165.521 234.652C165.484 234.631 165.454 234.601 165.433 234.565C165.417 234.538 165.407 234.508 165.403 234.477C165.399 234.446 165.401 234.415 165.41 234.385C165.418 234.355 165.432 234.327 165.452 234.302C165.471 234.278 165.495 234.258 165.523 234.243L167.586 233.05C167.613 233.031 167.644 233.017 167.676 233.01C167.708 233.003 167.742 233.003 167.774 233.01C167.807 233.017 167.837 233.03 167.864 233.05C167.891 233.069 167.913 233.094 167.93 233.123C167.947 233.151 167.957 233.183 167.961 233.216C167.964 233.249 167.961 233.282 167.951 233.314C167.941 233.345 167.924 233.374 167.902 233.399C167.88 233.424 167.853 233.444 167.823 233.457L165.731 234.631C165.696 234.653 165.655 234.664 165.613 234.664L165.641 234.683ZM169.773 232.317C169.731 232.317 169.69 232.306 169.653 232.285C169.617 232.264 169.586 232.234 169.565 232.198C169.534 232.144 169.526 232.079 169.543 232.019C169.56 231.959 169.6 231.907 169.655 231.877L171.718 230.679C171.774 230.65 171.838 230.642 171.899 230.659C171.96 230.676 172.012 230.715 172.045 230.769C172.074 230.824 172.081 230.888 172.064 230.948C172.047 231.008 172.008 231.059 171.955 231.091L169.863 232.265C169.824 232.275 169.783 232.275 169.744 232.265L169.773 232.317ZM173.904 229.95C173.863 229.95 173.823 229.939 173.787 229.918C173.751 229.898 173.722 229.868 173.701 229.832C173.67 229.777 173.661 229.712 173.677 229.651C173.693 229.59 173.732 229.538 173.786 229.506L175.85 228.313C175.905 228.282 175.97 228.274 176.031 228.291C176.092 228.308 176.144 228.348 176.176 228.403C176.207 228.457 176.214 228.522 176.198 228.582C176.181 228.643 176.141 228.694 176.086 228.725L174.004 229.86C173.966 229.886 173.921 229.899 173.876 229.898L173.904 229.95ZM178.036 227.584C177.995 227.584 177.954 227.573 177.918 227.552C177.883 227.531 177.853 227.502 177.832 227.466C177.801 227.411 177.793 227.346 177.809 227.285C177.824 227.224 177.864 227.172 177.918 227.139L179.986 225.947C180.04 225.915 180.105 225.907 180.166 225.923C180.227 225.94 180.279 225.98 180.31 226.034C180.341 226.089 180.35 226.154 180.333 226.214C180.317 226.275 180.277 226.327 180.222 226.358L178.154 227.551C178.105 227.559 178.054 227.552 178.008 227.532L178.036 227.584ZM182.168 225.194C182.126 225.195 182.085 225.184 182.049 225.163C182.013 225.142 181.984 225.112 181.964 225.076C181.933 225.022 181.925 224.958 181.94 224.897C181.956 224.837 181.996 224.786 182.049 224.754L184.117 223.561C184.172 223.53 184.237 223.522 184.298 223.538C184.358 223.554 184.41 223.594 184.442 223.649C184.473 223.703 184.481 223.768 184.465 223.829C184.449 223.89 184.409 223.942 184.354 223.973L182.286 225.166C182.233 225.165 182.182 225.149 182.139 225.118L182.168 225.194ZM186.299 222.828C186.258 222.828 186.217 222.816 186.182 222.796C186.146 222.775 186.116 222.745 186.096 222.709C186.065 222.655 186.056 222.591 186.072 222.531C186.088 222.471 186.127 222.419 186.181 222.388L188.249 221.195C188.276 221.176 188.306 221.162 188.339 221.155C188.371 221.148 188.405 221.148 188.437 221.155C188.469 221.162 188.5 221.175 188.527 221.195C188.554 221.214 188.576 221.239 188.593 221.267C188.609 221.296 188.62 221.328 188.623 221.361C188.627 221.394 188.624 221.427 188.614 221.459C188.603 221.49 188.587 221.519 188.565 221.544C188.543 221.569 188.516 221.588 188.486 221.602L186.417 222.799C186.362 222.795 186.311 222.771 186.271 222.733L186.299 222.828ZM190.435 220.461C190.384 220.461 190.334 220.444 190.293 220.412C190.252 220.38 190.223 220.336 190.209 220.286C190.196 220.236 190.199 220.184 190.219 220.136C190.238 220.088 190.273 220.048 190.317 220.021L192.381 218.829C192.407 218.809 192.438 218.796 192.47 218.789C192.503 218.782 192.536 218.782 192.569 218.789C192.601 218.795 192.632 218.809 192.658 218.828C192.685 218.848 192.708 218.873 192.724 218.901C192.741 218.93 192.751 218.962 192.755 218.995C192.759 219.027 192.755 219.061 192.745 219.092C192.735 219.124 192.718 219.153 192.696 219.178C192.674 219.202 192.647 219.222 192.617 219.236L190.554 220.428C190.496 220.422 190.444 220.393 190.407 220.348L190.435 220.461ZM194.567 218.095C194.515 218.095 194.465 218.077 194.425 218.046C194.384 218.014 194.354 217.97 194.341 217.92C194.328 217.87 194.331 217.817 194.35 217.769C194.37 217.722 194.404 217.681 194.449 217.655L196.512 216.462C196.539 216.443 196.569 216.429 196.602 216.422C196.634 216.415 196.668 216.415 196.7 216.422C196.732 216.429 196.763 216.443 196.79 216.462C196.817 216.481 196.839 216.506 196.856 216.535C196.873 216.563 196.883 216.595 196.887 216.628C196.89 216.661 196.887 216.694 196.877 216.726C196.867 216.757 196.85 216.787 196.828 216.811C196.806 216.836 196.779 216.856 196.749 216.869L194.685 218.062C194.655 218.056 194.627 218.045 194.602 218.028C194.576 218.01 194.555 217.988 194.539 217.963L194.567 218.095ZM198.699 215.729C198.647 215.728 198.597 215.711 198.556 215.679C198.515 215.648 198.486 215.604 198.472 215.554C198.459 215.504 198.462 215.451 198.482 215.403C198.501 215.355 198.536 215.315 198.58 215.289L200.648 214.096C200.675 214.077 200.706 214.063 200.738 214.056C200.771 214.049 200.804 214.049 200.836 214.056C200.869 214.063 200.899 214.076 200.926 214.096C200.953 214.115 200.976 214.14 200.992 214.169C201.009 214.197 201.019 214.229 201.023 214.262C201.026 214.295 201.023 214.328 201.013 214.36C201.003 214.391 200.986 214.42 200.964 214.445C200.942 214.47 200.915 214.489 200.885 214.503L198.817 215.696C198.785 215.688 198.756 215.673 198.73 215.653C198.705 215.632 198.684 215.607 198.67 215.577L198.699 215.729ZM202.83 213.363C202.789 213.362 202.748 213.351 202.713 213.33C202.677 213.31 202.647 213.28 202.627 213.244C202.595 213.189 202.587 213.125 202.603 213.064C202.619 213.003 202.658 212.95 202.712 212.918L204.78 211.725C204.835 211.696 204.899 211.689 204.959 211.705C205.019 211.722 205.07 211.761 205.102 211.815C205.118 211.842 205.128 211.871 205.133 211.902C205.137 211.933 205.135 211.964 205.127 211.994C205.119 212.024 205.105 212.052 205.086 212.077C205.067 212.101 205.044 212.122 205.017 212.137L202.948 213.329C202.915 213.32 202.884 213.303 202.858 213.279C202.832 213.255 202.813 213.225 202.802 213.192L202.83 213.363ZM206.962 210.996C206.92 210.996 206.88 210.985 206.844 210.964C206.809 210.943 206.779 210.914 206.758 210.878C206.727 210.823 206.718 210.758 206.734 210.697C206.75 210.636 206.789 210.584 206.843 210.551L208.912 209.359C208.966 209.327 209.031 209.319 209.092 209.335C209.153 209.352 209.204 209.392 209.236 209.446C209.267 209.501 209.276 209.566 209.259 209.627C209.243 209.687 209.203 209.739 209.148 209.771L207.08 210.963C207.044 210.952 207.011 210.932 206.986 210.905C206.96 210.877 206.942 210.844 206.933 210.807L206.962 210.996ZM211.093 208.63C211.052 208.63 211.012 208.619 210.976 208.598C210.94 208.577 210.91 208.547 210.89 208.512C210.859 208.457 210.85 208.392 210.866 208.331C210.882 208.27 210.921 208.218 210.975 208.185L213.043 206.992C213.07 206.976 213.099 206.966 213.13 206.962C213.161 206.957 213.192 206.959 213.222 206.967C213.252 206.975 213.28 206.989 213.305 207.008C213.329 207.027 213.35 207.051 213.365 207.078C213.396 207.132 213.405 207.197 213.389 207.258C213.373 207.319 213.334 207.372 213.28 207.404L211.212 208.597C211.175 208.582 211.142 208.558 211.117 208.527C211.091 208.497 211.073 208.461 211.065 208.422L211.093 208.63ZM215.23 206.24C215.188 206.24 215.146 206.229 215.11 206.208C215.073 206.188 215.043 206.158 215.021 206.122C214.992 206.067 214.985 206.003 215.002 205.943C215.018 205.883 215.058 205.832 215.111 205.8L217.175 204.607C217.229 204.576 217.294 204.567 217.355 204.583C217.416 204.599 217.469 204.638 217.501 204.692C217.531 204.748 217.538 204.813 217.521 204.874C217.505 204.934 217.465 204.986 217.411 205.019L215.348 206.212C215.312 206.194 215.28 206.169 215.254 206.138C215.229 206.107 215.211 206.071 215.201 206.032L215.23 206.24Z" fill="#F5F5F5"/>
<path d="M141.221 236.477C141.164 236.476 141.109 236.456 141.065 236.42C140.757 236.154 140.471 235.864 140.209 235.554C140.17 235.505 140.151 235.443 140.156 235.38C140.161 235.318 140.19 235.26 140.237 235.218C140.286 235.178 140.349 235.16 140.412 235.166C140.475 235.172 140.532 235.202 140.573 235.251C140.819 235.543 141.088 235.815 141.378 236.065C141.401 236.085 141.421 236.109 141.435 236.137C141.449 236.164 141.457 236.195 141.459 236.225C141.461 236.256 141.457 236.287 141.447 236.317C141.437 236.346 141.422 236.373 141.401 236.396C141.379 236.422 141.352 236.443 141.32 236.457C141.289 236.471 141.255 236.478 141.221 236.477Z" fill="#F5F5F5"/>
<path d="M208.58 147.47V140.338C208.565 140.047 208.481 139.764 208.335 139.511C208.19 139.259 207.987 139.044 207.743 138.885C207.837 138.923 207.917 138.989 207.974 139.073C208.031 139.157 208.061 139.257 208.061 139.358C208.061 139.46 208.031 139.559 207.974 139.643C207.917 139.728 207.837 139.793 207.743 139.832L142.589 177.47C142.902 178.017 143.316 178.499 143.81 178.89C144.449 179.378 145.145 179.786 145.883 180.106C147.819 180.861 149.893 181.199 151.969 181.1L207.747 148.918C207.99 148.759 208.192 148.545 208.336 148.293C208.481 148.042 208.565 147.76 208.58 147.47Z" fill="#E0E0E0"/>
<path d="M207.742 138.885L207.454 138.72C207.195 138.589 206.909 138.521 206.618 138.521C206.328 138.521 206.042 138.589 205.783 138.72L142.158 175.473C142.094 176.173 142.244 176.876 142.589 177.489L207.742 139.856C207.844 139.822 207.933 139.757 207.996 139.67C208.059 139.582 208.093 139.478 208.093 139.37C208.093 139.263 208.059 139.158 207.996 139.071C207.933 138.984 207.844 138.919 207.742 138.885Z" fill="#EBEBEB"/>
<path d="M212.509 142.6C212.492 142.31 212.407 142.028 212.262 141.777C212.116 141.525 211.914 141.311 211.671 141.152L211.383 140.986C211.123 140.856 210.836 140.788 210.545 140.788C210.254 140.788 209.967 140.856 209.707 140.986L143.924 178.98C144.54 179.434 145.205 179.819 145.907 180.125C149.414 181.587 154.425 181.441 158.15 179.756C158.761 179.481 159.693 178.942 160.27 178.611L212.509 148.435V142.6Z" fill="#E0E0E0"/>
<path d="M145.859 180.116L211.671 142.118C211.765 142.079 211.846 142.014 211.902 141.929C211.959 141.845 211.989 141.746 211.989 141.644C211.989 141.543 211.959 141.443 211.902 141.359C211.846 141.275 211.765 141.209 211.671 141.171L211.383 141.005C211.123 140.875 210.836 140.807 210.545 140.807C210.254 140.807 209.967 140.875 209.707 141.005L143.924 178.999C144.527 179.44 145.176 179.814 145.859 180.116Z" fill="#EBEBEB"/>
<path d="M216.432 144.867C216.417 144.577 216.333 144.294 216.187 144.043C216.042 143.791 215.839 143.577 215.595 143.419L215.306 143.249C215.046 143.118 214.759 143.05 214.468 143.05C214.177 143.05 213.89 143.118 213.63 143.249L148.477 180.868C151.733 181.442 155.086 181.055 158.126 179.756C158.737 179.482 159.669 178.942 160.247 178.611L216.432 146.169V144.867Z" fill="#E0E0E0"/>
<path d="M215.595 143.419L215.306 143.249C215.046 143.118 214.759 143.05 214.468 143.05C214.177 143.05 213.89 143.118 213.63 143.249L148.477 180.868C149.629 181.074 150.799 181.159 151.969 181.119L215.595 144.385C215.695 144.35 215.782 144.285 215.843 144.198C215.905 144.112 215.938 144.008 215.938 143.902C215.938 143.796 215.905 143.692 215.843 143.606C215.782 143.519 215.695 143.454 215.595 143.419Z" fill="#EBEBEB"/>
<path d="M232.131 165.265V179.193C232.115 179.483 232.031 179.765 231.887 180.016C231.742 180.268 231.54 180.482 231.298 180.641L205.884 195.312H205.836C203.915 196.405 202.173 196.547 200.9 195.89C200.512 195.691 199.007 194.825 198.657 194.588C197.507 193.845 196.807 192.378 196.807 190.329C196.807 186.069 199.793 180.897 203.546 178.497L227.365 164.749L227.488 164.664C227.824 164.394 227.782 164.025 227.365 163.784L224.279 161.999V159.732L231.293 163.784C231.513 163.927 231.699 164.116 231.84 164.337C231.981 164.558 232.074 164.807 232.112 165.066C232.125 165.132 232.131 165.198 232.131 165.265Z" fill="#98A2B3"/>
<path opacity="0.3" d="M232.131 165.265V179.193C232.115 179.483 232.031 179.765 231.887 180.016C231.742 180.268 231.54 180.482 231.298 180.641L205.884 195.312H205.836C203.915 196.405 202.173 196.547 200.9 195.89C200.512 195.691 199.007 194.825 198.657 194.588C197.507 193.845 196.807 192.378 196.807 190.329C196.807 186.069 199.793 180.897 203.546 178.497L227.365 164.749L227.488 164.664C227.824 164.394 227.782 164.025 227.365 163.784L224.279 161.999V159.732L231.293 163.784C231.513 163.927 231.699 164.116 231.84 164.337C231.981 164.558 232.074 164.807 232.112 165.066C232.125 165.132 232.131 165.198 232.131 165.265Z" fill="#191919"/>
<path d="M232.13 165.265V179.193C232.114 179.483 232.031 179.764 231.886 180.016C231.741 180.267 231.54 180.482 231.297 180.641L205.883 195.312H205.836C203.332 196.732 201.132 196.547 199.873 195.075C199.089 194.039 198.698 192.757 198.77 191.46C198.77 187.077 201.955 181.692 205.869 179.42L230.157 165.402L231.283 164.754C231.695 164.512 232.036 164.654 232.102 165.071C232.118 165.134 232.127 165.199 232.13 165.265Z" fill="#98A2B3"/>
<path d="M204.657 188.09C204.657 189.983 205.973 190.726 207.601 189.789C208.458 189.231 209.171 188.479 209.683 187.593C210.194 186.707 210.49 185.713 210.545 184.692C210.545 182.799 209.224 182.051 207.601 182.993C206.743 183.551 206.03 184.303 205.518 185.189C205.007 186.075 204.712 187.069 204.657 188.09Z" fill="#4A4E5B"/>
<path d="M210.649 183.343L209.773 182.842L205.519 189.993L206.517 190.57L210.649 183.343Z" fill="#4A4E5B"/>
<path d="M205.638 188.658C205.638 190.551 206.958 191.294 208.581 190.357C209.439 189.798 210.152 189.045 210.663 188.158C211.175 187.272 211.47 186.277 211.525 185.255C211.525 183.362 210.209 182.619 208.581 183.556C207.725 184.116 207.012 184.87 206.501 185.756C205.989 186.642 205.694 187.636 205.638 188.658Z" fill="#777A88"/>
<path d="M116.853 269.867C116.562 269.669 116.322 269.405 116.151 269.096C115.981 268.788 115.886 268.444 115.873 268.092V211.59C115.892 211.227 115.997 210.874 116.179 210.56C116.361 210.246 116.614 209.979 116.919 209.782L189.399 167.931C189.701 167.741 190.05 167.636 190.408 167.629C190.765 167.622 191.118 167.713 191.428 167.892C191.738 168.07 191.993 168.33 192.166 168.643C192.339 168.956 192.423 169.311 192.409 169.668V226.171C192.389 226.534 192.284 226.887 192.102 227.202C191.92 227.517 191.667 227.784 191.363 227.983L118.883 269.829C118.571 269.995 118.225 270.084 117.872 270.091C117.52 270.098 117.17 270.021 116.853 269.867Z" fill="#777A88"/>
<path d="M119.797 212.631L116.181 210.544C115.993 210.854 115.887 211.208 115.874 211.571V268.092C115.86 268.45 115.944 268.804 116.117 269.117C116.29 269.43 116.545 269.69 116.854 269.869C117.164 270.048 117.517 270.138 117.874 270.131C118.232 270.124 118.581 270.02 118.883 269.829L119.797 269.299V212.631Z" fill="#020C0A"/>
<path d="M117.838 212.726V269.228C117.838 269.896 118.311 270.175 118.884 269.829L191.364 227.984C191.668 227.785 191.921 227.517 192.103 227.202C192.285 226.887 192.39 226.534 192.41 226.171V169.668C192.41 169.001 191.936 168.722 191.364 169.067L118.884 210.913C118.579 211.111 118.326 211.379 118.144 211.694C117.962 212.009 117.857 212.362 117.838 212.726Z" fill="#4A4E5B"/>
<path d="M123.725 227.453V236.37C123.725 237.037 124.198 237.316 124.771 236.971L136.413 230.25C136.718 230.052 136.972 229.785 137.153 229.47C137.335 229.155 137.44 228.801 137.459 228.438V219.522C137.459 218.854 136.985 218.575 136.413 218.92L124.785 225.641C124.478 225.838 124.222 226.105 124.038 226.42C123.854 226.735 123.746 227.089 123.725 227.453Z" fill="#98A2B3"/>
<path d="M137.459 221.987V221.443L123.734 229.37V229.919L127.421 227.79V231.793L123.734 233.923V234.467L137.459 226.54V225.991L133.772 228.121V224.117L137.459 221.987ZM133.304 228.395L127.89 231.519V227.515L133.304 224.392V228.395Z" fill="#F5F5F5"/>
<path d="M126.337 216.919V217.695C126.355 218.126 126.254 218.553 126.046 218.931C125.839 219.309 125.532 219.623 125.159 219.839C124.382 220.288 123.975 219.985 123.975 219.058V216.029C123.958 215.598 124.06 215.17 124.268 214.792C124.477 214.414 124.785 214.101 125.159 213.885C125.935 213.44 126.337 213.738 126.337 214.666V215.234L125.589 215.665V215.04C125.589 214.628 125.433 214.567 125.178 214.704C125.04 214.788 124.929 214.908 124.857 215.052C124.785 215.196 124.755 215.358 124.771 215.518V218.656C124.771 219.072 124.927 219.129 125.178 218.987C125.316 218.906 125.428 218.787 125.501 218.645C125.574 218.502 125.605 218.342 125.589 218.182V217.364L126.337 216.919Z" fill="white"/>
<path d="M128.477 217.837C128.407 217.62 128.383 217.391 128.406 217.165V216.251C128.406 215.707 128.245 215.598 127.885 215.806L127.615 215.967V218.334L126.82 218.807V212.995L128.018 212.304C128.836 211.831 129.191 212.068 129.191 212.962V213.435C129.213 213.977 129.027 214.507 128.671 214.917C129.068 214.879 129.196 215.243 129.196 215.863V216.762C129.179 216.985 129.208 217.209 129.281 217.42L128.477 217.837ZM127.625 213.364V215.153L127.932 214.973C128.09 214.887 128.218 214.757 128.302 214.599C128.386 214.441 128.422 214.262 128.406 214.084V213.511C128.406 213.095 128.283 212.986 128.003 213.147L127.625 213.364Z" fill="white"/>
<path d="M130.507 213.317L131.596 212.688V213.521L130.507 214.15V215.854L131.875 215.064V215.892L129.717 217.141V211.325L131.884 210.075V210.908L130.507 211.685V213.317Z" fill="white"/>
<path d="M132.357 209.791L133.612 209.072C134.402 208.599 134.79 208.897 134.79 209.824V212.768C134.81 213.196 134.71 213.621 134.502 213.996C134.294 214.37 133.986 214.679 133.612 214.888L132.357 215.612V209.791ZM133.152 210.165V214.325L133.597 214.065C133.733 213.984 133.843 213.867 133.915 213.726C133.986 213.585 134.015 213.427 134 213.27V210.265C134 209.848 133.848 209.791 133.597 209.933L133.152 210.165Z" fill="white"/>
<path d="M135.301 208.097L136.091 207.624V213.44L135.301 213.913V208.097Z" fill="white"/>
<path d="M136.437 207.425L138.883 206.005V206.834L138.055 207.307V212.295L137.265 212.768V207.794L136.437 208.268V207.425Z" fill="white"/>
<path d="M142.641 207.505V208.282C142.659 208.712 142.558 209.14 142.35 209.518C142.143 209.895 141.836 210.209 141.463 210.425C140.686 210.899 140.284 210.572 140.284 209.645V206.616C140.267 206.185 140.367 205.758 140.575 205.38C140.783 205.002 141.09 204.688 141.463 204.472C142.239 204.022 142.641 204.325 142.641 205.253V205.821L141.893 206.251V205.627C141.893 205.215 141.737 205.153 141.486 205.291C141.348 205.373 141.235 205.494 141.162 205.638C141.089 205.782 141.059 205.944 141.075 206.105V209.242C141.075 209.659 141.231 209.716 141.486 209.574C141.623 209.492 141.734 209.373 141.806 209.23C141.879 209.088 141.909 208.928 141.893 208.769V207.941L142.641 207.505Z" fill="white"/>
<path d="M145.688 207.898L144.889 208.372L144.751 207.392L143.781 207.955L143.644 209.091L142.915 209.507L143.72 203.227L144.879 202.555L145.688 207.898ZM143.88 207.098L144.642 206.658L144.264 203.937L143.88 207.098Z" fill="white"/>
<path d="M147.71 206.753C147.641 206.534 147.617 206.304 147.639 206.076V205.163C147.639 204.623 147.483 204.514 147.119 204.723L146.849 204.879V207.245L146.054 207.718V201.888L147.251 201.197C148.07 200.724 148.425 200.96 148.425 201.859V202.333C148.448 202.874 148.261 203.403 147.904 203.809C148.302 203.771 148.429 204.141 148.429 204.756V205.65C148.411 205.874 148.442 206.098 148.519 206.308L147.71 206.753ZM146.849 202.262V204.051L147.156 203.871C147.311 203.782 147.438 203.652 147.521 203.494C147.605 203.337 147.643 203.159 147.63 202.981V202.408C147.63 201.992 147.511 201.878 147.227 202.044L146.849 202.262Z" fill="white"/>
<path d="M148.949 200.217L150.203 199.493C150.994 199.02 151.382 199.318 151.382 200.25V203.194C151.402 203.622 151.302 204.047 151.094 204.422C150.886 204.796 150.577 205.105 150.203 205.314L148.949 206.034V200.217ZM149.74 200.591V204.746L150.184 204.491C150.322 204.411 150.434 204.293 150.506 204.151C150.579 204.009 150.608 203.849 150.591 203.691V200.667C150.591 200.25 150.44 200.194 150.184 200.336L149.74 200.591Z" fill="white"/>
<path d="M123.725 244.453V246.569C123.725 247.236 124.198 247.515 124.771 247.17L136.413 240.449C136.717 240.25 136.97 239.983 137.152 239.668C137.333 239.353 137.439 239 137.459 238.637V236.521C137.459 235.854 136.985 235.575 136.413 235.915L124.785 242.641C124.477 242.837 124.221 243.104 124.037 243.419C123.852 243.734 123.746 244.089 123.725 244.453Z" fill="#E0E0E0"/>
<path d="M140.076 235.007V237.122C140.076 237.789 140.549 238.069 141.122 237.728L152.769 231.003C153.074 230.805 153.327 230.539 153.509 230.224C153.691 229.91 153.796 229.557 153.815 229.195V227.075C153.815 226.407 153.342 226.128 152.769 226.474L141.122 233.194C140.818 233.393 140.565 233.661 140.383 233.976C140.201 234.29 140.096 234.644 140.076 235.007Z" fill="#E0E0E0"/>
<path d="M156.432 225.565V227.681C156.432 228.348 156.905 228.627 157.478 228.287L169.12 221.562C169.428 221.362 169.684 221.092 169.867 220.773C170.05 220.455 170.154 220.097 170.17 219.73V217.615C170.17 216.947 169.697 216.668 169.12 217.013L157.478 223.734C157.171 223.935 156.916 224.205 156.734 224.524C156.553 224.842 156.449 225.199 156.432 225.565Z" fill="#E0E0E0"/>
<path d="M172.783 216.124V218.239C172.783 218.906 173.256 219.186 173.829 218.845L185.476 212.12C185.78 211.921 186.033 211.653 186.215 211.338C186.397 211.023 186.502 210.67 186.522 210.307V208.192C186.522 207.524 186.049 207.245 185.476 207.586L173.829 214.311C173.524 214.509 173.271 214.777 173.089 215.092C172.907 215.407 172.803 215.76 172.783 216.124Z" fill="#E0E0E0"/>
<path d="M180.005 218.679L177.317 220.203C177.135 220.323 176.984 220.484 176.875 220.673C176.767 220.862 176.704 221.074 176.692 221.292V222.11C176.692 222.508 176.972 222.669 177.317 222.47L179.986 220.927C180.169 220.809 180.322 220.649 180.431 220.461C180.541 220.273 180.604 220.061 180.616 219.843V219.025C180.63 218.641 180.355 218.476 180.005 218.679Z" fill="#98A2B3"/>
<path d="M185.893 215.276L183.223 216.819C183.041 216.939 182.889 217.1 182.781 217.289C182.672 217.478 182.61 217.69 182.599 217.908V218.722C182.599 219.124 182.878 219.285 183.223 219.086L185.893 217.543C186.076 217.425 186.229 217.264 186.339 217.075C186.448 216.886 186.511 216.673 186.522 216.455V215.641C186.522 215.239 186.243 215.078 185.893 215.276Z" fill="#98A2B3"/>
<path d="M152.191 240.402L185.424 221.216C186.001 220.88 186.47 221.15 186.47 221.817V222.801C186.45 223.164 186.345 223.517 186.163 223.832C185.981 224.147 185.728 224.415 185.424 224.614L152.191 243.8C151.614 244.136 151.146 243.861 151.146 243.194V242.214C151.165 241.851 151.27 241.498 151.451 241.183C151.633 240.868 151.887 240.6 152.191 240.402Z" fill="#98A2B3"/>
<path d="M225.87 171C236.916 171 245.87 162.046 245.87 151C245.87 139.954 236.916 131 225.87 131C214.824 131 205.87 139.954 205.87 151C205.87 162.046 214.824 171 225.87 171Z" fill="#1D9C7D"/>
<path d="M223.032 158.16C222.632 158.16 222.252 158 221.972 157.72L216.312 152.06C215.732 151.48 215.732 150.52 216.312 149.94C216.892 149.36 217.852 149.36 218.432 149.94L223.032 154.54L233.312 144.26C233.892 143.68 234.852 143.68 235.432 144.26C236.012 144.84 236.012 145.8 235.432 146.38L224.092 157.72C223.812 158 223.432 158.16 223.032 158.16Z" fill="#EDF7F5"/>
</svg>
