<svg width="172" height="102" viewBox="0 0 172 102" fill="none" xmlns="http://www.w3.org/2000/svg">
<path d="M0.123047 100.847H160.571" stroke="#D6DCE8" stroke-width="2" stroke-miterlimit="10" stroke-linejoin="round"/>
<path d="M165.18 100.847H171.876" stroke="#D6DCE8" stroke-width="2" stroke-miterlimit="10" stroke-linejoin="round"/>
<path d="M133.895 24.803H29.4493C27.3014 24.803 25.4219 26.6831 25.4219 28.8317V96.2461C25.4219 98.3948 27.3014 97.5891 29.4493 97.5891H133.626C135.774 97.5891 137.654 98.3948 137.654 96.2461V28.8317C137.922 26.6831 136.043 24.803 133.895 24.803Z" fill="#D5DDEA"/>
<path d="M130.385 28.7207H33.1856C31.1866 28.7207 29.4375 30.4038 29.4375 32.3274V92.6795C29.4375 94.6031 31.1866 93.8817 33.1856 93.8817H130.135C132.134 93.8817 133.883 94.6031 133.883 92.6795V32.3274C134.133 30.4038 132.384 28.7207 130.385 28.7207Z" fill="white"/>
<path d="M153.495 93.8289V95.9775C153.495 98.3948 151.347 100.543 148.931 100.543H14.4141C11.9976 100.543 9.84961 98.3948 9.84961 95.9775V93.8289H153.495Z" fill="#D5DDEA"/>
<path d="M94.1567 93.8289V94.6346C94.1567 95.9775 93.0827 97.3204 91.4717 97.3204H71.6029C70.2605 97.3204 68.918 96.2461 68.918 94.6346V93.8289H94.1567Z" fill="#E9EFF8"/>
<path d="M114.609 85.1939H48.9558C47.4555 85.1939 46.3125 83.9774 46.3125 82.5463V40.0127C46.3125 38.5099 47.527 37.365 48.9558 37.365H114.609C116.109 37.365 117.252 38.5815 117.252 40.0127V82.5463C117.252 83.9774 116.038 85.1939 114.609 85.1939Z" fill="white" stroke="#D6DCE8" stroke-width="2" stroke-miterlimit="10" stroke-linejoin="round"/>
<path d="M46.3125 44.978H117.252" stroke="#D6DCE8" stroke-width="2" stroke-miterlimit="10" stroke-linejoin="round"/>
<path d="M46.3125 58.3596H117.252" stroke="#D6DCE8" stroke-width="2" stroke-miterlimit="10" stroke-linejoin="round"/>
<path d="M46.3125 71.741H117.252" stroke="#D6DCE8" stroke-width="2" stroke-miterlimit="10" stroke-linejoin="round"/>
<path d="M89.4629 44.978V85.1939" stroke="#D6DCE8" stroke-width="2" stroke-miterlimit="10" stroke-linejoin="round"/>
<path d="M103.68 44.978V85.1939" stroke="#D6DCE8" stroke-width="2" stroke-miterlimit="10" stroke-linejoin="round"/>
<path d="M75.0312 44.978V85.1939" stroke="#D6DCE8" stroke-width="2" stroke-miterlimit="10" stroke-linejoin="round"/>
<path d="M60.5996 44.978V85.1939" stroke="#D6DCE8" stroke-width="2" stroke-miterlimit="10" stroke-linejoin="round"/>
<path d="M96.6786 55.4972C98.6908 55.4972 100.322 53.8633 100.322 51.8477C100.322 49.8322 98.6908 48.1982 96.6786 48.1982C94.6664 48.1982 93.0352 49.8322 93.0352 51.8477C93.0352 53.8633 94.6664 55.4972 96.6786 55.4972Z" fill="#989FB0"/>
<path d="M96.6786 68.664C98.6908 68.664 100.322 67.03 100.322 65.0145C100.322 62.9989 98.6908 61.365 96.6786 61.365C94.6664 61.365 93.0352 62.9989 93.0352 65.0145C93.0352 67.03 94.6664 68.664 96.6786 68.664Z" fill="white" stroke="#D6DCE8" stroke-width="2" stroke-miterlimit="10" stroke-linejoin="round"/>
<path d="M96.6786 82.0453C98.6908 82.0453 100.322 80.4114 100.322 78.3958C100.322 76.3803 98.6908 74.7463 96.6786 74.7463C94.6664 74.7463 93.0352 76.3803 93.0352 78.3958C93.0352 80.4114 94.6664 82.0453 96.6786 82.0453Z" fill="white" stroke="#D6DCE8" stroke-width="2" stroke-miterlimit="10" stroke-linejoin="round"/>
<path d="M137.437 44.1258C148.722 44.1258 157.871 34.9769 157.871 23.6912C157.871 12.4055 148.722 3.25659 137.437 3.25659C126.151 3.25659 117.002 12.4055 117.002 23.6912C117.002 34.9769 126.151 44.1258 137.437 44.1258Z" fill="url(#paint0_linear_359_17882)"/>
<path d="M132.032 23.4275C134.325 23.4275 136.185 21.5682 136.185 19.2747C136.185 16.9811 134.325 15.1218 132.032 15.1218C129.738 15.1218 127.879 16.9811 127.879 19.2747C127.879 21.5682 129.738 23.4275 132.032 23.4275Z" fill="white"/>
<path fill-rule="evenodd" clip-rule="evenodd" d="M133.596 30.6305C133.986 31.0211 133.986 31.6542 133.596 32.0448L131.223 34.4178C130.832 34.8083 130.199 34.8083 129.809 34.4178C129.418 34.0273 129.418 33.3941 129.809 33.0036L132.182 30.6305C132.572 30.24 133.205 30.24 133.596 30.6305Z" fill="white"/>
<path fill-rule="evenodd" clip-rule="evenodd" d="M142.191 30.6403C142.577 30.2445 143.21 30.2358 143.606 30.6209L146.045 32.994C146.44 33.3791 146.449 34.0122 146.064 34.4081C145.679 34.8039 145.046 34.8126 144.65 34.4274L142.211 32.0544C141.815 31.6692 141.806 31.0361 142.191 30.6403Z" fill="white"/>
<path d="M143.434 23.4275C145.728 23.4275 147.587 21.5682 147.587 19.2747C147.587 16.9811 145.728 15.1218 143.434 15.1218C141.141 15.1218 139.281 16.9811 139.281 19.2747C139.281 21.5682 141.141 23.4275 143.434 23.4275Z" fill="white"/>
<path d="M137.833 33.5515C142.551 33.5515 146.375 29.7271 146.375 25.0095C146.375 20.2919 142.551 16.4675 137.833 16.4675C133.115 16.4675 129.291 20.2919 129.291 25.0095C129.291 29.7271 133.115 33.5515 137.833 33.5515Z" fill="white" stroke="white"/>
<path fill-rule="evenodd" clip-rule="evenodd" d="M165.319 13.8716C165.346 14.417 164.926 14.881 164.381 14.908L158.983 15.1751C158.438 15.2021 157.974 14.7818 157.947 14.2364C157.92 13.691 158.34 13.2269 158.886 13.1999L164.283 12.9329C164.828 12.9059 165.292 13.3262 165.319 13.8716Z" fill="#989FB0"/>
<path fill-rule="evenodd" clip-rule="evenodd" d="M162.41 7.82917C162.668 8.31035 162.488 8.90975 162.006 9.16795L159.28 10.6312C158.798 10.8894 158.199 10.7086 157.941 10.2274C157.683 9.74625 157.863 9.14686 158.345 8.88865L161.071 7.42544C161.553 7.16723 162.152 7.34799 162.41 7.82917Z" fill="#989FB0"/>
<path fill-rule="evenodd" clip-rule="evenodd" d="M154.706 9.12447C154.182 8.97028 153.882 8.42062 154.036 7.89675L156.04 1.09013C156.194 0.566261 156.743 0.266578 157.267 0.420765C157.791 0.574951 158.091 1.12462 157.937 1.64848L155.933 8.45511C155.779 8.97897 155.229 9.27866 154.706 9.12447Z" fill="#989FB0"/>
<path fill-rule="evenodd" clip-rule="evenodd" d="M137.965 18.7361C138.517 18.7361 138.965 19.1838 138.965 19.7361V24.0095H140.602C141.154 24.0095 141.602 24.4572 141.602 25.0095C141.602 25.5618 141.154 26.0095 140.602 26.0095H137.965C137.413 26.0095 136.965 25.5618 136.965 25.0095V19.7361C136.965 19.1838 137.413 18.7361 137.965 18.7361Z" fill="#989FB0"/>
<defs>
<linearGradient id="paint0_linear_359_17882" x1="116.983" y1="23.6956" x2="157.879" y2="23.6956" gradientUnits="userSpaceOnUse">
<stop stop-color="#B0BACC"/>
<stop offset="1" stop-color="#969EAE"/>
</linearGradient>
</defs>
</svg>
