<svg width="36" height="36" viewBox="0 0 36 36" fill="none" xmlns="http://www.w3.org/2000/svg">
    <path d="M18 0.5C27.665 0.5 35.5 8.33502 35.5 18C35.5 27.665 27.665 35.5 18 35.5C8.33502 35.5 0.5 27.665 0.5 18C0.5 8.33502 8.33502 0.5 18 0.5Z" fill="transparent"/>
    <path d="M18 0.5C27.665 0.5 35.5 8.33502 35.5 18C35.5 27.665 27.665 35.5 18 35.5C8.33502 35.5 0.5 27.665 0.5 18C0.5 8.33502 8.33502 0.5 18 0.5Z" stroke="#EAECF0"/>
    <path fill-rule="evenodd" clip-rule="evenodd" d="M21.0388 15.2164L15.6222 17.716L14.9238 16.2027L20.3405 13.7031L21.0388 15.2164ZM15.6222 18.2865L21.0388 20.786L20.3405 22.2993L14.9238 19.7998L15.6222 18.2865Z" fill="#D0D5DD"/>
    <path fill-rule="evenodd" clip-rule="evenodd" d="M19.875 13.4167C19.875 11.6908 21.2741 10.2917 23 10.2917C24.7259 10.2917 26.125 11.6908 26.125 13.4167C26.125 15.1425 24.7259 16.5417 23 16.5417C21.2741 16.5417 19.875 15.1425 19.875 13.4167Z" fill="#1D2939"/>
    <path fill-rule="evenodd" clip-rule="evenodd" d="M9.875 18C9.875 16.2741 11.2741 14.875 13 14.875C14.7259 14.875 16.125 16.2741 16.125 18C16.125 19.7259 14.7259 21.125 13 21.125C11.2741 21.125 9.875 19.7259 9.875 18Z" fill="#1D2939"/>
    <path fill-rule="evenodd" clip-rule="evenodd" d="M19.875 22.5833C19.875 20.8574 21.2741 19.4583 23 19.4583C24.7259 19.4583 26.125 20.8574 26.125 22.5833C26.125 24.3092 24.7259 25.7083 23 25.7083C21.2741 25.7083 19.875 24.3092 19.875 22.5833Z" fill="#1D2939"/>
</svg>
