<svg width="10" height="10" viewBox="0 0 10 10" fill="none" xmlns="http://www.w3.org/2000/svg">
    <path d="M2.55003 1.06372L2.52396 1.05868C2.19368 0.994895 1.90528 0.939196 1.66265 0.937582C1.39195 0.935782 1.14994 0.999991 0.929999 1.19106C0.703881 1.3875 0.606122 1.64017 0.561771 1.92896C0.520478 2.19785 0.520492 2.53626 0.520508 2.93859L0.52051 6.02728C0.520503 6.39904 0.520497 6.70395 0.546447 6.94513C0.57321 7.19388 0.631385 7.42221 0.782684 7.61207C0.940131 7.80964 1.17057 7.91347 1.42366 7.98973C1.67511 8.06549 2.00612 8.12939 2.41569 8.20844L2.43313 8.21181C3.15932 8.35199 3.71932 8.57407 4.11759 8.79197L4.12534 8.79621C4.32901 8.90764 4.4919 8.99677 4.61652 9.05751C4.64946 9.07357 4.68718 9.04921 4.68718 9.01245V2.09888C4.68718 1.98555 4.68718 1.92889 4.65898 1.88019C4.63078 1.83149 4.58471 1.80513 4.49256 1.75241C4.02515 1.48502 3.3767 1.22329 2.55003 1.06372Z" fill="#1D2939"/>
    <path d="M5.50712 1.75241C5.41497 1.80513 5.36889 1.83149 5.3407 1.88019C5.3125 1.92889 5.3125 1.98555 5.3125 2.09888V9.01245C5.3125 9.04921 5.35021 9.07357 5.38316 9.05751C5.50776 8.99677 5.67064 8.90766 5.87429 8.79623L5.88208 8.79197C6.28036 8.57406 6.84036 8.35199 7.56655 8.21181L7.58392 8.20845C7.9935 8.1294 8.32456 8.0655 8.57602 7.98973C8.82911 7.91347 9.05955 7.80964 9.21699 7.61207C9.36829 7.42221 9.42647 7.19387 9.45323 6.94513C9.47918 6.70395 9.47917 6.39904 9.47917 6.02728V2.93861C9.47918 2.53627 9.4792 2.19786 9.4379 1.92896C9.39355 1.64017 9.29579 1.3875 9.06968 1.19106C8.84974 0.999991 8.60773 0.935782 8.33703 0.937582C8.0944 0.939196 7.806 0.994895 7.47572 1.05868L7.44965 1.06372C6.62298 1.22329 5.97452 1.48502 5.50712 1.75241Z" fill="#D0D5DD"/>
</svg>
