<svg width="24" height="24" viewBox="0 0 24 24" fill="none" xmlns="http://www.w3.org/2000/svg">
<circle cx="12" cy="12" r="12" fill="#077BF8" fill-opacity="0.1"/>
<path d="M8.20899 19.0982C8.86383 19.1667 10.5724 19.1668 11.5998 19.1667C11.9596 19.1667 12.2513 18.875 12.2513 18.5152C12.2513 18.1554 11.9596 17.8637 11.5998 17.8637C10.5274 17.8637 8.9232 17.8628 8.34357 17.8022C7.77429 17.7426 7.45167 17.6315 7.21312 17.4628C7.05215 17.3489 6.91056 17.2149 6.79203 17.0653C6.62166 16.8503 6.5087 16.5618 6.44721 16.0373C6.38392 15.4974 6.38287 14.7925 6.38287 13.7769L6.38281 11.8434C6.3828 11.6654 6.38292 11.2397 6.57 10.9249C6.68528 10.731 6.83289 10.5689 6.98453 10.4863C7.22887 10.3533 7.509 10.2777 7.80678 10.2777L8.50035 10.3021C8.75375 10.3073 9.04944 10.2993 9.33488 10.2228C9.89086 10.0739 10.3251 9.6396 10.4741 9.08362C10.5506 8.79819 10.5586 8.5025 10.5533 8.2491L10.529 7.55552C10.529 7.24373 10.6119 6.97231 10.7568 6.72003C10.8413 6.57297 10.9885 6.43838 11.1916 6.32017C11.4997 6.1409 11.8686 6.13924 12.0941 6.13823C12.3195 6.13721 12.5574 6.13643 12.7561 6.13643C13.9788 6.13643 14.4236 6.14573 14.7591 6.26396C15.3409 6.46894 15.7847 6.8967 15.9914 7.42027C16.0432 7.55137 16.0797 7.72365 16.0994 8.02228C16.1194 8.32673 16.1197 8.71536 16.1197 9.27554V10.0176C16.1197 10.3761 16.4103 10.6667 16.7688 10.6667C17.1273 10.6667 17.418 10.3761 17.418 10.0176V9.25341C17.418 8.72064 17.418 8.28894 17.3948 7.93655C17.371 7.57346 17.3205 7.24968 17.1984 6.94024C16.8458 6.04737 16.1069 5.35786 15.1892 5.03452C14.6166 4.8328 13.6353 4.83306 12.5986 4.83342C10.7055 4.83318 9.58107 4.83304 8.65944 5.15775C7.17945 5.67921 5.99696 6.7877 5.43469 8.21174C5.24728 8.68638 5.16426 9.19619 5.12409 9.80742C5.08463 10.4079 5.08463 11.1496 5.08463 12.0951V12.0952V13.8175V13.8175C5.08462 14.7829 5.08461 15.5647 5.15787 16.1895C5.23394 16.8385 5.39611 17.3971 5.776 17.8764C5.97278 18.1248 6.20515 18.344 6.46539 18.528C6.9619 18.8791 7.53605 19.0278 8.20899 19.0982Z" fill="#077BF8"/>
<path fill-rule="evenodd" clip-rule="evenodd" d="M15.2714 11.335C15.5453 11.3164 15.8026 11.4676 15.9197 11.7159L16.981 13.9671C17.0853 14.1884 17.1434 14.3097 17.1937 14.3936C17.2034 14.4098 17.2113 14.4219 17.2173 14.4306C17.2244 14.4317 17.2333 14.4329 17.2441 14.4341C17.3319 14.4437 17.4548 14.4446 17.6898 14.4446H18.25C18.6182 14.4446 18.9167 14.7431 18.9167 15.1113C18.9167 15.4795 18.6182 15.7779 18.25 15.7779H17.6898C17.6808 15.7779 17.6719 15.7779 17.6629 15.778C17.4658 15.778 17.2682 15.778 17.0988 15.7595C16.9044 15.7381 16.692 15.688 16.4855 15.5527C16.2816 15.419 16.1499 15.2456 16.0503 15.0796C15.9614 14.9314 15.875 14.748 15.786 14.5592C15.7823 14.5514 15.7786 14.5435 15.7749 14.5357L15.4411 13.8276L14.486 16.8667C14.4037 17.1286 14.1692 17.3133 13.8953 17.332C13.6214 17.3506 13.3641 17.1995 13.247 16.9511L12.1857 14.6999C12.0814 14.4786 12.0233 14.3573 11.973 14.2734C11.9633 14.2572 11.9554 14.2451 11.9494 14.2364C11.9423 14.2353 11.9334 14.2341 11.9225 14.2329C11.8348 14.2233 11.7119 14.2224 11.4769 14.2224H10.9167C10.5485 14.2224 10.25 13.9239 10.25 13.5557C10.25 13.1875 10.5485 12.8891 10.9167 12.8891H11.4769C11.4858 12.8891 11.4948 12.8891 11.5037 12.8891C11.7009 12.889 11.8985 12.889 12.0679 12.9076C12.2623 12.9289 12.4747 12.979 12.6811 13.1143C12.8851 13.248 13.0167 13.4214 13.1163 13.5875C13.2053 13.7357 13.2917 13.919 13.3806 14.1078C13.3843 14.1157 13.388 14.1235 13.3917 14.1313L13.7255 14.8394L14.6807 11.8003C14.763 11.5384 14.9975 11.3537 15.2714 11.335ZM11.9739 14.2413C11.9739 14.2414 11.9736 14.2413 11.973 14.2411L11.9739 14.2413ZM11.9352 14.2176C11.9345 14.217 11.9342 14.2166 11.9342 14.2165C11.9342 14.2165 11.9345 14.2169 11.9352 14.2176ZM17.1927 14.4257C17.1928 14.4257 17.1931 14.4257 17.1937 14.4259L17.1927 14.4257ZM17.2315 14.4494C17.2322 14.4501 17.2325 14.4504 17.2325 14.4505C17.2325 14.4505 17.2322 14.4502 17.2315 14.4494Z" fill="#000D1C"/>
</svg>
