<svg width="18" height="18" viewBox="0 0 18 18" fill="none" xmlns="http://www.w3.org/2000/svg">
<path d="M16.5 14.25V16.5H1.5V14.25C1.5 13.8375 1.8375 13.5 2.25 13.5H15.75C16.1625 13.5 16.5 13.8375 16.5 14.25Z" fill="#1D2939" stroke="#1D2939" stroke-width="1.5" stroke-miterlimit="10" stroke-linecap="round" stroke-linejoin="round"/>
<path d="M6 8.25H3V13.5H6V8.25Z" fill="#98A2B3"/>
<path d="M9 8.25H6V13.5H9V8.25Z" fill="#D0D5DD"/>
<path d="M12 8.25H9V13.5H12V8.25Z" fill="#98A2B3"/>
<path d="M15 8.25H12V13.5H15V8.25Z" fill="#D0D5DD"/>
<path d="M17.25 17.0625H0.75C0.4425 17.0625 0.1875 16.8075 0.1875 16.5C0.1875 16.1925 0.4425 15.9375 0.75 15.9375H17.25C17.5575 15.9375 17.8125 16.1925 17.8125 16.5C17.8125 16.8075 17.5575 17.0625 17.25 17.0625Z" fill="#1D2939"/>
<path d="M16.0275 4.31249L9.2775 1.6125C9.1275 1.5525 8.8725 1.5525 8.7225 1.6125L1.9725 4.31249C1.71 4.41749 1.5 4.72498 1.5 5.00998V7.49999C1.5 7.91249 1.8375 8.24999 2.25 8.24999H15.75C16.1625 8.24999 16.5 7.91249 16.5 7.49999V5.00998C16.5 4.72498 16.29 4.41749 16.0275 4.31249ZM9 6.37499C8.3775 6.37499 7.875 5.87249 7.875 5.24999C7.875 4.62749 8.3775 4.12499 9 4.12499C9.6225 4.12499 10.125 4.62749 10.125 5.24999C10.125 5.87249 9.6225 6.37499 9 6.37499Z" fill="#1D2939"/>
</svg>
