<svg width="360" height="359" viewBox="0 0 360 359" fill="none" xmlns="http://www.w3.org/2000/svg">
    <g opacity="0.05">
        <path d="M22.4346 53.1275C19.9806 62.0434 12.9561 69.0592 4.04026 71.5132C2.70721 71.8811 1.38281 70.89 1.38281 69.505V52.5519C1.38281 51.4006 2.31335 50.4701 3.46462 50.4701H20.4264C21.8114 50.4701 22.7982 51.7945 22.4346 53.1275Z" fill="white"/>
        <path d="M20.4276 41.7577H9.16155C5.75535 41.7577 2.49198 43.108 0.0855637 45.5188L-0.511713 46.1161L-2.97872 48.5831L-3.57599 49.1804C-5.98241 51.5868 -7.3371 54.8545 -7.3371 58.2563V69.5137C-7.3371 70.8987 -8.66149 71.8812 -9.99887 71.5176C-13.8812 70.4572 -17.4042 68.5312 -20.343 65.943C-21.2216 65.1856 -22.0526 64.3546 -22.81 63.476C-25.4068 60.5372 -27.3415 57.0142 -28.4105 53.1362C-28.7784 51.7988 -27.796 50.4701 -26.4066 50.4701H-15.119C-11.7128 50.4701 -8.44942 49.1198 -6.043 46.709L-2.38144 43.0475C0.024971 40.641 1.37966 37.3733 1.37966 33.9715V22.6752C1.37966 21.2902 2.70838 20.3034 4.04576 20.6713C7.92805 21.7403 11.4554 23.6836 14.3942 26.2718C15.2728 27.0292 16.0951 27.8602 16.8612 28.7388C19.4408 31.6819 21.3711 35.205 22.4358 39.0916C22.7993 40.429 21.8169 41.7534 20.4319 41.7534L20.4276 41.7577Z" fill="white"/>
    </g>
    <g opacity="0.05">
        <path d="M53.6664 22.6753V39.676C53.6664 40.8273 52.7359 41.7578 51.5846 41.7578H34.5839C33.2033 41.7578 32.2121 40.4377 32.5757 39.1047C35.0254 30.1629 42.0672 23.1211 51.009 20.6714C52.3421 20.3078 53.6621 21.2946 53.6621 22.6796L53.6664 22.6753Z" fill="white"/>
        <path d="M83.4346 53.1275C80.9806 62.0434 73.9561 69.0592 65.0403 71.5132C63.7072 71.8811 62.3828 70.89 62.3828 69.505V52.5519C62.3828 51.4006 63.3133 50.4701 64.4646 50.4701H81.4264C82.8114 50.4701 83.7982 51.7945 83.4346 53.1275Z" fill="white"/>
        <path d="M81.4276 41.7577H70.1616C66.7554 41.7577 63.492 43.108 61.0856 45.5188L60.4883 46.1161L58.0213 48.5831L57.424 49.1804C55.0176 51.5868 53.6629 54.8545 53.6629 58.2563V69.5137C53.6629 70.8987 52.3385 71.8812 51.0011 71.5176C47.1188 70.4572 43.5958 68.5312 40.657 65.943C39.7784 65.1856 38.9474 64.3546 38.19 63.476C35.5932 60.5372 33.6585 57.0142 32.5895 53.1362C32.2216 51.7988 33.204 50.4701 34.5934 50.4701H45.881C49.2872 50.4701 52.5506 49.1198 54.957 46.709L58.6186 43.0475C61.025 40.641 62.3797 37.3733 62.3797 33.9715V22.6752C62.3797 21.2902 63.7084 20.3034 65.0458 20.6713C68.9281 21.7403 72.4554 23.6836 75.3942 26.2718C76.2728 27.0292 77.0951 27.8602 77.8612 28.7388C80.4408 31.6819 82.3711 35.205 83.4358 39.0916C83.7993 40.429 82.8169 41.7534 81.4319 41.7534L81.4276 41.7577Z" fill="white"/>
    </g>
    <g opacity="0.05">
        <path d="M114.666 22.6753V39.676C114.666 40.8273 113.736 41.7578 112.585 41.7578H95.5839C94.2033 41.7578 93.2121 40.4377 93.5757 39.1047C96.0254 30.1629 103.067 23.1211 112.009 20.6714C113.342 20.3078 114.662 21.2946 114.662 22.6796L114.666 22.6753Z" fill="white"/>
        <path d="M144.435 53.1275C141.981 62.0434 134.956 69.0592 126.04 71.5132C124.707 71.8811 123.383 70.89 123.383 69.505V52.5519C123.383 51.4006 124.313 50.4701 125.465 50.4701H142.426C143.811 50.4701 144.798 51.7945 144.435 53.1275Z" fill="white"/>
        <path d="M142.428 41.7577H131.162C127.755 41.7577 124.492 43.108 122.086 45.5188L121.488 46.1161L119.021 48.5831L118.424 49.1804C116.018 51.5868 114.663 54.8545 114.663 58.2563V69.5137C114.663 70.8987 113.339 71.8812 112.001 71.5176C108.119 70.4572 104.596 68.5312 101.657 65.943C100.778 65.1856 99.9474 64.3546 99.19 63.476C96.5932 60.5372 94.6585 57.0142 93.5895 53.1362C93.2216 51.7988 94.204 50.4701 95.5934 50.4701H106.881C110.287 50.4701 113.551 49.1198 115.957 46.709L119.619 43.0475C122.025 40.641 123.38 37.3733 123.38 33.9715V22.6752C123.38 21.2902 124.708 20.3034 126.046 20.6713C129.928 21.7403 133.455 23.6836 136.394 26.2718C137.273 27.0292 138.095 27.8602 138.861 28.7388C141.441 31.6819 143.371 35.205 144.436 39.0916C144.799 40.429 143.817 41.7534 142.432 41.7534L142.428 41.7577Z" fill="white"/>
    </g>
    <g opacity="0.05">
        <path d="M175.666 22.6753V39.676C175.666 40.8273 174.736 41.7578 173.585 41.7578H156.584C155.203 41.7578 154.212 40.4377 154.576 39.1047C157.025 30.1629 164.067 23.1211 173.009 20.6714C174.342 20.3078 175.662 21.2946 175.662 22.6796L175.666 22.6753Z" fill="white"/>
        <path d="M205.435 53.1275C202.981 62.0434 195.956 69.0592 187.04 71.5132C185.707 71.8811 184.383 70.89 184.383 69.505V52.5519C184.383 51.4006 185.313 50.4701 186.465 50.4701H203.426C204.811 50.4701 205.798 51.7945 205.435 53.1275Z" fill="white"/>
        <path d="M203.428 41.7577H192.162C188.755 41.7577 185.492 43.108 183.086 45.5188L182.488 46.1161L180.021 48.5831L179.424 49.1804C177.018 51.5868 175.663 54.8545 175.663 58.2563V69.5137C175.663 70.8987 174.339 71.8812 173.001 71.5176C169.119 70.4572 165.596 68.5312 162.657 65.943C161.778 65.1856 160.947 64.3546 160.19 63.476C157.593 60.5372 155.658 57.0142 154.589 53.1362C154.222 51.7988 155.204 50.4701 156.593 50.4701H167.881C171.287 50.4701 174.551 49.1198 176.957 46.709L180.619 43.0475C183.025 40.641 184.38 37.3733 184.38 33.9715V22.6752C184.38 21.2902 185.708 20.3034 187.046 20.6713C190.928 21.7403 194.455 23.6836 197.394 26.2718C198.273 27.0292 199.095 27.8602 199.861 28.7388C202.441 31.6819 204.371 35.205 205.436 39.0916C205.799 40.429 204.817 41.7534 203.432 41.7534L203.428 41.7577Z" fill="white"/>
    </g>
    <g opacity="0.05">
        <path d="M236.666 22.6753V39.676C236.666 40.8273 235.736 41.7578 234.585 41.7578H217.584C216.203 41.7578 215.212 40.4377 215.576 39.1047C218.025 30.1629 225.067 23.1211 234.009 20.6714C235.342 20.3078 236.662 21.2946 236.662 22.6796L236.666 22.6753Z" fill="white"/>
        <path d="M266.435 53.1275C263.981 62.0434 256.956 69.0592 248.04 71.5132C246.707 71.8811 245.383 70.89 245.383 69.505V52.5519C245.383 51.4006 246.313 50.4701 247.465 50.4701H264.426C265.811 50.4701 266.798 51.7945 266.435 53.1275Z" fill="white"/>
        <path d="M264.428 41.7577H253.162C249.755 41.7577 246.492 43.108 244.086 45.5188L243.488 46.1161L241.021 48.5831L240.424 49.1804C238.018 51.5868 236.663 54.8545 236.663 58.2563V69.5137C236.663 70.8987 235.339 71.8812 234.001 71.5176C230.119 70.4572 226.596 68.5312 223.657 65.943C222.778 65.1856 221.947 64.3546 221.19 63.476C218.593 60.5372 216.658 57.0142 215.589 53.1362C215.222 51.7988 216.204 50.4701 217.593 50.4701H228.881C232.287 50.4701 235.551 49.1198 237.957 46.709L241.619 43.0475C244.025 40.641 245.38 37.3733 245.38 33.9715V22.6752C245.38 21.2902 246.708 20.3034 248.046 20.6713C251.928 21.7403 255.455 23.6836 258.394 26.2718C259.273 27.0292 260.095 27.8602 260.861 28.7388C263.441 31.6819 265.371 35.205 266.436 39.0916C266.799 40.429 265.817 41.7534 264.432 41.7534L264.428 41.7577Z" fill="white"/>
    </g>
    <g opacity="0.05">
        <path d="M297.666 22.6753V39.676C297.666 40.8273 296.736 41.7578 295.585 41.7578H278.584C277.203 41.7578 276.212 40.4377 276.576 39.1047C279.025 30.1629 286.067 23.1211 295.009 20.6714C296.342 20.3078 297.662 21.2946 297.662 22.6796L297.666 22.6753Z" fill="white"/>
        <path d="M327.435 53.1275C324.981 62.0434 317.956 69.0592 309.04 71.5132C307.707 71.8811 306.383 70.89 306.383 69.505V52.5519C306.383 51.4006 307.313 50.4701 308.465 50.4701H325.426C326.811 50.4701 327.798 51.7945 327.435 53.1275Z" fill="white"/>
        <path d="M325.428 41.7577H314.162C310.755 41.7577 307.492 43.108 305.086 45.5188L304.488 46.1161L302.021 48.5831L301.424 49.1804C299.018 51.5868 297.663 54.8545 297.663 58.2563V69.5137C297.663 70.8987 296.339 71.8812 295.001 71.5176C291.119 70.4572 287.596 68.5312 284.657 65.943C283.778 65.1856 282.947 64.3546 282.19 63.476C279.593 60.5372 277.658 57.0142 276.589 53.1362C276.222 51.7988 277.204 50.4701 278.593 50.4701H289.881C293.287 50.4701 296.551 49.1198 298.957 46.709L302.619 43.0475C305.025 40.641 306.38 37.3733 306.38 33.9715V22.6752C306.38 21.2902 307.708 20.3034 309.046 20.6713C312.928 21.7403 316.455 23.6836 319.394 26.2718C320.273 27.0292 321.095 27.8602 321.861 28.7388C324.441 31.6819 326.371 35.205 327.436 39.0916C327.799 40.429 326.817 41.7534 325.432 41.7534L325.428 41.7577Z" fill="white"/>
    </g>
    <g opacity="0.05">
        <path d="M358.666 22.6753V39.676C358.666 40.8273 357.736 41.7578 356.585 41.7578H339.584C338.203 41.7578 337.212 40.4377 337.576 39.1047C340.025 30.1629 347.067 23.1211 356.009 20.6714C357.342 20.3078 358.662 21.2946 358.662 22.6796L358.666 22.6753Z" fill="white"/>
        <path d="M386.428 41.7577H375.162C371.755 41.7577 368.492 43.108 366.086 45.5188L365.488 46.1161L363.021 48.5831L362.424 49.1804C360.018 51.5868 358.663 54.8545 358.663 58.2563V69.5137C358.663 70.8987 357.339 71.8812 356.001 71.5176C352.119 70.4572 348.596 68.5312 345.657 65.943C344.778 65.1856 343.947 64.3546 343.19 63.476C340.593 60.5372 338.658 57.0142 337.589 53.1362C337.222 51.7988 338.204 50.4701 339.593 50.4701H350.881C354.287 50.4701 357.551 49.1198 359.957 46.709L363.619 43.0475C366.025 40.641 367.38 37.3733 367.38 33.9715V22.6752C367.38 21.2902 368.708 20.3034 370.046 20.6713C373.928 21.7403 377.455 23.6836 380.394 26.2718C381.273 27.0292 382.095 27.8602 382.861 28.7388C385.441 31.6819 387.371 35.205 388.436 39.0916C388.799 40.429 387.817 41.7534 386.432 41.7534L386.428 41.7577Z" fill="white"/>
    </g>
    <g opacity="0.05">
        <path d="M23.1664 80.4878V97.4885C23.1664 98.6398 22.2359 99.5703 21.0846 99.5703H4.08392C2.70327 99.5703 1.71213 98.2502 2.07569 96.9172C4.52539 87.9754 11.5672 80.9336 20.509 78.4839C21.8421 78.1203 23.1621 79.1071 23.1621 80.4921L23.1664 80.4878Z" fill="white"/>
        <path d="M52.9346 110.94C50.4806 119.856 43.4561 126.872 34.5403 129.326C33.2072 129.694 31.8828 128.702 31.8828 127.318V110.364C31.8828 109.213 32.8133 108.283 33.9646 108.283H50.9264C52.3114 108.283 53.2982 109.607 52.9346 110.94Z" fill="white"/>
        <path d="M50.9276 99.5702H39.6616C36.2554 99.5702 32.992 100.921 30.5856 103.331L29.9883 103.929L27.5213 106.396L26.924 106.993C24.5176 109.399 23.1629 112.667 23.1629 116.069V127.326C23.1629 128.711 21.8385 129.694 20.5011 129.33C16.6188 128.27 13.0958 126.344 10.157 123.756C9.27841 122.998 8.44742 122.167 7.69 121.289C5.09315 118.35 3.1585 114.827 2.08946 110.949C1.72157 109.611 2.70405 108.283 4.09336 108.283H15.381C18.7872 108.283 22.0506 106.932 24.457 104.522L28.1186 100.86C30.525 98.4535 31.8797 95.1858 31.8797 91.784V80.4877C31.8797 79.1027 33.2084 78.1159 34.5458 78.4838C38.4281 79.5528 41.9554 81.4961 44.8942 84.0843C45.7728 84.8417 46.5951 85.6727 47.3612 86.5513C49.9408 89.4944 51.8711 93.0175 52.9358 96.9041C53.2993 98.2415 52.3169 99.5659 50.9319 99.5659L50.9276 99.5702Z" fill="white"/>
    </g>
    <g opacity="0.05">
        <path d="M84.1664 80.4878V97.4885C84.1664 98.6398 83.2359 99.5703 82.0846 99.5703H65.0839C63.7033 99.5703 62.7121 98.2502 63.0757 96.9172C65.5254 87.9754 72.5672 80.9336 81.509 78.4839C82.8421 78.1203 84.1621 79.1071 84.1621 80.4921L84.1664 80.4878Z" fill="white"/>
        <path d="M113.935 110.94C111.481 119.856 104.456 126.872 95.5403 129.326C94.2072 129.694 92.8828 128.702 92.8828 127.318V110.364C92.8828 109.213 93.8133 108.283 94.9646 108.283H111.926C113.311 108.283 114.298 109.607 113.935 110.94Z" fill="white"/>
        <path d="M111.928 99.5702H100.662C97.2554 99.5702 93.992 100.921 91.5856 103.331L90.9883 103.929L88.5213 106.396L87.924 106.993C85.5176 109.399 84.1629 112.667 84.1629 116.069V127.326C84.1629 128.711 82.8385 129.694 81.5011 129.33C77.6188 128.27 74.0958 126.344 71.157 123.756C70.2784 122.998 69.4474 122.167 68.69 121.289C66.0932 118.35 64.1585 114.827 63.0895 110.949C62.7216 109.611 63.704 108.283 65.0934 108.283H76.381C79.7872 108.283 83.0506 106.932 85.457 104.522L89.1186 100.86C91.525 98.4535 92.8797 95.1858 92.8797 91.784V80.4877C92.8797 79.1027 94.2084 78.1159 95.5458 78.4838C99.4281 79.5528 102.955 81.4961 105.894 84.0843C106.773 84.8417 107.595 85.6727 108.361 86.5513C110.941 89.4944 112.871 93.0175 113.936 96.9041C114.299 98.2415 113.317 99.5659 111.932 99.5659L111.928 99.5702Z" fill="white"/>
    </g>
    <g opacity="0.05">
        <path d="M145.166 80.4878V97.4885C145.166 98.6398 144.236 99.5703 143.085 99.5703H126.084C124.703 99.5703 123.712 98.2502 124.076 96.9172C126.525 87.9754 133.567 80.9336 142.509 78.4839C143.842 78.1203 145.162 79.1071 145.162 80.4921L145.166 80.4878Z" fill="white"/>
        <path d="M174.935 110.94C172.481 119.856 165.456 126.872 156.54 129.326C155.207 129.694 153.883 128.702 153.883 127.318V110.364C153.883 109.213 154.813 108.283 155.965 108.283H172.926C174.311 108.283 175.298 109.607 174.935 110.94Z" fill="white"/>
        <path d="M172.928 99.5702H161.662C158.255 99.5702 154.992 100.921 152.586 103.331L151.988 103.929L149.521 106.396L148.924 106.993C146.518 109.399 145.163 112.667 145.163 116.069V127.326C145.163 128.711 143.839 129.694 142.501 129.33C138.619 128.27 135.096 126.344 132.157 123.756C131.278 122.998 130.447 122.167 129.69 121.289C127.093 118.35 125.158 114.827 124.089 110.949C123.722 109.611 124.704 108.283 126.093 108.283H137.381C140.787 108.283 144.051 106.932 146.457 104.522L150.119 100.86C152.525 98.4535 153.88 95.1858 153.88 91.784V80.4877C153.88 79.1027 155.208 78.1159 156.546 78.4838C160.428 79.5528 163.955 81.4961 166.894 84.0843C167.773 84.8417 168.595 85.6727 169.361 86.5513C171.941 89.4944 173.871 93.0175 174.936 96.9041C175.299 98.2415 174.317 99.5659 172.932 99.5659L172.928 99.5702Z" fill="white"/>
    </g>
    <g opacity="0.05">
        <path d="M206.166 80.4878V97.4885C206.166 98.6398 205.236 99.5703 204.085 99.5703H187.084C185.703 99.5703 184.712 98.2502 185.076 96.9172C187.525 87.9754 194.567 80.9336 203.509 78.4839C204.842 78.1203 206.162 79.1071 206.162 80.4921L206.166 80.4878Z" fill="white"/>
        <path d="M235.935 110.94C233.481 119.856 226.456 126.872 217.54 129.326C216.207 129.694 214.883 128.702 214.883 127.318V110.364C214.883 109.213 215.813 108.283 216.965 108.283H233.926C235.311 108.283 236.298 109.607 235.935 110.94Z" fill="white"/>
        <path d="M233.928 99.5702H222.662C219.255 99.5702 215.992 100.921 213.586 103.331L212.988 103.929L210.521 106.396L209.924 106.993C207.518 109.399 206.163 112.667 206.163 116.069V127.326C206.163 128.711 204.839 129.694 203.501 129.33C199.619 128.27 196.096 126.344 193.157 123.756C192.278 122.998 191.447 122.167 190.69 121.289C188.093 118.35 186.158 114.827 185.089 110.949C184.722 109.611 185.704 108.283 187.093 108.283H198.381C201.787 108.283 205.051 106.932 207.457 104.522L211.119 100.86C213.525 98.4535 214.88 95.1858 214.88 91.784V80.4877C214.88 79.1027 216.208 78.1159 217.546 78.4838C221.428 79.5528 224.955 81.4961 227.894 84.0843C228.773 84.8417 229.595 85.6727 230.361 86.5513C232.941 89.4944 234.871 93.0175 235.936 96.9041C236.299 98.2415 235.317 99.5659 233.932 99.5659L233.928 99.5702Z" fill="white"/>
    </g>
    <g opacity="0.05">
        <path d="M267.166 80.4878V97.4885C267.166 98.6398 266.236 99.5703 265.085 99.5703H248.084C246.703 99.5703 245.712 98.2502 246.076 96.9172C248.525 87.9754 255.567 80.9336 264.509 78.4839C265.842 78.1203 267.162 79.1071 267.162 80.4921L267.166 80.4878Z" fill="white"/>
        <path d="M296.935 110.94C294.481 119.856 287.456 126.872 278.54 129.326C277.207 129.694 275.883 128.702 275.883 127.318V110.364C275.883 109.213 276.813 108.283 277.965 108.283H294.926C296.311 108.283 297.298 109.607 296.935 110.94Z" fill="white"/>
        <path d="M294.928 99.5702H283.662C280.255 99.5702 276.992 100.921 274.586 103.331L273.988 103.929L271.521 106.396L270.924 106.993C268.518 109.399 267.163 112.667 267.163 116.069V127.326C267.163 128.711 265.839 129.694 264.501 129.33C260.619 128.27 257.096 126.344 254.157 123.756C253.278 122.998 252.447 122.167 251.69 121.289C249.093 118.35 247.158 114.827 246.089 110.949C245.722 109.611 246.704 108.283 248.093 108.283H259.381C262.787 108.283 266.051 106.932 268.457 104.522L272.119 100.86C274.525 98.4535 275.88 95.1858 275.88 91.784V80.4877C275.88 79.1027 277.208 78.1159 278.546 78.4838C282.428 79.5528 285.955 81.4961 288.894 84.0843C289.773 84.8417 290.595 85.6727 291.361 86.5513C293.941 89.4944 295.871 93.0175 296.936 96.9041C297.299 98.2415 296.317 99.5659 294.932 99.5659L294.928 99.5702Z" fill="white"/>
    </g>
    <g opacity="0.05">
        <path d="M328.166 80.4878V97.4885C328.166 98.6398 327.236 99.5703 326.085 99.5703H309.084C307.703 99.5703 306.712 98.2502 307.076 96.9172C309.525 87.9754 316.567 80.9336 325.509 78.4839C326.842 78.1203 328.162 79.1071 328.162 80.4921L328.166 80.4878Z" fill="white"/>
        <path d="M357.935 110.94C355.481 119.856 348.456 126.872 339.54 129.326C338.207 129.694 336.883 128.702 336.883 127.318V110.364C336.883 109.213 337.813 108.283 338.965 108.283H355.926C357.311 108.283 358.298 109.607 357.935 110.94Z" fill="white"/>
        <path d="M355.928 99.5702H344.662C341.255 99.5702 337.992 100.921 335.586 103.331L334.988 103.929L332.521 106.396L331.924 106.993C329.518 109.399 328.163 112.667 328.163 116.069V127.326C328.163 128.711 326.839 129.694 325.501 129.33C321.619 128.27 318.096 126.344 315.157 123.756C314.278 122.998 313.447 122.167 312.69 121.289C310.093 118.35 308.158 114.827 307.089 110.949C306.722 109.611 307.704 108.283 309.093 108.283H320.381C323.787 108.283 327.051 106.932 329.457 104.522L333.119 100.86C335.525 98.4535 336.88 95.1858 336.88 91.784V80.4877C336.88 79.1027 338.208 78.1159 339.546 78.4838C343.428 79.5528 346.955 81.4961 349.894 84.0843C350.773 84.8417 351.595 85.6727 352.361 86.5513C354.941 89.4944 356.871 93.0175 357.936 96.9041C358.299 98.2415 357.317 99.5659 355.932 99.5659L355.928 99.5702Z" fill="white"/>
    </g>
    <g opacity="0.05">
        <path d="M22.4346 168.753C19.9806 177.668 12.9561 184.684 4.04026 187.138C2.70721 187.506 1.38281 186.515 1.38281 185.13V168.177C1.38281 167.026 2.31335 166.095 3.46462 166.095H20.4264C21.8114 166.095 22.7982 167.42 22.4346 168.753Z" fill="white"/>
        <path d="M20.4276 157.383H9.16155C5.75535 157.383 2.49198 158.733 0.0855637 161.144L-0.511713 161.741L-2.97872 164.208L-3.57599 164.805C-5.98241 167.212 -7.3371 170.479 -7.3371 173.881V185.139C-7.3371 186.524 -8.66149 187.506 -9.99887 187.143C-13.8812 186.082 -17.4042 184.156 -20.343 181.568C-21.2216 180.811 -22.0526 179.98 -22.81 179.101C-25.4068 176.162 -27.3415 172.639 -28.4105 168.761C-28.7784 167.424 -27.796 166.095 -26.4066 166.095H-15.119C-11.7128 166.095 -8.44942 164.745 -6.043 162.334L-2.38144 158.672C0.024971 156.266 1.37966 152.998 1.37966 149.596V138.3C1.37966 136.915 2.70838 135.928 4.04576 136.296C7.92805 137.365 11.4554 139.309 14.3942 141.897C15.2728 142.654 16.0951 143.485 16.8612 144.364C19.4408 147.307 21.3711 150.83 22.4358 154.717C22.7993 156.054 21.8169 157.378 20.4319 157.378L20.4276 157.383Z" fill="white"/>
    </g>
    <g opacity="0.05">
        <path d="M53.6664 138.3V155.301C53.6664 156.452 52.7359 157.383 51.5846 157.383H34.5839C33.2033 157.383 32.2121 156.063 32.5757 154.73C35.0254 145.788 42.0672 138.746 51.009 136.296C52.3421 135.933 53.6621 136.92 53.6621 138.305L53.6664 138.3Z" fill="white"/>
        <path d="M83.4346 168.753C80.9806 177.668 73.9561 184.684 65.0403 187.138C63.7072 187.506 62.3828 186.515 62.3828 185.13V168.177C62.3828 167.026 63.3133 166.095 64.4646 166.095H81.4264C82.8114 166.095 83.7982 167.42 83.4346 168.753Z" fill="white"/>
        <path d="M81.4276 157.383H70.1616C66.7554 157.383 63.492 158.733 61.0856 161.144L60.4883 161.741L58.0213 164.208L57.424 164.805C55.0176 167.212 53.6629 170.479 53.6629 173.881V185.139C53.6629 186.524 52.3385 187.506 51.0011 187.143C47.1188 186.082 43.5958 184.156 40.657 181.568C39.7784 180.811 38.9474 179.98 38.19 179.101C35.5932 176.162 33.6585 172.639 32.5895 168.761C32.2216 167.424 33.204 166.095 34.5934 166.095H45.881C49.2872 166.095 52.5506 164.745 54.957 162.334L58.6186 158.672C61.025 156.266 62.3797 152.998 62.3797 149.596V138.3C62.3797 136.915 63.7084 135.928 65.0458 136.296C68.9281 137.365 72.4554 139.309 75.3942 141.897C76.2728 142.654 77.0951 143.485 77.8612 144.364C80.4408 147.307 82.3711 150.83 83.4358 154.717C83.7993 156.054 82.8169 157.378 81.4319 157.378L81.4276 157.383Z" fill="white"/>
    </g>
    <g opacity="0.05">
        <path d="M114.666 138.3V155.301C114.666 156.452 113.736 157.383 112.585 157.383H95.5839C94.2033 157.383 93.2121 156.063 93.5757 154.73C96.0254 145.788 103.067 138.746 112.009 136.296C113.342 135.933 114.662 136.92 114.662 138.305L114.666 138.3Z" fill="white"/>
        <path d="M144.435 168.753C141.981 177.668 134.956 184.684 126.04 187.138C124.707 187.506 123.383 186.515 123.383 185.13V168.177C123.383 167.026 124.313 166.095 125.465 166.095H142.426C143.811 166.095 144.798 167.42 144.435 168.753Z" fill="white"/>
        <path d="M142.428 157.383H131.162C127.755 157.383 124.492 158.733 122.086 161.144L121.488 161.741L119.021 164.208L118.424 164.805C116.018 167.212 114.663 170.479 114.663 173.881V185.139C114.663 186.524 113.339 187.506 112.001 187.143C108.119 186.082 104.596 184.156 101.657 181.568C100.778 180.811 99.9474 179.98 99.19 179.101C96.5932 176.162 94.6585 172.639 93.5895 168.761C93.2216 167.424 94.204 166.095 95.5934 166.095H106.881C110.287 166.095 113.551 164.745 115.957 162.334L119.619 158.672C122.025 156.266 123.38 152.998 123.38 149.596V138.3C123.38 136.915 124.708 135.928 126.046 136.296C129.928 137.365 133.455 139.309 136.394 141.897C137.273 142.654 138.095 143.485 138.861 144.364C141.441 147.307 143.371 150.83 144.436 154.717C144.799 156.054 143.817 157.378 142.432 157.378L142.428 157.383Z" fill="white"/>
    </g>
    <g opacity="0.05">
        <path d="M175.666 138.3V155.301C175.666 156.452 174.736 157.383 173.585 157.383H156.584C155.203 157.383 154.212 156.063 154.576 154.73C157.025 145.788 164.067 138.746 173.009 136.296C174.342 135.933 175.662 136.92 175.662 138.305L175.666 138.3Z" fill="white"/>
        <path d="M205.435 168.753C202.981 177.668 195.956 184.684 187.04 187.138C185.707 187.506 184.383 186.515 184.383 185.13V168.177C184.383 167.026 185.313 166.095 186.465 166.095H203.426C204.811 166.095 205.798 167.42 205.435 168.753Z" fill="white"/>
        <path d="M203.428 157.383H192.162C188.755 157.383 185.492 158.733 183.086 161.144L182.488 161.741L180.021 164.208L179.424 164.805C177.018 167.212 175.663 170.479 175.663 173.881V185.139C175.663 186.524 174.339 187.506 173.001 187.143C169.119 186.082 165.596 184.156 162.657 181.568C161.778 180.811 160.947 179.98 160.19 179.101C157.593 176.162 155.658 172.639 154.589 168.761C154.222 167.424 155.204 166.095 156.593 166.095H167.881C171.287 166.095 174.551 164.745 176.957 162.334L180.619 158.672C183.025 156.266 184.38 152.998 184.38 149.596V138.3C184.38 136.915 185.708 135.928 187.046 136.296C190.928 137.365 194.455 139.309 197.394 141.897C198.273 142.654 199.095 143.485 199.861 144.364C202.441 147.307 204.371 150.83 205.436 154.717C205.799 156.054 204.817 157.378 203.432 157.378L203.428 157.383Z" fill="white"/>
    </g>
    <g opacity="0.05">
        <path d="M236.666 138.3V155.301C236.666 156.452 235.736 157.383 234.585 157.383H217.584C216.203 157.383 215.212 156.063 215.576 154.73C218.025 145.788 225.067 138.746 234.009 136.296C235.342 135.933 236.662 136.92 236.662 138.305L236.666 138.3Z" fill="white"/>
        <path d="M266.435 168.753C263.981 177.668 256.956 184.684 248.04 187.138C246.707 187.506 245.383 186.515 245.383 185.13V168.177C245.383 167.026 246.313 166.095 247.465 166.095H264.426C265.811 166.095 266.798 167.42 266.435 168.753Z" fill="white"/>
        <path d="M264.428 157.383H253.162C249.755 157.383 246.492 158.733 244.086 161.144L243.488 161.741L241.021 164.208L240.424 164.805C238.018 167.212 236.663 170.479 236.663 173.881V185.139C236.663 186.524 235.339 187.506 234.001 187.143C230.119 186.082 226.596 184.156 223.657 181.568C222.778 180.811 221.947 179.98 221.19 179.101C218.593 176.162 216.658 172.639 215.589 168.761C215.222 167.424 216.204 166.095 217.593 166.095H228.881C232.287 166.095 235.551 164.745 237.957 162.334L241.619 158.672C244.025 156.266 245.38 152.998 245.38 149.596V138.3C245.38 136.915 246.708 135.928 248.046 136.296C251.928 137.365 255.455 139.309 258.394 141.897C259.273 142.654 260.095 143.485 260.861 144.364C263.441 147.307 265.371 150.83 266.436 154.717C266.799 156.054 265.817 157.378 264.432 157.378L264.428 157.383Z" fill="white"/>
    </g>
    <g opacity="0.05">
        <path d="M297.666 138.3V155.301C297.666 156.452 296.736 157.383 295.585 157.383H278.584C277.203 157.383 276.212 156.063 276.576 154.73C279.025 145.788 286.067 138.746 295.009 136.296C296.342 135.933 297.662 136.92 297.662 138.305L297.666 138.3Z" fill="white"/>
        <path d="M327.435 168.753C324.981 177.668 317.956 184.684 309.04 187.138C307.707 187.506 306.383 186.515 306.383 185.13V168.177C306.383 167.026 307.313 166.095 308.465 166.095H325.426C326.811 166.095 327.798 167.42 327.435 168.753Z" fill="white"/>
        <path d="M325.428 157.383H314.162C310.755 157.383 307.492 158.733 305.086 161.144L304.488 161.741L302.021 164.208L301.424 164.805C299.018 167.212 297.663 170.479 297.663 173.881V185.139C297.663 186.524 296.339 187.506 295.001 187.143C291.119 186.082 287.596 184.156 284.657 181.568C283.778 180.811 282.947 179.98 282.19 179.101C279.593 176.162 277.658 172.639 276.589 168.761C276.222 167.424 277.204 166.095 278.593 166.095H289.881C293.287 166.095 296.551 164.745 298.957 162.334L302.619 158.672C305.025 156.266 306.38 152.998 306.38 149.596V138.3C306.38 136.915 307.708 135.928 309.046 136.296C312.928 137.365 316.455 139.309 319.394 141.897C320.273 142.654 321.095 143.485 321.861 144.364C324.441 147.307 326.371 150.83 327.436 154.717C327.799 156.054 326.817 157.378 325.432 157.378L325.428 157.383Z" fill="white"/>
    </g>
    <g opacity="0.05">
        <path d="M358.666 138.3V155.301C358.666 156.452 357.736 157.383 356.585 157.383H339.584C338.203 157.383 337.212 156.063 337.576 154.73C340.025 145.788 347.067 138.746 356.009 136.296C357.342 135.933 358.662 136.92 358.662 138.305L358.666 138.3Z" fill="white"/>
        <path d="M386.428 157.383H375.162C371.755 157.383 368.492 158.733 366.086 161.144L365.488 161.741L363.021 164.208L362.424 164.805C360.018 167.212 358.663 170.479 358.663 173.881V185.139C358.663 186.524 357.339 187.506 356.001 187.143C352.119 186.082 348.596 184.156 345.657 181.568C344.778 180.811 343.947 179.98 343.19 179.101C340.593 176.162 338.658 172.639 337.589 168.761C337.222 167.424 338.204 166.095 339.593 166.095H350.881C354.287 166.095 357.551 164.745 359.957 162.334L363.619 158.672C366.025 156.266 367.38 152.998 367.38 149.596V138.3C367.38 136.915 368.708 135.928 370.046 136.296C373.928 137.365 377.455 139.309 380.394 141.897C381.273 142.654 382.095 143.485 382.861 144.364C385.441 147.307 387.371 150.83 388.436 154.717C388.799 156.054 387.817 157.378 386.432 157.378L386.428 157.383Z" fill="white"/>
    </g>
    <g opacity="0.05">
        <path d="M23.1664 196.113V213.114C23.1664 214.265 22.2359 215.195 21.0846 215.195H4.08392C2.70327 215.195 1.71213 213.875 2.07569 212.542C4.52539 203.6 11.5672 196.559 20.509 194.109C21.8421 193.745 23.1621 194.732 23.1621 196.117L23.1664 196.113Z" fill="white"/>
        <path d="M52.9346 226.565C50.4806 235.481 43.4561 242.497 34.5403 244.951C33.2072 245.319 31.8828 244.328 31.8828 242.943V225.989C31.8828 224.838 32.8133 223.908 33.9646 223.908H50.9264C52.3114 223.908 53.2982 225.232 52.9346 226.565Z" fill="white"/>
        <path d="M50.9276 215.195H39.6616C36.2554 215.195 32.992 216.546 30.5856 218.956L29.9883 219.554L27.5213 222.021L26.924 222.618C24.5176 225.024 23.1629 228.292 23.1629 231.694V242.951C23.1629 244.336 21.8385 245.319 20.5011 244.955C16.6188 243.895 13.0958 241.969 10.157 239.381C9.27841 238.623 8.44742 237.792 7.69 236.914C5.09315 233.975 3.1585 230.452 2.08946 226.574C1.72157 225.236 2.70405 223.908 4.09336 223.908H15.381C18.7872 223.908 22.0506 222.557 24.457 220.147L28.1186 216.485C30.525 214.079 31.8797 210.811 31.8797 207.409V196.113C31.8797 194.728 33.2084 193.741 34.5458 194.109C38.4281 195.178 41.9554 197.121 44.8942 199.709C45.7728 200.467 46.5951 201.298 47.3612 202.176C49.9408 205.119 51.8711 208.642 52.9358 212.529C53.2993 213.866 52.3169 215.191 50.9319 215.191L50.9276 215.195Z" fill="white"/>
    </g>
    <g opacity="0.05">
        <path d="M84.1664 196.113V213.114C84.1664 214.265 83.2359 215.195 82.0846 215.195H65.0839C63.7033 215.195 62.7121 213.875 63.0757 212.542C65.5254 203.6 72.5672 196.559 81.509 194.109C82.8421 193.745 84.1621 194.732 84.1621 196.117L84.1664 196.113Z" fill="white"/>
        <path d="M113.935 226.565C111.481 235.481 104.456 242.497 95.5403 244.951C94.2072 245.319 92.8828 244.328 92.8828 242.943V225.989C92.8828 224.838 93.8133 223.908 94.9646 223.908H111.926C113.311 223.908 114.298 225.232 113.935 226.565Z" fill="white"/>
        <path d="M111.928 215.195H100.662C97.2554 215.195 93.992 216.546 91.5856 218.956L90.9883 219.554L88.5213 222.021L87.924 222.618C85.5176 225.024 84.1629 228.292 84.1629 231.694V242.951C84.1629 244.336 82.8385 245.319 81.5011 244.955C77.6188 243.895 74.0958 241.969 71.157 239.381C70.2784 238.623 69.4474 237.792 68.69 236.914C66.0932 233.975 64.1585 230.452 63.0895 226.574C62.7216 225.236 63.704 223.908 65.0934 223.908H76.381C79.7872 223.908 83.0506 222.557 85.457 220.147L89.1186 216.485C91.525 214.079 92.8797 210.811 92.8797 207.409V196.113C92.8797 194.728 94.2084 193.741 95.5458 194.109C99.4281 195.178 102.955 197.121 105.894 199.709C106.773 200.467 107.595 201.298 108.361 202.176C110.941 205.119 112.871 208.642 113.936 212.529C114.299 213.866 113.317 215.191 111.932 215.191L111.928 215.195Z" fill="white"/>
    </g>
    <g opacity="0.05">
        <path d="M145.166 196.113V213.114C145.166 214.265 144.236 215.195 143.085 215.195H126.084C124.703 215.195 123.712 213.875 124.076 212.542C126.525 203.6 133.567 196.559 142.509 194.109C143.842 193.745 145.162 194.732 145.162 196.117L145.166 196.113Z" fill="white"/>
        <path d="M174.935 226.565C172.481 235.481 165.456 242.497 156.54 244.951C155.207 245.319 153.883 244.328 153.883 242.943V225.989C153.883 224.838 154.813 223.908 155.965 223.908H172.926C174.311 223.908 175.298 225.232 174.935 226.565Z" fill="white"/>
        <path d="M172.928 215.195H161.662C158.255 215.195 154.992 216.546 152.586 218.956L151.988 219.554L149.521 222.021L148.924 222.618C146.518 225.024 145.163 228.292 145.163 231.694V242.951C145.163 244.336 143.839 245.319 142.501 244.955C138.619 243.895 135.096 241.969 132.157 239.381C131.278 238.623 130.447 237.792 129.69 236.914C127.093 233.975 125.158 230.452 124.089 226.574C123.722 225.236 124.704 223.908 126.093 223.908H137.381C140.787 223.908 144.051 222.557 146.457 220.147L150.119 216.485C152.525 214.079 153.88 210.811 153.88 207.409V196.113C153.88 194.728 155.208 193.741 156.546 194.109C160.428 195.178 163.955 197.121 166.894 199.709C167.773 200.467 168.595 201.298 169.361 202.176C171.941 205.119 173.871 208.642 174.936 212.529C175.299 213.866 174.317 215.191 172.932 215.191L172.928 215.195Z" fill="white"/>
    </g>
    <g opacity="0.05">
        <path d="M206.166 196.113V213.114C206.166 214.265 205.236 215.195 204.085 215.195H187.084C185.703 215.195 184.712 213.875 185.076 212.542C187.525 203.6 194.567 196.559 203.509 194.109C204.842 193.745 206.162 194.732 206.162 196.117L206.166 196.113Z" fill="white"/>
        <path d="M235.935 226.565C233.481 235.481 226.456 242.497 217.54 244.951C216.207 245.319 214.883 244.328 214.883 242.943V225.989C214.883 224.838 215.813 223.908 216.965 223.908H233.926C235.311 223.908 236.298 225.232 235.935 226.565Z" fill="white"/>
        <path d="M233.928 215.195H222.662C219.255 215.195 215.992 216.546 213.586 218.956L212.988 219.554L210.521 222.021L209.924 222.618C207.518 225.024 206.163 228.292 206.163 231.694V242.951C206.163 244.336 204.839 245.319 203.501 244.955C199.619 243.895 196.096 241.969 193.157 239.381C192.278 238.623 191.447 237.792 190.69 236.914C188.093 233.975 186.158 230.452 185.089 226.574C184.722 225.236 185.704 223.908 187.093 223.908H198.381C201.787 223.908 205.051 222.557 207.457 220.147L211.119 216.485C213.525 214.079 214.88 210.811 214.88 207.409V196.113C214.88 194.728 216.208 193.741 217.546 194.109C221.428 195.178 224.955 197.121 227.894 199.709C228.773 200.467 229.595 201.298 230.361 202.176C232.941 205.119 234.871 208.642 235.936 212.529C236.299 213.866 235.317 215.191 233.932 215.191L233.928 215.195Z" fill="white"/>
    </g>
    <g opacity="0.05">
        <path d="M267.166 196.113V213.114C267.166 214.265 266.236 215.195 265.085 215.195H248.084C246.703 215.195 245.712 213.875 246.076 212.542C248.525 203.6 255.567 196.559 264.509 194.109C265.842 193.745 267.162 194.732 267.162 196.117L267.166 196.113Z" fill="white"/>
        <path d="M296.935 226.565C294.481 235.481 287.456 242.497 278.54 244.951C277.207 245.319 275.883 244.328 275.883 242.943V225.989C275.883 224.838 276.813 223.908 277.965 223.908H294.926C296.311 223.908 297.298 225.232 296.935 226.565Z" fill="white"/>
        <path d="M294.928 215.195H283.662C280.255 215.195 276.992 216.546 274.586 218.956L273.988 219.554L271.521 222.021L270.924 222.618C268.518 225.024 267.163 228.292 267.163 231.694V242.951C267.163 244.336 265.839 245.319 264.501 244.955C260.619 243.895 257.096 241.969 254.157 239.381C253.278 238.623 252.447 237.792 251.69 236.914C249.093 233.975 247.158 230.452 246.089 226.574C245.722 225.236 246.704 223.908 248.093 223.908H259.381C262.787 223.908 266.051 222.557 268.457 220.147L272.119 216.485C274.525 214.079 275.88 210.811 275.88 207.409V196.113C275.88 194.728 277.208 193.741 278.546 194.109C282.428 195.178 285.955 197.121 288.894 199.709C289.773 200.467 290.595 201.298 291.361 202.176C293.941 205.119 295.871 208.642 296.936 212.529C297.299 213.866 296.317 215.191 294.932 215.191L294.928 215.195Z" fill="white"/>
    </g>
    <g opacity="0.05">
        <path d="M328.166 196.113V213.114C328.166 214.265 327.236 215.195 326.085 215.195H309.084C307.703 215.195 306.712 213.875 307.076 212.542C309.525 203.6 316.567 196.559 325.509 194.109C326.842 193.745 328.162 194.732 328.162 196.117L328.166 196.113Z" fill="white"/>
        <path d="M357.935 226.565C355.481 235.481 348.456 242.497 339.54 244.951C338.207 245.319 336.883 244.328 336.883 242.943V225.989C336.883 224.838 337.813 223.908 338.965 223.908H355.926C357.311 223.908 358.298 225.232 357.935 226.565Z" fill="white"/>
        <path d="M355.928 215.195H344.662C341.255 215.195 337.992 216.546 335.586 218.956L334.988 219.554L332.521 222.021L331.924 222.618C329.518 225.024 328.163 228.292 328.163 231.694V242.951C328.163 244.336 326.839 245.319 325.501 244.955C321.619 243.895 318.096 241.969 315.157 239.381C314.278 238.623 313.447 237.792 312.69 236.914C310.093 233.975 308.158 230.452 307.089 226.574C306.722 225.236 307.704 223.908 309.093 223.908H320.381C323.787 223.908 327.051 222.557 329.457 220.147L333.119 216.485C335.525 214.079 336.88 210.811 336.88 207.409V196.113C336.88 194.728 338.208 193.741 339.546 194.109C343.428 195.178 346.955 197.121 349.894 199.709C350.773 200.467 351.595 201.298 352.361 202.176C354.941 205.119 356.871 208.642 357.936 212.529C358.299 213.866 357.317 215.191 355.932 215.191L355.928 215.195Z" fill="white"/>
    </g>
    <g opacity="0.05">
        <path d="M22.4346 284.378C19.9806 293.293 12.9561 300.309 4.04026 302.763C2.70721 303.131 1.38281 302.14 1.38281 300.755V283.802C1.38281 282.651 2.31335 281.72 3.46462 281.72H20.4264C21.8114 281.72 22.7982 283.045 22.4346 284.378Z" fill="white"/>
        <path d="M20.4276 273.008H9.16155C5.75535 273.008 2.49198 274.358 0.0855637 276.769L-0.511713 277.366L-2.97872 279.833L-3.57599 280.43C-5.98241 282.837 -7.3371 286.104 -7.3371 289.506V300.764C-7.3371 302.149 -8.66149 303.131 -9.99887 302.768C-13.8812 301.707 -17.4042 299.781 -20.343 297.193C-21.2216 296.436 -22.0526 295.605 -22.81 294.726C-25.4068 291.787 -27.3415 288.264 -28.4105 284.386C-28.7784 283.049 -27.796 281.72 -26.4066 281.72H-15.119C-11.7128 281.72 -8.44942 280.37 -6.043 277.959L-2.38144 274.297C0.024971 271.891 1.37966 268.623 1.37966 265.221V253.925C1.37966 252.54 2.70838 251.553 4.04576 251.921C7.92805 252.99 11.4554 254.934 14.3942 257.522C15.2728 258.279 16.0951 259.11 16.8612 259.989C19.4408 262.932 21.3711 266.455 22.4358 270.342C22.7993 271.679 21.8169 273.003 20.4319 273.003L20.4276 273.008Z" fill="white"/>
    </g>
    <g opacity="0.05">
        <path d="M53.6664 253.925V270.926C53.6664 272.077 52.7359 273.008 51.5846 273.008H34.5839C33.2033 273.008 32.2121 271.688 32.5757 270.355C35.0254 261.413 42.0672 254.371 51.009 251.921C52.3421 251.558 53.6621 252.545 53.6621 253.93L53.6664 253.925Z" fill="white"/>
        <path d="M83.4346 284.378C80.9806 293.293 73.9561 300.309 65.0403 302.763C63.7072 303.131 62.3828 302.14 62.3828 300.755V283.802C62.3828 282.651 63.3133 281.72 64.4646 281.72H81.4264C82.8114 281.72 83.7982 283.045 83.4346 284.378Z" fill="white"/>
        <path d="M81.4276 273.008H70.1616C66.7554 273.008 63.492 274.358 61.0856 276.769L60.4883 277.366L58.0213 279.833L57.424 280.43C55.0176 282.837 53.6629 286.104 53.6629 289.506V300.764C53.6629 302.149 52.3385 303.131 51.0011 302.768C47.1188 301.707 43.5958 299.781 40.657 297.193C39.7784 296.436 38.9474 295.605 38.19 294.726C35.5932 291.787 33.6585 288.264 32.5895 284.386C32.2216 283.049 33.204 281.72 34.5934 281.72H45.881C49.2872 281.72 52.5506 280.37 54.957 277.959L58.6186 274.297C61.025 271.891 62.3797 268.623 62.3797 265.221V253.925C62.3797 252.54 63.7084 251.553 65.0458 251.921C68.9281 252.99 72.4554 254.934 75.3942 257.522C76.2728 258.279 77.0951 259.11 77.8612 259.989C80.4408 262.932 82.3711 266.455 83.4358 270.342C83.7993 271.679 82.8169 273.003 81.4319 273.003L81.4276 273.008Z" fill="white"/>
    </g>
    <g opacity="0.05">
        <path d="M114.666 253.925V270.926C114.666 272.077 113.736 273.008 112.585 273.008H95.5839C94.2033 273.008 93.2121 271.688 93.5757 270.355C96.0254 261.413 103.067 254.371 112.009 251.921C113.342 251.558 114.662 252.545 114.662 253.93L114.666 253.925Z" fill="white"/>
        <path d="M144.435 284.378C141.981 293.293 134.956 300.309 126.04 302.763C124.707 303.131 123.383 302.14 123.383 300.755V283.802C123.383 282.651 124.313 281.72 125.465 281.72H142.426C143.811 281.72 144.798 283.045 144.435 284.378Z" fill="white"/>
        <path d="M142.428 273.008H131.162C127.755 273.008 124.492 274.358 122.086 276.769L121.488 277.366L119.021 279.833L118.424 280.43C116.018 282.837 114.663 286.104 114.663 289.506V300.764C114.663 302.149 113.339 303.131 112.001 302.768C108.119 301.707 104.596 299.781 101.657 297.193C100.778 296.436 99.9474 295.605 99.19 294.726C96.5932 291.787 94.6585 288.264 93.5895 284.386C93.2216 283.049 94.204 281.72 95.5934 281.72H106.881C110.287 281.72 113.551 280.37 115.957 277.959L119.619 274.297C122.025 271.891 123.38 268.623 123.38 265.221V253.925C123.38 252.54 124.708 251.553 126.046 251.921C129.928 252.99 133.455 254.934 136.394 257.522C137.273 258.279 138.095 259.11 138.861 259.989C141.441 262.932 143.371 266.455 144.436 270.342C144.799 271.679 143.817 273.003 142.432 273.003L142.428 273.008Z" fill="white"/>
    </g>
    <g opacity="0.05">
        <path d="M175.666 253.925V270.926C175.666 272.077 174.736 273.008 173.585 273.008H156.584C155.203 273.008 154.212 271.688 154.576 270.355C157.025 261.413 164.067 254.371 173.009 251.921C174.342 251.558 175.662 252.545 175.662 253.93L175.666 253.925Z" fill="white"/>
        <path d="M205.435 284.378C202.981 293.293 195.956 300.309 187.04 302.763C185.707 303.131 184.383 302.14 184.383 300.755V283.802C184.383 282.651 185.313 281.72 186.465 281.72H203.426C204.811 281.72 205.798 283.045 205.435 284.378Z" fill="white"/>
        <path d="M203.428 273.008H192.162C188.755 273.008 185.492 274.358 183.086 276.769L182.488 277.366L180.021 279.833L179.424 280.43C177.018 282.837 175.663 286.104 175.663 289.506V300.764C175.663 302.149 174.339 303.131 173.001 302.768C169.119 301.707 165.596 299.781 162.657 297.193C161.778 296.436 160.947 295.605 160.19 294.726C157.593 291.787 155.658 288.264 154.589 284.386C154.222 283.049 155.204 281.72 156.593 281.72H167.881C171.287 281.72 174.551 280.37 176.957 277.959L180.619 274.297C183.025 271.891 184.38 268.623 184.38 265.221V253.925C184.38 252.54 185.708 251.553 187.046 251.921C190.928 252.99 194.455 254.934 197.394 257.522C198.273 258.279 199.095 259.11 199.861 259.989C202.441 262.932 204.371 266.455 205.436 270.342C205.799 271.679 204.817 273.003 203.432 273.003L203.428 273.008Z" fill="white"/>
    </g>
    <g opacity="0.05">
        <path d="M236.666 253.925V270.926C236.666 272.077 235.736 273.008 234.585 273.008H217.584C216.203 273.008 215.212 271.688 215.576 270.355C218.025 261.413 225.067 254.371 234.009 251.921C235.342 251.558 236.662 252.545 236.662 253.93L236.666 253.925Z" fill="white"/>
        <path d="M266.435 284.378C263.981 293.293 256.956 300.309 248.04 302.763C246.707 303.131 245.383 302.14 245.383 300.755V283.802C245.383 282.651 246.313 281.72 247.465 281.72H264.426C265.811 281.72 266.798 283.045 266.435 284.378Z" fill="white"/>
        <path d="M264.428 273.008H253.162C249.755 273.008 246.492 274.358 244.086 276.769L243.488 277.366L241.021 279.833L240.424 280.43C238.018 282.837 236.663 286.104 236.663 289.506V300.764C236.663 302.149 235.339 303.131 234.001 302.768C230.119 301.707 226.596 299.781 223.657 297.193C222.778 296.436 221.947 295.605 221.19 294.726C218.593 291.787 216.658 288.264 215.589 284.386C215.222 283.049 216.204 281.72 217.593 281.72H228.881C232.287 281.72 235.551 280.37 237.957 277.959L241.619 274.297C244.025 271.891 245.38 268.623 245.38 265.221V253.925C245.38 252.54 246.708 251.553 248.046 251.921C251.928 252.99 255.455 254.934 258.394 257.522C259.273 258.279 260.095 259.11 260.861 259.989C263.441 262.932 265.371 266.455 266.436 270.342C266.799 271.679 265.817 273.003 264.432 273.003L264.428 273.008Z" fill="white"/>
    </g>
    <g opacity="0.05">
        <path d="M297.666 253.925V270.926C297.666 272.077 296.736 273.008 295.585 273.008H278.584C277.203 273.008 276.212 271.688 276.576 270.355C279.025 261.413 286.067 254.371 295.009 251.921C296.342 251.558 297.662 252.545 297.662 253.93L297.666 253.925Z" fill="white"/>
        <path d="M327.435 284.378C324.981 293.293 317.956 300.309 309.04 302.763C307.707 303.131 306.383 302.14 306.383 300.755V283.802C306.383 282.651 307.313 281.72 308.465 281.72H325.426C326.811 281.72 327.798 283.045 327.435 284.378Z" fill="white"/>
        <path d="M325.428 273.008H314.162C310.755 273.008 307.492 274.358 305.086 276.769L304.488 277.366L302.021 279.833L301.424 280.43C299.018 282.837 297.663 286.104 297.663 289.506V300.764C297.663 302.149 296.339 303.131 295.001 302.768C291.119 301.707 287.596 299.781 284.657 297.193C283.778 296.436 282.947 295.605 282.19 294.726C279.593 291.787 277.658 288.264 276.589 284.386C276.222 283.049 277.204 281.72 278.593 281.72H289.881C293.287 281.72 296.551 280.37 298.957 277.959L302.619 274.297C305.025 271.891 306.38 268.623 306.38 265.221V253.925C306.38 252.54 307.708 251.553 309.046 251.921C312.928 252.99 316.455 254.934 319.394 257.522C320.273 258.279 321.095 259.11 321.861 259.989C324.441 262.932 326.371 266.455 327.436 270.342C327.799 271.679 326.817 273.003 325.432 273.003L325.428 273.008Z" fill="white"/>
    </g>
    <g opacity="0.05">
        <path d="M358.666 253.925V270.926C358.666 272.077 357.736 273.008 356.585 273.008H339.584C338.203 273.008 337.212 271.688 337.576 270.355C340.025 261.413 347.067 254.371 356.009 251.921C357.342 251.558 358.662 252.545 358.662 253.93L358.666 253.925Z" fill="white"/>
        <path d="M386.428 273.008H375.162C371.755 273.008 368.492 274.358 366.086 276.769L365.488 277.366L363.021 279.833L362.424 280.43C360.018 282.837 358.663 286.104 358.663 289.506V300.764C358.663 302.149 357.339 303.131 356.001 302.768C352.119 301.707 348.596 299.781 345.657 297.193C344.778 296.436 343.947 295.605 343.19 294.726C340.593 291.787 338.658 288.264 337.589 284.386C337.222 283.049 338.204 281.72 339.593 281.72H350.881C354.287 281.72 357.551 280.37 359.957 277.959L363.619 274.297C366.025 271.891 367.38 268.623 367.38 265.221V253.925C367.38 252.54 368.708 251.553 370.046 251.921C373.928 252.99 377.455 254.934 380.394 257.522C381.273 258.279 382.095 259.11 382.861 259.989C385.441 262.932 387.371 266.455 388.436 270.342C388.799 271.679 387.817 273.003 386.432 273.003L386.428 273.008Z" fill="white"/>
    </g>
    <g opacity="0.05">
        <path d="M23.1664 311.738V328.739C23.1664 329.89 22.2359 330.82 21.0846 330.82H4.08392C2.70327 330.82 1.71213 329.5 2.07569 328.167C4.52539 319.225 11.5672 312.184 20.509 309.734C21.8421 309.37 23.1621 310.357 23.1621 311.742L23.1664 311.738Z" fill="white"/>
        <path d="M52.9346 342.19C50.4806 351.106 43.4561 358.122 34.5403 360.576C33.2072 360.944 31.8828 359.953 31.8828 358.568V341.614C31.8828 340.463 32.8133 339.533 33.9646 339.533H50.9264C52.3114 339.533 53.2982 340.857 52.9346 342.19Z" fill="white"/>
        <path d="M50.9276 330.82H39.6616C36.2554 330.82 32.992 332.171 30.5856 334.581L29.9883 335.179L27.5213 337.646L26.924 338.243C24.5176 340.649 23.1629 343.917 23.1629 347.319V358.576C23.1629 359.961 21.8385 360.944 20.5011 360.58C16.6188 359.52 13.0958 357.594 10.157 355.006C9.27841 354.248 8.44742 353.417 7.69 352.539C5.09315 349.6 3.1585 346.077 2.08946 342.199C1.72157 340.861 2.70405 339.533 4.09336 339.533H15.381C18.7872 339.533 22.0506 338.182 24.457 335.772L28.1186 332.11C30.525 329.704 31.8797 326.436 31.8797 323.034V311.738C31.8797 310.353 33.2084 309.366 34.5458 309.734C38.4281 310.803 41.9554 312.746 44.8942 315.334C45.7728 316.092 46.5951 316.923 47.3612 317.801C49.9408 320.744 51.8711 324.267 52.9358 328.154C53.2993 329.491 52.3169 330.816 50.9319 330.816L50.9276 330.82Z" fill="white"/>
    </g>
    <g opacity="0.05">
        <path d="M84.1664 311.738V328.739C84.1664 329.89 83.2359 330.82 82.0846 330.82H65.0839C63.7033 330.82 62.7121 329.5 63.0757 328.167C65.5254 319.225 72.5672 312.184 81.509 309.734C82.8421 309.37 84.1621 310.357 84.1621 311.742L84.1664 311.738Z" fill="white"/>
        <path d="M113.935 342.19C111.481 351.106 104.456 358.122 95.5403 360.576C94.2072 360.944 92.8828 359.953 92.8828 358.568V341.614C92.8828 340.463 93.8133 339.533 94.9646 339.533H111.926C113.311 339.533 114.298 340.857 113.935 342.19Z" fill="white"/>
        <path d="M111.928 330.82H100.662C97.2554 330.82 93.992 332.171 91.5856 334.581L90.9883 335.179L88.5213 337.646L87.924 338.243C85.5176 340.649 84.1629 343.917 84.1629 347.319V358.576C84.1629 359.961 82.8385 360.944 81.5011 360.58C77.6188 359.52 74.0958 357.594 71.157 355.006C70.2784 354.248 69.4474 353.417 68.69 352.539C66.0932 349.6 64.1585 346.077 63.0895 342.199C62.7216 340.861 63.704 339.533 65.0934 339.533H76.381C79.7872 339.533 83.0506 338.182 85.457 335.772L89.1186 332.11C91.525 329.704 92.8797 326.436 92.8797 323.034V311.738C92.8797 310.353 94.2084 309.366 95.5458 309.734C99.4281 310.803 102.955 312.746 105.894 315.334C106.773 316.092 107.595 316.923 108.361 317.801C110.941 320.744 112.871 324.267 113.936 328.154C114.299 329.491 113.317 330.816 111.932 330.816L111.928 330.82Z" fill="white"/>
    </g>
    <g opacity="0.05">
        <path d="M145.166 311.738V328.739C145.166 329.89 144.236 330.82 143.085 330.82H126.084C124.703 330.82 123.712 329.5 124.076 328.167C126.525 319.225 133.567 312.184 142.509 309.734C143.842 309.37 145.162 310.357 145.162 311.742L145.166 311.738Z" fill="white"/>
        <path d="M174.935 342.19C172.481 351.106 165.456 358.122 156.54 360.576C155.207 360.944 153.883 359.953 153.883 358.568V341.614C153.883 340.463 154.813 339.533 155.965 339.533H172.926C174.311 339.533 175.298 340.857 174.935 342.19Z" fill="white"/>
        <path d="M172.928 330.82H161.662C158.255 330.82 154.992 332.171 152.586 334.581L151.988 335.179L149.521 337.646L148.924 338.243C146.518 340.649 145.163 343.917 145.163 347.319V358.576C145.163 359.961 143.839 360.944 142.501 360.58C138.619 359.52 135.096 357.594 132.157 355.006C131.278 354.248 130.447 353.417 129.69 352.539C127.093 349.6 125.158 346.077 124.089 342.199C123.722 340.861 124.704 339.533 126.093 339.533H137.381C140.787 339.533 144.051 338.182 146.457 335.772L150.119 332.11C152.525 329.704 153.88 326.436 153.88 323.034V311.738C153.88 310.353 155.208 309.366 156.546 309.734C160.428 310.803 163.955 312.746 166.894 315.334C167.773 316.092 168.595 316.923 169.361 317.801C171.941 320.744 173.871 324.267 174.936 328.154C175.299 329.491 174.317 330.816 172.932 330.816L172.928 330.82Z" fill="white"/>
    </g>
    <g opacity="0.05">
        <path d="M206.166 311.738V328.739C206.166 329.89 205.236 330.82 204.085 330.82H187.084C185.703 330.82 184.712 329.5 185.076 328.167C187.525 319.225 194.567 312.184 203.509 309.734C204.842 309.37 206.162 310.357 206.162 311.742L206.166 311.738Z" fill="white"/>
        <path d="M235.935 342.19C233.481 351.106 226.456 358.122 217.54 360.576C216.207 360.944 214.883 359.953 214.883 358.568V341.614C214.883 340.463 215.813 339.533 216.965 339.533H233.926C235.311 339.533 236.298 340.857 235.935 342.19Z" fill="white"/>
        <path d="M233.928 330.82H222.662C219.255 330.82 215.992 332.171 213.586 334.581L212.988 335.179L210.521 337.646L209.924 338.243C207.518 340.649 206.163 343.917 206.163 347.319V358.576C206.163 359.961 204.839 360.944 203.501 360.58C199.619 359.52 196.096 357.594 193.157 355.006C192.278 354.248 191.447 353.417 190.69 352.539C188.093 349.6 186.158 346.077 185.089 342.199C184.722 340.861 185.704 339.533 187.093 339.533H198.381C201.787 339.533 205.051 338.182 207.457 335.772L211.119 332.11C213.525 329.704 214.88 326.436 214.88 323.034V311.738C214.88 310.353 216.208 309.366 217.546 309.734C221.428 310.803 224.955 312.746 227.894 315.334C228.773 316.092 229.595 316.923 230.361 317.801C232.941 320.744 234.871 324.267 235.936 328.154C236.299 329.491 235.317 330.816 233.932 330.816L233.928 330.82Z" fill="white"/>
    </g>
    <g opacity="0.05">
        <path d="M267.166 311.738V328.739C267.166 329.89 266.236 330.82 265.085 330.82H248.084C246.703 330.82 245.712 329.5 246.076 328.167C248.525 319.225 255.567 312.184 264.509 309.734C265.842 309.37 267.162 310.357 267.162 311.742L267.166 311.738Z" fill="white"/>
        <path d="M296.935 342.19C294.481 351.106 287.456 358.122 278.54 360.576C277.207 360.944 275.883 359.953 275.883 358.568V341.614C275.883 340.463 276.813 339.533 277.965 339.533H294.926C296.311 339.533 297.298 340.857 296.935 342.19Z" fill="white"/>
        <path d="M294.928 330.82H283.662C280.255 330.82 276.992 332.171 274.586 334.581L273.988 335.179L271.521 337.646L270.924 338.243C268.518 340.649 267.163 343.917 267.163 347.319V358.576C267.163 359.961 265.839 360.944 264.501 360.58C260.619 359.52 257.096 357.594 254.157 355.006C253.278 354.248 252.447 353.417 251.69 352.539C249.093 349.6 247.158 346.077 246.089 342.199C245.722 340.861 246.704 339.533 248.093 339.533H259.381C262.787 339.533 266.051 338.182 268.457 335.772L272.119 332.11C274.525 329.704 275.88 326.436 275.88 323.034V311.738C275.88 310.353 277.208 309.366 278.546 309.734C282.428 310.803 285.955 312.746 288.894 315.334C289.773 316.092 290.595 316.923 291.361 317.801C293.941 320.744 295.871 324.267 296.936 328.154C297.299 329.491 296.317 330.816 294.932 330.816L294.928 330.82Z" fill="white"/>
    </g>
    <g opacity="0.05">
        <path d="M328.166 311.738V328.739C328.166 329.89 327.236 330.82 326.085 330.82H309.084C307.703 330.82 306.712 329.5 307.076 328.167C309.525 319.225 316.567 312.184 325.509 309.734C326.842 309.37 328.162 310.357 328.162 311.742L328.166 311.738Z" fill="white"/>
        <path d="M357.935 342.19C355.481 351.106 348.456 358.122 339.54 360.576C338.207 360.944 336.883 359.953 336.883 358.568V341.614C336.883 340.463 337.813 339.533 338.965 339.533H355.926C357.311 339.533 358.298 340.857 357.935 342.19Z" fill="white"/>
        <path d="M355.928 330.82H344.662C341.255 330.82 337.992 332.171 335.586 334.581L334.988 335.179L332.521 337.646L331.924 338.243C329.518 340.649 328.163 343.917 328.163 347.319V358.576C328.163 359.961 326.839 360.944 325.501 360.58C321.619 359.52 318.096 357.594 315.157 355.006C314.278 354.248 313.447 353.417 312.69 352.539C310.093 349.6 308.158 346.077 307.089 342.199C306.722 340.861 307.704 339.533 309.093 339.533H320.381C323.787 339.533 327.051 338.182 329.457 335.772L333.119 332.11C335.525 329.704 336.88 326.436 336.88 323.034V311.738C336.88 310.353 338.208 309.366 339.546 309.734C343.428 310.803 346.955 312.746 349.894 315.334C350.773 316.092 351.595 316.923 352.361 317.801C354.941 320.744 356.871 324.267 357.936 328.154C358.299 329.491 357.317 330.816 355.932 330.816L355.928 330.82Z" fill="white"/>
    </g>
    <rect x="-26" y="0.1875" width="413" height="458" fill="url(#paint0_linear_2437_59383)"/>
    <defs>
        <linearGradient id="paint0_linear_2437_59383" x1="181" y1="0.1875" x2="181" y2="344.187" gradientUnits="userSpaceOnUse">
            <stop stop-color="#077BF8"/>
            <stop offset="1" stop-color="#077BF8" stop-opacity="0"/>
        </linearGradient>
    </defs>
</svg>
