<svg width="32" height="32" viewBox="0 0 32 32" fill="none" xmlns="http://www.w3.org/2000/svg">
<rect width="32" height="32" rx="16" fill="#077BF8"/>
<path d="M14.5513 8.125H8.95259C8.28778 8.12497 7.71483 8.12494 7.25612 8.18661C6.76448 8.25271 6.29322 8.40177 5.91097 8.78402C5.52872 9.16626 5.37967 9.63753 5.31357 10.1292C5.25189 10.5879 5.25192 11.1608 5.25195 11.8256L5.25195 18.9245C5.25192 19.5893 5.25189 20.1621 5.31357 20.6209C5.37967 21.1125 5.52872 21.5838 5.91097 21.966C6.23851 22.2935 6.62567 22.4493 7.04373 22.5292C7.16167 22.5518 7.22065 22.563 7.25773 22.5287C7.29481 22.4943 7.28752 22.4298 7.27294 22.3009C7.25714 22.1611 7.24902 22.019 7.24902 21.875C7.24902 19.8039 8.92796 18.125 10.999 18.125C13.0701 18.125 14.749 19.8039 14.749 21.875C14.749 21.882 14.749 21.889 14.749 21.896C14.747 22.2641 14.7459 22.4481 14.8339 22.5366C14.9219 22.625 15.0839 22.625 15.408 22.625L16.59 22.625C16.9141 22.625 17.0762 22.625 17.1641 22.5366C17.2521 22.4481 17.2511 22.2641 17.2491 21.896C17.249 21.889 17.249 21.882 17.249 21.875C17.249 19.8039 18.928 18.125 20.999 18.125C23.0701 18.125 24.749 19.8039 24.749 21.875C24.749 22.0274 24.7399 22.1776 24.7223 22.3252C24.7056 22.4642 24.8171 22.5903 24.9557 22.5709C25.4376 22.5035 25.888 22.317 26.2148 21.9473C26.5326 21.5879 26.6507 21.1605 26.7029 20.7295C26.7408 20.4171 26.7494 20.0459 26.7514 19.625H25.752C25.3377 19.625 25.002 19.2892 25.002 18.875C25.002 18.4608 25.3377 18.125 25.752 18.125H26.7328C26.7076 17.7363 26.6491 17.395 26.4802 17.0508C26.1837 16.446 25.6483 16.0794 24.9752 15.6184C24.2792 15.1415 23.719 14.5545 23.2651 13.8427L23.247 13.8144C22.8919 13.2578 22.5988 12.7983 22.3235 12.4418C22.035 12.0684 21.732 11.7613 21.3356 11.5369C20.9366 11.311 20.5222 11.2135 20.0625 11.168C19.8941 11.1513 19.752 11.287 19.752 11.4562V14.875C19.752 15.2892 19.4162 15.625 19.002 15.625C18.5877 15.625 18.252 15.2892 18.252 14.875V11.125H18.2489C18.2435 10.7516 18.2292 10.4178 18.1904 10.1292C18.1243 9.63753 17.9752 9.16626 17.593 8.78402C17.2107 8.40177 16.7394 8.25271 16.2478 8.18661C15.7891 8.12494 15.2161 8.12497 14.5513 8.125Z" fill="#FAFCFF"/>
<path d="M26.7514 19.625H25.752C25.3377 19.625 25.002 19.2892 25.002 18.875C25.002 18.4608 25.3377 18.125 25.752 18.125H26.7328L26.7514 19.625Z" fill="#000D1C"/>
<path fill-rule="evenodd" clip-rule="evenodd" d="M12.002 11.125C12.4162 11.125 12.752 11.4608 12.752 11.875V13.125L14.002 13.125C14.4162 13.125 14.752 13.4608 14.752 13.875C14.752 14.2892 14.4162 14.625 14.002 14.625L12.752 14.625L12.752 15.875C12.752 16.2892 12.4162 16.625 12.002 16.625C11.5877 16.625 11.252 16.2892 11.252 15.875L11.252 14.625H10.002C9.58774 14.625 9.25195 14.2892 9.25195 13.875C9.25195 13.4608 9.58774 13.125 10.002 13.125H11.252V11.875C11.252 11.4608 11.5877 11.125 12.002 11.125Z" fill="#000D1C"/>
<circle cx="21" cy="21.875" r="2.5" fill="#000D1C"/>
<circle cx="11" cy="21.875" r="2.5" fill="#000D1C"/>
</svg>
