<svg width="44" height="44" viewBox="0 0 44 44" fill="none" xmlns="http://www.w3.org/2000/svg">
<path d="M0 22C0 9.84974 9.84974 0 22 0C34.1503 0 44 9.84974 44 22C44 34.1503 34.1503 44 22 44C9.84974 44 0 34.1503 0 22Z" fill="#077BF8" fill-opacity="0.05"/>
<path d="M26.7502 13.56V12C26.7502 11.59 26.4102 11.25 26.0002 11.25C25.5902 11.25 25.2502 11.59 25.2502 12V13.5H18.7502V12C18.7502 11.59 18.4102 11.25 18.0002 11.25C17.5902 11.25 17.2502 11.59 17.2502 12V13.56C14.5502 13.81 13.2402 15.42 13.0402 17.81C13.0202 18.1 13.2602 18.34 13.5402 18.34H30.4602C30.7502 18.34 30.9902 18.09 30.9602 17.81C30.7602 15.42 29.4502 13.81 26.7502 13.56Z" fill="#000D1C"/>
<path d="M30 19.8401C30.55 19.8401 31 20.2901 31 20.8401V27.0001C31 30.0001 29.5 32.0001 26 32.0001H18C14.5 32.0001 13 30.0001 13 27.0001V20.8401C13 20.2901 13.45 19.8401 14 19.8401H30Z" fill="#077BF8"/>
<path d="M24.8399 24.9899L24.3399 25.4999H24.3299L21.2999 28.5299C21.1699 28.6599 20.8999 28.7999 20.7099 28.8199L19.3599 29.0199C18.8699 29.0899 18.53 28.7399 18.6 28.2599L18.79 26.8999C18.82 26.7099 18.9499 26.4499 19.0799 26.3099L22.1199 23.2799L22.6199 22.7699C22.9499 22.4399 23.3199 22.2 23.7199 22.2C24.0599 22.2 24.4299 22.3599 24.8399 22.7699C25.7399 23.6699 25.4499 24.3799 24.8399 24.9899Z" fill="#000D1C"/>
</svg>
