<svg width="32" height="32" viewBox="0 0 32 32" fill="none" xmlns="http://www.w3.org/2000/svg">
    <rect width="32" height="32" rx="16" fill="#077BF8" fill-opacity="0.1"/>
    <path d="M10.3808 15.6683C10.5423 17.0026 11.3646 18.3812 12.4182 19.5029C13.478 20.6314 14.8474 21.5813 16.2194 22.0111C16.3238 22.0481 16.3761 22.0666 16.4017 22.0909C16.4532 22.1397 16.4682 22.2091 16.4415 22.2748C16.4281 22.3075 16.3876 22.3465 16.3065 22.4245C16.0404 22.6803 15.7012 23.0173 15.5559 23.1628C14.8178 23.8835 14.2389 24.4488 13.3683 24.533C12.7322 24.5945 12.0339 24.3678 11.3989 24.0401C10.7479 23.7041 10.087 23.2224 9.50164 22.673C8.91674 22.124 8.388 21.4894 8.01563 20.8362C7.64934 20.1937 7.39885 19.4703 7.47051 18.7674C7.51755 18.306 7.70159 17.9374 7.97213 17.5866C8.21981 17.2655 8.56546 16.9288 8.96522 16.5395L9.99529 15.5359C10.0684 15.4647 10.1049 15.4291 10.1352 15.4168C10.2124 15.3855 10.2985 15.4145 10.3411 15.4861C10.3578 15.5142 10.3655 15.5656 10.3808 15.6683Z" fill="#000D1C"/>
    <path d="M19.6055 7.72978C21.3078 8.25406 22.8462 9.47803 23.905 10.9133C24.6176 11.8792 24.7157 13.0924 24.2784 14.1127C24.2323 14.2204 24.2092 14.2743 24.1572 14.3141C24.1053 14.3539 24.04 14.3632 23.9095 14.3818C22.5198 14.5803 21.7556 14.8407 21.5273 14.9519C20.5983 15.4043 20.017 16.2413 20.017 17.3334C20.017 17.6786 20.2968 17.9584 20.642 17.9584C20.9871 17.9584 21.267 17.6786 21.267 17.3334C21.267 16.7603 21.5376 16.345 22.053 16.0863C22.4613 15.8815 22.9472 15.8162 23.3942 15.7327C23.5429 15.7049 23.6173 15.691 23.6893 15.7239C23.7613 15.7568 23.7964 15.817 23.8666 15.9372C24.8525 17.6268 24.0051 19.9823 21.8566 20.5054L19.1722 21.1591C18.7197 21.2692 18.4935 21.3243 18.2571 21.3141C17.7077 21.2903 17.1389 21.0093 16.6251 20.8272C16.6174 20.8245 16.6097 20.8219 16.6019 20.8195C15.4779 20.4698 14.2806 19.659 13.3286 18.6454C12.3699 17.6246 11.7353 16.4796 11.6203 15.5093C11.6195 15.5029 11.6186 15.4964 11.6177 15.49C11.5525 15.0568 11.4538 14.2517 11.4074 13.4842C11.3869 13.1455 11.4556 12.8085 11.5923 12.498C12.2202 11.071 13.1586 9.82475 14.3336 8.81152C15.9792 7.39253 17.8771 7.19744 19.6055 7.72978Z" fill="#077BF8"/>
</svg>
