<svg width="32" height="32" viewBox="0 0 32 32" fill="none" xmlns="http://www.w3.org/2000/svg">
    <rect width="32" height="32" rx="16" fill="#077BF8" fill-opacity="0.1"/>
    <path d="M16.407 10.3287C15.5376 10.3287 14.7936 10.8712 14.502 11.6372C14.4226 11.8459 14.2601 12.0128 14.0529 12.0985C13.8457 12.1841 13.6121 12.1809 13.4074 12.0896C13.2053 11.9996 12.9808 11.9491 12.7423 11.9491C11.8427 11.9491 11.1135 12.6745 11.1135 13.5694L11.1137 13.5967C11.1204 14.0012 11.2752 14.3684 11.528 14.6494C11.828 14.9829 11.7995 15.495 11.4643 15.7934C11.1292 16.0919 10.6143 16.0635 10.3144 15.7301C9.98075 15.3593 9.73134 14.9107 9.59694 14.4152C9.06476 14.5465 8.67029 15.0248 8.67029 15.5948C8.67029 16.266 9.21722 16.8101 9.89188 16.8101H12.7712C12.7485 17.1305 12.766 17.9031 13.0168 18.4305H9.89188C8.31766 18.4305 7.0415 17.1609 7.0415 15.5948C7.0415 14.1326 8.15411 12.9288 9.58311 12.7757C9.93895 11.3696 11.2184 10.3287 12.7423 10.3287C12.941 10.3287 13.1359 10.3465 13.3253 10.3806C13.9772 9.37517 15.1132 8.70837 16.407 8.70837C17.3256 8.70837 18.1657 9.04526 18.8083 9.60004C18.0071 9.74007 17.254 10.1978 16.9775 10.4092C16.7965 10.3568 16.6051 10.3287 16.407 10.3287Z" fill="#077BF8"/>
    <path d="M16.9778 10.4095C17.2542 10.1982 18.0074 9.74045 18.8086 9.60041C19.0862 9.54688 19.3725 9.51892 19.6648 9.51892C22.1386 9.51892 24.144 11.5139 24.144 13.9749C24.144 14.3613 24.0944 14.737 24.0009 15.0956C24.5876 15.6145 24.9584 16.3715 24.9584 17.2156C24.9584 18.7816 23.6822 20.0512 22.108 20.0512C21.6915 20.0512 21.4032 20.465 21.5495 20.853L22.0562 22.1972C22.2141 22.6162 22.0007 23.0832 21.5796 23.2403C21.1584 23.3974 20.689 23.1851 20.5311 22.7662L20.0244 21.4219C19.4788 19.9747 20.5543 18.4308 22.108 18.4308C22.7827 18.4308 23.3296 17.8867 23.3296 17.2156C23.3296 16.7446 23.0605 16.3348 22.6632 16.1326C22.4975 16.0482 22.3096 16.0003 22.108 16.0003C21.518 16.0003 21.024 16.4173 20.9109 16.9716C20.8214 17.4101 20.3915 17.6935 19.9508 17.6045C19.51 17.5154 19.2252 17.0878 19.3146 16.6493C19.5788 15.3547 20.7281 14.38 22.108 14.38C22.2349 14.38 22.3601 14.3883 22.4829 14.4043C22.5042 14.2645 22.5152 14.1211 22.5152 13.9749C22.5152 12.4088 21.2391 11.1393 19.6648 11.1393C19.3643 11.1393 19.0762 11.1853 18.8062 11.27C17.9541 11.5373 17.2733 12.1941 16.9764 13.0296C16.9053 13.2297 16.8562 13.4403 16.8319 13.6588C16.7825 14.1035 16.38 14.4242 15.933 14.3751C15.4859 14.3259 15.1636 13.9255 15.213 13.4808C15.2511 13.1374 15.3285 12.8055 15.4408 12.4896C15.7379 11.6533 16.2783 10.932 16.9778 10.4095Z" fill="#000D1C"/>
    <path d="M13.8819 14.9475C13.2939 15.387 12.8809 16.05 12.7714 16.8105C12.7488 17.1309 12.7662 17.9035 13.0171 18.4308C13.4745 19.3888 14.4553 20.0512 15.5929 20.0512C15.8177 20.0272 16.3116 20.0666 16.4882 20.4161L17.7148 22.844C17.916 23.2442 18.4052 23.4064 18.8075 23.2063C19.2097 23.0062 19.3728 22.5196 19.1717 22.1194L17.849 19.5256C17.453 18.9267 16.8114 18.5323 16.0959 18.4478L15.5929 18.4308C15.0028 18.4308 14.5088 18.0138 14.3957 17.4595C14.3798 17.3813 14.3713 17.2999 14.3713 17.2156C14.3713 16.8186 14.5618 16.466 14.8603 16.2429C15.2199 15.9742 15.2924 15.4663 15.0222 15.1086C14.752 14.7508 14.2415 14.6787 13.8819 14.9475Z" fill="#000D1C"/>
</svg>
