<svg width="14" height="14" viewBox="0 0 14 14" fill="none" xmlns="http://www.w3.org/2000/svg">
<path d="M2.0415 6.125C1.79988 6.125 1.604 6.32088 1.604 6.5625L1.604 7.90629C1.604 8.9797 1.60399 9.82746 1.68817 10.4904C1.77445 11.1699 1.95588 11.7213 2.36889 12.1586C2.78523 12.5995 3.31585 12.7964 3.96919 12.8894C4.60011 12.9792 5.40488 12.9792 6.41449 12.9792H7.58518C8.59479 12.9792 9.39956 12.9792 10.0305 12.8894C10.6838 12.7964 11.2144 12.5995 11.6308 12.1586C12.0438 11.7213 12.2252 11.1699 12.3115 10.4904C12.3957 9.82746 12.3957 8.9797 12.3957 7.90629V6.5625C12.3957 6.32088 12.1998 6.125 11.9582 6.125H2.0415Z" fill="#D0D5DD"/>
<path d="M1.97093 3.39503C2.13599 3.35378 2.32877 3.35395 2.55985 3.35415H11.4387C11.6698 3.35395 11.8625 3.35378 12.0276 3.39503C12.4996 3.513 12.886 3.88251 12.9663 4.37568C12.9941 4.54623 12.9674 4.73658 12.9393 4.93656C12.8726 5.4167 12.8362 5.92378 12.6504 6.37615C12.2604 7.32543 11.3806 8.01306 10.3307 8.23546C10.0248 8.30027 9.68163 8.31062 9.17036 8.31223C9.05368 8.3126 8.99534 8.31279 8.96104 8.27855C8.92673 8.24431 8.92679 8.18329 8.92692 8.06125C8.92704 7.95342 8.92428 7.84546 8.92431 7.73811C8.9249 7.60525 8.92575 7.41256 8.87848 7.23613C8.75442 6.77313 8.39277 6.41149 7.92978 6.28743C7.75315 6.2401 7.56948 6.24117 7.38808 6.24171H6.6103C6.4289 6.24117 6.24523 6.2401 6.06861 6.28743C5.60561 6.41149 5.24397 6.77313 5.11991 7.23613C5.07263 7.41256 5.07349 7.60525 5.07407 7.73811C5.0741 7.84546 5.07135 7.95342 5.07146 8.06125C5.07159 8.18329 5.07166 8.24431 5.03735 8.27855C5.00304 8.31279 4.94471 8.3126 4.82803 8.31223C4.31683 8.31062 3.9737 8.30026 3.66781 8.23546C2.61792 8.01306 1.7381 7.32543 1.34814 6.37615C1.1623 5.92378 1.12595 5.41669 1.05922 4.93656C1.03116 4.73657 1.00445 4.54623 1.03223 4.37568C1.11254 3.88251 1.49897 3.513 1.97093 3.39503Z" fill="#1D2939"/>
<path fill-rule="evenodd" clip-rule="evenodd" d="M6.9002 0.875006C6.96623 0.875022 7.03237 0.875022 7.09824 0.875006C7.41924 0.87493 7.72983 0.874857 7.99131 0.920347C8.29948 0.97396 8.58335 1.09613 8.82292 1.35924C9.04345 1.60146 9.16933 1.90152 9.26765 2.22357C9.36416 2.5397 9.45258 2.94396 9.56032 3.43652L9.61075 3.66702L8.47103 3.91634L8.42596 3.71029C8.31154 3.18725 8.23285 2.82964 8.15182 2.56423C8.07101 2.29953 8.00707 2.1961 7.96026 2.14469C7.93248 2.11419 7.90512 2.08954 7.79135 2.06975C7.64155 2.04369 7.43423 2.04168 7.05892 2.04168H6.93952C6.56421 2.04168 6.35689 2.04369 6.20709 2.06975C6.09332 2.08954 6.06596 2.11419 6.03818 2.14469C5.99138 2.1961 5.92743 2.29953 5.84662 2.56423C5.76559 2.82964 5.6869 3.18725 5.57248 3.71029L5.52741 3.91634L4.3877 3.66702L4.43812 3.43653C4.54586 2.94396 4.63428 2.5397 4.73079 2.22357C4.82911 1.90152 4.95499 1.60146 5.17552 1.35924C5.41509 1.09613 5.69896 0.97396 6.00713 0.920347C6.26861 0.874857 6.5792 0.87493 6.9002 0.875006Z" fill="#1D2939"/>
<path d="M5.8335 7.77778C5.8335 7.59695 5.8335 7.50654 5.85337 7.43236C5.90731 7.23105 6.06455 7.07382 6.26585 7.01988C6.34003 7 6.43045 7 6.61127 7H7.38905C7.56988 7 7.66029 7 7.73447 7.01988C7.93578 7.07382 8.09301 7.23105 8.14695 7.43236C8.16683 7.50654 8.16683 7.59695 8.16683 7.77778V8.16667C8.16683 8.811 7.6445 9.33333 7.00016 9.33333C6.35583 9.33333 5.8335 8.811 5.8335 8.16667V7.77778Z" fill="#1D2939"/>
</svg>
