<svg width="36" height="36" viewBox="0 0 36 36" fill="none" xmlns="http://www.w3.org/2000/svg">
<path d="M0.5 18C0.5 8.33502 8.33502 0.5 18 0.5C27.665 0.5 35.5 8.33502 35.5 18C35.5 27.665 27.665 35.5 18 35.5C8.33502 35.5 0.5 27.665 0.5 18Z" fill="white"/>
<path d="M0.5 18C0.5 8.33502 8.33502 0.5 18 0.5C27.665 0.5 35.5 8.33502 35.5 18C35.5 27.665 27.665 35.5 18 35.5C8.33502 35.5 0.5 27.665 0.5 18Z" stroke="#EAECF0"/>
<path fill-rule="evenodd" clip-rule="evenodd" d="M24.5699 11.43C24.9767 11.8368 24.9767 12.4963 24.5699 12.9031L12.9032 24.5698C12.4964 24.9766 11.8369 24.9766 11.4301 24.5698C11.0233 24.163 11.0233 23.5034 11.4301 23.0966L23.0968 11.43C23.5036 11.0232 24.1631 11.0232 24.5699 11.43Z" fill="#1D2939"/>
<path fill-rule="evenodd" clip-rule="evenodd" d="M11.4301 11.43C11.8369 11.0232 12.4964 11.0232 12.9032 11.43L24.5699 23.0966C24.9767 23.5034 24.9767 24.163 24.5699 24.5698C24.1631 24.9766 23.5036 24.9766 23.0968 24.5698L11.4301 12.9031C11.0233 12.4963 11.0233 11.8368 11.4301 11.43Z" fill="#1D2939"/>
</svg>
