<svg width="14" height="14" viewBox="0 0 14 14" fill="none" xmlns="http://www.w3.org/2000/svg">
<g clip-path="url(#clip0_2131_21197)">
<path fill-rule="evenodd" clip-rule="evenodd" d="M4.08376 12.3958C3.0188 12.3958 2.06266 12.1853 1.35223 11.8535C1.13331 11.7513 0.872948 11.8459 0.7707 12.0648C0.668451 12.2837 0.763035 12.5441 0.981959 12.6463C1.82617 13.0406 2.91214 13.2708 4.08376 13.2708C5.25538 13.2708 6.34136 13.0406 7.18557 12.6463C7.89599 12.3145 8.85213 12.1041 9.9171 12.1041C10.9821 12.1041 11.9382 12.3145 12.6486 12.6463C12.8675 12.7486 13.1279 12.654 13.2302 12.4351C13.3324 12.2161 13.2378 11.9558 13.0189 11.8535C12.1747 11.4592 11.0887 11.2291 9.9171 11.2291C8.74547 11.2291 7.6595 11.4592 6.81529 11.8535C6.10487 12.1853 5.14872 12.3958 4.08376 12.3958Z" fill="#1D2939"/>
<path d="M6.81527 1.35356C7.65947 0.959275 8.74545 0.729126 9.91707 0.729126C10.5703 0.729126 11.1949 0.800623 11.7647 0.931151L11.7988 0.938934C12.1178 1.01181 12.3777 1.07117 12.6625 1.2965C12.8328 1.4313 13.0222 1.66892 13.1155 1.86507C13.272 2.19376 13.2717 2.51893 13.2713 2.92154V2.92156L13.2712 2.98311L13.2712 9.26681C13.2712 10.181 12.3432 10.7113 11.5694 10.5341C11.0663 10.4188 10.5074 10.3541 9.91707 10.3541C8.85211 10.3541 7.89596 10.5646 7.18554 10.8964C6.34133 11.2906 5.25536 11.5208 4.08374 11.5208C3.4305 11.5208 2.80594 11.4493 2.23606 11.3188L2.20201 11.311C1.88299 11.2381 1.6231 11.1787 1.33834 10.9534C1.16798 10.8186 0.978628 10.581 0.885268 10.3848C0.728823 10.0561 0.729139 9.73098 0.729531 9.32836L0.72957 9.26681L0.72957 2.98311C0.72957 2.06892 1.65766 1.53863 2.43141 1.71585C2.9345 1.83108 3.4934 1.89579 4.08374 1.89579C5.1487 1.89579 6.10484 1.68537 6.81527 1.35356Z" fill="#D0D5DD"/>
<path fill-rule="evenodd" clip-rule="evenodd" d="M3.20817 6.125C3.53034 6.125 3.7915 6.38617 3.7915 6.70833L3.7915 6.71357C3.7915 7.03574 3.53034 7.29691 3.20817 7.29691C2.886 7.29691 2.62484 7.03574 2.62484 6.71357L2.62484 6.70833C2.62484 6.38617 2.886 6.125 3.20817 6.125Z" fill="#1D2939"/>
<path fill-rule="evenodd" clip-rule="evenodd" d="M10.7917 4.95374C11.1138 4.95374 11.375 5.2149 11.375 5.53707L11.375 5.54231C11.375 5.86447 11.1138 6.12564 10.7917 6.12564C10.4695 6.12564 10.2083 5.86447 10.2083 5.54231L10.2083 5.53707C10.2083 5.2149 10.4695 4.95374 10.7917 4.95374Z" fill="#1D2939"/>
<path d="M8.75 6.125C8.75 7.0915 7.9665 7.875 7 7.875C6.0335 7.875 5.25 7.0915 5.25 6.125C5.25 5.1585 6.0335 4.375 7 4.375C7.9665 4.375 8.75 5.1585 8.75 6.125Z" fill="#1D2939"/>
</g>
<defs>
<clipPath id="clip0_2131_21197">
<rect width="14" height="14" fill="white"/>
</clipPath>
</defs>
</svg>
