<svg width="25" height="24" viewBox="0 0 25 24" fill="none" xmlns="http://www.w3.org/2000/svg">
<path d="M16.9167 3.56V2C16.9167 1.59 16.5767 1.25 16.1667 1.25C15.7567 1.25 15.4167 1.59 15.4167 2V3.5H8.91667V2C8.91667 1.59 8.57667 1.25 8.16667 1.25C7.75667 1.25 7.41667 1.59 7.41667 2V3.56C4.71667 3.81 3.40667 5.42 3.20667 7.81C3.18667 8.1 3.42667 8.34 3.70667 8.34H20.6267C20.9167 8.34 21.1567 8.09 21.1267 7.81C20.9267 5.42 19.6167 3.81 16.9167 3.56Z" fill="#4A4E5B"/>
<path d="M20.1667 9.83984C20.7167 9.83984 21.1667 10.2898 21.1667 10.8398V16.9998C21.1667 19.9998 19.6667 21.9998 16.1667 21.9998H8.16667C4.66667 21.9998 3.16667 19.9998 3.16667 16.9998V10.8398C3.16667 10.2898 3.61667 9.83984 4.16667 9.83984H20.1667Z" fill="#BABDCB"/>
<path d="M8.66667 14.9999C8.40667 14.9999 8.14667 14.8899 7.95667 14.7099C7.77667 14.5199 7.66667 14.2599 7.66667 13.9999C7.66667 13.7399 7.77667 13.4799 7.95667 13.2899C8.23667 13.0099 8.67667 12.9199 9.04667 13.0799C9.17667 13.1299 9.28667 13.1999 9.37667 13.2899C9.55667 13.4799 9.66667 13.7399 9.66667 13.9999C9.66667 14.2599 9.55667 14.5199 9.37667 14.7099C9.18667 14.8899 8.92667 14.9999 8.66667 14.9999Z" fill="#4A4E5B"/>
<path d="M12.1667 14.9999C11.9067 14.9999 11.6467 14.8899 11.4567 14.7099C11.2767 14.5199 11.1667 14.2599 11.1667 13.9999C11.1667 13.7399 11.2767 13.4799 11.4567 13.2899C11.5467 13.1999 11.6567 13.1299 11.7867 13.0799C12.1567 12.9199 12.5967 13.0099 12.8767 13.2899C13.0567 13.4799 13.1667 13.7399 13.1667 13.9999C13.1667 14.2599 13.0567 14.5199 12.8767 14.7099C12.8267 14.7499 12.7767 14.7899 12.7267 14.8299C12.6667 14.8699 12.6067 14.8999 12.5467 14.9199C12.4867 14.9499 12.4267 14.9699 12.3667 14.9799C12.2967 14.9899 12.2367 14.9999 12.1667 14.9999Z" fill="#4A4E5B"/>
<path d="M15.6667 15C15.4067 15 15.1467 14.89 14.9567 14.71C14.7767 14.52 14.6667 14.26 14.6667 14C14.6667 13.74 14.7767 13.48 14.9567 13.29C15.0567 13.2 15.1567 13.13 15.2867 13.08C15.4667 13 15.6667 12.98 15.8667 13.02C15.9267 13.03 15.9867 13.05 16.0467 13.08C16.1067 13.1 16.1667 13.13 16.2267 13.17C16.2767 13.21 16.3267 13.25 16.3767 13.29C16.5567 13.48 16.6667 13.74 16.6667 14C16.6667 14.26 16.5567 14.52 16.3767 14.71C16.3267 14.75 16.2767 14.79 16.2267 14.83C16.1667 14.87 16.1067 14.9 16.0467 14.92C15.9867 14.95 15.9267 14.97 15.8667 14.98C15.7967 14.99 15.7267 15 15.6667 15Z" fill="#4A4E5B"/>
<path d="M8.66667 18.5C8.53667 18.5 8.40667 18.47 8.28667 18.42C8.15667 18.37 8.05667 18.3 7.95667 18.21C7.77667 18.02 7.66667 17.76 7.66667 17.5C7.66667 17.24 7.77667 16.98 7.95667 16.79C8.05667 16.7 8.15667 16.63 8.28667 16.58C8.46667 16.5 8.66667 16.48 8.86667 16.52C8.92667 16.53 8.98667 16.55 9.04667 16.58C9.10667 16.6 9.16667 16.63 9.22667 16.67C9.27667 16.71 9.32667 16.75 9.37667 16.79C9.55667 16.98 9.66667 17.24 9.66667 17.5C9.66667 17.76 9.55667 18.02 9.37667 18.21C9.32667 18.25 9.27667 18.3 9.22667 18.33C9.16667 18.37 9.10667 18.4 9.04667 18.42C8.98667 18.45 8.92667 18.47 8.86667 18.48C8.79667 18.49 8.73667 18.5 8.66667 18.5Z" fill="#4A4E5B"/>
<path d="M12.1667 18.5002C11.9067 18.5002 11.6467 18.3902 11.4567 18.2102C11.2767 18.0202 11.1667 17.7602 11.1667 17.5002C11.1667 17.2402 11.2767 16.9802 11.4567 16.7902C11.8267 16.4202 12.5067 16.4202 12.8767 16.7902C13.0567 16.9802 13.1667 17.2402 13.1667 17.5002C13.1667 17.7602 13.0567 18.0202 12.8767 18.2102C12.6867 18.3902 12.4267 18.5002 12.1667 18.5002Z" fill="#4A4E5B"/>
<path d="M15.6667 18.5002C15.4067 18.5002 15.1467 18.3902 14.9567 18.2102C14.7767 18.0202 14.6667 17.7602 14.6667 17.5002C14.6667 17.2402 14.7767 16.9802 14.9567 16.7902C15.3267 16.4202 16.0067 16.4202 16.3767 16.7902C16.5567 16.9802 16.6667 17.2402 16.6667 17.5002C16.6667 17.7602 16.5567 18.0202 16.3767 18.2102C16.1867 18.3902 15.9267 18.5002 15.6667 18.5002Z" fill="#4A4E5B"/>
</svg>
