<svg width="20" height="20" viewBox="0 0 20 20" fill="none" xmlns="http://www.w3.org/2000/svg">
<path d="M9.97122 1.04163H10.0236C10.527 1.04162 10.9437 1.04161 11.2878 1.07092C11.6484 1.10163 11.9743 1.1672 12.2886 1.32281C12.8485 1.60003 13.2025 2.0406 13.451 2.48246C13.6436 2.82499 13.7932 3.20981 13.92 3.53594C13.9499 3.6129 13.9785 3.68659 14.0062 3.7557L14.1282 4.06065C14.189 4.21276 14.2194 4.28881 14.2828 4.33178C14.3461 4.37475 14.4283 4.37488 14.5925 4.37514C15.3296 4.37629 15.8839 4.38472 16.3242 4.44539C16.8935 4.52384 17.3052 4.69239 17.7331 5.02073C17.9498 5.18699 18.1437 5.38092 18.31 5.59758C18.6657 6.06115 18.8164 6.60159 18.8872 7.23014C18.9558 7.83805 18.9557 8.60029 18.9557 9.54563V13.379C18.9557 14.5187 18.9558 15.4373 18.8586 16.1598C18.7578 16.9098 18.542 17.5414 18.0404 18.043C17.5388 18.5446 16.9073 18.7603 16.1572 18.8612C15.4347 18.9583 14.5161 18.9583 13.3765 18.9583H6.61834C5.47868 18.9583 4.56008 18.9583 3.83761 18.8612C3.08752 18.7603 2.45595 18.5446 1.95436 18.043C1.45276 17.5414 1.23701 16.9098 1.13617 16.1598C1.03903 15.4373 1.03905 14.5187 1.03906 13.379V9.54561C1.03905 8.60028 1.03904 7.83805 1.10758 7.23014C1.17844 6.60159 1.32913 6.06115 1.68484 5.59758C1.85109 5.38092 2.04502 5.18699 2.26169 5.02073C2.68959 4.69239 3.10128 4.52384 3.67061 4.44539C4.11094 4.38472 4.6652 4.37629 5.40233 4.37514C5.56654 4.37488 5.64865 4.37475 5.71202 4.33178C5.77538 4.28881 5.8058 4.21276 5.86664 4.06065L5.98862 3.7557C6.01627 3.6866 6.04491 3.61291 6.07481 3.53596C6.20158 3.20982 6.35115 2.82499 6.54379 2.48246C6.79229 2.0406 7.14628 1.60003 7.70622 1.32281C8.02052 1.1672 8.34638 1.10163 8.707 1.07092C9.0511 1.04161 9.46782 1.04162 9.97122 1.04163Z" fill="#D0D5DD"/>
<path d="M6.66406 11.6667C6.66406 9.82576 8.15645 8.33337 9.9974 8.33337C11.8383 8.33337 13.3307 9.82576 13.3307 11.6667C13.3307 13.5077 11.8383 15 9.9974 15C8.15645 15 6.66406 13.5077 6.66406 11.6667Z" fill="#1D2939"/>
<path fill-rule="evenodd" clip-rule="evenodd" d="M9.16406 4.99996C9.16406 4.53972 9.53549 4.16663 9.99367 4.16663C10.4502 4.16663 10.8307 4.54147 10.8307 4.99996C10.8307 5.4602 10.4593 5.83329 10.0011 5.83329C9.54462 5.83329 9.16406 5.45845 9.16406 4.99996Z" fill="#1D2939"/>
</svg>
