<svg width="28" height="28" viewBox="0 0 28 28" fill="none" xmlns="http://www.w3.org/2000/svg">
    <path d="M25.6667 10.5V19.2033C25.6667 21.875 23.4967 24.0333 20.825 24.0333H7.17504C4.50337 24.0333 2.33337 21.875 2.33337 19.2033V10.5H25.6667Z" fill="#D0D5DD"/>
    <path d="M25.6667 8.7968V10.5001H2.33337V8.7968C2.33337 6.12513 4.50337 3.9668 7.17504 3.9668H20.825C23.4967 3.9668 25.6667 6.12513 25.6667 8.7968Z" fill="#667085"/>
    <path d="M9.33333 20.125H7C6.52167 20.125 6.125 19.7283 6.125 19.25C6.125 18.7717 6.52167 18.375 7 18.375H9.33333C9.81167 18.375 10.2083 18.7717 10.2083 19.25C10.2083 19.7283 9.81167 20.125 9.33333 20.125Z" fill="#667085"/>
    <path d="M16.9167 20.125H12.25C11.7717 20.125 11.375 19.7283 11.375 19.25C11.375 18.7717 11.7717 18.375 12.25 18.375H16.9167C17.395 18.375 17.7917 18.7717 17.7917 19.25C17.7917 19.7283 17.395 20.125 16.9167 20.125Z" fill="#667085"/>
</svg>
