<svg width="220" height="215" viewBox="0 0 220 215" fill="none" xmlns="http://www.w3.org/2000/svg">
    <path d="M1.77868 167.723C1.44092 167.496 1.17818 167.175 1.02394 166.798C0.869692 166.422 0.830919 166.009 0.912556 165.61L21.6644 73.7661C21.9141 72.878 22.4777 72.1107 23.2503 71.6067L146.731 0.327136C147.109 0.127471 147.528 0.0197021 147.955 0.0125841C148.382 0.00546615 148.805 0.0992004 149.189 0.286171C149.522 0.514027 149.78 0.834903 149.931 1.20862C150.081 1.58233 150.119 1.99227 150.038 2.3871L129.28 94.2312C129.03 95.1207 128.464 95.8885 127.688 96.3907L4.23659 167.67C3.85992 167.872 3.44102 167.982 3.01394 167.991C2.58685 168 2.16364 167.908 1.77868 167.723Z" fill="#F0F0F0"/>
    <path d="M24.0405 75.1233L3.2887 167.003C3.11313 167.787 3.53449 168.103 4.23675 167.699L127.718 96.4194C128.493 95.9172 129.059 95.1494 129.31 94.26L150.038 2.38658C150.214 1.59653 149.792 1.28637 149.09 1.69017L25.6089 72.9697C24.8443 73.4758 24.2876 74.2403 24.0405 75.1233Z" fill="#E6E6E6"/>
    <path d="M151.542 1.64372C151.157 1.45765 150.734 1.36492 150.307 1.37305C149.88 1.38119 149.461 1.48996 149.084 1.69054L25.6028 72.9701C25.2446 73.202 24.9566 73.5273 24.7699 73.911C24.5832 74.2947 24.5049 74.7222 24.5435 75.1471L40.7951 188.908C40.8743 189.339 41.0389 189.75 41.2791 190.117C41.5192 190.483 41.8302 190.799 42.1937 191.044C42.5768 191.231 42.999 191.325 43.4254 191.316C43.8518 191.308 44.2701 191.199 44.6458 190.997L168.103 119.735C168.463 119.503 168.751 119.176 168.938 118.791C169.125 118.407 169.202 117.978 169.163 117.552L152.964 3.77977C152.882 3.34659 152.714 2.93428 152.47 2.56733C152.225 2.20038 151.91 1.88629 151.542 1.64372Z" fill="#F0F0F0"/>
    <path d="M26.9429 76.5223L43.171 190.283C43.1742 190.452 43.2243 190.618 43.3158 190.761C43.4073 190.904 43.5365 191.018 43.6893 191.092C43.842 191.166 44.0122 191.197 44.181 191.18C44.3498 191.163 44.5107 191.1 44.6457 190.997L168.103 119.735C168.462 119.502 168.751 119.176 168.938 118.791C169.125 118.407 169.202 117.978 169.163 117.552L152.964 3.77973C152.962 3.60959 152.912 3.4434 152.821 3.29966C152.73 3.15593 152.601 3.0403 152.448 2.96566C152.295 2.89103 152.124 2.86032 151.955 2.87696C151.786 2.8936 151.624 2.95694 151.489 3.05991L28.008 74.3395C27.6478 74.5711 27.358 74.8971 27.1702 75.282C26.9824 75.6668 26.9038 76.0959 26.9429 76.5223Z" fill="#FAFAFA"/>
    <path d="M3.39978 166.488L35.0016 148.235L35.9203 154.848L21.4303 163.216C21.4303 163.216 17.5679 164.586 16.0346 164.972C14.5014 165.358 3.39978 166.488 3.39978 166.488Z" fill="#E0E0E0"/>
    <path d="M35.9378 154.854L40.678 188.094L21.4478 163.222L35.9378 154.854Z" fill="#E6E6E6"/>
    <path d="M40.1106 189.2L22.876 166.816C22.5898 166.482 22.2282 166.221 21.821 166.055C21.4139 165.89 20.973 165.823 20.5351 165.862L4.41818 168.203C3.51056 168.3 2.59417 168.133 1.77885 167.723C1.1234 167.348 1.23459 166.915 2.02464 166.763L20.5468 163.199C20.9811 163.134 21.4249 163.182 21.835 163.339C22.2452 163.496 22.6078 163.756 22.8877 164.095L42.51 190.546C42.9899 191.196 42.8494 191.413 42.194 191.032C41.404 190.54 40.7001 189.921 40.1106 189.2Z" fill="#E0E0E0"/>
    <path d="M150.067 1.93623C150.065 1.60649 149.982 1.28235 149.824 0.992474C149.667 0.702597 149.441 0.455907 149.166 0.274214C148.781 0.0899521 148.358 -0.00177246 147.931 0.00635616C147.505 0.0144848 147.086 0.122243 146.708 0.321033L23.227 71.6006C22.8505 71.8365 22.5227 72.1425 22.2614 72.5018C21.9713 72.8756 21.7585 73.3033 21.6352 73.76L18.7091 86.7343L21.0851 88.0979L147.112 15.3553L150.038 2.38685C150.066 2.23834 150.077 2.08726 150.073 1.93623H150.067Z" fill="#98A2B3"/>
    <path opacity="0.2" d="M150.038 2.38658C150.214 1.59653 149.792 1.28637 149.09 1.69017L25.609 72.9697C24.8378 73.4727 24.2745 74.2376 24.023 75.1233L21.0969 88.0976L147.112 15.355L150.038 2.38658Z" fill="#191919"/>
    <path opacity="0.1" d="M24.6607 73.8714C24.3701 74.2418 24.159 74.6681 24.0404 75.1237L21.1143 88.098L18.7383 86.7286L21.6644 73.7543C21.7877 73.2976 22.0005 72.8699 22.2906 72.4961L24.6607 73.8714Z" fill="#191919"/>
    <path opacity="0.4" d="M150.067 1.93038C150.009 1.49146 149.628 1.34516 149.084 1.69044L25.6032 72.9641C25.224 73.199 24.8957 73.5074 24.6376 73.8712L22.2616 72.496C22.5229 72.1366 22.8507 71.8307 23.2272 71.5947L146.708 0.315173C147.086 0.116383 147.505 0.00862539 147.932 0.000496771C148.358 -0.00763185 148.781 0.0840949 149.166 0.268357C149.441 0.45005 149.668 0.696739 149.825 0.986617C149.982 1.27649 150.065 1.60063 150.067 1.93038Z" fill="white"/>
    <path d="M153.087 4.86828L152.964 3.77977C152.955 3.72652 152.943 3.67377 152.929 3.62176C152.931 3.60626 152.931 3.59045 152.929 3.57494C152.73 2.78744 152.249 2.1003 151.577 1.64372C151.193 1.45765 150.77 1.36492 150.343 1.37305C149.915 1.38119 149.496 1.48996 149.119 1.69054L25.6382 72.9701C25.2644 73.2016 24.9688 73.5401 24.7896 73.9416C24.6068 74.3154 24.5337 74.7334 24.5789 75.1471L26.9198 91.4454L29.2958 92.8207L155.264 20.0839L153.087 4.86828Z" fill="#98A2B3"/>
    <path opacity="0.1" d="M29.2723 92.8147L26.8964 91.4394L24.5555 75.1411C24.5103 74.7274 24.5834 74.3094 24.7662 73.9355L27.148 75.305C26.961 75.6775 26.8858 76.0962 26.9315 76.5105L29.2723 92.8147Z" fill="#191919"/>
    <path opacity="0.4" d="M152.894 3.57494C152.86 3.42751 152.79 3.29088 152.69 3.17762C152.59 3.06436 152.463 2.97811 152.321 2.92682C152.179 2.87553 152.026 2.86084 151.876 2.8841C151.727 2.90737 151.586 2.96784 151.466 3.05995L27.985 74.3395C27.6098 74.5693 27.3137 74.9083 27.1364 75.311L24.8014 73.9416C24.982 73.5394 25.2771 73.1995 25.65 72.9642L149.131 1.69054C149.508 1.48996 149.927 1.38119 150.354 1.37305C150.781 1.36492 151.204 1.45765 151.589 1.64372C152.245 2.10695 152.709 2.7937 152.894 3.57494Z" fill="white"/>
    <path d="M62.0503 171.433L60.5756 161.069C60.5735 160.934 60.5344 160.802 60.4625 160.688C60.3907 160.573 60.2888 160.481 60.1681 160.421C60.0473 160.36 59.9124 160.334 59.7778 160.345C59.6433 160.356 59.5144 160.404 59.4052 160.483L48.643 166.698C48.353 166.884 48.1202 167.146 47.9704 167.456C47.8206 167.766 47.7597 168.112 47.7944 168.454L49.2633 178.842C49.2633 178.978 49.3012 179.111 49.3726 179.226C49.444 179.342 49.5462 179.435 49.6677 179.496C49.7892 179.557 49.9253 179.582 50.0606 179.57C50.1959 179.558 50.3251 179.508 50.4338 179.427L61.1959 173.212C61.4913 173.026 61.7282 172.76 61.8794 172.445C62.0305 172.131 62.0898 171.78 62.0503 171.433Z" fill="#98A2B3"/>
    <path d="M78.6939 161.835L77.2133 151.477C77.2133 151.341 77.1755 151.208 77.1041 151.093C77.0326 150.977 76.9305 150.884 76.809 150.823C76.6874 150.762 76.5514 150.736 76.4161 150.749C76.2808 150.761 76.1516 150.81 76.0429 150.892L65.2807 157.101C64.9912 157.287 64.7588 157.549 64.609 157.859C64.4593 158.169 64.3981 158.514 64.4322 158.857L65.9128 169.221C65.9128 169.357 65.9506 169.49 66.022 169.606C66.0934 169.721 66.1956 169.814 66.3171 169.875C66.4387 169.936 66.5747 169.962 66.71 169.95C66.8453 169.937 66.9745 169.888 67.0832 169.806L77.8454 163.591C78.1358 163.406 78.3691 163.144 78.5189 162.834C78.6688 162.524 78.7294 162.178 78.6939 161.835Z" fill="#EBEBEB"/>
    <path d="M95.3374 152.238L93.8568 141.879C93.8568 141.744 93.8189 141.61 93.7475 141.495C93.6761 141.379 93.5739 141.286 93.4524 141.225C93.3309 141.164 93.1948 141.139 93.0595 141.151C92.9242 141.163 92.795 141.213 92.6863 141.294L81.9183 147.515C81.6288 147.701 81.3963 147.964 81.2466 148.273C81.0968 148.583 81.0356 148.928 81.0697 149.271L82.5503 159.635C82.5503 159.771 82.5882 159.904 82.6596 160.02C82.731 160.135 82.8332 160.229 82.9547 160.289C83.0762 160.35 83.2123 160.376 83.3476 160.364C83.4829 160.351 83.6121 160.302 83.7208 160.22L94.4829 154.005C94.7764 153.82 95.012 153.556 95.1631 153.244C95.3141 152.931 95.3745 152.583 95.3374 152.238Z" fill="#EBEBEB"/>
    <path d="M111.999 142.646L110.518 132.282C110.518 132.146 110.48 132.013 110.409 131.897C110.338 131.782 110.235 131.688 110.114 131.628C109.992 131.567 109.856 131.541 109.721 131.553C109.586 131.565 109.457 131.615 109.348 131.697L98.5389 137.923C98.2484 138.108 98.0152 138.371 97.8653 138.681C97.7154 138.991 97.6548 139.336 97.6903 139.679L99.1709 150.037C99.1709 150.173 99.2087 150.306 99.2801 150.422C99.3516 150.537 99.4538 150.631 99.5753 150.692C99.6968 150.752 99.8328 150.778 99.9681 150.766C100.103 150.754 100.233 150.704 100.341 150.623L111.103 144.413C111.404 144.233 111.647 143.971 111.805 143.658C111.963 143.346 112.031 142.995 111.999 142.646Z" fill="#EBEBEB"/>
    <path d="M128.625 133.048L127.144 122.661C127.144 122.525 127.106 122.392 127.035 122.276C126.963 122.161 126.861 122.067 126.74 122.006C126.618 121.946 126.482 121.92 126.347 121.932C126.211 121.944 126.082 121.994 125.973 122.075L115.211 128.291C114.921 128.476 114.688 128.738 114.538 129.048C114.388 129.358 114.327 129.704 114.363 130.046L115.843 140.405C115.843 140.54 115.881 140.674 115.953 140.789C116.024 140.905 116.126 140.998 116.248 141.059C116.369 141.12 116.505 141.145 116.641 141.133C116.776 141.121 116.905 141.071 117.014 140.99L127.799 134.792C128.083 134.604 128.309 134.342 128.455 134.035C128.6 133.728 128.659 133.387 128.625 133.048Z" fill="#EBEBEB"/>
    <path d="M145.268 123.451L143.788 113.087C143.788 112.951 143.75 112.818 143.678 112.702C143.607 112.587 143.505 112.493 143.383 112.433C143.262 112.372 143.126 112.346 142.99 112.358C142.855 112.371 142.726 112.42 142.617 112.502L131.855 118.717C131.565 118.902 131.331 119.164 131.182 119.474C131.032 119.784 130.971 120.13 131.007 120.472L132.481 130.854C132.481 130.99 132.519 131.123 132.591 131.239C132.662 131.354 132.764 131.448 132.886 131.509C133.007 131.569 133.143 131.595 133.279 131.583C133.414 131.571 133.543 131.521 133.652 131.439L144.414 125.224C144.708 125.038 144.944 124.773 145.095 124.46C145.246 124.147 145.306 123.797 145.268 123.451Z" fill="#EBEBEB"/>
    <path d="M161.912 113.883L160.431 103.519C160.431 103.383 160.393 103.25 160.322 103.134C160.251 103.018 160.148 102.925 160.027 102.864C159.905 102.804 159.769 102.778 159.634 102.79C159.499 102.802 159.37 102.852 159.261 102.933L148.499 109.148C148.209 109.334 147.976 109.596 147.826 109.906C147.676 110.216 147.615 110.562 147.65 110.904L149.125 121.268C149.127 121.403 149.166 121.535 149.238 121.649C149.31 121.764 149.412 121.856 149.532 121.916C149.653 121.977 149.788 122.003 149.923 121.992C150.057 121.981 150.186 121.933 150.295 121.854L161.057 115.639C161.349 115.454 161.583 115.192 161.733 114.882C161.884 114.572 161.946 114.226 161.912 113.883Z" fill="#EBEBEB"/>
    <path d="M59.1592 151.155L57.6786 140.803C57.6765 140.668 57.6374 140.536 57.5655 140.421C57.4937 140.307 57.3918 140.215 57.2711 140.154C57.1504 140.094 57.0154 140.068 56.8809 140.079C56.7463 140.09 56.6174 140.138 56.5082 140.217L45.746 146.432C45.456 146.618 45.2232 146.88 45.0734 147.19C44.9236 147.5 44.8627 147.845 44.8975 148.188L46.3722 158.552C46.3743 158.687 46.4134 158.819 46.4853 158.933C46.5572 159.047 46.659 159.14 46.7797 159.2C46.9005 159.261 47.0355 159.287 47.17 159.276C47.3045 159.264 47.4334 159.217 47.5427 159.137L58.3048 152.922C58.5959 152.735 58.8296 152.471 58.9803 152.159C59.1311 151.847 59.193 151.5 59.1592 151.155Z" fill="#98A2B3"/>
    <path d="M75.803 141.558L74.3224 131.194C74.3203 131.059 74.2812 130.927 74.2093 130.813C74.1375 130.698 74.0356 130.606 73.9149 130.546C73.7942 130.485 73.6592 130.459 73.5247 130.47C73.3901 130.481 73.2612 130.529 73.152 130.608L62.3898 136.823C62.0998 137.009 61.867 137.271 61.7172 137.581C61.5674 137.891 61.5065 138.237 61.5413 138.579L63.016 148.943C63.0181 149.078 63.0572 149.21 63.1291 149.324C63.201 149.439 63.3028 149.531 63.4235 149.591C63.5443 149.652 63.6793 149.678 63.8138 149.667C63.9483 149.656 64.0772 149.608 64.1865 149.529L74.9486 143.313C75.2378 143.127 75.4703 142.864 75.6209 142.555C75.7716 142.245 75.8345 141.901 75.803 141.558Z" fill="#EBEBEB"/>
    <path d="M92.4463 131.96L90.9657 121.595C90.9636 121.461 90.9245 121.329 90.8526 121.214C90.7808 121.1 90.6789 121.008 90.5582 120.947C90.4375 120.887 90.3025 120.861 90.168 120.872C90.0334 120.883 89.9045 120.931 89.7953 121.01L79.0331 127.225C78.7432 127.411 78.5103 127.673 78.3605 127.983C78.2107 128.293 78.1498 128.638 78.1846 128.981L79.6593 139.345C79.6614 139.48 79.7006 139.612 79.7724 139.726C79.8443 139.84 79.9461 139.933 80.0668 139.993C80.1876 140.054 80.3226 140.08 80.4571 140.069C80.5916 140.057 80.7205 140.01 80.8298 139.93L91.5919 133.715C91.8811 133.529 92.1136 133.266 92.2642 132.957C92.4149 132.647 92.4778 132.302 92.4463 131.96Z" fill="#EBEBEB"/>
    <path d="M109.072 122.363L107.592 111.998C107.59 111.863 107.551 111.732 107.479 111.617C107.407 111.503 107.305 111.411 107.184 111.35C107.064 111.29 106.929 111.264 106.794 111.275C106.66 111.286 106.531 111.334 106.421 111.413L95.671 117.64C95.3815 117.826 95.149 118.088 94.9993 118.398C94.8495 118.708 94.7883 119.053 94.8224 119.395L96.2972 129.76C96.2993 129.895 96.3384 130.026 96.4103 130.141C96.4821 130.255 96.584 130.347 96.7047 130.408C96.8254 130.468 96.9604 130.494 97.0949 130.483C97.2295 130.472 97.3584 130.424 97.4676 130.345L108.23 124.13C108.519 123.941 108.751 123.676 108.9 123.365C109.048 123.053 109.108 122.706 109.072 122.363Z" fill="#EBEBEB"/>
    <path d="M125.734 112.765L124.253 102.407C124.253 102.271 124.215 102.138 124.144 102.022C124.073 101.907 123.97 101.813 123.849 101.753C123.727 101.692 123.591 101.666 123.456 101.678C123.321 101.69 123.191 101.74 123.083 101.822L112.315 108.031C112.025 108.217 111.793 108.479 111.643 108.789C111.493 109.099 111.432 109.444 111.466 109.786L112.941 120.151C112.943 120.286 112.982 120.417 113.054 120.532C113.126 120.646 113.228 120.738 113.349 120.799C113.469 120.859 113.604 120.885 113.739 120.874C113.873 120.863 114.002 120.815 114.111 120.736L124.874 114.509C125.162 114.325 125.395 114.065 125.547 113.757C125.699 113.45 125.763 113.107 125.734 112.765Z" fill="#EBEBEB"/>
    <path d="M142.378 103.168L140.897 92.815C140.897 92.6792 140.859 92.546 140.788 92.4304C140.716 92.3149 140.614 92.2215 140.493 92.1607C140.371 92.1 140.235 92.0743 140.1 92.0865C139.964 92.0987 139.835 92.1483 139.727 92.2298L128.97 98.4507C128.68 98.6357 128.447 98.8979 128.297 99.208C128.147 99.5181 128.086 99.8638 128.122 100.206L129.596 110.565C129.599 110.7 129.638 110.831 129.71 110.946C129.781 111.06 129.883 111.152 130.004 111.213C130.125 111.273 130.26 111.299 130.394 111.288C130.529 111.277 130.658 111.229 130.767 111.15L141.529 104.935C141.819 104.747 142.052 104.483 142.202 104.171C142.352 103.859 142.413 103.512 142.378 103.168Z" fill="#EBEBEB"/>
    <path d="M159.021 93.5757L157.54 83.2115C157.54 83.0757 157.502 82.9425 157.431 82.8269C157.36 82.7114 157.257 82.618 157.136 82.5572C157.014 82.4965 156.878 82.4707 156.743 82.4829C156.608 82.4951 156.479 82.5448 156.37 82.6263L145.602 88.8413C145.313 89.0276 145.081 89.2902 144.933 89.6001C144.784 89.91 144.724 90.255 144.759 90.597L146.234 100.955C146.236 101.09 146.275 101.222 146.347 101.336C146.419 101.451 146.521 101.543 146.641 101.603C146.762 101.664 146.897 101.69 147.032 101.679C147.166 101.668 147.295 101.62 147.404 101.541L158.167 95.3314C158.455 95.1442 158.687 94.8818 158.838 94.5724C158.989 94.263 159.052 93.9184 159.021 93.5757Z" fill="#EBEBEB"/>
    <path d="M56.2626 130.854L54.7879 120.49C54.7858 120.355 54.7466 120.223 54.6748 120.109C54.6029 119.995 54.5011 119.902 54.3803 119.842C54.2596 119.782 54.1246 119.756 53.9901 119.767C53.8556 119.778 53.7267 119.825 53.6174 119.905L42.8436 126.172C42.555 126.359 42.3233 126.622 42.1736 126.932C42.024 127.241 41.9622 127.586 41.995 127.928L43.4756 138.286C43.4756 138.422 43.5134 138.556 43.5849 138.671C43.6563 138.787 43.7585 138.88 43.88 138.941C44.0015 139.002 44.1375 139.027 44.2728 139.015C44.4081 139.003 44.5374 138.953 44.646 138.872L55.4141 132.61C55.7036 132.424 55.936 132.161 56.0858 131.852C56.2355 131.542 56.2967 131.197 56.2626 130.854Z" fill="#98A2B3"/>
    <path d="M72.9062 121.28L71.4314 110.915C71.4293 110.78 71.3902 110.649 71.3184 110.534C71.2465 110.42 71.1447 110.328 71.0239 110.267C70.9032 110.207 70.7682 110.181 70.6337 110.192C70.4991 110.203 70.3702 110.251 70.261 110.33L59.4988 116.545C59.2103 116.732 58.9786 116.995 58.8289 117.304C58.6793 117.614 58.6175 117.958 58.6503 118.301L60.1309 128.665C60.133 128.8 60.1721 128.932 60.244 129.046C60.3158 129.16 60.4177 129.253 60.5384 129.313C60.6591 129.373 60.7941 129.399 60.9286 129.388C61.0632 129.377 61.1921 129.329 61.3013 129.25L72.0635 123.035C72.3524 122.849 72.5841 122.586 72.7328 122.276C72.8816 121.966 72.9416 121.621 72.9062 121.28Z" fill="#EBEBEB"/>
    <path d="M89.5497 111.682L88.0749 101.318C88.0728 101.183 88.0337 101.051 87.9618 100.937C87.89 100.823 87.7881 100.731 87.6674 100.67C87.5467 100.61 87.4117 100.584 87.2772 100.595C87.1426 100.606 87.0137 100.654 86.9045 100.733L76.1423 106.948C75.8542 107.135 75.6229 107.398 75.4733 107.707C75.3237 108.017 75.2617 108.361 75.2938 108.704L76.7744 119.068C76.7765 119.203 76.8156 119.335 76.8875 119.449C76.9593 119.563 77.0612 119.655 77.1819 119.716C77.3026 119.776 77.4376 119.802 77.5721 119.791C77.7067 119.78 77.8356 119.732 77.9448 119.653L88.707 113.438C88.9959 113.252 89.2276 112.989 89.3763 112.679C89.5251 112.369 89.5851 112.024 89.5497 111.682Z" fill="#EBEBEB"/>
    <path d="M106.194 102.085L104.719 91.7205C104.717 91.5855 104.678 91.4537 104.606 91.3395C104.534 91.2252 104.432 91.1328 104.311 91.0725C104.191 91.0121 104.056 90.986 103.921 90.9971C103.787 91.0082 103.658 91.056 103.548 91.1353L92.7863 97.3503C92.4981 97.5377 92.2668 97.8004 92.1172 98.1098C91.9677 98.4193 91.9056 98.7637 91.9377 99.1059L93.4183 109.47C93.4204 109.605 93.4595 109.737 93.5314 109.851C93.6032 109.965 93.7051 110.058 93.8258 110.118C93.9465 110.179 94.0815 110.205 94.2161 110.194C94.3506 110.182 94.4795 110.135 94.5887 110.055L105.351 103.84C105.64 103.654 105.871 103.391 106.02 103.082C106.169 102.772 106.229 102.427 106.194 102.085Z" fill="#EBEBEB"/>
    <path d="M122.837 92.487L121.362 82.1228C121.36 81.9879 121.321 81.8561 121.249 81.7418C121.177 81.6275 121.075 81.5352 120.955 81.4748C120.834 81.4144 120.699 81.3884 120.564 81.3995C120.43 81.4105 120.301 81.4583 120.192 81.5376L109.429 87.7526C109.141 87.94 108.91 88.2027 108.76 88.5121C108.611 88.8216 108.549 89.1661 108.581 89.5083L110.061 99.8725C110.064 100.007 110.103 100.139 110.175 100.254C110.246 100.368 110.348 100.46 110.469 100.52C110.59 100.581 110.725 100.607 110.859 100.596C110.994 100.585 111.123 100.537 111.232 100.458L121.994 94.2427C122.283 94.0564 122.515 93.7938 122.663 93.4839C122.812 93.174 122.872 92.829 122.837 92.487Z" fill="#EBEBEB"/>
    <path d="M139.504 82.8659L138.029 72.5017C138.027 72.3668 137.988 72.235 137.916 72.1207C137.844 72.0064 137.742 71.9141 137.621 71.8537C137.501 71.7934 137.366 71.7673 137.231 71.7784C137.097 71.7894 136.968 71.8372 136.858 71.9165L126.044 78.1842C125.755 78.3716 125.524 78.6343 125.375 78.9437C125.225 79.2532 125.163 79.5977 125.195 79.9399L126.676 90.3041C126.678 90.439 126.717 90.5708 126.789 90.6851C126.861 90.7994 126.962 90.8917 127.083 90.9521C127.204 91.0124 127.339 91.0385 127.473 91.0274C127.608 91.0164 127.737 90.9686 127.846 90.8893L138.632 84.6216C138.926 84.4396 139.164 84.1786 139.318 83.8683C139.473 83.5581 139.537 83.2108 139.504 82.8659Z" fill="#EBEBEB"/>
    <path d="M156.124 73.2917L154.65 62.9334C154.647 62.7984 154.608 62.6666 154.536 62.5523C154.465 62.4381 154.363 62.3457 154.242 62.2854C154.121 62.225 153.986 62.1989 153.852 62.21C153.717 62.2211 153.588 62.2689 153.479 62.3482L142.717 68.5573C142.428 68.7443 142.197 69.0068 142.047 69.3164C141.897 69.626 141.836 69.9707 141.868 70.313L143.349 80.6772C143.351 80.8121 143.39 80.9439 143.462 81.0582C143.534 81.1725 143.636 81.2648 143.757 81.3252C143.877 81.3855 144.012 81.4116 144.147 81.4006C144.281 81.3895 144.41 81.3417 144.519 81.2624L155.305 75.0357C155.588 74.8479 155.814 74.586 155.959 74.2784C156.103 73.9709 156.161 73.6296 156.124 73.2917Z" fill="#EBEBEB"/>
    <path d="M53.3713 110.593L51.8907 100.235C51.8907 100.099 51.8529 99.9659 51.7814 99.8504C51.71 99.7348 51.6078 99.6414 51.4863 99.5807C51.3648 99.5199 51.2288 99.4942 51.0935 99.5064C50.9582 99.5186 50.8289 99.5682 50.7203 99.6497L39.9581 105.859C39.6686 106.045 39.4361 106.307 39.2864 106.617C39.1366 106.927 39.0754 107.272 39.1095 107.615L40.6018 117.979C40.6018 118.115 40.6397 118.248 40.7111 118.363C40.7825 118.479 40.8847 118.572 41.0062 118.633C41.1277 118.694 41.2638 118.72 41.3991 118.707C41.5344 118.695 41.6636 118.645 41.7723 118.564L52.5344 112.349C52.8227 112.162 53.0536 111.9 53.2014 111.59C53.3491 111.28 53.408 110.935 53.3713 110.593Z" fill="#98A2B3"/>
    <path d="M70.0153 101.008L68.5347 90.6495C68.5347 90.5136 68.4968 90.3805 68.4254 90.2649C68.354 90.1493 68.2518 90.0559 68.1303 89.9952C68.0088 89.9344 67.8728 89.9087 67.7375 89.9209C67.6022 89.9331 67.4729 89.9828 67.3642 90.0643L56.6021 96.2793C56.3116 96.4643 56.0784 96.7266 55.9285 97.0366C55.7786 97.3467 55.7181 97.6924 55.7535 98.0349L57.2341 108.393C57.2341 108.529 57.2719 108.662 57.3434 108.778C57.4148 108.893 57.517 108.987 57.6385 109.048C57.76 109.108 57.896 109.134 58.0313 109.122C58.1666 109.11 58.2959 109.06 58.4046 108.979L69.1667 102.764C69.4572 102.578 69.6904 102.316 69.8403 102.006C69.9901 101.696 70.0507 101.35 70.0153 101.008Z" fill="#EBEBEB"/>
    <path d="M86.6585 91.4043L85.1779 81.0401C85.1779 80.9043 85.14 80.7711 85.0686 80.6555C84.9972 80.54 84.895 80.4466 84.7735 80.3858C84.652 80.3251 84.5159 80.2993 84.3806 80.3116C84.2453 80.3238 84.1161 80.3734 84.0074 80.4549L73.2453 86.6699C72.9548 86.8549 72.7216 87.1172 72.5717 87.4273C72.4218 87.7373 72.3612 88.083 72.3967 88.4256L73.8773 98.7839C73.8773 98.9198 73.9151 99.0529 73.9866 99.1685C74.058 99.2841 74.1602 99.3775 74.2817 99.4382C74.4032 99.499 74.5392 99.5247 74.6745 99.5125C74.8098 99.5003 74.9391 99.4507 75.0477 99.3691L85.8099 93.16C86.0994 92.974 86.3319 92.7116 86.4816 92.4017C86.6314 92.0919 86.6926 91.7467 86.6585 91.4043Z" fill="#EBEBEB"/>
    <path d="M103.302 81.8067L101.822 71.4425C101.822 71.3066 101.784 71.1734 101.713 71.0579C101.641 70.9423 101.539 70.8489 101.417 70.7882C101.296 70.7274 101.16 70.7017 101.025 70.7139C100.889 70.7261 100.76 70.7757 100.651 70.8572L89.8892 77.0723C89.5987 77.2573 89.3655 77.5195 89.2156 77.8296C89.0658 78.1397 89.0052 78.4854 89.0406 78.8279L90.5154 89.1921C90.5175 89.3271 90.5566 89.4589 90.6285 89.5732C90.7003 89.6874 90.8022 89.7798 90.9229 89.8401C91.0436 89.9005 91.1786 89.9266 91.3131 89.9155C91.4477 89.9044 91.5766 89.8566 91.6858 89.7773L102.448 83.5623C102.739 83.3771 102.972 83.115 103.123 82.8051C103.274 82.4952 103.336 82.1497 103.302 81.8067Z" fill="#EBEBEB"/>
    <path d="M119.946 72.2095L118.465 61.8453C118.465 61.7094 118.427 61.5763 118.356 61.4607C118.284 61.3451 118.182 61.2517 118.061 61.191C117.939 61.1302 117.803 61.1045 117.668 61.1167C117.533 61.1289 117.403 61.1786 117.295 61.2601L106.533 67.4751C106.242 67.6601 106.009 67.9224 105.859 68.2324C105.709 68.5425 105.648 68.8882 105.684 69.2307L107.159 79.595C107.161 79.7299 107.2 79.8617 107.272 79.976C107.344 80.0902 107.445 80.1826 107.566 80.243C107.687 80.3033 107.822 80.3294 107.956 80.3183C108.091 80.3072 108.22 80.2595 108.329 80.1802L119.091 73.9652C119.382 73.7804 119.616 73.5184 119.767 73.2084C119.918 72.8984 119.98 72.5526 119.946 72.2095Z" fill="#EBEBEB"/>
    <path d="M136.578 62.6114L135.097 52.2471C135.097 52.1113 135.059 51.9781 134.988 51.8626C134.916 51.747 134.814 51.6536 134.693 51.5929C134.571 51.5321 134.435 51.5064 134.3 51.5186C134.165 51.5308 134.035 51.5804 133.927 51.6619L123.164 57.877C122.874 58.0625 122.642 58.3248 122.492 58.6347C122.342 58.9447 122.281 59.2901 122.316 59.6326L123.797 69.991C123.799 70.1259 123.838 70.2577 123.91 70.372C123.981 70.4862 124.083 70.5786 124.204 70.639C124.325 70.6993 124.46 70.7254 124.594 70.7143C124.729 70.7033 124.858 70.6555 124.967 70.5762L135.729 64.3612C136.018 64.1761 136.25 63.9147 136.4 63.6059C136.55 63.2971 136.611 62.9529 136.578 62.6114Z" fill="#EBEBEB"/>
    <path d="M153.233 53.0201L151.752 42.6558C151.752 42.52 151.715 42.3868 151.643 42.2713C151.572 42.1557 151.469 42.0623 151.348 42.0015C151.226 41.9408 151.09 41.9151 150.955 41.9273C150.82 41.9395 150.691 41.9891 150.582 42.0706L139.82 48.2856C139.53 48.4712 139.297 48.7335 139.147 49.0434C138.997 49.3534 138.936 49.6988 138.971 50.0413L140.446 60.4055C140.448 60.5405 140.487 60.6723 140.559 60.7865C140.631 60.9008 140.733 60.9931 140.853 61.0535C140.974 61.1139 141.109 61.1399 141.244 61.1289C141.378 61.1178 141.507 61.07 141.616 60.9907L152.379 54.7757C152.67 54.5909 152.904 54.3289 153.054 54.0189C153.205 53.7089 153.267 53.3631 153.233 53.0201Z" fill="#EBEBEB"/>
    <path d="M50.814 92.2766L50.4395 89.6314C50.4395 89.4956 50.4016 89.3624 50.3302 89.2468C50.2588 89.1313 50.1566 89.0379 50.0351 88.9771C49.9136 88.9164 49.7776 88.8907 49.6423 88.9029C49.507 88.9151 49.3777 88.9647 49.269 89.0462L38.501 95.2729C38.211 95.4584 37.9782 95.7208 37.8284 96.0307C37.6786 96.3407 37.6177 96.6861 37.6525 97.0286L38.0211 99.6738C38.0233 99.8087 38.0624 99.9405 38.1342 100.055C38.2061 100.169 38.3079 100.261 38.4287 100.322C38.5494 100.382 38.6844 100.408 38.8189 100.397C38.9534 100.386 39.0823 100.338 39.1916 100.259L49.9655 94.0206C50.2521 93.8346 50.4827 93.5739 50.6322 93.2666C50.7817 92.9593 50.8446 92.617 50.814 92.2766Z" fill="#E6E6E6"/>
    <path d="M67.4579 82.6789L67.0834 80.0338C67.0834 79.8979 67.0456 79.7647 66.9742 79.6492C66.9027 79.5336 66.8005 79.4402 66.679 79.3795C66.5575 79.3187 66.4215 79.293 66.2862 79.3052C66.1509 79.3174 66.0217 79.367 65.913 79.4486L55.145 85.6753C54.855 85.8608 54.6221 86.1231 54.4723 86.4331C54.3225 86.743 54.2616 87.0884 54.2964 87.4309L54.6651 90.0761C54.6672 90.2111 54.7063 90.3429 54.7782 90.4571C54.85 90.5714 54.9519 90.6638 55.0726 90.7241C55.1933 90.7845 55.3283 90.8105 55.4628 90.7995C55.5974 90.7884 55.7263 90.7406 55.8355 90.6613L66.6035 84.4463C66.8951 84.2592 67.1292 83.995 67.28 83.6831C67.4307 83.3712 67.4923 83.0237 67.4579 82.6789Z" fill="#E6E6E6"/>
    <path d="M84.1013 73.081L83.7267 70.4358C83.7246 70.3008 83.6855 70.169 83.6136 70.0548C83.5418 69.9405 83.4399 69.8482 83.3192 69.7878C83.1985 69.7274 83.0635 69.7014 82.929 69.7124C82.7944 69.7235 82.6655 69.7713 82.5563 69.8506L71.7883 76.0773C71.4983 76.2628 71.2654 76.5252 71.1156 76.8351C70.9658 77.1451 70.9049 77.4905 70.9397 77.833L71.3084 80.4782C71.3084 80.614 71.3462 80.7472 71.4176 80.8627C71.4891 80.9783 71.5913 81.0717 71.7128 81.1324C71.8343 81.1932 71.9703 81.2189 72.1056 81.2067C72.2409 81.1945 72.3701 81.1449 72.4788 81.0634L83.2468 74.8484C83.5384 74.6612 83.7725 74.3971 83.9233 74.0852C84.0741 73.7733 84.1357 73.4257 84.1013 73.081Z" fill="#E6E6E6"/>
    <path d="M100.745 63.4897L100.371 60.8386C100.368 60.7037 100.329 60.5719 100.257 60.4576C100.186 60.3434 100.084 60.251 99.963 60.1906C99.8423 60.1303 99.7073 60.1042 99.5728 60.1153C99.4382 60.1263 99.3093 60.1741 99.2001 60.2534L88.4321 66.4801C88.1421 66.6657 87.9092 66.928 87.7594 67.2379C87.6096 67.5479 87.5487 67.8933 87.5835 68.2358L87.9522 70.881C87.9522 71.0168 87.99 71.15 88.0614 71.2656C88.1329 71.3811 88.2351 71.4745 88.3566 71.5353C88.4781 71.596 88.6141 71.6218 88.7494 71.6096C88.8847 71.5974 89.0139 71.5477 89.1226 71.4662L99.8906 65.257C100.181 65.0689 100.415 64.8046 100.565 64.493C100.716 64.1813 100.778 63.8343 100.745 63.4897Z" fill="#E6E6E6"/>
    <path d="M117.389 53.892L117.014 51.241C117.012 51.106 116.973 50.9742 116.901 50.86C116.829 50.7457 116.727 50.6533 116.607 50.593C116.486 50.5326 116.351 50.5066 116.216 50.5176C116.082 50.5287 115.953 50.5765 115.844 50.6558L105.076 56.8825C104.786 57.0685 104.554 57.3309 104.404 57.6407C104.254 57.9505 104.193 58.2957 104.227 58.6381L104.596 61.2833C104.596 61.4192 104.634 61.5523 104.705 61.6679C104.776 61.7835 104.879 61.8769 105 61.9376C105.122 61.9984 105.258 62.0241 105.393 62.0119C105.528 61.9997 105.658 61.9501 105.766 61.8685L116.534 55.6594C116.825 55.4713 117.058 55.207 117.209 54.8953C117.36 54.5837 117.422 54.2366 117.389 53.892Z" fill="#E6E6E6"/>
    <path d="M134.032 44.2942L133.657 41.649C133.657 41.5132 133.619 41.38 133.548 41.2644C133.477 41.1489 133.374 41.0555 133.253 40.9947C133.131 40.934 132.995 40.9082 132.86 40.9204C132.725 40.9326 132.596 40.9823 132.487 41.0638L121.719 47.2847C121.429 47.4707 121.197 47.7331 121.047 48.0429C120.897 48.3527 120.836 48.6979 120.87 49.0403L121.239 51.6913C121.241 51.8263 121.28 51.9581 121.352 52.0724C121.424 52.1866 121.526 52.279 121.646 52.3393C121.767 52.3997 121.902 52.4258 122.037 52.4147C122.171 52.4036 122.3 52.3559 122.409 52.2766L133.177 46.0615C133.468 45.8739 133.702 45.6097 133.853 45.2979C134.004 44.9861 134.066 44.6388 134.032 44.2942Z" fill="#E6E6E6"/>
    <path d="M150.67 34.6965L150.301 32.0513C150.301 31.9155 150.263 31.7823 150.192 31.6668C150.12 31.5512 150.018 31.4578 149.897 31.3971C149.775 31.3363 149.639 31.3106 149.504 31.3228C149.369 31.335 149.239 31.3846 149.131 31.4661L138.369 37.6811C138.078 37.8662 137.845 38.1284 137.695 38.4385C137.545 38.7486 137.485 39.0942 137.52 39.4368L137.889 42.082C137.891 42.2169 137.93 42.3487 138.002 42.463C138.074 42.5773 138.175 42.6696 138.296 42.73C138.417 42.7904 138.552 42.8164 138.686 42.8053C138.821 42.7943 138.95 42.7465 139.059 42.6672L149.827 36.4522C150.116 36.2654 150.347 36.0027 150.496 35.693C150.644 35.3832 150.705 35.0384 150.67 34.6965Z" fill="#E6E6E6"/>
    <path opacity="0.2" d="M38.261 76.6512C38.2081 75.878 38.3677 75.105 38.7225 74.4159C39.0774 73.7268 39.614 73.148 40.2742 72.742C41.5851 71.987 42.8082 72.5079 43.013 73.9124C43.0673 74.6865 42.9077 75.4606 42.5516 76.1501C42.1955 76.8396 41.6566 77.4178 40.994 77.8217C39.689 78.5766 38.4658 78.0557 38.261 76.6512Z" fill="#191919"/>
    <path opacity="0.2" d="M54.9225 67.0651C54.8683 66.2917 55.0273 65.5182 55.3822 64.8289C55.7372 64.1396 56.2745 63.5609 56.9356 63.1559C58.2465 62.3951 59.4696 62.9159 59.6745 64.3263C59.7283 65.0995 59.5685 65.8727 59.2124 66.5612C58.8563 67.2496 58.3176 67.8269 57.6555 68.2297C56.3446 68.9612 55.1215 68.4404 54.9225 67.0651Z" fill="#191919"/>
    <path opacity="0.2" d="M71.5486 57.4382C71.4943 56.6648 71.6534 55.8913 72.0083 55.202C72.3633 54.5127 72.9006 53.934 73.5617 53.5289C74.8726 52.7681 76.1016 53.289 76.3006 54.6994C76.3544 55.4719 76.1951 56.2444 75.8401 56.9327C75.4851 57.621 74.9481 58.1987 74.2874 58.6028C72.9765 59.3577 71.7476 58.8369 71.5486 57.4382Z" fill="#191919"/>
    <path opacity="0.2" d="M104.824 38.2254C104.769 37.452 104.929 36.6785 105.283 35.9892C105.638 35.2999 106.176 34.7212 106.837 34.3162C108.148 33.5612 109.371 34.0821 109.57 35.4866C109.627 36.2604 109.469 37.0349 109.114 37.7247C108.758 38.4145 108.22 38.9928 107.557 39.3959C106.246 40.1449 105.023 39.63 104.824 38.2254Z" fill="#191919"/>
    <path opacity="0.2" d="M121.479 28.6164C121.423 27.8428 121.582 27.0688 121.937 26.3793C122.292 25.6897 122.83 25.1112 123.492 24.7071C124.803 23.9464 126.026 24.4672 126.231 25.8776C126.285 26.6517 126.126 27.4258 125.769 28.1153C125.413 28.8048 124.874 29.383 124.212 29.7868C122.901 30.5359 121.678 30.0151 121.479 28.6164Z" fill="#191919"/>
    <path opacity="0.2" d="M138.105 19.0129C138.051 18.2395 138.21 17.466 138.565 16.7767C138.92 16.0874 139.457 15.5087 140.118 15.1036C141.429 14.3428 142.658 14.8637 142.857 16.2741C142.911 17.0466 142.752 17.8191 142.397 18.5074C142.042 19.1957 141.505 19.7734 140.844 20.1775C139.504 20.9324 138.333 20.4116 138.105 19.0129Z" fill="#191919"/>
    <path d="M36.5404 60.8383C34.7848 59.8142 33.0643 59.6679 31.7534 60.4228C30.4425 61.1777 29.7168 62.7227 29.7168 64.7768C29.7282 65.7376 29.87 66.6924 30.1382 67.6151L31.1798 67.0299C30.9928 66.2972 30.8946 65.5447 30.8872 64.7885C30.8872 63.1733 31.4022 61.9853 32.3386 61.4469C32.7227 61.2324 33.1569 61.1234 33.5968 61.1309C34.4268 61.1705 35.2328 61.4224 35.9377 61.8624C39.051 63.6649 41.585 68.054 41.585 71.6473C41.5868 71.9034 41.5731 72.1594 41.5441 72.4139C41.5297 72.9235 41.395 73.4225 41.1509 73.87C40.9068 74.3175 40.5602 74.7009 40.1395 74.9889C39.603 75.2786 38.984 75.3777 38.3839 75.2698C38.2657 75.6481 38.2162 76.0445 38.2376 76.4402C38.4563 76.475 38.6774 76.4926 38.8989 76.4929C39.5434 76.5009 40.1782 76.3351 40.7365 76.013C41.2589 75.6853 41.7018 75.2453 42.0328 74.725C42.3639 74.2047 42.5747 73.6171 42.6501 73.005C42.729 72.5607 42.7681 72.1102 42.7672 71.659C42.773 67.6502 39.9757 62.8222 36.5404 60.8383Z" fill="#F5F5F5"/>
    <path d="M53.1957 51.2289C51.4401 50.2048 49.7195 50.0585 48.4086 50.8134C47.0977 51.5683 46.3721 53.1133 46.3721 55.1674C46.3835 56.1282 46.5252 57.0831 46.7934 58.0058L47.8351 57.4205C47.6481 56.6878 47.5499 55.9353 47.5425 55.1791C47.5425 53.5639 48.0575 52.376 48.9938 51.8375C49.378 51.623 49.8121 51.514 50.2521 51.5215C51.0821 51.5611 51.8881 51.813 52.5929 52.2531C55.7063 54.0555 58.2403 58.4447 58.2403 62.0379C58.242 62.294 58.2284 62.55 58.1993 62.8045C58.185 63.3141 58.0503 63.8131 57.8062 64.2606C57.562 64.7081 57.2155 65.0916 56.7948 65.3795C56.2583 65.6693 55.6393 65.7683 55.0391 65.6604C54.921 66.0387 54.8714 66.4351 54.8928 66.8308C55.1116 66.8656 55.3327 66.8832 55.5541 66.8835C56.1987 66.8915 56.8334 66.7258 57.3917 66.4036C57.9142 66.076 58.3571 65.636 58.6881 65.1156C59.0191 64.5953 59.23 64.0077 59.3054 63.3956C59.3842 62.9513 59.4234 62.5009 59.4224 62.0496C59.4283 58.0584 56.6309 53.2128 53.1957 51.2289Z" fill="#F5F5F5"/>
    <path d="M69.8219 41.6254C68.0663 40.6013 66.3457 40.455 65.0348 41.2099C63.724 41.9648 62.9983 43.5098 62.9983 45.5639C63.0097 46.5247 63.1515 47.4795 63.4196 48.4022L64.4613 47.817C64.2743 47.0843 64.1761 46.3318 64.1687 45.5756C64.1687 43.9604 64.6837 42.7724 65.6201 42.234C66.0042 42.0195 66.4383 41.9105 66.8783 41.918C67.7083 41.9576 68.5143 42.2095 69.2192 42.6495C72.3325 44.452 74.8665 48.8411 74.8665 52.4344C74.8682 52.6905 74.8546 52.9465 74.8255 53.201C74.8112 53.7106 74.6765 54.2096 74.4324 54.6571C74.1883 55.1046 73.8417 55.488 73.421 55.776C72.8845 56.0658 72.2655 56.1648 71.6654 56.0569C71.5472 56.4352 71.4977 56.8316 71.5191 57.2273C71.7378 57.2621 71.9589 57.2797 72.1804 57.28C72.8249 57.288 73.4597 57.1223 74.0179 56.8001C74.5404 56.4725 74.9833 56.0325 75.3143 55.5121C75.6454 54.9918 75.8562 54.4042 75.9316 53.7921C76.0105 53.3478 76.0496 52.8973 76.0487 52.4461C76.0545 48.4549 73.2572 43.6093 69.8219 41.6254Z" fill="#F5F5F5"/>
    <path d="M103.103 22.4423C101.348 21.4182 99.6271 21.2719 98.3162 22.0268C97.0053 22.7817 96.2797 24.3267 96.2797 26.3808C96.2911 27.3416 96.4328 28.2964 96.701 29.2191L97.7427 28.6339C97.5557 27.9012 97.4575 27.1487 97.4501 26.3925C97.4501 24.7773 97.9651 23.5893 98.9014 23.0509C99.2856 22.8364 99.7197 22.7274 100.16 22.7349C100.99 22.7745 101.796 23.0264 102.501 23.4664C105.614 25.2689 108.148 29.658 108.148 33.2513C108.15 33.5074 108.136 33.7634 108.107 34.0179C108.093 34.5275 107.958 35.0265 107.714 35.474C107.47 35.9215 107.123 36.3049 106.702 36.5929C106.166 36.8826 105.547 36.9817 104.947 36.8738C104.829 37.2521 104.779 37.6485 104.8 38.0442C105.019 38.079 105.24 38.0966 105.462 38.0969C106.106 38.1049 106.741 37.9391 107.299 37.617C107.822 37.2894 108.265 36.8493 108.596 36.329C108.927 35.8087 109.138 35.2211 109.213 34.609C109.292 34.1647 109.331 33.7142 109.33 33.263C109.336 29.2718 106.539 24.4262 103.103 22.4423Z" fill="#F5F5F5"/>
    <path d="M119.759 12.8271C118.003 11.8029 116.282 11.6566 114.971 12.4116C113.661 13.1665 112.935 14.7115 112.935 16.7656C112.946 17.7264 113.088 18.6812 113.356 19.6039L114.398 19.0187C114.211 18.286 114.113 17.5334 114.105 16.7773C114.105 15.1621 114.62 13.9741 115.557 13.4357C115.941 13.2212 116.375 13.1121 116.815 13.1197C117.645 13.1593 118.451 13.4111 119.156 13.8512C122.269 15.6537 124.803 20.0428 124.803 23.636C124.805 23.8922 124.791 24.1482 124.762 24.4027C124.748 24.9123 124.613 25.4112 124.369 25.8588C124.125 26.3063 123.778 26.6897 123.358 26.9776C122.821 27.2674 122.202 27.3665 121.602 27.2585C121.484 27.6369 121.434 28.0332 121.456 28.429C121.674 28.4637 121.896 28.4813 122.117 28.4817C122.762 28.4897 123.396 28.3239 123.955 28.0018C124.477 27.6741 124.92 27.2341 125.251 26.7138C125.582 26.1934 125.793 25.6058 125.868 24.9938C125.947 24.5494 125.986 24.099 125.985 23.6477C125.991 19.6624 123.194 14.811 119.759 12.8271Z" fill="#F5F5F5"/>
    <path d="M136.385 3.22404C134.629 2.19991 132.909 2.05361 131.598 2.80854C130.287 3.56347 129.555 5.10844 129.555 7.16256C129.567 8.12336 129.709 9.07818 129.977 10.0009L131.018 9.41565C130.831 8.68295 130.733 7.93042 130.726 7.17426C130.726 5.55906 131.241 4.37107 132.177 3.83267C132.561 3.61814 132.995 3.50911 133.435 3.51665C134.265 3.55625 135.071 3.80811 135.776 4.24817C138.89 6.05064 141.424 10.4398 141.424 14.033C141.425 14.2892 141.412 14.5452 141.383 14.7997C141.368 15.3092 141.234 15.8082 140.99 16.2557C140.745 16.7033 140.399 17.0867 139.978 17.3746C139.442 17.6644 138.823 17.7634 138.222 17.6555C138.104 18.0338 138.055 18.4302 138.076 18.826C138.295 18.8607 138.516 18.8783 138.737 18.8786C139.382 18.8867 140.017 18.7209 140.575 18.3987C141.098 18.0711 141.54 17.6311 141.871 17.1107C142.202 16.5904 142.413 16.0028 142.489 15.3907C142.568 14.9464 142.607 14.496 142.606 14.0447C142.617 10.0535 139.82 5.20793 136.385 3.22404Z" fill="#F5F5F5"/>
    <path d="M211.283 103.766L215.207 106.028V112.829L211.283 110.562V103.766Z" fill="#020C0A"/>
    <path d="M208.273 87.3717L195.58 94.6978V80.0267C195.592 79.6709 195.506 79.3186 195.333 79.0076C195.159 78.6967 194.905 78.4387 194.596 78.2613C194.287 78.0838 193.936 77.9936 193.58 78.0003C193.224 78.0071 192.877 78.1104 192.575 78.2993L129.797 114.556C127.369 115.976 126.153 117.788 126.153 119.625V180.808C126.153 182.644 127.369 184.48 129.797 185.881L129.882 185.933C134.738 188.735 142.604 188.735 147.459 185.933L210.223 149.691C210.526 149.491 210.779 149.223 210.96 148.908C211.142 148.593 211.247 148.241 211.269 147.878V87.9018L210.285 87.3339C209.969 87.1835 209.624 87.1087 209.274 87.1153C208.925 87.1218 208.583 87.2096 208.273 87.3717Z" fill="#98A2B3"/>
    <path d="M129.797 124.679C124.96 121.891 124.96 117.324 129.797 114.537L192.575 78.2993C192.886 78.1338 193.231 78.0441 193.583 78.0375C193.936 78.0309 194.284 78.1076 194.601 78.2614C195.14 78.5738 195.112 79.0991 194.535 79.4304L133.512 114.674C132.935 115.01 131.988 115.54 131.454 115.942C128.614 118.067 128.368 120.902 130.805 122.909C131.445 123.398 132.143 123.806 132.883 124.125C136.385 125.588 141.401 125.441 145.126 123.761C145.737 123.486 146.669 122.937 147.246 122.606L208.297 87.3717C208.608 87.2073 208.953 87.1182 209.305 87.1116C209.657 87.1051 210.006 87.1812 210.323 87.3338C210.867 87.6462 210.838 88.1715 210.261 88.5075L147.459 124.75C142.622 127.542 134.719 127.542 129.882 124.75L129.797 124.679Z" fill="#98A2B3"/>
    <path opacity="0.3" d="M129.797 124.679C124.96 121.891 124.96 117.324 129.797 114.537L192.575 78.2993C192.886 78.1338 193.231 78.0441 193.583 78.0375C193.936 78.0309 194.284 78.1076 194.601 78.2614C195.14 78.5738 195.112 79.0991 194.535 79.4304L133.512 114.674C132.935 115.01 131.988 115.54 131.454 115.942C128.614 118.067 128.368 120.902 130.805 122.909C131.445 123.398 132.143 123.806 132.883 124.125C136.385 125.588 141.401 125.441 145.126 123.761C145.737 123.486 146.669 122.937 147.246 122.606L208.297 87.3717C208.608 87.2073 208.953 87.1182 209.305 87.1116C209.657 87.1051 210.006 87.1812 210.323 87.3338C210.867 87.6462 210.838 88.1715 210.261 88.5075L147.459 124.75C142.622 127.542 134.719 127.542 129.882 124.75L129.797 124.679Z" fill="#191919"/>
    <path d="M128.221 128.352C128.164 128.351 128.109 128.331 128.065 128.295C127.757 128.027 127.471 127.736 127.208 127.424C127.168 127.376 127.149 127.313 127.155 127.251C127.16 127.188 127.191 127.131 127.239 127.09C127.287 127.05 127.35 127.031 127.412 127.037C127.475 127.042 127.533 127.073 127.573 127.121C127.819 127.413 128.088 127.685 128.377 127.935C128.424 127.977 128.453 128.036 128.457 128.098C128.462 128.161 128.442 128.223 128.401 128.271C128.378 128.296 128.35 128.316 128.319 128.33C128.288 128.344 128.255 128.351 128.221 128.352Z" fill="#F5F5F5"/>
    <path d="M139.433 131.598C139.371 131.598 139.313 131.575 139.269 131.532C139.224 131.49 139.198 131.432 139.196 131.371C139.195 131.34 139.2 131.308 139.211 131.279C139.222 131.249 139.239 131.222 139.26 131.199C139.282 131.176 139.308 131.158 139.337 131.145C139.365 131.133 139.396 131.126 139.428 131.125C140.22 131.098 141.01 131.027 141.794 130.912C141.825 130.907 141.856 130.909 141.887 130.916C141.917 130.924 141.945 130.937 141.97 130.955C141.995 130.974 142.017 130.997 142.033 131.024C142.049 131.05 142.059 131.08 142.064 131.111C142.072 131.173 142.056 131.236 142.019 131.286C141.982 131.336 141.927 131.37 141.865 131.381C141.068 131.496 140.266 131.569 139.461 131.598H139.433ZM137.066 131.551C136.272 131.49 135.482 131.382 134.7 131.229C134.669 131.224 134.64 131.213 134.614 131.196C134.587 131.179 134.565 131.158 134.547 131.132C134.529 131.106 134.517 131.078 134.511 131.047C134.505 131.017 134.505 130.985 134.511 130.955C134.523 130.893 134.56 130.839 134.612 130.803C134.664 130.768 134.728 130.754 134.79 130.765C135.561 130.916 136.34 131.021 137.123 131.078C137.186 131.078 137.246 131.103 137.29 131.147C137.335 131.191 137.36 131.252 137.36 131.314C137.36 131.377 137.335 131.437 137.29 131.482C137.246 131.526 137.186 131.551 137.123 131.551H137.066ZM144.165 130.884C144.113 130.883 144.063 130.866 144.022 130.834C143.981 130.803 143.952 130.759 143.938 130.709C143.929 130.679 143.927 130.648 143.93 130.618C143.934 130.587 143.943 130.557 143.958 130.531C143.973 130.504 143.993 130.48 144.017 130.461C144.042 130.442 144.069 130.428 144.099 130.42C144.853 130.208 145.591 129.939 146.304 129.615C146.332 129.602 146.363 129.594 146.394 129.593C146.424 129.591 146.455 129.596 146.485 129.606C146.514 129.617 146.54 129.633 146.563 129.654C146.586 129.675 146.604 129.701 146.617 129.729C146.63 129.757 146.638 129.788 146.64 129.819C146.641 129.85 146.637 129.882 146.626 129.911C146.616 129.941 146.599 129.968 146.578 129.991C146.557 130.014 146.532 130.033 146.503 130.046C145.766 130.379 145.005 130.656 144.227 130.874L144.165 130.884ZM132.405 130.628C132.38 130.633 132.354 130.633 132.329 130.628C131.562 130.376 130.818 130.059 130.105 129.682C130.054 129.65 130.017 129.6 130.002 129.542C129.986 129.484 129.993 129.422 130.021 129.37C130.05 129.317 130.097 129.276 130.154 129.257C130.21 129.238 130.272 129.241 130.327 129.265C131.018 129.639 131.738 129.955 132.48 130.212C132.543 130.222 132.599 130.256 132.637 130.308C132.674 130.359 132.689 130.423 132.679 130.486C132.669 130.549 132.635 130.605 132.583 130.642C132.532 130.68 132.467 130.695 132.405 130.685V130.628ZM148.496 128.924C148.444 128.924 148.394 128.906 148.353 128.875C148.312 128.843 148.283 128.799 148.269 128.749C148.256 128.699 148.259 128.646 148.279 128.599C148.298 128.551 148.333 128.511 148.377 128.484L150.445 127.292C150.472 127.272 150.503 127.259 150.535 127.252C150.568 127.245 150.601 127.245 150.633 127.251C150.666 127.258 150.696 127.272 150.723 127.291C150.75 127.311 150.773 127.335 150.789 127.364C150.806 127.393 150.816 127.424 150.82 127.457C150.823 127.49 150.82 127.524 150.81 127.555C150.8 127.587 150.783 127.616 150.761 127.64C150.739 127.665 150.712 127.685 150.682 127.699L148.614 128.891C148.574 128.924 148.523 128.94 148.472 128.939L148.496 128.924ZM152.632 126.558C152.59 126.558 152.549 126.547 152.512 126.527C152.476 126.506 152.445 126.476 152.424 126.44C152.404 126.414 152.39 126.384 152.383 126.352C152.375 126.321 152.375 126.288 152.38 126.256C152.386 126.224 152.398 126.194 152.416 126.167C152.434 126.14 152.458 126.117 152.485 126.099L154.549 124.902C154.603 124.871 154.668 124.863 154.728 124.88C154.788 124.897 154.84 124.937 154.87 124.992C154.886 125.018 154.897 125.048 154.901 125.078C154.906 125.109 154.904 125.14 154.896 125.171C154.888 125.201 154.874 125.229 154.855 125.253C154.836 125.278 154.812 125.298 154.785 125.313L152.722 126.506C152.688 126.527 152.648 126.539 152.608 126.539L152.632 126.558ZM156.763 124.192C156.722 124.192 156.682 124.18 156.646 124.16C156.61 124.139 156.581 124.109 156.56 124.073C156.529 124.019 156.52 123.954 156.536 123.893C156.552 123.832 156.591 123.779 156.645 123.747L158.709 122.554C158.764 122.525 158.829 122.517 158.89 122.534C158.951 122.551 159.003 122.59 159.035 122.644C159.066 122.699 159.074 122.763 159.057 122.824C159.04 122.884 159 122.935 158.945 122.966L156.882 124.159C156.837 124.172 156.789 124.17 156.745 124.154L156.763 124.192ZM160.895 121.825C160.854 121.825 160.813 121.814 160.778 121.793C160.742 121.773 160.712 121.743 160.692 121.707C160.66 121.652 160.652 121.588 160.668 121.526C160.683 121.465 160.723 121.413 160.777 121.381L162.845 120.188C162.872 120.172 162.902 120.162 162.932 120.158C162.963 120.154 162.995 120.156 163.025 120.164C163.055 120.173 163.083 120.187 163.107 120.207C163.132 120.226 163.152 120.25 163.167 120.278C163.198 120.332 163.206 120.396 163.19 120.456C163.174 120.517 163.135 120.568 163.082 120.6L161.004 121.736C160.963 121.758 160.918 121.77 160.871 121.769L160.895 121.825ZM165.027 119.459C164.985 119.46 164.944 119.449 164.908 119.428C164.872 119.408 164.843 119.377 164.823 119.341C164.792 119.287 164.784 119.223 164.8 119.162C164.815 119.102 164.855 119.051 164.908 119.019L166.976 117.826C167.003 117.81 167.033 117.8 167.063 117.795C167.094 117.791 167.125 117.793 167.155 117.801C167.185 117.809 167.213 117.823 167.238 117.842C167.263 117.861 167.283 117.885 167.298 117.912C167.33 117.966 167.338 118.031 167.322 118.092C167.306 118.153 167.267 118.206 167.213 118.238L165.145 119.431C165.093 119.428 165.044 119.41 165.003 119.379L165.027 119.459ZM169.158 117.093C169.107 117.092 169.056 117.075 169.016 117.043C168.975 117.012 168.945 116.968 168.932 116.918C168.919 116.868 168.922 116.815 168.941 116.767C168.961 116.719 168.995 116.679 169.04 116.653L171.108 115.46C171.135 115.444 171.164 115.434 171.195 115.429C171.226 115.425 171.257 115.427 171.287 115.435C171.317 115.443 171.345 115.456 171.37 115.475C171.394 115.494 171.415 115.518 171.43 115.545C171.461 115.6 171.47 115.665 171.454 115.726C171.438 115.787 171.399 115.839 171.345 115.872L169.276 117.064C169.223 117.056 169.173 117.032 169.135 116.993L169.158 117.093ZM173.294 114.727C173.243 114.726 173.193 114.709 173.152 114.677C173.111 114.645 173.082 114.601 173.068 114.551C173.055 114.501 173.058 114.449 173.078 114.401C173.097 114.353 173.132 114.313 173.176 114.286L175.24 113.094C175.293 113.07 175.353 113.066 175.409 113.084C175.465 113.102 175.512 113.14 175.542 113.19C175.571 113.241 175.581 113.301 175.569 113.358C175.556 113.416 175.524 113.466 175.476 113.501L173.413 114.698C173.357 114.684 173.307 114.653 173.271 114.608L173.294 114.727ZM177.426 112.36C177.384 112.36 177.343 112.349 177.307 112.328C177.27 112.307 177.24 112.278 177.218 112.242C177.188 112.187 177.181 112.123 177.198 112.063C177.215 112.003 177.254 111.952 177.308 111.92L179.371 110.727C179.398 110.708 179.428 110.694 179.461 110.687C179.493 110.681 179.527 110.68 179.559 110.687C179.592 110.694 179.622 110.708 179.649 110.727C179.676 110.746 179.698 110.771 179.715 110.8C179.732 110.829 179.742 110.86 179.746 110.893C179.749 110.926 179.746 110.959 179.736 110.991C179.726 111.023 179.709 111.052 179.687 111.076C179.665 111.101 179.638 111.121 179.608 111.134L177.544 112.327C177.515 112.32 177.487 112.308 177.463 112.29C177.438 112.272 177.418 112.249 177.402 112.223L177.426 112.36ZM181.558 109.994C181.506 109.993 181.456 109.976 181.415 109.944C181.374 109.913 181.345 109.869 181.332 109.819C181.318 109.769 181.321 109.716 181.341 109.668C181.36 109.62 181.395 109.58 181.439 109.554L183.503 108.361C183.557 108.33 183.622 108.321 183.683 108.337C183.744 108.353 183.797 108.392 183.829 108.446C183.86 108.501 183.868 108.566 183.851 108.626C183.834 108.686 183.794 108.737 183.739 108.768L181.676 109.961C181.645 109.952 181.616 109.936 181.591 109.915C181.567 109.894 181.547 109.867 181.534 109.838L181.558 109.994ZM185.689 107.628C185.638 107.627 185.587 107.61 185.547 107.578C185.506 107.546 185.476 107.502 185.463 107.452C185.45 107.403 185.453 107.35 185.472 107.302C185.492 107.254 185.526 107.214 185.571 107.187L187.639 105.99C187.694 105.961 187.758 105.954 187.818 105.97C187.878 105.987 187.929 106.026 187.961 106.08C187.977 106.107 187.987 106.136 187.992 106.167C187.996 106.198 187.994 106.229 187.986 106.259C187.978 106.289 187.965 106.317 187.945 106.342C187.926 106.366 187.903 106.387 187.876 106.402L185.808 107.594C185.774 107.584 185.743 107.566 185.719 107.541C185.694 107.517 185.676 107.486 185.666 107.452L185.689 107.628ZM189.821 105.261C189.779 105.261 189.739 105.25 189.703 105.229C189.668 105.208 189.638 105.179 189.617 105.143C189.586 105.088 189.577 105.023 189.593 104.962C189.609 104.901 189.648 104.849 189.702 104.816L191.766 103.43C191.821 103.4 191.885 103.393 191.945 103.41C192.005 103.427 192.056 103.466 192.088 103.52C192.104 103.546 192.114 103.576 192.119 103.607C192.123 103.637 192.121 103.669 192.113 103.699C192.105 103.729 192.091 103.757 192.072 103.781C192.053 103.806 192.03 103.826 192.002 103.842L189.934 105.034C189.894 105.06 189.845 105.072 189.797 105.067L189.821 105.261ZM193.952 102.895C193.911 102.895 193.871 102.884 193.835 102.863C193.799 102.842 193.769 102.812 193.749 102.777C193.718 102.722 193.709 102.657 193.725 102.596C193.741 102.535 193.78 102.483 193.834 102.45L195.902 101.258C195.929 101.241 195.958 101.231 195.989 101.227C196.02 101.222 196.051 101.224 196.081 101.232C196.111 101.24 196.139 101.254 196.164 101.273C196.188 101.292 196.209 101.316 196.224 101.343C196.255 101.397 196.264 101.462 196.248 101.523C196.232 101.584 196.193 101.637 196.139 101.669L194.071 102.862C194.035 102.845 194.003 102.82 193.979 102.788C193.954 102.757 193.937 102.721 193.929 102.682L193.952 102.895ZM198.089 100.529C198.047 100.529 198.005 100.518 197.969 100.497C197.932 100.476 197.902 100.447 197.88 100.41C197.85 100.356 197.842 100.291 197.859 100.231C197.876 100.171 197.916 100.119 197.97 100.089L200.034 98.8959C200.06 98.8799 200.09 98.8694 200.121 98.865C200.151 98.8607 200.183 98.8625 200.213 98.8704C200.243 98.8784 200.271 98.8923 200.295 98.9113C200.32 98.9303 200.34 98.954 200.356 98.9811C200.387 99.0359 200.395 99.1007 200.38 99.1618C200.364 99.2228 200.324 99.2752 200.27 99.3077L198.207 100.5C198.168 100.48 198.135 100.45 198.11 100.414C198.085 100.377 198.07 100.336 198.065 100.292L198.089 100.529ZM202.22 98.1624C202.178 98.162 202.137 98.151 202.101 98.1303C202.064 98.1096 202.034 98.0799 202.012 98.0441C201.983 97.9892 201.975 97.925 201.992 97.8651C202.009 97.8051 202.048 97.7539 202.102 97.7222L204.165 96.5296C204.22 96.4982 204.285 96.4898 204.346 96.5063C204.406 96.5227 204.458 96.5626 204.49 96.6172C204.521 96.6718 204.529 96.7366 204.513 96.7974C204.496 96.8582 204.457 96.91 204.402 96.9414L202.339 98.134C202.294 98.1143 202.255 98.0828 202.227 98.0428C202.198 98.0027 202.181 97.9557 202.178 97.9068L202.22 98.1624Z" fill="#F5F5F5"/>
    <path d="M207.355 96.1129C207.293 96.1116 207.233 96.0863 207.189 96.0422C207.145 95.9981 207.12 95.9386 207.119 95.8762V95.1001L206.451 95.4882C206.425 95.5042 206.395 95.5147 206.364 95.5191C206.334 95.5234 206.302 95.5216 206.272 95.5136C206.242 95.5057 206.214 95.4918 206.19 95.4728C206.165 95.4538 206.145 95.43 206.129 95.403C206.098 95.3482 206.09 95.2834 206.105 95.2223C206.121 95.1613 206.161 95.1089 206.215 95.0764L207.237 94.4848C207.273 94.4639 207.314 94.453 207.356 94.4531C207.398 94.4533 207.439 94.4645 207.475 94.4857C207.511 94.5068 207.541 94.5372 207.561 94.5736C207.582 94.61 207.592 94.6513 207.592 94.6931V95.8762C207.592 95.939 207.567 95.9992 207.522 96.0436C207.478 96.0879 207.418 96.1129 207.355 96.1129Z" fill="#F5F5F5"/>
    <path d="M207.355 143.505C207.293 143.504 207.233 143.479 207.189 143.435C207.145 143.391 207.12 143.331 207.119 143.269V140.902C207.119 140.84 207.143 140.779 207.188 140.735C207.232 140.691 207.292 140.666 207.355 140.666C207.418 140.666 207.478 140.691 207.522 140.735C207.567 140.779 207.592 140.84 207.592 140.902V143.269C207.592 143.331 207.567 143.392 207.522 143.436C207.478 143.48 207.418 143.505 207.355 143.505ZM207.355 138.773C207.292 138.773 207.232 138.748 207.188 138.703C207.143 138.659 207.119 138.599 207.119 138.536V136.17C207.12 136.107 207.145 136.048 207.189 136.004C207.233 135.96 207.293 135.934 207.355 135.933C207.418 135.933 207.478 135.958 207.522 136.002C207.567 136.047 207.592 136.107 207.592 136.17V138.536C207.589 138.597 207.563 138.655 207.519 138.697C207.475 138.74 207.416 138.763 207.355 138.763V138.773ZM207.355 134.04C207.293 134.039 207.233 134.014 207.189 133.969C207.145 133.925 207.12 133.866 207.119 133.804V131.437C207.119 131.374 207.143 131.314 207.188 131.27C207.232 131.226 207.292 131.201 207.355 131.201C207.418 131.201 207.478 131.226 207.522 131.27C207.567 131.314 207.592 131.374 207.592 131.437V133.804C207.588 133.864 207.562 133.92 207.518 133.962C207.474 134.003 207.416 134.026 207.355 134.026V134.04ZM207.355 129.308C207.292 129.308 207.232 129.283 207.188 129.238C207.143 129.194 207.119 129.134 207.119 129.071V126.705C207.119 126.642 207.143 126.582 207.188 126.537C207.232 126.493 207.292 126.468 207.355 126.468C207.418 126.468 207.478 126.493 207.522 126.537C207.567 126.582 207.592 126.642 207.592 126.705V129.071C207.586 129.129 207.558 129.184 207.515 129.223C207.471 129.262 207.414 129.284 207.355 129.284V129.308ZM207.355 124.575C207.292 124.575 207.232 124.55 207.188 124.506C207.143 124.461 207.119 124.401 207.119 124.338V121.972C207.12 121.91 207.145 121.85 207.189 121.806C207.233 121.762 207.293 121.737 207.355 121.735C207.418 121.735 207.478 121.76 207.522 121.805C207.567 121.849 207.592 121.909 207.592 121.972V124.338C207.585 124.396 207.557 124.449 207.513 124.488C207.47 124.526 207.413 124.547 207.355 124.547V124.575ZM207.355 119.842C207.293 119.841 207.233 119.816 207.189 119.772C207.145 119.728 207.12 119.668 207.119 119.606V117.239C207.119 117.177 207.143 117.116 207.188 117.072C207.232 117.028 207.292 117.003 207.355 117.003C207.418 117.003 207.478 117.028 207.522 117.072C207.567 117.116 207.592 117.177 207.592 117.239V119.606C207.584 119.663 207.555 119.715 207.512 119.752C207.468 119.789 207.413 119.81 207.355 119.809V119.842ZM207.355 115.11C207.292 115.11 207.232 115.085 207.188 115.04C207.143 114.996 207.119 114.936 207.119 114.873V112.507C207.119 112.444 207.143 112.384 207.188 112.339C207.232 112.295 207.292 112.27 207.355 112.27C207.418 112.27 207.478 112.295 207.522 112.339C207.567 112.384 207.592 112.444 207.592 112.507V114.873C207.582 114.928 207.552 114.978 207.509 115.013C207.466 115.049 207.411 115.068 207.355 115.067V115.11ZM207.355 110.377C207.293 110.376 207.233 110.351 207.189 110.306C207.145 110.262 207.12 110.203 207.119 110.14V107.774C207.119 107.711 207.143 107.651 207.188 107.607C207.232 107.562 207.292 107.537 207.355 107.537C207.418 107.537 207.478 107.562 207.522 107.607C207.567 107.651 207.592 107.711 207.592 107.774V110.14C207.581 110.195 207.551 110.243 207.508 110.278C207.465 110.313 207.411 110.331 207.355 110.33V110.377ZM207.355 105.644C207.292 105.644 207.232 105.62 207.188 105.575C207.143 105.531 207.119 105.471 207.119 105.408V103.042C207.119 102.979 207.143 102.919 207.188 102.874C207.232 102.83 207.292 102.805 207.355 102.805C207.418 102.805 207.478 102.83 207.522 102.874C207.567 102.919 207.592 102.979 207.592 103.042V105.408C207.579 105.46 207.548 105.507 207.505 105.54C207.462 105.572 207.409 105.589 207.355 105.588V105.644ZM207.355 100.912C207.292 100.912 207.232 100.887 207.188 100.843C207.143 100.798 207.119 100.738 207.119 100.675V98.3089C207.12 98.2465 207.145 98.187 207.189 98.1429C207.233 98.0988 207.293 98.0735 207.355 98.0723C207.418 98.0723 207.478 98.0972 207.522 98.1416C207.567 98.1859 207.592 98.2461 207.592 98.3089V100.675C207.578 100.727 207.547 100.772 207.504 100.804C207.461 100.836 207.409 100.852 207.355 100.85V100.912Z" fill="#F5F5F5"/>
    <path d="M206.333 147.646C206.281 147.646 206.231 147.628 206.19 147.597C206.149 147.565 206.12 147.521 206.107 147.471C206.093 147.421 206.096 147.368 206.116 147.321C206.135 147.273 206.17 147.233 206.214 147.206L207.118 146.681V145.635C207.12 145.573 207.145 145.513 207.189 145.469C207.233 145.425 207.293 145.4 207.355 145.398C207.418 145.398 207.478 145.423 207.522 145.468C207.567 145.512 207.592 145.572 207.592 145.635V146.818C207.592 146.86 207.582 146.902 207.561 146.938C207.54 146.975 207.51 147.005 207.473 147.026L206.437 147.618C206.404 147.634 206.369 147.644 206.333 147.646Z" fill="#F5F5F5"/>
    <path d="M139.442 183.728C139.379 183.728 139.319 183.703 139.275 183.658C139.23 183.614 139.205 183.554 139.205 183.491C139.205 183.428 139.23 183.368 139.275 183.324C139.319 183.279 139.379 183.254 139.442 183.254C140.234 183.228 141.024 183.156 141.808 183.037C141.87 183.029 141.933 183.045 141.983 183.082C142.034 183.119 142.067 183.174 142.078 183.236C142.083 183.266 142.081 183.298 142.074 183.328C142.066 183.358 142.053 183.387 142.035 183.412C142.016 183.437 141.993 183.458 141.966 183.474C141.94 183.49 141.91 183.501 141.879 183.505C141.083 183.625 140.28 183.699 139.475 183.728H139.442ZM137.076 183.68C136.273 183.62 135.475 183.512 134.686 183.359C134.624 183.347 134.57 183.312 134.534 183.26C134.499 183.209 134.485 183.146 134.496 183.084C134.509 183.022 134.545 182.968 134.597 182.933C134.65 182.897 134.713 182.884 134.776 182.895C135.546 183.045 136.325 183.149 137.109 183.207C137.171 183.207 137.232 183.232 137.276 183.276C137.32 183.321 137.345 183.381 137.345 183.444C137.345 183.507 137.32 183.567 137.276 183.611C137.232 183.655 137.171 183.68 137.109 183.68H137.076ZM144.175 183.008C144.123 183.009 144.073 182.993 144.032 182.962C143.991 182.931 143.961 182.888 143.947 182.838C143.939 182.808 143.936 182.777 143.939 182.746C143.943 182.715 143.952 182.685 143.967 182.658C143.982 182.631 144.002 182.607 144.026 182.587C144.051 182.568 144.078 182.553 144.108 182.545C144.863 182.333 145.6 182.064 146.314 181.74C146.342 181.727 146.372 181.719 146.404 181.718C146.435 181.717 146.466 181.722 146.495 181.733C146.524 181.744 146.551 181.761 146.573 181.782C146.596 181.804 146.614 181.83 146.626 181.858C146.639 181.886 146.647 181.917 146.649 181.947C146.65 181.978 146.646 182.009 146.635 182.038C146.625 182.068 146.608 182.094 146.587 182.117C146.566 182.14 146.541 182.158 146.512 182.171C145.777 182.504 145.018 182.781 144.241 182.999C144.211 183.011 144.178 183.014 144.146 183.008H144.175ZM132.414 182.758C132.389 182.762 132.363 182.762 132.338 182.758C131.572 182.504 130.828 182.187 130.114 181.811C130.063 181.779 130.026 181.729 130.011 181.671C129.995 181.613 130.002 181.552 130.031 181.499C130.059 181.446 130.106 181.406 130.163 181.386C130.22 181.367 130.282 181.37 130.336 181.395C131.028 181.766 131.748 182.083 132.49 182.341C132.521 182.346 132.551 182.357 132.577 182.374C132.604 182.39 132.627 182.412 132.646 182.437C132.664 182.463 132.678 182.491 132.685 182.522C132.692 182.553 132.693 182.584 132.688 182.616C132.683 182.647 132.672 182.676 132.656 182.703C132.639 182.73 132.618 182.753 132.592 182.772C132.567 182.79 132.538 182.803 132.507 182.811C132.477 182.818 132.445 182.819 132.414 182.814V182.758ZM148.505 181.049C148.453 181.049 148.403 181.031 148.362 180.999C148.322 180.968 148.292 180.924 148.279 180.874C148.265 180.824 148.269 180.771 148.288 180.723C148.308 180.675 148.342 180.635 148.387 180.609L150.455 179.416C150.508 179.392 150.569 179.389 150.624 179.407C150.68 179.424 150.727 179.462 150.757 179.513C150.786 179.564 150.796 179.623 150.784 179.681C150.772 179.738 150.739 179.789 150.691 179.823L148.595 180.997C148.562 181.026 148.52 181.044 148.476 181.049H148.505ZM152.641 178.683C152.599 178.683 152.558 178.673 152.521 178.652C152.484 178.631 152.454 178.601 152.433 178.564C152.417 178.538 152.407 178.508 152.403 178.477C152.399 178.446 152.401 178.414 152.409 178.384C152.418 178.354 152.432 178.326 152.452 178.302C152.471 178.278 152.495 178.257 152.523 178.243L154.586 177.05C154.613 177.031 154.644 177.017 154.676 177.01C154.708 177.003 154.742 177.003 154.774 177.01C154.807 177.017 154.837 177.03 154.864 177.05C154.891 177.069 154.913 177.094 154.93 177.122C154.947 177.151 154.957 177.183 154.961 177.216C154.964 177.249 154.961 177.282 154.951 177.314C154.941 177.345 154.924 177.374 154.902 177.399C154.88 177.424 154.853 177.443 154.823 177.457L152.731 178.631C152.696 178.653 152.655 178.664 152.613 178.664L152.641 178.683ZM156.773 176.316C156.731 176.317 156.689 176.306 156.653 176.285C156.616 176.264 156.586 176.234 156.564 176.198C156.534 176.143 156.526 176.079 156.543 176.019C156.56 175.958 156.6 175.907 156.654 175.876L158.718 174.679C158.773 174.649 158.838 174.642 158.899 174.659C158.96 174.676 159.012 174.715 159.044 174.769C159.074 174.824 159.081 174.888 159.064 174.948C159.047 175.008 159.008 175.059 158.954 175.091L156.863 176.264C156.824 176.275 156.783 176.275 156.744 176.264L156.773 176.316ZM160.904 173.95C160.863 173.95 160.823 173.939 160.787 173.918C160.751 173.897 160.721 173.868 160.701 173.832C160.67 173.777 160.661 173.712 160.677 173.651C160.693 173.59 160.732 173.538 160.786 173.505L162.849 172.313C162.905 172.282 162.97 172.274 163.031 172.291C163.092 172.308 163.144 172.348 163.176 172.403C163.207 172.457 163.214 172.522 163.198 172.582C163.181 172.642 163.141 172.694 163.086 172.724L161.004 173.86C160.966 173.886 160.921 173.899 160.876 173.898L160.904 173.95ZM165.036 171.584C164.995 171.584 164.954 171.573 164.918 171.552C164.883 171.531 164.853 171.501 164.832 171.465C164.801 171.411 164.792 171.346 164.808 171.285C164.824 171.224 164.864 171.171 164.918 171.139L166.986 169.946C167.04 169.915 167.105 169.907 167.166 169.923C167.227 169.939 167.279 169.979 167.31 170.034C167.341 170.088 167.35 170.153 167.333 170.214C167.317 170.275 167.277 170.327 167.222 170.358L165.154 171.551C165.104 171.559 165.054 171.552 165.007 171.532L165.036 171.584ZM169.167 169.194C169.126 169.195 169.085 169.184 169.049 169.163C169.013 169.142 168.984 169.112 168.964 169.076C168.933 169.021 168.924 168.957 168.94 168.897C168.956 168.837 168.995 168.785 169.049 168.754L171.117 167.561C171.172 167.53 171.237 167.521 171.298 167.538C171.358 167.554 171.41 167.594 171.441 167.649C171.473 167.703 171.481 167.768 171.465 167.829C171.448 167.89 171.409 167.941 171.354 167.973L169.286 169.165C169.233 169.165 169.182 169.149 169.139 169.118L169.167 169.194ZM173.299 166.828C173.258 166.827 173.217 166.816 173.182 166.795C173.146 166.775 173.116 166.745 173.096 166.709C173.064 166.655 173.056 166.591 173.072 166.531C173.088 166.471 173.127 166.419 173.181 166.387L175.249 165.195C175.276 165.175 175.306 165.162 175.339 165.155C175.371 165.148 175.404 165.148 175.437 165.155C175.469 165.161 175.5 165.175 175.527 165.194C175.554 165.214 175.576 165.239 175.593 165.267C175.609 165.296 175.62 165.328 175.623 165.361C175.627 165.393 175.623 165.427 175.613 165.458C175.603 165.49 175.587 165.519 175.565 165.544C175.543 165.568 175.516 165.588 175.485 165.602L173.417 166.799C173.362 166.794 173.311 166.771 173.271 166.733L173.299 166.828ZM177.435 164.461C177.384 164.461 177.334 164.443 177.293 164.412C177.252 164.38 177.223 164.336 177.209 164.286C177.196 164.236 177.199 164.183 177.219 164.135C177.238 164.088 177.273 164.047 177.317 164.021L179.38 162.828C179.407 162.809 179.438 162.795 179.47 162.788C179.503 162.782 179.536 162.781 179.568 162.788C179.601 162.795 179.631 162.809 179.658 162.828C179.685 162.847 179.708 162.872 179.724 162.901C179.741 162.93 179.751 162.961 179.755 162.994C179.758 163.027 179.755 163.06 179.745 163.092C179.735 163.124 179.718 163.153 179.696 163.177C179.674 163.202 179.647 163.222 179.617 163.235L177.554 164.428C177.496 164.421 177.444 164.393 177.407 164.348L177.435 164.461ZM181.567 162.095C181.515 162.094 181.465 162.077 181.424 162.045C181.384 162.014 181.354 161.97 181.341 161.92C181.327 161.87 181.331 161.817 181.35 161.769C181.37 161.721 181.404 161.681 181.449 161.655L183.512 160.462C183.539 160.443 183.569 160.429 183.602 160.422C183.634 160.415 183.668 160.415 183.7 160.422C183.732 160.429 183.763 160.442 183.79 160.462C183.817 160.481 183.839 160.506 183.856 160.535C183.872 160.563 183.883 160.595 183.886 160.628C183.89 160.661 183.887 160.694 183.877 160.726C183.866 160.757 183.85 160.786 183.828 160.811C183.806 160.836 183.779 160.856 183.749 160.869L181.685 162.062C181.655 162.056 181.627 162.044 181.602 162.027C181.576 162.01 181.555 161.988 181.539 161.962L181.567 162.095ZM185.698 159.729C185.647 159.728 185.597 159.711 185.556 159.679C185.515 159.647 185.486 159.603 185.472 159.553C185.459 159.504 185.462 159.451 185.482 159.403C185.501 159.355 185.536 159.315 185.58 159.288L187.648 158.096C187.675 158.076 187.706 158.063 187.738 158.056C187.77 158.049 187.804 158.049 187.836 158.056C187.869 158.063 187.899 158.076 187.926 158.095C187.953 158.115 187.975 158.14 187.992 158.168C188.009 158.197 188.019 158.229 188.023 158.262C188.026 158.295 188.023 158.328 188.013 158.359C188.003 158.391 187.986 158.42 187.964 158.445C187.942 158.469 187.915 158.489 187.885 158.503L185.817 159.695C185.785 159.688 185.756 159.673 185.73 159.653C185.705 159.632 185.684 159.606 185.67 159.577L185.698 159.729ZM189.83 157.362C189.789 157.362 189.748 157.351 189.713 157.33C189.677 157.309 189.647 157.28 189.627 157.244C189.595 157.189 189.587 157.124 189.603 157.063C189.618 157.002 189.658 156.95 189.712 156.917L191.78 155.725C191.835 155.695 191.899 155.688 191.959 155.705C192.019 155.722 192.07 155.761 192.102 155.815C192.118 155.841 192.128 155.871 192.133 155.902C192.137 155.932 192.135 155.964 192.127 155.994C192.119 156.024 192.105 156.052 192.086 156.076C192.067 156.101 192.044 156.121 192.017 156.137L189.948 157.329C189.915 157.32 189.883 157.303 189.858 157.279C189.832 157.255 189.813 157.225 189.802 157.192L189.83 157.362ZM193.962 154.996C193.92 154.996 193.88 154.985 193.844 154.964C193.808 154.943 193.779 154.913 193.758 154.878C193.727 154.823 193.718 154.758 193.734 154.697C193.75 154.636 193.789 154.584 193.843 154.551L195.911 153.359C195.966 153.327 196.031 153.319 196.092 153.335C196.152 153.352 196.204 153.391 196.236 153.446C196.267 153.501 196.275 153.566 196.259 153.626C196.243 153.687 196.203 153.739 196.148 153.77L194.08 154.963C194.044 154.952 194.011 154.932 193.985 154.905C193.96 154.877 193.942 154.843 193.933 154.807L193.962 154.996ZM198.093 152.63C198.052 152.629 198.011 152.618 197.976 152.598C197.94 152.577 197.91 152.547 197.89 152.511C197.858 152.457 197.85 152.392 197.866 152.331C197.882 152.27 197.921 152.217 197.975 152.185L200.043 150.992C200.07 150.976 200.099 150.966 200.13 150.961C200.161 150.957 200.192 150.959 200.222 150.967C200.252 150.975 200.28 150.989 200.305 151.008C200.329 151.027 200.35 151.05 200.365 151.077C200.396 151.132 200.405 151.197 200.389 151.258C200.373 151.319 200.334 151.371 200.28 151.404L198.212 152.597C198.175 152.581 198.142 152.558 198.117 152.527C198.091 152.497 198.073 152.46 198.065 152.421L198.093 152.63ZM202.229 150.24C202.187 150.24 202.146 150.229 202.11 150.208C202.073 150.187 202.043 150.158 202.021 150.121C201.992 150.067 201.985 150.002 202.002 149.942C202.018 149.882 202.058 149.831 202.111 149.8L204.175 148.607C204.229 148.576 204.294 148.567 204.355 148.583C204.416 148.599 204.469 148.638 204.501 148.692C204.531 148.748 204.538 148.813 204.521 148.873C204.505 148.934 204.465 148.986 204.411 149.019L202.348 150.211C202.312 150.194 202.28 150.169 202.254 150.138C202.229 150.107 202.211 150.071 202.201 150.031L202.229 150.24Z" fill="#F5F5F5"/>
    <path d="M128.221 180.477C128.164 180.476 128.109 180.456 128.065 180.42C127.757 180.154 127.471 179.864 127.208 179.554C127.169 179.505 127.151 179.443 127.156 179.38C127.161 179.318 127.19 179.26 127.237 179.218C127.286 179.178 127.349 179.16 127.411 179.166C127.474 179.172 127.532 179.202 127.573 179.251C127.819 179.543 128.088 179.815 128.377 180.065C128.401 180.085 128.42 180.109 128.434 180.137C128.448 180.164 128.457 180.195 128.459 180.225C128.461 180.256 128.457 180.287 128.447 180.317C128.437 180.346 128.421 180.373 128.401 180.396C128.379 180.422 128.351 180.443 128.32 180.457C128.289 180.471 128.255 180.478 128.221 180.477Z" fill="#F5F5F5"/>
    <path d="M195.58 91.4702V84.3382C195.565 84.0472 195.481 83.7641 195.335 83.5116C195.19 83.2592 194.987 83.0446 194.743 82.8853C194.837 82.9236 194.917 82.9891 194.974 83.0734C195.03 83.1577 195.061 83.257 195.061 83.3585C195.061 83.4601 195.03 83.5593 194.974 83.6436C194.917 83.7279 194.837 83.7934 194.743 83.8318L129.589 121.47C129.902 122.017 130.316 122.499 130.81 122.89C131.449 123.378 132.145 123.786 132.883 124.106C134.819 124.861 136.893 125.2 138.969 125.1L194.747 92.9184C194.99 92.759 195.191 92.5449 195.336 92.2934C195.481 92.0419 195.564 91.7599 195.58 91.4702Z" fill="#E0E0E0"/>
    <path d="M194.743 82.8853L194.454 82.7197C194.195 82.589 193.909 82.521 193.619 82.521C193.328 82.521 193.042 82.589 192.783 82.7197L129.158 119.473C129.094 120.173 129.244 120.876 129.589 121.489L194.743 83.8555C194.844 83.8217 194.933 83.7566 194.996 83.6695C195.059 83.5825 195.093 83.4778 195.093 83.3704C195.093 83.263 195.059 83.1584 194.996 83.0713C194.933 82.9842 194.844 82.9192 194.743 82.8853Z" fill="#EBEBEB"/>
    <path d="M199.509 86.6002C199.491 86.3102 199.407 86.0283 199.261 85.7769C199.116 85.5254 198.914 85.3115 198.671 85.152L198.382 84.9863C198.122 84.8557 197.835 84.7876 197.544 84.7876C197.254 84.7876 196.967 84.8557 196.707 84.9863L130.923 122.98C131.54 123.434 132.205 123.819 132.906 124.125C136.413 125.587 141.425 125.441 145.15 123.756C145.76 123.481 146.693 122.942 147.27 122.611L199.509 92.4355V86.6002Z" fill="#E0E0E0"/>
    <path d="M132.859 124.116L198.671 86.1176C198.765 86.0792 198.845 86.0137 198.902 85.9294C198.959 85.8451 198.989 85.7458 198.989 85.6443C198.989 85.5427 198.959 85.4435 198.902 85.3592C198.845 85.2749 198.765 85.2094 198.671 85.171L198.382 85.0054C198.122 84.8747 197.835 84.8066 197.544 84.8066C197.254 84.8066 196.967 84.8747 196.707 85.0054L130.923 122.999C131.527 123.44 132.176 123.814 132.859 124.116Z" fill="#EBEBEB"/>
    <path d="M203.432 88.8671C203.417 88.5767 203.333 88.2941 203.187 88.0424C203.041 87.7906 202.838 87.577 202.594 87.4189L202.306 87.2486C202.046 87.1179 201.759 87.0498 201.468 87.0498C201.177 87.0498 200.89 87.1179 200.63 87.2486L135.476 124.868C138.733 125.442 142.086 125.055 145.126 123.756C145.737 123.481 146.669 122.942 147.246 122.611L203.432 90.1686V88.8671Z" fill="#E0E0E0"/>
    <path d="M202.594 87.4189L202.306 87.2486C202.046 87.1179 201.759 87.0498 201.468 87.0498C201.177 87.0498 200.89 87.1179 200.63 87.2486L135.476 124.868C136.628 125.074 137.799 125.158 138.969 125.119L202.594 88.3844C202.694 88.3495 202.781 88.2843 202.843 88.1978C202.904 88.1113 202.937 88.0078 202.937 87.9017C202.937 87.7955 202.904 87.692 202.843 87.6055C202.781 87.519 202.694 87.4538 202.594 87.4189Z" fill="#EBEBEB"/>
    <path d="M219.13 109.265V123.193C219.114 123.483 219.03 123.765 218.886 124.016C218.741 124.268 218.539 124.482 218.297 124.641L192.883 139.312H192.836C190.914 140.405 189.173 140.547 187.899 139.89C187.511 139.691 186.006 138.825 185.656 138.588C184.506 137.845 183.806 136.378 183.806 134.329C183.806 130.069 186.792 124.897 190.545 122.497L214.364 108.749L214.487 108.664C214.823 108.394 214.781 108.025 214.364 107.784L211.279 105.999V103.732L218.292 107.784C218.512 107.927 218.698 108.116 218.839 108.337C218.98 108.558 219.073 108.807 219.111 109.066C219.124 109.132 219.131 109.198 219.13 109.265Z" fill="#98A2B3"/>
    <path opacity="0.3" d="M219.13 109.265V123.193C219.114 123.483 219.03 123.765 218.886 124.016C218.741 124.268 218.539 124.482 218.297 124.641L192.883 139.312H192.836C190.914 140.405 189.173 140.547 187.899 139.89C187.511 139.691 186.006 138.825 185.656 138.588C184.506 137.845 183.806 136.378 183.806 134.329C183.806 130.069 186.792 124.897 190.545 122.497L214.364 108.749L214.487 108.664C214.823 108.394 214.781 108.025 214.364 107.784L211.279 105.999V103.732L218.292 107.784C218.512 107.927 218.698 108.116 218.839 108.337C218.98 108.558 219.073 108.807 219.111 109.066C219.124 109.132 219.131 109.198 219.13 109.265Z" fill="#191919"/>
    <path d="M219.13 109.265V123.193C219.114 123.483 219.03 123.765 218.886 124.016C218.741 124.268 218.539 124.482 218.297 124.641L192.883 139.312H192.835C190.332 140.732 188.131 140.548 186.872 139.076C186.089 138.039 185.698 136.758 185.77 135.46C185.77 131.078 188.955 125.692 192.869 123.42L217.156 109.402L218.283 108.754C218.694 108.512 219.035 108.654 219.101 109.071C219.117 109.135 219.127 109.2 219.13 109.265Z" fill="#98A2B3"/>
    <path d="M191.657 132.09C191.657 133.983 192.973 134.726 194.601 133.789C195.458 133.231 196.171 132.479 196.683 131.593C197.194 130.708 197.49 129.714 197.544 128.692C197.544 126.799 196.224 126.052 194.601 126.993C193.743 127.551 193.03 128.303 192.518 129.189C192.007 130.075 191.712 131.069 191.657 132.09Z" fill="#4A4E5B"/>
    <path d="M197.649 127.343L196.773 126.842L192.519 133.993L193.517 134.57L197.649 127.343Z" fill="#4A4E5B"/>
    <path d="M192.637 132.658C192.637 134.551 193.957 135.294 195.581 134.357C196.438 133.798 197.151 133.045 197.663 132.158C198.174 131.272 198.469 130.277 198.524 129.255C198.524 127.362 197.209 126.619 195.581 127.556C194.724 128.116 194.011 128.87 193.5 129.756C192.989 130.642 192.693 131.636 192.637 132.658Z" fill="#777A88"/>
    <path d="M103.853 213.867C103.562 213.668 103.322 213.404 103.151 213.096C102.981 212.788 102.886 212.444 102.873 212.092V155.589C102.892 155.227 102.997 154.874 103.179 154.56C103.361 154.246 103.614 153.979 103.919 153.782L176.399 111.931C176.701 111.74 177.05 111.636 177.408 111.629C177.765 111.622 178.118 111.713 178.428 111.891C178.738 112.07 178.993 112.33 179.166 112.643C179.338 112.956 179.423 113.31 179.409 113.668V170.171C179.389 170.534 179.284 170.887 179.102 171.202C178.92 171.516 178.667 171.784 178.363 171.983L105.883 213.829C105.571 213.994 105.225 214.084 104.872 214.091C104.519 214.097 104.17 214.021 103.853 213.867Z" fill="#777A88"/>
    <path d="M106.796 156.631L103.181 154.543C102.992 154.854 102.886 155.207 102.873 155.57V212.092C102.859 212.449 102.944 212.804 103.116 213.117C103.289 213.43 103.544 213.69 103.854 213.869C104.164 214.047 104.517 214.138 104.874 214.131C105.232 214.124 105.581 214.02 105.883 213.829L106.796 213.299V156.631Z" fill="#020C0A"/>
    <path d="M104.837 156.726V213.228C104.837 213.896 105.311 214.175 105.883 213.829L178.363 171.984C178.667 171.785 178.921 171.517 179.102 171.202C179.284 170.887 179.389 170.534 179.409 170.171V113.668C179.409 113.001 178.936 112.722 178.363 113.067L105.883 154.913C105.578 155.111 105.325 155.379 105.143 155.694C104.961 156.009 104.857 156.362 104.837 156.726Z" fill="#4A4E5B"/>
    <path d="M110.724 171.453V180.369C110.724 181.037 111.198 181.316 111.77 180.97L123.413 174.25C123.718 174.052 123.971 173.784 124.153 173.469C124.335 173.154 124.439 172.801 124.458 172.438V163.521C124.458 162.854 123.985 162.575 123.413 162.92L111.784 169.641C111.478 169.838 111.222 170.105 111.038 170.42C110.853 170.735 110.746 171.089 110.724 171.453Z" fill="#98A2B3"/>
    <path d="M124.459 165.987V165.443L110.734 173.37V173.919L114.421 171.789V175.793L110.734 177.923V178.467L124.459 170.54V169.991L120.772 172.121V168.117L124.459 165.987ZM120.303 172.395L114.889 175.519V171.515L120.303 168.391V172.395Z" fill="#F5F5F5"/>
    <path d="M113.337 160.919V161.695C113.354 162.126 113.254 162.553 113.046 162.931C112.839 163.309 112.532 163.623 112.159 163.839C111.382 164.288 110.975 163.985 110.975 163.058V160.029C110.958 159.598 111.06 159.17 111.268 158.792C111.477 158.414 111.785 158.101 112.159 157.885C112.935 157.44 113.337 157.738 113.337 158.666V159.234L112.589 159.665V159.04C112.589 158.628 112.433 158.567 112.177 158.704C112.04 158.788 111.929 158.908 111.857 159.052C111.785 159.196 111.755 159.358 111.77 159.518V162.656C111.77 163.072 111.927 163.129 112.177 162.987C112.316 162.906 112.428 162.787 112.501 162.645C112.574 162.502 112.605 162.342 112.589 162.182V161.364L113.337 160.919Z" fill="white"/>
    <path d="M115.476 161.836C115.407 161.62 115.382 161.391 115.405 161.164V160.251C115.405 159.707 115.244 159.598 114.884 159.806L114.615 159.967V162.333L113.82 162.807V156.995L115.017 156.304C115.836 155.831 116.191 156.067 116.191 156.962V157.435C116.213 157.977 116.026 158.507 115.67 158.916C116.068 158.879 116.195 159.243 116.195 159.863V160.762C116.178 160.985 116.207 161.209 116.281 161.42L115.476 161.836ZM114.624 157.364V159.153L114.932 158.973C115.089 158.887 115.217 158.757 115.301 158.599C115.385 158.441 115.421 158.262 115.405 158.083V157.511C115.405 157.094 115.282 156.986 115.003 157.146L114.624 157.364Z" fill="white"/>
    <path d="M117.506 157.317L118.595 156.688V157.521L117.506 158.15V159.854L118.874 159.063V159.892L116.716 161.141V155.325L118.883 154.075V154.908L117.506 155.684V157.317Z" fill="white"/>
    <path d="M119.357 153.791L120.611 153.072C121.401 152.598 121.789 152.897 121.789 153.824V156.768C121.809 157.196 121.71 157.621 121.502 157.995C121.293 158.37 120.985 158.679 120.611 158.888L119.357 159.612V153.791ZM120.152 154.165V158.325L120.597 158.065C120.733 157.984 120.843 157.867 120.914 157.726C120.985 157.585 121.015 157.427 120.999 157.269V154.264C120.999 153.848 120.848 153.791 120.597 153.933L120.152 154.165Z" fill="white"/>
    <path d="M122.3 152.097L123.091 151.624V157.44L122.3 157.913V152.097Z" fill="white"/>
    <path d="M123.436 151.425L125.883 150.005V150.833L125.055 151.306V156.295L124.265 156.768V151.794L123.436 152.267V151.425Z" fill="white"/>
    <path d="M129.641 151.505V152.281C129.658 152.712 129.558 153.14 129.35 153.517C129.143 153.895 128.836 154.209 128.462 154.425C127.686 154.899 127.284 154.572 127.284 153.644V150.615C127.267 150.185 127.367 149.757 127.575 149.379C127.782 149.002 128.089 148.688 128.462 148.472C129.239 148.022 129.641 148.325 129.641 149.252V149.82L128.893 150.251V149.626C128.893 149.215 128.737 149.153 128.486 149.29C128.347 149.373 128.235 149.493 128.162 149.638C128.089 149.782 128.059 149.944 128.074 150.104V153.242C128.074 153.659 128.231 153.715 128.486 153.573C128.623 153.492 128.734 153.373 128.806 153.23C128.878 153.088 128.909 152.928 128.893 152.769V151.941L129.641 151.505Z" fill="white"/>
    <path d="M132.688 151.898L131.889 152.371L131.751 151.391L130.781 151.955L130.644 153.09L129.915 153.507L130.72 147.227L131.879 146.555L132.688 151.898ZM130.88 151.098L131.642 150.658L131.264 147.937L130.88 151.098Z" fill="white"/>
    <path d="M134.71 150.753C134.641 150.534 134.617 150.304 134.639 150.076V149.163C134.639 148.623 134.482 148.514 134.118 148.723L133.848 148.879V151.245L133.053 151.718V145.888L134.251 145.197C135.069 144.724 135.424 144.96 135.424 145.859V146.333C135.447 146.874 135.261 147.403 134.904 147.809C135.301 147.771 135.429 148.141 135.429 148.756V149.65C135.411 149.874 135.442 150.098 135.519 150.308L134.71 150.753ZM133.848 146.262V148.051L134.156 147.871C134.311 147.782 134.437 147.652 134.521 147.494C134.605 147.337 134.642 147.159 134.629 146.981V146.408C134.629 145.992 134.511 145.878 134.227 146.044L133.848 146.262Z" fill="white"/>
    <path d="M135.949 144.217L137.203 143.493C137.994 143.02 138.382 143.318 138.382 144.25V147.194C138.402 147.622 138.302 148.047 138.094 148.421C137.886 148.796 137.577 149.105 137.203 149.314L135.949 150.033V144.217ZM136.74 144.591V148.746L137.184 148.491C137.322 148.411 137.434 148.293 137.506 148.151C137.579 148.009 137.608 147.849 137.591 147.691V144.667C137.591 144.25 137.44 144.193 137.184 144.335L136.74 144.591Z" fill="white"/>
    <path d="M110.724 188.453V190.568C110.724 191.236 111.198 191.515 111.77 191.169L123.413 184.449C123.717 184.25 123.97 183.982 124.152 183.667C124.333 183.353 124.438 182.999 124.458 182.636V180.521C124.458 179.854 123.985 179.574 123.413 179.915L111.784 186.64C111.477 186.837 111.221 187.104 111.037 187.419C110.852 187.734 110.745 188.088 110.724 188.453Z" fill="#E0E0E0"/>
    <path d="M127.076 179.006V181.122C127.076 181.789 127.549 182.068 128.121 181.728L139.768 175.003C140.073 174.805 140.327 174.538 140.508 174.224C140.69 173.91 140.795 173.557 140.814 173.195V171.074C140.814 170.407 140.341 170.128 139.768 170.473L128.121 177.194C127.817 177.393 127.564 177.661 127.382 177.975C127.201 178.29 127.096 178.643 127.076 179.006Z" fill="#E0E0E0"/>
    <path d="M143.432 169.565V171.68C143.432 172.348 143.905 172.627 144.478 172.286L156.12 165.561C156.428 165.362 156.684 165.091 156.867 164.773C157.05 164.454 157.154 164.096 157.17 163.73V161.614C157.17 160.947 156.697 160.668 156.12 161.013L144.478 167.733C144.171 167.934 143.916 168.205 143.734 168.523C143.553 168.842 143.449 169.199 143.432 169.565Z" fill="#E0E0E0"/>
    <path d="M159.783 160.123V162.239C159.783 162.906 160.256 163.185 160.829 162.845L172.476 156.119C172.78 155.92 173.033 155.653 173.215 155.338C173.396 155.023 173.502 154.67 173.522 154.307V152.191C173.522 151.524 173.048 151.245 172.476 151.586L160.829 158.311C160.524 158.509 160.27 158.777 160.089 159.092C159.907 159.407 159.802 159.76 159.783 160.123Z" fill="#E0E0E0"/>
    <path d="M167.005 162.679L164.316 164.203C164.134 164.323 163.983 164.484 163.874 164.673C163.766 164.862 163.703 165.074 163.692 165.291V166.11C163.692 166.508 163.971 166.669 164.316 166.47L166.986 164.927C167.169 164.809 167.321 164.649 167.431 164.461C167.54 164.272 167.603 164.061 167.615 163.843V163.024C167.629 162.641 167.355 162.475 167.005 162.679Z" fill="#98A2B3"/>
    <path d="M172.892 159.276L170.223 160.819C170.041 160.938 169.889 161.099 169.781 161.288C169.672 161.477 169.61 161.69 169.598 161.907V162.721C169.598 163.124 169.878 163.285 170.223 163.086L172.892 161.543C173.076 161.424 173.229 161.264 173.338 161.075C173.448 160.885 173.511 160.673 173.522 160.454V159.64C173.522 159.238 173.242 159.077 172.892 159.276Z" fill="#98A2B3"/>
    <path d="M139.191 184.402L172.424 165.216C173.001 164.88 173.47 165.15 173.47 165.817V166.801C173.45 167.164 173.344 167.517 173.163 167.832C172.981 168.147 172.728 168.415 172.424 168.614L139.191 187.8C138.614 188.136 138.145 187.861 138.145 187.194V186.214C138.165 185.851 138.27 185.498 138.451 185.183C138.633 184.868 138.887 184.6 139.191 184.402Z" fill="#98A2B3"/>
</svg>
