<svg width="260" height="215" viewBox="0 0 260 215" fill="none" xmlns="http://www.w3.org/2000/svg">
    <ellipse cx="134.5" cy="198.5" rx="125.5" ry="15.5" fill="#F2F4F7"/>
    <path d="M24.8325 137.526L81.9145 193.813C83.218 195.09 84.9737 195.8 86.7983 195.787C88.623 195.773 90.3683 195.039 91.6532 193.743L95.7467 189.599L190.491 93.5231C191.769 92.2217 192.48 90.4671 192.469 88.6429C192.457 86.8187 191.724 85.0732 190.429 83.7882L139.998 34.0782L133.367 27.4997C132.062 26.2259 130.307 25.5187 128.483 25.5318C126.66 25.545 124.915 26.2773 123.628 27.5698L24.7827 127.786C23.5044 129.088 22.7924 130.842 22.8017 132.666C22.811 134.491 23.5409 136.237 24.8325 137.526Z" fill="#D0D5DD"/>
    <path opacity="0.1" d="M24.8325 137.526L81.9145 193.813C83.218 195.09 84.9737 195.8 86.7983 195.787C88.623 195.773 90.3683 195.039 91.6532 193.743L95.7467 189.599L190.491 93.5231C191.769 92.2217 192.48 90.4671 192.469 88.6429C192.457 86.8187 191.724 85.0732 190.429 83.7882L139.998 34.0782L133.367 27.4997C132.062 26.2259 130.307 25.5187 128.483 25.5318C126.66 25.545 124.915 26.2773 123.628 27.5698L24.7827 127.786C23.5044 129.088 22.7924 130.842 22.8017 132.666C22.811 134.491 23.5409 136.237 24.8325 137.526Z" fill="white"/>
    <path d="M156.508 50.3351L48.0013 160.367L76.1282 188.104L184.635 78.072L156.508 50.3351Z" fill="#D0D5DD"/>
    <path opacity="0.3" d="M156.508 50.3351L48.0013 160.367L76.1282 188.104L184.635 78.072L156.508 50.3351Z" fill="white"/>
    <path d="M156.969 67.935L88.3999 137.468L98.4662 147.395L167.036 77.8617L156.969 67.935Z" fill="#D0D5DD"/>
    <path opacity="0.8" d="M156.969 67.935L88.3999 137.468L98.4662 147.395L167.036 77.8617L156.969 67.935Z" fill="white"/>
    <path d="M147.364 39.806L38.9602 150.427L54.0465 165.211L162.45 54.59L147.364 39.806Z" fill="#D0D5DD"/>
    <path opacity="0.3" d="M147.364 39.806L38.9602 150.427L54.0465 165.211L162.45 54.59L147.364 39.806Z" fill="#000407"/>
    <path d="M42.9951 131.604L95.7374 189.575L190.481 93.4992C191.76 92.1978 192.471 90.4432 192.459 88.619C192.448 86.7947 191.714 85.0493 190.419 83.7642L139.989 34.0542L43.4593 121.876C42.1142 123.109 41.3107 124.823 41.2238 126.645C41.1368 128.467 41.7735 130.25 42.9951 131.604Z" fill="#D0D5DD"/>
    <path d="M47.8999 120.458L155.494 29.6926C156.892 28.5203 158.697 27.949 160.514 28.1038C162.332 28.2586 164.015 29.1268 165.194 30.5186L216.885 91.7948C218.058 93.1924 218.63 94.9973 218.477 96.8154C218.324 98.6335 217.458 100.317 216.067 101.499L108.473 192.264C107.074 193.433 105.268 194.003 103.451 193.849C101.633 193.694 99.9498 192.829 98.7671 191.44L47.0761 130.164C45.9032 128.765 45.3315 126.959 45.4859 125.141C45.6402 123.322 46.5081 121.638 47.8999 120.458Z" fill="#D0D5DD"/>
    <path opacity="0.1" d="M47.8999 120.458L155.494 29.6926C156.892 28.5203 158.697 27.949 160.514 28.1038C162.332 28.2586 164.015 29.1268 165.194 30.5186L216.885 91.7948C218.058 93.1924 218.63 94.9973 218.477 96.8154C218.324 98.6335 217.458 100.317 216.067 101.499L108.473 192.264C107.074 193.433 105.268 194.003 103.451 193.849C101.633 193.694 99.9498 192.829 98.7671 191.44L47.0761 130.164C45.9032 128.765 45.3315 126.959 45.4859 125.141C45.6402 123.322 46.5081 121.638 47.8999 120.458Z" fill="white"/>
    <path d="M184.979 53.9669L66.8591 153.609L89.3454 180.265L207.465 80.6231L184.979 53.9669Z" fill="#D0D5DD"/>
    <path opacity="0.3" d="M184.979 53.9669L66.8591 153.609L89.3454 180.265L207.465 80.6231L184.979 53.9669Z" fill="white"/>
    <path d="M162.977 45.1959L138.559 65.7935L141.768 69.5973L166.185 48.9997L162.977 45.1959Z" fill="#D0D5DD"/>
    <path opacity="0.8" d="M162.977 45.1959L138.559 65.7935L141.768 69.5973L166.185 48.9997L162.977 45.1959Z" fill="white"/>
    <path d="M202.272 91.7769L182.682 108.302L184.36 110.29L203.949 93.7649L202.272 91.7769Z" fill="#D0D5DD"/>
    <path opacity="0.8" d="M202.272 91.7769L182.682 108.302L184.36 110.29L203.949 93.7649L202.272 91.7769Z" fill="white"/>
    <path d="M205.477 95.581L180.233 116.876L181.91 118.864L207.154 97.5691L205.477 95.581Z" fill="#D0D5DD"/>
    <path opacity="0.8" d="M205.477 95.581L180.233 116.876L181.91 118.864L207.154 97.5691L205.477 95.581Z" fill="white"/>
    <path d="M114.34 168.547L101.718 179.194L105.326 183.471L117.947 172.823L114.34 168.547Z" fill="#D0D5DD"/>
    <path opacity="0.8" d="M114.34 168.547L101.718 179.194L105.326 183.471L117.947 172.823L114.34 168.547Z" fill="white"/>
    <path d="M176.161 96.7006L190.901 84.2699C191.676 83.6102 192.16 82.6711 192.247 81.6568C192.333 80.6425 192.016 79.635 191.364 78.8533C190.704 78.0779 189.765 77.5943 188.751 77.5076C187.736 77.4209 186.729 77.7381 185.947 78.3903L171.204 90.8293C170.428 91.489 169.945 92.4281 169.858 93.4424C169.771 94.4567 170.088 95.4643 170.741 96.2459C171.402 97.0212 172.342 97.5039 173.357 97.5891C174.372 97.6742 175.38 97.3549 176.161 96.7006Z" fill="#D0D5DD"/>
    <path d="M150.913 117.999L165.657 105.56C166.425 104.901 166.904 103.968 166.991 102.96C167.078 101.952 166.767 100.95 166.123 100.17C165.462 99.3957 164.523 98.9137 163.51 98.8281C162.496 98.7426 161.489 99.0604 160.708 99.7126L145.971 112.149C145.196 112.809 144.712 113.748 144.625 114.762C144.539 115.777 144.856 116.784 145.508 117.566C146.172 118.334 147.11 118.809 148.122 118.89C149.133 118.971 150.136 118.651 150.913 117.999Z" fill="#D0D5DD"/>
    <path d="M125.683 139.29L140.427 126.851C141.192 126.191 141.668 125.257 141.753 124.25C141.838 123.244 141.525 122.244 140.881 121.465C140.22 120.691 139.281 120.209 138.268 120.124C137.254 120.038 136.247 120.356 135.467 121.008L120.702 133.428C119.928 134.088 119.446 135.027 119.36 136.041C119.275 137.055 119.593 138.061 120.245 138.842C120.907 139.621 121.852 140.106 122.871 140.19C123.891 140.274 124.902 139.95 125.683 139.29Z" fill="#D0D5DD"/>
    <path d="M100.423 160.593L115.167 148.154C115.937 147.496 116.417 146.563 116.506 145.554C116.594 144.546 116.283 143.543 115.639 142.761C114.979 141.988 114.039 141.506 113.026 141.42C112.012 141.335 111.005 141.652 110.225 142.305L95.4811 154.744C94.7057 155.403 94.2221 156.342 94.1354 157.357C94.0487 158.371 94.366 159.378 95.0182 160.16C95.6817 160.928 96.6206 161.403 97.632 161.484C98.6434 161.565 99.6461 161.245 100.423 160.593Z" fill="#D0D5DD"/>
    <g opacity="0.8">
        <path d="M176.161 96.6996L190.9 84.2689C191.676 83.6093 192.159 82.6702 192.246 81.6558C192.333 80.6415 192.015 79.634 191.363 78.8523C190.704 78.0769 189.765 77.5933 188.75 77.5066C187.736 77.4199 186.728 77.7372 185.947 78.3894L171.203 90.8283C170.428 91.488 169.944 92.4271 169.857 93.4414C169.771 94.4557 170.088 95.4633 170.74 96.245C171.401 97.0202 172.342 97.503 173.357 97.5881C174.372 97.6733 175.38 97.3539 176.161 96.6996Z" fill="white"/>
        <path d="M150.913 117.998L165.656 105.559C166.424 104.901 166.903 103.967 166.991 102.959C167.078 101.951 166.766 100.95 166.122 100.169C165.462 99.3952 164.523 98.9132 163.509 98.8277C162.495 98.7421 161.489 99.0599 160.708 99.7121L145.97 112.149C145.195 112.808 144.712 113.748 144.625 114.762C144.538 115.776 144.855 116.784 145.508 117.565C146.171 118.333 147.11 118.809 148.121 118.89C149.133 118.971 150.135 118.651 150.913 117.998Z" fill="white"/>
        <path d="M125.683 139.29L140.426 126.851C141.191 126.191 141.667 125.257 141.752 124.25C141.837 123.244 141.524 122.244 140.88 121.465C140.22 120.691 139.281 120.209 138.267 120.124C137.253 120.038 136.247 120.356 135.466 121.008L120.701 133.428C119.928 134.088 119.445 135.027 119.36 136.041C119.274 137.055 119.592 138.061 120.244 138.842C120.907 139.621 121.851 140.106 122.871 140.19C123.891 140.274 124.902 139.95 125.683 139.29Z" fill="white"/>
        <path d="M100.423 160.592L115.166 148.153C115.936 147.495 116.417 146.562 116.505 145.553C116.593 144.545 116.282 143.542 115.638 142.761C114.978 141.987 114.039 141.505 113.025 141.419C112.012 141.334 111.005 141.651 110.224 142.304L95.4806 154.743C94.7052 155.402 94.2216 156.341 94.1349 157.356C94.0482 158.37 94.3655 159.378 95.0177 160.159C95.6812 160.927 96.6201 161.402 97.6315 161.483C98.6429 161.564 99.6456 161.244 100.423 160.592Z" fill="white"/>
    </g>
    <path d="M172.602 60.7006L159.483 71.7673C158.369 72.7073 158.228 74.3725 159.168 75.4868L165.735 83.2715C166.675 84.3858 168.34 84.5271 169.454 83.5872L182.573 72.5204C183.687 71.5805 183.829 69.9152 182.889 68.801L176.322 61.0162C175.382 59.9019 173.717 59.7606 172.602 60.7006Z" fill="#D0D5DD"/>
    <path opacity="0.3" d="M172.602 60.7006L159.483 71.7673C158.369 72.7073 158.228 74.3725 159.168 75.4868L165.735 83.2715C166.675 84.3858 168.34 84.5271 169.454 83.5872L182.573 72.5204C183.687 71.5805 183.829 69.9152 182.889 68.801L176.322 61.0162C175.382 59.9019 173.717 59.7606 172.602 60.7006Z" fill="#000407"/>
    <path d="M87.5868 112.097C86.7994 111.162 85.8354 110.391 84.7498 109.828C83.6642 109.266 82.4784 108.922 81.2601 108.819C80.0419 108.715 78.8151 108.852 77.6499 109.222C76.4847 109.593 75.404 110.19 74.4696 110.978L63.9848 120.216L63.8443 120.317L63.5404 120.605L63.3497 120.774C61.7138 122.415 60.7732 124.624 60.7233 126.941C60.6734 129.259 61.518 131.506 63.0817 133.216C64.6454 134.927 66.808 135.97 69.1203 136.128C71.4325 136.285 73.7167 135.546 75.4984 134.064L85.6145 125.814C85.9198 125.613 86.2141 125.395 86.4963 125.162C86.7041 124.987 86.9025 124.802 87.0907 124.606C88.7163 122.957 89.6681 120.761 89.7598 118.448C89.8516 116.134 89.0767 113.87 87.5868 112.097Z" fill="#D0D5DD"/>
    <path opacity="0.8" d="M87.5868 112.097C86.7994 111.162 85.8354 110.391 84.7498 109.828C83.6642 109.266 82.4784 108.922 81.2601 108.819C80.0419 108.715 78.8151 108.852 77.6499 109.222C76.4847 109.593 75.404 110.19 74.4696 110.978L63.9848 120.216L63.8443 120.317L63.5404 120.605L63.3497 120.774C61.7138 122.415 60.7732 124.624 60.7233 126.941C60.6734 129.259 61.518 131.506 63.0817 133.216C64.6454 134.927 66.808 135.97 69.1203 136.128C71.4325 136.285 73.7167 135.546 75.4984 134.064L85.6145 125.814C85.9198 125.613 86.2141 125.395 86.4963 125.162C86.7041 124.987 86.9025 124.802 87.0907 124.606C88.7163 122.957 89.6681 120.761 89.7598 118.448C89.8516 116.134 89.0767 113.87 87.5868 112.097Z" fill="white"/>
    <circle cx="195.707" cy="173.491" r="23.783" fill="#F04438"/>
    <path d="M202.049 181.922L187.049 166.922C186.537 166.41 186.537 165.56 187.049 165.047C187.562 164.535 188.412 164.535 188.924 165.047L203.924 180.047C204.437 180.56 204.437 181.41 203.924 181.922C203.412 182.435 202.562 182.435 202.049 181.922Z" fill="white"/>
    <path d="M187.047 181.922C186.534 181.41 186.534 180.56 187.047 180.047L202.047 165.047C202.559 164.535 203.409 164.535 203.922 165.047C204.434 165.56 204.434 166.41 203.922 166.922L188.922 181.922C188.409 182.435 187.559 182.435 187.047 181.922Z" fill="white"/>
</svg>
