<svg width="22" height="22" viewBox="0 0 22 22" fill="none" xmlns="http://www.w3.org/2000/svg">
    <path fill-rule="evenodd" clip-rule="evenodd" d="M6.00018 20.25C4.17453 20.25 2.53542 19.8893 1.31756 19.3205C0.942259 19.1452 0.495925 19.3073 0.320641 19.6826C0.145358 20.0579 0.307502 20.5043 0.6828 20.6795C2.13001 21.3555 3.99168 21.75 6.00018 21.75C8.00867 21.75 9.87034 21.3555 11.3176 20.6795C12.5354 20.1107 14.1745 19.75 16.0002 19.75C17.8258 19.75 19.4649 20.1107 20.6828 20.6795C21.0581 20.8548 21.5044 20.6927 21.6797 20.3174C21.855 19.9421 21.6929 19.4957 21.3176 19.3205C19.8703 18.6445 18.0087 18.25 16.0002 18.25C13.9917 18.25 12.13 18.6445 10.6828 19.3205C9.46493 19.8893 7.82583 20.25 6.00018 20.25Z" fill="#1D2939"/>
    <path d="M10.6828 1.32046C12.13 0.644541 13.9916 0.25 16.0001 0.25C17.12 0.25 18.1906 0.372567 19.1676 0.596328L19.2259 0.60967C19.7728 0.734595 20.2184 0.836365 20.7065 1.22264C20.9986 1.45372 21.3232 1.86108 21.4832 2.19734C21.7514 2.76081 21.7509 3.31824 21.7502 4.00843V4.00845L21.7501 4.11397V14.886C21.7501 16.4532 20.1591 17.3623 18.8327 17.0585C17.9702 16.8609 17.0121 16.75 16.0001 16.75C14.1745 16.75 12.5354 17.1107 11.3175 17.6795C9.8703 18.3555 8.00863 18.75 6.00013 18.75C4.88029 18.75 3.80962 18.6274 2.83269 18.4037L2.77432 18.3903C2.22743 18.2654 1.78191 18.1636 1.29374 17.7774C1.0017 17.5463 0.67709 17.1389 0.517044 16.8027C0.248853 16.2392 0.249395 15.6817 0.250066 14.9915L0.250134 14.886V4.11397C0.250134 2.54678 1.84114 1.63772 3.16758 1.94153C4.03002 2.13907 4.98813 2.25 6.00013 2.25C7.82578 2.25 9.46489 1.88927 10.6828 1.32046Z" fill="#D0D5DD"/>
    <path fill-rule="evenodd" clip-rule="evenodd" d="M4.5 9.5C5.05228 9.5 5.5 9.94772 5.5 10.5L5.5 10.509C5.5 11.0613 5.05228 11.509 4.5 11.509C3.94772 11.509 3.5 11.0613 3.5 10.509L3.5 10.5C3.5 9.94772 3.94772 9.5 4.5 9.5Z" fill="#1D2939"/>
    <path fill-rule="evenodd" clip-rule="evenodd" d="M17.5 7.49219C18.0523 7.49219 18.5 7.9399 18.5 8.49219L18.5 8.50117C18.5 9.05345 18.0523 9.50117 17.5 9.50117C16.9477 9.50117 16.5 9.05345 16.5 8.50117L16.5 8.49219C16.5 7.9399 16.9477 7.49219 17.5 7.49219Z" fill="#1D2939"/>
    <path d="M14 9.5C14 11.1569 12.6569 12.5 11 12.5C9.34315 12.5 8 11.1569 8 9.5C8 7.84315 9.34315 6.5 11 6.5C12.6569 6.5 14 7.84315 14 9.5Z" fill="#1D2939"/>
</svg>
