<svg width="16" height="16" viewBox="0 0 16 16" fill="none" xmlns="http://www.w3.org/2000/svg">
    <path d="M12.3126 11.2199L12.5726 13.3266C12.6392 13.8799 12.0459 14.2666 11.5726 13.9799L8.77925 12.3199C8.47258 12.3199 8.17259 12.2999 7.87925 12.2599C8.37259 11.6799 8.66591 10.9466 8.66591 10.1532C8.66591 8.25991 7.02591 6.7266 4.99925 6.7266C4.22591 6.7266 3.51258 6.94659 2.91925 7.33325C2.89925 7.16659 2.89258 6.99991 2.89258 6.82658C2.89258 3.79325 5.52591 1.33325 8.77925 1.33325C12.0326 1.33325 14.6659 3.79325 14.6659 6.82658C14.6659 8.62658 13.7392 10.2199 12.3126 11.2199Z" fill="#077BF8"/>
    <path d="M8.66732 10.1532C8.66732 10.9465 8.37399 11.6799 7.88066 12.2599C7.22066 13.0599 6.17398 13.5732 5.00065 13.5732L3.26065 14.6065C2.96732 14.7865 2.59398 14.5399 2.63398 14.1999L2.80065 12.8866C1.90732 12.2666 1.33398 11.2732 1.33398 10.1532C1.33398 8.97986 1.96065 7.94654 2.92065 7.33321C3.51399 6.94654 4.22732 6.72656 5.00065 6.72656C7.02732 6.72656 8.66732 8.25986 8.66732 10.1532Z" fill="#000D1C"/>
</svg>
