<svg width="16" height="16" viewBox="0 0 16 16" fill="none" xmlns="http://www.w3.org/2000/svg">
    <path d="M10.6673 1.33325H5.33398C2.66732 1.33325 1.33398 2.66659 1.33398 5.33325V13.9999C1.33398 14.3666 1.63398 14.6666 2.00065 14.6666H10.6673C13.334 14.6666 14.6673 13.3333 14.6673 10.6666V5.33325C14.6673 2.66659 13.334 1.33325 10.6673 1.33325Z" fill="#077BF8"/>
    <path d="M11.3327 5.83325H4.66602C4.39268 5.83325 4.16602 6.05992 4.16602 6.33325C4.16602 6.60659 4.39268 6.83325 4.66602 6.83325H11.3327C11.606 6.83325 11.8327 6.60659 11.8327 6.33325C11.8327 6.05992 11.606 5.83325 11.3327 5.83325Z" fill="#000D1C"/>
    <path d="M9.33268 9.1665H4.66602C4.39268 9.1665 4.16602 9.39317 4.16602 9.6665C4.16602 9.93984 4.39268 10.1665 4.66602 10.1665H9.33268C9.60602 10.1665 9.83268 9.93984 9.83268 9.6665C9.83268 9.39317 9.60602 9.1665 9.33268 9.1665Z" fill="#000D1C"/>
</svg>
