<svg width="40" height="40" viewBox="0 0 40 40" fill="none" xmlns="http://www.w3.org/2000/svg">
<path d="M15.3365 34.3347C15.8827 34.2625 16.4345 34.4106 16.8697 34.7458L18.8751 36.2847C19.538 36.7939 20.4601 36.7939 21.1212 36.2847L23.2025 34.6865C23.5913 34.3884 24.082 34.2569 24.5672 34.3217L27.1707 34.6643C27.9984 34.7736 28.7965 34.3125 29.1168 33.5403L30.1186 31.1181C30.3056 30.6644 30.6648 30.3052 31.1185 30.1182L33.5405 29.1163C34.3127 28.7978 34.7738 27.9978 34.6645 27.1701L34.3349 24.6609C34.2627 24.1146 34.4108 23.5628 34.746 23.1276L36.2847 21.1221C36.7939 20.4592 36.7939 19.537 36.2847 18.8759L34.6867 16.7945C34.3886 16.4056 34.2571 15.9148 34.3219 15.4297L34.6645 12.826C34.7738 11.9983 34.3127 11.2002 33.5405 10.8798L31.1185 9.87798C30.6648 9.69095 30.3056 9.3317 30.1186 8.87801L29.1168 6.45585C28.7983 5.68365 27.9984 5.22255 27.1707 5.33181L24.5672 5.67439C24.082 5.74106 23.5913 5.60958 23.2043 5.31329L21.123 3.71519C20.4601 3.20594 19.538 3.20594 18.8769 3.71519L16.7956 5.31329C16.4068 5.60958 15.9161 5.74105 15.4309 5.67809L12.8274 5.33551C11.9997 5.22625 11.2016 5.68735 10.8813 6.45955L9.88138 8.88171C9.6925 9.33355 9.33328 9.6928 8.88146 9.88168L6.45944 10.8817C5.68728 11.202 5.22621 12.0001 5.33546 12.8279L5.67802 15.4315C5.74098 15.9167 5.60951 16.4074 5.31324 16.7945L3.71523 18.8759C3.20601 19.5388 3.20601 20.461 3.71523 21.1221L5.31324 23.2035C5.61136 23.5924 5.74283 24.0831 5.67802 24.5683L5.33546 27.1719C5.22621 27.9997 5.68728 28.7978 6.45944 29.1182L8.88146 30.12C9.33513 30.307 9.69436 30.6663 9.88138 31.12L10.8831 33.5421C11.2016 34.3143 12.0016 34.7754 12.8293 34.6662L15.3365 34.3347Z" fill="#32D583"/>
<path d="M15 19.9999L18.3333 23.3333L25.8333 15.8333M15.3365 34.3347C15.8827 34.2625 16.4345 34.4106 16.8697 34.7458L18.8751 36.2847C19.538 36.7939 20.4601 36.7939 21.1212 36.2847L23.2025 34.6865C23.5913 34.3884 24.082 34.2569 24.5672 34.3217L27.1707 34.6643C27.9984 34.7736 28.7965 34.3125 29.1168 33.5403L30.1186 31.1181C30.3056 30.6644 30.6648 30.3052 31.1185 30.1182L33.5405 29.1163C34.3127 28.7978 34.7737 27.9978 34.6645 27.1701L34.3349 24.6609C34.2627 24.1146 34.4108 23.5628 34.746 23.1276L36.2847 21.1221C36.7939 20.4592 36.7939 19.537 36.2847 18.8759L34.6867 16.7945C34.3886 16.4056 34.2571 15.9148 34.3219 15.4297L34.6645 12.826C34.7737 11.9983 34.3127 11.2002 33.5405 10.8798L31.1185 9.87798C30.6648 9.69095 30.3056 9.3317 30.1186 8.87801L29.1168 6.45585C28.7983 5.68365 27.9984 5.22255 27.1707 5.33181L24.5672 5.67439C24.082 5.74106 23.5913 5.60958 23.2043 5.31329L21.123 3.71519C20.4601 3.20594 19.538 3.20594 18.8769 3.71519L16.7956 5.31329C16.4068 5.60958 15.9161 5.74105 15.4309 5.67809L12.8274 5.33551C11.9997 5.22625 11.2016 5.68735 10.8813 6.45955L9.88138 8.88171C9.6925 9.33355 9.33328 9.6928 8.88146 9.88168L6.45944 10.8817C5.68728 11.202 5.22621 12.0001 5.33546 12.8279L5.67802 15.4315C5.74098 15.9167 5.60951 16.4074 5.31324 16.7945L3.71523 18.8759C3.20601 19.5388 3.20601 20.461 3.71523 21.1221L5.31324 23.2035C5.61136 23.5924 5.74283 24.0831 5.67802 24.5683L5.33546 27.1719C5.22621 27.9997 5.68728 28.7978 6.45944 29.1182L8.88146 30.12C9.33513 30.307 9.69436 30.6663 9.88138 31.12L10.8831 33.5421C11.2016 34.3143 12.0016 34.7754 12.8293 34.6662L15.3365 34.3347Z" stroke="#D1FADF" stroke-width="2" stroke-linecap="round" stroke-linejoin="round"/>
<path d="M15 19.9999L18.3333 23.3333L25.8333 15.8333" stroke="#F6FEF9" stroke-width="2" stroke-linecap="round" stroke-linejoin="round"/>
</svg>
