<svg width="16" height="16" viewBox="0 0 16 16" fill="none" xmlns="http://www.w3.org/2000/svg">
    <path d="M10.7033 5.5C11.615 5.49999 12.3499 5.49998 12.9278 5.57768C13.5279 5.65836 14.0332 5.83096 14.4344 6.23223C14.8357 6.63351 15.0083 7.13876 15.089 7.73883C15.1667 8.31681 15.1667 9.05169 15.1667 9.96342V10.7032C15.1667 11.615 15.1667 12.3499 15.089 12.9278C15.0083 13.5279 14.8357 14.0332 14.4344 14.4344C14.0332 14.8357 13.5279 15.0083 12.9278 15.089C12.3499 15.1667 11.615 15.1667 10.7032 15.1667H9.96342C9.05169 15.1667 8.31681 15.1667 7.73883 15.089C7.13876 15.0083 6.63351 14.8357 6.23223 14.4344C5.83096 14.0332 5.65836 13.5279 5.57768 12.9278C5.49998 12.3499 5.49999 11.615 5.5 10.7033V10.7032V9.96342V9.96341C5.49999 9.05169 5.49998 8.31681 5.57768 7.73883C5.65836 7.13876 5.83096 6.63351 6.23223 6.23223C6.63351 5.83096 7.13876 5.65836 7.73883 5.57768C8.31681 5.49998 9.05169 5.49999 9.96341 5.5H9.96342H10.7033H10.7033Z" fill="#D0D5DD"/>
    <path d="M4.4987 9.90454C4.49864 9.04173 4.49859 8.25046 4.5853 7.6055C4.68083 6.89494 4.90559 6.14328 5.52383 5.52505C6.14206 4.90681 6.89372 4.68205 7.60428 4.58652C8.24924 4.49981 9.04051 4.49986 9.90332 4.49992L11.3941 4.49992C11.5914 4.49992 11.6901 4.49992 11.7494 4.43604C11.8088 4.37217 11.8017 4.27605 11.7875 4.08381C11.7752 3.91689 11.7595 3.7592 11.7395 3.61021C11.6533 2.97051 11.4808 2.43892 11.1132 1.99101C10.9816 1.83067 10.8346 1.68364 10.6743 1.55205C10.2016 1.16417 9.63585 0.993616 8.94853 0.912373C8.27906 0.833238 7.43282 0.833244 6.36465 0.833252H6.29942C5.23125 0.833244 4.38501 0.833238 3.71553 0.912372C3.02822 0.993615 2.46242 1.16417 1.98979 1.55205C1.82945 1.68364 1.68242 1.83067 1.55083 1.99101C1.16295 2.46364 0.992395 3.02944 0.911152 3.71675C0.832018 4.38623 0.832024 5.23246 0.832031 6.30064V6.36586C0.832024 7.43403 0.832017 8.28027 0.911152 8.94975C0.992395 9.63706 1.16295 10.2029 1.55083 10.6755C1.68242 10.8358 1.82945 10.9829 1.98979 11.1145C2.4377 11.482 2.96929 11.6545 3.60899 11.7407C3.75798 11.7607 3.91567 11.7765 4.08259 11.7888C4.27483 11.8029 4.37095 11.81 4.43482 11.7507C4.4987 11.6913 4.4987 11.5927 4.4987 11.3953V9.90454Z" fill="#1D2939"/>
</svg>
