<svg width="18" height="18" viewBox="0 0 18 18" fill="none" xmlns="http://www.w3.org/2000/svg">
<path fill-rule="evenodd" clip-rule="evenodd" d="M11.734 6.49479L6.85896 8.74439L6.23047 7.38241L11.1055 5.13281L11.734 6.49479ZM6.85896 9.25781L11.734 11.5074L11.1055 12.8694L6.23047 10.6198L6.85896 9.25781Z" fill="#BABDCB"/>
<path fill-rule="evenodd" clip-rule="evenodd" d="M10.6875 4.875C10.6875 3.3217 11.9467 2.0625 13.5 2.0625C15.0533 2.0625 16.3125 3.3217 16.3125 4.875C16.3125 6.4283 15.0533 7.6875 13.5 7.6875C11.9467 7.6875 10.6875 6.4283 10.6875 4.875Z" fill="#4A4E5B"/>
<path fill-rule="evenodd" clip-rule="evenodd" d="M1.6875 9C1.6875 7.4467 2.9467 6.1875 4.5 6.1875C6.0533 6.1875 7.3125 7.4467 7.3125 9C7.3125 10.5533 6.0533 11.8125 4.5 11.8125C2.9467 11.8125 1.6875 10.5533 1.6875 9Z" fill="#4A4E5B"/>
<path fill-rule="evenodd" clip-rule="evenodd" d="M10.6875 13.125C10.6875 11.5717 11.9467 10.3125 13.5 10.3125C15.0533 10.3125 16.3125 11.5717 16.3125 13.125C16.3125 14.6783 15.0533 15.9375 13.5 15.9375C11.9467 15.9375 10.6875 14.6783 10.6875 13.125Z" fill="#4A4E5B"/>
</svg>
