<svg width="20" height="20" viewBox="0 0 20 20" fill="none" xmlns="http://www.w3.org/2000/svg">
<path fill-rule="evenodd" clip-rule="evenodd" d="M8.53516 10.0001C8.53516 9.19467 9.18807 8.54175 9.99349 8.54175H10.001C10.8064 8.54175 11.4593 9.19467 11.4593 10.0001C11.4593 10.8055 10.8064 11.4584 10.001 11.4584H9.99349C9.18807 11.4584 8.53516 10.8055 8.53516 10.0001Z" fill="#D0D5DD"/>
<path fill-rule="evenodd" clip-rule="evenodd" d="M8.52734 15.0001C8.52734 14.1947 9.18026 13.5417 9.98568 13.5417H9.99316C10.7986 13.5417 11.4515 14.1947 11.4515 15.0001C11.4515 15.8055 10.7986 16.4584 9.99316 16.4584H9.98568C9.18026 16.4584 8.52734 15.8055 8.52734 15.0001Z" fill="#1D2939"/>
<path fill-rule="evenodd" clip-rule="evenodd" d="M8.53906 5.00008C8.53906 4.19467 9.19198 3.54175 9.9974 3.54175H10.0049C10.8103 3.54175 11.4632 4.19467 11.4632 5.00008C11.4632 5.8055 10.8103 6.45841 10.0049 6.45841H9.9974C9.19198 6.45841 8.53906 5.8055 8.53906 5.00008Z" fill="#1D2939"/>
</svg>
