<svg width="16" height="14" viewBox="0 0 16 14" fill="none" xmlns="http://www.w3.org/2000/svg">
    <path d="M6.15575 0.500009L6.21591 0.500018H9.78539L9.84555 0.500009C10.352 0.499891 10.6909 0.499811 11.0162 0.579223C11.1635 0.61518 11.3073 0.663171 11.4461 0.722759C11.754 0.855022 12.0171 1.05768 12.4038 1.35553L12.4508 1.39177L12.4721 1.40817L12.4722 1.40819C13.1696 1.94512 13.7223 2.3706 14.1287 2.75199C14.5439 3.14175 14.85 3.52433 15.0106 3.99128C15.1424 4.37462 15.192 4.77896 15.1558 5.18121C15.1116 5.67295 14.9034 6.1119 14.591 6.57849C14.286 7.03394 13.8489 7.56177 13.2991 8.22575L10.5938 11.4928C10.1028 12.0858 9.69921 12.5733 9.32874 12.9073C8.93974 13.258 8.52277 13.5 8.00065 13.5C7.47853 13.5 7.06156 13.258 6.67257 12.9073C6.30211 12.5733 5.89848 12.0858 5.4075 11.4928L5.40747 11.4928L2.70227 8.22581L2.70225 8.22579C2.15242 7.56179 1.71534 7.03395 1.41032 6.57849C1.09786 6.1119 0.88969 5.67295 0.845463 5.18121C0.809284 4.77896 0.858876 4.37462 0.990693 3.99128C1.15126 3.52433 1.45738 3.14175 1.87263 2.75199C2.27896 2.3706 2.83166 1.94512 3.52914 1.40819L3.55047 1.39177L3.59753 1.35552C3.98422 1.05768 4.24732 0.855021 4.55524 0.722759C4.69397 0.66317 4.83784 0.61518 4.98513 0.579223C5.31042 0.499811 5.64935 0.499891 6.15575 0.500009Z" fill="#077BF8"/>
</svg>
