<svg width="44" height="44" viewBox="0 0 44 44" fill="none" xmlns="http://www.w3.org/2000/svg">
    <rect width="44" height="44" rx="22" fill="#077BF8" fill-opacity="0.1"/>
    <path d="M16.2211 13.0167L16.1606 13.0053C15.4509 12.8718 14.8227 12.7536 14.2925 12.7502C13.6964 12.7463 13.156 12.8844 12.6642 13.3006C12.1563 13.7305 11.9382 14.2839 11.8402 14.9053C11.7499 15.4783 11.75 16.1967 11.75 17.0382L11.75 23.5477C11.75 24.3261 11.75 24.972 11.8066 25.4846C11.8652 26.0157 11.994 26.516 12.3358 26.9338C12.6914 27.3684 13.2074 27.5919 13.7569 27.7531C14.3033 27.9135 15.0211 28.0485 15.903 28.2143L15.9439 28.222C17.506 28.5158 18.7089 28.9808 19.5625 29.4358L19.5807 29.4455C20.0192 29.6792 20.3725 29.8675 20.6432 29.996C20.7812 30.0616 20.9161 30.1205 21.0425 30.164C21.1606 30.2045 21.3223 30.2501 21.5 30.2501C21.9142 30.2501 22.25 29.9143 22.25 29.5001V17.2C22.25 17.1466 22.25 17.1198 22.2525 17.1005C22.2608 17.0374 22.2683 17.018 22.3051 16.9661C22.3164 16.9501 22.3477 16.9162 22.4104 16.8483C22.823 16.4013 24.3226 15.3611 27.0522 14.855C27.8138 14.7138 28.2604 14.6346 28.5953 14.6325C28.8655 14.6308 28.9631 14.6803 29.0596 14.7608C29.1355 14.8242 29.2192 14.9205 29.2751 15.2703C29.3381 15.6643 29.3409 16.2061 29.3409 17.0763V19.8089C29.3409 20.3287 29.7683 20.7501 30.2954 20.7501C30.8226 20.7501 31.25 20.3287 31.25 19.8089L31.25 17.0073C31.2501 16.2275 31.2501 15.5351 31.1609 14.9772C31.0621 14.3588 30.8361 13.7772 30.2929 13.3239C29.7701 12.8877 29.1946 12.7463 28.5829 12.7502C28.0548 12.7535 27.4361 12.8684 26.7707 12.9919L26.6994 13.0051C24.4855 13.4156 22.8604 14.1655 21.85 14.8643C21.6574 14.9975 21.5611 15.0641 21.4684 15.0647C21.3758 15.0652 21.2792 15.0001 21.086 14.87C20.0557 14.1757 18.4293 13.432 16.2211 13.0167Z" fill="#077BF8"/>
    <path d="M28.5785 23.0539C28.9119 22.7206 29.0785 22.5539 29.2519 22.4538C29.7225 22.1821 30.3022 22.1821 30.7727 22.4538C30.9461 22.5539 31.1128 22.7206 31.4461 23.0539C31.7795 23.3873 31.9461 23.5539 32.0463 23.7273C32.3179 24.1979 32.3179 24.7776 32.0463 25.2481C31.9461 25.4215 31.7795 25.5882 31.4461 25.9215L27.1383 30.2294C26.4774 30.8902 25.4801 30.9171 24.5977 31.1058C23.9078 31.2533 23.5628 31.327 23.3679 31.1321C23.173 30.9372 23.2468 30.5923 23.3943 29.9023C23.5829 29.02 23.6098 28.0226 24.2707 27.3617L28.5785 23.0539Z" fill="#000D1C"/>
</svg>
