<svg width="38" height="38" viewBox="0 0 38 38" fill="none" xmlns="http://www.w3.org/2000/svg">
<path d="M0.5 19C0.5 18.3876 0.52974 17.7823 0.587829 17.1854L0.0901802 17.137C0.212616 15.8789 0.457746 14.6568 0.813452 13.4827L1.29197 13.6277C1.64637 12.458 2.11353 11.3372 2.68088 10.2779L2.24012 10.0419C2.82996 8.94064 3.52515 7.90431 4.31224 6.94634L4.69857 7.26375C5.4679 6.32739 6.32739 5.4679 7.26376 4.69857L6.94634 4.31224C7.90431 3.52515 8.94065 2.82995 10.0419 2.24012L10.2779 2.68088C11.3372 2.11353 12.458 1.64636 13.6277 1.29197L13.4827 0.813452C14.6568 0.457746 15.8789 0.212616 17.137 0.0901803L17.1854 0.587829C17.7823 0.52974 18.3876 0.5 19 0.5C19.6124 0.5 20.2177 0.52974 20.8146 0.587829L20.863 0.0901802C22.1211 0.212616 23.3432 0.457746 24.5173 0.813452L24.3723 1.29197C25.542 1.64637 26.6628 2.11353 27.7221 2.68088L27.9581 2.24012C29.0594 2.82996 30.0957 3.52515 31.0537 4.31224L30.7362 4.69857C31.6726 5.4679 32.5321 6.32739 33.3014 7.26376L33.6878 6.94634C34.4748 7.90431 35.17 8.94065 35.7599 10.0419L35.3191 10.2779C35.8865 11.3372 36.3536 12.458 36.708 13.6277L37.1866 13.4827C37.5423 14.6568 37.7874 15.8789 37.9098 17.137L37.4122 17.1854C37.4703 17.7823 37.5 18.3876 37.5 19C37.5 19.6124 37.4703 20.2177 37.4122 20.8146L37.9098 20.863C37.7874 22.1211 37.5423 23.3432 37.1866 24.5173L36.708 24.3723C36.3536 25.542 35.8865 26.6628 35.3191 27.7221L35.7599 27.9581C35.17 29.0594 34.4748 30.0957 33.6878 31.0537L33.3014 30.7362C32.5321 31.6726 31.6726 32.5321 30.7362 33.3014L31.0537 33.6878C30.0957 34.4748 29.0594 35.17 27.9581 35.7599L27.7221 35.3191C26.6628 35.8865 25.542 36.3536 24.3723 36.708L24.5173 37.1866C23.3432 37.5423 22.1211 37.7874 20.863 37.9098L20.8146 37.4122C20.2177 37.4703 19.6124 37.5 19 37.5C18.3876 37.5 17.7823 37.4703 17.1854 37.4122L17.137 37.9098C15.8789 37.7874 14.6568 37.5423 13.4827 37.1866L13.6277 36.708C12.458 36.3536 11.3372 35.8865 10.2779 35.3191L10.0419 35.7599C8.94064 35.17 7.90431 34.4748 6.94634 33.6878L7.26375 33.3014C6.32739 32.5321 5.4679 31.6726 4.69857 30.7362L4.31224 31.0537C3.52515 30.0957 2.82995 29.0594 2.24012 27.9581L2.68088 27.7221C2.11353 26.6628 1.64636 25.542 1.29197 24.3723L0.813452 24.5173C0.457746 23.3432 0.212616 22.1211 0.0901803 20.863L0.587829 20.8146C0.52974 20.2177 0.5 19.6124 0.5 19Z" stroke="#077BF8" stroke-dasharray="4 4"/>
<path fill-rule="evenodd" clip-rule="evenodd" d="M19 12.0625C19.5178 12.0625 19.9375 12.4822 19.9375 13V25C19.9375 25.5178 19.5178 25.9375 19 25.9375C18.4822 25.9375 18.0625 25.5178 18.0625 25V13C18.0625 12.4822 18.4822 12.0625 19 12.0625Z" fill="#077BF8"/>
<path fill-rule="evenodd" clip-rule="evenodd" d="M12.0625 19C12.0625 18.4822 12.4822 18.0625 13 18.0625H25C25.5178 18.0625 25.9375 18.4822 25.9375 19C25.9375 19.5178 25.5178 19.9375 25 19.9375H13C12.4822 19.9375 12.0625 19.5178 12.0625 19Z" fill="#077BF8"/>
</svg>
