<svg width="40" height="40" viewBox="0 0 40 40" fill="none" xmlns="http://www.w3.org/2000/svg">
    <circle cx="20" cy="20" r="20" fill="#077BF8" fill-opacity="0.1"/>
    <path d="M20 10C17.38 10 15.25 12.13 15.25 14.75C15.25 17.32 17.26 19.4 19.88 19.49C19.96 19.48 20.04 19.48 20.1 19.49C20.12 19.49 20.13 19.49 20.15 19.49C20.16 19.49 20.16 19.49 20.17 19.49C22.73 19.4 24.74 17.32 24.75 14.75C24.75 12.13 22.62 10 20 10Z" fill="#D0D5DD"/>
    <path d="M25.0809 22.1499C22.2909 20.2899 17.7409 20.2899 14.9309 22.1499C13.6609 22.9999 12.9609 24.1499 12.9609 25.3799C12.9609 26.6099 13.6609 27.7499 14.9209 28.5899C16.3209 29.5299 18.1609 29.9999 20.0009 29.9999C21.8409 29.9999 23.6809 29.5299 25.0809 28.5899C26.3409 27.7399 27.0409 26.5999 27.0409 25.3599C27.0309 24.1299 26.3409 22.9899 25.0809 22.1499Z" fill="#1D2939"/>
</svg>
