<svg width="18" height="18" viewBox="0 0 18 18" fill="none" xmlns="http://www.w3.org/2000/svg">
<path d="M14.2649 2.61C12.8099 1.155 11.3849 1.1175 9.89243 2.61L8.98493 3.5175C8.90993 3.5925 8.87993 3.7125 8.90993 3.8175C9.47993 5.805 11.0699 7.395 13.0574 7.965C13.0874 7.9725 13.1174 7.98 13.1474 7.98C13.2299 7.98 13.3049 7.95 13.3649 7.89L14.2649 6.9825C15.0074 6.2475 15.3674 5.535 15.3674 4.815C15.3749 4.0725 15.0149 3.3525 14.2649 2.61Z" fill="#D0D5DD"/>
<path d="M11.7082 8.6476C11.4907 8.5426 11.2807 8.4376 11.0782 8.3176C10.9132 8.2201 10.7557 8.1151 10.5982 8.0026C10.4707 7.9201 10.3207 7.8001 10.1782 7.6801C10.1632 7.6726 10.1107 7.6276 10.0507 7.5676C9.80323 7.3576 9.52573 7.0876 9.27823 6.7876C9.25573 6.7726 9.21823 6.7201 9.16573 6.6526C9.09073 6.5626 8.96323 6.4126 8.85073 6.2401C8.76073 6.1276 8.65573 5.9626 8.55823 5.7976C8.43823 5.5951 8.33323 5.3926 8.22823 5.1826C8.12323 4.9576 8.04073 4.7401 7.96573 4.5376L3.25573 9.2476C3.15823 9.3451 3.06823 9.5326 3.04573 9.6601L2.64073 12.5326C2.56573 13.0426 2.70823 13.5226 3.02323 13.8451C3.29323 14.1076 3.66823 14.2501 4.07323 14.2501C4.16323 14.2501 4.25323 14.2426 4.34323 14.2276L7.22323 13.8226C7.35823 13.8001 7.54573 13.7101 7.63573 13.6126L12.3457 8.9026C12.1357 8.8276 11.9332 8.7451 11.7082 8.6476Z" fill="#1D2939"/>
</svg>
