<svg width="14" height="14" viewBox="0 0 14 14" fill="none" xmlns="http://www.w3.org/2000/svg">
<g clip-path="url(#clip0_2131_21191)">
<path d="M8.78106 3.13538C9.71744 3.13537 10.462 3.13536 11.0453 3.20889C11.6449 3.28446 12.1402 3.44433 12.5349 3.81432C12.9335 4.18806 13.1095 4.66354 13.192 5.23865C13.2712 5.79093 13.2712 6.49355 13.2712 7.36681V7.36683V8.52892V8.52894C13.2712 9.4022 13.2712 10.1048 13.192 10.6571C13.1095 11.2322 12.9335 11.7077 12.5349 12.0814C12.1402 12.4514 11.6449 12.6113 11.0453 12.6869C10.462 12.7604 9.71745 12.7604 8.78109 12.7604H8.78105H5.2196H5.21957C4.2832 12.7604 3.53869 12.7604 2.95535 12.6869C2.35579 12.6113 1.86042 12.4514 1.46576 12.0814C1.0671 11.7077 0.891148 11.2322 0.808672 10.6571C0.729469 10.1048 0.729479 9.40219 0.729492 8.52892V8.52891V7.36684V7.36683C0.729479 6.49357 0.729469 5.79094 0.808672 5.23865C0.891148 4.66354 1.0671 4.18806 1.46576 3.81432C1.86042 3.44433 2.35579 3.28446 2.95535 3.20889C3.5387 3.13536 4.28321 3.13537 5.21959 3.13538H5.21959H8.78106Z" fill="#D0D5DD"/>
<path fill-rule="evenodd" clip-rule="evenodd" d="M7.00033 5.61462C7.32249 5.61462 7.58366 5.87579 7.58366 6.19796V7.36462H8.75033C9.07249 7.36462 9.33366 7.62579 9.33366 7.94796C9.33366 8.27012 9.07249 8.53129 8.75033 8.53129H7.58366V9.69796C7.58366 10.0201 7.32249 10.2813 7.00033 10.2813C6.67816 10.2813 6.41699 10.0201 6.41699 9.69796V8.53129H5.25033C4.92816 8.53129 4.66699 8.27012 4.66699 7.94796C4.66699 7.62579 4.92816 7.36462 5.25033 7.36462H6.41699V6.19796C6.41699 5.87579 6.67816 5.61462 7.00033 5.61462Z" fill="#1D2939"/>
<path d="M4.67974 3.13592C4.68914 3.00645 4.70346 2.90081 4.72258 2.81376C4.75838 2.65078 4.80267 2.59225 4.82754 2.56738C4.85241 2.54251 4.91094 2.49822 5.07392 2.46242C5.2435 2.42516 5.48366 2.40617 5.833 2.40617H8.16633C8.51566 2.40617 8.75582 2.42516 8.92541 2.46242C9.08839 2.49822 9.14692 2.54251 9.17179 2.56738C9.19666 2.59225 9.24094 2.65078 9.27675 2.81376C9.29587 2.90081 9.31018 3.00645 9.31958 3.13592C9.75617 3.13741 10.145 3.14268 10.49 3.16133C10.4788 2.94618 10.4563 2.74591 10.4162 2.56343C10.3501 2.26255 10.2284 1.97407 9.99675 1.74242C9.7651 1.51077 9.47661 1.38902 9.17573 1.32292C8.88146 1.25828 8.54091 1.2395 8.16633 1.2395H5.833C5.45841 1.2395 5.11787 1.25828 4.82359 1.32292C4.52271 1.38902 4.23423 1.51077 4.00258 1.74242C3.77093 1.97407 3.64918 2.26255 3.58308 2.56343C3.543 2.74591 3.52055 2.94618 3.50928 3.16133C3.85433 3.14268 4.24315 3.13741 4.67974 3.13592Z" fill="#1D2939"/>
</g>
<defs>
<clipPath id="clip0_2131_21191">
<rect width="14" height="14" fill="white"/>
</clipPath>
</defs>
</svg>
