<svg width="44" height="44" viewBox="0 0 44 44" fill="none" xmlns="http://www.w3.org/2000/svg">
<path d="M0 22C0 9.84974 9.84974 0 22 0C34.1503 0 44 9.84974 44 22C44 34.1503 34.1503 44 22 44C9.84974 44 0 34.1503 0 22Z" fill="#F04438" fill-opacity="0.05"/>
<path d="M20.5513 14.125H14.9526C14.2878 14.125 13.7148 14.1249 13.2561 14.1866C12.7645 14.2527 12.2932 14.4018 11.911 14.784C11.5287 15.1663 11.3797 15.6375 11.3136 16.1292C11.2519 16.5879 11.2519 17.1608 11.252 17.8256V24.9245C11.2519 25.5893 11.2519 26.1621 11.3136 26.6209C11.3797 27.1125 11.5287 27.5838 11.911 27.966C12.2385 28.2935 12.6257 28.4493 13.0437 28.5292C13.1617 28.5518 13.2206 28.563 13.2577 28.5287C13.2948 28.4943 13.2875 28.4298 13.2729 28.3009C13.2571 28.1611 13.249 28.019 13.249 27.875C13.249 25.8039 14.928 24.125 16.999 24.125C19.0701 24.125 20.749 25.8039 20.749 27.875C20.749 27.882 20.749 27.889 20.749 27.896C20.747 28.2641 20.7459 28.4481 20.8339 28.5366C20.9219 28.625 21.0839 28.625 21.408 28.625L22.59 28.625C22.9141 28.625 23.0762 28.625 23.1641 28.5366C23.2521 28.4481 23.2511 28.2641 23.2491 27.896C23.249 27.889 23.249 27.882 23.249 27.875C23.249 25.8039 24.928 24.125 26.999 24.125C29.0701 24.125 30.749 25.8039 30.749 27.875C30.749 28.0274 30.7399 28.1776 30.7223 28.3252C30.7056 28.4642 30.8171 28.5903 30.9557 28.5709C31.4376 28.5035 31.888 28.317 32.2148 27.9473C32.5326 27.5879 32.6507 27.1605 32.7029 26.7295C32.7408 26.4171 32.7494 26.0459 32.7514 25.625H31.752C31.3377 25.625 31.002 25.2892 31.002 24.875C31.002 24.4608 31.3377 24.125 31.752 24.125H32.7328C32.7076 23.7363 32.6491 23.395 32.4802 23.0508C32.1837 22.446 31.6483 22.0794 30.9752 21.6184C30.2792 21.1415 29.719 20.5545 29.2651 19.8427L29.247 19.8144C28.8919 19.2578 28.5988 18.7983 28.3235 18.4418C28.035 18.0684 27.732 17.7613 27.3356 17.5369C26.9366 17.311 26.5222 17.2135 26.0625 17.168C25.8941 17.1513 25.752 17.287 25.752 17.4562V20.875C25.752 21.2892 25.4162 21.625 25.002 21.625C24.5877 21.625 24.252 21.2892 24.252 20.875V17.125H24.2489C24.2435 16.7516 24.2292 16.4178 24.1904 16.1292C24.1243 15.6375 23.9752 15.1663 23.593 14.784C23.2107 14.4018 22.7394 14.2527 22.2478 14.1866C21.7891 14.1249 21.2161 14.125 20.5513 14.125Z" fill="#F04438"/>
<path d="M32.7514 25.625H31.752C31.3377 25.625 31.002 25.2892 31.002 24.875C31.002 24.4608 31.3377 24.125 31.752 24.125H32.7328L32.7514 25.625Z" fill="#7A271A"/>
<path fill-rule="evenodd" clip-rule="evenodd" d="M18.002 17.125C18.4162 17.125 18.752 17.4608 18.752 17.875V19.125H20.002C20.4162 19.125 20.752 19.4608 20.752 19.875C20.752 20.2892 20.4162 20.625 20.002 20.625H18.752V21.875C18.752 22.2892 18.4162 22.625 18.002 22.625C17.5877 22.625 17.252 22.2892 17.252 21.875V20.625H16.002C15.5877 20.625 15.252 20.2892 15.252 19.875C15.252 19.4608 15.5877 19.125 16.002 19.125H17.252V17.875C17.252 17.4608 17.5877 17.125 18.002 17.125Z" fill="#7A271A"/>
<circle cx="27" cy="27.875" r="2.5" fill="#7A271A"/>
<circle cx="17" cy="27.875" r="2.5" fill="#7A271A"/>
</svg>
