<svg width="14" height="14" viewBox="0 0 14 14" fill="none" xmlns="http://www.w3.org/2000/svg">
<path d="M7.00161 10.1209C7.52675 10.1209 7.95245 9.6952 7.95245 9.17007C7.95245 8.64494 7.52675 8.21924 7.00161 8.21924C6.47648 8.21924 6.05078 8.64494 6.05078 9.17007C6.05078 9.6952 6.47648 10.1209 7.00161 10.1209Z" fill="#F79009"/>
<path d="M9.7138 5.50659H4.2888C1.89714 5.50659 1.16797 6.23576 1.16797 8.62743V9.71243C1.16797 12.1041 1.89714 12.8333 4.2888 12.8333H9.7138C12.1055 12.8333 12.8346 12.1041 12.8346 9.71243V8.62743C12.8346 6.23576 12.1055 5.50659 9.7138 5.50659ZM7.0013 10.9316C6.02714 10.9316 5.23963 10.1383 5.23963 9.16993C5.23963 8.20159 6.02714 7.40826 7.0013 7.40826C7.97547 7.40826 8.76297 8.20159 8.76297 9.16993C8.76297 10.1383 7.97547 10.9316 7.0013 10.9316Z" fill="#F79009"/>
<path d="M4.1526 5.51258V4.83008C4.1526 3.12091 4.63677 1.98341 6.99927 1.98341C9.36177 1.98341 9.84594 3.12091 9.84594 4.83008V5.51258C10.1434 5.51841 10.4118 5.53008 10.6626 5.56508V4.83008C10.6626 3.25508 10.2834 1.16675 6.99927 1.16675C3.7151 1.16675 3.33594 3.25508 3.33594 4.83008V5.55925C3.58094 5.53008 3.8551 5.51258 4.1526 5.51258Z" fill="#F79009"/>
</svg>
