<svg width="25" height="24" viewBox="0 0 25 24" fill="none" xmlns="http://www.w3.org/2000/svg">
<path d="M12.5 22C18.0228 22 22.5 17.5228 22.5 12C22.5 6.47715 18.0228 2 12.5 2C6.97715 2 2.5 6.47715 2.5 12C2.5 17.5228 6.97715 22 12.5 22Z" fill="#D0D5DD"/>
<path d="M16.5329 6.91311C15.387 7.28557 12.3225 8.40204 10.8826 10.0829C9.4427 11.7638 8.46953 15.359 8.14376 16.7034C8.12941 16.7595 8.12742 16.8176 8.13798 16.8721C8.14854 16.9266 8.17129 16.9756 8.20399 17.0143C8.23669 17.053 8.27822 17.08 8.3245 17.0928C8.37079 17.1055 8.42025 17.1035 8.46803 17.087C9.61393 16.7145 12.6785 15.5981 14.1184 13.9172C15.5583 12.2363 16.5314 8.64113 16.8572 7.29672C16.8715 7.24065 16.8735 7.18251 16.863 7.12801C16.8524 7.07351 16.8297 7.02451 16.797 6.98583C16.7643 6.94714 16.7227 6.9201 16.6765 6.90735C16.6302 6.8946 16.5807 6.89659 16.5329 6.91311Z" fill="#1D2939"/>
<circle cx="12.5" cy="12" r="1" fill="#D0D5DD"/>
</svg>
