<svg width="24" height="24" viewBox="0 0 24 24" fill="none" xmlns="http://www.w3.org/2000/svg">
<circle cx="12" cy="12" r="12" fill="#077BF8" fill-opacity="0.1"/>
<g clip-path="url(#clip0_2288_18257)">
<path fill-rule="evenodd" clip-rule="evenodd" d="M13.335 15.3004C12.5769 15.3994 11.4283 15.323 9.61508 14.8697C7.84673 14.4276 6.93982 14.342 6.448 14.3867C6.21847 14.4075 6.10492 14.4549 6.04189 14.4905C5.97116 14.5305 5.91808 14.5792 5.80344 14.6939C5.54309 14.9542 5.12098 14.9542 4.86063 14.6939C4.60028 14.4335 4.60028 14.0114 4.86063 13.7511C4.86443 13.7473 4.86832 13.7434 4.87228 13.7394C4.98027 13.6313 5.1462 13.4651 5.38617 13.3296C5.64266 13.1847 5.94588 13.0934 6.32754 13.0588C6.90343 13.0065 7.70467 13.0805 8.89346 13.333C8.65239 12.1086 8.62081 11.2644 8.69905 10.6646C8.74938 10.2787 8.84643 9.98369 8.97017 9.75236C9.09662 9.51594 9.23528 9.37728 9.30489 9.30768L9.30583 9.30674C9.37544 9.23713 9.51409 9.09847 9.75052 8.97201C9.98184 8.84828 10.2768 8.75123 10.6627 8.70089C11.4208 8.60201 12.5696 8.67856 14.3828 9.13185C16.1511 9.57393 17.0578 9.65936 17.5495 9.61467C17.7789 9.59381 17.8924 9.54634 17.9554 9.51073C18.0262 9.47073 18.0792 9.42196 18.194 9.30721C18.4543 9.04686 18.8764 9.04686 19.1368 9.30721C19.3971 9.56756 19.3971 9.98967 19.1368 10.25C19.1329 10.2539 19.129 10.2578 19.1249 10.2619C19.017 10.3699 18.8512 10.536 18.6115 10.6715C18.355 10.8164 18.0519 10.9078 17.6702 10.9425C17.0943 10.9949 16.2931 10.921 15.1044 10.6685C15.3454 11.8929 15.3769 12.7371 15.2986 13.3369C15.2481 13.7228 15.151 14.0177 15.0272 14.249C14.9008 14.4851 14.7622 14.6237 14.6927 14.6932L14.6914 14.6945C14.6219 14.7641 14.4833 14.9026 14.2471 15.029C14.0158 15.1529 13.7209 15.25 13.335 15.3004ZM13.6684 10.3312C12.1707 9.98507 11.3146 9.9605 10.8352 10.023C10.5822 10.056 10.4467 10.1117 10.3794 10.1477C10.3177 10.1807 10.2898 10.2084 10.2482 10.25C10.2065 10.2917 10.1789 10.3196 10.1459 10.3812C10.1099 10.4485 10.0542 10.5841 10.0212 10.837C9.95865 11.3164 9.98322 12.1725 10.3294 13.6703C11.8271 14.0164 12.6831 14.0409 13.1623 13.9783C13.4152 13.9453 13.5507 13.8895 13.6179 13.8535C13.6795 13.8205 13.7074 13.7929 13.7492 13.7511C13.791 13.7093 13.8187 13.6814 13.8517 13.6197C13.8877 13.5525 13.9434 13.417 13.9765 13.1642C14.039 12.6849 14.0146 11.8289 13.6684 10.3312Z" fill="#077BF8"/>
<path fill-rule="evenodd" clip-rule="evenodd" d="M9.30478 19.138C9.04443 18.8776 9.04443 18.4555 9.30478 18.1952C9.46401 18.0359 9.52996 17.9666 9.57691 17.7745C9.63671 17.5298 9.66142 17.0599 9.50155 16.1106C9.44041 15.7476 9.68517 15.4037 10.0483 15.3425C10.4113 15.2814 10.7552 15.5261 10.8164 15.8892C10.9857 16.8946 10.997 17.5801 10.8721 18.0911C10.7355 18.6502 10.4489 18.9367 10.2523 19.1333L10.2476 19.138C9.98724 19.3983 9.56513 19.3983 9.30478 19.138ZM13.9483 8.65733C13.5852 8.71848 13.2413 8.47372 13.1802 8.11064C13.0109 7.10536 12.9995 6.41996 13.1243 5.909C13.2609 5.34958 13.5475 5.063 13.7443 4.86622L13.7486 4.86185C14.009 4.6015 14.4311 4.6015 14.6915 4.86185C14.9518 5.1222 14.9518 5.54431 14.6915 5.80466C14.5324 5.96371 14.4665 6.03314 14.4195 6.22528C14.3598 6.47005 14.3351 6.94001 14.495 7.8892C14.5562 8.25227 14.3114 8.59618 13.9483 8.65733Z" fill="#000D1C"/>
</g>
<defs>
<clipPath id="clip0_2288_18257">
<rect width="16" height="16" fill="white" transform="translate(4 4)"/>
</clipPath>
</defs>
</svg>
