<svg width="16" height="16" viewBox="0 0 16 16" fill="none" xmlns="http://www.w3.org/2000/svg">
    <path d="M11.334 12.2868H8.66732L5.70064 14.2601C5.26064 14.5535 4.66732 14.2401 4.66732 13.7068V12.2868C2.66732 12.2868 1.33398 10.9535 1.33398 8.95345V4.95345C1.33398 2.95345 2.66732 1.62012 4.66732 1.62012H11.334C13.334 1.62012 14.6673 2.95345 14.6673 4.95345V8.95345C14.6673 10.9535 13.334 12.2868 11.334 12.2868Z" fill="#077BF8"/>
    <path d="M7.99923 8.07324C7.72589 8.07324 7.49923 7.84658 7.49923 7.57324V7.43327C7.49923 6.65993 8.06588 6.27993 8.27922 6.13326C8.52588 5.96659 8.60588 5.85326 8.60588 5.67993C8.60588 5.3466 8.33256 5.07324 7.99923 5.07324C7.66589 5.07324 7.39258 5.3466 7.39258 5.67993C7.39258 5.95326 7.16591 6.17993 6.89258 6.17993C6.61924 6.17993 6.39258 5.95326 6.39258 5.67993C6.39258 4.79326 7.11256 4.07324 7.99923 4.07324C8.88589 4.07324 9.60588 4.79326 9.60588 5.67993C9.60588 6.43993 9.0459 6.81992 8.83923 6.95992C8.57923 7.13325 8.49923 7.2466 8.49923 7.43327V7.57324C8.49923 7.85324 8.27256 8.07324 7.99923 8.07324Z" fill="#000D1C"/>
    <path d="M8 9.7334C7.72 9.7334 7.5 9.50673 7.5 9.2334C7.5 8.96007 7.72667 8.7334 8 8.7334C8.27333 8.7334 8.5 8.96007 8.5 9.2334C8.5 9.50673 8.28 9.7334 8 9.7334Z" fill="#000D1C"/>
</svg>
