<svg width="16" height="18" viewBox="0 0 16 18" fill="none" xmlns="http://www.w3.org/2000/svg">
    <path d="M3.73365 16.9854C4.47034 17.0625 6.39246 17.0625 7.54828 17.0625C7.95309 17.0625 8.28125 16.7343 8.28125 16.3295C8.28125 15.9247 7.95309 15.5966 7.54829 15.5966C6.34182 15.5966 4.53713 15.5956 3.88505 15.5274C3.24461 15.4604 2.88167 15.3353 2.61329 15.1455C2.4322 15.0175 2.27292 14.8666 2.13957 14.6984C1.9479 14.4565 1.82082 14.1319 1.75164 13.5418C1.68044 12.9345 1.67927 12.1415 1.67927 10.9989L1.6792 8.82378C1.67919 8.62351 1.67932 8.1446 1.88978 7.79046C2.01948 7.57223 2.18554 7.3899 2.35613 7.29704C2.63101 7.1474 2.94616 7.06237 3.28116 7.06237L4.06143 7.08974C4.34651 7.09566 4.67916 7.08666 5.00027 7.00062C5.62575 6.83302 6.11431 6.34446 6.2819 5.71898C6.36794 5.39787 6.37695 5.06522 6.37103 4.78015L6.34366 3.99987C6.34366 3.64911 6.43695 3.34376 6.59996 3.05995C6.69498 2.89451 6.86055 2.74309 7.0891 2.61011C7.43571 2.40843 7.85076 2.40656 8.10438 2.40541C8.358 2.40427 8.62558 2.40339 8.84912 2.40339C10.2247 2.40339 10.7251 2.41386 11.1026 2.54687C11.757 2.77746 12.2563 3.25869 12.4889 3.84772C12.5471 3.9952 12.5883 4.18901 12.6103 4.52498C12.6328 4.86748 12.6332 5.30469 12.6332 5.93489L12.6332 6.7697C12.6332 7.17302 12.9602 7.49997 13.3635 7.49997C13.7668 7.49997 14.0938 7.17302 14.0938 6.7697L14.0938 5.91C14.0938 5.31063 14.0938 4.82496 14.0677 4.42853C14.0409 4.02006 13.9841 3.6558 13.8467 3.30768C13.4501 2.3032 12.6188 1.5275 11.5864 1.16374C10.9423 0.936806 9.83819 0.937098 8.67194 0.937504C6.54223 0.937235 5.27724 0.937077 4.24041 1.30238C2.57541 1.88902 1.24511 3.13607 0.612564 4.73812C0.401731 5.27209 0.308329 5.84562 0.26314 6.53325C0.218747 7.20879 0.218748 8.04327 0.21875 9.10698V11.0446C0.218734 12.1307 0.218721 13.0102 0.301134 13.7131C0.38672 14.4432 0.56916 15.0716 0.996532 15.6109C1.21792 15.8903 1.47933 16.1369 1.7721 16.3439C2.33068 16.7389 2.97659 16.9062 3.73365 16.9854Z" fill="#D0D5DD"/>
    <path fill-rule="evenodd" clip-rule="evenodd" d="M11.6803 8.25174C11.9884 8.23075 12.2779 8.40082 12.4096 8.6802L13.6036 11.2128C13.721 11.4618 13.7863 11.5983 13.8429 11.6926C13.8538 11.7109 13.8627 11.7244 13.8695 11.7342C13.8775 11.7355 13.8874 11.7368 13.8997 11.7381C13.9984 11.749 14.1366 11.75 14.401 11.75H15.0312C15.4455 11.75 15.7812 12.0858 15.7812 12.5C15.7812 12.9142 15.4455 13.25 15.0312 13.25H14.401C14.3909 13.25 14.3809 13.25 14.3708 13.25C14.149 13.2501 13.9267 13.2501 13.7361 13.2292C13.5175 13.2052 13.2785 13.1488 13.0462 12.9966C12.8168 12.8462 12.6687 12.6511 12.5566 12.4643C12.4566 12.2976 12.3594 12.0913 12.2593 11.8789C12.2551 11.8701 12.251 11.8613 12.2468 11.8524L11.8713 11.0559L10.7967 14.4749C10.7041 14.7695 10.4404 14.9773 10.1322 14.9983C9.82407 15.0193 9.53456 14.8492 9.40286 14.5698L8.2089 12.0372C8.09154 11.7883 8.02623 11.6518 7.96961 11.5574C7.95867 11.5391 7.94983 11.5256 7.94304 11.5158C7.93503 11.5146 7.92506 11.5132 7.91284 11.5119C7.81411 11.501 7.67589 11.5 7.41149 11.5H6.78125C6.36704 11.5 6.03125 11.1642 6.03125 10.75C6.03125 10.3358 6.36704 10 6.78125 10H7.41149C7.42156 10 7.43163 10 7.4417 10C7.66351 9.99996 7.88581 9.99992 8.07635 10.0208C8.29503 10.0448 8.53399 10.1012 8.76626 10.2534C8.99572 10.4038 9.14384 10.5989 9.25589 10.7857C9.35591 10.9524 9.45311 11.1587 9.55323 11.3711C9.55738 11.3799 9.56153 11.3887 9.56569 11.3976L9.94121 12.1941L11.0158 8.77514C11.1084 8.48049 11.3721 8.27273 11.6803 8.25174ZM7.97066 11.5213C7.97065 11.5213 7.9703 11.5212 7.96964 11.521L7.97066 11.5213ZM7.92707 11.4946C7.92632 11.4939 7.92594 11.4935 7.92594 11.4934C7.92594 11.4934 7.92631 11.4938 7.92707 11.4946ZM13.8418 11.7287C13.8419 11.7287 13.8422 11.7288 13.8429 11.729L13.8418 11.7287ZM13.8854 11.7554C13.8862 11.7561 13.8866 11.7566 13.8866 11.7566C13.8866 11.7566 13.8862 11.7562 13.8854 11.7554Z" fill="#1D2939"/>
</svg>
