<svg width="20" height="20" viewBox="0 0 20 20" fill="none" xmlns="http://www.w3.org/2000/svg">
    <path fill-rule="evenodd" clip-rule="evenodd" d="M7.65464 2.0421C7.67742 2.50178 7.32325 2.89288 6.86358 2.91566C5.13694 3.00124 4.33286 3.25676 3.79481 3.79481C3.25676 4.33286 3.00124 5.13694 2.91566 6.86358C2.89288 7.32325 2.50178 7.67742 2.0421 7.65464C1.58243 7.63186 1.22826 7.24075 1.25104 6.78108C1.3389 5.00819 1.60222 3.63038 2.6163 2.6163C3.63038 1.60222 5.00819 1.3389 6.78108 1.25104C7.24075 1.22826 7.63186 1.58243 7.65464 2.0421ZM12.3454 2.0421C12.3682 1.58243 12.7593 1.22826 13.219 1.25104C14.9918 1.3389 16.3697 1.60222 17.3837 2.6163C18.3978 3.63038 18.6611 5.00819 18.749 6.78108C18.7718 7.24075 18.4176 7.63186 17.9579 7.65464C17.4983 7.67742 17.1072 7.32325 17.0844 6.86358C16.9988 5.13694 16.7433 4.33286 16.2052 3.79481C15.6672 3.25676 14.8631 3.00124 13.1365 2.91566C12.6768 2.89288 12.3226 2.50178 12.3454 2.0421ZM2.0421 12.3454C2.50178 12.3226 2.89288 12.6768 2.91566 13.1365C3.00124 14.8631 3.25676 15.6672 3.79481 16.2052C4.33286 16.7433 5.13693 16.9988 6.86357 17.0844C7.32324 17.1072 7.67741 17.4983 7.65463 17.9579C7.63185 18.4176 7.24075 18.7718 6.78107 18.749C5.00818 18.6611 3.63037 18.3978 2.6163 17.3837C1.60222 16.3697 1.3389 14.9919 1.25104 13.219C1.22826 12.7593 1.58243 12.3682 2.0421 12.3454ZM17.9579 12.3454C18.4176 12.3682 18.7718 12.7593 18.749 13.219C18.6611 14.9919 18.3978 16.3697 17.3837 17.3837C16.3697 18.3978 14.9918 18.6611 13.219 18.749C12.7593 18.7718 12.3682 18.4176 12.3454 17.9579C12.3226 17.4983 12.6768 17.1072 13.1365 17.0844C14.8631 16.9988 15.6672 16.7433 16.2052 16.2052C16.7433 15.6672 16.9988 14.8631 17.0844 13.1365C17.1072 12.6768 17.4983 12.3226 17.9579 12.3454Z" fill="#F2F4F7"/>
    <path fill-rule="evenodd" clip-rule="evenodd" d="M8.73378 4.31084C9.98477 4.02129 11.3205 4.17058 12.4553 4.73657C12.8671 4.94198 13.0345 5.44238 12.8291 5.85423C12.6237 6.26609 12.1233 6.43344 11.7114 6.22803C10.9323 5.83942 9.9934 5.73002 9.10962 5.93458C8.2259 6.13913 7.50683 6.63093 7.08452 7.26279C6.82877 7.64542 6.31126 7.74829 5.92862 7.49254C5.54598 7.2368 5.44312 6.71928 5.69886 6.33665C6.38165 5.31508 7.48272 4.60042 8.73378 4.31084ZM13.3601 6.72219C13.7632 6.50009 14.27 6.64682 14.4921 7.04992C14.8214 7.64767 15 8.31349 15 8.9993C15 8.99929 15 8.99932 15 8.9993V11.4006C15 12.6096 14.4312 13.7642 13.491 14.5764C12.5547 15.3853 11.2792 15.8334 10 15.8334C9.53976 15.8334 9.16667 15.4603 9.16667 15.0001C9.16667 14.5398 9.53976 14.1667 10 14.1667C10.9095 14.1667 11.7902 13.8433 12.4015 13.3152C13.009 12.7904 13.3333 12.0823 13.3333 11.4006V8.9993C13.3334 8.60596 13.2314 8.2156 13.0323 7.85421C12.8102 7.45111 12.957 6.94429 13.3601 6.72219ZM9.5128 7.52551C9.60496 7.07459 10.0452 6.78376 10.4961 6.87592C11.3881 7.05821 12.2341 7.79852 12.2221 8.83158V9.56526C12.2221 10.0255 11.849 10.3986 11.3888 10.3986C10.9285 10.3986 10.5554 10.0255 10.5554 9.56526V8.82603L10.5555 8.81301C10.5558 8.79664 10.55 8.74674 10.4852 8.67773C10.4197 8.60801 10.3094 8.53888 10.1624 8.50883C9.71148 8.41667 9.42065 7.97643 9.5128 7.52551ZM5.83333 8.56534C6.29357 8.56534 6.66667 8.93843 6.66667 9.39867V11.4008C6.66637 12.1561 7.06119 12.9456 7.82072 13.4918C8.19436 13.7605 8.27943 14.2813 8.01071 14.6549C7.742 15.0286 7.22126 15.1136 6.84762 14.8449C5.6951 14.0161 4.99959 12.7429 5 11.4008V9.39867C5 8.93843 5.3731 8.56534 5.83333 8.56534ZM8.61129 9.04732C9.07153 9.04732 9.44462 9.42041 9.44462 9.88065V11.1505L9.44447 11.1665C9.44402 11.1895 9.4506 11.2301 9.49354 11.283C9.55952 11.3644 9.71607 11.4587 9.95087 11.4728C10.1834 11.4867 10.3699 11.4136 10.4689 11.3225C10.8074 11.0108 11.3346 11.0326 11.6464 11.3712C11.9581 11.7097 11.9363 12.2369 11.5977 12.5487C11.1015 13.0056 10.4404 13.1718 9.85116 13.1365C9.26418 13.1013 8.62482 12.8578 8.19907 12.3328C7.92884 11.9996 7.77172 11.5849 7.77796 11.1437V9.88065C7.77796 9.42041 8.15105 9.04732 8.61129 9.04732Z" fill="#077BF8"/>
</svg>
