<svg width="24" height="20" viewBox="0 0 24 20" fill="none" xmlns="http://www.w3.org/2000/svg">
    <g clip-path="url(#clip0_832_22231)">
        <path d="M-0.000976562 4.42836C-0.000976562 3.14339 0.367205 2.04981 1.15811 1.27063L2.52175 2.63761C1.00811 4.15496 2.33084 8.87105 6.65357 13.2044C10.9763 17.5377 15.6808 18.8637 17.1945 17.3463L18.5581 18.7133C15.9945 21.2832 10.1718 19.4515 5.28993 14.5714C1.90811 11.1676 -0.000976562 7.32636 -0.000976562 4.42836Z" fill="#009A46"/>
        <path d="M8.6041 19.8892C7.32228 19.8892 6.23137 19.5201 5.4541 18.7272L6.81774 17.3602C8.33137 18.8776 13.0359 17.5516 17.3586 13.2183C21.6814 8.88496 23.0041 4.16888 21.4905 2.65153L22.8541 1.28455C25.4177 3.85447 23.5905 9.69148 18.7223 14.5853C15.3268 17.9754 11.4814 19.8892 8.6041 19.8892Z" fill="#FF5805"/>
        <path d="M19.1586 12.6309C18.3268 10.2387 16.6359 7.68242 14.3995 5.44057C9.51768 0.546777 3.69495 -1.27131 1.13131 1.28495C0.95404 1.47632 1.11768 1.92743 1.48586 2.29651C1.85404 2.6656 2.31768 2.82964 2.49495 2.65193C4.00859 1.13458 8.71313 2.46055 13.0359 6.79388C15.0813 8.84435 16.6086 11.1409 17.3449 13.2597C17.9859 15.1188 17.9313 16.6225 17.1813 17.3743C17.004 17.552 17.154 18.0031 17.5359 18.3859C17.9177 18.7686 18.3677 18.919 18.5449 18.7413C19.854 17.4153 20.0722 15.2418 19.1586 12.6309Z" fill="#F5AFCB"/>
        <path d="M22.8407 1.28455C21.5316 -0.0277561 19.3634 -0.246473 16.7588 0.655735C14.3725 1.48959 11.8225 3.18465 9.58611 5.4265C4.7043 10.3203 2.89066 16.1573 5.45429 18.7272C5.63157 18.9049 6.0952 18.7546 6.46339 18.3718C6.83157 17.9891 6.9952 17.538 6.81793 17.3602C5.30429 15.8429 6.62702 11.1268 10.9497 6.79348C12.9952 4.74301 15.2861 3.21199 17.3861 2.47382C19.2407 1.83134 20.7407 1.88602 21.4907 2.63786C21.6679 2.81557 22.1179 2.6652 22.4998 2.28244C22.8816 1.89969 23.0316 1.47592 22.8407 1.28455Z" fill="#FF9B00"/>
    </g>
    <defs>
        <clipPath id="clip0_832_22231">
            <rect width="24" height="19.7802" fill="white" transform="translate(0 0.109863)"/>
        </clipPath>
    </defs>
</svg>
