<svg width="44" height="44" viewBox="0 0 44 44" fill="none" xmlns="http://www.w3.org/2000/svg">
<path d="M0 22C0 9.84974 9.84974 0 22 0C34.1503 0 44 9.84974 44 22C44 34.1503 34.1503 44 22 44C9.84974 44 0 34.1503 0 22Z" fill="#1D9C7D" fill-opacity="0.1"/>
<path d="M23.5028 13.2499C23.0886 13.2483 22.7516 13.5829 22.75 13.9971L23.4972 15.798H18.5028L19.25 13.9971C19.2485 13.5829 18.9114 13.2483 18.4972 13.2499C17.183 13.2548 16.1089 13.2791 15.2413 13.4234C14.3553 13.5707 13.6129 13.8536 13.0093 14.4254C12.3272 15.0716 12.0266 15.8928 11.8856 16.8866C11.75 17.8422 11.75 19.0584 11.75 20.5722V25.4252C11.75 26.9389 11.75 28.1552 11.8856 29.1108C12.0266 30.1046 12.3272 30.9258 13.0093 31.572C13.6857 32.2128 14.5357 32.4902 15.5648 32.6213C16.5653 32.7487 17.842 32.7487 19.4468 32.7487H22.5532C22.8597 32.7487 23.1542 32.7487 23.4371 32.7478C22.0984 31.6015 21.25 29.899 21.25 27.9984C21.25 24.5466 24.0482 21.7484 27.5 21.7484C28.4868 21.7484 29.4202 21.9771 30.25 22.3844V20.5722C30.25 19.0585 30.25 17.8422 30.1144 16.8866C29.9734 15.8928 29.6728 15.0716 28.9907 14.4254C28.3871 13.8536 27.6447 13.5707 26.7587 13.4234C25.8911 13.2791 24.8171 13.2548 23.5028 13.2499Z" fill="#07271F"/>
<path fill-rule="evenodd" clip-rule="evenodd" d="M20.9239 11.2499C20.949 11.2499 20.9743 11.2499 21 11.2499C21.0257 11.2499 21.0511 11.2499 21.0762 11.2499C21.4715 11.2496 21.7887 11.2494 22.0768 11.3157C22.74 11.4684 23.3245 11.882 23.6506 12.4816C23.7931 12.7436 23.8632 13.0479 23.9414 13.3879C23.9471 13.4126 23.9528 13.4375 23.9586 13.4626L24.0419 13.8227C24.0446 13.8343 24.0472 13.8459 24.0499 13.8574C24.1281 14.1953 24.1998 14.505 24.2311 14.7647C24.2648 15.0437 24.2671 15.366 24.1211 15.688C23.9718 16.0171 23.7235 16.286 23.4203 16.4701C23.1352 16.6433 22.8262 16.7004 22.5374 16.7257C22.2606 16.75 21.9198 16.75 21.5294 16.7499H20.4706C20.0802 16.75 19.7394 16.75 19.4626 16.7257C19.1739 16.7004 18.8649 16.6433 18.5797 16.4701C18.2766 16.286 18.0283 16.0171 17.879 15.688C17.7329 15.366 17.7352 15.0437 17.7689 14.7647C17.8003 14.505 17.8719 14.1953 17.9501 13.8574C17.9528 13.8459 17.9555 13.8343 17.9582 13.8227L18.0415 13.4626C18.0473 13.4375 18.053 13.4126 18.0587 13.3879C18.1369 13.0479 18.2069 12.7436 18.3494 12.4816C18.6756 11.882 19.2601 11.4684 19.9233 11.3157C20.2114 11.2494 20.5285 11.2496 20.9239 11.2499ZM21 12.7499C20.4903 12.7499 20.3591 12.7546 20.2597 12.7775C19.9776 12.8425 19.7702 13.0088 19.6671 13.1984C19.6356 13.2561 19.6092 13.3411 19.5029 13.8006L19.4196 14.1607C19.3307 14.545 19.2786 14.7748 19.2581 14.9447C19.2486 15.0232 19.2496 15.0638 19.2509 15.0802C19.2695 15.115 19.3034 15.1546 19.3584 15.188L19.3597 15.1887C19.3607 15.1892 19.3626 15.1901 19.3655 15.1913C19.3714 15.1937 19.3823 15.1977 19.4 15.2023C19.4374 15.2121 19.4972 15.223 19.5936 15.2314C19.7969 15.2493 20.0711 15.2499 20.5019 15.2499H21.4981C21.929 15.2499 22.2031 15.2493 22.4065 15.2314C22.5029 15.223 22.5626 15.2121 22.6 15.2023C22.6178 15.1977 22.6287 15.1937 22.6345 15.1913C22.6375 15.1901 22.6393 15.1892 22.6403 15.1887L22.6414 15.1882C22.6964 15.1548 22.7305 15.115 22.7492 15.0802C22.7505 15.0638 22.7515 15.0232 22.742 14.9447C22.7214 14.7748 22.6693 14.545 22.5805 14.1607L22.4972 13.8006C22.3909 13.3411 22.3644 13.2561 22.333 13.1984C22.2299 13.0088 22.0225 12.8425 21.7404 12.7775C21.6409 12.7546 21.5097 12.7499 21 12.7499ZM22.7481 15.0891C22.748 15.0891 22.7481 15.0884 22.7484 15.087L22.7481 15.0891ZM19.252 15.0891C19.252 15.0892 19.2518 15.0885 19.2516 15.087L19.252 15.0891Z" fill="#1D9C7D"/>
<path fill-rule="evenodd" clip-rule="evenodd" d="M27.5 23.2499C24.8766 23.2499 22.75 25.3765 22.75 27.9999C22.75 30.6232 24.8766 32.7499 27.5 32.7499C30.1234 32.7499 32.25 30.6232 32.25 27.9999C32.25 25.3765 30.1234 23.2499 27.5 23.2499ZM29.1903 27.7698C29.555 27.5734 29.6915 27.1186 29.4952 26.7539C29.2989 26.3892 28.844 26.2527 28.4793 26.449C27.8214 26.8032 27.2583 27.5495 26.9274 28.0503C26.8177 27.9626 26.6345 27.8342 26.4911 27.7658C26.1172 27.5875 25.6696 27.746 25.4912 28.1198C25.3145 28.4902 25.4685 28.9331 25.8349 29.1146C25.8349 29.1146 25.9387 29.1797 25.9977 29.2276C26.1161 29.3234 26.2739 29.4799 26.4109 29.7123C26.5515 29.9511 26.8123 30.0928 27.0892 30.0809C27.3658 30.0691 27.6137 29.9052 27.7335 29.6556C27.7547 29.6137 27.8162 29.4931 27.8581 29.4163C27.9423 29.2617 28.0636 29.0515 28.2112 28.828C28.5289 28.3471 28.8869 27.9331 29.1903 27.7698Z" fill="#1D9C7D"/>
<path d="M20.9934 19.2499C19.485 19.2499 18.2962 20.5001 18.2962 21.9999C18.2962 23.4996 19.485 24.7499 20.9934 24.7499C21.5339 24.7499 22.0333 24.5894 22.4517 24.3144C22.7184 23.9498 23.0236 23.6151 23.3614 23.3164C23.5717 22.9236 23.6906 22.4742 23.6906 21.9999C23.6906 20.5001 22.5018 19.2499 20.9934 19.2499Z" fill="#1D9C7D"/>
<path d="M21.6547 25.7827C21.3932 26.4718 21.25 27.2191 21.25 27.9999C21.25 28.6073 21.3367 29.1946 21.4983 29.7499H18.2181C17.4073 29.7499 16.75 29.0926 16.75 28.2818C16.75 27.9207 16.8836 27.5387 17.1819 27.2555C18.3765 26.1213 20.0496 25.6099 21.6547 25.7827Z" fill="#1D9C7D"/>
</svg>
