<svg width="44" height="44" viewBox="0 0 44 44" fill="none" xmlns="http://www.w3.org/2000/svg">
    <rect width="44" height="44" rx="22" fill="#077BF8" fill-opacity="0.1"/>
    <path d="M15.9553 23.25C15.5224 23.25 15.1256 23.2499 14.8028 23.2933C14.4473 23.3411 14.0716 23.4535 13.7626 23.7626C13.4535 24.0716 13.3411 24.4473 13.2933 24.8028C13.2499 25.1256 13.25 25.5224 13.25 25.9553L13.25 28.5635C13.25 28.8917 13.2499 29.1992 13.2799 29.4561C13.3132 29.7421 13.3904 30.0427 13.5976 30.3203C13.8047 30.5979 14.071 30.7574 14.3357 30.8707C14.5735 30.9725 14.8683 31.06 15.1829 31.1533L20.1818 32.6366C20.9063 32.8516 21.6827 32.7581 22.3377 32.3802L29.8533 28.0438C30.7865 27.5054 31.0266 26.2638 30.4051 25.4032C29.7123 24.4437 28.5017 24.0209 27.3712 24.3724L27.3697 24.3729L25.2442 25.0259C24.9956 25.1023 24.8712 25.1405 24.8322 25.2122C24.7933 25.2839 24.8398 25.4474 24.9328 25.7743C25.0037 26.0236 25.0121 26.2627 25 26.3973C25 27.3786 24.331 28.171 23.4667 28.4099L20.9258 29.1124C20.0041 29.3673 19.0169 29.2796 18.1539 28.8621L16.5336 28.0781C16.2229 27.9278 16.0929 27.554 16.2432 27.2433C16.3935 26.9326 16.7673 26.8026 17.078 26.9529L18.6983 27.7369C19.2869 28.0217 19.9622 28.082 20.5927 27.9076L23.1336 27.2051C23.4837 27.1083 23.75 26.7884 23.75 26.3973C23.75 24.9842 22.5733 24.6252 21.1741 24.6252L20.1315 24.6251C19.9497 24.6251 19.7714 24.5841 19.6108 24.5064L17.5688 23.5184C17.2032 23.3415 16.8014 23.25 16.3948 23.25L15.9553 23.25Z" fill="#1D2939"/>
    <path fill-rule="evenodd" clip-rule="evenodd" d="M22.0004 11.25C21.7932 11.25 21.5952 11.3357 21.4534 11.4869C21.2973 11.6533 21.199 11.7797 21.0987 11.9087C21.0926 11.9166 21.0865 11.9244 21.0803 11.9323C20.8671 12.2064 20.5845 12.6007 20.3017 13.0881C19.7419 14.0529 19.1504 15.4359 19.1504 17C19.1504 18.351 19.5917 19.5669 20.0727 20.4949C19.3044 20.2487 18.4868 19.8501 17.8481 19.2144C17.0801 18.4499 16.6539 17.4258 16.4249 16.536C16.3904 16.4023 16.361 16.2735 16.3357 16.1512C16.6802 16.2229 17.0729 16.3273 17.4771 16.4787C17.9765 16.6658 18.5369 16.4226 18.7287 15.9353C18.9205 15.4481 18.6711 14.9015 18.1717 14.7144C17.4019 14.426 16.6793 14.2762 16.1513 14.1979C15.8965 14.1601 15.4364 14.1247 15.261 14.1112L15.2403 14.1096C14.9761 14.1039 14.721 14.2037 14.534 14.3859C14.3471 14.5681 14.2446 14.8169 14.2502 15.0746L14.2512 15.09C14.2584 15.202 14.2768 15.4893 14.2955 15.6513C14.3346 15.9905 14.4079 16.4611 14.5457 16.9963C14.8172 18.0511 15.3598 19.4378 16.4644 20.5372C17.5707 21.6385 18.9689 22.1814 20.0353 22.4533C20.5757 22.5912 21.051 22.6646 21.3938 22.7037C21.6969 22.7384 21.8484 22.7557 22 22.7557C22.1516 22.7557 22.3031 22.7384 22.6062 22.7037C22.949 22.6646 23.4243 22.5912 23.9647 22.4533C25.0311 22.1814 26.4293 21.6385 27.5356 20.5372C28.6402 19.4378 29.1828 18.0511 29.4543 16.9963C29.5921 16.4611 29.6654 15.9905 29.7045 15.6513C29.7241 15.4812 29.7469 15.2064 29.7498 15.0746C29.7554 14.8169 29.6529 14.5681 29.466 14.3859C29.279 14.2037 29.0239 14.1039 28.7597 14.1096C28.4417 14.1096 28.1473 14.1535 27.8916 14.1915C27.8772 14.1937 27.8629 14.1958 27.8487 14.1979C27.3207 14.2762 26.5981 14.426 25.8283 14.7144C25.3289 14.9015 25.0795 15.4481 25.2713 15.9353C25.4631 16.4226 26.0235 16.6658 26.5229 16.4787C26.9271 16.3273 27.3198 16.2229 27.6643 16.1512C27.639 16.2735 27.6096 16.4023 27.5751 16.536C27.3461 17.4258 26.9199 18.4499 26.1519 19.2144C25.5134 19.8499 24.6963 20.2484 23.9283 20.4946C24.4092 19.5666 24.8504 18.3508 24.8504 17C24.8504 15.4359 24.2589 14.0529 23.6991 13.0881C23.4163 12.6007 23.1337 12.2064 22.9204 11.9323C22.8136 11.795 22.6741 11.622 22.5474 11.4869C22.4056 11.3357 22.2076 11.25 22.0004 11.25Z" fill="#077BF8"/>
</svg>
