<svg width="16" height="16" viewBox="0 0 16 16" fill="none" xmlns="http://www.w3.org/2000/svg">
    <path d="M5.09906 13.94C5.07906 13.94 5.0524 13.9533 5.0324 13.9533C3.73906 13.3133 2.68573 12.2533 2.03906 10.96C2.03906 10.94 2.0524 10.9133 2.0524 10.8933C2.86573 11.1333 3.70573 11.3133 4.53906 11.4533C4.68573 12.2933 4.85906 13.1266 5.09906 13.94Z" fill="#000D1C"/>
    <path d="M13.9594 10.9666C13.2994 12.2933 12.1994 13.3666 10.8594 14.0133C11.1127 13.1666 11.326 12.3133 11.466 11.4533C12.306 11.3133 13.1327 11.1333 13.946 10.8933C13.9394 10.92 13.9594 10.9466 13.9594 10.9666Z" fill="#000D1C"/>
    <path d="M14.0127 5.13991C13.1727 4.88657 12.326 4.67991 11.466 4.53324C11.326 3.67324 11.1194 2.81991 10.8594 1.98657C12.2394 2.64657 13.3527 3.75991 14.0127 5.13991Z" fill="#000D1C"/>
    <path d="M5.09966 2.06004C4.85966 2.87337 4.68633 3.70004 4.54633 4.54004C3.68633 4.67337 2.83299 4.88671 1.98633 5.14004C2.63299 3.80004 3.70633 2.70004 5.03299 2.04004C5.05299 2.04004 5.07966 2.06004 5.09966 2.06004Z" fill="#000D1C"/>
    <path d="M10.3272 4.39325C8.78049 4.21992 7.22049 4.21992 5.67383 4.39325C5.84049 3.47992 6.05383 2.56659 6.35383 1.68659C6.36716 1.63325 6.36049 1.59325 6.36716 1.53992C6.89383 1.41325 7.43383 1.33325 8.00049 1.33325C8.56049 1.33325 9.10716 1.41325 9.62716 1.53992C9.63383 1.59325 9.63383 1.63325 9.64716 1.68659C9.94716 2.57325 10.1605 3.47992 10.3272 4.39325Z" fill="#077BF8"/>
    <path d="M4.39398 10.3267C3.47398 10.16 2.56732 9.94667 1.68732 9.64667C1.63398 9.63334 1.59398 9.64001 1.54065 9.63334C1.41398 9.10667 1.33398 8.56667 1.33398 8.00001C1.33398 7.44001 1.41398 6.89334 1.54065 6.37334C1.59398 6.36667 1.63398 6.36667 1.68732 6.35334C2.57398 6.06001 3.47398 5.84001 4.39398 5.67334C4.22732 7.22001 4.22732 8.78001 4.39398 10.3267Z" fill="#077BF8"/>
    <path d="M14.6674 8.00001C14.6674 8.56667 14.5874 9.10667 14.4608 9.63334C14.4074 9.64001 14.3674 9.63334 14.3141 9.64667C13.4274 9.94001 12.5208 10.16 11.6074 10.3267C11.7808 8.78001 11.7808 7.22001 11.6074 5.67334C12.5208 5.84001 13.4341 6.05334 14.3141 6.35334C14.3674 6.36667 14.4074 6.37334 14.4608 6.37334C14.5874 6.90001 14.6674 7.44001 14.6674 8.00001Z" fill="#077BF8"/>
    <path d="M10.3272 11.6067C10.1605 12.5267 9.94716 13.4334 9.64716 14.3134C9.63383 14.3667 9.63383 14.4067 9.62716 14.46C9.10716 14.5867 8.56049 14.6667 8.00049 14.6667C7.43383 14.6667 6.89383 14.5867 6.36716 14.46C6.36049 14.4067 6.36716 14.3667 6.35383 14.3134C6.06049 13.4267 5.84049 12.5267 5.67383 11.6067C6.44716 11.6934 7.22049 11.7534 8.00049 11.7534C8.78049 11.7534 9.56049 11.6934 10.3272 11.6067Z" fill="#077BF8"/>
    <path d="M10.5095 10.5088C8.84214 10.7192 7.15916 10.7192 5.49176 10.5088C5.28139 8.84141 5.28139 7.15843 5.49176 5.49103C7.15916 5.28066 8.84214 5.28066 10.5095 5.49103C10.7199 7.15843 10.7199 8.84141 10.5095 10.5088Z" fill="#077BF8"/>
</svg>
