<svg width="24" height="24" viewBox="0 0 24 24" fill="none" xmlns="http://www.w3.org/2000/svg">
<circle cx="12" cy="12" r="12" fill="#077BF8" fill-opacity="0.1"/>
<path d="M8.62696 19.0982C9.2818 19.1667 10.3237 19.1668 11.3511 19.1667C11.7109 19.1667 12.0026 18.875 12.0026 18.5152C12.0026 18.1554 11.7109 17.8637 11.3511 17.8637C10.2787 17.8637 9.34117 17.8628 8.76154 17.8022C8.19226 17.7426 7.86964 17.6315 7.63109 17.4628C7.47012 17.3489 7.32853 17.2149 7.21 17.0653C7.03963 16.8503 6.92667 16.5618 6.86518 16.0373C6.80189 15.4974 6.80084 14.7925 6.80084 13.7769L6.80078 11.8434C6.80077 11.6654 6.80089 11.2397 6.98797 10.9249C7.10325 10.731 7.25086 10.5689 7.4025 10.4863C7.64684 10.3533 7.92697 10.2777 8.22475 10.2777L8.91832 10.3021C9.17172 10.3073 9.46741 10.2993 9.75284 10.2228C10.3088 10.0739 10.7431 9.6396 10.8921 9.08362C10.9686 8.79819 10.9766 8.5025 10.9713 8.2491L10.947 7.55552C10.947 7.24373 11.0299 6.97231 11.1748 6.72003C11.2593 6.57297 11.4064 6.43838 11.6096 6.32017C11.9177 6.1409 12.2866 6.13924 12.5121 6.13823C12.7375 6.13721 12.9753 6.13643 13.174 6.13643C14.3968 6.13643 14.8415 6.14573 15.1771 6.26396C15.7589 6.46894 16.2027 6.8967 16.4094 7.42027C16.4612 7.55137 16.4977 7.72365 16.5173 8.02228C16.5374 8.32673 16.5377 8.71536 16.5377 9.27554V11.3509C16.5377 11.7094 16.8283 12.0001 17.1868 12.0001C17.5453 12.0001 17.8359 11.7094 17.8359 11.3509V9.25341C17.8359 8.72064 17.8359 8.28894 17.8128 7.93655C17.7889 7.57346 17.7385 7.24968 17.6163 6.94024C17.2638 6.04737 16.5248 5.35786 15.6071 5.03452C15.0346 4.8328 14.0532 4.83306 13.0165 4.83342C11.1235 4.83318 9.99904 4.83304 9.07741 5.15775C7.59741 5.67921 6.41493 6.7877 5.85266 8.21174C5.66526 8.68638 5.58223 9.19619 5.54206 9.80742C5.5026 10.4079 5.5026 11.1496 5.5026 12.0951V12.0952V13.8175V13.8175C5.50259 14.7829 5.50258 15.5647 5.57584 16.1895C5.65191 16.8385 5.81408 17.3971 6.19397 17.8764C6.39075 18.1248 6.62312 18.344 6.88336 18.528C7.37987 18.8791 7.95402 19.0278 8.62696 19.0982Z" fill="#077BF8"/>
<path d="M13.548 12.5486C13.9387 12.3563 14.4115 12.1667 14.9988 12.1667C15.5861 12.1667 16.0591 12.3563 16.45 12.5486C16.5797 12.6124 16.6935 12.672 16.7981 12.7268C17.0339 12.8504 17.2224 12.9491 17.4389 13.0147C17.5748 13.0559 17.7126 13.0976 17.8089 13.1335C17.8928 13.1647 18.0443 13.224 18.161 13.3472C18.2643 13.4563 18.3137 13.5762 18.3425 13.6719C18.3665 13.7518 18.3869 13.8594 18.4019 13.9385C18.8153 16.1161 17.9055 18.2122 15.6795 19.0219C15.4748 19.0964 15.2816 19.1667 14.9999 19.1667C14.7181 19.1668 14.5249 19.0964 14.3202 19.0219C12.0942 18.2123 11.1835 16.1163 11.5968 13.9386C11.6118 13.8595 11.6322 13.7519 11.6562 13.672C11.6849 13.5763 11.7343 13.4564 11.8376 13.3473C11.9543 13.2241 12.1058 13.1648 12.1897 13.1335C12.286 13.0977 12.4238 13.0559 12.5597 13.0147C12.7761 12.9491 12.9644 12.8504 13.2 12.7269L13.2 12.7269C13.3045 12.6721 13.4183 12.6124 13.548 12.5486Z" fill="#000D1C"/>
</svg>
