<svg width="25" height="24" viewBox="0 0 25 24" fill="none" xmlns="http://www.w3.org/2000/svg">
<path d="M20.5402 6.82006L14.7802 2.79006C13.2102 1.69006 10.8002 1.75006 9.29023 2.92006L4.28023 6.83006C3.28023 7.61006 2.49023 9.21006 2.49023 10.4701V17.3701C2.49023 19.9201 4.56023 22.0001 7.11023 22.0001H17.8902C20.4402 22.0001 22.5102 19.9301 22.5102 17.3801V10.6001C22.5102 9.25006 21.6402 7.59006 20.5402 6.82006Z" fill="#077BF8"/>
<path d="M12.5 18.75C12.09 18.75 11.75 18.41 11.75 18V15C11.75 14.59 12.09 14.25 12.5 14.25C12.91 14.25 13.25 14.59 13.25 15V18C13.25 18.41 12.91 18.75 12.5 18.75Z" fill="#00264F"/>
</svg>
