<svg width="32" height="93" viewBox="0 0 32 93" fill="none" xmlns="http://www.w3.org/2000/svg">
    <g clip-path="url(#clip0_0_1)">
        <line x1="15.5" y1="65" x2="15.5" y2="30" stroke="#1D9C7D" stroke-dasharray="2 2"/>
    </g>
    <path d="M20.0458 4.25C21.5002 4.33893 22.6488 4.5877 23.506 5.44741C24.1807 6.12413 24.476 6.97933 24.6152 8.01798C24.75 9.02371 24.75 10.3062 24.75 11.9137V21.9986C24.75 22.4128 24.4142 22.7486 24 22.7486L8 22.7486C7.58579 22.7486 7.25 22.4128 7.25 21.9986L7.25 11.9137V11.9137C7.24998 10.3062 7.24997 9.02371 7.38479 8.01798C7.52403 6.97933 7.81927 6.12413 8.49402 5.44741C9.35122 4.5877 10.4998 4.33893 11.9542 4.25V6.05455C11.9542 7.94016 11.9542 8.88297 12.54 9.46876C13.1258 10.0545 14.0686 10.0545 15.9542 10.0545H16.0458C17.9314 10.0545 18.8742 10.0545 19.46 9.46876C20.0458 8.88297 20.0458 7.94016 20.0458 6.05454V4.25Z" fill="#D0D5DD"/>
    <path fill-rule="evenodd" clip-rule="evenodd" d="M6 21.75C6 21.1977 6.44772 20.75 7 20.75L25 20.75C25.5523 20.75 26 21.1977 26 21.75C26 22.3023 25.5523 22.75 25 22.75L7 22.75C6.44772 22.75 6 22.3023 6 21.75Z" fill="#1D2939"/>
    <path d="M16.0323 16.25C16.472 16.25 16.8514 16.25 17.1627 16.2782C17.4918 16.308 17.8178 16.3741 18.125 16.5514C18.467 16.7489 18.7511 17.033 18.9486 17.375C19.1259 17.6822 19.192 18.0082 19.2218 18.3374C19.25 18.6486 19.25 19.028 19.25 19.4678L19.25 22C19.25 22.4142 18.9142 22.75 18.5 22.75C18.0858 22.75 17.75 22.4142 17.75 22V19.5C17.75 19.0189 17.7493 18.7082 17.7279 18.4727C17.7279 17.9415 17.2608 17.7843 17.0273 17.7721C16.7918 17.7507 16.4811 17.75 16 17.75C15.5189 17.75 15.2082 17.7507 14.9727 17.7721C14.4223 17.7721 14.3015 18.2392 14.2721 18.4727C14.2507 18.7082 14.25 19.0189 14.25 19.5L14.25 22C14.25 22.4142 13.9142 22.75 13.5 22.75C13.0858 22.75 12.75 22.4142 12.75 22L12.75 19.4678V19.4677C12.75 19.028 12.75 18.6486 12.7782 18.3374C12.808 18.0082 12.8741 17.6822 13.0514 17.375C13.2489 17.033 13.533 16.7489 13.875 16.5514C14.1822 16.3741 14.5082 16.308 14.8374 16.2782C15.1486 16.25 15.5924 16.25 16.0322 16.25H16.0323Z" fill="#1D2939"/>
    <path fill-rule="evenodd" clip-rule="evenodd" d="M11 13C11 12.4477 11.4477 12 12 12H12.009C12.5612 12 13.009 12.4477 13.009 13C13.009 13.5523 12.5612 14 12.009 14H12C11.4477 14 11 13.5523 11 13ZM14.991 13C14.991 12.4477 15.4388 12 15.991 12H16C16.5523 12 17 12.4477 17 13C17 13.5523 16.5523 14 16 14H15.991C15.4388 14 14.991 13.5523 14.991 13ZM18.9922 13C18.9922 12.4477 19.4399 12 19.9922 12H20.0011C20.5534 12 21.0011 12.4477 21.0011 13C21.0011 13.5523 20.5534 14 20.0011 14H19.9922C19.4399 14 18.9922 13.5523 18.9922 13Z" fill="#1D2939"/>
    <path fill-rule="evenodd" clip-rule="evenodd" d="M15.948 1.25H16.052C16.9505 1.24997 17.6997 1.24995 18.2945 1.32991C18.9223 1.41432 19.4891 1.59999 19.9445 2.05546C20.4 2.51093 20.5857 3.07773 20.6701 3.70552C20.7501 4.30031 20.75 5.04953 20.75 5.94801V6.052C20.75 6.95048 20.7501 7.6997 20.6701 8.29448C20.5857 8.92228 20.4 9.48908 19.9445 9.94455C19.4891 10.4 18.9223 10.5857 18.2945 10.6701C17.6997 10.7501 16.9505 10.75 16.052 10.75H15.948C15.0495 10.75 14.3003 10.7501 13.7055 10.6701C13.0777 10.5857 12.5109 10.4 12.0555 9.94455C11.6 9.48908 11.4143 8.92228 11.3299 8.29448C11.2499 7.6997 11.25 6.95048 11.25 6.052V5.948C11.25 5.04952 11.2499 4.3003 11.3299 3.70552C11.4143 3.07773 11.6 2.51093 12.0555 2.05546C12.5109 1.59999 13.0777 1.41432 13.7055 1.32991C14.3003 1.24995 15.0495 1.24997 15.948 1.25ZM13.9054 2.81654C13.4439 2.87858 13.2464 2.9858 13.1161 3.11612C12.9858 3.24644 12.8786 3.44393 12.8165 3.90539C12.7516 4.38843 12.75 5.03599 12.75 6C12.75 6.96401 12.7516 7.61157 12.8165 8.09461C12.8786 8.55607 12.9858 8.75357 13.1161 8.88389C13.2464 9.0142 13.4439 9.12143 13.9054 9.18347C14.3884 9.24841 15.036 9.25 16 9.25C16.964 9.25 17.6116 9.24841 18.0946 9.18347C18.5561 9.12143 18.7536 9.0142 18.8839 8.88389C19.0142 8.75357 19.1214 8.55607 19.1835 8.09461C19.2484 7.61157 19.25 6.96401 19.25 6C19.25 5.03599 19.2484 4.38843 19.1835 3.90539C19.1214 3.44393 19.0142 3.24644 18.8839 3.11612C18.7536 2.9858 18.5561 2.87858 18.0946 2.81654C17.6116 2.7516 16.964 2.75 16 2.75C15.036 2.75 14.3884 2.7516 13.9054 2.81654Z" fill="#1D2939"/>
    <path fill-rule="evenodd" clip-rule="evenodd" d="M16 3.75C16.4142 3.75 16.75 4.08579 16.75 4.5V5.25H17.5C17.9142 5.25 18.25 5.58579 18.25 6C18.25 6.41421 17.9142 6.75 17.5 6.75H16.75V7.5C16.75 7.91421 16.4142 8.25 16 8.25C15.5858 8.25 15.25 7.91421 15.25 7.5V6.75H14.5C14.0858 6.75 13.75 6.41421 13.75 6C13.75 5.58579 14.0858 5.25 14.5 5.25H15.25V4.5C15.25 4.08579 15.5858 3.75 16 3.75Z" fill="#D0D5DD"/>
    <path d="M24.6201 77.45C23.5701 72.83 19.5401 70.75 16.0001 70.75C16.0001 70.75 16.0001 70.75 15.9901 70.75C12.4601 70.75 8.4201 72.82 7.3701 77.44C6.2001 82.6 9.3601 86.97 12.2201 89.72C13.2801 90.74 14.6401 91.25 16.0001 91.25C17.3601 91.25 18.7201 90.74 19.7701 89.72C22.6301 86.97 25.7901 82.61 24.6201 77.45Z" fill="#D0D5DD"/>
    <path d="M16.0001 82.46C17.7398 82.46 19.1501 81.0497 19.1501 79.31C19.1501 77.5703 17.7398 76.16 16.0001 76.16C14.2604 76.16 12.8501 77.5703 12.8501 79.31C12.8501 81.0497 14.2604 82.46 16.0001 82.46Z" fill="#1D2939"/>
    <defs>
        <clipPath id="clip0_0_1">
            <rect width="32" height="33" fill="white" transform="translate(0 31)"/>
        </clipPath>
    </defs>
</svg>
