<svg width="14" height="14" viewBox="0 0 14 14" fill="none" xmlns="http://www.w3.org/2000/svg">
<g clip-path="url(#clip0_2151_23082)">
<path d="M9.3602 2.47925C10.2086 2.53112 10.8786 2.67624 11.3786 3.17774C11.7723 3.57249 11.9445 4.07136 12.0257 4.67724C12.1043 5.26391 12.1043 6.01202 12.1043 6.94972V6.94976V12.8326C12.1043 13.0742 11.9085 13.2701 11.6668 13.2701L2.3335 13.2701C2.09187 13.2701 1.896 13.0742 1.896 12.8326L1.896 6.94974V6.94973C1.89599 6.01201 1.89598 5.26391 1.97462 4.67724C2.05585 4.07136 2.22807 3.57249 2.62168 3.17774C3.12171 2.67624 3.79169 2.53112 4.64013 2.47925V3.5319C4.64013 4.63184 4.64013 5.18181 4.98184 5.52352C5.32355 5.86523 5.87352 5.86523 6.97346 5.86523H7.02686C8.12681 5.86523 8.67678 5.86523 9.01849 5.52352C9.3602 5.18181 9.3602 4.63184 9.3602 3.5319V2.47925Z" fill="#D0D5DD"/>
<path fill-rule="evenodd" clip-rule="evenodd" d="M1.1665 12.6876C1.1665 12.3654 1.42767 12.1042 1.74984 12.1042L12.2498 12.1042C12.572 12.1042 12.8332 12.3654 12.8332 12.6876C12.8332 13.0097 12.572 13.2709 12.2498 13.2709L1.74984 13.2709C1.42767 13.2709 1.1665 13.0097 1.1665 12.6876Z" fill="#1D2939"/>
<path d="M7.01914 9.47925C7.27568 9.47924 7.49696 9.47923 7.67854 9.49569C7.87056 9.51309 8.0607 9.55163 8.23991 9.65509C8.43944 9.77029 8.60512 9.93597 8.72032 10.1355C8.82378 10.3147 8.86232 10.5048 8.87972 10.6969C8.89618 10.8785 8.89617 11.0997 8.89616 11.3563L8.89616 12.8334C8.89616 13.075 8.70028 13.2709 8.45866 13.2709C8.21704 13.2709 8.02116 13.075 8.02116 12.8334V11.3751C8.02116 11.0944 8.02074 10.9132 8.00829 10.7759C8.00829 10.466 7.7358 10.3742 7.59956 10.3671C7.46221 10.3547 7.28097 10.3542 7.00033 10.3542C6.71968 10.3542 6.53844 10.3547 6.40109 10.3671C6.08002 10.3671 6.00953 10.6396 5.99236 10.7759C5.97991 10.9132 5.97949 11.0944 5.97949 11.3751L5.97949 12.8334C5.97949 13.075 5.78362 13.2709 5.54199 13.2709C5.30037 13.2709 5.10449 13.075 5.10449 12.8334V11.3563V11.3563C5.10448 11.0997 5.10448 10.8785 5.12093 10.6969C5.13834 10.5048 5.17687 10.3147 5.28033 10.1355C5.39553 9.93597 5.56122 9.77029 5.76074 9.65509C5.93995 9.55163 6.13009 9.51309 6.32211 9.49569C6.5037 9.47923 6.76258 9.47924 7.01912 9.47925H7.01914Z" fill="#1D2939"/>
<path fill-rule="evenodd" clip-rule="evenodd" d="M4.08301 7.58333C4.08301 7.26117 4.34417 7 4.66634 7H4.67157C4.99373 7 5.2549 7.26117 5.2549 7.58333C5.2549 7.9055 4.99373 8.16667 4.67157 8.16667H4.66634C4.34417 8.16667 4.08301 7.9055 4.08301 7.58333ZM6.41111 7.58333C6.41111 7.26117 6.67228 7 6.99445 7H6.99967C7.32184 7 7.58301 7.26117 7.58301 7.58333C7.58301 7.9055 7.32184 8.16667 6.99967 8.16667H6.99445C6.67228 8.16667 6.41111 7.9055 6.41111 7.58333ZM8.74512 7.58333C8.74512 7.26117 9.00628 7 9.32845 7H9.33368C9.65584 7 9.91701 7.26117 9.91701 7.58333C9.91701 7.9055 9.65584 8.16667 9.33368 8.16667H9.32845C9.00628 8.16667 8.74512 7.9055 8.74512 7.58333Z" fill="#1D2939"/>
<path fill-rule="evenodd" clip-rule="evenodd" d="M6.96999 0.729127H7.03066C7.55477 0.729109 7.99182 0.729095 8.33877 0.775742C8.70499 0.824978 9.03562 0.933286 9.30131 1.19898C9.567 1.46467 9.67531 1.7953 9.72455 2.16151C9.77119 2.50847 9.77118 2.94552 9.77116 3.46963V3.53029C9.77118 4.0544 9.77119 4.49145 9.72455 4.83841C9.67531 5.20462 9.567 5.53525 9.30131 5.80094C9.03562 6.06663 8.70499 6.17494 8.33877 6.22418C7.99182 6.27083 7.55477 6.27081 7.03066 6.27079H6.97C6.44588 6.27081 6.00884 6.27083 5.66188 6.22418C5.29567 6.17494 4.96503 6.06663 4.69934 5.80094C4.43365 5.53525 4.32534 5.20462 4.27611 4.83841C4.22946 4.49145 4.22948 4.05441 4.22949 3.53029V3.46963C4.22948 2.94551 4.22946 2.50847 4.27611 2.16151C4.32534 1.7953 4.43365 1.46467 4.69934 1.19898C4.96503 0.933286 5.29567 0.824978 5.66188 0.775742C6.00884 0.729095 6.44588 0.729109 6.96999 0.729127ZM5.77847 1.64294C5.50929 1.67913 5.39408 1.74168 5.31806 1.8177C5.24204 1.89371 5.1795 2.00892 5.14331 2.27811C5.10542 2.55988 5.10449 2.93762 5.10449 3.49996C5.10449 4.0623 5.10542 4.44004 5.14331 4.72182C5.1795 4.991 5.24204 5.10621 5.31806 5.18223C5.39408 5.25824 5.50929 5.32079 5.77847 5.35698C6.06024 5.39486 6.43799 5.39579 7.00033 5.39579C7.56267 5.39579 7.94041 5.39486 8.22218 5.35698C8.49137 5.32079 8.60657 5.25824 8.68259 5.18223C8.75861 5.10621 8.82116 4.991 8.85735 4.72182C8.89523 4.44004 8.89616 4.0623 8.89616 3.49996C8.89616 2.93762 8.89523 2.55988 8.85735 2.27811C8.82116 2.00892 8.75861 1.89371 8.68259 1.8177C8.60657 1.74168 8.49137 1.67913 8.22218 1.64294C7.94041 1.60506 7.56267 1.60413 7.00033 1.60413C6.43799 1.60413 6.06024 1.60506 5.77847 1.64294Z" fill="#1D2939"/>
<path fill-rule="evenodd" clip-rule="evenodd" d="M7 2.1875C7.24162 2.1875 7.4375 2.38338 7.4375 2.625V3.0625H7.875C8.11662 3.0625 8.3125 3.25838 8.3125 3.5C8.3125 3.74162 8.11662 3.9375 7.875 3.9375H7.4375V4.375C7.4375 4.61662 7.24162 4.8125 7 4.8125C6.75838 4.8125 6.5625 4.61662 6.5625 4.375L6.5625 3.9375H6.125C5.88338 3.9375 5.6875 3.74162 5.6875 3.5C5.6875 3.25838 5.88338 3.0625 6.125 3.0625H6.5625V2.625C6.5625 2.38338 6.75838 2.1875 7 2.1875Z" fill="#D0D5DD"/>
</g>
<defs>
<clipPath id="clip0_2151_23082">
<rect width="14" height="14" fill="white"/>
</clipPath>
</defs>
</svg>
