<svg width="16" height="16" viewBox="0 0 16 16" fill="none" xmlns="http://www.w3.org/2000/svg">
<path d="M11.1667 2.37301V1.33301C11.1667 1.05967 10.94 0.833008 10.6667 0.833008C10.3933 0.833008 10.1667 1.05967 10.1667 1.33301V2.33301H5.83332V1.33301C5.83332 1.05967 5.60666 0.833008 5.33332 0.833008C5.05999 0.833008 4.83332 1.05967 4.83332 1.33301V2.37301C3.03332 2.53967 2.15999 3.61301 2.02666 5.20634C2.01332 5.39967 2.17332 5.55967 2.35999 5.55967H13.64C13.8333 5.55967 13.9933 5.39301 13.9733 5.20634C13.84 3.61301 12.9667 2.53967 11.1667 2.37301Z" fill="#4A4B4B"/>
<path d="M14 7.22705V8.38704C14 8.79371 13.64 9.10705 13.24 9.04038C13.0533 9.01372 12.86 8.99371 12.6667 8.99371C10.6467 8.99371 9 10.6404 9 12.6604C9 12.967 9.12 13.3937 9.24667 13.7804C9.39334 14.2137 9.07333 14.6604 8.61333 14.6604H5.33333C3 14.6604 2 13.327 2 11.327V7.22038C2 6.85371 2.3 6.55371 2.66667 6.55371H13.3333C13.7 6.56038 14 6.86038 14 7.22705Z" fill="#C6C7C8"/>
<path d="M12.6667 10C11.1933 10 10 11.1933 10 12.6667C10 13.1667 10.14 13.64 10.3867 14.04C10.8467 14.8133 11.6933 15.3333 12.6667 15.3333C13.64 15.3333 14.4867 14.8133 14.9467 14.04C15.1933 13.64 15.3333 13.1667 15.3333 12.6667C15.3333 11.1933 14.14 10 12.6667 10ZM14.0467 12.38L12.6267 13.6933C12.5333 13.78 12.4067 13.8267 12.2867 13.8267C12.16 13.8267 12.0333 13.78 11.9333 13.68L11.2733 13.02C11.08 12.8267 11.08 12.5067 11.2733 12.3133C11.4667 12.12 11.7867 12.12 11.98 12.3133L12.3 12.6333L13.3667 11.6467C13.5667 11.46 13.8867 11.4733 14.0733 11.6733C14.26 11.8733 14.2467 12.1867 14.0467 12.38Z" fill="#4A4B4B"/>
<path d="M5.66667 9.99994C5.49333 9.99994 5.32 9.9266 5.19333 9.8066C5.07333 9.67994 5 9.50661 5 9.33328C5 9.15994 5.07333 8.98661 5.19333 8.85995C5.34667 8.70661 5.58 8.63327 5.8 8.67993C5.84 8.6866 5.88 8.69993 5.92 8.71993C5.96 8.73327 6 8.75328 6.04 8.77995C6.07333 8.80662 6.10667 8.83328 6.14 8.85995C6.26 8.98661 6.33333 9.15994 6.33333 9.33328C6.33333 9.50661 6.26 9.67994 6.14 9.8066C6.10667 9.83327 6.07333 9.85993 6.04 9.8866C6 9.91327 5.96 9.93328 5.92 9.94662C5.88 9.96662 5.84 9.97995 5.8 9.98662C5.75333 9.99328 5.70667 9.99994 5.66667 9.99994Z" fill="#4A4B4B"/>
<path d="M8.00004 9.9998C7.82671 9.9998 7.65337 9.92646 7.52671 9.80646C7.40671 9.67979 7.33337 9.50647 7.33337 9.33313C7.33337 9.1598 7.40671 8.98647 7.52671 8.8598C7.78004 8.61314 8.22671 8.61314 8.47337 8.8598C8.59337 8.98647 8.66671 9.1598 8.66671 9.33313C8.66671 9.50647 8.59337 9.67979 8.47337 9.80646C8.34671 9.92646 8.17337 9.9998 8.00004 9.9998Z" fill="#4A4B4B"/>
<path d="M5.66667 12.3336C5.49333 12.3336 5.32 12.2602 5.19333 12.1402C5.07333 12.0136 5 11.8402 5 11.6669C5 11.4936 5.07333 11.3202 5.19333 11.1936C5.26 11.1336 5.32667 11.0869 5.41334 11.0536C5.66 10.9469 5.95333 11.0069 6.14 11.1936C6.26 11.3202 6.33333 11.4936 6.33333 11.6669C6.33333 11.8402 6.26 12.0136 6.14 12.1402C6.01333 12.2602 5.84 12.3336 5.66667 12.3336Z" fill="#4A4B4B"/>
</svg>
