<svg width="16" height="16" viewBox="0 0 16 16" fill="none" xmlns="http://www.w3.org/2000/svg">
<path d="M7.99984 13.3333C10.9454 13.3333 13.3332 10.9455 13.3332 7.99996C13.3332 5.05444 10.9454 2.66663 7.99984 2.66663C5.05432 2.66663 2.6665 5.05444 2.6665 7.99996C2.6665 10.9455 5.05432 13.3333 7.99984 13.3333Z" fill="#C6C7C8"/>
<path d="M7.99992 10.08C9.14867 10.08 10.0799 9.1488 10.0799 8.00004C10.0799 6.85129 9.14867 5.92004 7.99992 5.92004C6.85117 5.92004 5.91992 6.85129 5.91992 8.00004C5.91992 9.1488 6.85117 10.08 7.99992 10.08Z" fill="#4A4B4B"/>
<path d="M8.5 1.33337V2.69337H8.49333C8.33333 2.67337 8.16667 2.66671 8 2.66671C7.83333 2.66671 7.66667 2.67337 7.50667 2.69337H7.5V1.33337C7.5 1.06004 7.72667 0.833374 8 0.833374C8.27333 0.833374 8.5 1.06004 8.5 1.33337Z" fill="#4A4B4B"/>
<path d="M2.66683 8C2.66683 8.16667 2.6735 8.34 2.6935 8.5H1.3335C1.06016 8.5 0.833496 8.27333 0.833496 8C0.833496 7.72667 1.06016 7.5 1.3335 7.5H2.6935C2.6735 7.66 2.66683 7.83333 2.66683 8Z" fill="#4A4B4B"/>
<path d="M8.5 13.3066V14.6666C8.5 14.94 8.27333 15.1666 8 15.1666C7.72667 15.1666 7.5 14.94 7.5 14.6666V13.3066H7.50667C7.66667 13.3266 7.83333 13.3333 8 13.3333C8.16667 13.3333 8.33333 13.3266 8.49333 13.3066H8.5Z" fill="#4A4B4B"/>
<path d="M15.1666 8C15.1666 8.27333 14.94 8.5 14.6666 8.5H13.3066C13.3266 8.34 13.3333 8.16667 13.3333 8C13.3333 7.83333 13.3266 7.66 13.3066 7.5H14.6666C14.94 7.5 15.1666 7.72667 15.1666 8Z" fill="#4A4B4B"/>
</svg>
