<svg width="16" height="16" viewBox="0 0 16 16" fill="none" xmlns="http://www.w3.org/2000/svg">
<path d="M14.1666 6.1C13.8399 5.58 13.4666 5.11334 13.0799 4.69334L10.5666 7.20667C10.6466 7.45334 10.6932 7.72 10.6932 8C10.6932 9.49334 9.48657 10.6933 7.9999 10.6933C7.7199 10.6933 7.45324 10.6467 7.20657 10.5667L4.8999 12.8733C5.87324 13.42 6.92657 13.7067 7.9999 13.7067C9.18657 13.7067 10.3399 13.36 11.3932 12.7133C12.4466 12.06 13.3932 11.1067 14.1666 9.89334C14.8332 8.85334 14.8332 7.14667 14.1666 6.1Z" fill="#C6C7C8"/>
<path d="M9.3466 6.65333L6.65326 9.34666C6.31326 9 6.09326 8.52 6.09326 8C6.09326 6.95333 6.94659 6.09333 7.99993 6.09333C8.51993 6.09333 8.99993 6.31333 9.3466 6.65333Z" fill="#4A4B4B"/>
<path d="M12.1666 3.83333L9.90659 6.09333C9.41992 5.6 8.74659 5.30667 7.99992 5.30667C6.50659 5.30667 5.30659 6.51333 5.30659 8C5.30659 8.74667 5.60659 9.42 6.09325 9.90667L3.83992 12.1667H3.83325C3.09325 11.5667 2.41325 10.8 1.83325 9.89333C1.16659 8.84667 1.16659 7.14667 1.83325 6.1C2.60659 4.88667 3.55325 3.93333 4.60659 3.28C5.65992 2.64 6.81325 2.28667 7.99992 2.28667C9.48659 2.28667 10.9266 2.83333 12.1666 3.83333Z" fill="#C6C7C8"/>
<path d="M9.90672 8C9.90672 9.04667 9.05339 9.90667 8.00005 9.90667C7.96005 9.90667 7.92672 9.90667 7.88672 9.89333L9.89339 7.88667C9.90672 7.92667 9.90672 7.96 9.90672 8Z" fill="#4A4B4B"/>
<path d="M14.5133 1.48667C14.3133 1.28667 13.9867 1.28667 13.7867 1.48667L1.48667 13.7933C1.28667 13.9933 1.28667 14.32 1.48667 14.52C1.58667 14.6133 1.71334 14.6667 1.84667 14.6667C1.98 14.6667 2.10667 14.6133 2.20667 14.5133L14.5133 2.20667C14.72 2.00667 14.72 1.68667 14.5133 1.48667Z" fill="#4A4B4B"/>
</svg>
