<svg width="360" height="240" viewBox="0 0 360 240" fill="none" xmlns="http://www.w3.org/2000/svg">
<path d="M105.547 58.6872L51.689 94.7133L104.737 174.018L158.594 137.992L105.547 58.6872Z" fill="#F8F9FA"/>
<path d="M130.761 134.237L130.152 138.019L103.377 134.16L103.987 130.378L130.761 134.237Z" fill="#DFE0E1"/>
<path d="M117.278 120.744L121.118 121.296L116.86 147.658L113.016 147.101L117.278 120.744Z" fill="#DFE0E1"/>
<path d="M92.6161 87.24C92.6545 87.2976 87.2593 90.9744 80.5633 95.4528C73.8673 99.9312 68.4097 103.517 68.3713 103.459C68.3329 103.402 73.7281 99.7248 80.4241 95.2464C87.1201 90.7632 92.5777 87.1824 92.6161 87.24Z" fill="#DFE0E1"/>
<path d="M112.426 82.2672C112.464 82.3248 103.488 88.3968 92.3809 95.8224C81.2689 103.253 72.2353 109.229 72.1969 109.171C72.1585 109.114 81.1297 103.046 92.2417 95.6112C103.349 88.1856 112.387 82.2096 112.426 82.2672Z" fill="#DFE0E1"/>
<path d="M116.395 88.2C116.434 88.2576 107.458 94.3296 96.3506 101.755C85.2386 109.186 76.205 115.162 76.1666 115.104C76.1282 115.046 85.0994 108.979 96.2114 101.544C107.319 94.1232 116.357 88.1424 116.395 88.2Z" fill="#DFE0E1"/>
<path d="M120.365 94.1377C120.403 94.1953 111.427 100.267 100.32 107.693C89.2079 115.123 80.1743 121.099 80.1359 121.042C80.0975 120.984 89.0687 114.917 100.181 107.482C111.288 100.056 120.326 94.0801 120.365 94.1377Z" fill="#DFE0E1"/>
<path d="M124.334 100.075C124.373 100.133 115.397 106.205 104.29 113.63C93.1776 121.061 84.144 127.037 84.1056 126.979C84.0672 126.922 93.0384 120.854 104.15 113.419C115.258 105.994 124.296 100.018 124.334 100.075Z" fill="#DFE0E1"/>
<path d="M285.639 111.827L240.407 142.083L284.958 208.684L330.189 178.428L285.639 111.827Z" fill="#F8F9FA"/>
<path d="M306.816 175.286L306.302 178.464L283.819 175.224L284.328 172.046L306.816 175.286Z" fill="#DFE0E1"/>
<path d="M295.492 163.954L298.718 164.419L295.142 186.557L291.912 186.091L295.492 163.954Z" fill="#DFE0E1"/>
<path d="M274.781 135.816C274.819 135.874 270.293 138.97 264.667 142.728C259.041 146.491 254.453 149.491 254.414 149.434C254.376 149.376 258.902 146.28 264.528 142.517C270.153 138.758 274.742 135.758 274.781 135.816Z" fill="#DFE0E1"/>
<path d="M291.413 131.64C291.451 131.698 283.92 136.805 274.589 143.045C265.258 149.285 257.664 154.296 257.626 154.238C257.587 154.181 265.118 149.078 274.45 142.834C283.781 136.594 291.374 131.582 291.413 131.64Z" fill="#DFE0E1"/>
<path d="M294.748 136.622C294.787 136.68 287.255 141.787 277.924 148.027C268.593 154.267 260.999 159.278 260.961 159.221C260.923 159.163 268.454 154.061 277.785 147.816C287.116 141.581 294.71 136.57 294.748 136.622Z" fill="#DFE0E1"/>
<path d="M298.085 141.61C298.123 141.667 290.592 146.774 281.261 153.014C271.93 159.254 264.336 164.266 264.298 164.208C264.259 164.15 271.79 159.048 281.122 152.803C290.448 146.563 298.046 141.552 298.085 141.61Z" fill="#DFE0E1"/>
<path d="M301.416 146.597C301.454 146.654 293.923 151.762 284.592 158.002C275.261 164.242 267.667 169.253 267.629 169.195C267.59 169.138 275.121 164.035 284.453 157.79C293.784 151.55 301.377 146.539 301.416 146.597Z" fill="#DFE0E1"/>
<path d="M214.076 61.5973L164.723 35.2028L125.858 107.873L175.211 134.267L214.076 61.5973Z" fill="#F8F9FA"/>
<path d="M166.762 111.538L163.632 112.608L155.683 90.6383L158.813 89.5631L166.762 111.538Z" fill="#DFE0E1"/>
<path d="M171.562 95.7743L172.704 98.9279L150.883 106.401L149.741 103.248L171.562 95.7743Z" fill="#DFE0E1"/>
<path d="M187.065 63.3551C187.027 63.4271 182.02 60.8255 175.886 57.5423C169.747 54.2591 164.808 51.5423 164.846 51.4703C164.884 51.3983 169.891 53.9999 176.025 57.2831C182.164 60.5663 187.104 63.2831 187.065 63.3551Z" fill="#DFE0E1"/>
<path d="M198.912 76.4304C198.874 76.5024 190.589 72.1488 180.413 66.7056C170.232 61.2624 162.01 56.7888 162.048 56.7168C162.086 56.6448 170.371 60.9984 180.552 66.4464C190.728 71.8848 198.95 76.3584 198.912 76.4304Z" fill="#DFE0E1"/>
<path d="M196.003 81.8687C195.965 81.9407 187.68 77.5871 177.504 72.1439C167.323 66.7007 159.101 62.2271 159.139 62.1551C159.178 62.0831 167.462 66.4367 177.643 71.8847C187.819 77.3231 196.042 81.7967 196.003 81.8687Z" fill="#DFE0E1"/>
<path d="M193.094 87.3072C193.056 87.3792 184.771 83.0256 174.595 77.5824C164.414 72.1392 156.192 67.6656 156.23 67.5936C156.269 67.5216 164.553 71.8752 174.734 77.3232C184.91 82.7616 193.133 87.2352 193.094 87.3072Z" fill="#DFE0E1"/>
<path d="M190.185 92.7456C190.147 92.8176 181.862 88.464 171.686 83.0208C161.505 77.5776 153.283 73.1039 153.321 73.0319C153.36 72.9599 161.645 77.3135 171.825 82.7615C182.001 88.1999 190.224 92.6736 190.185 92.7456Z" fill="#DFE0E1"/>
<path opacity="0.2" d="M190.44 0H189.202V21.1104H190.44V0Z" fill="#191919"/>
<path d="M160.911 46.6512H218.732C218.732 46.6512 213.394 21.1008 189.385 21.1008C168.03 21.1008 160.911 46.6512 160.911 46.6512Z" fill="#EA5353"/>
<path d="M190.441 0H189.202V21.1104H190.441V0Z" fill="#EA5353"/>
<path d="M318.562 211.118C318.562 211.186 256.522 211.243 180.01 211.243C103.469 211.243 41.4434 211.186 41.4434 211.118C41.4434 211.051 103.469 210.994 180.01 210.994C256.522 210.994 318.562 211.046 318.562 211.118Z" fill="#4A4B4B"/>
<path d="M56.7793 181.056C58.4017 181.114 59.9233 181.992 60.9937 183.216C62.0641 184.435 62.7217 185.971 63.1393 187.541C63.9505 190.574 63.4513 194.16 62.5873 197.179C59.2993 196.003 57.2737 192.499 56.3569 190.656C54.9121 187.747 54.0625 181.603 56.7793 181.056Z" fill="#EA5353"/>
<path d="M67.3152 200.856C66.2784 199.368 66.2544 197.299 67.0752 195.677C67.896 194.059 69.4704 192.893 71.2032 192.36C72.0048 192.115 72.936 192.01 73.632 192.475C74.2848 192.912 74.568 193.766 74.4816 194.544C74.3952 195.322 74.0016 196.037 73.536 196.666C71.9376 198.835 69.9984 200.635 67.3152 200.856Z" fill="#EA5353"/>
<path d="M67.6798 210.998C67.6654 211.003 67.6126 210.778 67.531 210.37C67.4446 209.918 67.3294 209.338 67.195 208.642C66.9358 207.187 66.523 205.118 66.835 202.834C67.1326 200.558 68.0398 198.61 68.9902 197.448C69.4558 196.862 69.907 196.445 70.2382 196.19C70.3966 196.056 70.5406 195.974 70.627 195.907C70.7182 195.845 70.771 195.816 70.7758 195.826C70.8094 195.864 70.0078 196.363 69.1198 197.549C68.2222 198.715 67.3582 200.626 67.0606 202.867C66.7534 205.109 67.1326 207.158 67.3534 208.618C67.4686 209.352 67.5646 209.947 67.6222 210.36C67.6702 210.768 67.6942 210.998 67.6798 210.998Z" fill="#4A4B4B"/>
<path d="M57.835 185.678C57.8446 185.674 57.8878 185.76 57.9694 185.928C58.0558 186.115 58.171 186.36 58.3102 186.658C58.5982 187.296 59.011 188.222 59.5054 189.37C60.4942 191.669 61.819 194.866 63.2014 198.422C64.5838 201.984 65.7598 205.238 66.5758 207.6C66.9838 208.781 67.3102 209.741 67.5262 210.408C67.627 210.725 67.7086 210.979 67.771 211.176C67.8238 211.354 67.8478 211.445 67.843 211.45C67.8334 211.454 67.795 211.363 67.7278 211.19C67.6558 210.994 67.5598 210.744 67.4446 210.437C67.195 209.755 66.8494 208.81 66.427 207.653C65.5678 205.301 64.3678 202.061 62.9902 198.499C61.6078 194.942 60.3118 191.741 59.3614 189.427C58.8958 188.29 58.5118 187.358 58.2334 186.686C58.1086 186.379 58.0126 186.13 57.9358 185.938C57.859 185.77 57.8302 185.678 57.835 185.678Z" fill="#4A4B4B"/>
<path d="M63.7775 204.288C61.8383 200.99 58.2239 198.744 54.4079 198.466C53.4383 198.394 52.2671 198.557 51.8351 199.43C51.4031 200.304 51.9791 201.336 52.6415 202.056C55.3967 205.037 60.0527 206.078 63.8111 204.552" fill="#EA5353"/>
<path d="M55.8863 201.067C55.8863 201.053 56.1022 201.062 56.4958 201.091C56.6926 201.106 56.9327 201.12 57.2063 201.173C57.4799 201.226 57.7967 201.254 58.1375 201.346C58.4783 201.427 58.8575 201.514 59.2463 201.653C59.6447 201.768 60.0526 201.941 60.4799 202.123C61.3247 202.507 62.227 203.011 63.0814 203.664C63.931 204.326 64.6462 205.066 65.2318 205.79C65.5102 206.16 65.779 206.515 65.9902 206.875C66.2206 207.221 66.3934 207.566 66.5518 207.878C66.7246 208.186 66.8255 208.488 66.9407 208.742C67.0559 208.997 67.1231 209.227 67.1807 209.414C67.2959 209.789 67.3534 209.995 67.339 210C67.291 210.019 67.0559 209.179 66.4079 207.95C66.2399 207.648 66.0623 207.312 65.8271 206.976C65.6159 206.626 65.3471 206.285 65.0639 205.925C64.4831 205.219 63.7726 204.499 62.9374 203.846C62.0974 203.203 61.219 202.704 60.3886 202.315C59.971 202.133 59.5679 201.955 59.1791 201.835C58.7999 201.691 58.4302 201.6 58.0942 201.504C56.7502 201.163 55.8815 201.12 55.8863 201.067Z" fill="#4A4B4B"/>
<path d="M273.773 50.6256C272.362 50.952 271.675 52.5744 271.541 54.0144C271.406 55.4544 271.589 56.9808 270.984 58.296C270.302 59.7792 268.675 60.8688 268.618 62.496C268.584 63.4896 269.174 64.4256 269.145 65.4192C269.097 67.0512 267.437 68.2848 267.35 69.912C267.288 71.088 268.07 72.2112 267.883 73.3728C267.739 74.2752 267.034 74.9856 266.736 75.8544C266.146 77.5776 267.326 79.4784 268.872 80.448C270.59 81.528 272.793 81.8112 274.728 81.192C276.662 80.5728 278.294 79.0704 279.067 77.1888C279.922 75.1152 279.734 72.7824 279.547 70.5456C278.966 63.5808 278.539 56.6064 278.256 49.6272" fill="#4A4B4B"/>
<path d="M269.674 75.1969C269.645 75.1681 270.058 75.0433 270.317 74.4289C270.442 74.1265 270.509 73.7233 270.48 73.2577C270.466 72.7873 270.303 72.2785 270.13 71.7025C269.967 71.1313 269.76 70.4689 269.88 69.7345C270 68.9857 270.538 68.3713 271.023 67.7713C271.267 67.4641 271.517 67.1473 271.671 66.7873C271.834 66.4321 271.867 66.0193 271.747 65.6353C271.498 64.8529 270.73 64.2721 270.379 63.3697C270.207 62.9137 270.202 62.4193 270.303 61.9681C270.399 61.5169 270.581 61.1041 270.768 60.7105C271.143 59.9281 271.56 59.2129 271.723 58.4497C272.059 56.9281 271.901 55.4737 272.131 54.2785C272.338 53.0833 272.847 52.1809 273.346 51.7201C273.591 51.4801 273.826 51.3553 273.979 51.2689C274.143 51.1969 274.229 51.1681 274.234 51.1729C274.248 51.2017 273.879 51.3121 273.413 51.7873C272.952 52.2529 272.487 53.1361 272.304 54.3073C272.208 54.8881 272.194 55.5457 272.17 56.2465C272.146 56.9473 272.122 57.7105 271.944 58.4977C271.776 59.2945 271.354 60.0433 270.989 60.8065C270.629 61.5601 270.298 62.4433 270.615 63.2689C270.922 64.0849 271.695 64.6657 271.983 65.5489C272.127 65.9905 272.079 66.4753 271.891 66.8689C271.714 67.2673 271.455 67.5985 271.205 67.9057C270.701 68.5105 270.202 69.0913 270.087 69.7633C269.967 70.4305 270.154 71.0785 270.303 71.6449C270.461 72.2161 270.619 72.7537 270.624 73.2433C270.639 73.7281 270.557 74.1505 270.408 74.4577C270.264 74.7697 270.063 74.9665 269.919 75.0625C269.77 75.1777 269.674 75.1969 269.674 75.1969Z" fill="#7C7C7D"/>
<path d="M265.896 86.5776L261.562 99.0672L243.494 100.037L240.48 106.738L259.344 108.648C263.107 110.203 267.403 108.298 268.776 104.467L273.811 90.4128L265.896 86.5776Z" fill="#B78876"/>
<path d="M303.269 204.336C303.269 204.336 290.026 162.278 289.747 160.915C289.493 159.682 294.552 129.418 295.191 121.584L277.301 122.251C277.301 122.251 277.301 122.299 277.301 122.381L269.698 122.803L276.509 208.814H284.741L283.925 180.278C289.003 193.91 296.275 207.797 296.275 207.797L303.269 204.336Z" fill="#B78876"/>
<path d="M284.256 190.502C284.266 190.243 284.155 180.941 284.155 180.941C284.054 181.498 280.997 172.867 281.074 172.339C281.112 172.07 284.256 190.502 284.256 190.502Z" fill="#A36957"/>
<path d="M280.728 168.254C280.709 168.254 280.69 168.442 280.675 168.778C280.656 169.114 280.656 169.603 280.685 170.203C280.695 170.506 280.728 170.832 280.767 171.187C280.81 171.538 280.858 171.917 280.939 172.306C281.088 173.093 281.319 173.942 281.611 174.811C282.211 176.549 282.869 178.07 283.339 179.179C283.56 179.683 283.752 180.115 283.911 180.48C284.05 180.787 284.136 180.95 284.155 180.941C284.175 180.936 284.122 180.754 284.011 180.437C283.901 180.12 283.733 179.664 283.517 179.102C283.095 177.979 282.466 176.448 281.871 174.72C281.578 173.856 281.347 173.021 281.184 172.253C281.098 171.869 281.04 171.499 280.987 171.154C280.939 170.808 280.896 170.482 280.872 170.184C280.815 169.589 280.791 169.104 280.776 168.773C280.762 168.442 280.747 168.259 280.728 168.254Z" fill="#A36957"/>
<path d="M276.351 209.237L276.346 208.464L284.779 208.094L284.803 211.282L284.285 211.315C281.971 211.45 272.506 211.843 270.955 211.378C269.227 210.864 276.351 209.237 276.351 209.237Z" fill="#7C7C7D"/>
<path d="M284.918 211.094C284.918 211.099 284.87 211.104 284.774 211.109C284.65 211.118 284.515 211.123 284.362 211.138C283.949 211.157 283.44 211.181 282.835 211.21C281.549 211.262 279.768 211.306 277.8 211.315C275.832 211.325 274.051 211.291 272.765 211.253C272.165 211.229 271.656 211.21 271.238 211.195C271.085 211.186 270.95 211.181 270.826 211.171C270.73 211.166 270.682 211.162 270.682 211.157C270.682 211.152 270.73 211.152 270.826 211.152C270.95 211.152 271.085 211.157 271.238 211.157C271.651 211.162 272.165 211.171 272.765 211.181C274.051 211.2 275.832 211.224 277.8 211.214C279.763 211.205 281.544 211.171 282.835 211.138C283.435 211.123 283.944 211.109 284.362 211.099C284.515 211.094 284.65 211.094 284.774 211.09C284.87 211.09 284.918 211.09 284.918 211.094Z" fill="#4A4B4B"/>
<path d="M273.619 211.363C273.59 211.368 273.562 211.003 273.331 210.638C273.106 210.269 272.794 210.082 272.808 210.058C272.813 210.034 273.173 210.187 273.418 210.586C273.663 210.979 273.643 211.373 273.619 211.363Z" fill="#4A4B4B"/>
<path d="M276.086 210.101C276.062 210.115 275.942 209.971 275.822 209.779C275.697 209.587 275.62 209.419 275.64 209.405C275.664 209.39 275.784 209.534 275.904 209.726C276.033 209.918 276.11 210.086 276.086 210.101Z" fill="#4A4B4B"/>
<path d="M276.768 209.736C276.749 209.755 276.614 209.669 276.47 209.539C276.326 209.41 276.221 209.29 276.24 209.266C276.259 209.246 276.394 209.333 276.538 209.462C276.682 209.597 276.787 209.717 276.768 209.736Z" fill="#4A4B4B"/>
<path d="M277.195 208.944C277.195 208.973 276.999 208.997 276.759 209.002C276.519 209.006 276.322 208.987 276.322 208.958C276.322 208.93 276.519 208.906 276.759 208.901C276.999 208.896 277.195 208.915 277.195 208.944Z" fill="#4A4B4B"/>
<path d="M277.339 208.387C277.349 208.411 277.138 208.507 276.85 208.531C276.567 208.555 276.341 208.493 276.346 208.464C276.351 208.435 276.571 208.45 276.84 208.43C277.114 208.406 277.33 208.358 277.339 208.387Z" fill="#4A4B4B"/>
<path d="M275.803 209.366C275.803 209.376 275.597 209.405 275.266 209.366C275.098 209.347 274.901 209.309 274.69 209.242C274.584 209.203 274.474 209.179 274.358 209.107C274.306 209.074 274.243 209.021 274.224 208.939C274.2 208.858 274.243 208.766 274.306 208.723C274.819 208.454 275.338 208.742 275.53 209.006C275.635 209.141 275.683 209.275 275.707 209.366C275.731 209.458 275.726 209.51 275.722 209.51C275.702 209.515 275.683 209.299 275.472 209.05C275.366 208.93 275.213 208.81 275.011 208.752C274.819 208.694 274.55 208.68 274.368 208.8C274.282 208.862 274.315 208.963 274.411 209.021C274.502 209.078 274.613 209.112 274.714 209.15C274.92 209.218 275.107 209.266 275.27 209.294C275.597 209.352 275.803 209.352 275.803 209.366Z" fill="#4A4B4B"/>
<path d="M275.664 209.395C275.655 209.4 275.578 209.266 275.602 209.021C275.616 208.901 275.659 208.762 275.746 208.627C275.842 208.507 275.962 208.344 276.192 208.349C276.317 208.363 276.379 208.507 276.36 208.598C276.351 208.694 276.307 208.776 276.269 208.838C276.187 208.973 276.101 209.083 276.015 209.165C275.847 209.333 275.712 209.395 275.707 209.386C275.698 209.371 275.813 209.29 275.962 209.117C276.034 209.03 276.115 208.925 276.187 208.79C276.259 208.675 276.312 208.474 276.178 208.45C276.043 208.435 275.904 208.57 275.823 208.68C275.736 208.795 275.693 208.925 275.669 209.03C275.631 209.251 275.679 209.39 275.664 209.395Z" fill="#4A4B4B"/>
<path d="M284.741 208.795C284.741 208.814 284.501 208.771 284.122 208.819C283.747 208.862 283.224 209.016 282.773 209.381C282.322 209.746 282.053 210.221 281.933 210.576C281.808 210.936 281.794 211.176 281.775 211.176C281.77 211.176 281.765 211.114 281.775 211.008C281.784 210.898 281.808 210.744 281.866 210.557C281.976 210.182 282.24 209.683 282.711 209.304C283.181 208.925 283.728 208.776 284.117 208.747C284.314 208.733 284.472 208.742 284.578 208.757C284.683 208.776 284.741 208.79 284.741 208.795Z" fill="#4A4B4B"/>
<path d="M280.704 210.423C280.709 210.447 280.161 210.538 279.48 210.538C278.798 210.543 278.251 210.461 278.251 210.432C278.256 210.403 278.803 210.437 279.475 210.432C280.152 210.437 280.699 210.394 280.704 210.423Z" fill="#4A4B4B"/>
<path d="M282.346 210.408C282.365 210.427 282.302 210.523 282.245 210.648C282.187 210.773 282.158 210.883 282.13 210.883C282.101 210.883 282.086 210.749 282.154 210.605C282.216 210.461 282.326 210.384 282.346 210.408Z" fill="#4A4B4B"/>
<path d="M282.965 209.635C282.984 209.654 282.931 209.741 282.845 209.832C282.758 209.918 282.672 209.976 282.653 209.957C282.634 209.938 282.686 209.851 282.773 209.76C282.854 209.669 282.941 209.611 282.965 209.635Z" fill="#4A4B4B"/>
<path d="M283.848 209.275C283.843 209.304 283.733 209.304 283.608 209.347C283.483 209.39 283.397 209.458 283.373 209.438C283.349 209.424 283.421 209.304 283.574 209.251C283.728 209.198 283.857 209.251 283.848 209.275Z" fill="#4A4B4B"/>
<path d="M284.477 209.107C284.486 209.131 284.438 209.174 284.371 209.203C284.304 209.232 284.237 209.232 284.227 209.203C284.218 209.179 284.266 209.136 284.333 209.107C284.405 209.083 284.467 209.083 284.477 209.107Z" fill="#4A4B4B"/>
<path d="M296.107 208.493L295.786 207.787L303.327 203.995L304.656 206.894L304.195 207.139C302.141 208.21 293.664 212.443 292.061 212.654C290.275 212.894 296.107 208.493 296.107 208.493Z" fill="#7C7C7D"/>
<path d="M304.69 206.674C304.69 206.678 304.647 206.702 304.565 206.746C304.455 206.803 304.335 206.866 304.2 206.938C303.831 207.125 303.375 207.355 302.837 207.629C301.685 208.205 300.077 208.973 298.287 209.789C296.496 210.6 294.859 211.301 293.664 211.795C293.107 212.021 292.632 212.213 292.248 212.366C292.104 212.424 291.979 212.472 291.859 212.515C291.768 212.549 291.725 212.563 291.72 212.558C291.72 212.554 291.763 212.534 291.85 212.496C291.965 212.448 292.09 212.39 292.229 212.328C292.608 212.165 293.079 211.963 293.631 211.728C294.816 211.219 296.448 210.509 298.239 209.698C300.029 208.886 301.637 208.123 302.799 207.566C303.341 207.307 303.802 207.086 304.176 206.904C304.315 206.837 304.44 206.779 304.551 206.726C304.642 206.693 304.685 206.674 304.69 206.674Z" fill="#4A4B4B"/>
<path d="M294.49 211.555C294.461 211.57 294.293 211.248 293.928 211.008C293.573 210.763 293.208 210.72 293.213 210.691C293.208 210.667 293.602 210.662 293.986 210.926C294.37 211.181 294.514 211.546 294.49 211.555Z" fill="#4A4B4B"/>
<path d="M296.222 209.386C296.208 209.41 296.04 209.328 295.848 209.203C295.656 209.078 295.517 208.958 295.531 208.934C295.546 208.91 295.714 208.992 295.906 209.117C296.098 209.242 296.237 209.362 296.222 209.386Z" fill="#4A4B4B"/>
<path d="M296.693 208.781C296.683 208.81 296.525 208.781 296.342 208.723C296.155 208.666 296.016 208.594 296.021 208.57C296.03 208.541 296.184 208.57 296.371 208.627C296.558 208.685 296.702 208.752 296.693 208.781Z" fill="#4A4B4B"/>
<path d="M296.76 207.878C296.77 207.902 296.602 208.008 296.386 208.109C296.165 208.21 295.978 208.272 295.968 208.248C295.959 208.224 296.127 208.118 296.343 208.018C296.559 207.917 296.746 207.854 296.76 207.878Z" fill="#4A4B4B"/>
<path d="M296.664 207.312C296.683 207.331 296.53 207.509 296.28 207.643C296.03 207.782 295.8 207.816 295.795 207.792C295.786 207.763 295.997 207.686 296.232 207.557C296.467 207.422 296.645 207.288 296.664 207.312Z" fill="#4A4B4B"/>
<path d="M295.661 208.839C295.665 208.848 295.488 208.959 295.166 209.059C295.008 209.107 294.811 209.155 294.59 209.179C294.48 209.189 294.369 209.208 294.235 209.194C294.173 209.184 294.096 209.16 294.043 209.098C293.99 209.035 293.99 208.935 294.029 208.867C294.389 208.411 294.979 208.464 295.262 208.627C295.416 208.709 295.512 208.81 295.569 208.882C295.627 208.959 295.646 209.007 295.641 209.007C295.627 209.021 295.521 208.829 295.229 208.69C295.085 208.623 294.893 208.579 294.686 208.608C294.489 208.637 294.235 208.733 294.12 208.915C294.067 209.007 294.139 209.088 294.249 209.098C294.355 209.112 294.475 209.098 294.581 209.093C294.797 209.074 294.989 209.035 295.147 208.997C295.469 208.906 295.656 208.824 295.661 208.839Z" fill="#4A4B4B"/>
<path d="M295.545 208.92C295.541 208.93 295.411 208.834 295.334 208.603C295.296 208.488 295.277 208.344 295.305 208.186C295.344 208.037 295.387 207.835 295.603 207.749C295.723 207.711 296.006 207.955 296.025 208.047C296.054 208.138 295.881 208.09 295.877 208.167C295.857 208.32 295.824 208.459 295.781 208.57C295.694 208.791 295.598 208.901 295.589 208.896C295.574 208.887 295.646 208.762 295.713 208.546C295.747 208.435 295.776 208.306 295.785 208.157C295.805 208.023 295.766 207.816 295.632 207.85C295.502 207.893 295.435 208.071 295.401 208.205C295.373 208.344 295.382 208.479 295.406 208.589C295.459 208.8 295.56 208.911 295.545 208.92Z" fill="#4A4B4B"/>
<path d="M303.586 204.653C303.59 204.672 303.355 204.73 303.029 204.927C302.702 205.119 302.29 205.474 302.026 205.992C301.762 206.511 301.714 207.053 301.747 207.427C301.781 207.807 301.867 208.032 301.848 208.037C301.843 208.037 301.814 207.984 301.776 207.883C301.738 207.783 301.699 207.629 301.67 207.432C301.618 207.048 301.651 206.482 301.93 205.939C302.203 205.402 302.645 205.037 302.986 204.859C303.158 204.768 303.307 204.711 303.413 204.682C303.523 204.658 303.581 204.648 303.586 204.653Z" fill="#4A4B4B"/>
<path d="M300.567 207.792C300.581 207.816 300.115 208.118 299.496 208.402C298.877 208.685 298.344 208.834 298.335 208.81C298.325 208.781 298.839 208.589 299.453 208.31C300.067 208.032 300.552 207.768 300.567 207.792Z" fill="#4A4B4B"/>
<path d="M302.059 207.106C302.088 207.115 302.064 207.23 302.069 207.37C302.069 207.509 302.088 207.619 302.059 207.634C302.035 207.643 301.963 207.533 301.963 207.37C301.963 207.206 302.035 207.091 302.059 207.106Z" fill="#4A4B4B"/>
<path d="M302.304 206.146C302.328 206.155 302.319 206.256 302.275 206.371C302.232 206.486 302.175 206.573 302.151 206.563C302.127 206.554 302.136 206.453 302.179 206.338C302.223 206.222 302.275 206.136 302.304 206.146Z" fill="#4A4B4B"/>
<path d="M302.966 205.459C302.971 205.488 302.87 205.531 302.774 205.622C302.678 205.709 302.626 205.81 302.597 205.8C302.568 205.795 302.587 205.656 302.702 205.546C302.822 205.435 302.962 205.43 302.966 205.459Z" fill="#4A4B4B"/>
<path d="M303.471 205.046C303.49 205.066 303.466 205.123 303.413 205.181C303.36 205.234 303.303 205.262 303.283 205.243C303.264 205.224 303.288 205.166 303.341 205.109C303.394 205.051 303.451 205.027 303.471 205.046Z" fill="#4A4B4B"/>
<path d="M294.029 107.347L292.622 90.2112L299.837 90.3408C299.837 90.3408 300.173 87.816 299.107 82.272C298.454 78.8736 296.193 76.7904 293.654 75.552V75.5088L293.433 75.4512C290.203 73.9392 286.824 73.728 286.824 73.728L277.968 73.8288C277.968 73.8288 271.205 72.984 267.461 77.808C266.021 79.6656 261.557 92.3808 261.557 92.3808L272.184 97.4976L271.171 90.4464C271.171 90.4464 271.373 95.5584 272.025 97.176C272.39 98.0784 273.441 100.882 273.441 100.882L273.302 109.334L294.029 107.347Z" fill="#EA5353"/>
<path d="M289.147 87.7248L287.832 93.3216H300.23L299.414 83.9328L289.147 87.7248Z" fill="#EA5353"/>
<path d="M300.231 93.3216C300.231 93.2832 299.607 93.2208 298.589 93.1584C297.571 93.1008 296.165 93.048 294.615 93.0576C293.059 93.0672 291.653 93.1344 290.64 93.2112C289.623 93.2928 288.999 93.3792 289.003 93.4128C289.008 93.4512 289.637 93.4368 290.65 93.4032C291.667 93.3744 293.069 93.336 294.615 93.3264C296.165 93.3216 297.567 93.3408 298.584 93.3504C299.597 93.3648 300.231 93.36 300.231 93.3216Z" fill="#4A4B4B"/>
<path d="M288.61 83.8896C288.571 83.8896 288.557 84.4368 288.566 85.3152C288.576 86.1936 288.61 87.408 288.658 88.7472C288.71 90.0864 288.773 91.3008 288.83 92.1744C288.888 93.0528 288.946 93.5904 288.984 93.5904C289.022 93.5904 289.037 93.0432 289.027 92.1648C289.018 91.2864 288.984 90.072 288.936 88.7328C288.883 87.3936 288.821 86.184 288.763 85.3056C288.706 84.4272 288.648 83.8896 288.61 83.8896Z" fill="#4A4B4B"/>
<g opacity="0.3">
<path d="M277.33 88.7376C277.33 88.7376 280.085 109.171 287.832 108.629C287.832 108.629 291.322 108.586 292.44 106.267V105.355L277.33 88.7376Z" fill="#191919"/>
</g>
<g opacity="0.3">
<path d="M288.61 85.0944L287.126 95.112L288.086 96.8688L289.67 93.432L288.998 93.4128L288.61 85.0944Z" fill="#191919"/>
</g>
<path d="M273.451 100.877C273.437 100.882 273.36 100.714 273.24 100.397C273.12 100.085 272.962 99.624 272.774 99.0576C272.405 97.9152 271.949 96.3216 271.589 94.5216C271.233 92.7216 271.056 91.0704 271.003 89.8704C270.974 89.2704 270.965 88.7856 270.974 88.4496C270.979 88.1136 270.993 87.9264 271.008 87.9264C271.046 87.9264 271.075 88.6656 271.176 89.856C271.277 91.0464 271.478 92.6832 271.833 94.4736C272.189 96.2592 272.616 97.8528 272.942 99.0048C273.096 99.5376 273.225 99.9936 273.331 100.368C273.422 100.69 273.465 100.872 273.451 100.877Z" fill="#4A4B4B"/>
<path d="M276.581 106.747C276.514 106.767 276.322 106.325 276.154 105.763C275.981 105.202 275.899 104.727 275.966 104.707C276.034 104.688 276.226 105.13 276.394 105.691C276.562 106.258 276.648 106.728 276.581 106.747Z" fill="#4A4B4B"/>
<path d="M277.651 106.671C277.589 106.685 277.378 106.027 277.368 105.178C277.354 104.328 277.541 103.661 277.608 103.675C277.68 103.69 277.603 104.352 277.618 105.173C277.627 105.994 277.723 106.656 277.651 106.671Z" fill="#4A4B4B"/>
<path d="M272.41 97.728C272.381 97.7904 269.904 96.6144 266.885 95.1072C263.866 93.6 261.442 92.3232 261.47 92.2608C261.499 92.1984 263.976 93.3744 266.995 94.8816C270.014 96.3888 272.438 97.6656 272.41 97.728Z" fill="#4A4B4B"/>
<path d="M276.768 75.4801C276.825 73.0513 276.835 70.4929 276.835 70.4929C276.835 70.4929 273.72 69.8929 273.177 65.7937C272.659 61.8865 274.109 52.7137 274.109 52.7137C278.659 50.9953 283.387 52.5505 286.502 56.2369L285.729 75.9505C285.638 78.2401 283.598 79.9873 281.15 79.8721C278.673 79.7617 276.715 77.7937 276.768 75.4801Z" fill="#B78876"/>
<path d="M273.869 60.0481C273.85 60.3265 274.07 60.5665 274.358 60.5905C274.646 60.6145 274.891 60.4081 274.91 60.1345C274.93 59.8561 274.709 59.6161 274.421 59.5921C274.138 59.5681 273.888 59.7697 273.869 60.0481Z" fill="#4A4B4B"/>
<path d="M273.677 59.3617C273.739 59.4337 274.142 59.1505 274.709 59.1649C275.27 59.1745 275.678 59.4721 275.741 59.4049C275.769 59.3761 275.707 59.2513 275.534 59.1169C275.361 58.9825 275.064 58.8481 274.709 58.8385C274.358 58.8337 274.061 58.9537 273.888 59.0785C273.705 59.2081 273.643 59.3281 273.677 59.3617Z" fill="#4A4B4B"/>
<path d="M279.586 60.4032C279.566 60.6816 279.787 60.9216 280.075 60.9456C280.363 60.9696 280.608 60.7632 280.627 60.4896C280.646 60.2112 280.426 59.9712 280.138 59.9472C279.85 59.9232 279.605 60.1296 279.586 60.4032Z" fill="#4A4B4B"/>
<path d="M279.547 59.7169C279.61 59.7889 280.013 59.5057 280.579 59.5201C281.141 59.5297 281.549 59.8273 281.611 59.7601C281.64 59.7313 281.578 59.6065 281.4 59.4673C281.227 59.3329 280.93 59.1985 280.574 59.1889C280.224 59.1841 279.926 59.3041 279.754 59.4289C279.581 59.5633 279.518 59.6833 279.547 59.7169Z" fill="#4A4B4B"/>
<path d="M277.397 63.8401C277.402 63.8065 277.051 63.7393 276.485 63.6529C276.341 63.6337 276.206 63.6001 276.182 63.5041C276.149 63.3985 276.216 63.2449 276.288 63.0817C276.432 62.7361 276.581 62.3761 276.739 61.9969C277.368 60.4513 277.829 59.1841 277.766 59.1553C277.704 59.1313 277.142 60.3601 276.509 61.9057C276.355 62.2849 276.211 62.6497 276.072 62.9953C276.014 63.1585 275.914 63.3409 275.981 63.5569C276.014 63.6673 276.12 63.7441 276.211 63.7729C276.302 63.8017 276.384 63.8065 276.456 63.8113C277.037 63.8593 277.392 63.8737 277.397 63.8401Z" fill="#4A4B4B"/>
<path d="M276.835 70.4976C276.835 70.4976 279.576 70.7472 282.341 69.1824C282.341 69.1824 280.944 71.952 276.869 71.4624L276.835 70.4976Z" fill="#A36957"/>
<path d="M281.352 58.0897C281.236 58.2673 280.809 58.1857 280.329 58.0993C279.849 58.0033 279.422 57.9169 279.384 57.7105C279.336 57.5137 279.83 57.2401 280.473 57.3601C281.107 57.4897 281.467 57.9265 281.352 58.0897Z" fill="#4A4B4B"/>
<path d="M275.751 57.2641C275.707 57.4705 275.247 57.5425 274.719 57.5713C274.191 57.5905 273.725 57.5617 273.663 57.3601C273.6 57.1681 274.047 56.8513 274.685 56.8225C275.323 56.7937 275.794 57.0673 275.751 57.2641Z" fill="#4A4B4B"/>
<path d="M277.406 65.1889C277.286 65.1553 277.152 65.2225 277.094 65.3329C277.022 65.4625 277.056 65.6353 277.166 65.7313C277.277 65.8273 277.459 65.8273 277.574 65.7361C277.689 65.6449 277.728 65.4673 277.661 65.3377C277.593 65.2081 277.43 65.1361 277.286 65.1793" fill="#A36957"/>
<path d="M277.536 65.2465C277.56 65.2225 277.445 65.0833 277.2 65.1409C277.085 65.1649 276.936 65.2657 276.893 65.4433C276.85 65.6065 276.888 65.8177 277.061 65.9521C277.243 66.0769 277.459 66.0529 277.598 65.9569C277.752 65.8561 277.795 65.6737 277.771 65.5585C277.723 65.3041 277.536 65.2657 277.531 65.2993C277.512 65.3329 277.598 65.4193 277.579 65.5681C277.57 65.6401 277.536 65.7073 277.464 65.7457C277.392 65.7841 277.282 65.7841 277.219 65.7361C277.152 65.6881 277.118 65.5825 277.133 65.5057C277.142 65.4241 277.195 65.3665 277.262 65.3281C277.402 65.2417 277.522 65.2801 277.536 65.2465Z" fill="#4A4B4B"/>
<path d="M284.616 61.0609C284.131 62.1841 282.945 63.0529 283.108 64.2673C283.214 65.0497 283.718 65.7841 283.622 66.5665C283.497 67.5505 282.475 68.2369 282.331 69.2209C282.153 70.4257 283.324 71.3617 283.795 72.4897C284.476 74.1265 283.603 75.9697 283.584 77.7457C283.55 80.4625 285.864 83.0017 288.571 83.2273C289.665 83.3185 290.899 82.9873 291.47 82.0465C291.94 81.2689 291.844 80.2849 292.128 79.4209C292.545 78.1345 293.769 77.1985 294.028 75.8689C294.499 73.4497 291.576 71.4529 291.768 68.9953C291.849 67.9441 292.497 67.0321 292.771 66.0145C293.131 64.6849 292.8 63.1873 291.912 62.1313C291.192 61.2721 290.145 60.7105 289.531 59.7745C288.835 58.7137 288.811 57.3649 288.547 56.1217C287.908 53.0929 285.633 50.4625 282.729 49.3921C279.825 48.3217 276.384 48.8449 273.931 50.7313C273.931 50.7313 273.235 53.8945 276.48 54.4225C279.729 54.9505 281.232 54.3409 281.596 55.6417C281.596 55.6417 281.227 57.1633 282.571 58.6129C283.915 60.0625 285.177 59.7553 284.616 61.0609Z" fill="#4A4B4B"/>
<path d="M289.8 83.0017C289.8 83.0113 289.699 83.0017 289.502 82.9729C289.31 82.9441 289.027 82.8769 288.676 82.7521C287.985 82.4977 287.001 81.9457 286.166 80.8897C285.748 80.3665 285.36 79.7329 285.096 78.9889C284.827 78.2497 284.673 77.4097 284.659 76.5265C284.64 75.6433 284.764 74.7121 285.004 73.7857C285.124 73.3201 285.283 72.8593 285.465 72.3985C285.643 71.9377 285.864 71.4913 285.993 71.0209C286.128 70.5505 286.113 70.0705 285.988 69.6145C285.864 69.1585 285.648 68.7265 285.441 68.2993C285.23 67.8721 285.019 67.4497 284.88 66.9985C284.74 66.5521 284.688 66.0673 284.779 65.6209C284.971 64.7185 285.518 64.0465 285.844 63.3601C286.185 62.6785 286.296 61.9633 286.281 61.3153C286.224 60.0097 285.667 59.0401 285.211 58.4833C284.736 57.9265 284.376 57.7105 284.395 57.6913C284.395 57.6913 284.774 57.8689 285.283 58.4209C285.772 58.9729 286.372 59.9521 286.454 61.3057C286.483 61.9729 286.382 62.7313 286.032 63.4465C285.7 64.1569 285.172 64.8337 285.004 65.6593C284.836 66.4945 285.23 67.3537 285.657 68.1889C285.868 68.6161 286.089 69.0577 286.224 69.5473C286.358 70.0321 286.377 70.5841 286.228 71.0833C286.094 71.5873 285.868 72.0385 285.691 72.4897C285.513 72.9409 285.355 73.3969 285.235 73.8481C284.995 74.7553 284.87 75.6625 284.884 76.5217C284.889 78.2497 285.484 79.7665 286.296 80.7793C287.092 81.8209 288.033 82.3825 288.705 82.6561C289.392 82.9297 289.804 82.9729 289.8 83.0017Z" fill="#7C7C7D"/>
<path d="M289.32 58.7809C289.32 58.7953 289.07 58.8433 288.604 58.8865C288.144 58.9249 287.462 58.9777 286.627 58.8337C285.816 58.6849 284.784 58.2865 284.131 57.3217C283.809 56.8369 283.684 56.2513 283.478 55.7089C283.281 55.1617 282.902 54.6865 282.384 54.3601C281.332 53.6929 280.099 53.6113 279.019 53.4817C277.934 53.3569 276.912 53.1265 276.22 52.6081C275.524 52.1137 275.169 51.4705 275.073 51.0049C275.02 50.7745 275.025 50.5873 275.035 50.4625C275.054 50.3377 275.064 50.2753 275.073 50.2753C275.102 50.2753 275.04 50.5393 275.164 50.9761C275.28 51.4081 275.64 52.0033 276.316 52.4593C276.984 52.9297 277.958 53.1361 279.038 53.2465C280.108 53.3665 281.39 53.4337 282.513 54.1441C283.07 54.4897 283.497 55.0321 283.699 55.6129C283.915 56.1841 284.03 56.7457 284.318 57.1873C284.904 58.0801 285.873 58.4881 286.651 58.6513C287.452 58.8145 288.129 58.7905 288.59 58.7809C289.06 58.7761 289.32 58.7617 289.32 58.7809Z" fill="#7C7C7D"/>
<path d="M288.129 54.8737C288.134 54.8881 287.937 54.9457 287.568 54.9553C287.203 54.9649 286.656 54.9025 286.051 54.6145C285.748 54.4705 285.441 54.2689 285.158 53.9953C284.87 53.7217 284.635 53.3713 284.414 53.0017C283.982 52.2721 283.564 51.3697 282.667 51.0001C281.788 50.6209 280.819 50.7073 279.979 50.7649C279.129 50.8465 278.332 50.8753 277.684 50.7457C277.032 50.6305 276.542 50.3617 276.268 50.1121C276.129 49.9873 276.038 49.8769 275.985 49.7953C275.932 49.7137 275.908 49.6705 275.913 49.6657C275.932 49.6513 276.048 49.8193 276.331 50.0353C276.609 50.2513 277.084 50.4817 277.713 50.5729C278.347 50.6737 279.105 50.6353 279.96 50.5393C280.804 50.4721 281.803 50.3665 282.768 50.7745C283.248 50.9761 283.636 51.3361 283.915 51.7249C284.198 52.1137 284.4 52.5217 284.616 52.8865C284.827 53.2561 285.043 53.5921 285.307 53.8513C285.566 54.1153 285.849 54.3169 286.132 54.4609C286.694 54.7537 287.217 54.8449 287.572 54.8641C287.928 54.8785 288.124 54.8497 288.129 54.8737Z" fill="#7C7C7D"/>
<path d="M291.23 81.9649C291.206 81.9553 291.359 81.6433 291.537 81.0529C291.715 80.4625 291.887 79.5793 291.859 78.4801C291.82 77.3905 291.561 76.0705 290.836 74.8129C290.486 74.1841 289.953 73.6225 289.516 72.9361C289.3 72.5905 289.113 72.2065 289.031 71.7793C288.95 71.3521 288.998 70.8961 289.137 70.4833C289.406 69.6529 289.891 68.9569 289.991 68.1937C290.121 67.4305 289.732 66.7345 289.367 66.1105C289.18 65.7937 288.998 65.4817 288.854 65.1553C288.71 64.8289 288.619 64.4833 288.58 64.1521C288.508 63.4849 288.585 62.8705 288.633 62.3233C288.772 61.2289 288.671 60.3265 288.407 59.7745C288.153 59.2129 287.817 59.0449 287.841 59.0209C287.846 59.0161 287.865 59.0257 287.899 59.0497C287.932 59.0737 287.99 59.1025 288.052 59.1601C288.182 59.2657 288.35 59.4481 288.494 59.7313C288.796 60.2929 288.926 61.2337 288.811 62.3377C288.772 62.8897 288.705 63.4945 288.787 64.1281C288.849 64.7665 289.18 65.3665 289.564 65.9905C289.751 66.3073 289.948 66.6385 290.087 67.0129C290.231 67.3825 290.294 67.8097 290.231 68.2225C290.116 69.0625 289.622 69.7729 289.372 70.5505C289.243 70.9393 289.204 71.3425 289.271 71.7265C289.343 72.1105 289.511 72.4705 289.718 72.8017C290.131 73.4641 290.668 74.0353 291.028 74.6929C291.767 75.9937 292.012 77.3521 292.031 78.4705C292.041 79.5937 291.835 80.4913 291.628 81.0769C291.523 81.3697 291.431 81.5953 291.35 81.7393C291.278 81.8929 291.239 81.9697 291.23 81.9649Z" fill="#7C7C7D"/>
<path d="M271.68 171.403C271.68 171.403 268.45 140.76 268.263 129.437C268.075 118.114 273.355 106.939 273.355 106.939L294.034 106.066C294.034 106.066 298.123 117.557 298.195 122.381C298.339 131.76 295.704 141.019 296.007 148.459L296.698 171.403" fill="#4A4B4B"/>
<path d="M297.389 133.728C297.394 133.738 297.274 133.824 297.053 133.982C296.995 134.026 296.933 134.069 296.866 134.117C296.803 134.17 296.736 134.242 296.664 134.309C296.52 134.448 296.347 134.606 296.203 134.822C295.536 135.638 295.047 137.102 294.586 138.926C294.331 139.834 294.072 140.846 293.539 141.84C293.395 142.085 293.266 142.339 293.079 142.565C292.987 142.68 292.906 142.805 292.81 142.915L292.493 143.232C292.061 143.659 291.514 143.976 290.938 144.23C289.781 144.739 288.475 144.979 287.28 145.579C286.08 146.165 285.178 147.298 284.626 148.603C284.045 149.904 283.69 151.267 283.205 152.544C282.73 153.811 282.077 155.04 281.045 155.818C280.023 156.624 278.755 156.806 277.661 156.878C276.547 156.946 275.515 156.912 274.594 157.051C273.672 157.181 272.856 157.469 272.28 157.925C271.699 158.381 271.363 158.952 271.205 159.442C271.042 159.936 271.071 160.354 271.123 160.618C271.176 160.886 271.253 161.016 271.234 161.021C271.234 161.021 271.143 160.901 271.071 160.627C270.999 160.358 270.951 159.926 271.109 159.408C271.258 158.894 271.594 158.299 272.189 157.814C272.784 157.33 273.624 157.018 274.565 156.874C275.506 156.72 276.547 156.744 277.647 156.667C278.731 156.59 279.941 156.398 280.906 155.63C281.88 154.891 282.509 153.706 282.975 152.453C283.45 151.19 283.805 149.827 284.395 148.498C284.952 147.168 285.907 145.963 287.165 145.358C288.408 144.744 289.714 144.509 290.842 144.019C291.403 143.774 291.927 143.472 292.339 143.074L292.647 142.771C292.743 142.666 292.819 142.546 292.906 142.44C293.088 142.224 293.213 141.974 293.352 141.744C293.88 140.784 294.144 139.781 294.413 138.878C294.898 137.064 295.416 135.581 296.127 134.765C296.28 134.549 296.463 134.39 296.611 134.256C296.688 134.189 296.755 134.122 296.823 134.069C296.895 134.026 296.962 133.982 297.019 133.944C297.259 133.795 297.384 133.723 297.389 133.728Z" fill="#F8F9FA"/>
<path d="M297.514 119.549C297.523 119.549 297.533 119.688 297.542 119.962C297.547 120.23 297.514 120.634 297.398 121.133C297.158 122.131 296.429 123.504 295.061 124.747C294.384 125.371 293.573 125.971 292.637 126.518C291.71 127.07 290.688 127.594 289.642 128.184C288.6 128.779 287.52 129.446 286.574 130.339C285.614 131.218 284.899 132.374 284.251 133.603C283.598 134.827 283.022 136.07 282.24 137.15C281.851 137.688 281.414 138.182 280.93 138.6C280.44 139.018 279.907 139.358 279.37 139.642C278.285 140.203 277.181 140.554 276.158 140.875C275.131 141.192 274.176 141.475 273.336 141.826C272.496 142.171 271.771 142.565 271.186 142.978C270.6 143.395 270.154 143.827 269.837 144.221C269.198 145.013 269.064 145.584 269.026 145.57C269.016 145.565 269.064 145.435 269.16 145.181C269.27 144.936 269.443 144.571 269.76 144.163C270.072 143.755 270.514 143.299 271.104 142.862C271.694 142.43 272.424 142.022 273.269 141.662C274.114 141.298 275.074 141.005 276.096 140.678C277.114 140.352 278.208 139.997 279.264 139.44C279.792 139.162 280.306 138.83 280.776 138.422C281.242 138.014 281.669 137.534 282.043 137.011C282.806 135.955 283.378 134.722 284.035 133.488C284.683 132.259 285.422 131.069 286.411 130.166C287.381 129.254 288.48 128.582 289.531 127.987C290.587 127.397 291.61 126.883 292.536 126.346C293.462 125.818 294.269 125.232 294.946 124.627C296.304 123.422 297.043 122.093 297.307 121.118C297.562 120.125 297.475 119.544 297.514 119.549Z" fill="#F8F9FA"/>
<path d="M268.363 131.059C268.359 131.059 268.344 131.03 268.32 130.968C268.301 130.906 268.258 130.81 268.229 130.68C268.171 130.426 268.133 130.018 268.277 129.528C268.546 128.549 269.606 127.334 271.315 126.725C272.165 126.432 273.134 126.254 274.138 125.99C275.131 125.722 276.216 125.347 277.027 124.517C277.431 124.104 277.771 123.619 278.05 123.082C278.323 122.539 278.554 121.958 278.765 121.358C279.197 120.163 279.557 118.862 280.286 117.677C281.011 116.486 282.192 115.656 283.416 115.243C284.635 114.797 285.869 114.595 287.006 114.331C288.154 114.082 289.224 113.76 290.131 113.266C291.029 112.757 291.739 112.08 292.243 111.36C293.28 109.92 293.549 108.446 293.587 107.472C293.611 106.483 293.453 105.941 293.486 105.936C293.486 105.936 293.678 106.464 293.688 107.472C293.678 108.461 293.434 109.973 292.392 111.461C291.883 112.205 291.158 112.91 290.237 113.443C289.306 113.957 288.211 114.293 287.064 114.552C285.917 114.821 284.693 115.027 283.507 115.469C282.312 115.882 281.203 116.664 280.502 117.806C279.797 118.944 279.437 120.23 279 121.435C278.784 122.04 278.549 122.63 278.266 123.187C277.973 123.739 277.618 124.248 277.19 124.675C276.331 125.549 275.198 125.923 274.19 126.187C273.168 126.446 272.208 126.61 271.373 126.888C269.707 127.454 268.651 128.621 268.368 129.552C268.214 130.018 268.234 130.411 268.277 130.666C268.334 130.92 268.378 131.054 268.363 131.059Z" fill="#F8F9FA"/>
<path d="M295.738 156.97C295.747 156.97 295.757 157.07 295.771 157.272C295.781 157.469 295.766 157.766 295.685 158.141C295.517 158.88 294.946 159.893 293.87 160.733C293.342 161.16 292.704 161.549 291.965 161.861C291.23 162.173 290.419 162.422 289.574 162.686C288.73 162.95 287.842 163.229 286.978 163.632C286.109 164.03 285.307 164.611 284.616 165.355C283.915 166.09 283.31 166.891 282.643 167.597C281.976 168.307 281.218 168.893 280.43 169.33C278.851 170.203 277.214 170.501 275.866 170.515C274.507 170.53 273.432 170.246 272.722 169.992C272.366 169.867 272.098 169.742 271.925 169.651C271.747 169.565 271.656 169.512 271.661 169.507C271.666 169.498 271.762 169.536 271.944 169.608C272.126 169.685 272.395 169.795 272.75 169.906C273.461 170.126 274.526 170.381 275.856 170.342C277.181 170.304 278.779 169.992 280.31 169.133C281.074 168.706 281.803 168.134 282.456 167.434C283.114 166.738 283.714 165.936 284.429 165.187C285.13 164.429 285.979 163.819 286.867 163.416C287.755 163.003 288.653 162.73 289.502 162.47C290.352 162.211 291.158 161.971 291.878 161.674C292.598 161.376 293.232 161.002 293.75 160.594C294.811 159.787 295.387 158.827 295.579 158.112C295.776 157.392 295.699 156.97 295.738 156.97Z" fill="#F8F9FA"/>
<path d="M293.381 93.3408L289.383 93.4368C289.119 94.7856 288.48 95.7072 288.48 95.7072C285.135 89.904 282.543 82.128 281.899 79.0032C281.995 78.6912 282.106 78.3456 282.245 77.9616C282.403 77.5152 282.269 76.6704 282.192 76.2048C282.082 75.5088 281.885 74.5728 281.827 74.1408C281.65 72.8208 281.439 72.6144 280.978 72.7632C280.349 72.9648 281.237 76.4736 280.723 76.5456C280.45 76.5888 280.109 75.384 280.013 74.4C279.917 73.416 279.471 70.3824 279.144 70.1808C278.669 69.8832 278.251 70.3536 278.371 71.3328C278.491 72.3264 278.645 75.288 278.127 75.3264C277.613 75.3648 277.181 70.3392 277.181 70.3392C277.181 70.3392 277.263 69.2448 276.658 69.2736C275.568 69.3216 276.418 74.6208 276.514 75.12C276.581 75.4704 276.015 75.5328 275.967 75.1536C275.914 74.7648 275.655 70.128 274.546 70.1664C273.696 70.1952 275.203 74.5344 274.728 75.5376C274.253 76.5408 273.922 72.1248 273.106 72.1824C272.803 72.2064 272.583 72.264 273.135 74.7648C273.432 76.1088 274.311 78.5808 275.074 80.6256C276.36 87.5616 282.005 109.752 290.851 105.686C295.8 103.416 297.811 93.3408 297.811 93.3408H293.381Z" fill="#B78876"/>
<path d="M276.317 75.456C276.317 75.456 276.355 75.4608 276.432 75.4416C276.499 75.4224 276.634 75.336 276.614 75.1632C276.605 74.8656 276.557 74.4336 276.49 73.872C276.437 73.3056 276.269 72.6288 276.269 71.8272C276.264 71.424 276.274 70.992 276.298 70.536C276.312 70.3056 276.317 70.0704 276.37 69.8448C276.408 69.6288 276.552 69.3792 276.72 69.408L276.739 69.4128H276.749C276.922 69.4032 277.051 69.5376 277.109 69.7392C277.171 69.9312 277.186 70.1616 277.171 70.3824V70.392V70.3968C277.282 71.6256 277.406 72.9696 277.685 74.4048C277.723 74.5824 277.762 74.7648 277.819 74.9472C277.848 75.0384 277.877 75.1296 277.92 75.2208C277.944 75.2688 277.963 75.312 278.002 75.3648C278.035 75.408 278.078 75.48 278.203 75.4896C278.405 75.4752 278.462 75.3216 278.506 75.2352C278.549 75.1344 278.578 75.0384 278.597 74.9424C278.64 74.7456 278.659 74.5536 278.674 74.3568C278.726 73.5744 278.698 72.7728 278.64 71.9568C278.621 71.544 278.52 71.1312 278.592 70.7568C278.626 70.5744 278.702 70.3872 278.827 70.3104C278.89 70.272 278.957 70.2672 279.034 70.2864C279.072 70.296 279.11 70.3152 279.149 70.3344C279.182 70.3632 279.173 70.3488 279.202 70.4064C279.36 70.752 279.446 71.1984 279.533 71.6112C279.619 72.0384 279.691 72.4704 279.758 72.9072C279.826 73.344 279.888 73.7856 279.941 74.232C279.984 74.6784 280.046 75.144 280.162 75.5952C280.219 75.8208 280.282 76.0464 280.378 76.272C280.426 76.3824 280.478 76.4976 280.574 76.6128C280.608 76.6608 280.723 76.752 280.862 76.7184C280.997 76.6752 281.035 76.5648 281.059 76.5024C281.136 76.224 281.112 75.9984 281.112 75.7536C281.102 75.5136 281.083 75.2784 281.064 75.0432C281.03 74.64 280.992 74.2368 280.978 73.8432C280.973 73.6464 280.973 73.4496 280.992 73.2672C281.002 73.176 281.021 73.0848 281.05 73.0176C281.064 72.984 281.083 72.96 281.098 72.9456C281.107 72.936 281.112 72.9408 281.117 72.9312L281.179 72.912C281.496 72.7824 281.602 73.224 281.688 73.5792C281.76 73.9536 281.808 74.3376 281.885 74.7168C282.01 75.4752 282.173 76.224 282.259 76.944C282.293 77.304 282.322 77.6736 282.216 77.976C282.101 78.3216 281.99 78.6672 281.88 79.008L281.87 79.0368L281.88 79.0704C282.466 81.6528 283.277 83.9616 284.026 86.0112C284.784 88.0608 285.547 89.8272 286.214 91.2768C286.882 92.7264 287.482 93.84 287.899 94.6032C288.11 94.9632 288.274 95.2512 288.398 95.4624C288.514 95.6544 288.576 95.7552 288.586 95.7504C288.59 95.7456 288.542 95.64 288.437 95.4384C288.322 95.2224 288.168 94.9296 287.976 94.56C287.587 93.7872 287.011 92.664 286.363 91.2096C285.715 89.7552 284.976 87.984 284.232 85.9344C283.498 83.8848 282.701 81.5712 282.134 79.0176L282.13 79.08C282.24 78.744 282.35 78.408 282.466 78.0624C282.595 77.6688 282.557 77.2896 282.523 76.9152C282.437 76.1664 282.278 75.4368 282.154 74.6736C282.082 74.2992 282.034 73.9104 281.957 73.5216C281.914 73.3248 281.87 73.128 281.76 72.9264C281.707 72.8304 281.626 72.72 281.496 72.6576C281.362 72.6 281.227 72.6144 281.117 72.6432L281.035 72.6672C280.997 72.6816 280.954 72.7008 280.925 72.7296C280.862 72.7824 280.829 72.8448 280.805 72.9024C280.752 73.0176 280.738 73.1232 280.723 73.2288C280.699 73.44 280.699 73.6464 280.709 73.848C280.723 74.256 280.762 74.6592 280.795 75.0624C280.814 75.2976 280.834 75.528 280.843 75.7584C280.853 75.984 280.858 76.2288 280.81 76.4016C280.795 76.4496 280.776 76.4448 280.8 76.4688C280.8 76.4544 280.805 76.4928 280.805 76.488V76.4832C280.805 76.4784 280.805 76.4688 280.805 76.4688C280.81 76.464 280.819 76.4496 280.81 76.4448C280.805 76.4448 280.795 76.4352 280.781 76.416C280.728 76.3536 280.675 76.2576 280.632 76.1568C280.546 75.9552 280.483 75.7392 280.43 75.5184C280.32 75.0768 280.258 74.64 280.214 74.1888C280.162 73.7376 280.099 73.2912 280.027 72.8496C279.96 72.408 279.883 71.9712 279.797 71.544C279.696 71.112 279.634 70.6944 279.432 70.2624C279.418 70.2192 279.336 70.1232 279.283 70.0944C279.23 70.0608 279.168 70.0368 279.106 70.0176C278.976 69.984 278.818 69.9984 278.698 70.0752C278.458 70.2336 278.386 70.4832 278.342 70.6992C278.304 70.9248 278.309 71.1456 278.333 71.3568C278.357 71.5632 278.376 71.7648 278.39 71.9664C278.453 72.7728 278.482 73.5696 278.434 74.3328C278.419 74.52 278.4 74.712 278.366 74.8896C278.347 74.9808 278.323 75.0624 278.294 75.1392C278.28 75.1776 278.261 75.2112 278.242 75.2304C278.222 75.2688 278.208 75.2208 278.213 75.288C278.237 75.24 278.213 75.264 278.194 75.2256C278.174 75.2016 278.155 75.1584 278.136 75.1248C278.102 75.048 278.074 74.9616 278.045 74.88C277.992 74.712 277.949 74.5344 277.91 74.3568C277.627 72.9456 277.493 71.5968 277.368 70.3824V70.3968C277.378 70.152 277.363 69.9168 277.291 69.6816C277.253 69.5664 277.2 69.4512 277.104 69.36C277.008 69.2688 276.874 69.2256 276.749 69.2304L276.778 69.2352C276.586 69.2016 276.442 69.3168 276.365 69.432C276.283 69.552 276.245 69.6816 276.216 69.8064C276.163 70.0608 276.163 70.296 276.154 70.5264C276.134 70.9872 276.134 71.424 276.144 71.8272C276.158 72.648 276.346 73.3248 276.408 73.8816C276.49 74.4384 276.552 74.8704 276.581 75.1632C276.61 75.3024 276.499 75.3936 276.442 75.4128C276.355 75.4464 276.312 75.4512 276.317 75.456Z" fill="#A36957"/>
<path d="M245.055 99.9504C245.055 99.9504 243.725 99.888 242.275 100.267C239.799 100.92 235.517 103.512 235.339 106.718H238.445C238.445 106.718 236.703 110.424 237.216 110.078C238.541 109.19 241.186 106.502 241.186 106.502L245.055 99.9504Z" fill="#B78876"/>
<path d="M287.453 44.1793C287.385 44.1841 287.102 41.6161 286.824 38.4385C286.545 35.2609 286.373 32.6833 286.445 32.6785C286.512 32.6737 286.795 35.2417 287.073 38.4193C287.352 41.5969 287.52 44.1745 287.453 44.1793Z" fill="#4A4B4B"/>
<path d="M301.09 32.8369C301.147 32.8753 299.045 35.9232 296.4 39.6432C293.755 43.3632 291.562 46.3441 291.504 46.3057C291.446 46.2673 293.549 43.2193 296.194 39.4993C298.838 35.7793 301.032 32.7985 301.09 32.8369Z" fill="#4A4B4B"/>
<path d="M306.754 46.6513C306.768 46.7185 304.315 47.2801 301.282 47.9041C298.243 48.5281 295.771 48.9793 295.757 48.9121C295.742 48.8449 298.195 48.2833 301.229 47.6593C304.267 47.0353 306.739 46.5841 306.754 46.6513Z" fill="#4A4B4B"/>
<path d="M143.501 112.579L126.528 199.843L124.306 211.267L237.614 210.71C242.698 210.686 247.205 206.17 248.842 199.464L268.934 117.077C270.178 111.984 267.451 106.69 263.592 106.69L148.91 106.81C146.376 106.814 144.163 109.176 143.501 112.579Z" fill="#EA5353"/>
<g opacity="0.5">
<path d="M143.501 112.579L126.528 199.843L124.306 211.267L237.614 210.71C242.698 210.686 247.205 206.17 248.842 199.464L268.934 117.077C270.178 111.984 267.451 106.69 263.592 106.69L148.91 106.81C146.376 106.814 144.163 109.176 143.501 112.579Z" fill="#191919"/>
</g>
<path d="M226.747 193.934L214.752 97.2576C214.262 93.2976 211.104 90.3408 207.379 90.3552L181.07 90.4416C179.121 90.4464 177.254 91.2768 175.872 92.7456L163.382 106.022L90.2158 106.406C85.747 106.43 82.3102 110.659 82.9006 115.416L94.0414 204.768C94.5358 208.723 97.6846 211.675 101.405 211.666L228.917 211.416C243.12 211.709 244.473 207.518 244.473 207.518C228.197 211.118 226.747 193.944 226.747 193.934Z" fill="#EA5353"/>
<g opacity="0.5">
<path d="M169.377 172.439C170.688 173.619 170.778 175.644 169.576 176.934C168.403 178.194 166.437 178.28 165.157 177.129L136.728 151.551C135.417 150.372 135.328 148.347 136.53 147.056C137.703 145.797 139.669 145.71 140.948 146.861L169.377 172.439Z" fill="white"/>
<path d="M163.521 146.065C164.709 144.788 166.702 144.7 167.998 145.867C169.326 147.062 169.416 149.113 168.199 150.421L142.582 177.928C141.395 179.204 139.404 179.292 138.109 178.127C136.78 176.933 136.689 174.882 137.906 173.574L163.521 146.065Z" fill="white"/>
</g>
<path d="M244.954 49.8144C244.647 49.6848 244.426 49.3824 244.411 49.0272L244.219 44.5728C244.205 44.2944 244.325 44.0208 244.541 43.8432C244.757 43.6656 245.045 43.5984 245.319 43.6608C246.034 43.8288 246.826 43.6752 247.483 43.2336C248.093 42.8256 248.501 42.2304 248.602 41.592C248.707 40.9584 248.511 40.2528 248.064 39.6624C247.584 39.0288 246.879 38.6064 246.173 38.5248C244.728 38.3568 243.168 39.4656 242.765 40.944C242.635 41.4192 242.146 41.7024 241.666 41.5728C241.181 41.4384 240.907 40.9488 241.037 40.4736C241.666 38.1504 244.066 36.48 246.379 36.744C247.579 36.8832 248.717 37.5504 249.495 38.5824C250.234 39.5616 250.555 40.7616 250.373 41.88C250.191 43.0032 249.499 44.04 248.477 44.7216C247.738 45.216 246.893 45.4848 246.048 45.5136L246.197 48.9504C246.216 49.4448 245.837 49.8624 245.343 49.8816C245.208 49.8912 245.074 49.8672 244.954 49.8144Z" fill="#EA5353"/>
<path d="M246.269 51.6385C246.298 52.0417 245.991 52.3921 245.587 52.4209C245.184 52.4497 244.834 52.1425 244.805 51.7393C244.776 51.3361 245.083 50.9857 245.487 50.9569C245.89 50.9281 246.24 51.2353 246.269 51.6385Z" fill="#EA5353"/>
<path d="M229.531 43.5312C229.536 43.5312 229.551 43.4304 229.575 43.2384C229.599 43.032 229.627 42.744 229.671 42.3792C229.69 42 229.791 41.5392 229.901 41.0016C229.963 40.7328 229.997 40.4352 230.098 40.1328C230.194 39.8304 230.29 39.504 230.395 39.1632C230.861 37.8144 231.576 36.1968 232.781 34.5888C233.976 32.9856 235.661 31.3968 237.821 30.1968C238.887 29.5632 240.101 29.1216 241.378 28.728C242.674 28.4208 244.047 28.1568 245.482 28.1904C246.197 28.152 246.922 28.2576 247.661 28.32C248.031 28.3536 248.391 28.4544 248.76 28.5168C249.13 28.584 249.504 28.656 249.864 28.7856C251.347 29.1648 252.787 29.8656 254.155 30.7296C256.911 32.4624 259.229 35.28 260.501 38.6976C261.139 40.4064 261.442 42.2784 261.442 44.1744C261.48 46.0704 261.111 47.9952 260.439 49.8096L260.223 50.3568L260.194 50.4288L260.223 50.496C261.427 53.2704 262.608 55.9872 263.751 58.6224L263.952 58.392C261.475 57.4416 259.071 56.5152 256.762 55.632L256.671 55.5984L256.599 55.6656C254.602 57.6 252.221 58.9056 249.811 59.5824C247.392 60.264 244.954 60.2976 242.741 59.904C240.519 59.5104 238.522 58.6608 236.851 57.5712C235.181 56.4816 233.837 55.152 232.805 53.8032C231.778 52.44 231.101 51.0384 230.592 49.7904C230.141 48.5136 229.867 47.3808 229.733 46.44C229.675 45.9696 229.627 45.5568 229.584 45.192C229.575 44.832 229.565 44.5296 229.56 44.2752C229.551 44.04 229.546 43.8528 229.541 43.7136C229.541 43.5984 229.536 43.5312 229.531 43.5312C229.527 43.5312 229.522 43.5936 229.522 43.7232C229.522 43.8624 229.517 44.0496 229.512 44.2848C229.512 44.5392 229.512 44.8464 229.512 45.2064C229.551 45.5712 229.594 45.9936 229.637 46.464C229.757 47.4096 230.016 48.5568 230.458 49.8528C230.957 51.12 231.629 52.5408 232.656 53.9328C233.693 55.3056 235.042 56.664 236.731 57.7824C238.416 58.9008 240.442 59.7744 242.698 60.1824C244.949 60.5904 247.426 60.5664 249.888 59.88C252.346 59.1936 254.775 57.8736 256.815 55.9056L256.656 55.9392C258.96 56.8272 261.365 57.7536 263.842 58.7136L264.202 58.8528L264.043 58.4832C262.901 55.848 261.72 53.1264 260.52 50.352V50.4912L260.741 49.9296C261.432 48.0768 261.807 46.104 261.768 44.1696C261.768 42.2352 261.456 40.32 260.803 38.5728C259.503 35.0832 257.127 32.2128 254.319 30.456C252.917 29.5776 251.453 28.872 249.941 28.488C249.571 28.3632 249.192 28.2912 248.818 28.2192C248.443 28.1568 248.074 28.056 247.699 28.0224C246.951 27.96 246.216 27.8592 245.487 27.9024C244.027 27.8736 242.635 28.1472 241.32 28.464C240.024 28.8672 238.795 29.3232 237.72 29.9712C235.536 31.2048 233.842 32.8224 232.642 34.4592C231.437 36.096 230.727 37.7424 230.28 39.1056C230.179 39.4512 230.083 39.7776 229.992 40.0896C229.896 40.3968 229.867 40.6992 229.81 40.968C229.704 41.5152 229.618 41.976 229.608 42.36C229.579 42.7296 229.56 43.0128 229.546 43.224C229.527 43.4352 229.522 43.5312 229.531 43.5312Z" fill="#4A4B4B"/>
</svg>
