<svg width="20" height="20" viewBox="0 0 20 20" fill="none" xmlns="http://www.w3.org/2000/svg">
<path fill-rule="evenodd" clip-rule="evenodd" d="M5.00033 8.75C4.54008 8.75 4.16699 9.12308 4.16699 9.58333V10.4167C4.16699 10.8769 4.54008 11.25 5.00033 11.25H5.83366C6.29391 11.25 6.66699 10.8769 6.66699 10.4167V9.58333C6.66699 9.12308 6.29391 8.75 5.83366 8.75H5.00033ZM5.00033 9.58333V10.4167H5.83366V9.58333H5.00033Z" fill="#FEF6F6"/>
<path fill-rule="evenodd" clip-rule="evenodd" d="M7.5 9.58333C7.5 9.12308 7.87308 8.75 8.33333 8.75H9.16667C9.62692 8.75 10 9.12308 10 9.58333V10.4167C10 10.8769 9.62692 11.25 9.16667 11.25H8.33333C7.87308 11.25 7.5 10.8769 7.5 10.4167V9.58333ZM8.33333 9.58333H9.16667V10.4167H8.33333V9.58333Z" fill="#FEF6F6"/>
<path fill-rule="evenodd" clip-rule="evenodd" d="M11.6663 8.75C11.2061 8.75 10.833 9.12308 10.833 9.58333V10.4167C10.833 10.8769 11.2061 11.25 11.6663 11.25H12.4997C12.9599 11.25 13.333 10.8769 13.333 10.4167V9.58333C13.333 9.12308 12.9599 8.75 12.4997 8.75H11.6663ZM11.6663 9.58333V10.4167H12.4997V9.58333H11.6663Z" fill="#FEF6F6"/>
<path fill-rule="evenodd" clip-rule="evenodd" d="M4.16699 12.9167C4.16699 12.4564 4.54008 12.0833 5.00033 12.0833H5.83366C6.29391 12.0833 6.66699 12.4564 6.66699 12.9167V13.75C6.66699 14.2102 6.29391 14.5833 5.83366 14.5833H5.00033C4.54008 14.5833 4.16699 14.2102 4.16699 13.75V12.9167ZM5.83366 12.9167V13.75H5.00033V12.9167H5.83366Z" fill="#FEF6F6"/>
<path fill-rule="evenodd" clip-rule="evenodd" d="M8.33333 12.0833C7.87308 12.0833 7.5 12.4564 7.5 12.9167V13.75C7.5 14.2102 7.87308 14.5833 8.33333 14.5833H9.16667C9.62692 14.5833 10 14.2102 10 13.75V12.9167C10 12.4564 9.62692 12.0833 9.16667 12.0833H8.33333ZM9.16667 12.9167H8.33333V13.75H9.16667V12.9167Z" fill="#FEF6F6"/>
<path d="M15.0003 13.5417C15.0003 13.3115 14.8138 13.125 14.5837 13.125C14.3535 13.125 14.167 13.3115 14.167 13.5417V14.7559L14.7057 15.2946C14.8684 15.4573 15.1322 15.4573 15.295 15.2946C15.4577 15.1319 15.4577 14.8681 15.295 14.7054L15.0003 14.4108V13.5417Z" fill="#FEF6F6"/>
<path fill-rule="evenodd" clip-rule="evenodd" d="M5 2.91667C5 2.68655 5.18654 2.5 5.41667 2.5C5.64679 2.5 5.83333 2.68655 5.83333 2.91667V5C5.83333 5.23012 6.01987 5.41667 6.25 5.41667C6.48012 5.41667 6.66667 5.23012 6.66667 5V3.75H10.8333V2.91667C10.8333 2.68655 11.0199 2.5 11.25 2.5C11.4801 2.5 11.6667 2.68655 11.6667 2.91667V5C11.6667 5.23012 11.8532 5.41667 12.0833 5.41667C12.3135 5.41667 12.5 5.23012 12.5 5V3.75H13.75C14.4404 3.75 15 4.30967 15 5V11.6962C16.4135 11.8984 17.5 13.114 17.5 14.5833C17.5 16.1942 16.1942 17.5 14.5833 17.5C13.5922 17.5 12.7165 17.0056 12.1895 16.25H3.75C3.05965 16.25 2.5 15.6904 2.5 15V5C2.5 4.30962 3.05965 3.75 3.75 3.75H5V2.91667ZM11.6667 14.5833C11.6667 13.114 12.7532 11.8984 14.1667 11.6962V7.5H3.33333V15C3.33333 15.2301 3.51988 15.4167 3.75 15.4167H11.7875C11.7089 15.1526 11.6667 14.8729 11.6667 14.5833ZM16.6667 14.5833C16.6667 15.7339 15.7339 16.6667 14.5833 16.6667C13.4327 16.6667 12.5 15.7339 12.5 14.5833C12.5 13.4327 13.4327 12.5 14.5833 12.5C15.7339 12.5 16.6667 13.4327 16.6667 14.5833Z" fill="#FEF6F6"/>
</svg>
