<svg width="69" height="34" viewBox="0 0 69 34" fill="none" xmlns="http://www.w3.org/2000/svg">
<path d="M2.28431 2.65469C2.22003 2.88213 1.99753 3.19856 1.72559 3.51006C1.59209 3.66333 1.43882 3.81166 1.2806 3.92538C1.03833 4.09349 0.756494 4.15282 0.598273 4.1726C0.400498 4.20227 0 0.0242737 0 0.0242737L0.039556 0.0193245C0.410385 -0.0449525 1.33993 0.0143795 1.90853 0.775814C2.15081 1.10214 2.28925 1.41859 2.34364 1.73997C2.39803 2.03169 2.37825 2.3333 2.28431 2.65469ZM68.8505 30.5558C68.366 29.5076 67.3969 29.3 67.0458 29.2653V33.4582C67.5848 33.4038 68.3907 33.0429 68.7269 32.4594C68.895 32.1084 68.9791 31.7771 68.9989 31.4508C69.0087 31.159 68.9593 30.8624 68.8505 30.5558Z" fill="#B8B8B8"/>
</svg>
