<svg width="14" height="14" viewBox="0 0 14 14" fill="none" xmlns="http://www.w3.org/2000/svg">
<path d="M6.87752 8.28949L4.97002 10.197C4.76002 10.0103 4.55585 9.81783 4.35752 9.61949C3.75669 9.01283 3.21419 8.37699 2.73002 7.71199C2.25169 7.04699 1.86669 6.38199 1.58669 5.72283C1.30669 5.05783 1.16669 4.42199 1.16669 3.81533C1.16669 3.41866 1.23669 3.03949 1.37669 2.68949C1.51669 2.33366 1.73835 2.00699 2.04752 1.71533C2.42085 1.34783 2.82919 1.16699 3.26085 1.16699C3.42419 1.16699 3.58752 1.20199 3.73335 1.27199C3.88502 1.34199 4.01919 1.44699 4.12419 1.59866L5.47752 3.50616C5.58252 3.65199 5.65835 3.78616 5.71085 3.91449C5.76335 4.03699 5.79252 4.15949 5.79252 4.27033C5.79252 4.41033 5.75169 4.55033 5.67002 4.68449C5.59419 4.81866 5.48335 4.95866 5.34335 5.09866L4.90002 5.55949C4.83585 5.62366 4.80669 5.69949 4.80669 5.79283C4.80669 5.83949 4.81252 5.88033 4.82419 5.92699C4.84169 5.97366 4.85919 6.00866 4.87085 6.04366C4.97585 6.23616 5.15669 6.48699 5.41335 6.79033C5.67585 7.09366 5.95585 7.40283 6.25919 7.71199C6.46919 7.91616 6.67335 8.11449 6.87752 8.28949Z" fill="#F8F9FA"/>
<path d="M12.8158 10.6929C12.8158 10.8563 12.7866 11.0254 12.7283 11.1888C12.7108 11.2354 12.6933 11.2821 12.67 11.3288C12.5708 11.5388 12.4425 11.7371 12.2733 11.9238C11.9875 12.2388 11.6725 12.4663 11.3166 12.6121C11.3108 12.6121 11.305 12.6179 11.2991 12.6179C10.955 12.7579 10.5816 12.8338 10.1791 12.8338C9.58414 12.8338 8.94831 12.6938 8.27748 12.4079C7.60664 12.1221 6.93581 11.7371 6.27081 11.2529C6.04331 11.0838 5.81581 10.9146 5.59998 10.7338L7.50748 8.82626C7.67081 8.94876 7.81664 9.0421 7.93914 9.10626C7.96831 9.11793 8.00331 9.13543 8.04414 9.15293C8.09081 9.17043 8.13748 9.17626 8.18998 9.17626C8.28914 9.17626 8.36498 9.14126 8.42914 9.0771L8.87248 8.6396C9.01831 8.49376 9.15831 8.38293 9.29248 8.31293C9.42664 8.23126 9.56081 8.19043 9.70664 8.19043C9.81747 8.19043 9.93414 8.21376 10.0625 8.26626C10.1908 8.31876 10.325 8.3946 10.4708 8.49376L12.4016 9.8646C12.5533 9.9696 12.6583 10.0921 12.7225 10.2379C12.7808 10.3838 12.8158 10.5296 12.8158 10.6929Z" fill="white"/>
</svg>
