<svg width="16" height="16" viewBox="0 0 16 16" fill="none" xmlns="http://www.w3.org/2000/svg">
<path d="M11.3335 13.6667H4.66683C2.66683 13.6667 1.3335 12.6667 1.3335 10.3333V5.66666C1.3335 3.33333 2.66683 2.33333 4.66683 2.33333H11.3335C13.3335 2.33333 14.6668 3.33333 14.6668 5.66666V10.3333C14.6668 12.6667 13.3335 13.6667 11.3335 13.6667Z" fill="#C6C7C8"/>
<path d="M8.00018 8.57999C7.44018 8.57999 6.87351 8.40666 6.44018 8.05333L4.35351 6.38666C4.14018 6.21333 4.10018 5.89999 4.27351 5.68666C4.44685 5.47333 4.76018 5.43333 4.97352 5.60666L7.06017 7.27333C7.56684 7.68 8.42684 7.68 8.93351 7.27333L11.0202 5.60666C11.2335 5.43333 11.5535 5.46666 11.7202 5.68666C11.8935 5.89999 11.8602 6.22 11.6402 6.38666L9.55351 8.05333C9.12685 8.40666 8.56018 8.57999 8.00018 8.57999Z" fill="#4A4B4B"/>
</svg>
