<svg width="16" height="16" viewBox="0 0 16 16" fill="none" xmlns="http://www.w3.org/2000/svg">
<path d="M6.66699 2.5H7.50033V5.66667C7.50033 5.94 7.72699 6.16667 8.00033 6.16667C8.27366 6.16667 8.50033 5.94 8.50033 5.66667V2.5H9.33366C9.60699 2.5 9.83366 2.27333 9.83366 2C9.83366 1.72667 9.60699 1.5 9.33366 1.5H6.66699C6.39366 1.5 6.16699 1.72667 6.16699 2C6.16699 2.27333 6.39366 2.5 6.66699 2.5Z" fill="#C6C7C8"/>
<path d="M9.33366 13.5H8.50033V10.3333C8.50033 10.06 8.27366 9.83331 8.00033 9.83331C7.72699 9.83331 7.50033 10.06 7.50033 10.3333V13.5H6.66699C6.39366 13.5 6.16699 13.7266 6.16699 14C6.16699 14.2733 6.39366 14.5 6.66699 14.5H9.33366C9.60699 14.5 9.83366 14.2733 9.83366 14C9.83366 13.7266 9.60699 13.5 9.33366 13.5Z" fill="#C6C7C8"/>
<path d="M1.88659 6.58664C1.96659 6.63331 2.05326 6.65331 2.13326 6.65331C2.30659 6.65331 2.47326 6.56664 2.56659 6.39998L2.98659 5.67998L5.73326 7.26664C5.80659 7.31331 5.89326 7.33331 5.97993 7.33331C6.15326 7.33331 6.31993 7.24664 6.41326 7.07998C6.55326 6.83998 6.46659 6.53331 6.23326 6.39998L3.49326 4.81331L3.90659 4.09331C4.04659 3.85331 3.95993 3.54664 3.72659 3.41331C3.48659 3.27331 3.17993 3.35331 3.04659 3.59331L1.71326 5.89998C1.56659 6.14664 1.64659 6.44664 1.88659 6.58664Z" fill="#C6C7C8"/>
<path d="M14.1136 9.41332C13.8736 9.27332 13.567 9.35332 13.4336 9.59332L13.0136 10.3133L10.267 8.73332C10.027 8.59332 9.72029 8.67999 9.58696 8.91332C9.44696 9.15332 9.53362 9.45999 9.76696 9.59332L12.507 11.18L12.0936 11.9C11.9536 12.14 12.0403 12.4467 12.2736 12.58C12.3536 12.6267 12.4403 12.6467 12.5203 12.6467C12.6936 12.6467 12.8603 12.56 12.9536 12.3933L14.287 10.0867C14.4336 9.85332 14.3536 9.55332 14.1136 9.41332Z" fill="#C6C7C8"/>
<path d="M12.5133 4.81336L9.7733 6.40002C9.5333 6.54002 9.4533 6.84669 9.5933 7.08002C9.68664 7.24002 9.8533 7.33336 10.0266 7.33336C10.1133 7.33336 10.2 7.31336 10.2733 7.26669L13.0133 5.68002L13.4333 6.40002C13.5266 6.56002 13.6933 6.65336 13.8666 6.65336C13.9533 6.65336 14.04 6.63336 14.1133 6.58669C14.3533 6.44669 14.4333 6.14002 14.2933 5.90669L12.96 3.60002C12.82 3.36002 12.5133 3.28002 12.28 3.42002C12.04 3.56002 11.96 3.86669 12.1 4.10002L12.5133 4.81336Z" fill="#C6C7C8"/>
<path d="M3.48658 11.1867L6.22658 9.60003C6.46658 9.46003 6.54658 9.15337 6.40658 8.92003C6.26658 8.68003 5.95992 8.60003 5.72658 8.74003L2.98658 10.3267L2.56658 9.6067C2.42658 9.3667 2.11992 9.2867 1.88658 9.4267C1.64658 9.5667 1.56658 9.87336 1.70658 10.1067L3.03992 12.4134C3.13325 12.5734 3.29992 12.6667 3.47325 12.6667C3.55992 12.6667 3.64658 12.6467 3.71992 12.6C3.95992 12.46 4.03992 12.1534 3.89992 11.92L3.48658 11.1867Z" fill="#C6C7C8"/>
<path d="M10.3337 8.00002C10.3337 8.42669 10.2203 8.82002 10.0203 9.16669C9.61366 9.86669 8.86033 10.3334 8.00033 10.3334C7.14033 10.3334 6.38699 9.86669 5.98033 9.16669C5.78033 8.82002 5.66699 8.42669 5.66699 8.00002C5.66699 7.57335 5.78033 7.18002 5.98033 6.83335C6.38699 6.13335 7.14033 5.66669 8.00033 5.66669C8.86033 5.66669 9.61366 6.13335 10.0203 6.83335C10.2203 7.18002 10.3337 7.57335 10.3337 8.00002Z" fill="#4A4B4B"/>
</svg>
