<svg width="16" height="16" viewBox="0 0 16 16" fill="none" xmlns="http://www.w3.org/2000/svg">
<path d="M11.333 13.6667H4.66634C2.66634 13.6667 1.33301 12.6667 1.33301 10.3333V5.66667C1.33301 3.33333 2.66634 2.33333 4.66634 2.33333H11.333C13.333 2.33333 14.6663 3.33333 14.6663 5.66667V10.3333C14.6663 12.6667 13.333 13.6667 11.333 13.6667Z" fill="#C6C7C8"/>
<path d="M8.00018 8.58C7.44018 8.58 6.87351 8.40667 6.44018 8.05333L4.35351 6.38667C4.14018 6.21333 4.10018 5.9 4.27351 5.68666C4.44685 5.47333 4.76018 5.43333 4.97352 5.60667L7.06017 7.27333C7.56684 7.68 8.42684 7.68 8.93351 7.27333L11.0202 5.60667C11.2335 5.43333 11.5535 5.46666 11.7202 5.68666C11.8935 5.9 11.8602 6.22 11.6402 6.38667L9.55351 8.05333C9.12685 8.40667 8.56018 8.58 8.00018 8.58Z" fill="#4A4B4B"/>
</svg>
