<svg width="16" height="16" viewBox="0 0 16 16" fill="none" xmlns="http://www.w3.org/2000/svg">
<path d="M5.10004 13.94C5.08004 13.94 5.05337 13.9533 5.03337 13.9533C3.74004 13.3133 2.68671 12.2533 2.04004 10.96C2.04004 10.94 2.05337 10.9133 2.05337 10.8933C2.86671 11.1333 3.70671 11.3133 4.54004 11.4533C4.68671 12.2933 4.86004 13.1267 5.10004 13.94Z" fill="#C6C7C8"/>
<path d="M13.9599 10.9667C13.2999 12.2933 12.1999 13.3667 10.8599 14.0133C11.1132 13.1667 11.3265 12.3133 11.4665 11.4533C12.3065 11.3133 13.1332 11.1333 13.9465 10.8933C13.9399 10.92 13.9599 10.9467 13.9599 10.9667Z" fill="#C6C7C8"/>
<path d="M14.0132 5.14C13.1732 4.88667 12.3265 4.68 11.4665 4.53333C11.3265 3.67333 11.1199 2.82 10.8599 1.98667C12.2399 2.64667 13.3532 3.76 14.0132 5.14Z" fill="#C6C7C8"/>
<path d="M5.10015 2.06C4.86015 2.87333 4.68682 3.7 4.54682 4.54C3.68682 4.67333 2.83348 4.88667 1.98682 5.14C2.63348 3.8 3.70682 2.7 5.03348 2.04C5.05348 2.04 5.08015 2.06 5.10015 2.06Z" fill="#C6C7C8"/>
<path d="M10.3267 4.39333C8.78001 4.22 7.22001 4.22 5.67334 4.39333C5.84001 3.48 6.05334 2.56667 6.35334 1.68667C6.36667 1.63333 6.36001 1.59333 6.36667 1.54C6.89334 1.41333 7.43334 1.33333 8.00001 1.33333C8.56001 1.33333 9.10667 1.41333 9.62667 1.54C9.63334 1.59333 9.63334 1.63333 9.64667 1.68667C9.94667 2.57333 10.16 3.48 10.3267 4.39333Z" fill="#4A4B4B"/>
<path d="M4.3935 10.3267C3.4735 10.16 2.56683 9.94667 1.68683 9.64667C1.6335 9.63333 1.5935 9.64 1.54016 9.63333C1.4135 9.10667 1.3335 8.56667 1.3335 8C1.3335 7.44 1.4135 6.89333 1.54016 6.37333C1.5935 6.36667 1.6335 6.36667 1.68683 6.35333C2.5735 6.06 3.4735 5.84 4.3935 5.67333C4.22683 7.22 4.22683 8.78 4.3935 10.3267Z" fill="#4A4B4B"/>
<path d="M14.6664 8C14.6664 8.56667 14.5864 9.10667 14.4598 9.63333C14.4064 9.64 14.3664 9.63333 14.3131 9.64667C13.4264 9.94 12.5198 10.16 11.6064 10.3267C11.7798 8.78 11.7798 7.22 11.6064 5.67333C12.5198 5.84 13.4331 6.05333 14.3131 6.35333C14.3664 6.36667 14.4064 6.37333 14.4598 6.37333C14.5864 6.9 14.6664 7.44 14.6664 8Z" fill="#4A4B4B"/>
<path d="M10.3267 11.6067C10.16 12.5267 9.94667 13.4333 9.64667 14.3133C9.63334 14.3667 9.63334 14.4067 9.62667 14.46C9.10667 14.5867 8.56001 14.6667 8.00001 14.6667C7.43334 14.6667 6.89334 14.5867 6.36667 14.46C6.36001 14.4067 6.36667 14.3667 6.35334 14.3133C6.06001 13.4267 5.84001 12.5267 5.67334 11.6067C6.44667 11.6933 7.22001 11.7533 8.00001 11.7533C8.78001 11.7533 9.56001 11.6933 10.3267 11.6067Z" fill="#4A4B4B"/>
<path d="M10.509 10.5089C8.84165 10.7193 7.15867 10.7193 5.49128 10.5089C5.2809 8.84149 5.2809 7.15851 5.49128 5.49111C7.15867 5.28074 8.84165 5.28074 10.509 5.49111C10.7194 7.15851 10.7194 8.84149 10.509 10.5089Z" fill="#4A4B4B"/>
</svg>
