<svg width="16" height="16" viewBox="0 0 16 16" fill="none" xmlns="http://www.w3.org/2000/svg">
<path d="M11.3335 12.2867H8.66683L5.70015 14.26C5.26015 14.5533 4.66683 14.24 4.66683 13.7067V12.2867C2.66683 12.2867 1.3335 10.9533 1.3335 8.95333V4.95333C1.3335 2.95333 2.66683 1.62 4.66683 1.62H11.3335C13.3335 1.62 14.6668 2.95333 14.6668 4.95333V8.95333C14.6668 10.9533 13.3335 12.2867 11.3335 12.2867Z" fill="#C6C7C8"/>
<path d="M8.0002 8.0733C7.72687 8.0733 7.5002 7.84664 7.5002 7.5733V7.43333C7.5002 6.66 8.06686 6.27999 8.28019 6.13332C8.52686 5.96665 8.60685 5.85333 8.60685 5.67999C8.60685 5.34666 8.33354 5.0733 8.0002 5.0733C7.66687 5.0733 7.39355 5.34666 7.39355 5.67999C7.39355 5.95333 7.16689 6.17999 6.89355 6.17999C6.62022 6.17999 6.39355 5.95333 6.39355 5.67999C6.39355 4.79333 7.11354 4.0733 8.0002 4.0733C8.88687 4.0733 9.60685 4.79333 9.60685 5.67999C9.60685 6.43999 9.04688 6.81998 8.84021 6.95998C8.58021 7.13331 8.5002 7.24666 8.5002 7.43333V7.5733C8.5002 7.8533 8.27354 8.0733 8.0002 8.0733Z" fill="#4A4B4B"/>
<path d="M8 9.73334C7.72 9.73334 7.5 9.50667 7.5 9.23334C7.5 8.96 7.72667 8.73334 8 8.73334C8.27333 8.73334 8.5 8.96 8.5 9.23334C8.5 9.50667 8.28 9.73334 8 9.73334Z" fill="#4A4B4B"/>
</svg>
