<svg width="116" height="120" viewBox="0 0 116 120" fill="none" xmlns="http://www.w3.org/2000/svg">
<g opacity="0.2">
<path fill-rule="evenodd" clip-rule="evenodd" d="M11.8095 41.9333C0.807996 60.859 -2.26924 82.2402 1.58926 102.186L40.2221 53.6044L17.1827 111.227C36.3955 104.706 53.4558 91.4719 64.4573 72.5302C77.7547 49.6343 79.4448 23.1829 71.3611 0C47.2375 4.44843 25.1229 19.0374 11.8095 41.9333Z" fill="#F7BABA"/>
<path fill-rule="evenodd" clip-rule="evenodd" d="M74.0067 81.9693C63.6908 89.3196 56.9624 99.8427 54.2359 111.275L86.1881 94.9001L60.2947 119.757C71.9818 120.905 84.1153 118.003 94.4472 110.653C106.931 101.772 114.138 88.2354 115.414 74.0929C101.622 70.6808 86.491 73.0884 74.0067 81.9693Z" fill="#F7BABA"/>
</g>
</svg>
