<svg width="20" height="20" viewBox="0 0 20 20" fill="none" xmlns="http://www.w3.org/2000/svg">
<path d="M17.6917 6.35001H13.075C12.7583 6.35001 12.5 6.09168 12.5 5.76668C12.5 5.45001 12.7583 5.19168 13.075 5.19168H17.6917C18.0083 5.19168 18.2667 5.45001 18.2667 5.76668C18.2667 6.09168 18.0083 6.35001 17.6917 6.35001Z" fill="#C6C7C8"/>
<path d="M5.3834 6.35001H2.3084C1.99173 6.35001 1.7334 6.09168 1.7334 5.77501C1.7334 5.45835 1.99173 5.20001 2.3084 5.20001H5.3834C5.70007 5.20001 5.9584 5.45835 5.9584 5.77501C5.9584 6.09168 5.70007 6.35001 5.3834 6.35001Z" fill="#C6C7C8"/>
<path d="M8.45832 9.03333C10.2624 9.03333 11.725 7.5708 11.725 5.76667C11.725 3.96254 10.2624 2.5 8.45832 2.5C6.65419 2.5 5.19165 3.96254 5.19165 5.76667C5.19165 7.5708 6.65419 9.03333 8.45832 9.03333Z" fill="#4A4B4B"/>
<path d="M17.6917 14.8083H14.6167C14.3001 14.8083 14.0417 14.55 14.0417 14.2333C14.0417 13.9167 14.3001 13.6583 14.6167 13.6583H17.6917C18.0084 13.6583 18.2667 13.9167 18.2667 14.2333C18.2667 14.55 18.0084 14.8083 17.6917 14.8083Z" fill="#C6C7C8"/>
<path d="M6.92507 14.8083H2.3084C1.99173 14.8083 1.7334 14.55 1.7334 14.2333C1.7334 13.9167 1.99173 13.6583 2.3084 13.6583H6.92507C7.24173 13.6583 7.50007 13.9167 7.50007 14.2333C7.50007 14.55 7.24173 14.8083 6.92507 14.8083Z" fill="#C6C7C8"/>
<path d="M11.5416 17.5C13.3457 17.5 14.8082 16.0375 14.8082 14.2333C14.8082 12.4292 13.3457 10.9667 11.5416 10.9667C9.73744 10.9667 8.2749 12.4292 8.2749 14.2333C8.2749 16.0375 9.73744 17.5 11.5416 17.5Z" fill="#4A4B4B"/>
</svg>
