<svg width="19" height="16" viewBox="0 0 19 16" fill="none" xmlns="http://www.w3.org/2000/svg">
<path d="M18.9949 5.24968L7.1984 0.370421C4.71911 -0.656008 1.87287 0.524136 0.846446 3.00343L0.370421 4.15383C-0.656008 6.63313 0.524137 9.47936 3.00343 10.5058L14.7999 15.385L18.9949 5.24968Z" fill="#801D15"/>
<path d="M18.9954 5.24969L7.2683 0.400178C4.79892 -0.621293 1.94277 0.494394 0.921297 2.96377L0.450231 4.10425C-0.571239 6.57363 0.633699 9.45953 3.10308 10.481L14.8302 15.3305L18.9954 5.24969Z" fill="#891F16"/>
<path d="M18.995 5.24969L7.33242 0.424977C4.87791 -0.591534 2.00193 0.45969 0.990377 2.91419L0.519311 4.04971C-0.497201 6.50421 0.73253 9.42978 3.18703 10.4463L14.8496 15.271L18.995 5.24969Z" fill="#932118"/>
<path d="M18.9953 5.24968L7.40207 0.45472C4.96244 -0.551875 2.07158 0.429928 1.06499 2.86956L0.598882 4.00012C-0.412671 6.43974 0.841854 9.40994 3.28148 10.4215L14.8747 15.2165L18.9953 5.24968Z" fill="#9C2319"/>
<path d="M18.9949 5.24967L7.47108 0.479504C5.04633 -0.522132 2.14059 0.395209 1.13895 2.81996L0.672847 3.9406C-0.328789 6.36536 0.950529 9.38018 3.37528 10.3818L14.904 15.152L18.9949 5.24967Z" fill="#A5251B"/>
<path d="M18.9953 5.24968L7.53599 0.509261C5.12611 -0.487417 2.2055 0.365461 1.20387 2.77534L0.742717 3.89102C-0.25396 6.3009 1.05015 9.36035 3.46003 10.357L14.9193 15.0974L18.9953 5.24968Z" fill="#AE271C"/>
<path d="M18.9948 5.24967L7.60495 0.539005C5.20994 -0.452714 2.2695 0.335702 1.27778 2.7307L0.82159 3.84143C-0.170128 6.23643 1.15877 9.33555 3.55378 10.3273L14.9437 15.0379L18.9948 5.24967Z" fill="#B82A1E"/>
<path d="M18.9949 5.24968L7.66948 0.563806C5.2844 -0.422954 2.33404 0.301 1.34728 2.68608L0.891085 3.78689C-0.0956752 6.16702 1.25802 9.31077 3.6431 10.2975L14.9685 14.9834L18.9949 5.24968Z" fill="#C12C1F"/>
<path d="M18.9951 5.24969L7.73911 0.59357C5.3689 -0.388232 2.40366 0.27126 1.42186 2.64147L0.97063 3.73732C-0.0111718 6.10752 1.36732 9.29094 3.73752 10.2678L14.9935 14.9239L18.9951 5.24969Z" fill="#CA2E21"/>
<path d="M18.9949 5.24968L7.80331 0.618353C5.44798 -0.353531 2.46786 0.236543 1.49102 2.59187L1.03979 3.68276C0.0679044 6.0381 1.47119 9.26118 3.82156 10.238L15.0131 14.8693L18.9949 5.24968Z" fill="#D33022"/>
<path d="M18.9947 5.24967L7.87259 0.648096C5.53213 -0.31883 2.53218 0.206783 1.56525 2.54724L1.11898 3.62821C0.152055 5.96867 1.58013 9.23638 3.92059 10.2033L15.0427 14.8049L18.9947 5.24967Z" fill="#DD3224"/>
<path d="M18.9947 5.24968L7.93705 0.677853C5.61147 -0.284114 2.59664 0.177036 1.63468 2.50262L1.1884 3.57863C0.226436 5.90421 1.6793 9.21655 4.00488 10.1785L15.0625 14.7503L18.9947 5.24968Z" fill="#E63425"/>
<path d="M7.19836 0.370423C5.19013 -0.457662 2.94884 0.152245 1.61994 1.73404C2.96372 0.583643 4.89261 0.206792 6.643 0.930747L16.9965 5.21497C18.2114 5.67612 18.3502 5.96868 17.899 7.23312L14.8048 15.39L18.9998 5.25464L7.19836 0.370423Z" fill="#FF4C3D"/>
<path opacity="0.5" d="M18.9949 5.24968L7.1984 0.370421C4.71911 -0.656008 1.87287 0.524136 0.846446 3.00343L0.370421 4.15383C-0.656008 6.63313 0.524137 9.47936 3.00343 10.5058L14.7999 15.385L18.9949 5.24968Z" fill="url(#paint0_linear_441_3253)"/>
<path d="M18.7124 5.95875C18.8413 5.65131 15.9257 4.11415 12.1918 2.53732C8.45801 0.955526 5.32914 -0.0758615 5.19525 0.23653C5.06633 0.543963 7.98198 2.07617 11.7158 3.65796C15.4447 5.23479 18.5785 6.26618 18.7124 5.95875Z" fill="url(#paint1_radial_441_3253)"/>
<defs>
<linearGradient id="paint0_linear_441_3253" x1="5.50966" y1="12.4001" x2="13.3063" y2="1.2653" gradientUnits="userSpaceOnUse">
<stop/>
<stop offset="1" stop-color="#FFA7A3"/>
</linearGradient>
<radialGradient id="paint1_radial_441_3253" cx="0" cy="0" r="1" gradientUnits="userSpaceOnUse" gradientTransform="translate(11.9524 3.09576) rotate(22.9492) scale(7.33821 0.60864)">
<stop stop-color="#A6A6A6"/>
<stop offset="0.0102" stop-color="#A2A2A2"/>
<stop offset="0.1218" stop-color="#777777"/>
<stop offset="0.2392" stop-color="#525252"/>
<stop offset="0.3613" stop-color="#343434"/>
<stop offset="0.4896" stop-color="#1D1D1D"/>
<stop offset="0.627" stop-color="#0D0D0D"/>
<stop offset="0.7797" stop-color="#030303"/>
<stop offset="0.9785"/>
</radialGradient>
</defs>
</svg>
