<svg width="15" height="15" viewBox="0 0 15 15" fill="none" xmlns="http://www.w3.org/2000/svg">
<path d="M9.93118 0.120669C10.0415 -0.107942 10.3873 0.0164658 10.3268 0.262966L8.72592 6.77583C8.70209 6.8728 8.74938 6.97322 8.83931 7.01661L14.8795 9.93138C15.1081 10.0417 14.9837 10.3875 14.7372 10.327L8.22436 8.72612C8.12739 8.70229 8.02697 8.74957 7.98358 8.83951L5.06881 14.8797C4.9585 15.1083 4.61265 14.9839 4.67324 14.7374L6.27407 8.22456C6.2979 8.12759 6.25062 8.02717 6.16068 7.98377L0.12047 5.06901C-0.108141 4.95869 0.0162674 4.61285 0.262767 4.67343L6.77563 6.27427C6.8726 6.2981 6.97302 6.25081 7.01641 6.16088L9.93118 0.120669Z" fill="#FFF0F0"/>
</svg>
