<svg width="20" height="18" viewBox="0 0 20 18" fill="none" xmlns="http://www.w3.org/2000/svg">
<mask id="mask0_528_4568" style="mask-type:alpha" maskUnits="userSpaceOnUse" x="-3" y="-4" width="25" height="26">
<rect x="-2.45867" y="-3.10836" width="24.1238" height="24.1238" fill="#D9D9D9"/>
</mask>
<g mask="url(#mask0_528_4568)">
<path d="M2.56713 18C2.012 18 1.56197 17.55 1.56197 16.9948V8.57662C1.09357 8.79619 0.532607 8.65324 0.222222 8.23939C-0.145511 7.74908 -0.0472745 7.04851 0.44539 6.68394L9.37711 0.0744665C9.51143 -0.0249343 9.69497 -0.0247819 9.82913 0.074842L18.8764 6.79315C19.3601 7.1523 19.457 7.83744 19.0919 8.31662C18.7771 8.72985 18.2129 8.86078 17.7482 8.62846L17.6445 8.57662V16.9948C17.6445 17.55 17.1945 18 16.6394 18H2.56713ZM3.57229 14.9845C3.57229 15.5397 4.02232 15.9897 4.57745 15.9897H14.6291C15.1842 15.9897 15.6342 15.5397 15.6342 14.9845V7.04375L9.90799 2.67751C9.72801 2.54027 9.4785 2.54027 9.29852 2.67751L3.57229 7.04375V14.9845Z" fill="#3F484A"/>
</g>
</svg>
