<svg width="16" height="16" viewBox="0 0 16 16" fill="none" xmlns="http://www.w3.org/2000/svg">
<path d="M13.1933 2.81333C11.2199 0.846667 8.01994 0.846667 6.05994 2.81333C4.67993 4.18 4.2666 6.14667 4.79993 7.88L1.6666 11.0133C1.4466 11.24 1.29327 11.6867 1.33993 12.0067L1.53993 13.46C1.61327 13.94 2.05993 14.3933 2.53993 14.46L3.99327 14.66C4.31327 14.7067 4.75993 14.56 4.9866 14.3267L5.53327 13.78C5.6666 13.6533 5.6666 13.44 5.53327 13.3067L4.23993 12.0133C4.0466 11.82 4.0466 11.5 4.23993 11.3067C4.43327 11.1133 4.75327 11.1133 4.9466 11.3067L6.2466 12.6067C6.37327 12.7333 6.5866 12.7333 6.71327 12.6067L8.1266 11.2C9.85327 11.74 11.8199 11.32 13.1933 9.95333C15.1599 7.98667 15.1599 4.78 13.1933 2.81333ZM9.6666 8C8.7466 8 7.99993 7.25333 7.99993 6.33333C7.99993 5.41333 8.7466 4.66667 9.6666 4.66667C10.5866 4.66667 11.3333 5.41333 11.3333 6.33333C11.3333 7.25333 10.5866 8 9.6666 8Z" fill="#C6C7C8"/>
<path d="M9.66667 8C10.5871 8 11.3333 7.25381 11.3333 6.33333C11.3333 5.41286 10.5871 4.66666 9.66667 4.66666C8.74619 4.66666 8 5.41286 8 6.33333C8 7.25381 8.74619 8 9.66667 8Z" fill="#4A4B4B"/>
</svg>
