<svg width="14" height="14" viewBox="0 0 14 14" fill="none" xmlns="http://www.w3.org/2000/svg">
<path d="M12.8332 8.16669V9.91669C12.8332 10.885 12.0515 11.6667 11.0832 11.6667H10.4998C10.4998 11.025 9.97484 10.5 9.33317 10.5C8.6915 10.5 8.1665 11.025 8.1665 11.6667H5.83317C5.83317 11.025 5.30817 10.5 4.6665 10.5C4.02484 10.5 3.49984 11.025 3.49984 11.6667H2.9165C1.94817 11.6667 1.1665 10.885 1.1665 9.91669V8.16669H7.58317C8.22484 8.16669 8.74984 7.64169 8.74984 7.00002V2.91669H9.82319C10.2432 2.91669 10.6282 3.14419 10.8382 3.50586L11.8357 5.25002H11.0832C10.7623 5.25002 10.4998 5.51252 10.4998 5.83335V7.58335C10.4998 7.90419 10.7623 8.16669 11.0832 8.16669H12.8332Z" fill="#C0EED4"/>
<path d="M4.66667 12.8333C5.311 12.8333 5.83333 12.311 5.83333 11.6667C5.83333 11.0223 5.311 10.5 4.66667 10.5C4.02233 10.5 3.5 11.0223 3.5 11.6667C3.5 12.311 4.02233 12.8333 4.66667 12.8333Z" fill="#2EC66F"/>
<path d="M9.33317 12.8333C9.9775 12.8333 10.4998 12.311 10.4998 11.6667C10.4998 11.0223 9.9775 10.5 9.33317 10.5C8.68884 10.5 8.1665 11.0223 8.1665 11.6667C8.1665 12.311 8.68884 12.8333 9.33317 12.8333Z" fill="#2EC66F"/>
<path d="M12.8333 7.30918V8.16667H11.0833C10.7625 8.16667 10.5 7.90417 10.5 7.58333V5.83333C10.5 5.5125 10.7625 5.25 11.0833 5.25H11.8358L12.6817 6.73165C12.7808 6.90665 12.8333 7.10502 12.8333 7.30918Z" fill="#2EC66F"/>
<path d="M8.16699 1.16669H3.50033C2.36283 1.16669 1.41784 1.98335 1.21367 3.06252H4.08366C4.32283 3.06252 4.52116 3.26085 4.52116 3.50002C4.52116 3.73919 4.32283 3.93752 4.08366 3.93752H1.16699V4.81252H2.91699C3.15616 4.81252 3.35449 5.01085 3.35449 5.25002C3.35449 5.48919 3.15616 5.68752 2.91699 5.68752H1.16699V6.56252H1.75033C1.98949 6.56252 2.18783 6.76085 2.18783 7.00002C2.18783 7.23919 1.98949 7.43752 1.75033 7.43752H1.16699V8.16669H7.58366C8.22533 8.16669 8.75033 7.64169 8.75033 7.00002V1.75002C8.75033 1.42919 8.48783 1.16669 8.16699 1.16669Z" fill="#2EC66F"/>
<path d="M1.21351 3.0625H0.583496C0.344329 3.0625 0.145996 3.26083 0.145996 3.5C0.145996 3.73917 0.344329 3.9375 0.583496 3.9375H1.16683V3.5C1.16683 3.34833 1.18434 3.2025 1.21351 3.0625Z" fill="#2EC66F"/>
<path d="M0.583496 4.8125C0.344329 4.8125 0.145996 5.01083 0.145996 5.25C0.145996 5.48917 0.344329 5.6875 0.583496 5.6875H1.16683V4.8125H0.583496Z" fill="#2EC66F"/>
<path d="M0.583496 6.5625C0.344329 6.5625 0.145996 6.76083 0.145996 7C0.145996 7.23917 0.344329 7.4375 0.583496 7.4375H1.16683V6.5625H0.583496Z" fill="#2EC66F"/>
</svg>
