<svg width="14" height="14" viewBox="0 0 14 14" fill="none" xmlns="http://www.w3.org/2000/svg">
<path d="M9.42223 1.14001C9.42223 0.874798 9.31687 0.620444 9.12934 0.432908C8.9418 0.245372 8.68745 0.140015 8.42223 0.140015C8.15702 0.140015 7.90266 0.245372 7.71513 0.432908C7.52759 0.620444 7.42223 0.874798 7.42223 1.14001V9.72001C7.42243 10.0945 7.31158 10.4605 7.10369 10.772C6.89581 11.0834 6.60023 11.3262 6.25434 11.4696C5.90846 11.6131 5.52781 11.6507 5.16054 11.5778C4.79327 11.5048 4.45587 11.3246 4.19103 11.0599C3.92619 10.7952 3.7458 10.4579 3.67268 10.0907C3.59956 9.72346 3.63699 9.34278 3.78023 8.99683C3.92348 8.65087 4.16611 8.35516 4.47743 8.14711C4.78876 7.93906 5.15479 7.82801 5.52923 7.82801C5.79445 7.82801 6.0488 7.72266 6.23634 7.53512C6.42388 7.34759 6.52923 7.09323 6.52923 6.82801C6.52923 6.5628 6.42388 6.30844 6.23634 6.12091C6.0488 5.93337 5.79445 5.82801 5.52923 5.82801C4.75927 5.82801 4.0066 6.05634 3.3664 6.4841C2.7262 6.91187 2.22722 7.51988 1.93257 8.23123C1.63792 8.94258 1.56082 9.72533 1.71104 10.4805C1.86125 11.2357 2.23202 11.9293 2.77647 12.4738C3.32091 13.0182 4.01458 13.389 4.76975 13.5392C5.52491 13.6894 6.30767 13.6123 7.01902 13.3177C7.73037 13.023 8.33838 12.524 8.76614 11.8838C9.19391 11.2436 9.42223 10.491 9.42223 9.72101V5.28301C10.3566 6.0268 11.516 6.4309 12.7102 6.42901C12.9754 6.42901 13.2298 6.32366 13.4173 6.13612C13.6049 5.94859 13.7102 5.69423 13.7102 5.42901C13.7102 5.1638 13.6049 4.90944 13.4173 4.72191C13.2298 4.53437 12.9754 4.42901 12.7102 4.42901C11.8382 4.42901 11.0019 4.0826 10.3853 3.46598C9.76865 2.84936 9.42223 2.01305 9.42223 1.14101V1.14001Z" fill="#4A4B4B"/>
</svg>
