<svg width="17" height="17" viewBox="0 0 17 17" fill="none" xmlns="http://www.w3.org/2000/svg">
<path d="M11.2108 3.16507C11.9504 4.79592 12.8581 6.79728 13.5394 7.59226C13.6724 7.28338 13.6582 6.76549 13.8102 5.50162C13.9476 4.36031 14.8888 4.252 15.2927 4.33277C16.1859 4.51903 16.4581 5.42441 16.4283 5.75822C16.3807 6.29034 16.3785 6.27222 16.281 7.55895C16.1384 9.44053 16.8654 10.8612 16.9319 12.4719C16.9319 15.5081 14.2711 17 12.4086 17C10.9185 17 9.42785 16.0466 8.8688 15.5699L6.07497 13.0183C5.73289 12.7523 4.88733 11.8744 4.51645 11.3696C3.50535 9.99362 4.96788 9.04617 5.78985 9.28375C5.72523 9.23432 5.33531 8.60111 5.14843 8.29071C4.64669 7.28338 5.14843 6.61241 5.51902 6.42815C6.36002 6.01002 6.97773 6.48043 7.17251 6.73698C7.0981 6.61029 6.86466 6.09841 6.48835 5.15954C6.11205 4.22064 6.71797 3.64065 7.06801 3.46801C7.82822 3.11641 8.55043 3.56304 8.73098 3.96216C8.81944 4.15761 9.29635 5.20215 9.50402 5.66284C9.34748 5.28082 9.06407 4.52195 8.96382 4.17122C8.76424 3.34448 9.24413 2.77749 9.54821 2.63178C9.97103 2.42918 10.8531 2.37612 11.2017 3.14493L11.2108 3.16507Z" fill="url(#paint0_radial_155_2946)"/>
<path d="M11.2109 3.16507C11.9505 4.79592 12.858 6.79728 13.5394 7.59226C13.6725 7.28338 13.6582 6.76549 13.8102 5.50162C13.9475 4.36031 14.8888 4.252 15.2927 4.33277C16.1859 4.51903 16.4581 5.42441 16.4282 5.75822C16.3808 6.29034 16.3784 6.27222 16.281 7.55895C16.1384 9.44053 16.8654 10.8612 16.9319 12.4719C16.9319 15.5081 14.2711 17 12.4086 17C10.9186 17 9.42788 16.0466 8.86877 15.5699L6.07494 13.0183C5.73286 12.7523 4.88733 11.8744 4.51644 11.3696C3.50534 9.99362 4.96791 9.04617 5.78982 9.28375C5.7252 9.23432 5.33528 8.60111 5.1484 8.29071C4.64668 7.28338 5.1484 6.61241 5.51905 6.42815C6.36005 6.01002 6.9777 6.48043 7.17254 6.73698C7.09807 6.61029 6.86463 6.09841 6.48833 5.15954C6.11202 4.22064 6.718 3.64065 7.06798 3.46801C7.82825 3.11641 8.55046 3.56304 8.73102 3.96216C8.81941 4.15761 9.29632 5.20215 9.50399 5.66284C9.34751 5.28082 9.06404 4.52195 8.96379 4.17122C8.76427 3.34448 9.2441 2.77749 9.54819 2.63178C9.97106 2.42918 10.853 2.37612 11.2017 3.14493L11.2109 3.16507Z" fill="url(#paint1_radial_155_2946)"/>
<path d="M16.4283 5.75817C16.3807 6.29034 16.3784 6.27223 16.281 7.55896C16.2306 8.22378 16.5921 10.6723 16.5921 10.6723C15.7135 10.9592 13.8102 10.5788 13.5394 7.59221C13.6724 7.28338 13.6582 6.76549 13.8102 5.50162C13.9475 4.36031 14.8888 4.25199 15.2927 4.33277C16.1859 4.51902 16.4581 5.42442 16.4283 5.75817Z" fill="url(#paint2_radial_155_2946)"/>
<path d="M16.4283 5.75817C16.3807 6.29034 16.3784 6.27223 16.281 7.55896C16.2306 8.22378 16.5921 10.6723 16.5921 10.6723C15.7135 10.9592 13.8102 10.5788 13.5394 7.59221C13.6724 7.28338 13.6582 6.76549 13.8102 5.50162C13.9475 4.36031 14.8888 4.25199 15.2927 4.33277C16.1859 4.51902 16.4581 5.42442 16.4283 5.75817Z" fill="url(#paint3_radial_155_2946)"/>
<path d="M16.4283 5.75817C16.3807 6.29034 16.3784 6.27223 16.281 7.55896C16.2306 8.22378 16.5921 10.6723 16.5921 10.6723C15.7135 10.9592 13.8102 10.5788 13.5394 7.59221C13.6724 7.28338 13.6582 6.76549 13.8102 5.50162C13.9475 4.36031 14.8888 4.25199 15.2927 4.33277C16.1859 4.51902 16.4581 5.42442 16.4283 5.75817Z" fill="url(#paint4_radial_155_2946)"/>
<path d="M11.2105 3.16508C11.9501 4.79593 12.8577 6.79728 13.5391 7.59226C13.4325 8.50196 12.6194 8.93687 11.9189 8.77407C11.0355 8.51758 10.7004 7.89069 10.7004 7.89069C10.7004 7.89069 10.4697 7.53354 10.2445 7.14027C9.98396 6.6853 10.0314 6.69552 9.59544 5.87221C9.5099 5.71068 9.09019 4.61469 8.9635 4.17122C8.76392 3.34448 9.24381 2.77749 9.5479 2.63178C9.97071 2.42918 10.8527 2.37612 11.2014 3.14493L11.2105 3.16508Z" fill="url(#paint5_radial_155_2946)"/>
<path d="M11.2105 3.16508C11.9501 4.79593 12.8577 6.79728 13.5391 7.59226C13.4325 8.50196 12.6194 8.93687 11.9189 8.77407C11.0355 8.51758 10.7004 7.89069 10.7004 7.89069C10.7004 7.89069 10.4697 7.53354 10.2445 7.14027C9.98396 6.6853 10.0314 6.69552 9.59544 5.87221C9.5099 5.71068 9.09019 4.61469 8.9635 4.17122C8.76392 3.34448 9.24381 2.77749 9.5479 2.63178C9.97071 2.42918 10.8527 2.37612 11.2014 3.14493L11.2105 3.16508Z" fill="url(#paint6_linear_155_2946)"/>
<path d="M11.2105 3.16508C11.9501 4.79593 12.8577 6.79728 13.5391 7.59226C13.4325 8.50196 12.6194 8.93687 11.9189 8.77407C11.0355 8.51758 10.7004 7.89069 10.7004 7.89069C10.7004 7.89069 10.4697 7.53354 10.2445 7.14027C9.98396 6.6853 10.0314 6.69552 9.59544 5.87221C9.5099 5.71068 9.09019 4.61469 8.9635 4.17122C8.76392 3.34448 9.24381 2.77749 9.5479 2.63178C9.97071 2.42918 10.8527 2.37612 11.2014 3.14493L11.2105 3.16508Z" fill="url(#paint7_radial_155_2946)"/>
<path d="M11.2105 3.16508C11.9501 4.79593 12.8577 6.79728 13.5391 7.59226C13.4325 8.50196 12.6194 8.93687 11.9189 8.77407C11.0355 8.51758 10.7004 7.89069 10.7004 7.89069C10.7004 7.89069 10.4697 7.53354 10.2445 7.14027C9.98396 6.6853 10.0314 6.69552 9.59544 5.87221C9.5099 5.71068 9.09019 4.61469 8.9635 4.17122C8.76392 3.34448 9.24381 2.77749 9.5479 2.63178C9.97071 2.42918 10.8527 2.37612 11.2014 3.14493L11.2105 3.16508Z" fill="url(#paint8_radial_155_2946)"/>
<path d="M11.2105 3.16508C11.9501 4.79593 12.8577 6.79728 13.5391 7.59226C13.4325 8.50196 12.6194 8.93687 11.9189 8.77407C11.0355 8.51758 10.7004 7.89069 10.7004 7.89069C10.7004 7.89069 10.4697 7.53354 10.2445 7.14027C9.98396 6.6853 10.0314 6.69552 9.59544 5.87221C9.5099 5.71068 9.09019 4.61469 8.9635 4.17122C8.76392 3.34448 9.24381 2.77749 9.5479 2.63178C9.97071 2.42918 10.8527 2.37612 11.2014 3.14493L11.2105 3.16508Z" fill="url(#paint9_linear_155_2946)"/>
<path d="M8.73083 3.96216C8.84974 4.22506 9.6716 6.02427 9.5956 5.87223C9.81665 6.37054 10.501 7.58669 10.7006 7.91916C11.1404 8.65226 10.644 9.26219 10.3232 9.44846C9.40137 9.98385 8.87199 9.30122 8.87199 9.30122C8.38584 8.58843 7.97914 7.99515 7.1765 6.73183C6.98305 6.36774 6.63034 5.55398 6.4882 5.1595C6.13731 4.1858 6.71782 3.64065 7.06786 3.46802C7.82807 3.11641 8.55028 3.56305 8.73083 3.96216Z" fill="url(#paint10_radial_155_2946)"/>
<path d="M8.73083 3.96216C8.84974 4.22506 9.6716 6.02427 9.5956 5.87223C9.81665 6.37054 10.501 7.58669 10.7006 7.91916C11.1404 8.65226 10.644 9.26219 10.3232 9.44846C9.40137 9.98385 8.87199 9.30122 8.87199 9.30122C8.38584 8.58843 7.97914 7.99515 7.1765 6.73183C6.98305 6.36774 6.63034 5.55398 6.4882 5.1595C6.13731 4.1858 6.71782 3.64065 7.06786 3.46802C7.82807 3.11641 8.55028 3.56305 8.73083 3.96216Z" fill="url(#paint11_linear_155_2946)"/>
<path d="M8.73083 3.96216C8.84974 4.22506 9.6716 6.02427 9.5956 5.87223C9.81665 6.37054 10.501 7.58669 10.7006 7.91916C11.1404 8.65226 10.644 9.26219 10.3232 9.44846C9.40137 9.98385 8.87199 9.30122 8.87199 9.30122C8.38584 8.58843 7.97914 7.99515 7.1765 6.73183C6.98305 6.36774 6.63034 5.55398 6.4882 5.1595C6.13731 4.1858 6.71782 3.64065 7.06786 3.46802C7.82807 3.11641 8.55028 3.56305 8.73083 3.96216Z" fill="url(#paint12_radial_155_2946)"/>
<path d="M8.73083 3.96216C8.84974 4.22506 9.6716 6.02427 9.5956 5.87223C9.81665 6.37054 10.501 7.58669 10.7006 7.91916C11.1404 8.65226 10.644 9.26219 10.3232 9.44846C9.40137 9.98385 8.87199 9.30122 8.87199 9.30122C8.38584 8.58843 7.97914 7.99515 7.1765 6.73183C6.98305 6.36774 6.63034 5.55398 6.4882 5.1595C6.13731 4.1858 6.71782 3.64065 7.06786 3.46802C7.82807 3.11641 8.55028 3.56305 8.73083 3.96216Z" fill="url(#paint13_radial_155_2946)"/>
<path d="M8.73083 3.96216C8.84974 4.22506 9.6716 6.02427 9.5956 5.87223C9.81665 6.37054 10.501 7.58669 10.7006 7.91916C11.1404 8.65226 10.644 9.26219 10.3232 9.44846C9.40137 9.98385 8.87199 9.30122 8.87199 9.30122C8.38584 8.58843 7.97914 7.99515 7.1765 6.73183C6.98305 6.36774 6.63034 5.55398 6.4882 5.1595C6.13731 4.1858 6.71782 3.64065 7.06786 3.46802C7.82807 3.11641 8.55028 3.56305 8.73083 3.96216Z" fill="url(#paint14_radial_155_2946)"/>
<path d="M8.73083 3.96216C8.84974 4.22506 9.6716 6.02427 9.5956 5.87223C9.81665 6.37054 10.501 7.58669 10.7006 7.91916C11.1404 8.65226 10.644 9.26219 10.3232 9.44846C9.40137 9.98385 8.87199 9.30122 8.87199 9.30122C8.38584 8.58843 7.97914 7.99515 7.1765 6.73183C6.98305 6.36774 6.63034 5.55398 6.4882 5.1595C6.13731 4.1858 6.71782 3.64065 7.06786 3.46802C7.82807 3.11641 8.55028 3.56305 8.73083 3.96216Z" fill="url(#paint15_linear_155_2946)"/>
<path d="M5.51889 6.4281C6.35989 6.00997 6.97754 6.48038 7.17238 6.73693C7.77957 7.65313 8.50392 8.69505 8.8387 9.24893C9.73162 10.726 7.9031 11.3672 7.9031 11.3672C6.22177 9.47216 5.91076 9.37629 5.78966 9.2837C5.72504 9.23428 5.33512 8.60106 5.14824 8.29066C4.64649 7.28339 5.14824 6.61236 5.51889 6.4281Z" fill="url(#paint16_radial_155_2946)"/>
<path d="M5.51889 6.4281C6.35989 6.00997 6.97754 6.48038 7.17238 6.73693C7.77957 7.65313 8.50392 8.69505 8.8387 9.24893C9.73162 10.726 7.9031 11.3672 7.9031 11.3672C6.22177 9.47216 5.91076 9.37629 5.78966 9.2837C5.72504 9.23428 5.33512 8.60106 5.14824 8.29066C4.64649 7.28339 5.14824 6.61236 5.51889 6.4281Z" fill="url(#paint17_linear_155_2946)"/>
<path d="M5.51889 6.4281C6.35989 6.00997 6.97754 6.48038 7.17238 6.73693C7.77957 7.65313 8.50392 8.69505 8.8387 9.24893C9.73162 10.726 7.9031 11.3672 7.9031 11.3672C6.22177 9.47216 5.91076 9.37629 5.78966 9.2837C5.72504 9.23428 5.33512 8.60106 5.14824 8.29066C4.64649 7.28339 5.14824 6.61236 5.51889 6.4281Z" fill="url(#paint18_radial_155_2946)"/>
<path d="M5.51889 6.4281C6.35989 6.00997 6.97754 6.48038 7.17238 6.73693C7.77957 7.65313 8.50392 8.69505 8.8387 9.24893C9.73162 10.726 7.9031 11.3672 7.9031 11.3672C6.22177 9.47216 5.91076 9.37629 5.78966 9.2837C5.72504 9.23428 5.33512 8.60106 5.14824 8.29066C4.64649 7.28339 5.14824 6.61236 5.51889 6.4281Z" fill="url(#paint19_radial_155_2946)"/>
<path d="M5.51889 6.4281C6.35989 6.00997 6.97754 6.48038 7.17238 6.73693C7.77957 7.65313 8.50392 8.69505 8.8387 9.24893C9.73162 10.726 7.9031 11.3672 7.9031 11.3672C6.22177 9.47216 5.91076 9.37629 5.78966 9.2837C5.72504 9.23428 5.33512 8.60106 5.14824 8.29066C4.64649 7.28339 5.14824 6.61236 5.51889 6.4281Z" fill="url(#paint20_radial_155_2946)"/>
<path d="M5.51889 6.4281C6.35989 6.00997 6.97754 6.48038 7.17238 6.73693C7.77957 7.65313 8.50392 8.69505 8.8387 9.24893C9.73162 10.726 7.9031 11.3672 7.9031 11.3672C6.22177 9.47216 5.91076 9.37629 5.78966 9.2837C5.72504 9.23428 5.33512 8.60106 5.14824 8.29066C4.64649 7.28339 5.14824 6.61236 5.51889 6.4281Z" fill="url(#paint21_radial_155_2946)"/>
<path d="M4.51644 11.3696C3.50534 9.99358 4.96791 9.04613 5.78982 9.28371C6.17926 9.52445 6.78013 10.127 7.03679 10.3983C8.66682 11.9881 8.39514 12.4786 7.9392 13.0183C7.49742 13.3849 6.92311 13.678 6.07494 13.0183C5.73286 12.7523 4.88733 11.8743 4.51644 11.3696Z" fill="url(#paint22_radial_155_2946)"/>
<path d="M4.51644 11.3696C3.50534 9.99358 4.96791 9.04613 5.78982 9.28371C6.17926 9.52445 6.78013 10.127 7.03679 10.3983C8.66682 11.9881 8.39514 12.4786 7.9392 13.0183C7.49742 13.3849 6.92311 13.678 6.07494 13.0183C5.73286 12.7523 4.88733 11.8743 4.51644 11.3696Z" fill="url(#paint23_radial_155_2946)"/>
<path d="M4.51644 11.3696C3.50534 9.99358 4.96791 9.04613 5.78982 9.28371C6.17926 9.52445 6.78013 10.127 7.03679 10.3983C8.66682 11.9881 8.39514 12.4786 7.9392 13.0183C7.49742 13.3849 6.92311 13.678 6.07494 13.0183C5.73286 12.7523 4.88733 11.8743 4.51644 11.3696Z" fill="url(#paint24_radial_155_2946)"/>
<path d="M4.51644 11.3696C3.50534 9.99358 4.96791 9.04613 5.78982 9.28371C6.17926 9.52445 6.78013 10.127 7.03679 10.3983C8.66682 11.9881 8.39514 12.4786 7.9392 13.0183C7.49742 13.3849 6.92311 13.678 6.07494 13.0183C5.73286 12.7523 4.88733 11.8743 4.51644 11.3696Z" fill="url(#paint25_radial_155_2946)"/>
<path d="M4.51644 11.3696C3.50534 9.99358 4.96791 9.04613 5.78982 9.28371C6.17926 9.52445 6.78013 10.127 7.03679 10.3983C8.66682 11.9881 8.39514 12.4786 7.9392 13.0183C7.49742 13.3849 6.92311 13.678 6.07494 13.0183C5.73286 12.7523 4.88733 11.8743 4.51644 11.3696Z" fill="url(#paint26_linear_155_2946)"/>
<path d="M11.2109 3.16507C11.9505 4.79592 12.858 6.79728 13.5394 7.59226C13.6725 7.28338 13.6582 6.76549 13.8102 5.50162C13.9475 4.36031 14.8888 4.252 15.2927 4.33277C16.1859 4.51903 16.4581 5.42441 16.4282 5.75822C16.3808 6.29034 16.3784 6.27222 16.281 7.55895C16.1384 9.44053 16.8654 10.8612 16.9319 12.4719C16.9319 15.5081 14.2711 17 12.4086 17C10.9186 17 9.42788 16.0466 8.86877 15.5699L6.07494 13.0183C5.73286 12.7523 4.88733 11.8744 4.51644 11.3696C3.50534 9.99362 4.96791 9.04617 5.78982 9.28375C5.7252 9.23432 5.33528 8.60111 5.1484 8.29071C4.64668 7.28338 5.1484 6.61241 5.51905 6.42815C6.36005 6.01002 6.9777 6.48043 7.17254 6.73698C7.09807 6.61029 6.86463 6.09841 6.48833 5.15954C6.11202 4.22064 6.718 3.64065 7.06798 3.46801C7.82825 3.11641 8.55046 3.56304 8.73102 3.96216C8.81941 4.15761 9.29632 5.20215 9.50399 5.66284C9.34751 5.28082 9.06404 4.52195 8.96379 4.17122C8.76427 3.34448 9.2441 2.77749 9.54819 2.63178C9.97106 2.42918 10.853 2.37612 11.2017 3.14493L11.2109 3.16507Z" fill="url(#paint27_radial_155_2946)"/>
<path d="M11.2109 3.16507C11.9505 4.79592 12.858 6.79728 13.5394 7.59226C13.6725 7.28338 13.6582 6.76549 13.8102 5.50162C13.9475 4.36031 14.8888 4.252 15.2927 4.33277C16.1859 4.51903 16.4581 5.42441 16.4282 5.75822C16.3808 6.29034 16.3784 6.27222 16.281 7.55895C16.1384 9.44053 16.8654 10.8612 16.9319 12.4719C16.9319 15.5081 14.2711 17 12.4086 17C10.9186 17 9.42788 16.0466 8.86877 15.5699L6.07494 13.0183C5.73286 12.7523 4.88733 11.8744 4.51644 11.3696C3.50534 9.99362 4.96791 9.04617 5.78982 9.28375C5.7252 9.23432 5.33528 8.60111 5.1484 8.29071C4.64668 7.28338 5.1484 6.61241 5.51905 6.42815C6.36005 6.01002 6.9777 6.48043 7.17254 6.73698C7.09807 6.61029 6.86463 6.09841 6.48833 5.15954C6.11202 4.22064 6.718 3.64065 7.06798 3.46801C7.82825 3.11641 8.55046 3.56304 8.73102 3.96216C8.81941 4.15761 9.29632 5.20215 9.50399 5.66284C9.34751 5.28082 9.06404 4.52195 8.96379 4.17122C8.76427 3.34448 9.2441 2.77749 9.54819 2.63178C9.97106 2.42918 10.853 2.37612 11.2017 3.14493L11.2109 3.16507Z" fill="url(#paint28_radial_155_2946)"/>
<path d="M11.2109 3.16507C11.9505 4.79592 12.858 6.79728 13.5394 7.59226C13.6725 7.28338 13.6582 6.76549 13.8102 5.50162C13.9475 4.36031 14.8888 4.252 15.2927 4.33277C16.1859 4.51903 16.4581 5.42441 16.4282 5.75822C16.3808 6.29034 16.3784 6.27222 16.281 7.55895C16.1384 9.44053 16.8654 10.8612 16.9319 12.4719C16.9319 15.5081 14.2711 17 12.4086 17C10.9186 17 9.42788 16.0466 8.86877 15.5699L6.07494 13.0183C5.73286 12.7523 4.88733 11.8744 4.51644 11.3696C3.50534 9.99362 4.96791 9.04617 5.78982 9.28375C5.7252 9.23432 5.33528 8.60111 5.1484 8.29071C4.64668 7.28338 5.1484 6.61241 5.51905 6.42815C6.36005 6.01002 6.9777 6.48043 7.17254 6.73698C7.09807 6.61029 6.86463 6.09841 6.48833 5.15954C6.11202 4.22064 6.718 3.64065 7.06798 3.46801C7.82825 3.11641 8.55046 3.56304 8.73102 3.96216C8.81941 4.15761 9.29632 5.20215 9.50399 5.66284C9.34751 5.28082 9.06404 4.52195 8.96379 4.17122C8.76427 3.34448 9.2441 2.77749 9.54819 2.63178C9.97106 2.42918 10.853 2.37612 11.2017 3.14493L11.2109 3.16507Z" fill="url(#paint29_radial_155_2946)"/>
<path d="M12.2416 5.34759C12.6981 6.28051 13.1541 7.11622 13.5394 7.57386C13.5788 7.98093 13.6143 8.21364 13.7117 8.56508C12.9423 7.7957 12.1983 6.11321 12.2416 5.34759Z" fill="url(#paint30_radial_155_2946)"/>
<path fill-rule="evenodd" clip-rule="evenodd" d="M1.3475 9.13671C1.52846 9.13671 1.67516 9.2834 1.67516 9.46438C1.67516 10.0119 1.89656 10.7447 2.3735 11.3362C2.84228 11.9177 3.55281 12.3582 4.54995 12.3582C4.73091 12.3582 4.8776 12.5048 4.8776 12.6858C4.8776 12.8667 4.73091 13.0134 4.54995 13.0134C3.33293 13.0134 2.44225 12.4656 1.86335 11.7476C1.29259 11.0396 1.01986 10.1617 1.01986 9.46438C1.01986 9.2834 1.16655 9.13671 1.3475 9.13671Z" fill="url(#paint31_radial_155_2946)"/>
<path fill-rule="evenodd" clip-rule="evenodd" d="M1.3475 9.13671C1.52846 9.13671 1.67516 9.2834 1.67516 9.46438C1.67516 10.0119 1.89656 10.7447 2.3735 11.3362C2.84228 11.9177 3.55281 12.3582 4.54995 12.3582C4.73091 12.3582 4.8776 12.5048 4.8776 12.6858C4.8776 12.8667 4.73091 13.0134 4.54995 13.0134C3.33293 13.0134 2.44225 12.4656 1.86335 11.7476C1.29259 11.0396 1.01986 10.1617 1.01986 9.46438C1.01986 9.2834 1.16655 9.13671 1.3475 9.13671Z" fill="url(#paint32_radial_155_2946)"/>
<path fill-rule="evenodd" clip-rule="evenodd" d="M1.3475 9.13671C1.52846 9.13671 1.67516 9.2834 1.67516 9.46438C1.67516 10.0119 1.89656 10.7447 2.3735 11.3362C2.84228 11.9177 3.55281 12.3582 4.54995 12.3582C4.73091 12.3582 4.8776 12.5048 4.8776 12.6858C4.8776 12.8667 4.73091 13.0134 4.54995 13.0134C3.33293 13.0134 2.44225 12.4656 1.86335 11.7476C1.29259 11.0396 1.01986 10.1617 1.01986 9.46438C1.01986 9.2834 1.16655 9.13671 1.3475 9.13671Z" fill="url(#paint33_radial_155_2946)"/>
<path fill-rule="evenodd" clip-rule="evenodd" d="M0.327652 10.3056C0.508607 10.3056 0.655299 10.4522 0.655299 10.6332C0.655299 11.7946 1.52529 13.3464 3.35222 13.3464C3.53317 13.3464 3.67986 13.4931 3.67986 13.6741C3.67986 13.8551 3.53317 14.0018 3.35222 14.0018C1.05492 14.0018 0 12.0376 0 10.6332C0 10.4522 0.146698 10.3056 0.327652 10.3056Z" fill="url(#paint34_radial_155_2946)"/>
<path fill-rule="evenodd" clip-rule="evenodd" d="M0.327652 10.3056C0.508607 10.3056 0.655299 10.4522 0.655299 10.6332C0.655299 11.7946 1.52529 13.3464 3.35222 13.3464C3.53317 13.3464 3.67986 13.4931 3.67986 13.6741C3.67986 13.8551 3.53317 14.0018 3.35222 14.0018C1.05492 14.0018 0 12.0376 0 10.6332C0 10.4522 0.146698 10.3056 0.327652 10.3056Z" fill="url(#paint35_radial_155_2946)"/>
<path fill-rule="evenodd" clip-rule="evenodd" d="M12.6003 4.85175C12.4193 4.85294 12.2716 4.70721 12.2705 4.52625C12.2669 3.97874 12.0407 3.2474 11.5599 2.65896C11.0873 2.08057 10.374 1.64479 9.37684 1.6513C9.19592 1.65248 9.04825 1.50675 9.04704 1.3258C9.04588 1.14485 9.1916 0.997203 9.37258 0.996018C10.5895 0.988066 11.4838 1.53008 12.0674 2.24433C12.6427 2.94853 12.9212 3.82464 12.9258 4.52197C12.927 4.70292 12.7812 4.85057 12.6003 4.85175Z" fill="url(#paint36_radial_155_2946)"/>
<path fill-rule="evenodd" clip-rule="evenodd" d="M12.6003 4.85175C12.4193 4.85294 12.2716 4.70721 12.2705 4.52625C12.2669 3.97874 12.0407 3.2474 11.5599 2.65896C11.0873 2.08057 10.374 1.64479 9.37684 1.6513C9.19592 1.65248 9.04825 1.50675 9.04704 1.3258C9.04588 1.14485 9.1916 0.997203 9.37258 0.996018C10.5895 0.988066 11.4838 1.53008 12.0674 2.24433C12.6427 2.94853 12.9212 3.82464 12.9258 4.52197C12.927 4.70292 12.7812 4.85057 12.6003 4.85175Z" fill="url(#paint37_radial_155_2946)"/>
<path fill-rule="evenodd" clip-rule="evenodd" d="M13.6115 3.67643C13.4306 3.67762 13.2829 3.53189 13.2817 3.35093C13.2741 2.18956 12.3941 0.643433 10.5671 0.655372C10.3862 0.656552 10.2385 0.51082 10.2374 0.329872C10.2362 0.148918 10.3819 0.00127133 10.5629 8.58805e-05C12.8601 -0.0149298 13.9278 1.94232 13.937 3.34665C13.9382 3.5276 13.7925 3.67526 13.6115 3.67643Z" fill="url(#paint38_radial_155_2946)"/>
<path fill-rule="evenodd" clip-rule="evenodd" d="M13.6115 3.67643C13.4306 3.67762 13.2829 3.53189 13.2817 3.35093C13.2741 2.18956 12.3941 0.643433 10.5671 0.655372C10.3862 0.656552 10.2385 0.51082 10.2374 0.329872C10.2362 0.148918 10.3819 0.00127133 10.5629 8.58805e-05C12.8601 -0.0149298 13.9278 1.94232 13.937 3.34665C13.9382 3.5276 13.7925 3.67526 13.6115 3.67643Z" fill="url(#paint39_radial_155_2946)"/>
<path d="M12.5364 7.63423C11.3585 8.10914 8.69467 9.66907 7.9113 13.1446" stroke="#FFC339" stroke-width="1.16307" stroke-linecap="round"/>
<defs>
<radialGradient id="paint0_radial_155_2946" cx="0" cy="0" r="1" gradientUnits="userSpaceOnUse" gradientTransform="translate(10.5524 7.27323) rotate(60.1006) scale(12.798 8.36077)">
<stop offset="0.00323036" stop-color="#FFC133"/>
<stop offset="0.697824" stop-color="#FFC53F"/>
<stop offset="0.797459" stop-color="#FFAD3E"/>
<stop offset="0.945275" stop-color="#EC7D58"/>
</radialGradient>
<radialGradient id="paint1_radial_155_2946" cx="0" cy="0" r="1" gradientUnits="userSpaceOnUse" gradientTransform="translate(16.9319 10.0849) rotate(-93.0118) scale(7.59302 2.90886)">
<stop offset="0.00323036" stop-color="#FFE849"/>
<stop offset="1" stop-color="#FFE647" stop-opacity="0"/>
</radialGradient>
<radialGradient id="paint2_radial_155_2946" cx="0" cy="0" r="1" gradientUnits="userSpaceOnUse" gradientTransform="translate(16.02 4.65157) rotate(99.6824) scale(4.06642 1.55783)">
<stop offset="0.00323036" stop-color="#FFE849"/>
<stop offset="1" stop-color="#FFE647" stop-opacity="0"/>
</radialGradient>
<radialGradient id="paint3_radial_155_2946" cx="0" cy="0" r="1" gradientUnits="userSpaceOnUse" gradientTransform="translate(13.5394 7.10046) scale(1.64472 6.66995)">
<stop stop-color="#EE9F2C"/>
<stop offset="1" stop-color="#EE9F2C" stop-opacity="0"/>
</radialGradient>
<radialGradient id="paint4_radial_155_2946" cx="0" cy="0" r="1" gradientUnits="userSpaceOnUse" gradientTransform="translate(14.2611 9.68614) rotate(-94.0856) scale(2.76831 1.92281)">
<stop stop-color="#FFC93D"/>
<stop offset="1" stop-color="#FFC33A" stop-opacity="0"/>
</radialGradient>
<radialGradient id="paint5_radial_155_2946" cx="0" cy="0" r="1" gradientUnits="userSpaceOnUse" gradientTransform="translate(12.7141 5.48362) rotate(151.024) scale(2.90993 5.84549)">
<stop offset="0.563302" stop-color="#F09D2E" stop-opacity="0"/>
<stop offset="1" stop-color="#F09D2E"/>
</radialGradient>
<linearGradient id="paint6_linear_155_2946" x1="11.2277" y1="8.46482" x2="11.2277" y2="6.89327" gradientUnits="userSpaceOnUse">
<stop stop-color="#FFC337"/>
<stop offset="1" stop-color="#FFC337" stop-opacity="0"/>
</linearGradient>
<radialGradient id="paint7_radial_155_2946" cx="0" cy="0" r="1" gradientUnits="userSpaceOnUse" gradientTransform="translate(12.1062 3.16976) rotate(-13.4957) scale(1.95371 4.32037)">
<stop stop-color="#FFEC4C"/>
<stop offset="1" stop-color="#FFEC4C" stop-opacity="0"/>
</radialGradient>
<radialGradient id="paint8_radial_155_2946" cx="0" cy="0" r="1" gradientUnits="userSpaceOnUse" gradientTransform="translate(8.91639 2.50236) rotate(33.3064) scale(1.90733 1.47877)">
<stop stop-color="#D99F2B"/>
<stop offset="1" stop-color="#D99F2B" stop-opacity="0"/>
</radialGradient>
<linearGradient id="paint9_linear_155_2946" x1="9.21858" y1="6.34237" x2="10.1685" y2="5.88643" gradientUnits="userSpaceOnUse">
<stop stop-color="#A85300"/>
<stop offset="0.824742" stop-color="#A85300" stop-opacity="0"/>
</linearGradient>
<radialGradient id="paint10_radial_155_2946" cx="0" cy="0" r="1" gradientUnits="userSpaceOnUse" gradientTransform="translate(9.97203 6.38288) rotate(149.148) scale(2.80505 5.85358)">
<stop offset="0.563302" stop-color="#F09D2E" stop-opacity="0"/>
<stop offset="1" stop-color="#F09D2E"/>
</radialGradient>
<linearGradient id="paint11_linear_155_2946" x1="8.5659" y1="9.42499" x2="8.5659" y2="7.82135" gradientUnits="userSpaceOnUse">
<stop stop-color="#FFC337"/>
<stop offset="1" stop-color="#FFC337" stop-opacity="0"/>
</linearGradient>
<radialGradient id="paint12_radial_155_2946" cx="0" cy="0" r="1" gradientUnits="userSpaceOnUse" gradientTransform="translate(9.6488 4.59458) rotate(-33.8929) scale(1.86155 5.66749)">
<stop stop-color="#FFEC4C"/>
<stop offset="1" stop-color="#FFEC4C" stop-opacity="0"/>
</radialGradient>
<radialGradient id="paint13_radial_155_2946" cx="0" cy="0" r="1" gradientUnits="userSpaceOnUse" gradientTransform="translate(8.23088 6.89329) rotate(-24.9048) scale(2.34588 10.7115)">
<stop offset="0.597587" stop-color="#F09D2E" stop-opacity="0"/>
<stop offset="1" stop-color="#F09D2E"/>
</radialGradient>
<radialGradient id="paint14_radial_155_2946" cx="0" cy="0" r="1" gradientUnits="userSpaceOnUse" gradientTransform="translate(6.10315 3.34073) rotate(32.6006) scale(1.93934 1.54569)">
<stop stop-color="#D99F2B"/>
<stop offset="1" stop-color="#D99F2B" stop-opacity="0"/>
</radialGradient>
<linearGradient id="paint15_linear_155_2946" x1="6.95801" y1="7.27325" x2="7.59007" y2="6.83135" gradientUnits="userSpaceOnUse">
<stop stop-color="#A85300"/>
<stop offset="0.824742" stop-color="#A85300" stop-opacity="0"/>
</linearGradient>
<radialGradient id="paint16_radial_155_2946" cx="0" cy="0" r="1" gradientUnits="userSpaceOnUse" gradientTransform="translate(8.34421 8.81438) rotate(137.351) scale(2.32383 4.55051)">
<stop offset="0.563302" stop-color="#F09D2E" stop-opacity="0"/>
<stop offset="1" stop-color="#F09D2E"/>
</radialGradient>
<linearGradient id="paint17_linear_155_2946" x1="7.01067" y1="11.3672" x2="7.01067" y2="10.0215" gradientUnits="userSpaceOnUse">
<stop stop-color="#FFC337"/>
<stop offset="1" stop-color="#FFC337" stop-opacity="0"/>
</linearGradient>
<radialGradient id="paint18_radial_155_2946" cx="0" cy="0" r="1" gradientUnits="userSpaceOnUse" gradientTransform="translate(7.77392 6.81954) rotate(-12.2956) scale(1.76988 3.74908)">
<stop stop-color="#FFEC4C"/>
<stop offset="1" stop-color="#FFEC4C" stop-opacity="0"/>
</radialGradient>
<radialGradient id="paint19_radial_155_2946" cx="0" cy="0" r="1" gradientUnits="userSpaceOnUse" gradientTransform="translate(6.69285 9.24273) rotate(-40.2165) scale(2.46184 12.5858)">
<stop offset="0.597587" stop-color="#F09D2E" stop-opacity="0"/>
<stop offset="1" stop-color="#F09D2E"/>
</radialGradient>
<radialGradient id="paint20_radial_155_2946" cx="0" cy="0" r="1" gradientUnits="userSpaceOnUse" gradientTransform="translate(4.67489 6.26159) rotate(29.5034) scale(1.78039 1.33997)">
<stop stop-color="#D99F2B"/>
<stop offset="1" stop-color="#D99F2B" stop-opacity="0"/>
</radialGradient>
<radialGradient id="paint21_radial_155_2946" cx="0" cy="0" r="1" gradientUnits="userSpaceOnUse" gradientTransform="translate(5.60911 9.76189) rotate(-45.7639) scale(1.00759 4.54938)">
<stop stop-color="#A85300"/>
<stop offset="0.824742" stop-color="#A85300" stop-opacity="0"/>
</radialGradient>
<radialGradient id="paint22_radial_155_2946" cx="0" cy="0" r="1" gradientUnits="userSpaceOnUse" gradientTransform="translate(7.82758 11.4574) rotate(143.369) scale(2.28459 4.29858)">
<stop offset="0.563302" stop-color="#F09D2E" stop-opacity="0"/>
<stop offset="1" stop-color="#F09D2E"/>
</radialGradient>
<radialGradient id="paint23_radial_155_2946" cx="0" cy="0" r="1" gradientUnits="userSpaceOnUse" gradientTransform="translate(7.21589 9.73029) rotate(-9.97765) scale(1.88338 3.27189)">
<stop stop-color="#FFEC4C"/>
<stop offset="1" stop-color="#FFEC4C" stop-opacity="0"/>
</radialGradient>
<radialGradient id="paint24_radial_155_2946" cx="0" cy="0" r="1" gradientUnits="userSpaceOnUse" gradientTransform="translate(6.05628 11.8282) rotate(-34.3137) scale(2.44132 11.7865)">
<stop offset="0.597587" stop-color="#F09D2E" stop-opacity="0"/>
<stop offset="1" stop-color="#F09D2E"/>
</radialGradient>
<radialGradient id="paint25_radial_155_2946" cx="0" cy="0" r="1" gradientUnits="userSpaceOnUse" gradientTransform="translate(3.89172 9.24724) rotate(24.5478) scale(1.82724 1.21252)">
<stop stop-color="#D99F2B"/>
<stop offset="1" stop-color="#D99F2B" stop-opacity="0"/>
</radialGradient>
<linearGradient id="paint26_linear_155_2946" x1="7.92704" y1="15.6322" x2="6.39714" y2="12.5025" gradientUnits="userSpaceOnUse">
<stop stop-color="#FFC337"/>
<stop offset="1" stop-color="#FFC337" stop-opacity="0"/>
</linearGradient>
<radialGradient id="paint27_radial_155_2946" cx="0" cy="0" r="1" gradientUnits="userSpaceOnUse" gradientTransform="translate(13.3983 6.47533) rotate(129.014) scale(10.5625 17.0818)">
<stop offset="0.872168" stop-color="#F6814F" stop-opacity="0"/>
<stop offset="1" stop-color="#F7814F"/>
</radialGradient>
<radialGradient id="paint28_radial_155_2946" cx="0" cy="0" r="1" gradientUnits="userSpaceOnUse" gradientTransform="translate(11.1946 6.58931) rotate(76.293) scale(11.2243 12.3155)">
<stop offset="0.853453" stop-color="#F6814F" stop-opacity="0"/>
<stop offset="1" stop-color="#F7814F"/>
</radialGradient>
<radialGradient id="paint29_radial_155_2946" cx="0" cy="0" r="1" gradientUnits="userSpaceOnUse" gradientTransform="translate(13.7403 3.73969) rotate(64.44) scale(1.93738 1.72715)">
<stop stop-color="#D99F2B"/>
<stop offset="1" stop-color="#D99F2B" stop-opacity="0"/>
</radialGradient>
<radialGradient id="paint30_radial_155_2946" cx="0" cy="0" r="1" gradientUnits="userSpaceOnUse" gradientTransform="translate(13.7117 7.44419) rotate(149.254) scale(0.737776 2.28296)">
<stop offset="0.200941" stop-color="#B4813D"/>
<stop offset="1" stop-color="#B4813D" stop-opacity="0"/>
</radialGradient>
<radialGradient id="paint31_radial_155_2946" cx="0" cy="0" r="1" gradientUnits="userSpaceOnUse" gradientTransform="translate(1.81367 9.31234) rotate(62.071) scale(3.22939 4.78933)">
<stop stop-color="#419FFD"/>
<stop offset="1" stop-color="#4B6DCB"/>
</radialGradient>
<radialGradient id="paint32_radial_155_2946" cx="0" cy="0" r="1" gradientUnits="userSpaceOnUse" gradientTransform="translate(0.900426 9.55295) rotate(2.38594) scale(0.456338 0.960367)">
<stop stop-color="#5486C7"/>
<stop offset="1" stop-color="#5486C7" stop-opacity="0"/>
</radialGradient>
<radialGradient id="paint33_radial_155_2946" cx="0" cy="0" r="1" gradientUnits="userSpaceOnUse" gradientTransform="translate(4.31999 12.1556) rotate(111.801) scale(0.460374 1.35413)">
<stop stop-color="#5486C7"/>
<stop offset="1" stop-color="#5486C7" stop-opacity="0"/>
</radialGradient>
<radialGradient id="paint34_radial_155_2946" cx="0" cy="0" r="1" gradientUnits="userSpaceOnUse" gradientTransform="translate(2.04978 10.9968) rotate(94.7123) scale(2.55431 4.29483)">
<stop stop-color="#419FFD"/>
<stop offset="1" stop-color="#4B6DCB"/>
</radialGradient>
<radialGradient id="paint35_radial_155_2946" cx="0" cy="0" r="1" gradientUnits="userSpaceOnUse" gradientTransform="translate(-0.113919 10.7024) rotate(2.38479) scale(0.435296 0.915642)">
<stop stop-color="#5486C7"/>
<stop offset="1" stop-color="#5486C7" stop-opacity="0"/>
</radialGradient>
<radialGradient id="paint36_radial_155_2946" cx="0" cy="0" r="1" gradientUnits="userSpaceOnUse" gradientTransform="translate(10.0904 0.288821) rotate(60.1958) scale(2.71328 4.02391)">
<stop stop-color="#419FFD"/>
<stop offset="1" stop-color="#4B6DCB"/>
</radialGradient>
<radialGradient id="paint37_radial_155_2946" cx="0" cy="0" r="1" gradientUnits="userSpaceOnUse" gradientTransform="translate(8.97324 1.27134) rotate(18.8618) scale(0.390355 0.628295)">
<stop stop-color="#4D8AC1"/>
<stop offset="1" stop-color="#4D8AC1" stop-opacity="0"/>
</radialGradient>
<radialGradient id="paint38_radial_155_2946" cx="0" cy="0" r="1" gradientUnits="userSpaceOnUse" gradientTransform="translate(11.2325 -0.674079) rotate(60.69) scale(3.3707 5.0002)">
<stop stop-color="#419FFD"/>
<stop offset="1" stop-color="#4B6DCB"/>
</radialGradient>
<radialGradient id="paint39_radial_155_2946" cx="0" cy="0" r="1" gradientUnits="userSpaceOnUse" gradientTransform="translate(10.1669 0.262684) rotate(18.8531) scale(0.372336 0.599066)">
<stop stop-color="#4D8AC1"/>
<stop offset="1" stop-color="#4D8AC1" stop-opacity="0"/>
</radialGradient>
</defs>
</svg>
