<svg width="4" height="14" viewBox="0 0 4 14" fill="none" xmlns="http://www.w3.org/2000/svg">
<path fill-rule="evenodd" clip-rule="evenodd" d="M0 13.9988V1.6516C0 0.73964 0.747146 0 1.66836 0C2.58957 0 3.33672 0.73964 3.33672 1.6516V6.11461C2.9993 6.16896 2.66857 6.29886 2.374 6.51625C1.73799 6.98681 1.49162 7.6204 1.28675 8.49524C1.10867 9.25742 1.22516 8.96713 0.927907 9.35948C0.469978 9.96392 1.29479 12.1789 2.04461 10.9952C2.19457 10.7592 2.32178 10.4066 2.35793 10.0859C2.37935 9.88969 2.37667 9.70146 2.3124 9.52517C2.17181 9.13282 1.78887 9.25211 2.01649 8.11747C2.0888 7.75826 2.21868 7.51038 2.39141 7.26914C2.58288 7.00138 2.92432 6.79328 3.33672 6.72568C3.33672 9.15005 3.33672 11.5744 3.33672 14.0001L0 13.9988Z" fill="#EA5353"/>
</svg>
