<svg width="17" height="18" viewBox="0 0 17 18" fill="none" xmlns="http://www.w3.org/2000/svg">
<path fill-rule="evenodd" clip-rule="evenodd" d="M17 8.87066C17 8.25563 16.9448 7.66426 16.8423 7.09654H8.67347V10.4516H13.3414C13.1403 11.5358 12.5292 12.4544 11.6106 13.0694V15.2457H14.4137C16.0538 13.7357 17 11.5121 17 8.87066Z" fill="#4285F4"/>
<path fill-rule="evenodd" clip-rule="evenodd" d="M8.67341 17.3469C11.0152 17.3469 12.9786 16.5702 14.4137 15.2455L11.6106 13.0693C10.8339 13.5897 9.84039 13.8972 8.67341 13.8972C6.41437 13.8972 4.50226 12.3714 3.82021 10.3214H0.922483V12.5686C2.34966 15.4032 5.28287 17.3469 8.67341 17.3469Z" fill="#34A853"/>
<path fill-rule="evenodd" clip-rule="evenodd" d="M3.82027 10.3215C3.6468 9.80114 3.54824 9.24525 3.54824 8.67359C3.54824 8.10193 3.6468 7.54604 3.82027 7.02563V4.77841H0.922542C0.335111 5.94933 0 7.27401 0 8.67359C0 10.0732 0.335111 11.3978 0.922542 12.5688L3.82027 10.3215Z" fill="#FBBC05"/>
<path fill-rule="evenodd" clip-rule="evenodd" d="M8.67341 3.44968C9.94683 3.44968 11.0902 3.88729 11.989 4.74675L14.4768 2.25904C12.9747 0.859462 11.0113 0 8.67341 0C5.28287 0 2.34966 1.94365 0.922483 4.77829L3.82021 7.02551C4.50226 4.97542 6.41437 3.44968 8.67341 3.44968Z" fill="#EA4335"/>
</svg>
