<svg width="16" height="16" viewBox="0 0 16 16" fill="none" xmlns="http://www.w3.org/2000/svg">
<path d="M11.2134 1.33325H4.78671C3.36671 1.33325 2.21338 2.49325 2.21338 3.90659V13.2999C2.21338 14.4999 3.07338 15.0066 4.12671 14.4266L7.38005 12.6199C7.72671 12.4266 8.28671 12.4266 8.62671 12.6199L11.88 14.4266C12.9334 15.0133 13.7934 14.5066 13.7934 13.2999V3.90659C13.7867 2.49325 12.6334 1.33325 11.2134 1.33325Z" fill="#EA5353"/>
<path d="M8 6.85337C7.32 6.85337 6.64 6.73337 5.99334 6.50004C5.73334 6.4067 5.6 6.12004 5.69334 5.86004C5.79334 5.60004 6.08 5.4667 6.34 5.56004C7.41334 5.9467 8.59334 5.9467 9.66667 5.56004C9.92667 5.4667 10.2133 5.60004 10.3067 5.86004C10.4 6.12004 10.2667 6.4067 10.0067 6.50004C9.36 6.73337 8.68 6.85337 8 6.85337Z" fill="#FEF6F6"/>
</svg>
