<svg width="16" height="16" viewBox="0 0 16 16" fill="none" xmlns="http://www.w3.org/2000/svg">
<path d="M6 4.80001V11.1933C6 13.3333 7.33333 14.6667 9.46667 14.6667H11.1933C13.3267 14.6667 14.66 13.3333 14.66 11.2V4.80001C14.6667 2.66668 13.3333 1.33334 11.2 1.33334H9.46667C7.33333 1.33334 6 2.66668 6 4.80001Z" fill="#C6C7C8"/>
<path d="M3.71329 5.41334L1.47996 7.64667C1.28663 7.84 1.28663 8.16 1.47996 8.35334L3.71329 10.5867C3.90663 10.78 4.22663 10.78 4.41996 10.5867C4.61329 10.3933 4.61329 10.0733 4.41996 9.88L3.03996 8.5H10.1666C10.44 8.5 10.6666 8.27334 10.6666 8C10.6666 7.72667 10.44 7.5 10.1666 7.5H3.03996L4.41996 6.12C4.51996 6.02 4.56663 5.89334 4.56663 5.76667C4.56663 5.64 4.51996 5.50667 4.41996 5.41334C4.22663 5.21334 3.91329 5.21334 3.71329 5.41334Z" fill="#4A4B4B"/>
</svg>
