<svg width="63" height="65" viewBox="0 0 63 65" fill="none" xmlns="http://www.w3.org/2000/svg">
<g opacity="0.2">
<path fill-rule="evenodd" clip-rule="evenodd" d="M6.39681 22.7139C0.437665 32.9653 -1.22917 44.5468 0.860847 55.351L21.787 29.0357L9.30729 60.2478C19.7142 56.7155 28.9552 49.5473 34.9144 39.2872C42.1171 26.8853 43.0326 12.5574 38.6539 0C25.587 2.40957 13.6082 10.3119 6.39681 22.7139Z" fill="#F7BABA"/>
<path fill-rule="evenodd" clip-rule="evenodd" d="M40.0869 44.4001C34.4991 48.3815 30.8545 54.0815 29.3777 60.2738L46.6851 51.4042L32.6596 64.8684C38.9901 65.4902 45.5624 63.9184 51.1588 59.937C57.9212 55.1265 61.8248 47.7942 62.5157 40.1336C55.0452 38.2854 46.8492 39.5896 40.0869 44.4001Z" fill="#F7BABA"/>
</g>
</svg>
