<svg width="20" height="20" viewBox="0 0 20 20" fill="none" xmlns="http://www.w3.org/2000/svg">
<path fill-rule="evenodd" clip-rule="evenodd" d="M6.25033 9.58333C5.79008 9.58333 5.41699 9.95641 5.41699 10.4167V11.25C5.41699 11.7102 5.79008 12.0833 6.25033 12.0833H7.08366C7.54391 12.0833 7.91699 11.7102 7.91699 11.25V10.4167C7.91699 9.95641 7.54391 9.58333 7.08366 9.58333H6.25033ZM6.25033 10.4167V11.25H7.08366V10.4167H6.25033Z" fill="#FEF6F6"/>
<path fill-rule="evenodd" clip-rule="evenodd" d="M8.75 10.4167C8.75 9.95641 9.12308 9.58333 9.58333 9.58333H10.4167C10.8769 9.58333 11.25 9.95641 11.25 10.4167V11.25C11.25 11.7102 10.8769 12.0833 10.4167 12.0833H9.58333C9.12308 12.0833 8.75 11.7102 8.75 11.25V10.4167ZM9.58333 10.4167H10.4167V11.25H9.58333V10.4167Z" fill="#FEF6F6"/>
<path fill-rule="evenodd" clip-rule="evenodd" d="M12.9163 9.58333C12.4561 9.58333 12.083 9.95641 12.083 10.4167V11.25C12.083 11.7102 12.4561 12.0833 12.9163 12.0833H13.7497C14.2099 12.0833 14.583 11.7102 14.583 11.25V10.4167C14.583 9.95641 14.2099 9.58333 13.7497 9.58333H12.9163ZM12.9163 10.4167V11.25H13.7497V10.4167H12.9163Z" fill="#FEF6F6"/>
<path fill-rule="evenodd" clip-rule="evenodd" d="M5.41699 13.75C5.41699 13.2898 5.79008 12.9167 6.25033 12.9167H7.08366C7.54391 12.9167 7.91699 13.2898 7.91699 13.75V14.5833C7.91699 15.0436 7.54391 15.4167 7.08366 15.4167H6.25033C5.79008 15.4167 5.41699 15.0436 5.41699 14.5833V13.75ZM6.25033 14.5833V13.75H7.08366V14.5833H6.25033Z" fill="#FEF6F6"/>
<path fill-rule="evenodd" clip-rule="evenodd" d="M9.58333 12.9167C9.12308 12.9167 8.75 13.2898 8.75 13.75V14.5833C8.75 15.0436 9.12308 15.4167 9.58333 15.4167H10.4167C10.8769 15.4167 11.25 15.0436 11.25 14.5833V13.75C11.25 13.2898 10.8769 12.9167 10.4167 12.9167H9.58333ZM10.4167 13.75H9.58333V14.5833H10.4167V13.75Z" fill="#FEF6F6"/>
<path fill-rule="evenodd" clip-rule="evenodd" d="M12.083 13.75C12.083 13.2898 12.4561 12.9167 12.9163 12.9167H13.7497C14.2099 12.9167 14.583 13.2898 14.583 13.75V14.5833C14.583 15.0436 14.2099 15.4167 13.7497 15.4167H12.9163C12.4561 15.4167 12.083 15.0436 12.083 14.5833V13.75ZM12.9163 14.5833V13.75H13.7497V14.5833H12.9163Z" fill="#FEF6F6"/>
<path fill-rule="evenodd" clip-rule="evenodd" d="M6.66699 2.5C6.43687 2.5 6.25033 2.68655 6.25033 2.91667V4.16667H4.58366C3.66318 4.16667 2.91699 4.91287 2.91699 5.83333V15.8333C2.91699 16.7538 3.66318 17.5 4.58366 17.5H15.417C16.3375 17.5 17.0837 16.7538 17.0837 15.8333V5.83333C17.0837 4.91287 16.3375 4.16667 15.417 4.16667H14.5837V5.41667C14.5837 5.64679 14.3971 5.83333 14.167 5.83333C13.9369 5.83333 13.7503 5.64679 13.7503 5.41667V2.91667C13.7503 2.68655 13.5638 2.5 13.3337 2.5C13.1035 2.5 12.917 2.68655 12.917 2.91667V4.16667H7.91699V5.41667C7.91699 5.64679 7.73045 5.83333 7.50033 5.83333C7.2702 5.83333 7.08366 5.64679 7.08366 5.41667V2.91667C7.08366 2.68655 6.89712 2.5 6.66699 2.5ZM3.75033 15.8333V8.75H16.2503V15.8333C16.2503 16.2936 15.8772 16.6667 15.417 16.6667H4.58366C4.12342 16.6667 3.75033 16.2936 3.75033 15.8333Z" fill="#FEF6F6"/>
</svg>
