<svg width="116" height="120" viewBox="0 0 116 120" fill="none" xmlns="http://www.w3.org/2000/svg">
<g opacity="0.5">
<path fill-rule="evenodd" clip-rule="evenodd" d="M11.8095 41.9332C0.807994 60.8589 -2.26924 82.24 1.58925 102.186L40.222 53.6043L17.1826 111.226C36.3954 104.705 53.4556 91.4717 64.4571 72.53C77.7545 49.6342 79.4446 23.1828 71.3609 0C47.2374 4.44842 25.1228 19.0373 11.8095 41.9332Z" fill="#6CD79A"/>
<path fill-rule="evenodd" clip-rule="evenodd" d="M74.0065 81.9694C63.6906 89.3197 56.9622 99.8428 54.2358 111.275L86.1879 94.9001L60.2946 119.757C71.9816 120.905 84.1151 118.003 94.447 110.653C106.931 101.772 114.138 88.2355 115.414 74.093C101.622 70.6809 86.4908 73.0885 74.0065 81.9694Z" fill="#6CD79A"/>
</g>
</svg>
