<svg width="16" height="16" viewBox="0 0 16 16" fill="none" xmlns="http://www.w3.org/2000/svg">
<path d="M13.9266 8.66669V9.33335H13.3466C12.8532 9.33335 12.4532 9.73335 12.4532 10.2334V10.4334C12.4532 10.9334 12.0532 11.3334 11.5532 11.3334C11.0599 11.3334 10.6599 10.9334 10.6599 10.4334V10.2334C10.6599 9.73335 10.2532 9.33335 9.75991 9.33335C9.26658 9.33335 8.86658 9.73335 8.86658 10.2334V10.4334C8.86658 10.9334 8.45991 11.3334 7.96658 11.3334C7.47324 11.3334 7.06658 10.9334 7.06658 10.4334V10.2334C7.06658 9.73335 6.66658 9.33335 6.17324 9.33335C5.67991 9.33335 5.27324 9.73335 5.27324 10.2334V10.4334C5.27324 10.9334 4.87324 11.3334 4.37991 11.3334C3.87991 11.3334 3.47991 10.9334 3.47991 10.4334V10.22C3.47991 9.72669 3.08658 9.32669 2.59991 9.32002H2.07324V8.66669C2.07324 7.74669 2.76658 6.96669 3.70658 6.74002C3.89324 6.69335 4.08658 6.66669 4.29324 6.66669H11.7066C11.9132 6.66669 12.1066 6.69335 12.2932 6.74002C13.2332 6.96669 13.9266 7.74669 13.9266 8.66669Z" fill="#4A4B4B"/>
<path d="M12.2937 4.77998V6.73998C12.107 6.69331 11.9137 6.66665 11.707 6.66665H4.2937C4.08703 6.66665 3.8937 6.69331 3.70703 6.73998V4.77998C3.70703 3.97998 4.42703 3.33331 5.32036 3.33331H10.6804C11.5737 3.33331 12.2937 3.97998 12.2937 4.77998Z" fill="#C6C7C8"/>
<path d="M5.83301 2.36668V3.34002H5.31967C5.14634 3.34002 4.98634 3.36002 4.83301 3.40002V2.36668C4.83301 2.13335 5.05967 1.93335 5.33301 1.93335C5.60634 1.93335 5.83301 2.13335 5.83301 2.36668Z" fill="#4A4B4B"/>
<path d="M11.167 2.21997V3.39997C11.0137 3.3533 10.8537 3.3333 10.6803 3.3333H10.167V2.21997C10.167 1.94664 10.3937 1.71997 10.667 1.71997C10.9403 1.71997 11.167 1.94664 11.167 2.21997Z" fill="#4A4B4B"/>
<path d="M8.5 1.87998V3.33331H7.5V1.87998C7.5 1.57998 7.72667 1.33331 8 1.33331C8.27333 1.33331 8.5 1.57998 8.5 1.87998Z" fill="#4A4B4B"/>
<path d="M14.1663 13.6667H13.9263V9.33334H13.3463C12.853 9.33334 12.453 9.73334 12.453 10.2333V10.4333C12.453 10.9333 12.053 11.3333 11.553 11.3333C11.0597 11.3333 10.6597 10.9333 10.6597 10.4333V10.2333C10.6597 9.73334 10.253 9.33334 9.75968 9.33334C9.26634 9.33334 8.86634 9.73334 8.86634 10.2333V10.4333C8.86634 10.9333 8.45967 11.3333 7.96634 11.3333C7.47301 11.3333 7.06634 10.9333 7.06634 10.4333V10.2333C7.06634 9.73334 6.66634 9.33334 6.17301 9.33334C5.67967 9.33334 5.27301 9.73334 5.27301 10.2333V10.4333C5.27301 10.9333 4.87301 11.3333 4.37967 11.3333C3.87967 11.3333 3.47967 10.9333 3.47967 10.4333V10.22C3.47967 9.72667 3.08634 9.32667 2.59967 9.32001H2.07301V13.6667H1.83301C1.55967 13.6667 1.33301 13.8933 1.33301 14.1667C1.33301 14.44 1.55967 14.6667 1.83301 14.6667H2.07301H13.9263H14.1663C14.4397 14.6667 14.6663 14.44 14.6663 14.1667C14.6663 13.8933 14.4397 13.6667 14.1663 13.6667Z" fill="#C6C7C8"/>
</svg>
