<svg width="16" height="16" viewBox="0 0 16 16" fill="none" xmlns="http://www.w3.org/2000/svg">
<path d="M7.99998 14.6663C11.6819 14.6663 14.6666 11.6816 14.6666 7.99967C14.6666 4.31778 11.6819 1.33301 7.99998 1.33301C4.31808 1.33301 1.33331 4.31778 1.33331 7.99967C1.33331 11.6816 4.31808 14.6663 7.99998 14.6663Z" fill="#C6C7C8"/>
<path d="M10.4733 10.6202C10.3867 10.6202 10.3 10.6002 10.22 10.5468L8.15334 9.3135C7.64001 9.00684 7.26001 8.3335 7.26001 7.74017V5.00684C7.26001 4.7335 7.48668 4.50684 7.76001 4.50684C8.03334 4.50684 8.26001 4.7335 8.26001 5.00684V7.74017C8.26001 7.98017 8.46001 8.3335 8.66668 8.4535L10.7333 9.68684C10.9733 9.82684 11.0467 10.1335 10.9067 10.3735C10.8067 10.5335 10.64 10.6202 10.4733 10.6202Z" fill="#4A4B4B"/>
</svg>
