<svg width="16" height="16" viewBox="0 0 16 16" fill="none" xmlns="http://www.w3.org/2000/svg">
<path d="M7.66659 14C11.1644 14 13.9999 11.1645 13.9999 7.66668C13.9999 4.16887 11.1644 1.33334 7.66659 1.33334C4.16878 1.33334 1.33325 4.16887 1.33325 7.66668C1.33325 11.1645 4.16878 14 7.66659 14Z" fill="#4A4B4B"/>
<path d="M14.2 14.6667C14.08 14.6667 13.96 14.62 13.8733 14.5333L12.6333 13.2933C12.4533 13.1133 12.4533 12.82 12.6333 12.6333C12.8133 12.4533 13.1066 12.4533 13.2933 12.6333L14.5333 13.8733C14.7133 14.0533 14.7133 14.3467 14.5333 14.5333C14.44 14.62 14.32 14.6667 14.2 14.6667Z" fill="#C6C7C8"/>
</svg>
