<svg width="67" height="53" viewBox="0 0 67 53" fill="none" xmlns="http://www.w3.org/2000/svg">
<path d="M0 52.5911V4.05612C0 1.83493 1.79904 0.0334453 4.02023 0.0304258L26.4403 -5.20343e-05C27.7228 -0.00179554 28.9295 0.607697 29.6892 1.64103L34.6351 8.36831C36.5316 10.9478 39.5422 12.471 42.7437 12.471H60.9613C64.2963 12.471 66.9999 15.1746 66.9999 18.5096V26.6357C66.9999 27.1915 66.5493 27.6421 65.9935 27.6421H32.3737C29.873 27.6421 27.4661 28.5692 25.6143 30.2499C19.6749 35.6405 6.14412 47.9212 0.671496 52.8907C0.412834 53.1256 0 52.9405 0 52.5911Z" fill="#C0EED4"/>
</svg>
