<svg width="24" height="24" viewBox="0 0 24 24" fill="none" xmlns="http://www.w3.org/2000/svg">
<path d="M8.25 0C8.25 6.3375 4.8375 12 0 12C4.8375 12 8.25 17.6625 8.25 24C8.25 17.6625 11.6625 12 16.5 12C11.6625 12 8.25 6.3375 8.25 0Z" fill="#FFE54D"/>
<path d="M19.875 0C19.875 3.15 18.15 6 15.75 6C18.15 6 19.875 8.85 19.875 12C19.875 8.85 21.6 6 24 6C21.6 6 19.875 3.15 19.875 0Z" fill="#6ADBC6"/>
<path d="M18 12C18 15.15 16.275 18 13.875 18C16.275 18 18 20.85 18 24C18 20.85 19.725 18 22.125 18C19.725 18 18 15.15 18 12Z" fill="#FF73C0"/>
</svg>
