<svg width="8" height="8" viewBox="0 0 8 8" fill="none" xmlns="http://www.w3.org/2000/svg">
<path d="M2.81741 0.237803C2.78076 -0.0078615 3.12902 -0.0976647 3.21574 0.135087L4.34334 3.16149C4.37746 3.25305 4.471 3.30824 4.56764 3.29383L7.76195 2.81734C8.00761 2.7807 8.09742 3.12895 7.86466 3.21567L4.83826 4.34328C4.7467 4.37739 4.69151 4.47094 4.70592 4.56758L5.18241 7.76188C5.21905 8.00755 4.8708 8.09735 4.78408 7.8646L3.65647 4.83819C3.62236 4.74663 3.52881 4.69144 3.43217 4.70586L0.237868 5.18234C-0.00779652 5.21899 -0.0975997 4.87074 0.135152 4.78401L3.16156 3.65641C3.25312 3.62229 3.30831 3.52875 3.29389 3.43211L2.81741 0.237803Z" fill="#FFF0F0"/>
</svg>
