<svg width="16" height="16" viewBox="0 0 16 16" fill="none" xmlns="http://www.w3.org/2000/svg">
<path d="M12 12.5733H11.4933C10.96 12.5733 10.4533 12.78 10.08 13.1533L8.93998 14.28C8.41998 14.7933 7.57334 14.7933 7.05334 14.28L5.91333 13.1533C5.54 12.78 5.02667 12.5733 4.5 12.5733H4C2.89333 12.5733 2 11.6867 2 10.5933V3.31999C2 2.22666 2.89333 1.34001 4 1.34001H12C13.1067 1.34001 14 2.22666 14 3.31999V10.5933C14 11.68 13.1067 12.5733 12 12.5733Z" fill="#C6C7C8"/>
<path d="M8.00061 6.93998C8.85849 6.93998 9.55396 6.24456 9.55396 5.38667C9.55396 4.52879 8.85849 3.83333 8.00061 3.83333C7.14273 3.83333 6.44727 4.52879 6.44727 5.38667C6.44727 6.24456 7.14273 6.93998 8.00061 6.93998Z" fill="#4A4B4B"/>
<path d="M9.7871 10.04C10.3271 10.04 10.6404 9.43999 10.3404 8.99332C9.88711 8.31999 9.0071 7.86665 8.00044 7.86665C6.99377 7.86665 6.11376 8.31999 5.66043 8.99332C5.36043 9.43999 5.67378 10.04 6.21378 10.04H9.7871Z" fill="#4A4B4B"/>
</svg>
