<svg width="24" height="24" viewBox="0 0 24 24" fill="none" xmlns="http://www.w3.org/2000/svg">
<path d="M16.8201 2H7.18007C5.05007 2 3.32007 3.74 3.32007 5.86V19.95C3.32007 21.75 4.61007 22.51 6.19007 21.64L11.0701 18.93C11.5901 18.64 12.4301 18.64 12.9401 18.93L17.8201 21.64C19.4001 22.52 20.6901 21.76 20.6901 19.95V5.86C20.6801 3.74 18.9501 2 16.8201 2Z" fill="#C6C7C8"/>
<path d="M12 10.28C10.98 10.28 9.96 10.1 8.99 9.75C8.6 9.61 8.4 9.18 8.54 8.79C8.69 8.4 9.12 8.2 9.51 8.34C11.12 8.92 12.89 8.92 14.5 8.34C14.89 8.2 15.32 8.4 15.46 8.79C15.6 9.18 15.4 9.61 15.01 9.75C14.04 10.1 13.02 10.28 12 10.28Z" fill="#4A4B4B"/>
</svg>
