<svg width="12" height="13" viewBox="0 0 12 13" fill="none" xmlns="http://www.w3.org/2000/svg">
<path d="M10.8227 0.75C10.8227 0.75 5.36141 6.78124 1.32067 11.2441" stroke="#C6C7C8" stroke-width="1.5" stroke-linecap="round"/>
<path d="M1.2302 1.87205L7.41093 11.1942C7.67321 11.5898 7.80436 11.7876 8.00456 11.8946C8.20476 12.0017 8.44208 12.001 8.91672 11.9995L10.1502 11.9957C10.9655 11.9931 11.3732 11.9919 11.5141 11.7292C11.6551 11.4665 11.4307 11.1262 10.982 10.4454L4.63513 0.815302C4.373 0.417584 4.24194 0.218726 4.04122 0.111064C3.8405 0.0034029 3.60234 0.00422027 3.12601 0.00585502L2.22623 0.00894306C1.24535 0.0123094 0.754917 0.0139926 0.586041 0.329883C0.417164 0.645774 0.688177 1.05453 1.2302 1.87205Z" fill="#4A4B4B"/>
</svg>
