<svg width="36" height="11" viewBox="0 0 36 11" fill="none" xmlns="http://www.w3.org/2000/svg">
<g clip-path="url(#clip0_0_91)">
<path d="M5.14719 9.20999L10.1315 2.99999C9.93862 2.85428 8.01862 1.28571 5.14291 1.28571C2.26291 1.28571 0.347196 2.85428 0.154338 2.99999L5.13862 9.20999L5.14291 9.21427L5.14719 9.20999Z" fill="#C6C7C8"/>
<path d="M1.51281 4.69287L5.13852 9.21001L5.14281 9.2143L5.14709 9.21001L8.77281 4.69287C8.58852 4.55145 7.20424 3.42859 5.14281 3.42859C3.08138 3.42859 1.6971 4.55145 1.51281 4.69287Z" fill="#191919"/>
</g>
<g clip-path="url(#clip1_0_91)">
<path d="M13.2858 9.00001H21.8573V0.428589" fill="#191919"/>
</g>
<path d="M33 1.71432H31.7143V0.857178H30V1.71432H28.7143V3.42861H33V1.71432Z" fill="#C6C7C8"/>
<path d="M28.7143 3.42859V9.42859H33V3.42859H28.7143Z" fill="#191919"/>
<defs>
<clipPath id="clip0_0_91">
<rect width="10.2667" height="10.2667" fill="white" transform="scale(1.00185)"/>
</clipPath>
<clipPath id="clip1_0_91">
<rect width="10.2667" height="10.2667" fill="white" transform="translate(12.8571) scale(1.00185)"/>
</clipPath>
</defs>
</svg>
