<svg width="16" height="16" viewBox="0 0 16 16" fill="none" xmlns="http://www.w3.org/2000/svg">
<path d="M7.85967 9.47334L5.67968 11.6533C5.43967 11.44 5.20634 11.22 4.97967 10.9933C4.29301 10.3 3.67301 9.57334 3.11967 8.81334C2.57301 8.05334 2.13301 7.29334 1.81301 6.54C1.49301 5.78 1.33301 5.05334 1.33301 4.36C1.33301 3.90667 1.41301 3.47334 1.57301 3.07334C1.73301 2.66667 1.98634 2.29334 2.33967 1.96C2.76634 1.54 3.23301 1.33334 3.72634 1.33334C3.91301 1.33334 4.09967 1.37334 4.26634 1.45334C4.43967 1.53334 4.59301 1.65334 4.71301 1.82667L6.25968 4.00667C6.37967 4.17334 6.46634 4.32667 6.52634 4.47334C6.58634 4.61334 6.61967 4.75334 6.61967 4.88C6.61967 5.04 6.57301 5.2 6.47967 5.35334C6.39301 5.50667 6.26634 5.66667 6.10634 5.82667L5.59967 6.35334C5.52634 6.42667 5.49301 6.51334 5.49301 6.62C5.49301 6.67334 5.49967 6.72 5.51301 6.77334C5.53301 6.82667 5.55301 6.86667 5.56634 6.90667C5.68634 7.12667 5.89301 7.41334 6.18634 7.76C6.48634 8.10667 6.80634 8.46 7.15301 8.81334C7.39301 9.04667 7.62634 9.27334 7.85967 9.47334Z" fill="#C6C7C8"/>
<path d="M14.6471 12.22C14.6471 12.4067 14.6137 12.6 14.5471 12.7867C14.5271 12.84 14.5071 12.8933 14.4804 12.9467C14.3671 13.1867 14.2204 13.4133 14.0271 13.6267C13.7004 13.9867 13.3404 14.2467 12.9337 14.4133C12.9271 14.4133 12.9204 14.42 12.9137 14.42C12.5204 14.58 12.0937 14.6667 11.6337 14.6667C10.9537 14.6667 10.2271 14.5067 9.46039 14.18C8.69372 13.8533 7.92706 13.4133 7.16706 12.86C6.90706 12.6667 6.64706 12.4733 6.40039 12.2667L8.58039 10.0867C8.76706 10.2267 8.93372 10.3333 9.07372 10.4067C9.10706 10.42 9.14706 10.44 9.19372 10.46C9.24706 10.48 9.30039 10.4867 9.36039 10.4867C9.47372 10.4867 9.56039 10.4467 9.63372 10.3733L10.1404 9.87333C10.3071 9.70667 10.4671 9.58 10.6204 9.5C10.7737 9.40667 10.9271 9.36 11.0937 9.36C11.2204 9.36 11.3537 9.38667 11.5004 9.44667C11.6471 9.50667 11.8004 9.59333 11.9671 9.70667L14.1737 11.2733C14.3471 11.3933 14.4671 11.5333 14.5404 11.7C14.6071 11.8667 14.6471 12.0333 14.6471 12.22Z" fill="#4A4B4B"/>
</svg>
