<svg width="120" height="34" viewBox="0 0 120 34" fill="none" xmlns="http://www.w3.org/2000/svg">
<path fill-rule="evenodd" clip-rule="evenodd" d="M12.0539 7.25142C13.3339 9.45338 13.6919 11.941 13.243 14.2617L8.74822 8.60933L11.4288 15.3135C9.19343 14.5548 7.20852 13.0151 5.92853 10.8113C4.38141 8.14742 4.18478 5.06987 5.12529 2.37262C7.93385 2.89018 10.5068 4.58756 12.0539 7.25142Z" fill="#2EC66F"/>
<path fill-rule="evenodd" clip-rule="evenodd" d="M15.3171 19.5913V2.3114C15.3171 1.03512 16.3523 0 17.6285 0C18.9048 0 19.9399 1.03512 19.9399 2.3114V8.55738C19.4725 8.63344 19.0143 8.81524 18.6062 9.11946C17.725 9.77801 17.3837 10.6647 17.0998 11.8891C16.8531 12.9557 17.0145 12.5495 16.6027 13.0986C15.9683 13.9445 17.111 17.0443 18.1498 15.3877C18.3576 15.0575 18.5338 14.5641 18.5839 14.1151C18.6136 13.8406 18.6099 13.5772 18.5208 13.3304C18.326 12.7813 17.7955 12.9483 18.1109 11.3604C18.211 10.8577 18.391 10.5108 18.6303 10.1731C18.8955 9.79841 19.3686 9.50717 19.9399 9.41256C19.9399 12.8055 19.9399 16.1984 19.9399 19.5931L15.3171 19.5913Z" fill="#EA5353"/>
<path fill-rule="evenodd" clip-rule="evenodd" d="M4.81759 11.9095C6.01781 12.7646 6.80064 13.989 7.11786 15.3191L3.40032 13.4139L6.41293 16.3059C5.05318 16.4414 3.63962 16.1019 2.4394 15.2467C0.986891 14.2134 0.148405 12.6385 0 10.9931C1.60462 10.5961 3.36693 10.8762 4.81759 11.9095Z" fill="#2EC66F"/>
<path fill-rule="evenodd" clip-rule="evenodd" d="M30.4394 11.9095C29.2392 12.7646 28.4564 13.989 28.1392 15.3191L31.8567 13.4139L28.8441 16.3059C30.2038 16.4395 31.6155 16.1019 32.8176 15.2467C34.2701 14.2134 35.1086 12.6385 35.257 10.9931C33.6524 10.5961 31.8919 10.8762 30.4394 11.9095Z" fill="#2EC66F"/>
<path fill-rule="evenodd" clip-rule="evenodd" d="M23.2031 7.25142C21.9231 9.45338 21.5651 11.941 22.014 14.2617L26.5088 8.60933L23.8283 15.3135C26.0636 14.5548 28.0485 13.0151 29.3285 10.8113C30.8756 8.14742 31.0723 5.06987 30.1317 2.37262C27.325 2.89018 24.7521 4.58756 23.2031 7.25142Z" fill="#2EC66F"/>
<path fill-rule="evenodd" clip-rule="evenodd" d="M2.14258 16.9088H10.4848C10.7909 17.9829 12.3547 19.4781 13.3341 20.1088C14.3396 20.7562 15.4452 21.1439 16.6566 21.2905C17.124 21.3461 16.9311 21.3164 16.9719 22.5037L18.289 22.6224C18.289 22.2495 18.2333 21.6392 18.328 21.3183C19.9159 21.2422 21.2719 20.5596 22.2829 19.8621C23.0008 19.3649 24.4404 17.9365 24.7687 16.9088H33.1128C32.9829 23.2828 29.3229 27.683 24.5647 29.859H24.7947C25.7704 29.859 26.5588 30.6492 26.5588 31.625C26.5588 32.6008 25.7686 33.3891 24.7947 33.3891H13.6922L21.565 33.3854C20.8972 31.9589 18.4504 31.638 18.2946 31.5415L18.2779 30.3042L16.9701 30.115L16.9626 31.5712C16.152 31.7641 15.7086 31.8012 15.0167 32.1815C14.5269 32.4523 13.8777 32.9402 13.694 33.3873H10.4625C9.48675 33.3873 8.6965 32.597 8.6965 31.6231C8.6965 30.7364 9.34948 30.0037 10.2009 29.8775C5.81188 27.7832 2.46165 23.5295 2.14258 16.9088ZM21.3109 31.3152C20.7989 30.1113 18.9976 29.5974 17.7696 29.4045C15.3636 29.0279 14.5622 27.8666 16.6677 27.4047L16.6918 26.7128C16.2614 26.6775 14.8887 27.0912 14.82 28.0726C14.6661 30.2393 18.84 29.577 20.8286 30.959C20.9992 31.074 21.118 31.1983 21.3109 31.3152ZM16.9682 28.9964L18.2927 29.2412L18.2909 24.214L16.9682 24.073V28.9964ZM18.5895 26.4772L18.5691 27.2285C21.8897 26.9929 22.2588 24.2363 19.4466 23.2271C17.8957 22.6725 15.601 22.9322 14.1337 22.0473C13.2099 21.4927 13.5938 21.027 13.6254 20.6189C13.3731 20.4779 13.0188 20.2127 12.7925 20.1181C12.1803 20.8842 12.4066 22.1735 13.5326 22.8728C15.7049 24.2233 18.5914 23.3885 20.0717 24.598C20.5392 24.9802 20.6338 25.4885 20.1125 25.891C19.5467 26.3269 19.1664 26.2212 18.5895 26.4772Z" fill="#EA5353"/>
<path d="M47.764 28.4084C46.6306 28.4084 45.5862 28.1431 44.6345 27.6107C43.681 27.0783 42.9279 26.3363 42.3732 25.3846C41.8185 24.4311 41.5403 23.3589 41.5403 22.168C41.5403 20.977 41.8185 19.9066 42.3732 18.9587C42.9279 18.0126 43.6829 17.2725 44.6345 16.7401C45.588 16.2077 46.6306 15.9424 47.764 15.9424C48.9104 15.9424 49.9585 16.2077 50.912 16.7401C51.8655 17.2725 52.615 18.0108 53.1659 18.9587C53.715 19.9048 53.9896 20.9752 53.9896 22.168C53.9896 23.3608 53.715 24.433 53.1659 25.3846C52.6168 26.3381 51.8655 27.0801 50.912 27.6107C49.9585 28.1412 48.9104 28.4084 47.764 28.4084ZM47.764 26.672C48.571 26.672 49.2889 26.4884 49.9214 26.1192C50.5522 25.7501 51.0456 25.2251 51.4036 24.5406C51.7598 23.8561 51.9379 23.064 51.9379 22.1642C51.9379 21.2645 51.7598 20.4743 51.4036 19.7972C51.0475 19.1201 50.554 18.5988 49.9214 18.2371C49.2907 17.8754 48.571 17.6936 47.764 17.6936C46.9571 17.6936 46.2391 17.8754 45.6066 18.2371C44.9759 18.5988 44.4824 19.1201 44.1244 19.7972C43.7682 20.4743 43.5901 21.2645 43.5901 22.1642C43.5901 23.064 43.7682 23.8561 44.1244 24.5406C44.4806 25.2251 44.974 25.7501 45.6066 26.1192C46.2391 26.4884 46.9571 26.672 47.764 26.672Z" fill="#0A0909"/>
<path d="M60.2949 18.4671C61.0554 18.4671 61.7362 18.6248 62.3373 18.9401C62.9402 19.2555 63.4095 19.723 63.749 20.3426C64.0885 20.9622 64.2573 21.7097 64.2573 22.5872V28.2859H62.2761V22.8859C62.2761 22.0214 62.059 21.3573 61.6268 20.8954C61.1946 20.4335 60.6047 20.2034 59.8552 20.2034C59.1076 20.2034 58.514 20.4335 58.0762 20.8954C57.6384 21.3573 57.4195 22.0195 57.4195 22.8859V28.2859H55.4216V18.6248H57.4195V19.7285C57.746 19.3316 58.1653 19.0218 58.6735 18.7992C59.18 18.5784 59.7217 18.4671 60.2949 18.4671Z" fill="#0A0909"/>
<path d="M75.1206 23.2179C75.1206 23.5796 75.0965 23.908 75.0501 24.1992H67.6688C67.7282 24.9709 68.0139 25.5905 68.5277 26.058C69.0416 26.5254 69.6741 26.7592 70.4217 26.7592C71.4977 26.7592 72.2564 26.3084 72.7016 25.4087H74.859C74.5659 26.2973 74.0372 27.0244 73.273 27.5921C72.5068 28.1597 71.557 28.4417 70.4236 28.4417C69.4998 28.4417 68.6724 28.2339 67.9434 27.8184C67.2125 27.4029 66.6393 26.8185 66.2256 26.0654C65.8101 25.3122 65.6023 24.4385 65.6023 23.4442C65.6023 22.4499 65.8045 21.5761 66.207 20.823C66.6096 20.0698 67.1772 19.4873 67.9081 19.0792C68.639 18.6693 69.4775 18.4652 70.4236 18.4652C71.3344 18.4652 72.1469 18.6637 72.8611 19.0607C73.5735 19.4577 74.13 20.016 74.527 20.7358C74.9221 21.4556 75.1206 22.2829 75.1206 23.2179ZM73.0355 22.5871C73.0244 21.8507 72.761 21.2608 72.2471 20.8156C71.7333 20.3722 71.0951 20.1496 70.3364 20.1496C69.6463 20.1496 69.0564 20.3685 68.5648 20.8063C68.0732 21.2441 67.782 21.8377 67.6874 22.5853H73.0355V22.5871Z" fill="#0A0909"/>
<path d="M84.2993 28.4084C83.4813 28.4084 82.7448 28.2655 82.09 27.978C81.4351 27.6923 80.9213 27.2861 80.5466 26.7592C80.1718 26.2324 79.9863 25.6202 79.9863 24.919H82.1252C82.1716 25.4458 82.3794 25.8781 82.7485 26.2157C83.1158 26.5552 83.6334 26.724 84.2993 26.724C84.9894 26.724 85.5274 26.557 85.9132 26.225C86.2991 25.8911 86.492 25.4625 86.492 24.9357C86.492 24.5257 86.3714 24.1937 86.1321 23.9358C85.8928 23.678 85.5942 23.4795 85.238 23.3404C84.8818 23.1994 84.3884 23.0473 83.7558 22.884C82.9618 22.6744 82.3144 22.4611 81.8191 22.244C81.322 22.027 80.899 21.6912 80.5484 21.2367C80.1978 20.7804 80.0216 20.1738 80.0216 19.4132C80.0216 18.712 80.1978 18.098 80.5484 17.573C80.899 17.0461 81.3906 16.6436 82.0213 16.3635C82.6521 16.0834 83.3829 15.9424 84.2122 15.9424C85.392 15.9424 86.3603 16.2373 87.1135 16.8272C87.8666 17.4172 88.2859 18.2278 88.3675 19.2555H86.1581C86.1229 18.8122 85.9132 18.4319 85.5274 18.1165C85.1415 17.8012 84.6333 17.6435 84.0025 17.6435C83.4293 17.6435 82.9618 17.79 82.6001 18.0813C82.2384 18.3744 82.0566 18.7936 82.0566 19.3446C82.0566 19.7193 82.1697 20.0254 82.3979 20.2647C82.6261 20.504 82.9155 20.695 83.2661 20.8342C83.6167 20.9752 84.0953 21.1273 84.7037 21.2905C85.5107 21.5131 86.1674 21.7339 86.6757 21.9565C87.184 22.1791 87.6162 22.5204 87.9724 22.9823C88.3285 23.4442 88.5066 24.0601 88.5066 24.8318C88.5066 25.4514 88.3397 26.0358 88.0076 26.5848C87.6737 27.1339 87.1895 27.5755 86.5514 27.9094C85.9151 28.2414 85.1638 28.4084 84.2993 28.4084Z" fill="#0A0909"/>
<path d="M92.6733 20.2554V25.6035C92.6733 25.9653 92.7586 26.2268 92.9274 26.3845C93.0962 26.5422 93.3856 26.622 93.7956 26.622H95.0236V28.2878H93.445C92.5453 28.2878 91.8552 28.0782 91.3766 27.6571C90.898 27.236 90.6568 26.5533 90.6568 25.6054V20.2573H89.5178V18.6267H90.6568V16.2244H92.6733V18.6267H95.0236V20.2573H92.6733V20.2554Z" fill="#0A0909"/>
<path d="M100.522 28.4436C99.6111 28.4436 98.7856 28.2358 98.0492 27.8203C97.3127 27.4048 96.734 26.8204 96.3129 26.0673C95.8918 25.3141 95.6821 24.4404 95.6821 23.4461C95.6821 22.4648 95.8992 21.5929 96.3314 20.8342C96.7636 20.0736 97.3535 19.4892 98.103 19.0811C98.8506 18.6712 99.6872 18.4671 100.611 18.4671C101.535 18.4671 102.37 18.6712 103.119 19.0811C103.869 19.4911 104.457 20.0754 104.891 20.8342C105.323 21.5947 105.54 22.4648 105.54 23.4461C105.54 24.4274 105.317 25.2993 104.874 26.058C104.431 26.8186 103.824 27.4048 103.06 27.8203C102.29 28.2358 101.446 28.4436 100.522 28.4436ZM100.522 26.7073C101.036 26.7073 101.518 26.5848 101.969 26.3381C102.42 26.0932 102.785 25.7241 103.065 25.2344C103.345 24.7428 103.486 24.1473 103.486 23.4461C103.486 22.7449 103.353 22.1512 103.084 21.6671C102.815 21.1811 102.459 20.8175 102.013 20.5707C101.57 20.3259 101.09 20.2034 100.576 20.2034C100.062 20.2034 99.5852 20.3259 99.1474 20.5707C98.7096 20.8156 98.3608 21.1811 98.1048 21.6671C97.847 22.1512 97.719 22.7449 97.719 23.4461C97.719 24.4868 97.9843 25.29 98.5167 25.8577C99.0472 26.4235 99.7169 26.7073 100.522 26.7073Z" fill="#0A0909"/>
<path d="M108.985 20.0439C109.324 19.6005 109.786 19.2258 110.37 18.9216C110.955 18.6173 111.615 18.4652 112.352 18.4652C113.194 18.4652 113.962 18.673 114.657 19.0885C115.353 19.504 115.9 20.0847 116.297 20.8323C116.694 21.5798 116.893 22.4387 116.893 23.4089C116.893 24.3791 116.694 25.2473 116.297 26.0134C115.9 26.7796 115.353 27.3751 114.657 27.8017C113.962 28.2284 113.194 28.4417 112.352 28.4417C111.615 28.4417 110.96 28.2933 110.387 27.9946C109.814 27.696 109.346 27.325 108.985 26.8816V32.879H106.985V18.6247H108.985V20.0439ZM114.858 23.4108C114.858 22.7448 114.72 22.1679 114.446 21.6837C114.171 21.1977 113.81 20.8304 113.359 20.58C112.908 20.3295 112.426 20.2034 111.912 20.2034C111.409 20.2034 110.932 20.3314 110.483 20.5892C110.033 20.8471 109.671 21.22 109.396 21.7116C109.122 22.2032 108.985 22.7819 108.985 23.4479C108.985 24.1139 109.122 24.6963 109.396 25.1916C109.671 25.6888 110.033 26.0654 110.483 26.3232C110.934 26.5811 111.409 26.7091 111.912 26.7091C112.426 26.7091 112.908 26.5774 113.359 26.314C113.81 26.0505 114.171 25.6684 114.446 25.1657C114.72 24.6611 114.858 24.0768 114.858 23.4108Z" fill="#0A0909"/>
<path d="M116.661 15.3506L115.845 13.9333H115.401V15.3506H114.821V11.8056H116.045C116.318 11.8056 116.548 11.8538 116.735 11.9484C116.924 12.043 117.065 12.171 117.158 12.3306C117.251 12.4901 117.299 12.6682 117.299 12.8667C117.299 13.0986 117.232 13.3082 117.097 13.4974C116.963 13.6866 116.756 13.8146 116.477 13.8833L117.355 15.3525H116.661V15.3506ZM115.401 13.4677H116.043C116.26 13.4677 116.425 13.4139 116.535 13.3045C116.644 13.195 116.7 13.0503 116.7 12.8667C116.7 12.683 116.646 12.5402 116.537 12.4363C116.427 12.3324 116.262 12.2805 116.041 12.2805H115.4V13.4677H115.401Z" fill="#2EC66F"/>
<path d="M119.091 13.9277L120 15.3506H119.341L118.735 14.3971L118.163 15.3506H117.557L118.464 13.9686L117.557 12.5402H118.215L118.822 13.4937L119.393 12.5402H120L119.091 13.9277Z" fill="#2EC66F"/>
</svg>
