<svg width="20" height="20" viewBox="0 0 20 20" fill="none" xmlns="http://www.w3.org/2000/svg">
<path d="M1.1228 4.84285C1.12318 3.8565 1.51528 2.91067 2.21287 2.21334C2.91046 1.51601 3.85645 1.12428 4.8428 1.12428H14.7628C15.7489 1.12466 16.6945 1.51656 17.3918 2.21385C18.0891 2.91113 18.481 3.85674 18.4814 4.84285V14.7629C18.4814 15.7492 18.0896 16.6952 17.3923 17.3928C16.695 18.0904 15.7492 18.4825 14.7628 18.4829H4.8428C3.8562 18.4829 2.91 18.0909 2.21237 17.3933C1.51473 16.6957 1.1228 15.7495 1.1228 14.7629V4.84285Z" fill="#F9CBCB"/>
<path d="M15.667 4.79C15.667 5.02964 15.5718 5.25947 15.4024 5.42892C15.2329 5.59837 15.0031 5.69357 14.7634 5.69357C14.5238 5.69357 14.294 5.59837 14.1245 5.42892C13.9551 5.25947 13.8599 5.02964 13.8599 4.79C13.8599 4.55036 13.9551 4.32053 14.1245 4.15108C14.294 3.98163 14.5238 3.88643 14.7634 3.88643C15.0031 3.88643 15.2329 3.98163 15.4024 4.15108C15.5718 4.32053 15.667 4.55036 15.667 4.79Z" fill="#EA5353"/>
<path fill-rule="evenodd" clip-rule="evenodd" d="M14.7614 5.92C15.0456 5.92 15.3181 5.80712 15.519 5.60619C15.7199 5.40526 15.8328 5.13273 15.8328 4.84857C15.8328 4.56441 15.7199 4.29189 15.519 4.09096C15.3181 3.89003 15.0456 3.77715 14.7614 3.77715C14.4772 3.77715 14.2047 3.89003 14.0038 4.09096C13.8029 4.29189 13.69 4.56441 13.69 4.84857C13.69 5.13273 13.8029 5.40526 14.0038 5.60619C14.2047 5.80712 14.4772 5.92 14.7614 5.92ZM5.40283 9.80286C5.40283 8.63591 5.8664 7.51675 6.69156 6.69159C7.51672 5.86643 8.63588 5.40286 9.80283 5.40286C10.9698 5.40286 12.0889 5.86643 12.9141 6.69159C13.7393 7.51675 14.2028 8.63591 14.2028 9.80286C14.2028 10.9698 13.7393 12.089 12.9141 12.9141C12.0889 13.7393 10.9698 14.2029 9.80283 14.2029C8.63588 14.2029 7.51672 13.7393 6.69156 12.9141C5.8664 12.089 5.40283 10.9698 5.40283 9.80286Z" fill="#EA5353"/>
</svg>
