<svg width="73" height="35" viewBox="0 0 73 35" fill="none" xmlns="http://www.w3.org/2000/svg">
<path d="M2.38451 2.76655C2.31582 3.00206 2.08522 3.33079 1.80065 3.65952C1.65837 3.82144 1.50136 3.97844 1.33454 4.09129C1.08431 4.26792 0.789927 4.3268 0.623109 4.35133C0.41704 4.38077 0 0.0238696 0 0.0238696L0.0441559 0.0189733C0.431763 -0.0448101 1.39833 0.0140549 1.992 0.803988C2.24223 1.14253 2.38942 1.47127 2.4483 1.80981C2.50227 2.11401 2.48264 2.43292 2.38451 2.76655ZM72.8455 31.8665C72.3402 30.7773 71.3294 30.5565 70.9664 30.5221V34.8938C71.5306 34.8349 72.3696 34.4571 72.718 33.8536C72.8897 33.4856 72.9829 33.1422 72.9976 32.8036C73.0123 32.4896 72.9633 32.1854 72.8455 31.8665Z" fill="#858585"/>
</svg>
