<svg width="74" height="21" viewBox="0 0 74 21" fill="none" xmlns="http://www.w3.org/2000/svg">
<path fill-rule="evenodd" clip-rule="evenodd" d="M7.43336 4.47172C8.22269 5.82959 8.44347 7.36363 8.16663 8.79472L5.39484 5.3091L7.04785 9.44334C5.66939 8.97546 4.44536 8.02598 3.65603 6.66697C2.70198 5.02425 2.58072 3.12644 3.1607 1.46313C4.89264 1.78229 6.4793 2.82901 7.43336 4.47172Z" fill="#2EC66F"/>
<path fill-rule="evenodd" clip-rule="evenodd" d="M9.44567 12.0813V1.42536C9.44567 0.638326 10.084 0 10.871 0C11.6581 0 12.2964 0.638326 12.2964 1.42536V5.27705C12.0081 5.32395 11.7256 5.43606 11.4739 5.62366C10.9305 6.02977 10.72 6.57658 10.545 7.33158C10.3929 7.98935 10.4924 7.73883 10.2384 8.07744C9.84719 8.59908 10.5519 10.5106 11.1925 9.48908C11.3206 9.28545 11.4293 8.98116 11.4602 8.70432C11.4785 8.53502 11.4762 8.37258 11.4213 8.22043C11.3012 7.88182 10.974 7.98478 11.1685 7.00556C11.2302 6.69555 11.3412 6.48163 11.4888 6.27343C11.6523 6.04235 11.9441 5.86275 12.2964 5.80441C12.2964 7.8967 12.2964 9.98898 12.2964 12.0824L9.44567 12.0813Z" fill="#EA5353"/>
<path fill-rule="evenodd" clip-rule="evenodd" d="M2.97084 7.34414C3.71098 7.8715 4.19373 8.62651 4.38934 9.44672L2.09686 8.27188L3.95464 10.0553C3.11612 10.1388 2.24443 9.92947 1.5043 9.40211C0.608582 8.76493 0.0915161 7.79371 0 6.77903C0.989518 6.53422 2.07627 6.70696 2.97084 7.34414Z" fill="#2EC66F"/>
<path fill-rule="evenodd" clip-rule="evenodd" d="M18.7709 7.34414C18.0308 7.8715 17.548 8.62651 17.3524 9.44672L19.6449 8.27188L17.7871 10.0553C18.6257 10.1377 19.4962 9.92947 20.2375 9.40211C21.1332 8.76493 21.6503 7.79371 21.7418 6.77903C20.7523 6.53422 19.6666 6.70696 18.7709 7.34414Z" fill="#2EC66F"/>
<path fill-rule="evenodd" clip-rule="evenodd" d="M14.3087 4.47172C13.5193 5.82959 13.2985 7.36363 13.5754 8.79472L16.3472 5.3091L14.6942 9.44334C16.0726 8.97546 17.2967 8.02598 18.086 6.66697C19.04 5.02425 19.1613 3.12644 18.5813 1.46313C16.8505 1.78229 15.2639 2.82901 14.3087 4.47172Z" fill="#2EC66F"/>
<path fill-rule="evenodd" clip-rule="evenodd" d="M1.32126 10.4271H6.46561C6.65436 11.0895 7.61871 12.0115 8.22272 12.4004C8.84274 12.7997 9.52454 13.0388 10.2715 13.1291C10.5598 13.1635 10.4408 13.1452 10.466 13.8773L11.2782 13.9505C11.2782 13.7206 11.2439 13.3442 11.3022 13.1463C12.2815 13.0994 13.1177 12.6784 13.7411 12.2483C14.1839 11.9417 15.0716 11.0609 15.274 10.4271H20.4195C20.3395 14.3577 18.0824 17.0712 15.1482 18.4131H15.2901C15.8918 18.4131 16.3779 18.9004 16.3779 19.5021C16.3779 20.1038 15.8906 20.59 15.2901 20.59H8.4435L13.2984 20.5877C12.8866 19.708 11.3777 19.5101 11.2816 19.4506L11.2714 18.6876L10.4649 18.5709L10.4603 19.4689C9.96038 19.5879 9.68698 19.6108 9.26028 19.8453C8.95828 20.0123 8.5579 20.3132 8.44465 20.5888H6.45188C5.85017 20.5888 5.36284 20.1015 5.36284 19.5009C5.36284 18.9541 5.76551 18.5023 6.29059 18.4245C3.584 17.133 1.51802 14.5099 1.32126 10.4271ZM13.1417 19.3111C12.826 18.5686 11.7152 18.2518 10.9579 18.1328C9.4742 17.9006 8.98002 17.1845 10.2784 16.8996L10.2933 16.4729C10.0279 16.4512 9.18135 16.7063 9.13903 17.3114C9.04408 18.6476 11.618 18.2392 12.8443 19.0914C12.9495 19.1623 13.0227 19.239 13.1417 19.3111ZM10.4637 17.8811L11.2805 18.0321L11.2794 14.932L10.4637 14.8451V17.8811ZM11.4635 16.3276L11.451 16.7909C13.4986 16.6456 13.7263 14.9457 11.992 14.3234C11.0357 13.9814 9.62063 14.1415 8.71576 13.5959C8.14608 13.2538 8.38287 12.9667 8.40232 12.715C8.24674 12.6281 8.02825 12.4645 7.88869 12.4062C7.51118 12.8786 7.65074 13.6737 8.34512 14.1049C9.68469 14.9377 11.4647 14.423 12.3776 15.1688C12.6658 15.4045 12.7242 15.7179 12.4027 15.9661C12.0538 16.235 11.8193 16.1698 11.4635 16.3276Z" fill="#EA5353"/>
<path d="M29.4546 17.5185C28.7556 17.5185 28.1116 17.3549 27.5247 17.0266C26.9368 16.6983 26.4723 16.2407 26.1303 15.6538C25.7882 15.0658 25.6166 14.4046 25.6166 13.6702C25.6166 12.9358 25.7882 12.2758 26.1303 11.6912C26.4723 11.1078 26.9379 10.6513 27.5247 10.323C28.1127 9.99471 28.7556 9.83113 29.4546 9.83113C30.1615 9.83113 30.8079 9.99471 31.3959 10.323C31.9839 10.6513 32.446 11.1066 32.7858 11.6912C33.1244 12.2746 33.2937 12.9347 33.2937 13.6702C33.2937 14.4058 33.1244 15.067 32.7858 15.6538C32.4472 16.2418 31.9839 16.6994 31.3959 17.0266C30.8079 17.3538 30.1615 17.5185 29.4546 17.5185ZM29.4546 16.4477C29.9522 16.4477 30.3949 16.3345 30.785 16.1068C31.1739 15.8792 31.4782 15.5555 31.699 15.1333C31.9187 14.7112 32.0285 14.2228 32.0285 13.6679C32.0285 13.1131 31.9187 12.6258 31.699 12.2083C31.4794 11.7907 31.1751 11.4693 30.785 11.2462C30.3961 11.0231 29.9522 10.911 29.4546 10.911C28.957 10.911 28.5143 11.0231 28.1242 11.2462C27.7352 11.4693 27.4309 11.7907 27.2102 12.2083C26.9905 12.6258 26.8807 13.1131 26.8807 13.6679C26.8807 14.2228 26.9905 14.7112 27.2102 15.1333C27.4298 15.5555 27.7341 15.8792 28.1242 16.1068C28.5143 16.3345 28.957 16.4477 29.4546 16.4477Z" fill="#0A0909"/>
<path d="M37.1817 11.3881C37.6507 11.3881 38.0706 11.4853 38.4412 11.6798C38.813 11.8743 39.1024 12.1625 39.3118 12.5446C39.5211 12.9267 39.6252 13.3877 39.6252 13.9288V17.443H38.4035V14.113C38.4035 13.5799 38.2696 13.1704 38.0031 12.8855C37.7365 12.6007 37.3728 12.4588 36.9106 12.4588C36.4496 12.4588 36.0835 12.6007 35.8136 12.8855C35.5436 13.1704 35.4086 13.5788 35.4086 14.113V17.443H34.1766V11.4853H35.4086V12.166C35.6099 11.9212 35.8685 11.7301 36.1819 11.5929C36.4942 11.4567 36.8282 11.3881 37.1817 11.3881Z" fill="#0A0909"/>
<path d="M46.3242 14.3177C46.3242 14.5408 46.3093 14.7433 46.2807 14.9229H41.7289C41.7655 15.3988 41.9417 15.7808 42.2586 16.0691C42.5755 16.3574 42.9655 16.5015 43.4266 16.5015C44.09 16.5015 44.5579 16.2235 44.8325 15.6687H46.1629C45.9821 16.2167 45.6561 16.6651 45.1848 17.0152C44.7124 17.3652 44.1267 17.5391 43.4277 17.5391C42.858 17.5391 42.3478 17.411 41.8982 17.1547C41.4475 16.8985 41.094 16.5381 40.8389 16.0737C40.5827 15.6092 40.4546 15.0704 40.4546 14.4573C40.4546 13.8441 40.5793 13.3053 40.8275 12.8409C41.0757 12.3764 41.4258 12.0172 41.8765 11.7656C42.3272 11.5128 42.8443 11.3869 43.4277 11.3869C43.9894 11.3869 44.4904 11.5093 44.9309 11.7541C45.3701 11.9989 45.7133 12.3433 45.9581 12.7871C46.2018 13.231 46.3242 13.7412 46.3242 14.3177ZM45.0384 13.9288C45.0315 13.4746 44.8691 13.1109 44.5522 12.8363C44.2353 12.5629 43.8418 12.4256 43.3739 12.4256C42.9484 12.4256 42.5846 12.5606 42.2815 12.8306C41.9783 13.1006 41.7987 13.4666 41.7404 13.9276H45.0384V13.9288Z" fill="#0A0909"/>
<path d="M51.9846 17.5185C51.4801 17.5185 51.026 17.4304 50.6222 17.2531C50.2184 17.0769 49.9015 16.8264 49.6704 16.5015C49.4393 16.1766 49.3249 15.7991 49.3249 15.3667H50.6439C50.6725 15.6916 50.8006 15.9581 51.0283 16.1663C51.2548 16.3757 51.5739 16.4798 51.9846 16.4798C52.4102 16.4798 52.7419 16.3768 52.9799 16.172C53.2178 15.9661 53.3368 15.7019 53.3368 15.377C53.3368 15.1242 53.2624 14.9194 53.1148 14.7604C52.9673 14.6014 52.7831 14.479 52.5635 14.3932C52.3438 14.3063 52.0395 14.2125 51.6494 14.1118C51.1598 13.9825 50.7606 13.851 50.4552 13.7171C50.1486 13.5833 49.8878 13.3762 49.6715 13.096C49.4553 12.8146 49.3467 12.4405 49.3467 11.9715C49.3467 11.539 49.4553 11.1604 49.6715 10.8367C49.8878 10.5118 50.1909 10.2635 50.5798 10.0908C50.9688 9.91807 51.4195 9.83113 51.9309 9.83113C52.6584 9.83113 53.2555 10.013 53.72 10.3768C54.1844 10.7406 54.443 11.2405 54.4933 11.8742H53.1309C53.1091 11.6008 52.9799 11.3663 52.7419 11.1718C52.504 10.9774 52.1905 10.8801 51.8016 10.8801C51.4481 10.8801 51.1598 10.9705 50.9368 11.1501C50.7137 11.3308 50.6016 11.5894 50.6016 11.9291C50.6016 12.1602 50.6714 12.349 50.8121 12.4965C50.9528 12.6441 51.1312 12.7619 51.3474 12.8477C51.5636 12.9347 51.8588 13.0285 52.234 13.1291C52.7316 13.2664 53.1366 13.4025 53.45 13.5398C53.7635 13.6771 54.03 13.8876 54.2496 14.1724C54.4693 14.4573 54.5791 14.8371 54.5791 15.3129C54.5791 15.695 54.4761 16.0554 54.2714 16.394C54.0655 16.7326 53.7669 17.0048 53.3734 17.2108C52.981 17.4155 52.5177 17.5185 51.9846 17.5185Z" fill="#0A0909"/>
<path d="M57.1483 12.4908V15.7888C57.1483 16.0119 57.2009 16.1732 57.305 16.2704C57.4091 16.3677 57.5876 16.4169 57.8404 16.4169H58.5977V17.4441H57.6242C57.0694 17.4441 56.6438 17.3149 56.3487 17.0552C56.0535 16.7955 55.9048 16.3745 55.9048 15.79V12.492H55.2024V11.4864H55.9048V10.005H57.1483V11.4864H58.5977V12.492H57.1483V12.4908Z" fill="#0A0909"/>
<path d="M61.9885 17.5403C61.4268 17.5403 60.9177 17.4121 60.4636 17.1559C60.0094 16.8996 59.6525 16.5393 59.3928 16.0749C59.1332 15.6104 59.0039 15.0716 59.0039 14.4585C59.0039 13.8533 59.1377 13.3156 59.4043 12.8478C59.6708 12.3787 60.0346 12.0184 60.4968 11.7667C60.9578 11.5139 61.4737 11.3881 62.0434 11.3881C62.6131 11.3881 63.1279 11.5139 63.59 11.7667C64.0522 12.0195 64.4148 12.3799 64.6825 12.8478C64.949 13.3168 65.0829 13.8533 65.0829 14.4585C65.0829 15.0636 64.9456 15.6013 64.6722 16.0691C64.3988 16.5382 64.0247 16.8996 63.5534 17.1559C63.0787 17.4121 62.5582 17.5403 61.9885 17.5403ZM61.9885 16.4695C62.3054 16.4695 62.6028 16.394 62.8808 16.2419C63.1587 16.0909 63.3841 15.8632 63.5568 15.5612C63.7296 15.2581 63.8165 14.8909 63.8165 14.4585C63.8165 14.026 63.7341 13.66 63.5683 13.3614C63.4024 13.0617 63.1828 12.8375 62.9082 12.6853C62.6348 12.5343 62.3385 12.4588 62.0216 12.4588C61.7048 12.4588 61.4108 12.5343 61.1408 12.6853C60.8708 12.8363 60.6558 13.0617 60.4979 13.3614C60.3389 13.66 60.26 14.026 60.26 14.4585C60.26 15.1002 60.4236 15.5955 60.7519 15.9456C61.079 16.2945 61.492 16.4695 61.9885 16.4695Z" fill="#0A0909"/>
<path d="M67.2072 12.3604C67.4165 12.087 67.7014 11.8559 68.0617 11.6683C68.4221 11.4807 68.8293 11.3869 69.2835 11.3869C69.8028 11.3869 70.2764 11.515 70.7054 11.7713C71.1344 12.0275 71.4718 12.3856 71.7166 12.8466C71.9614 13.3076 72.0839 13.8373 72.0839 14.4356C72.0839 15.0338 71.9614 15.5692 71.7166 16.0417C71.4718 16.5141 71.1344 16.8813 70.7054 17.1444C70.2764 17.4075 69.8028 17.5391 69.2835 17.5391C68.8293 17.5391 68.4255 17.4476 68.072 17.2634C67.7185 17.0792 67.4303 16.8504 67.2072 16.577V20.2754H65.974V11.4853H67.2072V12.3604ZM70.8289 14.4367C70.8289 14.026 70.7443 13.6702 70.575 13.3717C70.4057 13.072 70.1826 12.8455 69.9046 12.691C69.6266 12.5366 69.3292 12.4588 69.0123 12.4588C68.7023 12.4588 68.4083 12.5377 68.1315 12.6967C67.8535 12.8558 67.6305 13.0857 67.4611 13.3888C67.2918 13.692 67.2072 14.0489 67.2072 14.4596C67.2072 14.8703 67.2918 15.2295 67.4611 15.5349C67.6305 15.8415 67.8535 16.0737 68.1315 16.2327C68.4095 16.3917 68.7023 16.4706 69.0123 16.4706C69.3292 16.4706 69.6266 16.3894 69.9046 16.227C70.1826 16.0645 70.4057 15.8289 70.575 15.5189C70.7443 15.2077 70.8289 14.8474 70.8289 14.4367Z" fill="#0A0909"/>
<path d="M71.941 9.46619L71.4376 8.59221H71.1642V9.46619H70.8062V7.2801H71.5612C71.7293 7.2801 71.8712 7.30984 71.9867 7.36819C72.1034 7.42653 72.1903 7.50546 72.2475 7.60384C72.3047 7.70222 72.3345 7.81204 72.3345 7.93444C72.3345 8.07743 72.2933 8.2067 72.2098 8.32339C72.1274 8.44007 71.9993 8.519 71.8277 8.56133L72.3688 9.46734H71.941V9.46619ZM71.1642 8.30508H71.56C71.6939 8.30508 71.7957 8.27191 71.8632 8.20441C71.9307 8.13692 71.965 8.04769 71.965 7.93444C71.965 7.82119 71.9318 7.73311 71.8643 7.66904C71.7968 7.60498 71.695 7.57295 71.5589 7.57295H71.1631V8.30508H71.1642Z" fill="#2EC66F"/>
<path d="M73.4395 8.5888L74 9.46622H73.5939L73.2198 8.87822L72.8675 9.46622H72.4934L73.0528 8.61397L72.4934 7.73313H72.8995L73.2736 8.32112L73.6259 7.73313H74L73.4395 8.5888Z" fill="#2EC66F"/>
</svg>
