<svg width="16" height="16" viewBox="0 0 16 16" fill="none" xmlns="http://www.w3.org/2000/svg">
<path d="M10.6668 1.33334H5.3335C2.66683 1.33334 1.3335 2.66667 1.3335 5.33334V14C1.3335 14.3667 1.6335 14.6667 2.00016 14.6667H10.6668C13.3335 14.6667 14.6668 13.3333 14.6668 10.6667V5.33334C14.6668 2.66667 13.3335 1.33334 10.6668 1.33334Z" fill="#C6C7C8"/>
<path d="M11.3332 5.83334H4.6665C4.39317 5.83334 4.1665 6.06 4.1665 6.33334C4.1665 6.60667 4.39317 6.83334 4.6665 6.83334H11.3332C11.6065 6.83334 11.8332 6.60667 11.8332 6.33334C11.8332 6.06 11.6065 5.83334 11.3332 5.83334Z" fill="#4A4B4B"/>
<path d="M9.33317 9.16667H4.6665C4.39317 9.16667 4.1665 9.39334 4.1665 9.66667C4.1665 9.94001 4.39317 10.1667 4.6665 10.1667H9.33317C9.6065 10.1667 9.83317 9.94001 9.83317 9.66667C9.83317 9.39334 9.6065 9.16667 9.33317 9.16667Z" fill="#4A4B4B"/>
</svg>
