<svg width="96" height="26" viewBox="0 0 96 26" fill="none" xmlns="http://www.w3.org/2000/svg">
<path d="M19.9333 11.8105C19.9333 7.92921 16.7871 4.783 12.9058 4.783C9.02454 4.783 5.87834 7.92921 5.87834 11.8105C5.87834 15.6918 9.02454 18.838 12.9058 18.838C16.7871 18.838 19.9333 15.6918 19.9333 11.8105Z" fill="url(#paint0_radial_441_3158)"/>
<path d="M18.1301 7.1108C15.5328 4.22433 11.0928 3.99401 8.20632 6.58644C5.31985 9.18377 5.08952 13.6237 7.68195 16.5102C10.2793 19.3918 14.7193 19.627 17.6057 17.0346C20.4922 14.4372 20.7274 9.99727 18.1301 7.1108Z" fill="url(#paint1_linear_441_3158)"/>
<path d="M7.5589 0H20.8053C21.2414 0.186224 20.9915 1.05853 20.8053 1.30846C20.6191 1.55839 17.4484 10.4481 16.7623 12.5652C16.0762 14.6774 13.964 15.4272 12.2831 15.2998C10.6022 15.1772 8.61253 13.3738 9.11239 11.5067C9.61226 9.63953 10.6071 4.29294 7.5589 1.43098C6.93652 0.994819 7.00022 0 7.5589 0Z" fill="#F07D74"/>
<path d="M7.92605 0H20.4227C20.8343 0.181323 20.5991 1.03893 20.4227 1.28396C20.2462 1.52899 17.2519 10.2668 16.61 12.3447C15.9631 14.4226 13.9685 15.1576 12.3856 15.0351C10.8027 14.9126 8.92578 13.1386 9.39134 11.3057C9.8618 9.4729 10.7978 4.21944 7.92605 1.40648C7.33797 0.975223 7.39678 0 7.92605 0Z" fill="#FF4E3F"/>
<path d="M7.5589 0H20.8053C21.2414 0.186224 20.9915 1.05853 20.8053 1.30846C20.6191 1.55839 17.4484 10.4481 16.7623 12.5652C16.0762 14.6774 13.964 15.4272 12.2831 15.2998C10.6022 15.1772 8.61253 13.3738 9.11239 11.5067C9.61226 9.63953 10.6071 4.29294 7.5589 1.43098C6.93652 0.994819 7.00022 0 7.5589 0Z" fill="url(#paint2_linear_441_3158)"/>
<path d="M7.5589 0H20.8053C21.2414 0.186224 20.9915 1.05853 20.8053 1.30846C20.6191 1.55839 17.4484 10.4481 16.7623 12.5652C16.0762 14.6774 13.964 15.4272 12.2831 15.2998C10.6022 15.1772 8.61253 13.3738 9.11239 11.5067C9.61226 9.63953 10.6071 4.29294 7.5589 1.43098C6.93652 0.994819 7.00022 0 7.5589 0Z" fill="url(#paint3_linear_441_3158)"/>
<path d="M14.9589 11.8105C14.9589 10.6785 14.0425 9.75715 12.9055 9.75715C11.7735 9.75715 10.8522 10.6785 10.8522 11.8105C10.8522 12.9425 11.7686 13.8639 12.9055 13.8639C14.0376 13.8639 14.9589 12.9475 14.9589 11.8105Z" fill="#D9D9D9"/>
<path d="M14.7823 11.8105C14.7823 10.7765 13.9442 9.93357 12.9053 9.93357C11.8713 9.93357 11.0284 10.7716 11.0284 11.8105C11.0284 12.8494 11.8664 13.6875 12.9053 13.6875C13.9442 13.6875 14.7823 12.8494 14.7823 11.8105Z" fill="#9F9F9F"/>
<path d="M14.5864 10.8598C14.0571 9.93359 12.881 9.61014 11.9548 10.1345C11.0285 10.6638 10.7051 11.8399 11.2295 12.7661C11.7587 13.6924 12.9349 14.0158 13.8611 13.4914C14.7873 12.9622 15.1108 11.786 14.5864 10.8598Z" fill="url(#paint4_linear_441_3158)"/>
<path d="M14.2332 11.8105C14.2332 11.0803 13.6402 10.4824 12.9051 10.4824C12.17 10.4824 11.5771 11.0754 11.5771 11.8105C11.5771 12.5456 12.17 13.1386 12.9051 13.1386C13.6402 13.1386 14.2332 12.5456 14.2332 11.8105Z" fill="#727272"/>
<path d="M13.9054 11.8105C13.9054 11.2616 13.4595 10.8108 12.9057 10.8108C12.3568 10.8108 11.906 11.2567 11.906 11.8105C11.906 12.3643 12.3519 12.8102 12.9057 12.8102C13.4595 12.8102 13.9054 12.3643 13.9054 11.8105Z" fill="#DBDBDB"/>
<path d="M13.9054 11.8105C13.9054 11.2616 13.4595 10.8108 12.9057 10.8108C12.3568 10.8108 11.906 11.2567 11.906 11.8105C11.906 12.3643 12.3519 12.8102 12.9057 12.8102C13.4595 12.8102 13.9054 12.3643 13.9054 11.8105Z" fill="url(#paint5_linear_441_3158)"/>
<path d="M15.3507 17.804C15.3507 13.5649 11.9154 10.1296 7.67634 10.1296C3.4373 10.1296 0.00195782 13.5649 0.00195782 17.804C0.00195782 22.043 3.4373 25.4784 7.67634 25.4784C11.9154 25.4833 15.3507 22.043 15.3507 17.804Z" fill="url(#paint6_radial_441_3158)"/>
<path d="M13.3807 12.673C10.5433 9.52191 5.69165 9.26708 2.54055 12.1045C-0.610554 14.942 -0.865382 19.7936 1.97208 22.9447C4.80955 26.0958 9.66117 26.3507 12.8123 23.5181C15.9634 20.6757 16.2182 15.8192 13.3807 12.673Z" fill="url(#paint7_linear_441_3158)"/>
<path d="M1.83493 4.90063H16.3065C16.7818 5.10646 16.5123 6.05718 16.3065 6.32672C16.1007 6.59625 12.6359 16.3142 11.891 18.6224C11.1461 20.9306 8.83302 21.749 7.00019 21.6118C5.16735 21.4745 2.99147 19.5045 3.53544 17.4658C4.07941 15.4272 5.16735 9.58563 1.83493 6.45903C1.15374 5.98367 1.22235 4.90063 1.83493 4.90063Z" fill="#D6635A"/>
<path d="M2.23707 4.90063H15.8902C16.3411 5.10155 16.0813 6.03756 15.8902 6.3022C15.6991 6.56683 12.4304 16.1133 11.7247 18.3822C11.019 20.6512 8.83822 21.455 7.1083 21.3177C5.37838 21.1854 3.32501 19.2497 3.83958 17.2453C4.35415 15.241 5.37838 9.50231 2.23707 6.42962C1.59509 5.96896 1.6588 4.90063 2.23707 4.90063Z" fill="#E63425"/>
<path d="M1.83493 4.90063H16.3065C16.7818 5.10646 16.5123 6.05718 16.3065 6.32672C16.1007 6.59625 12.6359 16.3142 11.891 18.6224C11.1461 20.9306 8.83302 21.749 7.00019 21.6118C5.16735 21.4745 2.99147 19.5045 3.53544 17.4658C4.07941 15.4272 5.16735 9.58563 1.83493 6.45903C1.15374 5.98367 1.22235 4.90063 1.83493 4.90063Z" fill="url(#paint8_linear_441_3158)"/>
<path d="M1.83493 4.90063H16.3065C16.7818 5.10646 16.5123 6.05718 16.3065 6.32672C16.1007 6.59625 12.6359 16.3142 11.891 18.6224C11.1461 20.9306 8.83302 21.749 7.00019 21.6118C5.16735 21.4745 2.99147 19.5045 3.53544 17.4658C4.07941 15.4272 5.16735 9.58563 1.83493 6.45903C1.15374 5.98367 1.22235 4.90063 1.83493 4.90063Z" fill="url(#paint9_linear_441_3158)"/>
<path d="M9.91652 17.804C9.91652 16.5642 8.91189 15.5644 7.67693 15.5644C6.43707 15.5644 5.43734 16.5691 5.43734 17.804C5.43734 19.0439 6.44197 20.0485 7.67693 20.0485C8.91189 20.0485 9.91652 19.0439 9.91652 17.804Z" fill="#BFBFBF"/>
<path d="M9.72516 17.804C9.72516 16.672 8.80874 15.7556 7.6767 15.7556C6.54465 15.7556 5.62823 16.672 5.62823 17.804C5.62823 18.9361 6.54465 19.8525 7.6767 19.8525C8.80874 19.8574 9.72516 18.9361 9.72516 17.804Z" fill="#858585"/>
<path d="M9.51025 16.7651C8.93688 15.7507 7.64801 15.3978 6.63358 15.9761C5.61915 16.5544 5.26631 17.8383 5.84458 18.8528C6.41796 19.8672 7.70682 20.22 8.72125 19.6418C9.73078 19.0635 10.0836 17.7746 9.51025 16.7651Z" fill="url(#paint10_linear_441_3158)"/>
<path d="M9.12751 17.804C9.12751 17.0052 8.48063 16.3535 7.67693 16.3535C6.87813 16.3535 6.22634 17.0003 6.22634 17.804C6.22634 18.6028 6.87323 19.2546 7.67693 19.2546C8.47573 19.2546 9.12751 18.6077 9.12751 17.804Z" fill="#585858"/>
<path d="M8.76492 17.804C8.76492 17.2013 8.27485 16.7161 7.67207 16.7161C7.0693 16.7161 6.58413 17.2062 6.58413 17.804C6.58413 18.4068 7.0742 18.892 7.67207 18.892C8.27975 18.8969 8.76492 18.4068 8.76492 17.804Z" fill="#C1C1C1"/>
<path d="M8.76492 17.804C8.76492 17.2013 8.27485 16.7161 7.67207 16.7161C7.0693 16.7161 6.58413 17.2062 6.58413 17.804C6.58413 18.4068 7.0742 18.892 7.67207 18.892C8.27975 18.8969 8.76492 18.4068 8.76492 17.804Z" fill="url(#paint11_linear_441_3158)"/>
<path d="M76.0645 11.8105C76.0645 7.92921 79.2107 4.783 83.092 4.783C86.9733 4.783 90.1195 7.92921 90.1195 11.8105C90.1195 15.6918 86.9733 18.838 83.092 18.838C79.2107 18.838 76.0645 15.6918 76.0645 11.8105Z" fill="url(#paint12_radial_441_3158)"/>
<path d="M77.8682 7.11078C80.4606 4.22431 84.9055 3.99399 87.7919 6.58643C90.6784 9.18376 90.9087 13.6237 88.3163 16.5102C85.719 19.3918 81.279 19.627 78.3925 17.0346C75.5061 14.4372 75.2708 9.99725 77.8682 7.11078Z" fill="url(#paint13_linear_441_3158)"/>
<path d="M88.4386 0H75.1922C74.7561 0.186224 75.006 1.05853 75.1922 1.30846C75.3784 1.55839 78.5491 10.4481 79.2352 12.5652C79.9213 14.6774 82.0335 15.4272 83.7144 15.2998C85.3953 15.1772 87.385 13.3738 86.8851 11.5067C86.3902 9.63953 85.3953 4.29294 88.4386 1.43098C89.061 0.994819 88.9973 0 88.4386 0Z" fill="#F07D74"/>
<path d="M88.0714 0H75.5748C75.1631 0.181323 75.3984 1.03893 75.5748 1.28396C75.7512 1.52899 78.7406 10.2668 79.3875 12.3447C80.0343 14.4226 82.0289 15.1576 83.6118 15.0351C85.1947 14.9126 87.0717 13.1386 86.6061 11.3057C86.1356 9.4729 85.1996 4.21944 88.0714 1.40648C88.6595 0.975223 88.6006 0 88.0714 0Z" fill="#FF4E3F"/>
<path d="M88.4386 0H75.1922C74.7561 0.186224 75.006 1.05853 75.1922 1.30846C75.3784 1.55839 78.5491 10.4481 79.2352 12.5652C79.9213 14.6774 82.0335 15.4272 83.7144 15.2998C85.3953 15.1772 87.385 13.3738 86.8851 11.5067C86.3902 9.63953 85.3953 4.29294 88.4386 1.43098C89.061 0.994819 88.9973 0 88.4386 0Z" fill="url(#paint14_linear_441_3158)"/>
<path d="M88.4386 0H75.1922C74.7561 0.186224 75.006 1.05853 75.1922 1.30846C75.3784 1.55839 78.5491 10.4481 79.2352 12.5652C79.9213 14.6774 82.0335 15.4272 83.7144 15.2998C85.3953 15.1772 87.385 13.3738 86.8851 11.5067C86.3902 9.63953 85.3953 4.29294 88.4386 1.43098C89.061 0.994819 88.9973 0 88.4386 0Z" fill="url(#paint15_linear_441_3158)"/>
<path d="M81.0394 11.8105C81.0394 10.6785 81.9558 9.75716 83.0927 9.75716C84.2248 9.75716 85.1461 10.6785 85.1461 11.8105C85.1461 12.9426 84.2297 13.8639 83.0927 13.8639C81.9558 13.8639 81.0394 12.9475 81.0394 11.8105Z" fill="#D9D9D9"/>
<path d="M81.2156 11.8105C81.2156 10.7765 82.0536 9.93357 83.0925 9.93357C84.1265 9.93357 84.9694 10.7716 84.9694 11.8105C84.9694 12.8494 84.1314 13.6875 83.0925 13.6875C82.0536 13.6875 81.2156 12.8494 81.2156 11.8105Z" fill="#9F9F9F"/>
<path d="M81.4118 10.8598C81.941 9.9336 83.1172 9.61015 84.0434 10.1345C84.9696 10.6638 85.2931 11.8399 84.7687 12.7662C84.2394 13.6924 83.0633 14.0158 82.1371 13.4915C81.2108 12.9622 80.8874 11.786 81.4118 10.8598Z" fill="url(#paint16_linear_441_3158)"/>
<path d="M81.7647 11.8105C81.7647 11.0803 82.3577 10.4824 83.0928 10.4824C83.8279 10.4824 84.4209 11.0754 84.4209 11.8105C84.4209 12.5456 83.8279 13.1386 83.0928 13.1386C82.3577 13.1386 81.7647 12.5456 81.7647 11.8105Z" fill="#727272"/>
<path d="M82.0931 11.8105C82.0931 11.2616 82.5391 10.8108 83.0929 10.8108C83.6417 10.8108 84.0926 11.2567 84.0926 11.8105C84.0926 12.3643 83.6466 12.8102 83.0929 12.8102C82.5391 12.8102 82.0931 12.3643 82.0931 11.8105Z" fill="#DBDBDB"/>
<path d="M82.0931 11.8105C82.0931 11.2616 82.5391 10.8108 83.0929 10.8108C83.6417 10.8108 84.0926 11.2567 84.0926 11.8105C84.0926 12.3643 83.6466 12.8102 83.0929 12.8102C82.5391 12.8102 82.0931 12.3643 82.0931 11.8105Z" fill="url(#paint17_linear_441_3158)"/>
<path d="M80.6463 17.804C80.6463 13.5649 84.0817 10.1296 88.3256 10.1296C92.5647 10.1296 96 13.5649 96 17.804C96 22.043 92.5647 25.4784 88.3256 25.4784C84.0817 25.4833 80.6463 22.043 80.6463 17.804Z" fill="url(#paint18_radial_441_3158)"/>
<path d="M82.6164 12.673C85.4539 9.52191 90.3055 9.26708 93.4566 12.1045C96.6077 14.942 96.8626 19.7936 94.03 22.9447C91.1925 26.0958 86.3409 26.3507 83.1898 23.5181C80.0338 20.6757 79.779 15.8192 82.6164 12.673Z" fill="url(#paint19_linear_441_3158)"/>
<path d="M94.1624 4.90063H79.6909C79.2155 5.10646 79.4851 6.05718 79.6909 6.32672C79.8967 6.59625 83.3615 16.3142 84.1064 18.6224C84.8562 20.9306 87.1644 21.749 88.9972 21.6118C90.83 21.4745 93.0059 19.5045 92.4619 17.4658C91.918 15.4272 90.83 9.58563 94.1576 6.45903C94.8436 5.98367 94.775 4.90063 94.1624 4.90063Z" fill="#D6635A"/>
<path d="M93.7604 4.90063H80.1072C79.6564 5.10156 79.9161 6.03757 80.1072 6.30221C80.2984 6.56684 83.5671 16.1133 84.2728 18.3823C84.9785 20.6512 87.1592 21.455 88.8892 21.3177C90.6191 21.1854 92.6724 19.2497 92.1579 17.2453C91.6433 15.241 90.6191 9.50232 93.7604 6.42963C94.4024 5.96897 94.3387 4.90063 93.7604 4.90063Z" fill="#E63425"/>
<path d="M94.1624 4.90063H79.6909C79.2155 5.10646 79.4851 6.05718 79.6909 6.32672C79.8967 6.59625 83.3615 16.3142 84.1064 18.6224C84.8562 20.9306 87.1644 21.749 88.9972 21.6118C90.83 21.4745 93.0059 19.5045 92.4619 17.4658C91.918 15.4272 90.83 9.58563 94.1576 6.45903C94.8436 5.98367 94.775 4.90063 94.1624 4.90063Z" fill="url(#paint20_linear_441_3158)"/>
<path d="M94.1624 4.90063H79.6909C79.2155 5.10646 79.4851 6.05718 79.6909 6.32672C79.8967 6.59625 83.3615 16.3142 84.1064 18.6224C84.8562 20.9306 87.1644 21.749 88.9972 21.6118C90.83 21.4745 93.0059 19.5045 92.4619 17.4658C91.918 15.4272 90.83 9.58563 94.1576 6.45903C94.8436 5.98367 94.775 4.90063 94.1624 4.90063Z" fill="url(#paint21_linear_441_3158)"/>
<path d="M86.0812 17.804C86.0812 16.5641 87.0859 15.5644 88.3257 15.5644C89.5656 15.5644 90.5653 16.569 90.5653 17.804C90.5653 19.0438 89.5607 20.0485 88.3257 20.0485C87.081 20.0485 86.0812 19.0438 86.0812 17.804Z" fill="#BFBFBF"/>
<path d="M86.2721 17.804C86.2721 16.6719 87.1885 15.7555 88.3206 15.7555C89.4526 15.7555 90.369 16.6719 90.369 17.804C90.369 18.936 89.4526 19.8524 88.3206 19.8524C87.1885 19.8573 86.2721 18.936 86.2721 17.804Z" fill="#858585"/>
<path d="M86.4882 16.7651C87.0615 15.7506 88.3504 15.3978 89.3648 15.976C90.3793 16.5543 90.7321 17.8383 90.1538 18.8527C89.5756 19.8672 88.2916 20.22 87.2772 19.6417C86.2676 19.0634 85.9148 17.7746 86.4882 16.7651Z" fill="url(#paint22_linear_441_3158)"/>
<path d="M86.8702 17.804C86.8702 17.0052 87.5171 16.3534 88.3208 16.3534C89.1196 16.3534 89.7714 17.0003 89.7714 17.804C89.7714 18.6028 89.1245 19.2546 88.3208 19.2546C87.522 19.2546 86.8702 18.6077 86.8702 17.804Z" fill="#585858"/>
<path d="M87.228 17.804C87.228 17.2012 87.7181 16.716 88.3209 16.716C88.9236 16.716 89.4088 17.2061 89.4088 17.804C89.4088 18.4068 88.9187 18.8919 88.3209 18.8919C87.7181 18.8968 87.228 18.4068 87.228 17.804Z" fill="#C1C1C1"/>
<path d="M87.228 17.804C87.228 17.2012 87.7181 16.716 88.3209 16.716C88.9236 16.716 89.4088 17.2061 89.4088 17.804C89.4088 18.4068 88.9187 18.8919 88.3209 18.8919C87.7181 18.8968 87.228 18.4068 87.228 17.804Z" fill="url(#paint23_linear_441_3158)"/>
<defs>
<radialGradient id="paint0_radial_441_3158" cx="0" cy="0" r="1" gradientUnits="userSpaceOnUse" gradientTransform="translate(12.9068 11.8127) scale(7.02637 7.02638)">
<stop stop-color="#3E3E3E"/>
<stop offset="0.6667" stop-color="#3E3E3E"/>
<stop offset="0.7177" stop-color="#575555"/>
<stop offset="0.7714" stop-color="#696565"/>
<stop offset="0.8282" stop-color="#736F6F"/>
<stop offset="0.8925" stop-color="#777272"/>
<stop offset="0.9322" stop-color="#747070"/>
<stop offset="0.9558" stop-color="#6C6868"/>
<stop offset="0.9752" stop-color="#5E5B5B"/>
<stop offset="0.9923" stop-color="#4A4949"/>
<stop offset="1" stop-color="#3E3E3E"/>
</radialGradient>
<linearGradient id="paint1_linear_441_3158" x1="17.6077" y1="17.0355" x2="8.20653" y2="6.59022" gradientUnits="userSpaceOnUse">
<stop offset="0.3871" stop-color="#191919"/>
<stop offset="0.5672" stop-color="#1D1D1D"/>
<stop offset="0.7305" stop-color="#282828"/>
<stop offset="0.8867" stop-color="#3A3A3A"/>
<stop offset="0.914" stop-color="#3E3E3E"/>
</linearGradient>
<linearGradient id="paint2_linear_441_3158" x1="14.0805" y1="15.3082" x2="14.0805" y2="-0.0016663" gradientUnits="userSpaceOnUse">
<stop stop-color="#8D8D8D"/>
<stop offset="0.2348" stop-color="#A5A5A5"/>
<stop offset="0.4624" stop-color="#C0C0C0"/>
<stop offset="0.5042" stop-color="#A7A7A7"/>
<stop offset="0.5928" stop-color="#666666"/>
<stop offset="0.6237" stop-color="#4E4E4E"/>
<stop offset="0.633" stop-color="#484848"/>
<stop offset="0.6709" stop-color="#333333"/>
<stop offset="0.7135" stop-color="#242424"/>
<stop offset="0.7642" stop-color="#1C1C1C"/>
<stop offset="0.8441" stop-color="#191919"/>
</linearGradient>
<linearGradient id="paint3_linear_441_3158" x1="14.0805" y1="15.3082" x2="14.0805" y2="-0.0016663" gradientUnits="userSpaceOnUse">
<stop stop-color="#8D8D8D"/>
<stop offset="0.2348" stop-color="#A5A5A5"/>
<stop offset="0.4624" stop-color="#C0C0C0"/>
<stop offset="0.5042" stop-color="#A7A7A7"/>
<stop offset="0.5928" stop-color="#666666"/>
<stop offset="0.6237" stop-color="#4E4E4E"/>
<stop offset="0.633" stop-color="#484848"/>
<stop offset="0.6709" stop-color="#333333"/>
<stop offset="0.7135" stop-color="#242424"/>
<stop offset="0.7642" stop-color="#1C1C1C"/>
<stop offset="0.8441" stop-color="#191919"/>
</linearGradient>
<linearGradient id="paint4_linear_441_3158" x1="11.2282" y1="12.7669" x2="14.5844" y2="10.8585" gradientUnits="userSpaceOnUse">
<stop stop-color="#191919"/>
<stop offset="0.0413" stop-color="#312F2F"/>
<stop offset="0.128" stop-color="#6E6969"/>
<stop offset="0.1774" stop-color="#948C8C"/>
<stop offset="0.2308" stop-color="#7B7474"/>
<stop offset="0.3438" stop-color="#3A3838"/>
<stop offset="0.3978" stop-color="#191919"/>
<stop offset="0.6828" stop-color="#7B736A"/>
<stop offset="1" stop-color="#191919"/>
</linearGradient>
<linearGradient id="paint5_linear_441_3158" x1="11.9085" y1="11.813" x2="13.9046" y2="11.813" gradientUnits="userSpaceOnUse">
<stop stop-color="#191919"/>
<stop offset="0.0413" stop-color="#312F2F"/>
<stop offset="0.128" stop-color="#6E6969"/>
<stop offset="0.1774" stop-color="#948C8C"/>
<stop offset="0.2308" stop-color="#7B7474"/>
<stop offset="0.3438" stop-color="#3A3838"/>
<stop offset="0.3978" stop-color="#191919"/>
<stop offset="0.6828" stop-color="#7B736A"/>
<stop offset="1" stop-color="#191919"/>
</linearGradient>
<radialGradient id="paint6_radial_441_3158" cx="0" cy="0" r="1" gradientUnits="userSpaceOnUse" gradientTransform="translate(7.67546 17.8062) scale(7.67644 7.67645)">
<stop stop-color="#242424"/>
<stop offset="0.6667" stop-color="#242424"/>
<stop offset="0.7177" stop-color="#3D3B3B"/>
<stop offset="0.7714" stop-color="#4F4B4B"/>
<stop offset="0.8282" stop-color="#595555"/>
<stop offset="0.8925" stop-color="#5D5858"/>
<stop offset="0.9322" stop-color="#5A5656"/>
<stop offset="0.9558" stop-color="#524E4E"/>
<stop offset="0.9752" stop-color="#444141"/>
<stop offset="0.9923" stop-color="#302F2F"/>
<stop offset="1" stop-color="#242424"/>
</radialGradient>
<linearGradient id="paint7_linear_441_3158" x1="12.811" y1="23.512" x2="2.54026" y2="12.1006" gradientUnits="userSpaceOnUse">
<stop offset="0.3871"/>
<stop offset="0.5695" stop-color="#040404"/>
<stop offset="0.7348" stop-color="#0F0F0F"/>
<stop offset="0.8931" stop-color="#212121"/>
<stop offset="0.914" stop-color="#242424"/>
</linearGradient>
<linearGradient id="paint8_linear_441_3158" x1="8.95824" y1="21.6252" x2="8.95824" y2="4.89897" gradientUnits="userSpaceOnUse">
<stop stop-color="#737373"/>
<stop offset="0.3441" stop-color="#8B8B8B"/>
<stop offset="0.6774" stop-color="#A6A6A6"/>
<stop offset="0.6927" stop-color="#8D8D8D"/>
<stop offset="0.7252" stop-color="#4C4C4C"/>
<stop offset="0.7366" stop-color="#343434"/>
<stop offset="0.8226" stop-color="#757575"/>
<stop offset="1"/>
</linearGradient>
<linearGradient id="paint9_linear_441_3158" x1="8.95824" y1="21.6252" x2="8.95824" y2="4.89897" gradientUnits="userSpaceOnUse">
<stop stop-color="#737373"/>
<stop offset="0.3441" stop-color="#8B8B8B"/>
<stop offset="0.6774" stop-color="#A6A6A6"/>
<stop offset="0.6927" stop-color="#8D8D8D"/>
<stop offset="0.7252" stop-color="#4C4C4C"/>
<stop offset="0.7366" stop-color="#343434"/>
<stop offset="0.8226" stop-color="#757575"/>
<stop offset="1"/>
</linearGradient>
<linearGradient id="paint10_linear_441_3158" x1="5.84309" y1="18.8488" x2="9.50977" y2="16.7638" gradientUnits="userSpaceOnUse">
<stop/>
<stop offset="0.0416" stop-color="#181616"/>
<stop offset="0.1289" stop-color="#555050"/>
<stop offset="0.1774" stop-color="#7A7272"/>
<stop offset="0.2312" stop-color="#615A5A"/>
<stop offset="0.3451" stop-color="#201E1E"/>
<stop offset="0.3978"/>
<stop offset="0.6828" stop-color="#615950"/>
<stop offset="1"/>
</linearGradient>
<linearGradient id="paint11_linear_441_3158" x1="6.58575" y1="17.8062" x2="8.76639" y2="17.8062" gradientUnits="userSpaceOnUse">
<stop/>
<stop offset="0.0416" stop-color="#181616"/>
<stop offset="0.1289" stop-color="#555050"/>
<stop offset="0.1774" stop-color="#7A7272"/>
<stop offset="0.2312" stop-color="#615A5A"/>
<stop offset="0.3451" stop-color="#201E1E"/>
<stop offset="0.3978"/>
<stop offset="0.6828" stop-color="#615950"/>
<stop offset="1"/>
</linearGradient>
<radialGradient id="paint12_radial_441_3158" cx="0" cy="0" r="1" gradientUnits="userSpaceOnUse" gradientTransform="translate(83.0901 11.8127) rotate(180) scale(7.02647 7.02648)">
<stop stop-color="#3E3E3E"/>
<stop offset="0.6667" stop-color="#3E3E3E"/>
<stop offset="0.7177" stop-color="#575555"/>
<stop offset="0.7714" stop-color="#696565"/>
<stop offset="0.8282" stop-color="#736F6F"/>
<stop offset="0.8925" stop-color="#777272"/>
<stop offset="0.9322" stop-color="#747070"/>
<stop offset="0.9558" stop-color="#6C6868"/>
<stop offset="0.9752" stop-color="#5E5B5B"/>
<stop offset="0.9923" stop-color="#4A4949"/>
<stop offset="1" stop-color="#3E3E3E"/>
</radialGradient>
<linearGradient id="paint13_linear_441_3158" x1="78.3898" y1="17.0355" x2="87.7909" y2="6.59041" gradientUnits="userSpaceOnUse">
<stop offset="0.3871" stop-color="#191919"/>
<stop offset="0.5672" stop-color="#1D1D1D"/>
<stop offset="0.7305" stop-color="#282828"/>
<stop offset="0.8867" stop-color="#3A3A3A"/>
<stop offset="0.914" stop-color="#3E3E3E"/>
</linearGradient>
<linearGradient id="paint14_linear_441_3158" x1="81.9162" y1="15.3082" x2="81.9162" y2="-0.0016663" gradientUnits="userSpaceOnUse">
<stop stop-color="#8D8D8D"/>
<stop offset="0.2348" stop-color="#A5A5A5"/>
<stop offset="0.4624" stop-color="#C0C0C0"/>
<stop offset="0.5042" stop-color="#A7A7A7"/>
<stop offset="0.5928" stop-color="#666666"/>
<stop offset="0.6237" stop-color="#4E4E4E"/>
<stop offset="0.633" stop-color="#484848"/>
<stop offset="0.6709" stop-color="#333333"/>
<stop offset="0.7135" stop-color="#242424"/>
<stop offset="0.7642" stop-color="#1C1C1C"/>
<stop offset="0.8441" stop-color="#191919"/>
</linearGradient>
<linearGradient id="paint15_linear_441_3158" x1="81.9162" y1="15.3082" x2="81.9162" y2="-0.0016663" gradientUnits="userSpaceOnUse">
<stop stop-color="#8D8D8D"/>
<stop offset="0.2348" stop-color="#A5A5A5"/>
<stop offset="0.4624" stop-color="#C0C0C0"/>
<stop offset="0.5042" stop-color="#A7A7A7"/>
<stop offset="0.5928" stop-color="#666666"/>
<stop offset="0.6237" stop-color="#4E4E4E"/>
<stop offset="0.633" stop-color="#484848"/>
<stop offset="0.6709" stop-color="#333333"/>
<stop offset="0.7135" stop-color="#242424"/>
<stop offset="0.7642" stop-color="#1C1C1C"/>
<stop offset="0.8441" stop-color="#191919"/>
</linearGradient>
<linearGradient id="paint16_linear_441_3158" x1="84.7691" y1="12.7669" x2="81.4128" y2="10.8585" gradientUnits="userSpaceOnUse">
<stop stop-color="#191919"/>
<stop offset="0.0413" stop-color="#312F2F"/>
<stop offset="0.128" stop-color="#6E6969"/>
<stop offset="0.1774" stop-color="#948C8C"/>
<stop offset="0.2308" stop-color="#7B7474"/>
<stop offset="0.3438" stop-color="#3A3838"/>
<stop offset="0.3978" stop-color="#191919"/>
<stop offset="0.6828" stop-color="#7B736A"/>
<stop offset="1" stop-color="#191919"/>
</linearGradient>
<linearGradient id="paint17_linear_441_3158" x1="84.089" y1="11.813" x2="82.0934" y2="11.813" gradientUnits="userSpaceOnUse">
<stop stop-color="#191919"/>
<stop offset="0.0413" stop-color="#312F2F"/>
<stop offset="0.128" stop-color="#6E6969"/>
<stop offset="0.1774" stop-color="#948C8C"/>
<stop offset="0.2308" stop-color="#7B7474"/>
<stop offset="0.3438" stop-color="#3A3838"/>
<stop offset="0.3978" stop-color="#191919"/>
<stop offset="0.6828" stop-color="#7B736A"/>
<stop offset="1" stop-color="#191919"/>
</linearGradient>
<radialGradient id="paint18_radial_441_3158" cx="0" cy="0" r="1" gradientUnits="userSpaceOnUse" gradientTransform="translate(88.3207 17.8062) rotate(180) scale(7.67649 7.67649)">
<stop stop-color="#242424"/>
<stop offset="0.6667" stop-color="#242424"/>
<stop offset="0.7177" stop-color="#3D3B3B"/>
<stop offset="0.7714" stop-color="#4F4B4B"/>
<stop offset="0.8282" stop-color="#595555"/>
<stop offset="0.8925" stop-color="#5D5858"/>
<stop offset="0.9322" stop-color="#5A5656"/>
<stop offset="0.9558" stop-color="#524E4E"/>
<stop offset="0.9752" stop-color="#444141"/>
<stop offset="0.9923" stop-color="#302F2F"/>
<stop offset="1" stop-color="#242424"/>
</radialGradient>
<linearGradient id="paint19_linear_441_3158" x1="83.1853" y1="23.5122" x2="93.4562" y2="12.1007" gradientUnits="userSpaceOnUse">
<stop offset="0.3871"/>
<stop offset="0.5695" stop-color="#040404"/>
<stop offset="0.7348" stop-color="#0F0F0F"/>
<stop offset="0.8931" stop-color="#212121"/>
<stop offset="0.914" stop-color="#242424"/>
</linearGradient>
<linearGradient id="paint20_linear_441_3158" x1="87.0384" y1="21.6252" x2="87.0384" y2="4.89897" gradientUnits="userSpaceOnUse">
<stop stop-color="#737373"/>
<stop offset="0.3441" stop-color="#8B8B8B"/>
<stop offset="0.6774" stop-color="#A6A6A6"/>
<stop offset="0.6927" stop-color="#8D8D8D"/>
<stop offset="0.7252" stop-color="#4C4C4C"/>
<stop offset="0.7366" stop-color="#343434"/>
<stop offset="0.8226" stop-color="#757575"/>
<stop offset="1"/>
</linearGradient>
<linearGradient id="paint21_linear_441_3158" x1="87.0384" y1="21.6252" x2="87.0384" y2="4.89897" gradientUnits="userSpaceOnUse">
<stop stop-color="#737373"/>
<stop offset="0.3441" stop-color="#8B8B8B"/>
<stop offset="0.6774" stop-color="#A6A6A6"/>
<stop offset="0.6927" stop-color="#8D8D8D"/>
<stop offset="0.7252" stop-color="#4C4C4C"/>
<stop offset="0.7366" stop-color="#343434"/>
<stop offset="0.8226" stop-color="#757575"/>
<stop offset="1"/>
</linearGradient>
<linearGradient id="paint22_linear_441_3158" x1="90.1547" y1="18.8489" x2="86.4878" y2="16.7638" gradientUnits="userSpaceOnUse">
<stop/>
<stop offset="0.0416" stop-color="#181616"/>
<stop offset="0.1289" stop-color="#555050"/>
<stop offset="0.1774" stop-color="#7A7272"/>
<stop offset="0.2312" stop-color="#615A5A"/>
<stop offset="0.3451" stop-color="#201E1E"/>
<stop offset="0.3978"/>
<stop offset="0.6828" stop-color="#615950"/>
<stop offset="1"/>
</linearGradient>
<linearGradient id="paint23_linear_441_3158" x1="89.4112" y1="17.8062" x2="87.2304" y2="17.8062" gradientUnits="userSpaceOnUse">
<stop/>
<stop offset="0.0416" stop-color="#181616"/>
<stop offset="0.1289" stop-color="#555050"/>
<stop offset="0.1774" stop-color="#7A7272"/>
<stop offset="0.2312" stop-color="#615A5A"/>
<stop offset="0.3451" stop-color="#201E1E"/>
<stop offset="0.3978"/>
<stop offset="0.6828" stop-color="#615950"/>
<stop offset="1"/>
</linearGradient>
</defs>
</svg>
