<svg width="16" height="16" viewBox="0 0 16 16" fill="none" xmlns="http://www.w3.org/2000/svg">
<path d="M6 4.80004V11.1934C6 13.3334 7.33333 14.6667 9.46667 14.6667H11.1933C13.3267 14.6667 14.66 13.3334 14.66 11.2V4.80004C14.6667 2.66671 13.3333 1.33337 11.2 1.33337H9.46667C7.33333 1.33337 6 2.66671 6 4.80004Z" fill="#C6C7C8"/>
<path d="M3.71329 5.41331L1.47996 7.64664C1.28663 7.83997 1.28663 8.15997 1.47996 8.35331L3.71329 10.5866C3.90663 10.78 4.22663 10.78 4.41996 10.5866C4.61329 10.3933 4.61329 10.0733 4.41996 9.87997L3.03996 8.49997H10.1666C10.44 8.49997 10.6666 8.27331 10.6666 7.99997C10.6666 7.72664 10.44 7.49997 10.1666 7.49997H3.03996L4.41996 6.11997C4.51996 6.01997 4.56663 5.89331 4.56663 5.76664C4.56663 5.63997 4.51996 5.50664 4.41996 5.41331C4.22663 5.21331 3.91329 5.21331 3.71329 5.41331Z" fill="#4A4B4B"/>
</svg>
