<svg width="177" height="163" viewBox="0 0 177 163" fill="none" xmlns="http://www.w3.org/2000/svg">
<path d="M169.517 11.7867C169.039 11.1999 168.486 10.6563 167.842 10.1813C167.195 9.70668 166.448 9.30145 165.76 8.99633C165.498 9.04746 165.239 9.0982 164.981 9.14893C162.67 8.44417 119.768 0.971153 119.708 0.961728C118.484 0.771772 117.34 0.585307 116.23 0.426689C115.164 0.275244 114.128 0.148165 113.082 0.0732825C111.434 -0.0444779 109.76 -0.0336815 107.905 0.20451C107.362 0.27341 106.801 0.363795 106.219 0.472198C104.368 0.824002 82.0047 4.9048 58.8491 9.11996C35.6934 13.3351 11.7489 17.6764 6.73709 18.5571C5.70596 18.7363 4.72926 18.9844 3.83627 19.3929C2.95064 19.7966 2.14524 20.365 1.44891 21.1853C0.47678 22.3375 -0.0646415 23.4719 0.00624444 24.4082C0.133101 26.1016 1.96253 41.8986 2.32834 45.828C2.42664 46.8755 2.56712 47.8754 2.72869 48.814C3.15286 51.2783 3.67812 52.7213 4.25832 53.6396C4.98833 54.7858 5.81181 55.1004 6.63978 55.5324C6.90198 55.67 7.61862 55.9408 8.68365 56.3086C9.51401 63.6851 10.1195 70.6803 10.8035 76.6644C12.0852 87.8866 12.7144 89.944 15.8582 120.267C16.2447 123.982 16.8891 129.365 17.0853 131.232C17.2047 132.367 17.5398 134.845 17.8974 136.675C18.2976 138.725 18.7499 139.81 19.0421 140.196C19.3757 140.676 20.3651 141.634 21.3976 142.328C26.7988 145.976 49.7731 156.798 55.6615 159.506C57.8763 160.523 60.0344 161.339 62.2474 161.928C64.4599 162.513 66.7231 162.869 69.1562 162.971C71.0479 163.048 73.0377 162.973 75.1822 162.724C77.3272 162.478 79.623 162.06 82.1242 161.463C92.1692 159.007 101.116 156.844 109.094 154.924C149.726 145.144 148.693 145.559 156.474 143.302C166.536 140.377 171.717 139.195 174.253 137.584C175.307 136.914 175.918 136.292 176.236 135.653C176.641 134.902 176.884 132.982 176.887 131.259C176.896 129.583 176.783 128.32 176.704 127.57C176.443 125.08 175.778 119.877 175.035 112.739C173.601 98.9805 170.456 70.2934 170.446 70.2354C169.729 63.8655 169.032 55.8065 168.203 47.7731C168.336 47.7237 168.472 47.6701 168.611 47.6083C170.626 46.7319 173.312 44.676 173.433 40.6955C173.348 39.8943 173.265 39.0969 173.18 38.2957C173.113 37.6578 173.046 37.02 172.98 36.386C172.454 31.388 171.123 18.7238 170.652 14.2431C170.566 13.387 170.136 12.5513 169.517 11.7867Z" fill="#EFEFEF"/>
</svg>
