<svg width="16" height="16" viewBox="0 0 16 16" fill="none" xmlns="http://www.w3.org/2000/svg">
<path d="M14.1671 6.1C13.8404 5.58 13.4671 5.11333 13.0804 4.69333L10.5671 7.20667C10.6471 7.45333 10.6937 7.72 10.6937 8C10.6937 9.49333 9.48706 10.6933 8.00039 10.6933C7.72039 10.6933 7.45372 10.6467 7.20706 10.5667L4.90039 12.8733C5.87372 13.42 6.92706 13.7067 8.00039 13.7067C9.18706 13.7067 10.3404 13.36 11.3937 12.7133C12.4471 12.06 13.3937 11.1067 14.1671 9.89333C14.8337 8.85333 14.8337 7.14667 14.1671 6.1Z" fill="#C6C7C8"/>
<path d="M9.34708 6.65333L6.65375 9.34667C6.31375 9 6.09375 8.52 6.09375 8C6.09375 6.95333 6.94708 6.09333 8.00042 6.09333C8.52042 6.09333 9.00042 6.31333 9.34708 6.65333Z" fill="#4A4B4B"/>
<path d="M12.1663 3.83333L9.90634 6.09333C9.41967 5.6 8.74634 5.30667 7.99967 5.30667C6.50634 5.30667 5.30634 6.51333 5.30634 8C5.30634 8.74667 5.60634 9.42 6.09301 9.90667L3.83967 12.1667H3.83301C3.09301 11.5667 2.41301 10.8 1.83301 9.89333C1.16634 8.84667 1.16634 7.14667 1.83301 6.1C2.60634 4.88667 3.55301 3.93333 4.60634 3.28C5.65967 2.64 6.81301 2.28667 7.99967 2.28667C9.48634 2.28667 10.9263 2.83333 12.1663 3.83333Z" fill="#C6C7C8"/>
<path d="M9.90672 8C9.90672 9.04667 9.05339 9.90667 8.00005 9.90667C7.96005 9.90667 7.92672 9.90667 7.88672 9.89333L9.89339 7.88667C9.90672 7.92667 9.90672 7.96 9.90672 8Z" fill="#4A4B4B"/>
<path d="M14.5136 1.48667C14.3136 1.28667 13.9869 1.28667 13.7869 1.48667L1.48691 13.7933C1.28691 13.9933 1.28691 14.32 1.48691 14.52C1.58691 14.6133 1.71358 14.6667 1.84691 14.6667C1.98025 14.6667 2.10691 14.6133 2.20691 14.5133L14.5136 2.20667C14.7202 2.00667 14.7202 1.68667 14.5136 1.48667Z" fill="#4A4B4B"/>
</svg>
