<svg width="16" height="16" viewBox="0 0 16 16" fill="none" xmlns="http://www.w3.org/2000/svg">
<path d="M13.3132 6.66667V12C13.3132 14 12.6465 14.6667 10.6465 14.6667H5.31315C3.31315 14.6667 2.64648 14 2.64648 12V6.66667H13.3132Z" fill="#C6C7C8"/>
<path d="M14.3332 4.66666V5.33333C14.3332 6.06666 13.9798 6.66666 12.9998 6.66666H2.99984C1.97984 6.66666 1.6665 6.06666 1.6665 5.33333V4.66666C1.6665 3.93333 1.97984 3.33333 2.99984 3.33333H12.9998C13.9798 3.33333 14.3332 3.93333 14.3332 4.66666Z" fill="#4A4B4B"/>
<path d="M7.76018 3.33334H4.08018C3.85352 3.08667 3.86018 2.70667 4.10018 2.46667L5.04685 1.52001C5.29352 1.27334 5.70018 1.27334 5.94685 1.52001L7.76018 3.33334Z" fill="#C6C7C8"/>
<path d="M11.9134 3.33334H8.2334L10.0467 1.52001C10.2934 1.27334 10.7001 1.27334 10.9467 1.52001L11.8934 2.46667C12.1334 2.70667 12.1401 3.08667 11.9134 3.33334Z" fill="#C6C7C8"/>
<path d="M5.95996 6.66667V10.0933C5.95996 10.6267 6.54663 10.94 6.99329 10.6533L7.61996 10.24C7.84663 10.0933 8.13329 10.0933 8.35329 10.24L8.94663 10.64C9.38663 10.9333 9.97996 10.62 9.97996 10.0867V6.66667H5.95996Z" fill="#7C7C7D"/>
</svg>
