<svg width="16" height="16" viewBox="0 0 16 16" fill="none" xmlns="http://www.w3.org/2000/svg">
<path d="M12.3136 11.2201L12.5736 13.3267C12.6402 13.88 12.0469 14.2667 11.5736 13.98L8.78022 12.32C8.47356 12.32 8.17356 12.3001 7.88023 12.2601C8.37356 11.6801 8.66689 10.9467 8.66689 10.1534C8.66689 8.26003 7.02689 6.72673 5.00022 6.72673C4.22689 6.72673 3.51356 6.94671 2.92023 7.33337C2.90023 7.16671 2.89355 7.00003 2.89355 6.8267C2.89355 3.79337 5.52689 1.33337 8.78022 1.33337C12.0336 1.33337 14.6669 3.79337 14.6669 6.8267C14.6669 8.6267 13.7402 10.2201 12.3136 11.2201Z" fill="#C6C7C8"/>
<path d="M8.66683 10.1533C8.66683 10.9467 8.3735 11.68 7.88017 12.26C7.22017 13.06 6.1735 13.5733 5.00016 13.5733L3.26016 14.6066C2.96683 14.7866 2.59349 14.54 2.63349 14.2L2.80016 12.8867C1.90683 12.2667 1.3335 11.2733 1.3335 10.1533C1.3335 8.97999 1.96017 7.94667 2.92017 7.33333C3.5135 6.94667 4.22683 6.72668 5.00016 6.72668C7.02683 6.72668 8.66683 8.25999 8.66683 10.1533Z" fill="#4A4B4B"/>
</svg>
