<svg width="16" height="16" viewBox="0 0 16 16" fill="none" xmlns="http://www.w3.org/2000/svg">
<path d="M6.6665 2.5H7.49984V5.66667C7.49984 5.94 7.7265 6.16667 7.99984 6.16667C8.27317 6.16667 8.49984 5.94 8.49984 5.66667V2.5H9.33317C9.6065 2.5 9.83317 2.27333 9.83317 2C9.83317 1.72667 9.6065 1.5 9.33317 1.5H6.6665C6.39317 1.5 6.1665 1.72667 6.1665 2C6.1665 2.27333 6.39317 2.5 6.6665 2.5Z" fill="#C0EED4"/>
<path d="M9.33317 13.5002H8.49984V10.3335C8.49984 10.0602 8.27317 9.8335 7.99984 9.8335C7.7265 9.8335 7.49984 10.0602 7.49984 10.3335V13.5002H6.6665C6.39317 13.5002 6.1665 13.7268 6.1665 14.0002C6.1665 14.2735 6.39317 14.5002 6.6665 14.5002H9.33317C9.6065 14.5002 9.83317 14.2735 9.83317 14.0002C9.83317 13.7268 9.6065 13.5002 9.33317 13.5002Z" fill="#C0EED4"/>
<path d="M1.88659 6.58646C1.96659 6.63313 2.05326 6.65313 2.13326 6.65313C2.30659 6.65313 2.47326 6.56646 2.56659 6.39979L2.98659 5.67979L5.73326 7.26646C5.80659 7.31313 5.89326 7.33313 5.97993 7.33313C6.15326 7.33313 6.31993 7.24646 6.41326 7.07979C6.55326 6.83979 6.46659 6.53313 6.23326 6.39979L3.49326 4.81313L3.90659 4.09313C4.04659 3.85313 3.95993 3.54646 3.72659 3.41313C3.48659 3.27313 3.17993 3.35313 3.04659 3.59313L1.71326 5.89979C1.56659 6.14646 1.64659 6.44646 1.88659 6.58646Z" fill="#C0EED4"/>
<path d="M14.1131 9.41344C13.8731 9.27344 13.5665 9.35344 13.4331 9.59344L13.0131 10.3134L10.2665 8.73344C10.0265 8.59344 9.7198 8.68011 9.58647 8.91344C9.44647 9.15344 9.53314 9.46011 9.76647 9.59344L12.5065 11.1801L12.0931 11.9001C11.9531 12.1401 12.0398 12.4468 12.2731 12.5801C12.3531 12.6268 12.4398 12.6468 12.5198 12.6468C12.6931 12.6468 12.8598 12.5601 12.9531 12.3934L14.2865 10.0868C14.4331 9.85344 14.3531 9.55344 14.1131 9.41344Z" fill="#C0EED4"/>
<path d="M12.5133 4.8133L9.7733 6.39996C9.5333 6.53996 9.4533 6.84663 9.5933 7.07996C9.68664 7.23996 9.8533 7.3333 10.0266 7.3333C10.1133 7.3333 10.2 7.3133 10.2733 7.26663L13.0133 5.67996L13.4333 6.39996C13.5266 6.55996 13.6933 6.6533 13.8666 6.6533C13.9533 6.6533 14.04 6.6333 14.1133 6.58663C14.3533 6.44663 14.4333 6.13996 14.2933 5.90663L12.96 3.59996C12.82 3.35996 12.5133 3.27996 12.28 3.41996C12.04 3.55996 11.96 3.86663 12.1 4.09996L12.5133 4.8133Z" fill="#C0EED4"/>
<path d="M3.48658 11.1865L6.22658 9.59979C6.46658 9.45979 6.54658 9.15312 6.40658 8.91979C6.26658 8.67979 5.95992 8.59979 5.72658 8.73979L2.98658 10.3265L2.56658 9.60645C2.42658 9.36645 2.11992 9.28645 1.88658 9.42645C1.64658 9.56645 1.56658 9.87312 1.70658 10.1065L3.03992 12.4131C3.13325 12.5731 3.29992 12.6665 3.47325 12.6665C3.55992 12.6665 3.64658 12.6465 3.71992 12.5998C3.95992 12.4598 4.03992 12.1531 3.89992 11.9198L3.48658 11.1865Z" fill="#C0EED4"/>
<path d="M10.3332 7.99984C10.3332 8.4265 10.2198 8.81984 10.0198 9.1665C9.61317 9.8665 8.85984 10.3332 7.99984 10.3332C7.13984 10.3332 6.3865 9.8665 5.97984 9.1665C5.77984 8.81984 5.6665 8.4265 5.6665 7.99984C5.6665 7.57317 5.77984 7.17984 5.97984 6.83317C6.3865 6.13317 7.13984 5.6665 7.99984 5.6665C8.85984 5.6665 9.61317 6.13317 10.0198 6.83317C10.2198 7.17984 10.3332 7.57317 10.3332 7.99984Z" fill="#2EC66F"/>
</svg>
