<svg width="280" height="78" viewBox="0 0 280 78" fill="none" xmlns="http://www.w3.org/2000/svg">
<path fill-rule="evenodd" clip-rule="evenodd" d="M28.1264 16.9399C31.113 22.0839 31.9484 27.8952 30.9009 33.3165L20.4131 20.1121L26.6677 35.7737C21.4519 34.0012 16.8204 30.4044 13.8338 25.2561C10.2238 19.0331 9.76503 11.8437 11.9596 5.54264C18.5129 6.75171 24.5165 10.7169 28.1264 16.9399Z" fill="white"/>
<path fill-rule="evenodd" clip-rule="evenodd" d="M35.7402 45.7669V5.39964C35.7402 2.41814 38.1555 0 41.1334 0C44.1114 0 46.5267 2.41814 46.5267 5.39964V19.9908C45.4359 20.1685 44.3668 20.5931 43.4145 21.3039C41.3585 22.8423 40.5621 24.9137 39.8998 27.7739C39.3241 30.2657 39.7007 29.3166 38.7398 30.5994C37.2595 32.5755 39.9258 39.8169 42.3497 35.947C42.8345 35.1756 43.2457 34.0229 43.3626 32.9742C43.4319 32.3328 43.4232 31.7174 43.2154 31.1411C42.7609 29.8583 41.523 30.2483 42.2588 26.5388C42.4926 25.3644 42.9124 24.554 43.4708 23.7653C44.0898 22.8899 45.1935 22.2096 46.5267 21.9886C46.5267 29.9147 46.5267 37.8408 46.5267 45.7712L35.7402 45.7669Z" fill="white"/>
<path fill-rule="evenodd" clip-rule="evenodd" d="M11.241 27.8215C14.0416 29.8193 15.8682 32.6795 16.6083 35.7866L7.93408 31.3361L14.9635 38.0921C11.7907 38.4085 8.49246 37.6154 5.69194 35.6176C2.30275 33.2038 0.346278 29.5246 0 25.6808C3.74413 24.7534 7.85617 25.4077 11.241 27.8215Z" fill="white"/>
<path fill-rule="evenodd" clip-rule="evenodd" d="M71.0258 27.8215C68.2253 29.8193 66.3987 32.6795 65.6585 35.7866L74.3328 31.3361L67.3034 38.0921C70.4761 38.4041 73.7701 37.6154 76.5749 35.6176C79.9641 33.2038 81.9206 29.5246 82.2669 25.6808C78.5228 24.7534 74.415 25.4077 71.0258 27.8215Z" fill="white"/>
<path fill-rule="evenodd" clip-rule="evenodd" d="M54.1405 16.9399C51.1538 22.0839 50.3184 27.8952 51.3659 33.3165L61.8538 20.1121L55.5992 35.7737C60.815 34.0012 65.4465 30.4044 68.4331 25.2561C72.043 19.0331 72.5019 11.8437 70.3073 5.54264C63.7584 6.75171 57.7548 10.7169 54.1405 16.9399Z" fill="white"/>
<path fill-rule="evenodd" clip-rule="evenodd" d="M4.99939 39.5005H24.4645C25.1787 42.0097 28.8276 45.5025 31.113 46.9759C33.4591 48.4884 36.0388 49.3941 38.8653 49.7364C39.9561 49.8664 39.5059 49.7971 39.6012 52.5706L42.6744 52.8479C42.6744 51.9769 42.5445 50.5512 42.7653 49.8014C46.4704 49.6238 49.6346 48.029 51.9936 46.3996C53.6687 45.2382 57.0276 41.9013 57.7937 39.5005H77.2632C76.9602 54.3907 68.4201 64.6699 57.3176 69.7532H57.8543C60.1311 69.7532 61.9707 71.5993 61.9707 73.8788C61.9707 76.1582 60.1268 78 57.8543 78H31.9484L50.3185 77.9913C48.7602 74.6588 43.051 73.9091 42.6874 73.6838L42.6484 70.7933L39.5968 70.3512L39.5795 73.7531C37.688 74.2038 36.6535 74.2905 35.039 75.1789C33.8962 75.8116 32.3813 76.9513 31.9528 77.9957H24.4126C22.1358 77.9957 20.2919 76.1496 20.2919 73.8744C20.2919 71.803 21.8155 70.0912 23.8023 69.7966C13.5611 64.9039 5.74389 54.9671 4.99939 39.5005ZM49.7255 73.1551C48.5308 70.3426 44.3279 69.1422 41.4624 68.6915C35.8484 67.8118 33.9785 65.099 38.8913 64.0199L38.9476 62.4035C37.9434 62.3211 34.7403 63.2875 34.5801 65.58C34.2209 70.6416 43.9599 69.0945 48.6001 72.323C48.9983 72.5917 49.2753 72.8821 49.7255 73.1551ZM39.5925 67.7381L42.683 68.3101L42.6787 56.5661L39.5925 56.2368V67.7381ZM43.3756 61.8531L43.328 63.6082C51.0759 63.0578 51.9373 56.6181 45.3753 54.2607C41.7567 52.9649 36.4024 53.5717 32.9786 51.5045C30.823 50.2088 31.719 49.1211 31.7926 48.1677C31.2039 47.8383 30.3772 47.2186 29.8491 46.9976C28.4207 48.7874 28.9488 51.7992 31.5762 53.433C36.6448 56.5878 43.3799 54.6377 46.834 57.4632C47.9248 58.3559 48.1456 59.5433 46.9293 60.4837C45.6091 61.5021 44.7217 61.2551 43.3756 61.8531Z" fill="white"/>
<path d="M111.449 66.3644C108.805 66.3644 106.368 65.7447 104.147 64.5009C101.922 63.2572 100.165 61.5238 98.8709 59.3006C97.5767 57.0732 96.9274 54.5684 96.9274 51.7862C96.9274 49.0041 97.5767 46.5036 98.8709 44.2891C100.165 42.079 101.927 40.3499 104.147 39.1062C106.372 37.8624 108.805 37.2427 111.449 37.2427C114.124 37.2427 116.57 37.8624 118.795 39.1062C121.02 40.3499 122.768 42.0747 124.054 44.2891C125.335 46.4993 125.976 48.9997 125.976 51.7862C125.976 54.5727 125.335 57.0775 124.054 59.3006C122.773 61.5281 121.02 63.2615 118.795 64.5009C116.57 65.7403 114.124 66.3644 111.449 66.3644ZM111.449 62.3081C113.332 62.3081 115.007 61.8791 116.483 61.0167C117.955 60.1543 119.106 58.9279 119.942 57.3289C120.773 55.7298 121.188 53.8793 121.188 51.7775C121.188 49.6758 120.773 47.8297 119.942 46.2479C119.111 44.6662 117.959 43.4484 116.483 42.6034C115.012 41.7583 113.332 41.3336 111.449 41.3336C109.567 41.3336 107.891 41.7583 106.415 42.6034C104.944 43.4484 103.792 44.6662 102.957 46.2479C102.126 47.8297 101.71 49.6758 101.71 51.7775C101.71 53.8793 102.126 55.7298 102.957 57.3289C103.788 58.9279 104.939 60.1543 106.415 61.0167C107.891 61.8791 109.567 62.3081 111.449 62.3081Z" fill="white"/>
<path d="M140.688 43.1407C142.463 43.1407 144.051 43.5091 145.454 44.2458C146.861 44.9825 147.956 46.0746 148.748 47.522C149.54 48.9694 149.934 50.7158 149.934 52.7656V66.0783H145.311V53.4633C145.311 51.4439 144.805 49.8924 143.796 48.8134C142.788 47.7343 141.411 47.197 139.662 47.197C137.918 47.197 136.533 47.7343 135.511 48.8134C134.49 49.8924 133.979 51.4395 133.979 53.4633V66.0783H129.317V43.5091H133.979V46.0876C134.741 45.1602 135.719 44.4365 136.905 43.9164C138.087 43.4007 139.351 43.1407 140.688 43.1407Z" fill="white"/>
<path d="M175.281 54.239C175.281 55.0841 175.225 55.8511 175.117 56.5315H157.894C158.032 58.3342 158.699 59.7817 159.898 60.8737C161.097 61.9658 162.573 62.5118 164.317 62.5118C166.828 62.5118 168.598 61.4587 169.637 59.357H174.671C173.987 61.4327 172.754 63.1315 170.97 64.4576C169.183 65.7837 166.966 66.4424 164.322 66.4424C162.166 66.4424 160.236 65.957 158.535 64.9863C156.829 64.0156 155.492 62.6505 154.526 60.8911C153.557 59.1316 153.072 57.0905 153.072 54.7677C153.072 52.4449 153.544 50.4038 154.483 48.6444C155.422 46.8849 156.747 45.5242 158.452 44.5708C160.158 43.6131 162.114 43.1364 164.322 43.1364C166.447 43.1364 168.343 43.6001 170.009 44.5275C171.671 45.4549 172.97 46.7593 173.896 48.4407C174.818 50.1221 175.281 52.0549 175.281 54.239ZM170.416 52.7656C170.39 51.0452 169.776 49.6671 168.577 48.627C167.378 47.5913 165.889 47.0713 164.118 47.0713C162.508 47.0713 161.132 47.5826 159.985 48.6054C158.838 49.6281 158.158 51.0148 157.937 52.7613H170.416V52.7656Z" fill="white"/>
<path d="M196.699 66.3644C194.79 66.3644 193.071 66.0307 191.543 65.359C190.015 64.6916 188.816 63.7425 187.942 62.5118C187.068 61.2811 186.635 59.851 186.635 58.2129H191.626C191.734 59.4436 192.219 60.4534 193.08 61.2421C193.937 62.0351 195.145 62.4295 196.699 62.4295C198.309 62.4295 199.564 62.0394 200.464 61.2637C201.365 60.4837 201.815 59.4826 201.815 58.2519C201.815 57.2942 201.534 56.5185 200.975 55.9161C200.417 55.3137 199.72 54.8501 198.889 54.525C198.058 54.1957 196.906 53.8403 195.43 53.459C193.578 52.9693 192.067 52.4709 190.911 51.9639C189.751 51.4569 188.765 50.6725 187.946 49.6108C187.128 48.5447 186.717 47.1276 186.717 45.3509C186.717 43.7128 187.128 42.2784 187.946 41.052C188.765 39.8212 189.912 38.8808 191.383 38.2265C192.855 37.5721 194.56 37.2427 196.495 37.2427C199.248 37.2427 201.508 37.9318 203.265 39.3098C205.022 40.6879 206 42.5817 206.191 44.9825H201.036C200.954 43.9468 200.464 43.0584 199.564 42.3217C198.664 41.585 197.478 41.2166 196.006 41.2166C194.669 41.2166 193.578 41.559 192.734 42.2393C191.89 42.9241 191.465 43.9034 191.465 45.1905C191.465 46.0659 191.73 46.7809 192.262 47.34C192.794 47.899 193.47 48.3454 194.288 48.6704C195.106 48.9997 196.222 49.3551 197.642 49.7364C199.525 50.2565 201.057 50.7721 202.243 51.2922C203.429 51.8122 204.438 52.6096 205.269 53.6887C206.1 54.7677 206.516 56.2065 206.516 58.0092C206.516 59.4566 206.126 60.8217 205.351 62.1045C204.572 63.3872 203.442 64.4186 201.953 65.1986C200.469 65.9743 198.716 66.3644 196.699 66.3644Z" fill="white"/>
<path d="M216.237 47.3183V59.812C216.237 60.657 216.436 61.2681 216.83 61.6364C217.224 62.0048 217.899 62.1911 218.856 62.1911H221.721V66.0827H218.038C215.939 66.0827 214.328 65.593 213.212 64.6093C212.095 63.6255 211.532 62.0308 211.532 59.8163V47.3226H208.875V43.5134H211.532V37.9014H216.237V43.5134H221.721V47.3226H216.237V47.3183Z" fill="white"/>
<path d="M234.551 66.4467C232.426 66.4467 230.5 65.9613 228.781 64.9906C227.063 64.0199 225.712 62.6548 224.73 60.8954C223.747 59.1359 223.258 57.0948 223.258 54.7721C223.258 52.4796 223.765 50.4428 224.773 48.6704C225.782 46.8936 227.158 45.5285 228.907 44.5751C230.651 43.6174 232.603 43.1407 234.759 43.1407C236.914 43.1407 238.862 43.6174 240.611 44.5751C242.36 45.5329 243.732 46.8979 244.745 48.6704C245.753 50.4471 246.26 52.4796 246.26 54.7721C246.26 57.0645 245.74 59.1013 244.706 60.8737C243.671 62.6505 242.256 64.0199 240.472 64.9906C238.676 65.9613 236.707 66.4467 234.551 66.4467ZM234.551 62.3905C235.75 62.3905 236.875 62.1045 237.927 61.5281C238.979 60.9561 239.832 60.0937 240.485 58.9496C241.139 57.8012 241.468 56.4101 241.468 54.7721C241.468 53.134 241.156 51.7472 240.529 50.6161C239.901 49.4807 239.07 48.6314 238.031 48.055C236.997 47.483 235.876 47.197 234.677 47.197C233.478 47.197 232.365 47.483 231.344 48.055C230.322 48.627 229.508 49.4807 228.911 50.6161C228.309 51.7472 228.011 53.134 228.011 54.7721C228.011 57.2032 228.63 59.0796 229.872 60.4057C231.11 61.7274 232.673 62.3905 234.551 62.3905Z" fill="white"/>
<path d="M254.298 46.8243C255.09 45.7885 256.167 44.9132 257.531 44.2025C258.894 43.4918 260.435 43.1364 262.154 43.1364C264.119 43.1364 265.911 43.6218 267.534 44.5925C269.157 45.5632 270.434 46.9196 271.36 48.666C272.287 50.4125 272.75 52.4189 272.75 54.6854C272.75 56.9518 272.287 58.9799 271.36 60.7697C270.434 62.5595 269.157 63.9506 267.534 64.9473C265.911 65.944 264.119 66.4424 262.154 66.4424C260.435 66.4424 258.907 66.0957 257.57 65.398C256.232 64.7003 255.142 63.8335 254.298 62.7978V76.8083H249.631V43.5091H254.298V46.8243ZM268.001 54.6897C268.001 53.134 267.681 51.7862 267.041 50.6552C266.4 49.5198 265.556 48.6617 264.504 48.0767C263.452 47.4916 262.327 47.197 261.128 47.197C259.955 47.197 258.842 47.496 257.795 48.0983C256.743 48.7007 255.899 49.5718 255.258 50.7202C254.618 51.8686 254.298 53.2206 254.298 54.7764C254.298 56.3321 254.618 57.6929 255.258 58.8499C255.899 60.0113 256.743 60.891 257.795 61.4934C258.847 62.0958 259.955 62.3948 261.128 62.3948C262.327 62.3948 263.452 62.0871 264.504 61.4718C265.556 60.8564 266.4 59.9637 267.041 58.7893C267.681 57.6105 268.001 56.2455 268.001 54.6897Z" fill="white"/>
<path d="M272.209 35.8603L270.304 32.5495H269.27V35.8603H267.915V27.5789H270.772C271.408 27.5789 271.945 27.6915 272.382 27.9126C272.823 28.1336 273.152 28.4326 273.369 28.8053C273.585 29.178 273.698 29.594 273.698 30.0577C273.698 30.5994 273.542 31.0891 273.226 31.5311C272.914 31.9731 272.43 32.2721 271.78 32.4325L273.828 35.8647H272.209V35.8603ZM269.27 31.4618H270.767C271.274 31.4618 271.659 31.3361 271.914 31.0804C272.17 30.8247 272.3 30.4867 272.3 30.0577C272.3 29.6286 272.174 29.295 271.919 29.0523C271.663 28.8096 271.278 28.6883 270.763 28.6883H269.265V31.4618H269.27Z" fill="white"/>
<path d="M277.879 32.5365L280 35.8603H278.463L277.048 33.6329L275.715 35.8603H274.299L276.416 32.6318L274.299 29.295H275.836L277.251 31.5224L278.585 29.295H280L277.879 32.5365Z" fill="white"/>
</svg>
