<svg width="16" height="16" viewBox="0 0 16 16" fill="none" xmlns="http://www.w3.org/2000/svg">
<path d="M13.9266 8.6665V9.33317H13.3466C12.8532 9.33317 12.4532 9.73317 12.4532 10.2332V10.4332C12.4532 10.9332 12.0532 11.3332 11.5532 11.3332C11.0599 11.3332 10.6599 10.9332 10.6599 10.4332V10.2332C10.6599 9.73317 10.2532 9.33317 9.75991 9.33317C9.26658 9.33317 8.86658 9.73317 8.86658 10.2332V10.4332C8.86658 10.9332 8.45991 11.3332 7.96658 11.3332C7.47324 11.3332 7.06658 10.9332 7.06658 10.4332V10.2332C7.06658 9.73317 6.66658 9.33317 6.17324 9.33317C5.67991 9.33317 5.27324 9.73317 5.27324 10.2332V10.4332C5.27324 10.9332 4.87324 11.3332 4.37991 11.3332C3.87991 11.3332 3.47991 10.9332 3.47991 10.4332V10.2198C3.47991 9.7265 3.08658 9.3265 2.59991 9.31984H2.07324V8.6665C2.07324 7.7465 2.76658 6.9665 3.70658 6.73984C3.89324 6.69317 4.08658 6.6665 4.29324 6.6665H11.7066C11.9132 6.6665 12.1066 6.69317 12.2932 6.73984C13.2332 6.9665 13.9266 7.7465 13.9266 8.6665Z" fill="#2EC66F"/>
<path d="M12.2932 4.78016V6.74016C12.1065 6.6935 11.9132 6.66683 11.7065 6.66683H4.29321C4.08654 6.66683 3.89321 6.6935 3.70654 6.74016V4.78016C3.70654 3.98016 4.42654 3.3335 5.31988 3.3335H10.6799C11.5732 3.3335 12.2932 3.98016 12.2932 4.78016Z" fill="#C0EED4"/>
<path d="M5.8335 2.36644V3.33977H5.32016C5.14683 3.33977 4.98683 3.35977 4.8335 3.39977V2.36644C4.8335 2.13311 5.06016 1.93311 5.3335 1.93311C5.60683 1.93311 5.8335 2.13311 5.8335 2.36644Z" fill="#2EC66F"/>
<path d="M11.1665 2.22021V3.40021C11.0132 3.35355 10.8532 3.33355 10.6798 3.33355H10.1665V2.22021C10.1665 1.94688 10.3932 1.72021 10.6665 1.72021C10.9398 1.72021 11.1665 1.94688 11.1665 2.22021Z" fill="#2EC66F"/>
<path d="M8.5 1.88016V3.3335H7.5V1.88016C7.5 1.58016 7.72667 1.3335 8 1.3335C8.27333 1.3335 8.5 1.58016 8.5 1.88016Z" fill="#2EC66F"/>
<path d="M14.1668 13.6665H13.9268V9.33316H13.3468C12.8535 9.33316 12.4535 9.73316 12.4535 10.2332V10.4332C12.4535 10.9332 12.0535 11.3332 11.5535 11.3332C11.0602 11.3332 10.6602 10.9332 10.6602 10.4332V10.2332C10.6602 9.73316 10.2535 9.33316 9.76016 9.33316C9.26683 9.33316 8.86683 9.73316 8.86683 10.2332V10.4332C8.86683 10.9332 8.46016 11.3332 7.96683 11.3332C7.4735 11.3332 7.06683 10.9332 7.06683 10.4332V10.2332C7.06683 9.73316 6.66683 9.33316 6.1735 9.33316C5.68016 9.33316 5.2735 9.73316 5.2735 10.2332V10.4332C5.2735 10.9332 4.8735 11.3332 4.38016 11.3332C3.88016 11.3332 3.48016 10.9332 3.48016 10.4332V10.2198C3.48016 9.72649 3.08683 9.32649 2.60016 9.31982H2.0735V13.6665H1.8335C1.56016 13.6665 1.3335 13.8932 1.3335 14.1665C1.3335 14.4398 1.56016 14.6665 1.8335 14.6665H2.0735H13.9268H14.1668C14.4402 14.6665 14.6668 14.4398 14.6668 14.1665C14.6668 13.8932 14.4402 13.6665 14.1668 13.6665Z" fill="#C0EED4"/>
</svg>
