<svg width="18" height="18" viewBox="0 0 18 18" fill="none" xmlns="http://www.w3.org/2000/svg">
<g clip-path="url(#clip0_525_21214)">
<path d="M12.1141 1.46571C12.1141 1.12471 11.9786 0.797688 11.7375 0.55657C11.4964 0.315451 11.1694 0.179993 10.8284 0.179993C10.4874 0.179993 10.1604 0.315451 9.91924 0.55657C9.67812 0.797688 9.54266 1.12471 9.54266 1.46571V12.4971C9.54292 12.9786 9.40039 13.4492 9.13311 13.8497C8.86583 14.2501 8.4858 14.5622 8.04109 14.7466C7.59639 14.9311 7.10698 14.9794 6.63477 14.8857C6.16256 14.7919 5.72877 14.5602 5.38826 14.2199C5.04775 13.8795 4.81582 13.4459 4.72181 12.9737C4.62779 12.5016 4.67592 12.0121 4.86009 11.5673C5.04427 11.1225 5.35622 10.7423 5.75649 10.4748C6.15676 10.2073 6.62738 10.0646 7.1088 10.0646C7.4498 10.0646 7.77682 9.9291 8.01794 9.68799C8.25906 9.44687 8.39452 9.11984 8.39452 8.77885C8.39452 8.43786 8.25906 8.11083 8.01794 7.86971C7.77682 7.62859 7.4498 7.49314 7.1088 7.49314C6.11885 7.49314 5.15113 7.78669 4.32802 8.33668C3.5049 8.88667 2.86336 9.66838 2.48452 10.583C2.10568 11.4976 2.00656 12.504 2.19969 13.4749C2.39282 14.4458 2.86953 15.3377 3.56953 16.0377C4.26953 16.7377 5.16139 17.2144 6.13232 17.4075C7.10325 17.6007 8.10965 17.5015 9.02424 17.1227C9.93884 16.7439 10.7206 16.1023 11.2705 15.2792C11.8205 14.4561 12.1141 13.4884 12.1141 12.4984V6.79242C13.3154 7.74871 14.8061 8.26827 16.3415 8.26585C16.6825 8.26585 17.0095 8.13039 17.2507 7.88927C17.4918 7.64815 17.6272 7.32113 17.6272 6.98014C17.6272 6.63914 17.4918 6.31212 17.2507 6.071C17.0095 5.82988 16.6825 5.69442 16.3415 5.69442C15.2203 5.69442 14.1451 5.24903 13.3523 4.45624C12.5595 3.66344 12.1141 2.58818 12.1141 1.46699V1.46571Z" fill="#EA5353"/>
</g>
<defs>
<clipPath id="clip0_525_21214">
<rect width="18" height="18" fill="white"/>
</clipPath>
</defs>
</svg>
