<svg width="15" height="14" viewBox="0 0 15 14" fill="none" xmlns="http://www.w3.org/2000/svg">
<path d="M12.5286 4.92909C11.9161 2.23409 9.5653 1.02075 7.5003 1.02075C7.5003 1.02075 7.5003 1.02075 7.49447 1.02075C5.4353 1.02075 3.07863 2.22825 2.46613 4.92325C1.78363 7.93325 3.62697 10.4824 5.2953 12.0866C5.91363 12.6816 6.70697 12.9791 7.5003 12.9791C8.29363 12.9791 9.08697 12.6816 9.69947 12.0866C11.3678 10.4824 13.2111 7.93909 12.5286 4.92909Z" fill="#B9E0D7"/>
<path d="M7.49961 7.85176C8.51443 7.85176 9.33711 7.02908 9.33711 6.01426C9.33711 4.99943 8.51443 4.17676 7.49961 4.17676C6.48479 4.17676 5.66211 4.99943 5.66211 6.01426C5.66211 7.02908 6.48479 7.85176 7.49961 7.85176Z" fill="#1D9C7D"/>
</svg>
