<svg width="220" height="220" viewBox="0 0 220 220" fill="none" xmlns="http://www.w3.org/2000/svg">
<g clip-path="url(#clip0_784_11765)">
<g clip-path="url(#clip1_784_11765)">
<path d="M200.655 150.787L57.1604 142.852C54.5489 142.715 52.1201 140.721 51.7347 138.399L44.0015 55.2296C43.6086 52.8896 45.3542 50.9801 47.9019 50.9651L181.883 50.9351C184.442 50.9476 186.91 53.0323 187.394 55.59L204.542 146.489C205.019 149.027 203.279 150.951 200.656 150.787H200.655Z" fill="url(#paint0_linear_784_11765)"/>
<path d="M158.219 163.517L18.0781 154.571C15.5254 154.416 13.9388 152.168 14.5344 149.551L41.9584 55.7777C42.5553 53.1386 45.1079 50.9851 47.6606 50.9701L181.655 50.9363C184.207 50.9513 185.794 53.3013 185.198 56.1844L163.922 158.673C163.325 161.536 160.773 163.704 158.22 163.519L158.219 163.517Z" fill="url(#paint1_linear_784_11765)"/>
<path d="M151.074 150.886L25.5662 143.109C23.1749 142.974 21.6883 141.02 22.2477 138.744L42.175 57.2217C42.7331 54.928 45.1256 53.0561 47.5169 53.0423L173.025 53.0123C175.416 53.0248 176.902 55.0682 176.343 57.5746L156.414 146.673C155.856 149.161 153.464 151.047 151.073 150.886H151.074Z" fill="url(#paint2_linear_784_11765)"/>
<path d="M151.074 150.886L25.5662 143.109C23.1749 142.974 21.6883 141.02 22.2477 138.744L42.175 57.2218C42.7331 54.9281 45.1256 53.0561 47.5169 53.0423L173.025 53.0123C175.416 53.0248 176.902 55.0682 176.343 57.5746L156.414 146.673C155.856 149.161 153.464 151.047 151.073 150.886H151.074Z" fill="url(#paint3_linear_784_11765)"/>
<mask id="mask0_784_11765" style="mask-type:luminance" maskUnits="userSpaceOnUse" x="14" y="46" width="157" height="95">
<path d="M145.478 140.46L18.0385 134.531C15.0078 134.32 13.1708 131.087 14.541 128.376C14.6487 128.162 14.7275 128.007 14.7675 127.935C21.3495 116.045 26.8203 103.331 30.9609 90.4056C35.0202 77.7322 38.7992 64.5358 38.9055 51.1091C38.9243 48.7454 40.8726 46.8534 43.2351 46.8984L166.559 48.5827C169.024 48.6302 170.935 50.7562 170.712 53.2126C169.549 66.0249 167.554 79.2651 164.596 91.7908C161.774 103.741 157.696 115.349 153.818 126.984C152.603 130.632 151.183 134.258 149.706 137.835C149.007 139.528 147.306 140.587 145.478 140.46Z" fill="white"/>
</mask>
<g mask="url(#mask0_784_11765)">
<path d="M145.478 140.46L18.0385 134.531C15.0078 134.32 13.1708 131.087 14.541 128.376C14.6487 128.162 14.7275 128.007 14.7675 127.935C21.3495 116.045 26.8203 103.331 30.9609 90.4056C35.0202 77.7322 38.7992 64.5358 38.9055 51.1091C38.9243 48.7454 40.8726 46.8534 43.2351 46.8984L166.559 48.5827C169.024 48.6302 170.935 50.7562 170.712 53.2126C169.549 66.0249 167.554 79.2651 164.596 91.7908C161.774 103.741 157.696 115.349 153.818 126.984C152.603 130.632 151.183 134.258 149.706 137.835C149.007 139.528 147.306 140.587 145.478 140.46Z" fill="url(#paint4_radial_784_11765)"/>
<path d="M145.478 140.46L18.0385 134.531C15.0078 134.32 13.1708 131.087 14.541 128.376C14.6487 128.162 14.7275 128.007 14.7675 127.935C21.3495 116.045 26.8203 103.331 30.9609 90.4057C35.0202 77.7323 38.7992 64.5358 38.9055 51.1091C38.9243 48.7454 40.8726 46.8534 43.2351 46.8984L166.559 48.5827C169.024 48.6303 170.935 50.7563 170.712 53.2126C169.549 66.0249 167.554 79.2652 164.596 91.7909C161.774 103.741 157.696 115.35 153.818 126.984C152.603 130.632 151.183 134.258 149.706 137.835C149.007 139.528 147.306 140.587 145.478 140.46Z" fill="url(#paint5_linear_784_11765)"/>
</g>
<path d="M66.5417 79.8356C63.1794 79.728 59.8158 79.6191 56.4535 79.5115C54.8481 79.4602 53.7795 78.2689 54.041 76.8524C54.5903 73.8868 55.0583 70.9274 55.445 67.9756C55.6302 66.5653 57.0654 65.4667 58.6759 65.518C62.0482 65.6256 65.4205 65.7332 68.7916 65.8396C70.402 65.8909 71.5745 67.0734 71.3843 68.4836C70.9876 71.4367 70.5096 74.3974 69.9516 77.363C69.685 78.7795 68.1471 79.8869 66.5417 79.8343V79.8356ZM95.5624 78.1864C96.1355 75.2195 96.6272 72.2576 97.0389 69.3032C97.2354 67.893 96.0692 66.7092 94.46 66.6579C91.0889 66.5503 87.7166 66.4427 84.3455 66.3351C82.7351 66.2838 81.2948 67.3837 81.1021 68.7939C80.6992 71.7471 80.2161 74.7089 79.653 77.6746C79.384 79.0911 80.4464 80.2823 82.0531 80.3336C85.4154 80.4412 88.7777 80.5501 92.14 80.6577C93.7454 80.709 95.2896 79.6016 95.5624 78.1851V78.1864ZM121.168 79.0085C121.756 76.0403 122.263 73.0785 122.69 70.1216C122.894 68.7101 121.734 67.5263 120.125 67.475C116.754 67.3674 113.382 67.2598 110.011 67.1522C108.401 67.1009 106.956 68.2008 106.755 69.6123C106.339 72.5679 105.841 75.5298 105.261 78.4967C104.985 79.9132 106.042 81.1057 107.648 81.157C111.01 81.2646 114.371 81.3735 117.733 81.4811C119.337 81.5324 120.888 80.425 121.168 79.0072V79.0085ZM146.77 79.8318C147.373 76.8637 147.895 73.8993 148.337 70.9425C148.548 69.531 147.393 68.346 145.784 68.2947C142.414 68.187 139.043 68.0794 135.672 67.9718C134.062 67.9205 132.612 69.0217 132.404 70.4332C131.972 73.39 131.459 76.3532 130.865 79.3213C130.582 80.7378 131.632 81.9303 133.237 81.9816C136.598 82.0892 139.959 82.1981 143.32 82.3057C144.925 82.357 146.48 81.2496 146.768 79.8318H146.77ZM60.9858 100.162C57.6348 100.054 54.2837 99.9456 50.9327 99.838C49.3323 99.7867 48.3938 98.5954 48.8092 97.1789C49.6814 94.2133 50.4722 91.2539 51.1817 88.302C51.5208 86.8918 53.075 85.7931 54.6804 85.8444C58.0415 85.9521 61.4013 86.0597 64.7611 86.166C66.3653 86.2173 67.4089 87.3998 67.0648 88.8101C66.3465 91.7632 65.5456 94.7238 64.6635 97.6895C64.243 99.106 62.5838 100.213 60.9833 100.161L60.9858 100.162ZM90.1867 98.5128C91.0839 95.546 91.8985 92.5841 92.633 89.6297C92.9834 88.2195 91.946 87.0357 90.3418 86.9844C86.982 86.8768 83.6222 86.7692 80.2624 86.6616C78.657 86.6103 77.0979 87.7102 76.7512 89.1204C76.0267 92.0735 75.2209 95.0354 74.3337 98.001C73.9107 99.4175 74.843 100.609 76.4434 100.66C79.7945 100.768 83.1442 100.877 86.4953 100.984C88.0945 101.036 89.76 99.9281 90.1879 98.5116L90.1867 98.5128ZM115.704 99.335C116.616 96.3668 117.445 93.4049 118.195 90.4481C118.553 89.0366 117.522 87.8528 115.918 87.8015C112.559 87.6939 109.199 87.5863 105.839 87.4787C104.235 87.4274 102.669 88.5273 102.316 89.9388C101.576 92.8944 100.755 95.8563 99.8531 98.8232C99.4227 100.24 100.349 101.432 101.949 101.483C105.299 101.591 108.649 101.7 111.998 101.808C113.598 101.859 115.268 100.751 115.704 99.3337V99.335ZM141.216 100.158C142.143 97.1902 142.987 94.2258 143.752 91.2689C144.117 89.8574 143.093 88.6724 141.488 88.6211C138.13 88.5135 134.771 88.4059 131.413 88.2983C129.809 88.247 128.237 89.3482 127.877 90.7596C127.122 93.7165 126.286 96.6797 125.368 99.6478C124.93 101.064 125.851 102.257 127.45 102.308C130.8 102.416 134.148 102.525 137.498 102.632C139.097 102.683 140.773 101.576 141.216 100.158ZM53.5755 120.161C50.2357 120.053 46.8959 119.944 43.5562 119.837C41.9607 119.785 41.1474 118.594 41.7105 117.178C42.893 114.212 43.9929 111.253 45.0114 108.301C45.4982 106.89 47.1675 105.792 48.7667 105.843C52.1165 105.951 55.465 106.058 58.8135 106.165C60.4127 106.216 61.3324 107.398 60.8419 108.809C59.8146 111.762 58.7047 114.722 57.5134 117.688C56.9441 119.105 55.1697 120.212 53.5755 120.159V120.161ZM82.9478 118.511C84.1541 115.545 85.279 112.583 86.3226 109.628C86.8206 108.218 85.9072 107.034 84.308 106.983C80.9594 106.875 77.6109 106.768 74.2624 106.66C72.6632 106.609 70.9876 107.709 70.4946 109.119C69.461 112.072 68.3461 115.034 67.1486 118C66.578 119.416 67.3851 120.607 68.9805 120.659C72.3203 120.766 75.6588 120.875 78.9986 120.983C80.5928 121.034 82.3734 119.927 82.949 118.51L82.9478 118.511ZM108.378 119.334C109.6 116.365 110.741 113.404 111.798 110.447C112.304 109.035 111.397 107.851 109.797 107.8C106.449 107.693 103.102 107.585 99.753 107.477C98.1539 107.426 96.4733 108.526 95.9728 109.937C94.9242 112.893 93.7942 115.855 92.5817 118.822C92.0036 120.238 92.8057 121.431 94.3999 121.482C97.7384 121.59 101.077 121.699 104.415 121.806C106.01 121.858 107.795 120.75 108.378 119.332V119.334ZM133.805 120.157C135.043 117.189 136.198 114.224 137.27 111.268C137.783 109.856 136.881 108.671 135.283 108.62C131.936 108.512 128.589 108.405 125.241 108.297C123.642 108.246 121.955 109.347 121.447 110.758C120.384 113.715 119.237 116.678 118.01 119.646C117.424 121.063 118.22 122.255 119.814 122.307C123.153 122.414 126.49 122.523 129.829 122.631C131.422 122.682 133.213 121.575 133.804 120.157H133.805Z" fill="url(#paint6_linear_784_11765)"/>
<path d="M57.1695 48.8153C57.5249 48.301 57.829 47.7454 58.1718 47.1861C58.2995 46.9771 58.4284 46.7669 58.5084 46.5354C58.556 46.3965 58.5873 46.2488 58.6699 46.1262C58.8888 45.7984 59.3606 45.7871 59.7523 45.8296C61.3152 45.9973 61.7644 46.8732 61.7018 48.3636C61.5942 50.9475 60.5819 53.4314 58.7374 55.2333C57.2646 56.6711 55.444 57.4419 53.3805 57.4194C52.9914 57.4156 52.5922 57.3831 52.2381 57.2242C51.5261 56.9051 51.1094 56.0992 51.1094 55.3197C51.1094 52.5092 54.1764 51.4881 55.9908 50.0979C56.475 49.7263 56.8454 49.2895 57.1733 48.8165L57.1695 48.8153Z" fill="url(#paint7_radial_784_11765)"/>
<path d="M61.4934 46.2026C61.4058 45.8034 61.307 45.4067 61.1906 45.0151C60.9779 44.2918 60.7139 43.5811 60.3785 42.9029C59.8192 41.7829 59.0333 40.7093 57.9234 40.0874C57.2214 39.6957 56.4218 39.5243 55.621 39.5693C52.5465 39.7458 50.6207 42.8278 50.0313 46.9897C49.8624 48.1747 49.8011 49.4498 49.8549 50.7699C49.9012 51.9074 50.0438 53.0411 50.2979 54.151C50.6044 55.5012 51.0624 57.9563 52.9895 57.5959C54.1269 57.3832 54.1482 55.9441 53.744 55.0895C53.3961 54.3512 52.9582 53.7781 52.7792 52.961C52.6153 52.2039 52.5878 51.4206 52.6166 50.646C52.6629 49.4435 52.793 48.1809 53.0232 47.0297C53.4825 44.7098 54.3409 42.8403 55.7111 42.799C56.5945 42.7727 57.1676 43.4322 57.498 44.183C57.7132 44.6672 57.8483 45.1865 57.9522 45.7046C58.0398 46.135 58.0435 46.5805 58.1437 47.0084C58.1512 47.0397 58.1587 47.071 58.1674 47.0998L61.7299 47.1486C61.7299 46.8458 61.546 46.4403 61.4934 46.2001V46.2026Z" fill="url(#paint8_radial_784_11765)"/>
<path d="M61.4944 46.2026C61.4068 45.8034 61.308 45.4068 61.1916 45.0151C60.9789 44.2918 60.7148 43.5811 60.3795 42.9029C59.8202 41.7829 59.0343 40.7093 57.9244 40.0874C57.2224 39.6957 56.4228 39.5243 55.622 39.5693C52.5475 39.7458 50.6217 42.8278 50.0323 46.9897C49.8634 48.1747 49.8021 49.4498 49.8559 50.7699C49.9022 51.9074 50.0448 53.0411 50.2988 54.151C50.6054 55.5012 51.0634 57.9563 52.9904 57.5959C54.1279 57.3832 54.1492 55.9441 53.745 55.0895C53.3971 54.3512 52.9592 53.7781 52.7802 52.961C52.6163 52.2039 52.5888 51.4206 52.6175 50.646C52.6638 49.4435 52.794 48.1809 53.0242 47.0297C53.4835 44.7098 54.3419 42.8403 55.7121 42.799C56.5955 42.7727 57.1686 43.4322 57.4989 44.183C57.7142 44.6672 57.8493 45.1865 57.9532 45.7046C58.0408 46.135 58.0445 46.5805 58.1446 47.0085C58.1521 47.0397 58.1596 47.071 58.1684 47.0998L61.7309 47.1486C61.7309 46.8458 61.547 46.4404 61.4944 46.2001V46.2026Z" fill="url(#paint9_radial_784_11765)"/>
<path d="M61.4944 46.2026C61.4068 45.8034 61.308 45.4068 61.1916 45.0151C60.9789 44.2918 60.7148 43.5811 60.3795 42.9029C59.8202 41.7829 59.0343 40.7093 57.9244 40.0874C57.2224 39.6957 56.4228 39.5243 55.622 39.5693C52.5475 39.7458 50.6217 42.8278 50.0323 46.9897C49.8634 48.1747 49.8021 49.4498 49.8559 50.7699C49.9022 51.9074 50.0448 53.0411 50.2988 54.151C50.6054 55.5012 51.0634 57.9563 52.9904 57.5959C54.1279 57.3832 54.1492 55.9441 53.745 55.0895C53.3971 54.3512 52.9592 53.7781 52.7802 52.961C52.6163 52.2039 52.5888 51.4206 52.6175 50.646C52.6638 49.4435 52.794 48.1809 53.0242 47.0297C53.4835 44.7098 54.3419 42.8403 55.7121 42.799C56.5955 42.7727 57.1686 43.4322 57.4989 44.183C57.7142 44.6672 57.8493 45.1865 57.9532 45.7046C58.0408 46.135 58.0445 46.5805 58.1446 47.0085C58.1521 47.0397 58.1596 47.071 58.1684 47.0998L61.7309 47.1486C61.7309 46.8458 61.547 46.4404 61.4944 46.2001V46.2026Z" fill="url(#paint10_radial_784_11765)"/>
<path d="M82.0992 49.1195C82.4546 48.6052 82.7587 48.0496 83.1015 47.4902C83.2292 47.2813 83.358 47.0711 83.4381 46.8396C83.4857 46.7007 83.517 46.553 83.5995 46.4304C83.8185 46.1025 84.2903 46.0913 84.6819 46.1338C86.2448 46.3015 86.6941 47.1774 86.6315 48.6677C86.5239 51.2517 85.5116 53.7356 83.6671 55.5375C82.1943 56.9753 80.3736 57.7461 78.3102 57.7236C77.9211 57.7198 77.5219 57.6873 77.1678 57.5284C76.4558 57.2093 76.0391 56.4034 76.0391 55.6238C76.0391 52.8134 79.1061 51.7923 80.9205 50.4021C81.4047 50.0304 81.7751 49.5937 82.103 49.1207L82.0992 49.1195Z" fill="url(#paint11_radial_784_11765)"/>
<path d="M86.4222 46.5067C86.3346 46.1075 86.2357 45.7108 86.1193 45.3191C85.9066 44.5959 85.6426 43.8851 85.3072 43.2069C84.7479 42.087 83.9621 41.0133 82.8521 40.3914C82.1501 39.9998 81.3505 39.8283 80.5497 39.8734C77.4752 40.0498 75.5494 43.1318 74.96 47.2937C74.7911 48.4787 74.7298 49.7538 74.7836 51.074C74.8299 52.2114 74.9726 53.3451 75.2266 54.4551C75.5331 55.8052 75.9911 58.2603 77.9182 57.8999C79.0556 57.6872 79.0769 56.2482 78.6727 55.3935C78.3248 54.6553 77.8869 54.0822 77.7079 53.265C77.544 52.508 77.5165 51.7247 77.5453 50.9501C77.5916 49.7476 77.7217 48.485 77.952 47.3338C78.4112 45.0138 79.2696 43.1443 80.6398 43.1031C81.5232 43.0768 82.0963 43.7362 82.4267 44.487C82.6419 44.9713 82.7771 45.4906 82.8809 46.0086C82.9685 46.4391 82.9723 46.8846 83.0724 47.3125C83.0799 47.3438 83.0874 47.3751 83.0961 47.4038L86.6587 47.4527C86.6587 47.1498 86.4747 46.7444 86.4222 46.5041V46.5067Z" fill="url(#paint12_radial_784_11765)"/>
<path d="M86.4212 46.5067C86.3336 46.1075 86.2347 45.7108 86.1184 45.3192C85.9056 44.5959 85.6416 43.8851 85.3062 43.2069C84.7469 42.087 83.9611 41.0134 82.8512 40.3914C82.1492 39.9998 81.3496 39.8283 80.5487 39.8734C77.4742 40.0498 75.5484 43.1318 74.9591 47.2937C74.7901 48.4787 74.7288 49.7538 74.7826 51.074C74.8289 52.2114 74.9716 53.3451 75.2256 54.4551C75.5322 55.8052 75.9902 58.2603 77.9172 57.8999C79.0546 57.6872 79.0759 56.2482 78.6717 55.3935C78.3239 54.6553 77.8859 54.0822 77.707 53.265C77.543 52.508 77.5155 51.7247 77.5443 50.9501C77.5906 49.7476 77.7207 48.485 77.951 47.3338C78.4102 45.0138 79.2686 43.1444 80.6388 43.1031C81.5223 43.0768 82.0954 43.7362 82.4257 44.487C82.6409 44.9713 82.7761 45.4906 82.8799 46.0086C82.9675 46.4391 82.9713 46.8846 83.0714 47.3125C83.0789 47.3438 83.0864 47.3751 83.0952 47.4039L86.6577 47.4527C86.6577 47.1498 86.4737 46.7444 86.4212 46.5042V46.5067Z" fill="url(#paint13_radial_784_11765)"/>
<path d="M86.4212 46.5067C86.3336 46.1075 86.2347 45.7108 86.1184 45.3192C85.9056 44.5959 85.6416 43.8851 85.3062 43.2069C84.7469 42.087 83.9611 41.0134 82.8512 40.3914C82.1492 39.9998 81.3496 39.8283 80.5487 39.8734C77.4742 40.0498 75.5484 43.1318 74.9591 47.2937C74.7901 48.4787 74.7288 49.7538 74.7826 51.074C74.8289 52.2114 74.9716 53.3451 75.2256 54.4551C75.5322 55.8052 75.9902 58.2603 77.9172 57.8999C79.0546 57.6872 79.0759 56.2482 78.6717 55.3935C78.3239 54.6553 77.8859 54.0822 77.707 53.265C77.543 52.508 77.5155 51.7247 77.5443 50.9501C77.5906 49.7476 77.7207 48.485 77.951 47.3338C78.4102 45.0138 79.2686 43.1444 80.6388 43.1031C81.5223 43.0768 82.0954 43.7362 82.4257 44.487C82.6409 44.9713 82.7761 45.4906 82.8799 46.0086C82.9675 46.4391 82.9713 46.8846 83.0714 47.3125C83.0789 47.3438 83.0864 47.3751 83.0952 47.4039L86.6577 47.4527C86.6577 47.1498 86.4737 46.7444 86.4212 46.5042V46.5067Z" fill="url(#paint14_radial_784_11765)"/>
<path d="M107.032 49.4235C107.387 48.9092 107.691 48.3536 108.034 47.7943C108.162 47.5853 108.291 47.3751 108.371 47.1436C108.418 47.0047 108.45 46.8571 108.532 46.7344C108.751 46.4066 109.223 46.3953 109.615 46.4379C111.177 46.6055 111.627 47.4815 111.564 48.9718C111.457 51.5558 110.444 54.0397 108.6 55.8416C107.127 57.2793 105.306 58.0501 103.243 58.0276C102.854 58.0239 102.454 57.9913 102.1 57.8324C101.388 57.5133 100.972 56.7075 100.972 55.9279C100.972 53.1174 104.039 52.0963 105.853 50.7061C106.337 50.3345 106.708 49.8978 107.036 49.4248L107.032 49.4235Z" fill="url(#paint15_radial_784_11765)"/>
<path d="M111.353 46.8107C111.265 46.4115 111.166 46.0149 111.05 45.6232C110.837 44.8999 110.573 44.1892 110.238 43.511C109.679 42.391 108.893 41.3174 107.783 40.6955C107.081 40.3038 106.281 40.1324 105.48 40.1775C102.406 40.3539 100.48 43.4359 99.8907 47.5978C99.7218 48.7828 99.6605 50.0579 99.7143 51.378C99.7606 52.5155 99.9032 53.6492 100.157 54.7591C100.464 56.1093 100.922 58.5644 102.849 58.204C103.986 57.9913 104.008 56.5523 103.603 55.6976C103.256 54.9593 102.818 54.3862 102.639 53.5691C102.475 52.8121 102.447 52.0287 102.476 51.2542C102.522 50.0516 102.652 48.7891 102.883 47.6378C103.342 45.3179 104.2 43.4484 105.57 43.4071C106.454 43.3808 107.027 44.0403 107.357 44.7911C107.573 45.2753 107.708 45.7946 107.812 46.3127C107.899 46.7431 107.903 47.1886 108.003 47.6166C108.011 47.6478 108.018 47.6791 108.027 47.7079L111.589 47.7567C111.589 47.4539 111.405 47.0485 111.353 46.8082V46.8107Z" fill="url(#paint16_radial_784_11765)"/>
<path d="M111.352 46.8107C111.264 46.4115 111.165 46.0149 111.049 45.6232C110.836 44.8999 110.572 44.1892 110.237 43.511C109.678 42.391 108.892 41.3174 107.782 40.6955C107.08 40.3038 106.28 40.1324 105.479 40.1775C102.405 40.3539 100.479 43.4359 99.8897 47.5978C99.7208 48.7828 99.6595 50.0579 99.7133 51.378C99.7596 52.5155 99.9022 53.6492 100.156 54.7591C100.463 56.1093 100.921 58.5644 102.848 58.204C103.985 57.9913 104.007 56.5523 103.602 55.6976C103.255 54.9593 102.817 54.3862 102.638 53.5691C102.474 52.8121 102.446 52.0287 102.475 51.2542C102.521 50.0516 102.651 48.7891 102.882 47.6378C103.341 45.3179 104.199 43.4484 105.569 43.4071C106.453 43.3808 107.026 44.0403 107.356 44.7911C107.572 45.2753 107.707 45.7946 107.811 46.3127C107.898 46.7431 107.902 47.1886 108.002 47.6166C108.01 47.6478 108.017 47.6791 108.026 47.7079L111.588 47.7567C111.588 47.4539 111.404 47.0485 111.352 46.8082V46.8107Z" fill="url(#paint17_radial_784_11765)"/>
<path d="M111.352 46.8107C111.264 46.4115 111.165 46.0149 111.049 45.6232C110.836 44.8999 110.572 44.1892 110.237 43.511C109.678 42.391 108.892 41.3174 107.782 40.6955C107.08 40.3038 106.28 40.1324 105.479 40.1775C102.405 40.3539 100.479 43.4359 99.8897 47.5978C99.7208 48.7828 99.6595 50.0579 99.7133 51.378C99.7596 52.5155 99.9022 53.6492 100.156 54.7591C100.463 56.1093 100.921 58.5644 102.848 58.204C103.985 57.9913 104.007 56.5523 103.602 55.6976C103.255 54.9593 102.817 54.3862 102.638 53.5691C102.474 52.8121 102.446 52.0287 102.475 51.2542C102.521 50.0516 102.651 48.7891 102.882 47.6378C103.341 45.3179 104.199 43.4484 105.569 43.4071C106.453 43.3808 107.026 44.0403 107.356 44.7911C107.572 45.2753 107.707 45.7946 107.811 46.3127C107.898 46.7431 107.902 47.1886 108.002 47.6166C108.01 47.6478 108.017 47.6791 108.026 47.7079L111.588 47.7567C111.588 47.4539 111.404 47.0485 111.352 46.8082V46.8107Z" fill="url(#paint18_radial_784_11765)"/>
<path d="M131.962 49.7939C132.318 49.2796 132.622 48.724 132.965 48.1646C133.092 47.9557 133.221 47.7454 133.301 47.5139C133.349 47.375 133.38 47.2274 133.463 47.1048C133.682 46.7769 134.154 46.7657 134.545 46.8082C136.108 46.9759 136.557 47.8518 136.495 49.3421C136.387 51.9261 135.375 54.41 133.53 56.2119C132.058 57.6497 130.237 58.4205 128.173 58.3979C127.784 58.3929 127.385 58.3617 127.031 58.2027C126.319 57.8837 125.902 57.0778 125.902 56.2982C125.902 53.4878 128.969 52.4667 130.784 51.0765C131.268 50.7048 131.638 50.2681 131.966 49.7951L131.962 49.7939Z" fill="url(#paint19_radial_784_11765)"/>
<path d="M136.286 47.1811C136.199 46.782 136.1 46.3853 135.984 45.9936C135.771 45.2704 135.507 44.5596 135.171 43.8814C134.612 42.7615 133.826 41.6878 132.716 41.0659C132.014 40.6743 131.215 40.5028 130.414 40.5479C127.339 40.7243 125.414 43.8063 124.824 47.9682C124.655 49.1532 124.594 50.4283 124.648 51.7485C124.694 52.8859 124.837 54.0196 125.091 55.1295C125.397 56.4797 125.855 58.9348 127.782 58.5744C128.92 58.3617 128.941 56.9227 128.537 56.068C128.189 55.3297 127.751 54.7566 127.572 53.9395C127.408 53.1825 127.381 52.3991 127.41 51.6246C127.456 50.4221 127.586 49.1595 127.816 48.0083C128.275 45.6883 129.134 43.8188 130.504 43.7775C131.387 43.7513 131.961 44.4107 132.291 45.1615C132.506 45.6458 132.641 46.1651 132.745 46.6831C132.833 47.1136 132.837 47.559 132.937 47.987C132.944 48.0183 132.952 48.0496 132.96 48.0783L136.523 48.1271C136.523 47.8243 136.339 47.4189 136.286 47.1786V47.1811Z" fill="url(#paint20_radial_784_11765)"/>
<path d="M136.287 47.1812C136.2 46.782 136.101 46.3853 135.985 45.9937C135.772 45.2704 135.508 44.5596 135.172 43.8814C134.613 42.7615 133.827 41.6879 132.717 41.066C132.015 40.6743 131.216 40.5029 130.415 40.5479C127.34 40.7243 125.415 43.8063 124.825 47.9682C124.656 49.1532 124.595 50.4283 124.649 51.7485C124.695 52.8859 124.838 54.0196 125.092 55.1296C125.398 56.4797 125.856 58.9348 127.783 58.5745C128.921 58.3617 128.942 56.9227 128.538 56.0681C128.19 55.3298 127.752 54.7567 127.573 53.9396C127.409 53.1825 127.382 52.3992 127.411 51.6246C127.457 50.4221 127.587 49.1595 127.817 48.0083C128.276 45.6883 129.135 43.8189 130.505 43.7776C131.388 43.7513 131.962 44.4107 132.292 45.1615C132.507 45.6458 132.642 46.1651 132.746 46.6831C132.834 47.1136 132.838 47.5591 132.938 47.987C132.945 48.0183 132.953 48.0496 132.961 48.0784L136.524 48.1272C136.524 47.8243 136.34 47.4189 136.287 47.1787V47.1812Z" fill="url(#paint21_radial_784_11765)"/>
<path d="M136.287 47.1812C136.2 46.782 136.101 46.3853 135.985 45.9937C135.772 45.2704 135.508 44.5596 135.172 43.8814C134.613 42.7615 133.827 41.6879 132.717 41.066C132.015 40.6743 131.216 40.5029 130.415 40.5479C127.34 40.7243 125.415 43.8063 124.825 47.9682C124.656 49.1532 124.595 50.4283 124.649 51.7485C124.695 52.8859 124.838 54.0196 125.092 55.1296C125.398 56.4797 125.856 58.9348 127.783 58.5745C128.921 58.3617 128.942 56.9227 128.538 56.0681C128.19 55.3298 127.752 54.7567 127.573 53.9396C127.409 53.1825 127.382 52.3992 127.411 51.6246C127.457 50.4221 127.587 49.1595 127.817 48.0083C128.276 45.6883 129.135 43.8189 130.505 43.7776C131.388 43.7513 131.962 44.4107 132.292 45.1615C132.507 45.6458 132.642 46.1651 132.746 46.6831C132.834 47.1136 132.838 47.5591 132.938 47.987C132.945 48.0183 132.953 48.0496 132.961 48.0784L136.524 48.1272C136.524 47.8243 136.34 47.4189 136.287 47.1787V47.1812Z" fill="url(#paint22_radial_784_11765)"/>
<path d="M156.893 50.188C157.249 49.6737 157.553 49.1181 157.895 48.5588C158.023 48.3498 158.152 48.1396 158.232 47.9081C158.28 47.7692 158.311 47.6216 158.394 47.4989C158.612 47.1711 159.084 47.1598 159.476 47.2024C161.039 47.37 161.488 48.246 161.425 49.7363C161.318 52.3203 160.306 54.8041 158.461 56.6061C156.988 58.0438 155.168 58.8146 153.104 58.7921C152.715 58.7884 152.316 58.7558 151.962 58.5969C151.25 58.2778 150.833 57.472 150.833 56.6924C150.833 53.8819 153.9 52.8608 155.714 51.4706C156.199 51.099 156.569 50.6623 156.897 50.1893L156.893 50.188Z" fill="url(#paint23_radial_784_11765)"/>
<path d="M161.217 47.5753C161.129 47.1761 161.031 46.7795 160.914 46.3878C160.702 45.6645 160.438 44.9538 160.102 44.2756C159.543 43.1556 158.757 42.082 157.647 41.4601C156.945 41.0684 156.145 40.897 155.345 40.942C152.27 41.1185 150.344 44.2005 149.755 48.3624C149.586 49.5474 149.525 50.8225 149.579 52.1426C149.625 53.2801 149.767 54.4138 150.021 55.5237C150.328 56.8739 150.786 59.329 152.713 58.9686C153.851 58.7559 153.872 57.3168 153.468 56.4622C153.12 55.7239 152.682 55.1508 152.503 54.3337C152.339 53.5766 152.311 52.7933 152.34 52.0187C152.386 50.8162 152.517 49.5536 152.747 48.4024C153.206 46.0825 154.065 44.213 155.435 44.1717C156.318 44.1454 156.891 44.8049 157.222 45.5557C157.437 46.0399 157.572 46.5592 157.676 47.0773C157.763 47.5077 157.767 47.9532 157.867 48.3812C157.875 48.4124 157.882 48.4437 157.891 48.4725L161.454 48.5213C161.454 48.2185 161.27 47.8131 161.217 47.5728V47.5753Z" fill="url(#paint24_radial_784_11765)"/>
<path d="M161.217 47.5753C161.129 47.1762 161.031 46.7795 160.914 46.3878C160.702 45.6646 160.438 44.9538 160.102 44.2756C159.543 43.1557 158.757 42.082 157.647 41.4601C156.945 41.0685 156.145 40.897 155.345 40.9421C152.27 41.1185 150.344 44.2005 149.755 48.3624C149.586 49.5474 149.525 50.8225 149.579 52.1427C149.625 53.2801 149.767 54.4138 150.021 55.5237C150.328 56.8739 150.786 59.329 152.713 58.9686C153.851 58.7559 153.872 57.3169 153.468 56.4622C153.12 55.7239 152.682 55.1508 152.503 54.3337C152.339 53.5767 152.311 52.7933 152.34 52.0188C152.386 50.8163 152.517 49.5537 152.747 48.4025C153.206 46.0825 154.065 44.213 155.435 44.1717C156.318 44.1455 156.891 44.8049 157.222 45.5557C157.437 46.04 157.572 46.5593 157.676 47.0773C157.763 47.5078 157.767 47.9532 157.867 48.3812C157.875 48.4125 157.882 48.4437 157.891 48.4725L161.454 48.5213C161.454 48.2185 161.27 47.8131 161.217 47.5728V47.5753Z" fill="url(#paint25_radial_784_11765)"/>
<path d="M161.217 47.5753C161.129 47.1762 161.031 46.7795 160.914 46.3878C160.702 45.6646 160.438 44.9538 160.102 44.2756C159.543 43.1557 158.757 42.082 157.647 41.4601C156.945 41.0685 156.145 40.897 155.345 40.9421C152.27 41.1185 150.344 44.2005 149.755 48.3624C149.586 49.5474 149.525 50.8225 149.579 52.1427C149.625 53.2801 149.767 54.4138 150.021 55.5237C150.328 56.8739 150.786 59.329 152.713 58.9686C153.851 58.7559 153.872 57.3169 153.468 56.4622C153.12 55.7239 152.682 55.1508 152.503 54.3337C152.339 53.5767 152.311 52.7933 152.34 52.0188C152.386 50.8163 152.517 49.5537 152.747 48.4025C153.206 46.0825 154.065 44.213 155.435 44.1717C156.318 44.1455 156.891 44.8049 157.222 45.5557C157.437 46.04 157.572 46.5593 157.676 47.0773C157.763 47.5078 157.767 47.9532 157.867 48.3812C157.875 48.4125 157.882 48.4437 157.891 48.4725L161.454 48.5213C161.454 48.2185 161.27 47.8131 161.217 47.5728V47.5753Z" fill="url(#paint26_radial_784_11765)"/>
</g>
<ellipse cx="110" cy="185.117" rx="108" ry="3.5" fill="#FFF0F0"/>
</g>
<defs>
<linearGradient id="paint0_linear_784_11765" x1="28.3824" y1="82.3109" x2="196.923" y2="116.271" gradientUnits="userSpaceOnUse">
<stop stop-color="#F7BABA"/>
<stop offset="0.18" stop-color="#EA5353"/>
<stop offset="0.22" stop-color="#D84C4C"/>
<stop offset="0.32" stop-color="#BD4343"/>
<stop offset="0.42" stop-color="#A73B3B"/>
<stop offset="0.52" stop-color="#973636"/>
<stop offset="0.65" stop-color="#8E3232"/>
<stop offset="0.83" stop-color="#8C3232"/>
<stop offset="0.85" stop-color="#8F3333"/>
<stop offset="0.86" stop-color="#983636"/>
<stop offset="0.87" stop-color="#A93C3C"/>
<stop offset="0.89" stop-color="#C04444"/>
<stop offset="0.9" stop-color="#EA5353"/>
<stop offset="1" stop-color="#F08686"/>
</linearGradient>
<linearGradient id="paint1_linear_784_11765" x1="19.739" y1="88.4036" x2="185.892" y2="121.148" gradientUnits="userSpaceOnUse">
<stop stop-color="#F7BABA"/>
<stop offset="0.18" stop-color="#EA5353"/>
<stop offset="0.23" stop-color="#D84D4D"/>
<stop offset="0.33" stop-color="#C34747"/>
<stop offset="0.43" stop-color="#B34242"/>
<stop offset="0.55" stop-color="#AA3F3F"/>
<stop offset="0.72" stop-color="#A83F3F"/>
<stop offset="0.77" stop-color="#AB3F3F"/>
<stop offset="0.81" stop-color="#B44242"/>
<stop offset="0.85" stop-color="#C54747"/>
<stop offset="0.88" stop-color="#DC4E4E"/>
<stop offset="0.9" stop-color="#EA5353"/>
<stop offset="1" stop-color="#F08686"/>
</linearGradient>
<linearGradient id="paint2_linear_784_11765" x1="26.6023" y1="85.0375" x2="177.309" y2="114.739" gradientUnits="userSpaceOnUse">
<stop stop-color="#A6BBBE"/>
<stop offset="0.06" stop-color="#ECFCFF"/>
<stop offset="0.09" stop-color="#DEEEF1"/>
<stop offset="0.17" stop-color="#BCCCCF"/>
<stop offset="0.25" stop-color="#A1B0B3"/>
<stop offset="0.35" stop-color="#8B9A9D"/>
<stop offset="0.45" stop-color="#7C8A8D"/>
<stop offset="0.57" stop-color="#738184"/>
<stop offset="0.74" stop-color="#717F82"/>
<stop offset="0.78" stop-color="#738285"/>
<stop offset="0.81" stop-color="#7C8B8E"/>
<stop offset="0.84" stop-color="#8A9C9E"/>
<stop offset="0.87" stop-color="#9EB3B5"/>
<stop offset="0.9" stop-color="#BED8D9"/>
<stop offset="1" stop-color="#A6BBBE"/>
</linearGradient>
<linearGradient id="paint3_linear_784_11765" x1="102.322" y1="49.1365" x2="95.9005" y2="148.166" gradientUnits="userSpaceOnUse">
<stop stop-color="#F3F8FB"/>
<stop offset="0.03" stop-color="#DCEAED"/>
<stop offset="0.06" stop-color="#C4DFE0"/>
<stop offset="0.84" stop-color="#C1DADB"/>
<stop offset="0.9" stop-color="#E7F0F1"/>
<stop offset="0.95" stop-color="white"/>
<stop offset="1" stop-color="#A6BBBE"/>
</linearGradient>
<radialGradient id="paint4_radial_784_11765" cx="0" cy="0" r="1" gradientUnits="userSpaceOnUse" gradientTransform="translate(-54.7109 45.4781) scale(226.079 226.079)">
<stop offset="0.41" stop-color="#F3F8FB"/>
<stop offset="0.47" stop-color="#DCEAED"/>
<stop offset="0.97" stop-color="#ECFCFF"/>
<stop offset="0.98" stop-color="#BED8D9"/>
<stop offset="1" stop-color="#A6BBBE"/>
</radialGradient>
<linearGradient id="paint5_linear_784_11765" x1="93.9587" y1="46.8947" x2="90.8079" y2="137.424" gradientUnits="userSpaceOnUse">
<stop stop-color="#F3F8FB"/>
<stop offset="0.03" stop-color="#DCEAED"/>
<stop offset="0.06" stop-color="#C4DFE0"/>
<stop offset="0.5" stop-color="#C1DADB"/>
<stop offset="0.75" stop-color="#E7F0F1"/>
<stop offset="0.94" stop-color="white"/>
<stop offset="1" stop-color="#A6BBBE"/>
</linearGradient>
<linearGradient id="paint6_linear_784_11765" x1="91.7771" y1="63.1705" x2="90.0941" y2="124.494" gradientUnits="userSpaceOnUse">
<stop offset="0.05" stop-color="#BED8D9"/>
<stop offset="0.09" stop-color="#B0C7CA"/>
<stop offset="0.13" stop-color="#A8BEC0"/>
<stop offset="0.18" stop-color="#A6BBBE"/>
<stop offset="0.21" stop-color="#A2B7BA"/>
<stop offset="0.25" stop-color="#99ACAF"/>
<stop offset="0.28" stop-color="#88999C"/>
<stop offset="0.3" stop-color="#728083"/>
<stop offset="0.31" stop-color="#717F82"/>
<stop offset="0.39" stop-color="#BED8D9"/>
<stop offset="0.42" stop-color="#B2CACC"/>
<stop offset="0.46" stop-color="#A9BEC1"/>
<stop offset="0.51" stop-color="#A6BBBE"/>
<stop offset="0.55" stop-color="#A3B8BB"/>
<stop offset="0.58" stop-color="#9CB0B3"/>
<stop offset="0.6" stop-color="#8FA1A4"/>
<stop offset="0.62" stop-color="#7D8D90"/>
<stop offset="0.63" stop-color="#717F82"/>
<stop offset="0.72" stop-color="#BED8D9"/>
<stop offset="0.74" stop-color="#B6CFD0"/>
<stop offset="0.8" stop-color="#AAC0C2"/>
<stop offset="0.84" stop-color="#A6BBBE"/>
<stop offset="0.89" stop-color="#A4B8BB"/>
<stop offset="0.91" stop-color="#9DB1B4"/>
<stop offset="0.93" stop-color="#91A3A6"/>
<stop offset="0.94" stop-color="#819194"/>
<stop offset="0.95" stop-color="#717F82"/>
</linearGradient>
<radialGradient id="paint7_radial_784_11765" cx="0" cy="0" r="1" gradientUnits="userSpaceOnUse" gradientTransform="translate(48.0866 45.2396) rotate(8.68) scale(14.0718)">
<stop offset="0.74" stop-color="#A6BBBE"/>
<stop offset="0.85" stop-color="#A6BBBE"/>
<stop offset="0.98" stop-color="#A6BBBE"/>
</radialGradient>
<radialGradient id="paint8_radial_784_11765" cx="0" cy="0" r="1" gradientUnits="userSpaceOnUse" gradientTransform="translate(73.1871 49.7201) scale(25.6296 25.6296)">
<stop offset="0.88" stop-color="#943535"/>
<stop offset="0.94" stop-color="#F08686"/>
<stop offset="0.97" stop-color="#F7BABA"/>
</radialGradient>
<radialGradient id="paint9_radial_784_11765" cx="0" cy="0" r="1" gradientUnits="userSpaceOnUse" gradientTransform="translate(59.192 47.1811) scale(8.01472 8.01472)">
<stop stop-color="#8C3232"/>
<stop offset="0.92" stop-color="#F08686"/>
</radialGradient>
<radialGradient id="paint10_radial_784_11765" cx="0" cy="0" r="1" gradientUnits="userSpaceOnUse" gradientTransform="translate(55.7158 39.4517) scale(8.01472 8.01472)">
<stop stop-color="#EA5353"/>
<stop offset="1" stop-color="#943535"/>
</radialGradient>
<radialGradient id="paint11_radial_784_11765" cx="0" cy="0" r="1" gradientUnits="userSpaceOnUse" gradientTransform="translate(73.0189 45.5377) rotate(8.68) scale(14.0718 14.0718)">
<stop offset="0.74" stop-color="#A6BBBE"/>
<stop offset="0.85" stop-color="#A6BBBE"/>
<stop offset="0.98" stop-color="#A6BBBE"/>
</radialGradient>
<radialGradient id="paint12_radial_784_11765" cx="0" cy="0" r="1" gradientUnits="userSpaceOnUse" gradientTransform="translate(98.117 50.0241) scale(25.6296 25.6296)">
<stop offset="0.88" stop-color="#943535"/>
<stop offset="0.94" stop-color="#F08686"/>
<stop offset="0.97" stop-color="#F7BABA"/>
</radialGradient>
<radialGradient id="paint13_radial_784_11765" cx="0" cy="0" r="1" gradientUnits="userSpaceOnUse" gradientTransform="translate(84.12 47.4839) scale(8.01472 8.01472)">
<stop stop-color="#8C3232"/>
<stop offset="0.92" stop-color="#F08686"/>
</radialGradient>
<radialGradient id="paint14_radial_784_11765" cx="0" cy="0" r="1" gradientUnits="userSpaceOnUse" gradientTransform="translate(80.6438 39.7558) scale(8.01472 8.01472)">
<stop stop-color="#EA5353"/>
<stop offset="1" stop-color="#943535"/>
</radialGradient>
<radialGradient id="paint15_radial_784_11765" cx="0" cy="0" r="1" gradientUnits="userSpaceOnUse" gradientTransform="translate(97.9543 45.8344) rotate(8.68) scale(14.0718 14.0718)">
<stop offset="0.74" stop-color="#A6BBBE"/>
<stop offset="0.85" stop-color="#A6BBBE"/>
<stop offset="0.98" stop-color="#A6BBBE"/>
</radialGradient>
<radialGradient id="paint16_radial_784_11765" cx="0" cy="0" r="1" gradientUnits="userSpaceOnUse" gradientTransform="translate(123.048 50.3282) scale(25.6296 25.6296)">
<stop offset="0.88" stop-color="#943535"/>
<stop offset="0.94" stop-color="#F08686"/>
<stop offset="0.97" stop-color="#F7BABA"/>
</radialGradient>
<radialGradient id="paint17_radial_784_11765" cx="0" cy="0" r="1" gradientUnits="userSpaceOnUse" gradientTransform="translate(109.051 47.788) scale(8.01472 8.01472)">
<stop stop-color="#8C3232"/>
<stop offset="0.92" stop-color="#F08686"/>
</radialGradient>
<radialGradient id="paint18_radial_784_11765" cx="0" cy="0" r="1" gradientUnits="userSpaceOnUse" gradientTransform="translate(105.574 40.0598) scale(8.01472 8.01472)">
<stop stop-color="#EA5353"/>
<stop offset="1" stop-color="#943535"/>
</radialGradient>
<radialGradient id="paint19_radial_784_11765" cx="0" cy="0" r="1" gradientUnits="userSpaceOnUse" gradientTransform="translate(122.889 46.1989) rotate(8.68) scale(14.0718 14.0718)">
<stop offset="0.74" stop-color="#A6BBBE"/>
<stop offset="0.85" stop-color="#A6BBBE"/>
<stop offset="0.98" stop-color="#A6BBBE"/>
</radialGradient>
<radialGradient id="paint20_radial_784_11765" cx="0" cy="0" r="1" gradientUnits="userSpaceOnUse" gradientTransform="translate(147.981 50.6986) scale(25.6296 25.6296)">
<stop offset="0.88" stop-color="#943535"/>
<stop offset="0.94" stop-color="#F08686"/>
<stop offset="0.97" stop-color="#F7BABA"/>
</radialGradient>
<radialGradient id="paint21_radial_784_11765" cx="0" cy="0" r="1" gradientUnits="userSpaceOnUse" gradientTransform="translate(133.986 48.1597) scale(8.01472 8.01472)">
<stop stop-color="#8C3232"/>
<stop offset="0.92" stop-color="#F08686"/>
</radialGradient>
<radialGradient id="paint22_radial_784_11765" cx="0" cy="0" r="1" gradientUnits="userSpaceOnUse" gradientTransform="translate(130.51 40.4303) scale(8.01472 8.01472)">
<stop stop-color="#EA5353"/>
<stop offset="1" stop-color="#943535"/>
</radialGradient>
<radialGradient id="paint23_radial_784_11765" cx="0" cy="0" r="1" gradientUnits="userSpaceOnUse" gradientTransform="translate(147.823 46.5869) rotate(8.68) scale(14.0718 14.0718)">
<stop offset="0.74" stop-color="#A6BBBE"/>
<stop offset="0.85" stop-color="#A6BBBE"/>
<stop offset="0.98" stop-color="#A6BBBE"/>
</radialGradient>
<radialGradient id="paint24_radial_784_11765" cx="0" cy="0" r="1" gradientUnits="userSpaceOnUse" gradientTransform="translate(172.911 51.0928) scale(25.6296 25.6296)">
<stop offset="0.88" stop-color="#943535"/>
<stop offset="0.94" stop-color="#F08686"/>
<stop offset="0.97" stop-color="#F7BABA"/>
</radialGradient>
<radialGradient id="paint25_radial_784_11765" cx="0" cy="0" r="1" gradientUnits="userSpaceOnUse" gradientTransform="translate(158.916 48.5526) scale(8.01471 8.01472)">
<stop stop-color="#8C3232"/>
<stop offset="0.92" stop-color="#F08686"/>
</radialGradient>
<radialGradient id="paint26_radial_784_11765" cx="0" cy="0" r="1" gradientUnits="userSpaceOnUse" gradientTransform="translate(155.438 40.8244) scale(8.01471 8.01472)">
<stop stop-color="#F08686"/>
<stop offset="1" stop-color="#EA5353"/>
</radialGradient>
<clipPath id="clip0_784_11765">
<rect width="220" height="220" fill="white"/>
</clipPath>
<clipPath id="clip1_784_11765">
<rect width="220" height="148.054" fill="white" transform="translate(0.0703125 39.563)"/>
</clipPath>
</defs>
</svg>
