<svg width="16" height="28" viewBox="0 0 16 28" fill="none" xmlns="http://www.w3.org/2000/svg">
<path d="M13.5567 24.9868V26.3633C13.5567 26.5041 13.6463 26.629 13.7872 26.677L15.2437 27.1764C15.4133 27.234 15.5286 27.3972 15.5286 27.5765C15.5286 27.8102 15.3397 27.9991 15.106 27.9991H12.4139C12.3435 27.9991 12.2794 27.9606 12.2474 27.8966L12.0137 27.4325C11.9657 27.3364 11.8665 27.2756 11.7609 27.2756C11.6136 27.2756 11.492 27.3876 11.4792 27.5349L11.4536 27.8294C11.4472 27.9254 11.3639 27.9991 11.2679 27.9991H10.3012H10.2883C10.1763 27.9894 10.0899 27.8934 10.0963 27.7782L10.2755 24.9868H13.5567ZM3.6271 25V26.3709C3.6271 26.5112 3.7179 26.6355 3.8573 26.6833L5.33269 27.1807C5.50459 27.238 5.62129 27.4006 5.62129 27.5792C5.62129 27.8119 5.43 28 5.1933 28H2.4662C2.3948 28 2.33 27.9617 2.2975 27.898L2.0608 27.4357C2.0122 27.3401 1.91166 27.2795 1.80465 27.2795C1.65549 27.2795 1.53226 27.3911 1.51929 27.5377L1.49335 27.831C1.48686 27.9267 1.40255 28 1.30527 28H0.329207H0.316237C0.202737 27.9904 0.115187 27.8948 0.121677 27.78L0.303267 25H3.6271Z" fill="#433B6B"/>
<path d="M11.6858 4.77271L11.4122 6.3086L6.72258 7.37136C6.09198 7.51541 5.69828 8.13959 5.83908 8.77029C5.96068 9.30159 6.43128 9.68259 6.97868 9.68259C7.06508 9.68259 7.15158 9.67299 7.23798 9.65379L12.6862 8.41809C13.144 8.31569 13.4961 7.94436 13.5794 7.4834L14.0258 4.96175L11.6858 4.77271Z" fill="#0092E7"/>
<path d="M14.3669 1.37885C14.2229 1.3574 14.0847 1.45036 14.0535 1.59314L14.0564 1.57732L12.9552 1.40766L13.1249 0.312878C13.1441 0.159228 13.0352 0.0215776 12.8816 0.0023776C12.7343 -0.0168324 12.5999 0.0823976 12.5743 0.226448L12.3118 1.91983L12.0845 1.62853C11.9981 1.5165 11.8348 1.49729 11.7228 1.58372C11.6107 1.67015 11.5915 1.8334 11.678 1.94544L11.8988 2.22714C12.0621 2.41016 12.0621 2.6881 12.0621 2.6881L11.9069 3.55812L14.2133 3.88761L14.5878 1.76298L14.5974 1.69576C14.6198 1.5421 14.5173 1.40126 14.3669 1.37885ZM3.2472 13.8132L0.975098 14.3813L1.10767 14.9004C1.11821 14.9421 1.13092 14.9827 1.14566 15.0222L1.322 15.6655L1.34221 15.7293C1.42183 15.9815 1.55177 16.3933 1.72214 16.549C1.93982 16.7475 2.5128 16.7122 2.9226 16.5714C2.9226 16.5714 3.4283 16.3889 3.7164 16.04C3.9373 15.7775 3.6588 15.5022 3.6588 15.5022C3.6588 15.5022 3.694 15.3582 3.7997 15.0029C3.8904 14.6998 3.6386 14.4855 3.3847 14.3518C3.3823 14.3415 3.3799 14.3313 3.3773 14.321L3.2472 13.8132Z" fill="#966661"/>
<path d="M8.90527 18.268L11.3989 20.3904C11.5398 20.5088 11.5846 20.7073 11.511 20.8769C11.0372 21.9493 9.46227 25.7458 9.46227 25.7458C9.46227 25.7458 10.7683 26.8662 13.5565 26.3604L14.2191 20.2751C14.2735 19.7822 14.1295 19.2892 13.8222 18.8987L10.8355 15.147L8.90527 18.268Z" fill="#007ACF"/>
<path d="M8.75531 7.14086C8.07031 6.69911 7.16121 6.89758 6.71941 7.58261C6.29371 8.242 6.46011 9.1191 7.09721 9.5769L9.18431 11.616L10.087 15.1372C10.087 15.1372 11.6523 15.4221 13.3713 14.1C13.5154 13.9912 13.5666 13.7959 13.4994 13.6295L12.6191 11.4591C12.4462 11.0398 12.1229 10.4252 11.8028 9.8522C11.2554 8.8759 10.4455 8.0724 9.46601 7.5378C9.08501 7.32012 8.77131 7.15046 8.75531 7.14086Z" fill="#00A6ED"/>
<path d="M5.1024 16.4386C5.009 16.1528 4.9585 15.8477 4.9585 15.5308C4.9585 15.4028 4.9681 15.2747 4.9841 15.1499H10.8325L10.8037 15.5308C10.8037 16.8249 9.9614 17.9233 8.7954 18.3074L6.0469 21.0335C5.6371 21.4401 5.3266 21.9394 5.1442 22.4868L3.7517 26.6355C3.7517 26.6355 1.44369 26.9812 0 25.1533L2.3336 22.0771C3.2235 20.9023 3.9341 19.6058 4.4431 18.223L5.1024 16.4386Z" fill="#0092E7"/>
<path d="M10.3299 9.551C10.0226 8.2033 8.81577 7.25581 7.43617 7.27822C5.88677 7.30063 5.60957 8.5555 5.56157 10.1048C5.54877 10.4665 5.60637 10.8283 5.72477 11.1676L5.72797 11.1708C5.79517 11.3628 5.88167 11.5485 5.98727 11.7214C6.32017 12.4256 6.40987 13.2195 6.24017 13.9781L6.07367 14.7272C6.03527 14.8649 6.00647 15.0057 5.98727 15.1497H10.8357L10.8805 14.5671C11.0086 12.877 10.8229 11.174 10.3299 9.551Z" fill="#FF6723"/>
<path d="M6.0532 7.57948C6.64859 7.3266 7.33689 7.60189 7.58969 8.1973C7.76849 8.6152 7.6868 9.0751 7.4208 9.4019C7.6286 9.7094 7.8029 10.0397 7.93889 10.3868C7.94209 10.3996 7.94529 10.4092 7.95169 10.422C8.1726 10.995 8.291 11.6032 8.3006 12.2178C8.30379 12.6019 8.29739 13.0373 8.27179 13.3318L7.99009 16.408C7.98049 16.5169 7.9005 16.6065 7.79159 16.6289C6.1079 16.965 4.9715 16.4208 4.5745 16.1839C4.4785 16.1295 4.4305 16.0175 4.4561 15.9119L4.9042 13.9656C5.0963 13.1173 5.0547 12.2338 4.7826 11.4079L4.5693 10.7659L2.6761 11.5745L2.9308 12.5583L0.851427 13.8824L0.159998 11.1807C0.0159476 10.6205 0.300847 10.0411 0.832227 9.8138L6.0532 7.57948Z" fill="#00A6ED"/>
<path d="M8.89268 9.2726L8.55018 7.47995C7.70828 7.15024 6.76078 7.22707 5.98608 7.69443L8.57258 9.4838C8.66538 9.5478 8.79668 9.5254 8.86068 9.4294C8.88948 9.3814 8.90228 9.327 8.89268 9.2726Z" fill="#8B5C56"/>
<path d="M8.29406 12.2242C8.28766 11.6064 8.17246 10.995 7.94836 10.4156L7.93556 10.3868C7.66026 9.68903 7.23776 9.06163 6.69036 8.54943L6.40226 8.39893L5.81006 10.1211L7.15766 10.6045C7.19926 10.6205 7.21856 10.6653 7.20566 10.7069C7.19606 10.7293 7.17686 10.7485 7.15446 10.7549L6.44386 10.9694C6.39266 10.9854 6.36386 11.0398 6.37666 11.091C6.38306 11.1103 6.39266 11.1263 6.40866 11.1391C6.83436 11.4912 7.97076 12.7524 7.99636 16.248L8.26526 13.3318C8.29406 13.0405 8.29726 12.6052 8.29406 12.2242Z" fill="#75E0FC"/>
<path d="M11.6841 4.78171L11.985 3.09473L14.2962 3.46606L14.6163 5.0538C14.6419 5.17865 14.5619 5.29709 14.437 5.3227C14.4082 5.3291 14.3762 5.3291 14.3474 5.3227L11.6841 4.78171ZM10.2436 8.87579L8.8415 9.01339L8.5918 7.7074L9.0271 7.34888L10.3332 8.63249C10.3556 8.65809 10.3716 8.6869 10.3748 8.7221C10.3812 8.799 10.3236 8.8694 10.2436 8.87579ZM5.6562 10.1786L8.1882 9.21829L5.9315 7.63379L5.7714 7.701L5.3553 9.9258C5.3457 9.96739 5.3489 10.0122 5.3649 10.0506C5.4097 10.1658 5.5409 10.2235 5.6562 10.1786ZM3.3548 14.2248L2.929 12.5635L0.281729 13.1685C0.252919 13.1749 0.224109 13.1877 0.198499 13.2069C0.096069 13.2805 0.0736596 13.4246 0.14729 13.527L1.09481 14.8427L3.3548 14.2248Z" fill="#F95725"/>
<path d="M9.28624 10.9245C9.41884 10.9245 9.52634 10.817 9.52634 10.6844C9.52634 10.5518 9.41884 10.4443 9.28624 10.4443C9.15364 10.4443 9.04614 10.5518 9.04614 10.6844C9.04614 10.817 9.15364 10.9245 9.28624 10.9245ZM9.54924 12.5475C9.68184 12.5475 9.78924 12.4401 9.78924 12.3075C9.78924 12.1749 9.68184 12.0674 9.54924 12.0674C9.41664 12.0674 9.30914 12.1749 9.30914 12.3075C9.30914 12.4401 9.41664 12.5475 9.54924 12.5475ZM9.84954 14.0711C9.84954 14.2037 9.74214 14.3112 9.60954 14.3112C9.47694 14.3112 9.36944 14.2037 9.36944 14.0711C9.36944 13.9385 9.47694 13.8311 9.60954 13.8311C9.74214 13.8311 9.84954 13.9385 9.84954 14.0711Z" fill="#E6E6E6"/>
<path d="M12.8973 1.76633C12.8749 1.91678 12.9805 2.06083 13.131 2.08324C13.2387 2.09928 13.3431 2.05133 13.402 1.96641C13.4168 2.08681 13.509 2.18931 13.6367 2.20792C13.7903 2.23353 13.9312 2.1279 13.9536 1.97424L14.0144 1.57731C14.0368 1.42685 13.9344 1.2828 13.7807 1.2604C13.6811 1.24556 13.5843 1.28543 13.5238 1.35865C13.5343 1.21577 13.4315 1.08348 13.2878 1.06208C13.1374 1.03967 12.9933 1.14531 12.9709 1.29576L12.8973 1.76633ZM14.2194 2.31356C14.0689 2.29115 13.9633 2.1471 13.9857 1.99665L14.0465 1.59972C14.0689 1.44926 14.2129 1.34363 14.3634 1.36604C14.5139 1.38844 14.6195 1.53249 14.5971 1.68294L14.5395 2.07988C14.5139 2.23353 14.373 2.33597 14.2194 2.31356Z" fill="#8B5C56"/>
<path d="M6.13025 5.41538C6.13025 5.81492 5.80635 6.13883 5.40685 6.13883C5.00725 6.13883 4.68335 5.81492 4.68335 5.41538C4.68335 5.01583 5.00725 4.69193 5.40685 4.69193C5.80635 4.69193 6.13025 5.01583 6.13025 5.41538ZM10.3683 5.41538C10.3683 5.81492 10.0444 6.13883 9.64485 6.13883C9.24535 6.13883 8.92145 5.81492 8.92145 5.41538C8.92145 5.01583 9.24535 4.69193 9.64485 4.69193C10.0444 4.69193 10.3683 5.01583 10.3683 5.41538Z" fill="#8B5C56"/>
<path d="M7.28994 2.42993C6.10994 2.42993 5.17994 3.42993 5.26994 4.59993L5.43994 6.95993C5.49994 7.68993 6.07994 8.2199 6.78994 8.2199H8.14994C8.85994 8.2199 9.43994 7.68993 9.50994 6.94993L9.67994 4.59993C9.75994 3.42993 8.82994 2.42993 7.65994 2.42993H7.28994Z" fill="#966661"/>
<path d="M8.78011 4.72984C8.82011 4.75984 8.87011 4.77984 8.92011 4.77984C8.99011 4.77984 9.06011 4.74984 9.10011 4.69984C9.18011 4.58984 9.16011 4.44984 9.06011 4.36984C9.05011 4.34984 8.70011 4.08984 8.19011 4.14984C8.07011 4.16984 7.97011 4.27984 7.99011 4.40984C8.00011 4.53984 8.12011 4.62984 8.25011 4.60984C8.51671 4.57543 8.70941 4.68898 8.76441 4.72143C8.77341 4.7267 8.78011 4.72984 8.78011 4.72984Z" fill="#372128"/>
<path d="M5.83013 4.6898C5.88013 4.7498 5.95012 4.7798 6.02012 4.7798C6.07012 4.7798 6.12013 4.7698 6.16013 4.7398C6.17013 4.7298 6.38013 4.5698 6.70013 4.6098C6.83012 4.6298 6.94012 4.5398 6.95012 4.4098C6.97012 4.2798 6.88013 4.1698 6.75013 4.1498C6.31583 4.09769 5.99473 4.29454 5.89813 4.35373C5.88353 4.36268 5.87413 4.36849 5.87013 4.3698C5.77013 4.4498 5.75013 4.5898 5.83013 4.6898Z" fill="#372128"/>
<path d="M9.69001 2.83995L9.51001 2.74995C9.39001 2.68995 9.27001 2.60995 9.17001 2.50995L8.82 2.15995C8.56 1.89995 8.17001 1.80995 7.82001 1.92995C7.59001 2.00995 7.35001 2.00995 7.12001 1.92995C6.81001 1.77995 6.44001 1.83995 6.20001 2.07995L5.77001 2.50995C5.67001 2.60995 5.55001 2.68995 5.43001 2.75995L5.25001 2.83995C4.92001 3.00995 4.74001 3.36995 4.80001 3.72995L5.04001 5.03995C5.06001 5.16995 5.18001 5.26995 5.31001 5.26995C5.31001 5.26995 5.28001 4.89995 5.27001 4.65995C5.26001 4.53995 5.31001 4.41995 5.40001 4.32995L5.48001 4.25995C5.59001 4.15995 5.65001 4.02995 5.65001 3.87995V3.51995C5.65001 3.41995 5.72001 3.32995 5.82001 3.29995C6.09001 3.22995 6.67001 3.11995 7.47001 3.11995C8.27001 3.11995 8.85001 3.23995 9.12001 3.29995C9.22001 3.32995 9.29001 3.41995 9.29001 3.51995V3.88995C9.29001 4.02995 9.35 4.16995 9.46 4.26995L9.54001 4.33995C9.63001 4.41995 9.68001 4.53995 9.67001 4.65995C9.65001 4.89995 9.63 5.25995 9.63 5.25995C9.76 5.24995 9.87 5.15995 9.89 5.02995L10.13 3.71995C10.2 3.36995 10.02 3.00995 9.69001 2.83995Z" fill="#2D242D"/>
<path d="M5.87721 5.28108C5.94441 5.00579 6.19411 4.81372 6.47581 4.81372C6.77031 4.81372 7.02321 5.02179 7.08081 5.30989V5.3291C7.08081 5.38672 7.03601 5.43153 6.97841 5.43153H5.99571C5.98611 5.43153 5.97641 5.43153 5.96681 5.42833C5.90281 5.41233 5.86121 5.3451 5.87721 5.28108ZM9.18731 5.28108C9.12011 5.00579 8.87361 4.81372 8.58871 4.81372C8.29421 4.81372 8.04131 5.02179 7.98051 5.30989V5.3291C7.98051 5.38672 8.02531 5.43153 8.08291 5.43153H9.06881C9.07841 5.43153 9.08811 5.43153 9.09771 5.42833C9.16171 5.41233 9.20331 5.3451 9.18731 5.28108Z" fill="white"/>
<path d="M6.17188 5.32906C6.17188 5.10819 6.34788 4.93213 6.56558 4.93213C6.60398 4.93213 6.63918 4.93533 6.67128 4.94813C6.88247 5.00896 7.00417 5.22343 6.94647 5.4347H6.18787C6.17827 5.39949 6.17188 5.36428 6.17188 5.32906ZM8.89247 5.32586C8.89247 5.10819 8.71637 4.93213 8.49878 4.93213C8.28108 4.93213 8.10498 5.10819 8.10178 5.32586C8.10498 5.36108 8.10817 5.39629 8.11777 5.4315H8.87967C8.88927 5.39629 8.89247 5.36108 8.89247 5.32586Z" fill="#7D4533"/>
<path d="M6.56541 5.10181C6.69021 5.10181 6.79271 5.20104 6.79271 5.32588C6.79271 5.3643 6.78311 5.39951 6.76711 5.43472H6.36691C6.35091 5.39951 6.34131 5.3643 6.34131 5.32908C6.34131 5.20424 6.44051 5.10181 6.56541 5.10181ZM8.50221 5.10181C8.37731 5.10181 8.27491 5.20104 8.27491 5.32588C8.27491 5.3643 8.28131 5.39951 8.30051 5.43152H8.70061C8.71671 5.39951 8.72631 5.3643 8.72631 5.32908C8.72631 5.20424 8.62701 5.10181 8.50221 5.10181Z" fill="black"/>
<path d="M6.50115 5.17223C6.50115 5.21113 6.46965 5.24266 6.43075 5.24266C6.39185 5.24266 6.36035 5.21113 6.36035 5.17223C6.36035 5.13334 6.39185 5.10181 6.43075 5.10181C6.46965 5.10181 6.50115 5.13334 6.50115 5.17223ZM8.44765 5.17223C8.44765 5.21113 8.41615 5.24266 8.37725 5.24266C8.33835 5.24266 8.30685 5.21113 8.30685 5.17223C8.30685 5.13334 8.33835 5.10181 8.37725 5.10181C8.41615 5.10181 8.44765 5.13334 8.44765 5.17223Z" fill="white"/>
<path d="M7.36571 5.29398L7.13841 6.03343C7.10001 6.15828 7.17041 6.28952 7.29531 6.32793C7.31771 6.33434 7.34011 6.33754 7.36251 6.33754H7.70181C7.83301 6.33754 7.93551 6.2319 7.93551 6.10066C7.93551 6.07825 7.93231 6.05264 7.92591 6.03023L7.69861 5.29078C7.66981 5.20115 7.57061 5.14993 7.48091 5.18194C7.42331 5.20115 7.38491 5.24276 7.36571 5.29398Z" fill="#75443E"/>
<path d="M7.53202 6.75682C7.30792 6.75682 7.09022 6.7056 6.89182 6.60316C6.85652 6.58395 6.81492 6.59676 6.79892 6.63197C6.78612 6.65438 6.78932 6.67999 6.80212 6.7024C7.06462 7.10575 7.60242 7.22419 8.00572 6.96169C8.10822 6.89447 8.19782 6.80483 8.26502 6.7024C8.28422 6.67038 8.27462 6.62557 8.24262 6.60636C8.22022 6.59356 8.19462 6.59356 8.17222 6.60316C7.97372 6.7056 7.75612 6.75682 7.53202 6.75682Z" fill="#990838"/>
</svg>
