<svg width="16" height="16" viewBox="0 0 16 16" fill="none" xmlns="http://www.w3.org/2000/svg">
<path d="M7.86016 9.47337L5.68016 11.6534C5.44016 11.44 5.20683 11.22 4.98016 10.9934C4.2935 10.3 3.6735 9.57337 3.12016 8.81337C2.5735 8.05337 2.1335 7.29337 1.8135 6.54004C1.4935 5.78004 1.3335 5.05337 1.3335 4.36004C1.3335 3.90671 1.4135 3.47337 1.5735 3.07337C1.7335 2.66671 1.98683 2.29337 2.34016 1.96004C2.76683 1.54004 3.2335 1.33337 3.72683 1.33337C3.9135 1.33337 4.10016 1.37337 4.26683 1.45337C4.44016 1.53337 4.5935 1.65337 4.7135 1.82671L6.26016 4.00671C6.38016 4.17337 6.46683 4.32671 6.52683 4.47337C6.58683 4.61337 6.62016 4.75337 6.62016 4.88004C6.62016 5.04004 6.5735 5.20004 6.48016 5.35337C6.3935 5.50671 6.26683 5.66671 6.10683 5.82671L5.60016 6.35337C5.52683 6.42671 5.4935 6.51337 5.4935 6.62004C5.4935 6.67337 5.50016 6.72004 5.5135 6.77337C5.5335 6.82671 5.5535 6.86671 5.56683 6.90671C5.68683 7.12671 5.8935 7.41337 6.18683 7.76004C6.48683 8.10671 6.80683 8.46004 7.1535 8.81337C7.3935 9.04671 7.62683 9.27337 7.86016 9.47337Z" fill="#C6C7C8"/>
<path d="M14.6466 12.22C14.6466 12.4067 14.6132 12.6 14.5466 12.7867C14.5266 12.84 14.5066 12.8933 14.4799 12.9467C14.3666 13.1867 14.2199 13.4133 14.0266 13.6267C13.6999 13.9867 13.3399 14.2467 12.9332 14.4133C12.9266 14.4133 12.9199 14.42 12.9132 14.42C12.5199 14.58 12.0932 14.6667 11.6332 14.6667C10.9532 14.6667 10.2266 14.5067 9.4599 14.18C8.69324 13.8533 7.92657 13.4133 7.16657 12.86C6.90657 12.6667 6.64657 12.4733 6.3999 12.2667L8.5799 10.0867C8.76657 10.2267 8.93324 10.3333 9.07324 10.4067C9.10657 10.42 9.14657 10.44 9.19324 10.46C9.24657 10.48 9.2999 10.4867 9.3599 10.4867C9.47324 10.4867 9.5599 10.4467 9.63324 10.3733L10.1399 9.87332C10.3066 9.70665 10.4666 9.57999 10.6199 9.49999C10.7732 9.40665 10.9266 9.35999 11.0932 9.35999C11.2199 9.35999 11.3532 9.38665 11.4999 9.44665C11.6466 9.50665 11.7999 9.59332 11.9666 9.70665L14.1732 11.2733C14.3466 11.3933 14.4666 11.5333 14.5399 11.7C14.6066 11.8667 14.6466 12.0333 14.6466 12.22Z" fill="#4A4B4B"/>
</svg>
