<svg width="38" height="38" viewBox="0 0 38 38" fill="none" xmlns="http://www.w3.org/2000/svg">
<path d="M30.6692 7.74244L21.3908 3.60994C20.0292 3.00827 17.9708 3.00827 16.6092 3.60994L7.33083 7.74244C4.9875 8.78744 4.63917 10.2124 4.63917 10.9724C4.63917 11.7324 4.9875 13.1574 7.33083 14.2024L16.6092 18.3349C17.29 18.6358 18.145 18.7941 19 18.7941C19.855 18.7941 20.71 18.6358 21.3908 18.3349L30.6692 14.2024C33.0125 13.1574 33.3608 11.7324 33.3608 10.9724C33.3608 10.2124 33.0283 8.78744 30.6692 7.74244Z" fill="#2EC66F"/>
<path opacity="0.4" d="M19 26.9798C18.3983 26.9798 17.7967 26.8532 17.2425 26.6157L6.57083 21.8657C4.94 21.1373 3.67333 19.1898 3.67333 17.4007C3.67333 16.7515 4.19583 16.229 4.845 16.229C5.49417 16.229 6.01667 16.7515 6.01667 17.4007C6.01667 18.2557 6.72917 19.364 7.52083 19.7123L18.1925 24.4623C18.6992 24.684 19.285 24.684 19.7917 24.4623L30.4633 19.7123C31.255 19.364 31.9675 18.2715 31.9675 17.4007C31.9675 16.7515 32.49 16.229 33.1392 16.229C33.7883 16.229 34.3108 16.7515 34.3108 17.4007C34.3108 19.174 33.0442 21.1373 31.4133 21.8657L20.7417 26.6157C20.2033 26.8532 19.6017 26.9798 19 26.9798Z" fill="#2EC66F"/>
<path opacity="0.4" d="M19 34.8334C18.3983 34.8334 17.7967 34.7067 17.2425 34.4692L6.57083 29.7192C4.81333 28.9434 3.67333 27.1859 3.67333 25.2542C3.67333 24.605 4.19583 24.0825 4.845 24.0825C5.49417 24.0825 6.01667 24.605 6.01667 25.2542C6.01667 26.2517 6.6025 27.1542 7.52083 27.5659L18.1925 32.3159C18.6992 32.5375 19.285 32.5375 19.7917 32.3159L30.4633 27.5659C31.3658 27.17 31.9675 26.2517 31.9675 25.2542C31.9675 24.605 32.49 24.0825 33.1392 24.0825C33.7883 24.0825 34.3108 24.605 34.3108 25.2542C34.3108 27.1859 33.1708 28.9275 31.4133 29.7192L20.7417 34.4692C20.2033 34.7067 19.6017 34.8334 19 34.8334Z" fill="#2EC66F"/>
</svg>
