<svg width="16" height="16" viewBox="0 0 16 16" fill="none" xmlns="http://www.w3.org/2000/svg">
<path d="M14.4299 0.996704C14.4299 0.996704 7.14822 9.03836 1.76057 14.9888" stroke="#F9CBCB" stroke-width="1.5" stroke-linecap="round"/>
<path d="M1.2302 1.87424L10.0599 15.1917C10.3222 15.5873 10.4533 15.7851 10.6535 15.8921C10.8537 15.9992 11.091 15.9985 11.5657 15.997L14.1502 15.989C14.9655 15.9865 15.3732 15.9852 15.5141 15.7225C15.6551 15.4599 15.4307 15.1195 14.982 14.4387L6.00161 0.812803L6.00161 0.812799C5.73948 0.415084 5.60842 0.216227 5.4077 0.108566C5.20698 0.000904384 4.96882 0.00172175 4.49249 0.00335649L2.22623 0.0111343C1.24535 0.0145006 0.754917 0.0161838 0.586041 0.332075C0.417164 0.647965 0.688177 1.05672 1.2302 1.87424Z" fill="#EA5353"/>
</svg>
