<svg width="12" height="12" viewBox="0 0 12 12" fill="none" xmlns="http://www.w3.org/2000/svg">
<path d="M8.4 4.5H3.6C2 4.5 1 5.5 1 7.1V8.395C1 10 2 11 3.6 11H8.395C9.995 11 10.995 10 10.995 8.4V7.1C11 5.5 10 4.5 8.4 4.5Z" fill="#6CD79A"/>
<path d="M7.93992 2.78497L6.26492 1.10997C6.11992 0.964971 5.87992 0.964971 5.73492 1.10997L4.05992 2.78497C3.91492 2.92997 3.91492 3.16997 4.05992 3.31497C4.20492 3.45997 4.44492 3.45997 4.58992 3.31497L5.62492 2.27997V7.62497C5.62492 7.82997 5.79492 7.99997 5.99992 7.99997C6.20492 7.99997 6.37492 7.82997 6.37492 7.62497V2.27997L7.40992 3.31497C7.48492 3.38997 7.57992 3.42497 7.67492 3.42497C7.76992 3.42497 7.86492 3.38997 7.93992 3.31497C8.08992 3.16997 8.08992 2.93497 7.93992 2.78497Z" fill="#2EC66F"/>
</svg>
