<svg width="24" height="24" viewBox="0 0 24 24" fill="none" xmlns="http://www.w3.org/2000/svg">
<path d="M12.0001 17.35C12.9003 17.35 13.6301 16.6203 13.6301 15.72C13.6301 14.8198 12.9003 14.09 12.0001 14.09C11.0999 14.09 10.3701 14.8198 10.3701 15.72C10.3701 16.6203 11.0999 17.35 12.0001 17.35Z" fill="#C0EED4"/>
<path d="M16.65 9.44H7.35C3.25 9.44 2 10.69 2 14.79V16.65C2 20.75 3.25 22 7.35 22H16.65C20.75 22 22 20.75 22 16.65V14.79C22 10.69 20.75 9.44 16.65 9.44ZM12 18.74C10.33 18.74 8.98 17.38 8.98 15.72C8.98 14.06 10.33 12.7 12 12.7C13.67 12.7 15.02 14.06 15.02 15.72C15.02 17.38 13.67 18.74 12 18.74Z" fill="#2EC66F"/>
<path d="M7.12021 9.45V8.28C7.12021 5.35 7.95021 3.4 12.0002 3.4C16.3302 3.4 16.8802 5.51 16.8802 7.35C16.8802 7.74 17.1902 8.05 17.5802 8.05C17.9702 8.05 18.2802 7.74 18.2802 7.35C18.2802 3.8 16.1702 2 12.0002 2C6.37021 2 5.72021 5.58 5.72021 8.28V9.53C6.14021 9.48 6.61021 9.45 7.12021 9.45Z" fill="#C0EED4"/>
</svg>
