<svg width="20" height="20" viewBox="0 0 20 20" fill="none" xmlns="http://www.w3.org/2000/svg">
<path d="M9.99992 16.6666C9.54159 16.6666 9.14922 16.5035 8.82284 16.1771C8.49645 15.8507 8.33325 15.4583 8.33325 15C8.33325 14.5416 8.49645 14.1493 8.82284 13.8229C9.14922 13.4965 9.54159 13.3333 9.99992 13.3333C10.4583 13.3333 10.8506 13.4965 11.177 13.8229C11.5034 14.1493 11.6666 14.5416 11.6666 15C11.6666 15.4583 11.5034 15.8507 11.177 16.1771C10.8506 16.5035 10.4583 16.6666 9.99992 16.6666ZM9.99992 11.6666C9.54159 11.6666 9.14922 11.5035 8.82284 11.1771C8.49645 10.8507 8.33325 10.4583 8.33325 9.99998C8.33325 9.54165 8.49645 9.14928 8.82284 8.8229C9.14922 8.49651 9.54159 8.33331 9.99992 8.33331C10.4583 8.33331 10.8506 8.49651 11.177 8.8229C11.5034 9.14928 11.6666 9.54165 11.6666 9.99998C11.6666 10.4583 11.5034 10.8507 11.177 11.1771C10.8506 11.5035 10.4583 11.6666 9.99992 11.6666ZM9.99992 6.66665C9.54159 6.66665 9.14922 6.50345 8.82284 6.17706C8.49645 5.85067 8.33325 5.45831 8.33325 4.99998C8.33325 4.54165 8.49645 4.14929 8.82284 3.8229C9.14922 3.49651 9.54159 3.33331 9.99992 3.33331C10.4583 3.33331 10.8506 3.49651 11.177 3.8229C11.5034 4.14929 11.6666 4.54165 11.6666 4.99998C11.6666 5.45831 11.5034 5.85067 11.177 6.17706C10.8506 6.50345 10.4583 6.66665 9.99992 6.66665Z" fill="#3F484A"/>
</svg>
