<svg width="20" height="20" viewBox="0 0 20 20" fill="none" xmlns="http://www.w3.org/2000/svg">
<path fill-rule="evenodd" clip-rule="evenodd" d="M6.04168 5.41667C6.8471 5.41667 7.50002 4.76375 7.50002 3.95833C7.50002 3.15292 6.8471 2.5 6.04168 2.5C5.23627 2.5 4.58335 3.15292 4.58335 3.95833C4.58335 4.76375 5.23627 5.41667 6.04168 5.41667ZM8.18689 8.33333C8.20764 8.48017 8.22598 8.63696 8.24193 8.80067C8.33302 9.73608 8.33335 10.7504 8.33335 11.0416C8.33335 11.3867 8.61314 11.6666 8.95835 11.6666C9.30352 11.6666 9.58335 11.3867 9.58335 11.0416V11.0387C9.58335 10.744 9.58335 9.67867 9.48606 8.6795C9.43781 8.18408 9.36239 7.66729 9.23731 7.2605C9.17598 7.06092 9.08948 6.84279 8.95789 6.66217C8.82602 6.48112 8.57918 6.25 8.2036 6.25H3.87973C3.50417 6.25 3.25731 6.48112 3.12543 6.66217C2.99387 6.84279 2.90738 7.06092 2.846 7.2605C2.72092 7.66729 2.64552 8.18408 2.59728 8.6795C2.49999 9.67867 2.5 10.744 2.5 11.0387V11.0416C2.5 11.3867 2.77982 11.6666 3.125 11.6666C3.47018 11.6666 3.75 11.3867 3.75 11.0416C3.75 10.7504 3.75032 9.73608 3.8414 8.80067C3.85734 8.63696 3.87567 8.48017 3.89643 8.33333H4.16667L4.16666 16.875C4.16666 17.2104 4.43152 17.4861 4.76673 17.4995C5.10193 17.5128 5.38793 17.2592 5.41468 16.9248L5.76864 12.5H6.31468L6.66864 16.9248C6.69539 17.2592 6.98139 17.5129 7.3166 17.4995C7.65181 17.4861 7.91668 17.2105 7.91668 16.875V8.33333H8.18689Z" fill="#FEF6F6"/>
<path fill-rule="evenodd" clip-rule="evenodd" d="M15.4171 3.95833C15.4171 4.76375 14.7642 5.41667 13.9588 5.41667C13.1533 5.41667 12.5004 4.76375 12.5004 3.95833C12.5004 3.15292 13.1533 2.5 13.9588 2.5C14.7642 2.5 15.4171 3.15292 15.4171 3.95833ZM15.7781 6.26917C15.7282 6.25658 15.6769 6.25021 15.6254 6.25021H13.3338C13.3283 6.25021 13.3226 6.25029 13.3171 6.25042L13.0995 6.25038C12.7612 6.25033 12.396 6.25033 12.2912 6.2505C12.24 6.25058 12.189 6.25692 12.1394 6.26946C11.6753 6.38637 11.3636 6.669 11.1673 7.05517C10.9956 7.39317 10.9118 7.8135 10.8423 8.23108L10.4256 10.7311C10.3688 11.0716 10.5988 11.3936 10.9393 11.4503C11.2798 11.5071 11.6018 11.2771 11.6586 10.9366L12.0753 8.43658C12.1139 8.20446 12.1496 8.02763 12.1858 7.89117L12.2921 9.16675C12.2921 9.94571 11.5863 13.5035 11.3366 14.7376C11.2897 14.9697 11.4454 15.1931 11.6796 15.228C13.397 15.484 14.5206 15.4757 16.2375 15.2261C16.4718 15.192 16.6288 14.9697 16.5829 14.7373C16.3351 13.4837 15.6254 9.836 15.6254 9.16667L15.7318 7.89092C15.768 8.02737 15.8036 8.20421 15.8423 8.43629L16.2589 10.9363C16.3157 11.2768 16.6377 11.5068 16.9782 11.45C17.3187 11.3933 17.5487 11.0713 17.4919 10.7308L17.0753 8.23079C17.0057 7.81321 16.9219 7.39287 16.7502 7.05487C16.554 6.66871 16.2422 6.38608 15.7781 6.26917ZM12.5036 17.135L12.3467 15.8798C12.7881 15.9341 13.208 15.969 13.6212 15.9849L13.3213 17.1844C13.2727 17.379 13.0922 17.5114 12.892 17.4992C12.6917 17.4872 12.5285 17.3341 12.5036 17.135ZM14.5962 17.1842L14.2986 15.9939C14.7141 15.9889 15.1313 15.9645 15.5656 15.9213L15.4139 17.1348C15.389 17.3339 15.2258 17.487 15.0256 17.499C14.8253 17.5112 14.6448 17.3788 14.5962 17.1842Z" fill="#FEF6F6"/>
</svg>
