<svg width="16" height="16" viewBox="0 0 16 16" fill="none" xmlns="http://www.w3.org/2000/svg">
<path d="M4.33329 13.3333H8.33329V2.66667H4.33329C2.85996 2.66667 1.66663 3.86001 1.66663 5.33334V10.6667C1.66663 12.14 2.85996 13.3333 4.33329 13.3333Z" fill="#C6C7C8"/>
<path d="M12 13.3333H10V2.66667H12C13.4733 2.66667 14.6667 3.86001 14.6667 5.33334V10.6667C14.6667 12.14 13.4733 13.3333 12 13.3333Z" fill="#C6C7C8"/>
<path d="M3.83329 8.66667C3.74663 8.66667 3.65996 8.64667 3.57996 8.61334C3.49996 8.58 3.42663 8.53334 3.35996 8.47334C3.29996 8.40667 3.25329 8.33334 3.21329 8.25334C3.17996 8.17334 3.16663 8.08667 3.16663 8C3.16663 7.82667 3.23996 7.65334 3.35996 7.52667C3.39329 7.5 3.42663 7.47334 3.45996 7.44667C3.49996 7.42 3.53996 7.4 3.57996 7.38667C3.61996 7.36667 3.65996 7.35334 3.69996 7.34667C3.92663 7.3 4.15329 7.37334 4.30663 7.52667C4.42663 7.65334 4.49996 7.82667 4.49996 8C4.49996 8.08667 4.47996 8.17334 4.44663 8.25334C4.41329 8.33334 4.36663 8.40667 4.30663 8.47334C4.23996 8.53334 4.16663 8.58 4.08663 8.61334C4.00663 8.64667 3.91996 8.66667 3.83329 8.66667Z" fill="#4A4B4B"/>
<path d="M6.16667 8.66666C6.08 8.66666 5.99333 8.64666 5.91333 8.61333C5.83333 8.57999 5.76 8.53333 5.69333 8.47333C5.56667 8.34666 5.5 8.17999 5.5 7.99999C5.5 7.91333 5.52 7.82666 5.55333 7.74666C5.58667 7.65999 5.63333 7.59333 5.69333 7.52666C5.94 7.27999 6.38667 7.27999 6.64 7.52666C6.76 7.65333 6.83333 7.82666 6.83333 7.99999C6.83333 8.08666 6.81333 8.17333 6.78 8.25333C6.74667 8.33333 6.7 8.40666 6.64 8.47333C6.57333 8.53333 6.5 8.57999 6.42 8.61333C6.34 8.64666 6.25333 8.66666 6.16667 8.66666Z" fill="#4A4B4B"/>
<path d="M10 14.6667C9.72667 14.6667 9.5 14.44 9.5 14.1667V1.83333C9.5 1.55999 9.72667 1.33333 10 1.33333C10.2733 1.33333 10.5 1.55999 10.5 1.83333V14.1667C10.5 14.44 10.2733 14.6667 10 14.6667Z" fill="#4A4B4B"/>
</svg>
