<svg width="14" height="14" viewBox="0 0 14 14" fill="none" xmlns="http://www.w3.org/2000/svg">
<path d="M11.7249 4.04834C11.7249 4.36334 11.5557 4.64916 11.2874 4.79499L10.2724 5.34333L9.40908 5.80418L7.61824 6.7725C7.42574 6.8775 7.21574 6.93001 6.99991 6.93001C6.78407 6.93001 6.57407 6.8775 6.38157 6.7725L2.7124 4.79499C2.44407 4.64916 2.2749 4.36334 2.2749 4.04834C2.2749 3.73334 2.44407 3.44749 2.7124 3.30166L3.86157 2.68333L4.77741 2.18751L6.38157 1.32419C6.76657 1.11419 7.23324 1.11419 7.61824 1.32419L11.2874 3.30166C11.5557 3.44749 11.7249 3.73334 11.7249 4.04834Z" fill="#2EC66F"/>
<path d="M5.77475 7.46082L2.36225 5.75166C2.09975 5.6175 1.79642 5.63499 1.54559 5.78666C1.29475 5.93833 1.14893 6.20668 1.14893 6.49835V9.72416C1.14893 10.2842 1.45808 10.7858 1.95975 11.0367L5.37225 12.74C5.48892 12.7984 5.61726 12.8275 5.74559 12.8275C5.89726 12.8275 6.04893 12.7867 6.18309 12.6992C6.43393 12.5475 6.57976 12.2792 6.57976 11.9875V8.76168C6.58559 8.21335 6.27642 7.71166 5.77475 7.46082Z" fill="#2EC66F"/>
<path d="M12.8507 6.50418V9.72999C12.8507 10.2842 12.5416 10.7858 12.0399 11.0367L8.62741 12.7458C8.51074 12.8041 8.3824 12.8333 8.25406 12.8333C8.1024 12.8333 7.95074 12.7925 7.81074 12.705C7.56574 12.5533 7.41406 12.285 7.41406 11.9933V8.77332C7.41406 8.21332 7.72324 7.71165 8.2249 7.46082L9.47907 6.83665L10.3541 6.39915L11.6374 5.75749C11.8999 5.62333 12.2032 5.63499 12.4541 5.79249C12.6991 5.94416 12.8507 6.21251 12.8507 6.50418Z" fill="#2EC66F"/>
<path d="M10.2726 5.34332L9.40932 5.80417L3.86182 2.68332L4.77765 2.1875L10.1326 5.20916C10.191 5.24416 10.2376 5.29082 10.2726 5.34332Z" fill="#EAF9F0"/>
<path d="M10.354 6.39917V7.72335C10.354 7.96251 10.1557 8.16085 9.9165 8.16085C9.67734 8.16085 9.479 7.96251 9.479 7.72335V6.83667L10.354 6.39917Z" fill="#EAF9F0"/>
</svg>
