<svg width="16" height="16" viewBox="0 0 16 16" fill="none" xmlns="http://www.w3.org/2000/svg">
<path d="M5.10004 13.94C5.08004 13.94 5.05337 13.9533 5.03337 13.9533C3.74004 13.3133 2.68671 12.2533 2.04004 10.96C2.04004 10.94 2.05337 10.9133 2.05337 10.8933C2.86671 11.1333 3.70671 11.3133 4.54004 11.4533C4.68671 12.2933 4.86004 13.1266 5.10004 13.94Z" fill="#C6C7C8"/>
<path d="M13.9599 10.9666C13.2999 12.2933 12.1999 13.3666 10.8599 14.0133C11.1132 13.1666 11.3265 12.3133 11.4665 11.4533C12.3065 11.3133 13.1332 11.1333 13.9465 10.8933C13.9399 10.92 13.9599 10.9466 13.9599 10.9666Z" fill="#C6C7C8"/>
<path d="M14.0132 5.14003C13.1732 4.88669 12.3265 4.68003 11.4665 4.53336C11.3265 3.67336 11.1199 2.82003 10.8599 1.98669C12.2399 2.64669 13.3532 3.76003 14.0132 5.14003Z" fill="#C6C7C8"/>
<path d="M5.10015 2.05998C4.86015 2.87331 4.68682 3.69998 4.54682 4.53998C3.68682 4.67331 2.83348 4.88664 1.98682 5.13998C2.63348 3.79998 3.70682 2.69998 5.03348 2.03998C5.05348 2.03998 5.08015 2.05998 5.10015 2.05998Z" fill="#C6C7C8"/>
<path d="M10.3267 4.39331C8.78001 4.21998 7.22001 4.21998 5.67334 4.39331C5.84001 3.47998 6.05334 2.56665 6.35334 1.68665C6.36667 1.63331 6.36001 1.59331 6.36667 1.53998C6.89334 1.41331 7.43334 1.33331 8.00001 1.33331C8.56001 1.33331 9.10667 1.41331 9.62667 1.53998C9.63334 1.59331 9.63334 1.63331 9.64667 1.68665C9.94667 2.57331 10.16 3.47998 10.3267 4.39331Z" fill="#4A4B4B"/>
<path d="M4.3935 10.3267C3.4735 10.16 2.56683 9.94667 1.68683 9.64667C1.6335 9.63334 1.5935 9.64001 1.54016 9.63334C1.4135 9.10667 1.3335 8.56667 1.3335 8.00001C1.3335 7.44001 1.4135 6.89334 1.54016 6.37334C1.5935 6.36667 1.6335 6.36667 1.68683 6.35334C2.5735 6.06001 3.4735 5.84001 4.3935 5.67334C4.22683 7.22001 4.22683 8.78001 4.3935 10.3267Z" fill="#4A4B4B"/>
<path d="M14.6664 8.00001C14.6664 8.56667 14.5864 9.10667 14.4598 9.63334C14.4064 9.64001 14.3664 9.63334 14.3131 9.64667C13.4264 9.94001 12.5198 10.16 11.6064 10.3267C11.7798 8.78001 11.7798 7.22001 11.6064 5.67334C12.5198 5.84001 13.4331 6.05334 14.3131 6.35334C14.3664 6.36667 14.4064 6.37334 14.4598 6.37334C14.5864 6.90001 14.6664 7.44001 14.6664 8.00001Z" fill="#4A4B4B"/>
<path d="M10.3267 11.6067C10.16 12.5267 9.94667 13.4334 9.64667 14.3134C9.63334 14.3667 9.63334 14.4067 9.62667 14.46C9.10667 14.5867 8.56001 14.6667 8.00001 14.6667C7.43334 14.6667 6.89334 14.5867 6.36667 14.46C6.36001 14.4067 6.36667 14.3667 6.35334 14.3134C6.06001 13.4267 5.84001 12.5267 5.67334 11.6067C6.44667 11.6934 7.22001 11.7534 8.00001 11.7534C8.78001 11.7534 9.56001 11.6934 10.3267 11.6067Z" fill="#4A4B4B"/>
<path d="M10.509 10.5089C8.84165 10.7192 7.15867 10.7192 5.49128 10.5089C5.2809 8.84147 5.2809 7.15849 5.49128 5.49109C7.15867 5.28072 8.84165 5.28072 10.509 5.49109C10.7194 7.15849 10.7194 8.84147 10.509 10.5089Z" fill="#4A4B4B"/>
</svg>
