<svg width="16" height="16" viewBox="0 0 16 16" fill="none" xmlns="http://www.w3.org/2000/svg">
<path d="M8.00024 11.5667C8.60039 11.5667 9.08691 11.0801 9.08691 10.48C9.08691 9.87985 8.60039 9.39333 8.00024 9.39333C7.40009 9.39333 6.91357 9.87985 6.91357 10.48C6.91357 11.0801 7.40009 11.5667 8.00024 11.5667Z" fill="#C6C7C8"/>
<path d="M11.1002 6.29333H4.90016C2.16683 6.29333 1.3335 7.12667 1.3335 9.86V11.1C1.3335 13.8333 2.16683 14.6667 4.90016 14.6667H11.1002C13.8335 14.6667 14.6668 13.8333 14.6668 11.1V9.86C14.6668 7.12667 13.8335 6.29333 11.1002 6.29333ZM8.00016 12.4933C6.88683 12.4933 5.98683 11.5867 5.98683 10.48C5.98683 9.37334 6.88683 8.46667 8.00016 8.46667C9.1135 8.46667 10.0135 9.37334 10.0135 10.48C10.0135 11.5867 9.1135 12.4933 8.00016 12.4933Z" fill="#4A4B4B"/>
<path d="M4.74681 6.3V5.52C4.74681 3.56667 5.30014 2.26667 8.00014 2.26667C10.7001 2.26667 11.2535 3.56667 11.2535 5.52V6.3C11.5935 6.30667 11.9001 6.32 12.1868 6.36V5.52C12.1868 3.72 11.7535 1.33334 8.00014 1.33334C4.24681 1.33334 3.81348 3.72 3.81348 5.52V6.35334C4.09348 6.32 4.40681 6.3 4.74681 6.3Z" fill="#C6C7C8"/>
</svg>
