<svg width="14" height="14" viewBox="0 0 14 14" fill="none" xmlns="http://www.w3.org/2000/svg">
<path d="M9.02996 1.75H4.38663C2.37413 1.75 1.16663 2.95167 1.16663 4.97V9.6075C1.16663 11.6317 2.37413 12.8333 4.38663 12.8333H9.02413C11.0425 12.8333 12.2441 11.6317 12.2441 9.61333V4.97C12.25 2.95167 11.0425 1.75 9.02996 1.75Z" fill="#FFF0F0"/>
<path d="M12.2616 1.73866C11.2174 0.688657 10.1966 0.665324 9.12328 1.73866L8.46411 2.39199C8.40578 2.45032 8.38828 2.53199 8.41161 2.60782C8.81994 4.03699 9.96328 5.18032 11.3924 5.58866C11.4099 5.59449 11.4391 5.59449 11.4566 5.59449C11.5149 5.59449 11.5733 5.57116 11.6141 5.53032L12.2616 4.87699C12.7924 4.34616 13.0549 3.83866 13.0549 3.31949C13.0549 2.79449 12.7924 2.27532 12.2616 1.73866Z" fill="#EA5353"/>
<path d="M10.4183 6.07857C10.2608 6.00273 10.1091 5.9269 9.96914 5.8394C9.85248 5.7694 9.73581 5.69357 9.62498 5.6119C9.53164 5.55357 9.42664 5.46607 9.32164 5.37857C9.30998 5.37273 9.27498 5.34357 9.22831 5.2969C9.04748 5.15107 8.85498 4.95273 8.67414 4.7369C8.66248 4.72523 8.62748 4.69023 8.59831 4.63773C8.53998 4.57357 8.45248 4.46273 8.37664 4.34023C8.31248 4.25857 8.23664 4.1419 8.16664 4.0194C8.07914 3.87357 8.00331 3.72773 7.93331 3.57607C7.85748 3.41273 7.79914 3.26107 7.74664 3.11523L4.60831 6.25357C4.40414 6.45773 4.20581 6.84273 4.16498 7.12857L3.91414 8.8669C3.86164 9.2344 3.96081 9.57857 4.18831 9.80607C4.38081 9.99857 4.64331 10.0977 4.93498 10.0977C4.99914 10.0977 5.06331 10.0919 5.12748 10.0861L6.85998 9.84107C7.14581 9.80024 7.53081 9.60774 7.73498 9.39774L10.8733 6.2594C10.7275 6.21273 10.5816 6.14857 10.4183 6.07857Z" fill="#EA5353"/>
</svg>
