<svg width="24" height="24" viewBox="0 0 24 24" fill="none" xmlns="http://www.w3.org/2000/svg">
<g clip-path="url(#clip0_432_6229)">
<path d="M12.0002 23.9906C18.625 23.9906 23.9955 18.6201 23.9955 11.9953C23.9955 5.37048 18.625 0 12.0002 0C5.37537 0 0.00488281 5.37048 0.00488281 11.9953C0.00488281 18.6201 5.37537 23.9906 12.0002 23.9906Z" fill="#6CD79A"/>
<path d="M7.64209 14.2632C8.28871 13.1105 9.31956 11.7704 8.27934 9.73683C6.20827 2.29599 13.8084 1.2464 14.8768 4.16089C16.6105 4.85437 16.573 8.64976 15.6733 10.6459C15.6358 11.4612 14.9892 12.1453 16.4511 14.2538C12.5808 14.9004 10.3317 14.6849 7.64209 14.2632Z" fill="#4A4B4B"/>
<path d="M10.8287 12.1265C10.7631 13.3916 10.3132 13.7852 9.68535 14.1132C9.36673 14.3944 7.11761 14.563 6.29293 15.5939C5.58071 16.4842 5.00906 19.4736 4.69043 21.5166C5.35579 22.0226 6.06802 22.4631 6.82709 22.8286L7.17383 19.0988C7.17383 19.0988 7.42686 20.9449 7.66114 21.198C7.79234 21.3479 7.82983 22.1819 7.8392 22.9973L8.83256 23.5689C9.84467 23.85 10.9036 23.9906 12.0094 23.9906C13.0497 23.9906 14.0524 23.8594 15.0083 23.6158L16.0766 22.9973C16.086 22.1913 16.0672 21.4041 16.2547 21.198C16.4421 20.9918 16.742 19.0988 16.742 19.0988L17.0325 22.8942C17.8103 22.5381 18.5413 22.0976 19.216 21.5915C18.9817 19.6236 18.5694 16.6903 17.9884 15.7063C17.2761 14.5068 14.9333 14.385 14.6428 14.1413C14.0337 13.804 13.5932 13.3823 13.5276 12.1171C13.5276 12.1171 12.6186 12.82 12.0563 12.7169C11.494 12.6044 10.8474 12.1171 10.8474 12.1171L10.8287 12.1265Z" fill="#D8AB99"/>
<path d="M10.4442 13.5135C10.2474 13.7852 9.99442 13.9633 9.69454 14.1132C9.37591 14.3944 7.12679 14.563 6.30211 15.5939C5.58989 16.4842 5.02761 19.483 4.70898 21.526C5.40246 22.0601 6.16154 22.5193 6.95811 22.8942L7.17365 19.1081C7.17365 19.1081 7.4829 21.0199 7.66096 21.2073C7.79216 21.3479 7.8109 22.3694 7.82027 23.2503C9.12288 23.7376 10.5286 24 11.9999 24C13.4337 24 14.8113 23.747 16.0858 23.2878C16.0952 22.4069 16.1139 21.3479 16.2451 21.2073C16.4232 21.0199 16.7324 19.1081 16.7324 19.1081L16.9854 22.9223C17.8195 22.5381 18.5973 22.0695 19.3189 21.5166C19.0471 19.5673 18.5505 16.6997 17.9788 15.7251C17.2666 14.5256 14.9237 14.4037 14.6332 14.1601C14.3708 14.0101 14.1459 13.8508 13.9585 13.6165L12.2717 16.8403L10.4349 13.5135H10.4442Z" fill="#DFE0E1"/>
<path d="M10.8003 12.5201C11.1283 12.7169 11.6812 13.3354 12.206 13.3448C12.7214 13.3542 13.4524 12.5857 13.5555 12.5295C13.5461 12.4545 13.5367 12.3795 13.5367 12.3046L13.5274 12.3139C13.4992 12.3327 12.609 13.0355 12.0561 12.9231C11.5031 12.82 10.8846 12.342 10.8471 12.3139L10.8378 12.3046C10.8284 12.3795 10.8284 12.4545 10.819 12.5201H10.8003Z" fill="#D19982"/>
<path d="M9.36685 10.1023C9.92913 11.3018 10.1353 11.7704 10.8288 12.3139C10.8288 12.3139 11.4754 12.8106 12.0377 12.9231C12.6 13.0355 13.509 12.3139 13.509 12.3139C14.2025 11.7704 14.418 11.3018 14.9709 10.1023C15.1115 10.1773 15.2521 10.271 15.3645 10.1491C15.477 10.0179 16.0111 8.35922 15.908 8.13431C15.8143 7.9094 15.6175 8.06871 15.58 8.15305C15.5519 8.19054 15.5238 8.35922 15.4863 8.35922C15.4488 8.35922 15.4395 8.28425 15.3832 8.12494C15.2239 7.66574 14.8866 7.19718 14.7647 5.66965C12.2251 8.19054 9.84479 7.03786 9.02011 7.20655C8.80457 7.2534 8.78583 7.7782 8.80457 8.08745C8.80457 8.12494 8.8608 8.26551 8.84205 8.27488C8.81394 8.27488 8.7296 8.13431 8.71086 8.12494C7.88618 7.59077 8.94514 10.121 8.96388 10.1491C9.07634 10.2803 9.21691 10.1773 9.35748 10.1023H9.36685Z" fill="#E0AB95"/>
<path d="M7.76431 23.2222C7.75494 22.3694 7.73619 21.3854 7.72682 21.301C7.10831 20.6263 7.11768 19.0988 7.11768 19.0988C7.11768 19.0988 7.82991 18.2741 8.38281 17.2339C9.26372 17.1308 11.972 17.2151 11.972 17.2151C11.972 17.2151 14.671 17.1308 15.5613 17.2339C15.7674 17.9274 16.8264 19.0988 16.8264 19.0988C16.8545 19.3237 16.639 21.0293 16.2454 21.2354C16.2266 21.301 16.2079 22.36 16.1891 23.2503C14.8959 23.7282 13.4902 23.9906 12.0283 23.9906C10.5382 23.9906 9.10441 23.7189 7.78305 23.2222H7.76431Z" fill="#EA5353"/>
<path d="M9.49784 14.1882L9.16984 18.6396C9.16047 18.7802 8.98241 18.9582 8.53259 18.9488C8.08277 18.9301 8.14836 18.5552 8.14836 18.5552L8.57945 14.4693L9.50721 14.1976L9.49784 14.1882Z" fill="#F08686"/>
<path d="M14.9802 14.2538L14.9614 18.5833C14.9614 18.7239 15.1489 18.9488 15.608 18.9301C16.0579 18.9113 16.0766 18.5084 16.0766 18.5084L15.9267 14.4974L14.9802 14.2444V14.2538Z" fill="#F08686"/>
<path d="M8.63573 18.1148C8.79504 18.1148 8.92624 18.246 8.92624 18.4053C8.92624 18.5646 8.79504 18.6958 8.63573 18.6958C8.47641 18.6958 8.34521 18.5646 8.34521 18.4053C8.34521 18.246 8.47641 18.1148 8.63573 18.1148Z" fill="#6E95F7"/>
<path d="M15.5049 18.1148C15.6642 18.1148 15.7954 18.246 15.7954 18.4053C15.7954 18.5646 15.6642 18.6958 15.5049 18.6958C15.3456 18.6958 15.2144 18.5646 15.2144 18.4053C15.2144 18.246 15.3456 18.1148 15.5049 18.1148Z" fill="#6E95F7"/>
<path d="M10.4256 13.4854L11.494 15.4252C11.494 15.4252 10.4444 15.3221 10.2382 15.6876C10.032 16.0531 9.56348 16.4936 9.56348 16.4936L10.1726 13.7946L10.4256 13.4854Z" fill="#F8F9FA"/>
<path d="M13.9869 13.5322L13.0029 15.4346C13.0029 15.4346 14.015 15.3128 14.2212 15.6782C14.4274 16.0437 14.8678 16.3623 14.8678 16.3623L14.2962 13.7946L13.9869 13.5322Z" fill="#F8F9FA"/>
<path d="M16.2173 5.50096V8.49042H15.6643V5.50096C15.6643 4.19835 14.7366 3.3643 13.5558 2.99882C13.0872 2.84888 12.5718 2.78328 12.0564 2.78328C11.541 2.78328 11.0255 2.85825 10.557 2.99882C9.37618 3.3643 8.44842 4.19835 8.44842 5.50096V8.49042H7.89551V5.50096C7.89551 3.94532 8.98258 2.95196 10.3789 2.51151C10.9131 2.34282 11.4847 2.26785 12.0564 2.26785C12.628 2.26785 13.1997 2.35219 13.7339 2.51151C15.1302 2.94259 16.2173 3.93595 16.2173 5.50096Z" fill="#F8F9FA"/>
<path d="M8.55158 7.84381H8.28918C8.04552 7.84381 7.83936 8.04998 7.83936 8.29364V10.0461C7.83936 10.2897 8.04552 10.4959 8.28918 10.4959H8.55158C8.79523 10.4959 9.0014 10.2897 9.0014 10.0461V8.29364C9.0014 8.04998 8.79523 7.84381 8.55158 7.84381Z" fill="#F08686"/>
<path d="M8.34515 7.69388H7.80161C7.72664 7.69388 7.67041 7.75948 7.67041 7.82508V10.5053C7.67041 10.5803 7.73601 10.6365 7.80161 10.6365H8.34515C8.42012 10.6365 8.47635 10.5709 8.47635 10.5053V7.82508C8.47635 7.75011 8.41075 7.69388 8.34515 7.69388Z" fill="#6E95F7"/>
<path d="M15.589 7.84381H15.8514C16.095 7.84381 16.3012 8.04998 16.3012 8.29364V10.0461C16.3012 10.2897 16.095 10.4959 15.8514 10.4959H15.589C15.3453 10.4959 15.1392 10.2897 15.1392 10.0461V8.29364C15.1392 8.04998 15.3453 7.84381 15.589 7.84381Z" fill="#F08686"/>
<path d="M15.7953 7.69388H16.3388C16.4138 7.69388 16.47 7.75948 16.47 7.82508V10.5053C16.47 10.5803 16.4044 10.6365 16.3388 10.6365H15.7953C15.7203 10.6365 15.6641 10.5709 15.6641 10.5053V7.82508C15.6641 7.75011 15.7297 7.69388 15.7953 7.69388Z" fill="#6E95F7"/>
<path d="M11.3253 12.8762C10.9224 12.8668 10.5288 12.8106 10.1633 12.6982C9.17931 12.3889 8.41086 11.6954 8.41086 10.6177V10.1398C8.42023 9.96172 8.01726 9.86801 7.95166 10.1398V10.6177C7.95166 11.911 8.86068 12.745 10.0227 13.1011C10.4351 13.2323 10.8849 13.2979 11.3347 13.3073V12.8856L11.3253 12.8762Z" fill="#F8F9FA"/>
<path d="M11.3442 12.4077H12.4688C12.6 12.4077 12.7125 12.5201 12.7125 12.6513V13.4104C12.7125 13.5416 12.6 13.654 12.4688 13.654H11.3442C11.213 13.654 11.1006 13.5416 11.1006 13.4104V12.6513C11.1006 12.5201 11.213 12.4077 11.3442 12.4077Z" fill="#4A4B4B"/>
<path d="M11.1568 12.5951H12.6562C12.6843 12.5951 12.7125 12.6232 12.7125 12.6513V13.401C12.7125 13.4291 12.6843 13.4573 12.6562 13.4573H11.1568C11.1287 13.4573 11.1006 13.4291 11.1006 13.401V12.6513C11.1006 12.6232 11.1287 12.5951 11.1568 12.5951Z" fill="#7C7C7D"/>
</g>
<defs>
<clipPath id="clip0_432_6229">
<rect width="24" height="24" fill="white"/>
</clipPath>
</defs>
</svg>
