<svg width="129" height="134" viewBox="0 0 129 134" fill="none" xmlns="http://www.w3.org/2000/svg">
<g opacity="0.05">
<path fill-rule="evenodd" clip-rule="evenodd" d="M13.1996 46.8255C0.903105 67.9592 -2.53635 91.8349 1.77633 114.108L44.9566 59.8583L19.2052 124.203C40.6795 116.921 59.748 102.144 72.0445 80.992C86.9072 55.425 88.7962 25.8875 79.761 0C52.7978 4.96741 28.0801 21.2584 13.1996 46.8255Z" fill="#EA5353"/>
<path fill-rule="evenodd" clip-rule="evenodd" d="M82.7191 91.5324C71.1889 99.7402 63.6685 111.491 60.6211 124.257L96.3343 105.972L67.3931 133.729C80.4559 135.011 94.0176 131.77 105.566 123.562C119.519 113.645 127.575 98.5295 129 82.7371C113.585 78.927 96.6729 81.6154 82.7191 91.5324Z" fill="#EA5353"/>
</g>
</svg>
