<svg width="22" height="12" viewBox="0 0 22 12" fill="none" xmlns="http://www.w3.org/2000/svg">
<path fill-rule="evenodd" clip-rule="evenodd" d="M0 0H5.92597C6.1434 0.755316 7.25427 1.80676 7.95005 2.25029C8.66427 2.70557 9.44966 2.97821 10.3102 3.08127C10.6422 3.12041 10.5052 3.09954 10.5342 3.93443L11.4698 4.01792C11.4698 3.75571 11.4302 3.32652 11.4975 3.10084C12.6255 3.04736 13.5887 2.56729 14.3069 2.07679C14.8169 1.72718 15.8395 0.722703 16.0727 0H22C21.9078 4.48232 19.3078 7.57664 15.9278 9.10684H16.0912C16.7843 9.10684 17.3444 9.66257 17.3444 10.3487C17.3444 11.0349 16.783 11.5893 16.0912 11.5893H8.20437L13.7969 11.5867C13.3226 10.5836 11.5844 10.3579 11.4737 10.29L11.4619 9.41992L10.5329 9.28687L10.5276 10.3109C9.95172 10.4466 9.63678 10.4727 9.14525 10.7401C8.79736 10.9306 8.33615 11.2736 8.20569 11.588H5.91015C5.21701 11.588 4.65565 11.0323 4.65565 10.3474C4.65565 9.72388 5.1195 9.20859 5.72435 9.11989C2.60653 7.64709 0.226655 4.65583 0 0ZM13.6164 10.1309C13.2527 9.28426 11.9732 8.92291 11.1008 8.78724C9.39168 8.52242 8.8224 7.70579 10.3181 7.38097L10.3352 6.89438C10.0295 6.86959 9.05433 7.1605 9.00557 7.85059C8.8962 9.37427 11.8612 8.90856 13.2738 9.88042C13.395 9.9613 13.4794 10.0487 13.6164 10.1309ZM10.5315 8.50024L11.4724 8.67244L11.4711 5.13719L10.5315 5.03805V8.50024ZM11.6833 6.72871L11.6688 7.25704C14.0276 7.09136 14.2898 5.15285 12.2921 4.44319C11.1904 4.05314 9.56035 4.23577 8.518 3.61352C7.86176 3.22347 8.13453 2.89603 8.15693 2.60904C7.97772 2.50989 7.72603 2.32335 7.56526 2.25682C7.1304 2.79558 7.29116 3.70222 8.09105 4.19402C9.63414 5.14371 11.6846 4.55668 12.7361 5.40723C13.0682 5.67596 13.1354 6.0334 12.7651 6.31648C12.3632 6.62304 12.0931 6.54868 11.6833 6.72871Z" fill="#EA5353"/>
</svg>
