<svg width="20" height="20" viewBox="0 0 20 20" fill="none" xmlns="http://www.w3.org/2000/svg">
<path fill-rule="evenodd" clip-rule="evenodd" d="M11.25 6.25V1.66667H4.16667C3.93655 1.66667 3.75 1.85322 3.75 2.08333V17.9167C3.75 18.1468 3.93655 18.3333 4.16667 18.3333H15.8333C16.0635 18.3333 16.25 18.1468 16.25 17.9167V6.66667H11.6667C11.4365 6.66667 11.25 6.48013 11.25 6.25ZM12.0833 5.83333V1.91075L16.0059 5.83333H12.0833ZM7.08333 7.91667C7.08333 7.68654 7.26987 7.5 7.5 7.5H9.58333C10.5038 7.5 11.25 8.24621 11.25 9.16667C11.25 10.0316 10.5911 10.7427 9.74783 10.8253L11.25 12.3275L12.622 10.9554L13.2113 11.5447L11.8392 12.9167L13.2113 14.2888L12.622 14.878L11.25 13.506L9.878 14.878L9.28871 14.2888L10.6607 12.9167L8.57737 10.8333H7.91667V13.75H7.08333V10.4167V7.91667ZM9.58333 10H7.91667V8.33333H9.58333C10.0436 8.33333 10.4167 8.70642 10.4167 9.16667C10.4167 9.62692 10.0436 10 9.58333 10Z" fill="#FEF6F6"/>
</svg>
