<svg width="63" height="66" viewBox="0 0 63 66" fill="none" xmlns="http://www.w3.org/2000/svg">
<g opacity="0.2">
<path fill-rule="evenodd" clip-rule="evenodd" d="M6.44634 22.8897C0.441053 33.2205 -1.23869 44.8917 0.867513 55.7795L21.9557 29.2605L9.37935 60.7143C19.8668 57.1546 29.1794 49.9309 35.1847 39.5914C42.4433 27.0934 43.3658 12.6546 38.9532 0C25.7851 2.42822 13.7136 10.3918 6.44634 22.8897Z" fill="#6CD79A"/>
<path fill-rule="evenodd" clip-rule="evenodd" d="M40.3974 44.7438C34.7664 48.7561 31.0936 54.5002 29.6053 60.7405L47.0468 51.8022L32.9126 65.3707C39.2921 65.9973 45.9153 64.4133 51.5551 60.4011C58.3698 55.5533 62.3037 48.1642 62.9999 40.4444C55.4716 38.5819 47.2121 39.8961 40.3974 44.7438Z" fill="#6CD79A"/>
</g>
</svg>
