<svg width="16" height="16" viewBox="0 0 16 16" fill="none" xmlns="http://www.w3.org/2000/svg">
<path d="M10.6668 1.33331H5.3335C2.66683 1.33331 1.3335 2.66665 1.3335 5.33331V14C1.3335 14.3666 1.6335 14.6666 2.00016 14.6666H10.6668C13.3335 14.6666 14.6668 13.3333 14.6668 10.6666V5.33331C14.6668 2.66665 13.3335 1.33331 10.6668 1.33331Z" fill="#C6C7C8"/>
<path d="M11.3332 5.83331H4.6665C4.39317 5.83331 4.1665 6.05998 4.1665 6.33331C4.1665 6.60665 4.39317 6.83331 4.6665 6.83331H11.3332C11.6065 6.83331 11.8332 6.60665 11.8332 6.33331C11.8332 6.05998 11.6065 5.83331 11.3332 5.83331Z" fill="#4A4B4B"/>
<path d="M9.33317 9.16663H4.6665C4.39317 9.16663 4.1665 9.39329 4.1665 9.66663C4.1665 9.93996 4.39317 10.1666 4.6665 10.1666H9.33317C9.6065 10.1666 9.83317 9.93996 9.83317 9.66663C9.83317 9.39329 9.6065 9.16663 9.33317 9.16663Z" fill="#4A4B4B"/>
</svg>
