<svg width="16" height="16" viewBox="0 0 16 16" fill="none" xmlns="http://www.w3.org/2000/svg">
<path d="M15.1663 14.6667C15.1663 14.94 14.9397 15.1667 14.6663 15.1667H1.33301C1.05967 15.1667 0.833008 14.94 0.833008 14.6667C0.833008 14.3934 1.05967 14.1667 1.33301 14.1667H14.6663C14.9397 14.1667 15.1663 14.3934 15.1663 14.6667Z" fill="#2EC66F"/>
<path d="M14 10V14.1667H2V10C2 6.68667 4.68667 4 8 4C11.3133 4 14 6.68667 14 10Z" fill="#C0EED4"/>
<path d="M8 2.49998C7.72667 2.49998 7.5 2.27331 7.5 1.99998V1.33331C7.5 1.05998 7.72667 0.833313 8 0.833313C8.27333 0.833313 8.5 1.05998 8.5 1.33331V1.99998C8.5 2.27331 8.27333 2.49998 8 2.49998Z" fill="#2EC66F"/>
<path d="M3.33297 3.83333C3.2063 3.83333 3.07964 3.78667 2.97964 3.68667L2.31297 3.02C2.11964 2.82667 2.11964 2.50667 2.31297 2.31333C2.5063 2.12 2.8263 2.12 3.01963 2.31333L3.6863 2.98C3.87963 3.17333 3.87963 3.49333 3.6863 3.68667C3.5863 3.78667 3.45963 3.83333 3.33297 3.83333Z" fill="#2EC66F"/>
<path d="M12.6663 3.83333C12.5396 3.83333 12.413 3.78667 12.313 3.68667C12.1196 3.49333 12.1196 3.17333 12.313 2.98L12.9796 2.31333C13.173 2.12 13.493 2.12 13.6863 2.31333C13.8796 2.50667 13.8796 2.82667 13.6863 3.02L13.0196 3.68667C12.9196 3.78667 12.793 3.83333 12.6663 3.83333Z" fill="#2EC66F"/>
</svg>
