<svg width="16" height="16" viewBox="0 0 16 16" fill="none" xmlns="http://www.w3.org/2000/svg">
<path d="M13.2534 13.96C12.6201 14.4267 11.7867 14.6667 10.7934 14.6667H5.20673C5.04673 14.6667 4.88673 14.66 4.7334 14.64L9.33339 10.04L13.2534 13.96Z" fill="#C6C7C8"/>
<path d="M14.6667 5.20661V10.7933C14.6667 11.7866 14.4267 12.6199 13.96 13.2533L10.04 9.33328L14.64 4.73328C14.66 4.88661 14.6667 5.04661 14.6667 5.20661Z" fill="#C6C7C8"/>
<path d="M10.0402 9.33337L13.9602 13.2534C13.7668 13.5334 13.5335 13.7667 13.2535 13.96L9.3335 10.04L4.7335 14.64C4.30683 14.6134 3.92017 14.5267 3.56683 14.3934C2.14017 13.8734 1.3335 12.6067 1.3335 10.7934V5.20671C1.3335 2.78004 2.78016 1.33337 5.20683 1.33337H10.7935C12.6068 1.33337 13.8735 2.14004 14.3935 3.56671C14.5268 3.92004 14.6135 4.30671 14.6402 4.73337L10.0402 9.33337Z" fill="#C6C7C8"/>
<path d="M10.0402 9.33332L13.9602 13.2533C13.7669 13.5333 13.5336 13.7667 13.2536 13.96L9.33356 10.04L4.73356 14.64C4.30689 14.6133 3.92023 14.5266 3.56689 14.3933L3.82688 14.1333L14.3936 3.56665C14.5269 3.91998 14.6136 4.30665 14.6402 4.73332L10.0402 9.33332Z" fill="#4A4B4B"/>
<path d="M8.15987 5.28665C7.90653 4.18665 6.9332 3.69331 6.07987 3.68665C5.22654 3.68665 4.25321 4.17998 3.99988 5.27998C3.71988 6.49998 4.46654 7.51998 5.13987 8.15998C5.40654 8.41331 5.73987 8.53332 6.07987 8.53332C6.41987 8.53332 6.75321 8.40665 7.01987 8.15998C7.69321 7.51998 8.43987 6.49998 8.15987 5.28665ZM6.09987 6.32665C5.7332 6.32665 5.4332 6.02665 5.4332 5.65998C5.4332 5.29331 5.72654 4.99331 6.09987 4.99331H6.10654C6.47321 4.99331 6.77321 5.29331 6.77321 5.65998C6.77321 6.02665 6.46654 6.32665 6.09987 6.32665Z" fill="#4A4B4B"/>
</svg>
