<svg width="14" height="14" viewBox="0 0 14 14" fill="none" xmlns="http://www.w3.org/2000/svg">
<path d="M0 1.077V12.923C0 13.2086 0.113469 13.4826 0.315446 13.6846C0.517423 13.8865 0.791362 14 1.077 14H12.923C13.2086 14 13.4826 13.8865 13.6846 13.6846C13.8865 13.4826 14 13.2086 14 12.923V1.077C14 0.791362 13.8865 0.517423 13.6846 0.315446C13.4826 0.113469 13.2086 0 12.923 0H1.077C0.791362 0 0.517423 0.113469 0.315446 0.315446C0.113469 0.517423 0 0.791362 0 1.077Z" fill="#C6C7C8"/>
<path d="M7.769 8.89501V14H5.357V8.89501H4.667C4.57988 8.89634 4.49337 8.88032 4.41251 8.8479C4.33164 8.81548 4.25802 8.76729 4.19595 8.70615C4.13388 8.64501 4.08459 8.57214 4.05095 8.49177C4.01731 8.4114 3.99999 8.32514 4 8.23801V7.41001C3.99999 7.3228 4.01734 7.23646 4.05104 7.15602C4.08475 7.07559 4.13413 7.00267 4.1963 6.94151C4.25848 6.88036 4.33221 6.83219 4.4132 6.79983C4.49418 6.76747 4.5808 6.75155 4.668 6.75301H5.357V5.49301C5.31302 5.13404 5.34751 4.7698 5.45808 4.42546C5.56866 4.08112 5.75269 3.7649 5.99745 3.49865C6.24221 3.2324 6.54186 3.02247 6.8757 2.88337C7.20954 2.74427 7.5696 2.67933 7.931 2.69301H9.169C9.25674 2.69585 9.34306 2.71596 9.42302 2.75219C9.50298 2.78841 9.57502 2.84004 9.63501 2.90412C9.69501 2.9682 9.74179 3.04348 9.77267 3.12565C9.80355 3.20782 9.81794 3.29528 9.815 3.38301V4.17901C9.81675 4.26551 9.8005 4.35142 9.76728 4.4313C9.73405 4.51118 9.68458 4.58328 9.622 4.64301C9.56375 4.70723 9.49206 4.75781 9.41203 4.79117C9.33201 4.82453 9.24561 4.83984 9.159 4.83601H8.631C8.221 4.83601 7.812 4.83601 7.812 5.74101V6.75301H8.534C8.70825 6.75301 8.87536 6.82223 8.99857 6.94544C9.12178 7.06866 9.191 7.23577 9.191 7.41001V8.24001C9.19074 8.41409 9.1214 8.58094 8.99822 8.70394C8.87503 8.82693 8.70807 8.89601 8.534 8.89601L7.769 8.89501Z" fill="#4A4B4B"/>
</svg>
