<svg width="16" height="16" viewBox="0 0 16 16" fill="none" xmlns="http://www.w3.org/2000/svg">
<path d="M0.898438 3.87429C0.898741 3.0852 1.21242 2.32854 1.77049 1.77068C2.32857 1.21281 3.08535 0.899429 3.87444 0.899429H11.8104C12.5993 0.899732 13.3558 1.21325 13.9136 1.77108C14.4715 2.32891 14.785 3.0854 14.7853 3.87429V11.8103C14.7853 12.5994 14.4719 13.3562 13.914 13.9142C13.3562 14.4723 12.5995 14.786 11.8104 14.7863H3.87444C3.08515 14.7863 2.3282 14.4727 1.77009 13.9146C1.21198 13.3565 0.898438 12.5996 0.898438 11.8103V3.87429Z" fill="#C6C7C8"/>
<path d="M12.5341 3.832C12.5341 4.02372 12.4579 4.20758 12.3224 4.34314C12.1868 4.4787 12.003 4.55486 11.8112 4.55486C11.6195 4.55486 11.4357 4.4787 11.3001 4.34314C11.1645 4.20758 11.0884 4.02372 11.0884 3.832C11.0884 3.64029 11.1645 3.45643 11.3001 3.32087C11.4357 3.1853 11.6195 3.10915 11.8112 3.10915C12.003 3.10915 12.1868 3.1853 12.3224 3.32087C12.4579 3.45643 12.5341 3.64029 12.5341 3.832Z" fill="#4A4B4B"/>
<path fill-rule="evenodd" clip-rule="evenodd" d="M11.8091 4.736C12.0365 4.736 12.2545 4.64569 12.4152 4.48495C12.576 4.3242 12.6663 4.10618 12.6663 3.87886C12.6663 3.65153 12.576 3.43351 12.4152 3.27276C12.2545 3.11202 12.0365 3.02171 11.8091 3.02171C11.5818 3.02171 11.3638 3.11202 11.203 3.27276C11.0423 3.43351 10.952 3.65153 10.952 3.87886C10.952 4.10618 11.0423 4.3242 11.203 4.48495C11.3638 4.64569 11.5818 4.736 11.8091 4.736ZM4.32227 7.84228C4.32227 6.90872 4.69312 6.0134 5.35325 5.35327C6.01338 4.69314 6.9087 4.32228 7.84227 4.32228C8.77583 4.32228 9.67115 4.69314 10.3313 5.35327C10.9914 6.0134 11.3623 6.90872 11.3623 7.84228C11.3623 8.77585 10.9914 9.67117 10.3313 10.3313C9.67115 10.9914 8.77583 11.3623 7.84227 11.3623C6.9087 11.3623 6.01338 10.9914 5.35325 10.3313C4.69312 9.67117 4.32227 8.77585 4.32227 7.84228Z" fill="#4A4B4B"/>
</svg>
