<svg width="18" height="18" viewBox="0 0 18 18" fill="none" xmlns="http://www.w3.org/2000/svg">
<path d="M0 1.38471V16.6153C0 16.9825 0.145889 17.3347 0.405573 17.5944C0.665258 17.8541 1.01747 18 1.38471 18H16.6153C16.9825 18 17.3347 17.8541 17.5944 17.5944C17.8541 17.3347 18 16.9825 18 16.6153V1.38471C18 1.01747 17.8541 0.665258 17.5944 0.405573C17.3347 0.145889 16.9825 0 16.6153 0H1.38471C1.01747 0 0.665258 0.145889 0.405573 0.405573C0.145889 0.665258 0 1.01747 0 1.38471Z" fill="#F9CBCB"/>
<path d="M12.5368 11.6801V18H9.63343V11.6801H8.80287C8.69801 11.6818 8.59388 11.662 8.49653 11.6218C8.39919 11.5817 8.31059 11.522 8.23587 11.4463C8.16115 11.3706 8.10182 11.2804 8.06133 11.1809C8.02084 11.0814 7.99999 10.9746 8 10.8668V9.84174C7.99999 9.73378 8.02087 9.62689 8.06144 9.52731C8.10201 9.42773 8.16145 9.33746 8.23629 9.26175C8.31114 9.18604 8.39989 9.12642 8.49737 9.08635C8.59485 9.04629 8.69911 9.02659 8.80408 9.02839H9.63343V7.46855C9.58049 7.02415 9.622 6.57322 9.7551 6.14694C9.88821 5.72066 10.1097 5.32918 10.4043 4.99957C10.699 4.66996 11.0597 4.41007 11.4615 4.23788C11.8633 4.06568 12.2968 3.98527 12.7318 4.00222H14.222C14.3276 4.00573 14.4315 4.03063 14.5277 4.07547C14.624 4.12031 14.7107 4.18423 14.7829 4.26356C14.8551 4.34289 14.9114 4.43609 14.9486 4.53781C14.9858 4.63954 15.0031 4.7478 14.9995 4.85642V5.84185C15.0017 5.94893 14.9821 6.05528 14.9421 6.15417C14.9021 6.25306 14.8426 6.34231 14.7672 6.41627C14.6971 6.49576 14.6108 6.55838 14.5145 6.59968C14.4182 6.64098 14.3142 6.65993 14.2099 6.6552H13.5744C13.0808 6.6552 12.5885 6.6552 12.5885 7.77556V9.02839H13.4576C13.6673 9.02839 13.8685 9.11409 14.0168 9.26662C14.1651 9.41915 14.2484 9.62603 14.2484 9.84174V10.8693C14.2481 11.0848 14.1647 11.2913 14.0164 11.4436C13.8681 11.5959 13.6671 11.6814 13.4576 11.6814L12.5368 11.6801Z" fill="#EA5353"/>
</svg>
