<svg width="16" height="16" viewBox="0 0 16 16" fill="none" xmlns="http://www.w3.org/2000/svg">
<path d="M11.3335 12.2867H8.66683L5.70015 14.26C5.26015 14.5533 4.66683 14.24 4.66683 13.7067V12.2867C2.66683 12.2867 1.3335 10.9533 1.3335 8.95333V4.95333C1.3335 2.95333 2.66683 1.62 4.66683 1.62H11.3335C13.3335 1.62 14.6668 2.95333 14.6668 4.95333V8.95333C14.6668 10.9533 13.3335 12.2867 11.3335 12.2867Z" fill="#C6C7C8"/>
<path d="M8.0002 8.07332C7.72687 8.07332 7.5002 7.84666 7.5002 7.57332V7.43335C7.5002 6.66002 8.06686 6.28001 8.28019 6.13334C8.52686 5.96668 8.60685 5.85335 8.60685 5.68001C8.60685 5.34668 8.33354 5.07332 8.0002 5.07332C7.66687 5.07332 7.39355 5.34668 7.39355 5.68001C7.39355 5.95335 7.16689 6.18001 6.89355 6.18001C6.62022 6.18001 6.39355 5.95335 6.39355 5.68001C6.39355 4.79335 7.11354 4.07332 8.0002 4.07332C8.88687 4.07332 9.60685 4.79335 9.60685 5.68001C9.60685 6.44001 9.04688 6.82 8.84021 6.96C8.58021 7.13334 8.5002 7.24668 8.5002 7.43335V7.57332C8.5002 7.85332 8.27354 8.07332 8.0002 8.07332Z" fill="#4A4B4B"/>
<path d="M8 9.73332C7.72 9.73332 7.5 9.50665 7.5 9.23332C7.5 8.95999 7.72667 8.73332 8 8.73332C8.27333 8.73332 8.5 8.95999 8.5 9.23332C8.5 9.50665 8.28 9.73332 8 9.73332Z" fill="#4A4B4B"/>
</svg>
