<svg width="14" height="14" viewBox="0 0 14 14" fill="none" xmlns="http://www.w3.org/2000/svg">
<path d="M13.2707 12.8333C13.2707 13.0725 13.0723 13.2708 12.8332 13.2708H1.1665C0.927337 13.2708 0.729004 13.0725 0.729004 12.8333C0.729004 12.5883 0.927337 12.3958 1.1665 12.3958H12.8332C13.0723 12.3958 13.2707 12.5883 13.2707 12.8333Z" fill="#4A4B4B"/>
<path d="M12.2499 5.82165V12.3958H1.7207L1.74987 5.81581C1.74987 5.45997 1.9132 5.12167 2.19904 4.9L6.28237 1.72667C6.70237 1.39417 7.29737 1.39417 7.71737 1.72667L11.8007 4.9C12.0865 5.12167 12.2499 5.45998 12.2499 5.82165Z" fill="#C6C7C8"/>
<path d="M7.875 4.8125H6.125C5.88583 4.8125 5.6875 4.61417 5.6875 4.375C5.6875 4.13583 5.88583 3.9375 6.125 3.9375H7.875C8.11417 3.9375 8.3125 4.13583 8.3125 4.375C8.3125 4.61417 8.11417 4.8125 7.875 4.8125Z" fill="#4A4B4B"/>
<path d="M9.04183 6.41669H4.9585C4.47433 6.41669 4.0835 6.80752 4.0835 7.29169V12.8334H9.91683V7.29169C9.91683 6.80752 9.526 6.41669 9.04183 6.41669ZM6.271 10.3542C6.271 10.5934 6.07266 10.7917 5.8335 10.7917C5.59433 10.7917 5.396 10.5934 5.396 10.3542V9.47919C5.396 9.24002 5.59433 9.04169 5.8335 9.04169C6.07266 9.04169 6.271 9.24002 6.271 9.47919V10.3542Z" fill="#4A4B4B"/>
</svg>
