<svg width="20" height="20" viewBox="0 0 20 20" fill="none" xmlns="http://www.w3.org/2000/svg">
<path d="M14.7916 16.875C13.9166 16.875 13.177 16.5729 12.5728 15.9688C11.9687 15.3646 11.6666 14.625 11.6666 13.75C11.6666 12.875 11.9687 12.1354 12.5728 11.5312C13.177 10.9271 13.9166 10.625 14.7916 10.625C15.6666 10.625 16.4062 10.9271 17.0103 11.5312C17.6145 12.1354 17.9166 12.875 17.9166 13.75C17.9166 14.625 17.6145 15.3646 17.0103 15.9688C16.4062 16.5729 15.6666 16.875 14.7916 16.875ZM14.7916 15.2083C15.1944 15.2083 15.5381 15.066 15.8228 14.7812C16.1076 14.4965 16.2499 14.1528 16.2499 13.75C16.2499 13.3472 16.1076 13.0035 15.8228 12.7188C15.5381 12.434 15.1944 12.2917 14.7916 12.2917C14.3888 12.2917 14.0451 12.434 13.7603 12.7188C13.4756 13.0035 13.3333 13.3472 13.3333 13.75C13.3333 14.1528 13.4756 14.4965 13.7603 14.7812C14.0451 15.066 14.3888 15.2083 14.7916 15.2083ZM9.16658 14.5833H4.16659C3.93047 14.5833 3.73256 14.5035 3.57284 14.3438C3.41311 14.184 3.33325 13.9861 3.33325 13.75C3.33325 13.5139 3.41311 13.316 3.57284 13.1562C3.73256 12.9965 3.93047 12.9167 4.16659 12.9167H9.16658C9.4027 12.9167 9.60061 12.9965 9.76033 13.1562C9.92006 13.316 9.99992 13.5139 9.99992 13.75C9.99992 13.9861 9.92006 14.184 9.76033 14.3438C9.60061 14.5035 9.4027 14.5833 9.16658 14.5833ZM5.20825 9.375C4.33325 9.375 3.59367 9.07292 2.9895 8.46875C2.38534 7.86458 2.08325 7.125 2.08325 6.25C2.08325 5.375 2.38534 4.63542 2.9895 4.03125C3.59367 3.42708 4.33325 3.125 5.20825 3.125C6.08325 3.125 6.82283 3.42708 7.427 4.03125C8.03117 4.63542 8.33325 5.375 8.33325 6.25C8.33325 7.125 8.03117 7.86458 7.427 8.46875C6.82283 9.07292 6.08325 9.375 5.20825 9.375ZM5.20825 7.70833C5.61103 7.70833 5.95478 7.56597 6.2395 7.28125C6.52422 6.99653 6.66658 6.65278 6.66658 6.25C6.66658 5.84722 6.52422 5.50347 6.2395 5.21875C5.95478 4.93403 5.61103 4.79167 5.20825 4.79167C4.80547 4.79167 4.46172 4.93403 4.177 5.21875C3.89228 5.50347 3.74992 5.84722 3.74992 6.25C3.74992 6.65278 3.89228 6.99653 4.177 7.28125C4.46172 7.56597 4.80547 7.70833 5.20825 7.70833ZM15.8333 7.08333H10.8333C10.5971 7.08333 10.3992 7.00347 10.2395 6.84375C10.0798 6.68403 9.99992 6.48611 9.99992 6.25C9.99992 6.01389 10.0798 5.81597 10.2395 5.65625C10.3992 5.49653 10.5971 5.41667 10.8333 5.41667H15.8333C16.0694 5.41667 16.2673 5.49653 16.427 5.65625C16.5867 5.81597 16.6666 6.01389 16.6666 6.25C16.6666 6.48611 16.5867 6.68403 16.427 6.84375C16.2673 7.00347 16.0694 7.08333 15.8333 7.08333Z" fill="#3F484A"/>
</svg>
