<svg width="16" height="16" viewBox="0 0 16 16" fill="none" xmlns="http://www.w3.org/2000/svg">
<path d="M7.66634 14C11.1641 14 13.9997 11.1645 13.9997 7.66668C13.9997 4.16887 11.1641 1.33334 7.66634 1.33334C4.16854 1.33334 1.33301 4.16887 1.33301 7.66668C1.33301 11.1645 4.16854 14 7.66634 14Z" fill="#4A4B4B"/>
<path d="M14.1997 14.6667C14.0797 14.6667 13.9597 14.62 13.873 14.5333L12.633 13.2933C12.453 13.1133 12.453 12.82 12.633 12.6333C12.813 12.4533 13.1064 12.4533 13.293 12.6333L14.533 13.8733C14.713 14.0533 14.713 14.3467 14.533 14.5333C14.4397 14.62 14.3197 14.6667 14.1997 14.6667Z" fill="#C6C7C8"/>
</svg>
