<svg width="24" height="24" viewBox="0 0 24 24" fill="none" xmlns="http://www.w3.org/2000/svg">
<circle cx="12" cy="12" r="12" fill="#077BF8" fill-opacity="0.1"/>
<g clip-path="url(#clip0_2288_18206)">
<path d="M7.63677 17.3049L5.9701 18.9715C5.70975 19.2319 5.28764 19.2319 5.02729 18.9715C4.76694 18.7112 4.76694 18.2891 5.02729 18.0287L6.69396 16.3621L7.63677 17.3049Z" fill="#000D1C"/>
<path d="M10.8606 7.52851C11.121 7.26816 11.5431 7.26816 11.8034 7.52851L16.4701 12.1952C16.5739 12.299 16.6363 12.4285 16.6573 12.5631C16.6712 12.6517 16.6781 12.696 16.6398 12.7192C16.6016 12.7423 16.5596 12.7112 16.4756 12.649C15.7832 12.1364 14.9263 11.8333 13.9987 11.8333C11.6975 11.8333 9.83203 13.6987 9.83203 15.9999C9.83203 16.3652 9.87903 16.7195 9.96732 17.0571C9.97814 17.0985 9.94337 17.1379 9.9014 17.1295C9.57568 17.0647 9.30607 16.8996 9.04465 16.6864C8.79421 16.4822 8.51294 16.201 8.17357 15.8616C7.83419 15.5222 7.51639 15.2044 7.3122 14.954C7.09905 14.6925 6.9339 14.4229 6.86911 14.0972C6.81967 13.8487 6.81967 13.5929 6.86911 13.3443C6.9339 13.0186 7.09905 12.749 7.3122 12.4876C7.51638 12.2372 7.79766 11.9559 8.13704 11.6165L10.8606 8.89294C10.9253 8.82829 10.9576 8.79596 10.9728 8.76002C10.9939 8.71023 10.9939 8.65404 10.9728 8.60424C10.9576 8.5683 10.9253 8.53598 10.8606 8.47132C10.6003 8.21097 10.6003 7.78886 10.8606 7.52851Z" fill="#077BF8"/>
<path d="M14.001 12.833C12.2521 12.833 10.834 14.2511 10.834 16C10.834 17.7489 12.2521 19.167 14.001 19.167C15.7499 19.167 17.168 17.7489 17.168 16C17.168 14.2511 15.7499 12.833 14.001 12.833ZM14.6836 14.8809C14.8603 14.6688 15.1756 14.6398 15.3877 14.8164C15.5998 14.9932 15.6288 15.3084 15.4521 15.5205L14.4785 16.6885C14.4038 16.7782 14.3181 16.881 14.2334 16.958C14.1327 17.0496 13.9743 17.1608 13.751 17.1709C13.5279 17.1809 13.3605 17.085 13.252 17.0029C13.1606 16.9339 13.0659 16.8395 12.9834 16.7568L12.5811 16.3545C12.3859 16.1593 12.386 15.8427 12.5811 15.6475C12.7763 15.4522 13.0928 15.4522 13.2881 15.6475L13.7012 16.0596L14.6836 14.8809Z" fill="#000D1C"/>
<path d="M15.9902 5.46817C15.9902 5.11751 15.7059 4.83325 15.3552 4.83325C15.0046 4.83325 14.7203 5.11751 14.7203 5.46817C14.72 5.73401 14.7196 6.03989 14.7876 6.27863C14.8246 6.40836 14.8764 6.5334 14.942 6.65129C14.9887 6.73525 15.0436 6.81294 15.1043 6.88753L12.9141 8.63976L13.8175 9.54319L15.9959 7.80044L16.1976 8.00205L14.4548 10.1805L15.3582 11.0839L17.1105 8.89365C17.1851 8.95436 17.2628 9.00929 17.3467 9.05601C17.4646 9.12159 17.5896 9.17339 17.7194 9.21036C17.9581 9.27842 18.264 9.27803 18.5298 9.27768C18.8805 9.27768 19.1647 8.99342 19.1647 8.64276C19.1647 8.29211 18.8805 8.00784 18.5298 8.00784C18.1703 8.00784 18.1131 8.00219 18.0675 7.98917C18.0315 7.97891 17.9968 7.96455 17.9641 7.94635C17.9226 7.92327 17.8782 7.88686 17.6239 7.63261L16.3654 6.37406C16.1111 6.11981 16.0747 6.0754 16.0516 6.03391C16.0335 6.00121 16.0191 5.96652 16.0088 5.93054C15.9958 5.88487 15.9902 5.82773 15.9902 5.46817Z" fill="#000D1C"/>
<path d="M7.80629 15.4915C7.61268 15.2938 7.44096 15.1112 7.3135 14.9549C7.16624 14.7743 7.04188 14.5897 6.95771 14.3855L6.44009 15.11C6.29828 15.3075 6.12989 15.5423 6.05342 15.7858C5.97699 16.0189 6.02284 16.2878 6.05532 16.3931C6.1372 16.6553 6.32318 16.9952 6.6646 17.3366C7.09399 17.766 7.54737 17.9814 7.87755 17.9981C7.90624 17.9995 7.935 17.9991 7.96364 17.9969C8.18714 17.9793 8.36815 17.8973 8.51292 17.8137C8.64132 17.7395 8.78211 17.6389 8.92206 17.5389L9.61587 17.0433C9.41142 16.9592 9.22673 16.8347 9.04595 16.6873C8.88273 16.5543 8.70641 16.3884 8.50945 16.1951L8.16652 16.4401C8.04062 16.53 7.95997 16.5871 7.89983 16.626C7.82787 16.5845 7.72634 16.5127 7.60741 16.3938C7.48881 16.2752 7.41751 16.1723 7.37635 16.0997C7.41808 16.0353 7.47511 15.9551 7.56114 15.8347L7.80629 15.4915Z" fill="#000D1C"/>
</g>
<defs>
<clipPath id="clip0_2288_18206">
<rect width="16" height="16" fill="white" transform="translate(4 4)"/>
</clipPath>
</defs>
</svg>
