<svg width="14" height="14" viewBox="0 0 14 14" fill="none" xmlns="http://www.w3.org/2000/svg">
    <path d="M0.728516 6.99992C0.728516 10.4632 3.53606 13.2708 6.99935 13.2708C10.4626 13.2708 13.2702 10.4632 13.2702 6.99992C13.2702 3.53663 10.4626 0.729086 6.99935 0.729086C3.53606 0.729086 0.728516 3.53663 0.728516 6.99992Z" fill="#F79009" fill-opacity="0.24"/>
    <path fill-rule="evenodd" clip-rule="evenodd" d="M6.81508 6.43249C6.95919 6.45186 7.15854 6.50372 7.3277 6.67289C7.49686 6.84205 7.54873 7.0414 7.5681 7.18551C7.58415 7.30489 7.58407 7.4437 7.58399 7.5603C7.58399 7.56806 7.58398 7.57572 7.58398 7.58327V9.9166C7.58398 10.2388 7.32282 10.4999 7.00065 10.4999C6.67848 10.4999 6.41732 10.2388 6.41732 9.9166V7.58327C6.09515 7.58327 5.83398 7.3221 5.83398 6.99994C5.83398 6.67777 6.09515 6.4166 6.41732 6.4166C6.42487 6.4166 6.43253 6.4166 6.44029 6.4166C6.55688 6.41652 6.6957 6.41643 6.81508 6.43249Z" fill="#F79009"/>
    <path fill-rule="evenodd" clip-rule="evenodd" d="M6.41727 4.66659C6.41727 4.34442 6.67727 4.08325 6.99799 4.08325H7.00321C7.32393 4.08325 7.58393 4.34442 7.58393 4.66659C7.58393 4.98875 7.32393 5.24992 7.00321 5.24992H6.99799C6.67727 5.24992 6.41727 4.98875 6.41727 4.66659Z" fill="#F79009"/>
</svg>
