<svg width="32" height="32" viewBox="0 0 32 32" fill="none" xmlns="http://www.w3.org/2000/svg">
    <rect width="32" height="32" rx="16" fill="#077BF8" fill-opacity="0.1"/>
    <path d="M18.095 17.6491C18.198 17.5115 18.2837 17.4258 18.3528 17.3228C18.6964 16.8245 18.5761 16.3779 18.1296 15.9826C17.9408 15.8277 17.7003 15.6045 17.4937 15.4669C16.9441 15.0031 16.6863 14.7626 16.3594 14.3499C15.5347 13.4735 14.7267 12.924 13.6443 13.1818C12.6303 13.4223 11.7546 14.4363 11.7372 15.467C11.7199 16.0684 11.789 16.6013 11.789 17.1854C11.789 18.3197 11.8236 19.0925 11.6515 20.3297C11.6169 20.553 11.4967 21.2234 11.4628 21.4467C11.4455 21.567 11.4282 21.67 11.4282 21.7557C11.2907 23.1478 12.4077 24.3505 13.8164 24.3331C15.0536 24.3159 16.4796 24.2813 17.4072 24.2813C18.2318 24.2813 19.0398 24.0581 19.7096 23.5942C20.4658 23.0613 20.8438 22.4088 20.9296 21.4978C21.1017 19.3848 20.0366 18.2338 18.095 17.6491ZM17.6651 22.2374C17.6651 22.2374 16.0497 21.5842 16.0497 20.3815V20.2785C16.1016 19.6426 16.5308 19.4021 16.9435 19.4021C17.287 19.4021 17.5794 19.5742 17.6824 19.8313C17.7854 19.5908 18.0777 19.4021 18.4213 19.4021C18.8505 19.4021 19.2805 19.6426 19.315 20.3131V20.3815C19.315 21.567 17.6651 22.2374 17.6651 22.2374Z" fill="#000D1C"/>
    <path d="M16.9433 10.2435C16.9433 11.6675 15.7898 12.821 14.3659 12.821C12.9425 12.821 11.7891 11.6675 11.7891 10.2435C11.7891 8.82021 12.9426 7.66675 14.3659 7.66675C15.7898 7.66675 16.9433 8.82028 16.9433 10.2435Z" fill="#077BF8"/>
</svg>
