<svg width="24" height="24" viewBox="0 0 24 24" fill="none" xmlns="http://www.w3.org/2000/svg">
<circle cx="12" cy="12" r="12" fill="#077BF8" fill-opacity="0.1"/>
<path d="M7.57052 10.3059C7.76397 10.1204 8.06936 10.1204 8.26281 10.3059L8.26664 10.3098C8.34675 10.391 8.5739 10.6212 8.70114 10.7594C8.95927 11.0397 9.30436 11.4362 9.65062 11.8998C9.99584 12.3621 10.3493 12.9005 10.618 13.4645C10.8847 14.024 11.0833 14.6404 11.0833 15.2501C11.0833 16.3802 10.7062 17.2161 10.0779 17.7619C9.46232 18.2967 8.66663 18.5001 7.91667 18.5001C7.16671 18.5001 6.37101 18.2967 5.75542 17.7619C5.12713 17.2161 4.75 16.3802 4.75 15.2501C4.75 14.6404 4.94866 14.024 5.2153 13.4645C5.48406 12.9005 5.83749 12.3621 6.18272 11.8998C6.52897 11.4362 6.87407 11.0397 7.13219 10.7594C7.25945 10.6212 7.48662 10.391 7.56671 10.3098L7.57052 10.3059Z" fill="#000D1C"/>
<path d="M12.5807 5.33325C12.2125 5.33325 11.9141 5.63173 11.9141 5.99992C11.9141 6.36811 12.2125 6.66659 12.5807 6.66659L18.5807 6.66659C18.9489 6.66659 19.2474 6.36811 19.2474 5.99992C19.2474 5.63173 18.9489 5.33325 18.5807 5.33325L12.5807 5.33325Z" fill="#000D1C"/>
<path d="M18.582 6.66675L18.582 15.6667C18.582 17.3236 17.2389 18.6667 15.582 18.6667C13.9252 18.6667 12.582 17.3236 12.582 15.6667L12.582 6.66675H13.9154L13.9154 10.8557C14.0036 10.8 14.0936 10.7482 14.1845 10.7028C14.7107 10.4396 15.3459 10.342 16.0199 10.7464C16.2841 10.9049 16.5017 10.9008 16.7354 10.8164C16.9014 10.7564 17.0676 10.6586 17.2487 10.534L17.2487 6.66675L18.582 6.66675Z" fill="#077BF8"/>
<path d="M13.9141 8H15.2474C15.6156 8 15.9141 8.29848 15.9141 8.66667C15.9141 9.03486 15.6156 9.33333 15.2474 9.33333H13.9141V8Z" fill="#000D1C"/>
</svg>
