<svg width="18" height="18" viewBox="0 0 18 18" fill="none" xmlns="http://www.w3.org/2000/svg">
<path d="M14.9092 15.7049C14.1967 16.2299 13.2592 16.4999 12.1417 16.4999H5.85671C5.67671 16.4999 5.49672 16.4924 5.32422 16.4699L10.4992 11.2949L14.9092 15.7049Z" fill="#D0D5DD"/>
<path d="M16.5019 5.85745V12.1425C16.5019 13.26 16.2319 14.1975 15.7069 14.91L11.2969 10.5L16.4719 5.32495C16.4944 5.49745 16.5019 5.67745 16.5019 5.85745Z" fill="#D0D5DD"/>
<path d="M11.295 10.5L15.705 14.91C15.4875 15.225 15.225 15.4875 14.91 15.705L10.5 11.295L5.325 16.47C4.845 16.44 4.41 16.3425 4.0125 16.1925C2.4075 15.6075 1.5 14.1825 1.5 12.1425V5.8575C1.5 3.1275 3.1275 1.5 5.8575 1.5H12.1425C14.1825 1.5 15.6075 2.4075 16.1925 4.0125C16.3425 4.41 16.44 4.845 16.47 5.325L11.295 10.5Z" fill="#D0D5DD"/>
<path d="M11.2942 10.5L15.7042 14.91C15.4867 15.2249 15.2242 15.4875 14.9092 15.705L10.4992 11.295L5.32422 16.47C4.84422 16.44 4.40922 16.3424 4.01172 16.1924L4.30421 15.9L16.1917 4.01245C16.3417 4.40995 16.4392 4.84495 16.4692 5.32495L11.2942 10.5Z" fill="#1D2939"/>
<path d="M9.18156 5.94746C8.89656 4.70996 7.80156 4.15496 6.84156 4.14746C5.88156 4.14746 4.78657 4.70246 4.50157 5.93996C4.18657 7.31246 5.02656 8.45996 5.78406 9.17996C6.08406 9.46496 6.45906 9.59996 6.84156 9.59996C7.22406 9.59996 7.59907 9.45746 7.89907 9.17996C8.65657 8.45996 9.49656 7.31246 9.18156 5.94746ZM6.86406 7.11746C6.45156 7.11746 6.11406 6.77996 6.11406 6.36746C6.11406 5.95496 6.44406 5.61746 6.86406 5.61746H6.87157C7.28407 5.61746 7.62157 5.95496 7.62157 6.36746C7.62157 6.77996 7.27656 7.11746 6.86406 7.11746Z" fill="#1D2939"/>
</svg>
