<svg width="115" height="120" viewBox="0 0 115 120" fill="none" xmlns="http://www.w3.org/2000/svg">
<g opacity="0.2">
<path fill-rule="evenodd" clip-rule="evenodd" d="M11.8095 41.9332C0.807995 60.859 -2.26924 82.2401 1.58926 102.186L40.222 53.6044L17.1827 111.227C36.3954 104.705 53.4557 91.4718 64.4572 72.5301C77.7547 49.6343 79.4447 23.1828 71.361 0C47.2375 4.44843 25.1229 19.0374 11.8095 41.9332Z" fill="#F7BABA"/>
<path fill-rule="evenodd" clip-rule="evenodd" d="M74.0066 81.9692C63.6907 89.3195 56.9623 99.8426 54.2358 111.275L86.188 94.9L60.2946 119.757C71.9817 120.905 84.1153 118.003 94.4471 110.653C106.931 101.772 114.138 88.2353 115.414 74.0928C101.622 70.6808 86.4909 73.0883 74.0066 81.9692Z" fill="#F7BABA"/>
</g>
</svg>
