<svg width="20" height="20" viewBox="0 0 20 20" fill="none" xmlns="http://www.w3.org/2000/svg">
<path fill-rule="evenodd" clip-rule="evenodd" d="M14.0048 3.49267C12.6813 2.16916 10.5354 2.16916 9.21191 3.49267L6.82336 5.88122C5.49985 7.20473 5.49985 9.35056 6.82336 10.6741C8.11386 11.9646 10.1866 11.9968 11.5157 10.7707C11.8539 10.4586 12.3812 10.4798 12.6932 10.8181C13.0053 11.1564 12.9841 11.6836 12.6458 11.9957C10.6621 13.8258 7.57033 13.7781 5.64485 11.8526C3.67047 9.8782 3.67047 6.67709 5.64485 4.70271L8.0334 2.31416C10.0078 0.339778 13.2089 0.339778 15.1833 2.31416C17.1577 4.28855 17.1577 7.48966 15.1833 9.46404L14.7963 9.85099C14.4709 10.1764 13.9432 10.1764 13.6178 9.85099C13.2924 9.52556 13.2924 8.99792 13.6178 8.67248L14.0048 8.28553C15.3283 6.96202 15.3283 4.81618 14.0048 3.49267Z" fill="#D0D5DD"/>
<path d="M7.34947 8.00423C9.33321 6.17413 12.425 6.2223 14.3504 8.14778C16.3248 10.1222 16.3248 13.3228 14.3504 15.2972L11.9618 17.6859C9.98738 19.66 6.78667 19.6602 4.81236 17.6859C2.86401 15.7375 2.83922 12.5954 4.73619 10.6156C4.96848 11.0608 5.27146 11.4789 5.64537 11.8529C5.68394 11.8914 5.72405 11.9281 5.76354 11.9652C4.67217 13.2964 4.74822 15.2643 5.99107 16.5072C7.31459 17.8307 9.46053 17.8307 10.784 16.5072L13.1727 14.1185C14.4959 12.7949 14.4961 10.6489 13.1727 9.32552C11.8822 8.03502 9.80937 8.00371 8.48033 9.22982C8.1421 9.54182 7.61467 9.52012 7.3026 9.18196C6.99057 8.84374 7.01133 8.31632 7.34947 8.00423Z" fill="#1D2939"/>
</svg>
