<svg width="112" height="113" viewBox="0 0 112 113" fill="none" xmlns="http://www.w3.org/2000/svg">
<path d="M56.0005 112.941C86.3992 112.941 111.042 88.497 111.042 58.3438C111.042 28.1907 86.3992 3.7467 56.0005 3.7467C25.6019 3.7467 0.958984 28.1907 0.958984 58.3438C0.958984 88.497 25.6019 112.941 56.0005 112.941Z" fill="#D5DDEA"/>
<path d="M53.7293 8.70625C48.235 8.94846 42.9229 10.0649 38.0316 11.9372C37.7284 12.2479 37.4296 12.543 37.1452 12.8239L37.1105 12.8582C31.4165 18.6247 26.78 26.9502 23.9823 36.8275H53.7293V8.70625Z" fill="white"/>
<path d="M28.2041 17.0216C20.8086 21.9517 14.7839 28.7946 10.8705 36.8275H19.4875C21.4726 29.3688 24.4581 22.637 28.2041 17.0216Z" fill="white"/>
<path d="M9.0153 41.1464C7.00885 46.51 5.91016 52.3043 5.91016 58.3431C5.91016 64.4728 7.04218 70.3507 9.10652 75.7817H18.479C17.3407 70.2641 16.7336 64.4039 16.7336 58.3438C16.7336 52.3772 17.3398 46.599 18.4677 41.1464H9.0153Z" fill="white"/>
<path d="M10.9892 80.1007C14.8771 87.9722 20.7975 94.6873 28.047 99.5595C24.3605 94.0428 21.4442 87.4323 19.4963 80.1007H10.9892Z" fill="white"/>
<path d="M38.0135 104.742C42.9098 106.619 48.2282 107.737 53.7293 107.98V80.1007H23.9906C26.7709 89.9286 31.3754 98.1635 37.1012 103.82C37.4031 104.118 37.7083 104.426 38.0135 104.742Z" fill="white"/>
<path d="M58.0658 107.989C63.5933 107.767 68.9397 106.661 73.8627 104.79C74.131 104.507 74.4048 104.226 74.6841 103.95C80.3552 98.207 84.9772 89.9254 87.7785 80.1007H58.0658V107.989Z" fill="white"/>
<path d="M83.5408 99.8611C91.0223 94.9661 97.0947 88.136 101.046 80.1007H92.2754C90.2814 87.5446 87.2901 94.2609 83.5408 99.8611Z" fill="white"/>
<path d="M102.919 75.7817C104.971 70.3507 106.093 64.4728 106.093 58.3431C106.093 52.3043 105.004 46.51 103.009 41.1464H93.3361C94.4612 46.6225 95.0614 52.4384 95.0614 58.464C95.0614 64.4746 94.4462 70.2939 93.3023 75.7817H102.919Z" fill="white"/>
<path d="M101.164 36.8275C97.1819 28.6165 90.9906 21.6488 83.3431 16.6964C87.235 22.3689 90.3031 29.209 92.322 36.8275H101.164Z" fill="white"/>
<path d="M73.6171 11.8032C73.9433 12.1671 74.275 12.5324 74.615 12.9056C74.6376 12.9305 74.6608 12.9548 74.6846 12.9786C80.4345 18.7276 85.0506 26.984 87.8285 36.8275H58.0658V8.69751C63.5015 8.91513 68.7621 9.98842 73.6171 11.8032Z" fill="white"/>
<path d="M88.869 75.7817C90.0681 70.3529 90.725 64.531 90.725 58.464C90.725 52.3774 90.0842 46.5601 88.9057 41.1464H58.0658V75.7817H88.869Z" fill="white"/>
<path d="M53.7293 75.7817V41.1464H22.8995C21.7172 46.5409 21.07 52.3216 21.07 58.3438C21.07 64.4677 21.7185 70.3296 22.91 75.7817H53.7293Z" fill="white"/>
<path d="M87.5789 0C100.352 0 110.682 10.1207 110.682 22.6349C110.682 32.6189 96.0246 52.3817 90.0219 60.0406C88.7655 61.6818 86.2528 61.6818 84.9964 60.0406C78.9937 52.3817 64.3359 32.6189 64.3359 22.6349C64.4755 10.1207 74.8058 0 87.5789 0Z" fill="url(#paint0_linear_733_26330)"/>
<path d="M87.5082 32.2068C92.4974 32.2068 96.5418 27.9864 96.5418 22.7804C96.5418 17.5743 92.4974 13.354 87.5082 13.354C82.5191 13.354 78.4746 17.5743 78.4746 22.7804C78.4746 27.9864 82.5191 32.2068 87.5082 32.2068Z" fill="white"/>
<defs>
<linearGradient id="paint0_linear_733_26330" x1="64.3147" y1="30.6424" x2="110.691" y2="30.6424" gradientUnits="userSpaceOnUse">
<stop stop-color="#B0BACC"/>
<stop offset="1" stop-color="#969EAE"/>
</linearGradient>
</defs>
</svg>
