<svg width="24" height="24" viewBox="0 0 24 24" fill="none" xmlns="http://www.w3.org/2000/svg">
<path d="M12.0002 1.24939C13.6569 1.24939 15 2.59275 15.0002 4.24939C15.0002 5.32412 14.4335 6.26453 13.5842 6.79431C16.5228 7.20673 18.3098 10.4723 17.135 13.3578C16.8795 13.9852 16.2804 14.4164 15.592 14.4164H15.0998L14.2727 17.9017C14.0197 18.9668 13.0969 19.7494 12.0002 19.7494C10.9036 19.7493 9.98171 18.9668 9.72874 17.9017L8.90062 14.4164H8.40843C7.72008 14.4163 7.12093 13.9852 6.86546 13.3578C5.69086 10.4725 7.47787 7.20593 10.4162 6.79333C9.56731 6.26348 9.00023 5.32383 9.00023 4.24939C9.00048 2.5928 10.3436 1.24948 12.0002 1.24939Z" fill="#D0D5DD"/>
<path fill-rule="evenodd" clip-rule="evenodd" d="M6.64689 15.2553C6.92006 15.7353 6.75239 16.3459 6.27239 16.619C5.26751 17.1909 5 17.7343 5 18.0658C5 18.4568 5.38667 19.1294 6.76144 19.7626C8.05051 20.3562 9.90162 20.7499 12 20.7499C14.0984 20.7499 15.9495 20.3562 17.2386 19.7626C18.6133 19.1294 19 18.4568 19 18.0658C19 17.7343 18.7325 17.1909 17.7276 16.619C17.2476 16.3459 17.0799 15.7353 17.3531 15.2553C17.6263 14.7753 18.2368 14.6076 18.7168 14.8808C19.9356 15.5744 21 16.6426 21 18.0658C21 19.7095 19.5958 20.8789 18.0752 21.5792C16.4688 22.3189 14.3199 22.7499 12 22.7499C9.6801 22.7499 7.53121 22.3189 5.92485 21.5792C4.4042 20.8789 3 19.7095 3 18.0658C3 16.6426 4.0644 15.5744 5.28316 14.8808C5.76316 14.6076 6.37372 14.7753 6.64689 15.2553Z" fill="#1D2939"/>
</svg>
