<svg width="16" height="16" viewBox="0 0 16 16" fill="none" xmlns="http://www.w3.org/2000/svg">
    <path d="M8.00073 11.5666C8.60088 11.5666 9.0874 11.0801 9.0874 10.48C9.0874 9.87983 8.60088 9.39331 8.00073 9.39331C7.40058 9.39331 6.91406 9.87983 6.91406 10.48C6.91406 11.0801 7.40058 11.5666 8.00073 11.5666Z" fill="#000D1C"/>
    <path d="M11.1007 6.29321H4.90065C2.16732 6.29321 1.33398 7.12655 1.33398 9.85988V11.0999C1.33398 13.8332 2.16732 14.6665 4.90065 14.6665H11.1007C13.834 14.6665 14.6673 13.8332 14.6673 11.0999V9.85988C14.6673 7.12655 13.834 6.29321 11.1007 6.29321ZM8.00065 12.4932C6.88732 12.4932 5.98732 11.5865 5.98732 10.4799C5.98732 9.37321 6.88732 8.46655 8.00065 8.46655C9.11398 8.46655 10.014 9.37321 10.014 10.4799C10.014 11.5865 9.11398 12.4932 8.00065 12.4932Z" fill="#077BF8"/>
    <path d="M4.74583 6.29992V5.51992C4.74583 3.56659 5.29917 2.26659 7.99917 2.26659C10.6992 2.26659 11.2525 3.56659 11.2525 5.51992V6.29992C11.5925 6.30659 11.8992 6.31992 12.1858 6.35992V5.51992C12.1858 3.71992 11.7525 1.33325 7.99917 1.33325C4.24583 1.33325 3.8125 3.71992 3.8125 5.51992V6.35325C4.0925 6.31992 4.40583 6.29992 4.74583 6.29992Z" fill="#000D1C"/>
</svg>
