<svg width="64" height="14" viewBox="0 0 64 14" fill="none" xmlns="http://www.w3.org/2000/svg">
    <path d="M6.5604 0.571663V5.23853C6.5604 5.55456 6.30496 5.81 5.98892 5.81H1.32206C0.943053 5.81 0.670978 5.44763 0.770779 5.0817C1.44324 2.62708 3.37629 0.694038 5.8309 0.0215723C6.19684 -0.0782282 6.55921 0.192659 6.55921 0.572851L6.5604 0.571663Z" fill="#FAFCFF"/>
    <path d="M14.7303 8.93091C14.0567 11.3784 12.1284 13.3043 9.68091 13.978C9.31497 14.079 8.95142 13.8069 8.95142 13.4267V8.77289C8.95142 8.45686 9.20686 8.20142 9.52289 8.20142H14.1791C14.5593 8.20142 14.8301 8.56498 14.7303 8.93091Z" fill="#FAFCFF"/>
    <path d="M14.1823 5.80971H11.0896C10.1546 5.80971 9.25878 6.1804 8.5982 6.84217L8.43424 7.00613L7.75702 7.68334L7.59306 7.8473C6.93248 8.50789 6.5606 9.4049 6.5606 10.3388V13.429C6.5606 13.8092 6.19704 14.0789 5.82992 13.9791C4.76419 13.688 3.79708 13.1593 2.99036 12.4488C2.74917 12.2409 2.52106 12.0128 2.31314 11.7716C1.60028 10.9649 1.0692 9.99777 0.775736 8.93323C0.674747 8.5661 0.944446 8.20136 1.32583 8.20136H4.42439C5.35943 8.20136 6.25526 7.83067 6.91584 7.1689L7.92098 6.16376C8.58156 5.50318 8.95344 4.60616 8.95344 3.67231V0.571369C8.95344 0.191177 9.31818 -0.0797101 9.68531 0.0212785C10.751 0.31474 11.7193 0.848196 12.5261 1.55868C12.7672 1.7666 12.993 1.99471 13.2033 2.2359C13.9114 3.04381 14.4413 4.01092 14.7336 5.07784C14.8334 5.44496 14.5637 5.80852 14.1835 5.80852L14.1823 5.80971Z" fill="#FAFCFF"/>
    <path d="M22.1868 10.5821C21.4407 10.5821 20.8042 10.4247 20.2772 10.1099C19.757 9.79502 19.3566 9.35698 19.076 8.79573C18.8022 8.23449 18.6653 7.59453 18.6653 6.87587C18.6653 6.14351 18.8056 5.50013 19.0862 4.94573C19.3669 4.38449 19.7707 3.94644 20.2977 3.6316C20.8247 3.30991 21.4613 3.14907 22.2073 3.14907C22.9534 3.14907 23.5865 3.30649 24.1066 3.62133C24.6337 3.93618 25.0375 4.37422 25.3181 4.93547C25.5987 5.48987 25.739 6.12982 25.739 6.85533C25.739 7.574 25.5987 8.21396 25.3181 8.7752C25.0443 9.33644 24.6405 9.77791 24.1066 10.0996C23.5796 10.4213 22.9397 10.5821 22.1868 10.5821ZM22.2073 9.3912C22.7275 9.3912 23.1518 9.27142 23.4804 9.03187C23.8089 8.79231 24.0485 8.48089 24.199 8.0976C24.3565 7.71431 24.4352 7.30707 24.4352 6.87587C24.4352 6.54733 24.3907 6.23249 24.3017 5.93133C24.2196 5.63018 24.0861 5.35982 23.9013 5.12027C23.7234 4.88071 23.4941 4.69249 23.2134 4.5556C22.9328 4.41187 22.5974 4.34 22.2073 4.34C21.694 4.34 21.2696 4.45978 20.9342 4.69933C20.6057 4.93889 20.3627 5.25031 20.2053 5.6336C20.0479 6.01689 19.9692 6.43098 19.9692 6.87587C19.9692 7.31391 20.0479 7.72458 20.2053 8.10787C20.3627 8.49116 20.6057 8.80258 20.9342 9.04213C21.2696 9.27484 21.694 9.3912 22.2073 9.3912ZM26.7509 10.5V5.08947H27.9213L27.9931 5.77733C28.1369 5.58569 28.3046 5.43511 28.4962 5.3256C28.6878 5.21609 28.8898 5.13738 29.1019 5.08947C29.3141 5.03471 29.5126 5.00733 29.6974 5.00733C30.2107 5.00733 30.6146 5.12027 30.9089 5.34613C31.21 5.572 31.4222 5.87316 31.5454 6.2496C31.6686 6.62604 31.7302 7.04698 31.7302 7.5124V10.5H30.4777V7.71773C30.4777 7.51924 30.464 7.3276 30.4366 7.1428C30.4092 6.95116 30.3545 6.78004 30.2723 6.62947C30.197 6.47889 30.0875 6.35911 29.9438 6.27013C29.8001 6.18116 29.6084 6.13667 29.3689 6.13667C29.0746 6.13667 28.8247 6.21538 28.6194 6.3728C28.4141 6.53022 28.2601 6.7424 28.1574 7.00933C28.0547 7.26942 28.0034 7.56716 28.0034 7.90253V10.5H26.7509ZM35.3298 10.5719C34.7685 10.5719 34.2894 10.4555 33.8925 10.2228C33.5023 9.99009 33.2046 9.6684 32.9993 9.25773C32.8008 8.84022 32.7015 8.35769 32.7015 7.81013C32.7015 7.26258 32.8042 6.78004 33.0095 6.36253C33.2217 5.93818 33.5229 5.60622 33.913 5.36667C34.31 5.12711 34.7857 5.00733 35.3401 5.00733C35.7507 5.00733 36.1101 5.08262 36.4181 5.2332C36.7261 5.37693 36.9827 5.57542 37.1881 5.82867C37.4002 6.08191 37.5577 6.36938 37.6603 6.69107C37.763 7.01276 37.8109 7.35156 37.8041 7.70747C37.7972 7.7896 37.7904 7.87173 37.7835 7.95387C37.7767 8.02916 37.7664 8.11129 37.7527 8.20027H33.9541C33.9746 8.43982 34.0362 8.65884 34.1389 8.85733C34.2484 9.05582 34.3989 9.21324 34.5906 9.3296C34.7891 9.44596 35.0355 9.50413 35.3298 9.50413C35.5009 9.50413 35.6652 9.4836 35.8226 9.44253C35.98 9.39462 36.1169 9.32618 36.2333 9.2372C36.3565 9.14822 36.4386 9.03529 36.4797 8.8984H37.7322C37.6432 9.28853 37.4789 9.6068 37.2394 9.8532C36.9998 10.0996 36.7124 10.281 36.377 10.3973C36.0485 10.5137 35.6994 10.5719 35.3298 10.5719ZM33.9746 7.266H36.5823C36.5823 7.04013 36.531 6.8348 36.4283 6.65C36.3257 6.4652 36.1785 6.32147 35.9869 6.2188C35.8021 6.10929 35.5762 6.05453 35.3093 6.05453C35.0218 6.05453 34.7822 6.11271 34.5906 6.22907C34.3989 6.34542 34.2518 6.496 34.1491 6.6808C34.0465 6.8656 33.9883 7.06067 33.9746 7.266ZM41.7076 10.5821C41.2217 10.5821 40.7631 10.5103 40.3319 10.3665C39.9075 10.216 39.5516 9.97982 39.2642 9.65813C38.9767 9.3296 38.7885 8.90182 38.6995 8.3748H40.0034C40.0855 8.64173 40.2155 8.85049 40.3935 9.00107C40.5783 9.15164 40.7939 9.25773 41.0403 9.31933C41.2867 9.37409 41.5365 9.40147 41.7898 9.40147C42.0156 9.40147 42.2278 9.37409 42.4263 9.31933C42.6316 9.25773 42.7993 9.15849 42.9294 9.0216C43.0663 8.88471 43.1347 8.70333 43.1347 8.47747C43.1347 8.30636 43.0971 8.16947 43.0218 8.0668C42.9533 7.95729 42.8541 7.86831 42.724 7.79987C42.6008 7.72458 42.4503 7.6664 42.2723 7.62533C42.1012 7.57058 41.9164 7.52267 41.7179 7.4816C41.5194 7.44053 41.3243 7.39604 41.1327 7.34813C40.9411 7.30022 40.7597 7.23862 40.5886 7.16333C40.3695 7.08804 40.1574 7.00249 39.952 6.90667C39.7535 6.804 39.579 6.6808 39.4284 6.53707C39.2847 6.39333 39.1683 6.21538 39.0794 6.0032C38.9904 5.79102 38.9459 5.53778 38.9459 5.24347C38.9459 4.90809 39.0007 4.62062 39.1102 4.38107C39.2265 4.13467 39.3771 3.93275 39.5619 3.77533C39.7535 3.61791 39.9657 3.49471 40.1984 3.40573C40.438 3.31675 40.6844 3.25173 40.9376 3.21067C41.1977 3.1696 41.4441 3.14907 41.6768 3.14907C42.1286 3.14907 42.5392 3.22435 42.9088 3.37493C43.2853 3.52551 43.5933 3.75822 43.8328 4.07307C44.0724 4.38791 44.2093 4.79173 44.2435 5.28453H43.0012C42.9739 5.05182 42.8917 4.86702 42.7548 4.73013C42.6179 4.5864 42.4468 4.48373 42.2415 4.42213C42.0362 4.35369 41.8137 4.31947 41.5742 4.31947C41.4099 4.31947 41.2456 4.33315 41.0814 4.36053C40.9239 4.38791 40.7802 4.43582 40.6502 4.50427C40.527 4.57271 40.4243 4.66511 40.3422 4.78147C40.2669 4.89098 40.2292 5.03129 40.2292 5.2024C40.2292 5.35298 40.2669 5.48644 40.3422 5.6028C40.4175 5.71231 40.5201 5.80471 40.6502 5.88C40.7871 5.95529 40.9479 6.02373 41.1327 6.08533C41.3723 6.18116 41.6323 6.25302 41.913 6.30093C42.2004 6.34884 42.4708 6.41387 42.724 6.496C42.9704 6.56444 43.1963 6.65 43.4016 6.75267C43.6138 6.84849 43.7952 6.96827 43.9458 7.112C44.0963 7.24889 44.2127 7.42 44.2948 7.62533C44.3838 7.82382 44.4283 8.06338 44.4283 8.344C44.4283 8.75467 44.353 9.10373 44.2024 9.3912C44.0587 9.67182 43.8568 9.90111 43.5967 10.0791C43.3435 10.257 43.0526 10.3871 42.724 10.4692C42.4023 10.5445 42.0635 10.5821 41.7076 10.5821ZM47.7057 10.5616C47.1102 10.5616 46.6756 10.3973 46.4018 10.0688C46.1281 9.74027 45.9912 9.28511 45.9912 8.70333V6.19827H45.1596V5.08947H45.9912V3.57H47.2437V5.08947H48.8864V6.19827H47.2437V8.4672C47.2437 8.64516 47.2642 8.806 47.3053 8.94973C47.3464 9.09347 47.4217 9.2064 47.5312 9.28853C47.6407 9.37067 47.7913 9.41516 47.9829 9.422C48.1472 9.422 48.2875 9.39462 48.4038 9.33987C48.5202 9.28511 48.616 9.22351 48.6913 9.15507L49.1122 10.1099C48.9822 10.2194 48.835 10.3084 48.6708 10.3768C48.5133 10.4452 48.3525 10.4932 48.1882 10.5205C48.024 10.5479 47.8631 10.5616 47.7057 10.5616ZM52.265 10.5719C51.7106 10.5719 51.2315 10.4589 50.8276 10.2331C50.4307 10.0072 50.1227 9.68551 49.9036 9.268C49.6915 8.85049 49.5854 8.36111 49.5854 7.79987C49.5854 7.23178 49.6949 6.7424 49.9139 6.33173C50.1329 5.91422 50.4409 5.58911 50.8379 5.3564C51.2349 5.12369 51.7106 5.00733 52.265 5.00733C52.8125 5.00733 53.2848 5.12369 53.6818 5.3564C54.0788 5.58911 54.3833 5.91764 54.5955 6.342C54.8077 6.75951 54.9138 7.25231 54.9138 7.8204C54.9138 8.3748 54.8077 8.86076 54.5955 9.27827C54.3902 9.68893 54.089 10.0072 53.692 10.2331C53.2951 10.4589 52.8194 10.5719 52.265 10.5719ZM52.2547 9.43227C52.5969 9.43227 52.8707 9.35698 53.076 9.2064C53.2882 9.05582 53.4422 8.85733 53.538 8.61093C53.6339 8.36453 53.6818 8.0976 53.6818 7.81013C53.6818 7.52267 53.6339 7.25231 53.538 6.99907C53.4422 6.74582 53.2882 6.54391 53.076 6.39333C52.8707 6.23591 52.5969 6.1572 52.2547 6.1572C51.9125 6.1572 51.6353 6.23591 51.4231 6.39333C51.2109 6.54391 51.0569 6.74582 50.9611 6.99907C50.8653 7.24547 50.8174 7.51582 50.8174 7.81013C50.8174 8.0976 50.8653 8.36796 50.9611 8.6212C51.0638 8.8676 51.2178 9.06609 51.4231 9.21667C51.6353 9.3604 51.9125 9.43227 52.2547 9.43227ZM55.9166 12.4917V5.08947H57.087L57.1486 5.8184C57.3608 5.53778 57.614 5.33244 57.9084 5.2024C58.2027 5.07235 58.5278 5.00733 58.8837 5.00733C59.4176 5.00733 59.859 5.13053 60.2081 5.37693C60.5572 5.62333 60.8172 5.95529 60.9884 6.3728C61.1595 6.79031 61.245 7.26258 61.245 7.7896C61.245 8.31662 61.156 8.79231 60.9781 9.21667C60.8001 9.63418 60.5298 9.96613 60.167 10.2125C59.8111 10.4521 59.3628 10.5719 58.8221 10.5719C58.5688 10.5719 58.3361 10.5445 58.124 10.4897C57.9186 10.435 57.7338 10.3563 57.5696 10.2536C57.4121 10.1509 57.2787 10.0346 57.1692 9.90453V12.4917H55.9166ZM58.627 9.44253C58.9761 9.44253 59.2499 9.36724 59.4484 9.21667C59.6468 9.05924 59.7906 8.85733 59.8796 8.61093C59.9685 8.35769 60.013 8.09076 60.013 7.81013C60.013 7.51582 59.9651 7.24204 59.8693 6.9888C59.7803 6.73556 59.6332 6.53022 59.4278 6.3728C59.2225 6.21538 58.9487 6.13667 58.6065 6.13667C58.2916 6.13667 58.0247 6.21538 57.8057 6.3728C57.5935 6.52338 57.4327 6.72529 57.3232 6.97853C57.2136 7.23178 57.1589 7.50556 57.1589 7.79987C57.1589 8.10102 57.2102 8.37822 57.3129 8.63147C57.4156 8.87787 57.5764 9.07636 57.7954 9.22693C58.0144 9.37067 58.2916 9.44253 58.627 9.44253Z" fill="#FAFCFF"/>
    <path d="M60.1257 3.85016V1.87056H60.9069C61.0077 1.87056 61.1029 1.88083 61.1925 1.90136C61.2821 1.92003 61.3615 1.95363 61.4305 2.00216C61.4996 2.04883 61.5537 2.11323 61.5929 2.19536C61.6321 2.27749 61.6517 2.37923 61.6517 2.50056C61.6517 2.60136 61.634 2.69003 61.5985 2.76656C61.5631 2.84309 61.5136 2.90749 61.4501 2.95976C61.3885 3.01203 61.3148 3.05216 61.2289 3.08016L61.6629 3.85016H61.2709L60.8817 3.13616H60.4757V3.85016H60.1257ZM60.4757 2.82536H60.8593C60.9228 2.82536 60.9807 2.82069 61.0329 2.81136C61.0871 2.80016 61.1337 2.78243 61.1729 2.75816C61.214 2.73389 61.2448 2.70123 61.2653 2.66016C61.2877 2.61723 61.2999 2.56309 61.3017 2.49776C61.3017 2.41936 61.2849 2.35776 61.2513 2.31296C61.2196 2.26816 61.1729 2.23643 61.1113 2.21776C61.0516 2.19909 60.9797 2.18976 60.8957 2.18976H60.4757V2.82536ZM61.8273 3.85016L62.3481 3.09696L61.8553 2.37456H62.2529L62.5721 2.87016L62.8829 2.37456H63.2721L62.7793 3.10536L63.3085 3.85016H62.9081L62.5581 3.34056L62.2081 3.85016H61.8273Z" fill="#FAFCFF"/>
</svg>
