<svg width="24" height="25" viewBox="0 0 24 25" fill="none" xmlns="http://www.w3.org/2000/svg">
    <path d="M9.96068 1.22947V9.22981C9.96068 9.77158 9.52278 10.2095 8.98101 10.2095H0.98067C0.330949 10.2095 -0.135466 9.58827 0.0356205 8.96096C1.18842 4.75304 4.5022 1.43926 8.71012 0.286458C9.33744 0.115371 9.95864 0.579749 9.95864 1.23151L9.96068 1.22947Z" fill="#1D9C7D"/>
    <path d="M23.9673 15.5601C22.8124 19.7558 19.5068 23.0574 15.3111 24.2122C14.6838 24.3853 14.0605 23.9189 14.0605 23.2672V15.2892C14.0605 14.7475 14.4984 14.3096 15.0402 14.3096H23.0222C23.674 14.3096 24.1384 14.9328 23.9673 15.5601Z" fill="#1D9C7D"/>
    <path d="M23.027 10.2095H17.7254C16.1225 10.2095 14.5868 10.845 13.4543 11.9794L13.1733 12.2605L12.0123 13.4214L11.7312 13.7025C10.5988 14.835 9.96131 16.3727 9.96131 17.9736V23.2711C9.96131 23.9229 9.33807 24.3853 8.70871 24.2142C6.88175 23.7152 5.22384 22.8088 3.84089 21.5908C3.42743 21.2344 3.03638 20.8433 2.67995 20.4299C1.4579 19.0469 0.547473 17.389 0.0443972 15.5641C-0.128726 14.9348 0.333615 14.3095 0.98741 14.3095H6.29924C7.90216 14.3095 9.43787 13.674 10.5703 12.5395L12.2934 10.8165C13.4258 9.68402 14.0633 8.14628 14.0633 6.5454V1.22949C14.0633 0.577731 14.6886 0.113354 15.3179 0.286477C17.1449 0.789554 18.8049 1.70405 20.1878 2.92202C20.6013 3.27846 20.9882 3.66951 21.3488 4.08297C22.5627 5.46796 23.471 7.12587 23.9721 8.95487C24.1432 9.58422 23.6808 10.2075 23.0291 10.2075L23.027 10.2095Z" fill="#077BF8"/>
</svg>
