<svg width="32" height="32" viewBox="0 0 32 32" fill="none" xmlns="http://www.w3.org/2000/svg">
    <rect width="32" height="32" rx="16" fill="#077BF8" fill-opacity="0.1"/>
    <path d="M18.2323 23.2754C17.4636 22.5427 17.0657 21.4116 17.0657 19.8542C17.0702 19.5709 17.0984 18.8865 17.1751 18.415C17.2691 17.7226 17.4515 16.8322 17.8228 16.0782C17.4242 15.1492 17.0857 13.7817 17.0457 12.5829C17.0236 11.9197 17.0893 11.2296 17.3491 10.6806C17.4828 10.3981 17.6772 10.1333 17.9556 9.93991C18.2388 9.74312 18.5722 9.64587 18.9362 9.64587C20.4891 9.64587 22.0046 10.7893 23.0947 12.485C24.2034 14.2096 24.9584 16.6209 24.9584 19.4375C24.9584 21.4643 24.2766 22.7039 23.3711 23.4179C22.4953 24.1086 21.5081 24.2292 21.0121 24.2292C20.0121 24.2292 18.9957 24.0031 18.2323 23.2754Z" fill="#077BF8"/>
    <path d="M13.7677 23.2754C14.5364 22.5427 14.9343 21.4116 14.9343 19.8542C14.9298 19.5709 14.9016 18.8865 14.8249 18.415C14.7309 17.7226 14.5485 16.8322 14.1772 16.0782C14.5758 15.1492 14.9143 13.7817 14.9543 12.5829C14.9764 11.9197 14.9107 11.2296 14.6509 10.6806C14.5172 10.3981 14.3228 10.1333 14.0444 9.93991C13.7612 9.74312 13.4278 9.64587 13.0638 9.64587C11.5109 9.64587 9.99539 10.7893 8.9053 12.485C7.79663 14.2096 7.04157 16.6209 7.04157 19.4375C7.04157 21.4643 7.72345 22.7039 8.62888 23.4179C9.50475 24.1086 10.4919 24.2292 10.9879 24.2292C11.9879 24.2292 13.0043 24.0031 13.7677 23.2754Z" fill="#077BF8"/>
    <path fill-rule="evenodd" clip-rule="evenodd" d="M15.9999 7.77087C15.5397 7.77087 15.1666 8.14397 15.1666 8.60421V10.3804L13.871 11.2442C13.4881 11.4995 13.3846 12.0169 13.6399 12.3998C13.8952 12.7827 14.4126 12.8862 14.7955 12.6309L15.9999 11.828L17.2043 12.6309C17.5873 12.8862 18.1047 12.7827 18.36 12.3998C18.6152 12.0169 18.5118 11.4995 18.1288 11.2442L16.8332 10.3804V8.60421C16.8332 8.14397 16.4601 7.77087 15.9999 7.77087Z" fill="#000D1C"/>
</svg>
