<svg width="44" height="44" viewBox="0 0 44 44" fill="none" xmlns="http://www.w3.org/2000/svg">
<path d="M0 22C0 9.84974 9.84974 0 22 0C34.1503 0 44 9.84974 44 22C44 34.1503 34.1503 44 22 44C9.84974 44 0 34.1503 0 22Z" fill="#1D9C7D" fill-opacity="0.1"/>
<path d="M16.3115 32.6472C17.2938 32.75 19.8566 32.75 21.3977 32.75C21.9375 32.75 22.375 32.3124 22.375 31.7727C22.375 31.233 21.9375 30.7954 21.3977 30.7954C19.7891 30.7954 17.3828 30.7941 16.5134 30.7032C15.6595 30.6138 15.1756 30.4471 14.8177 30.194C14.5763 30.0233 14.3639 29.8222 14.1861 29.5978C13.9305 29.2753 13.7611 28.8425 13.6689 28.0558C13.5739 27.246 13.5724 26.1887 13.5724 24.6652L13.5723 21.765C13.5723 21.498 13.5724 20.8595 13.853 20.3873C14.026 20.0963 14.2474 19.8532 14.4748 19.7294C14.8414 19.5299 15.2615 19.4165 15.7082 19.4165L16.7486 19.453C17.1287 19.4609 17.5722 19.4489 18.0004 19.3342C18.8343 19.1107 19.4857 18.4593 19.7092 17.6253C19.8239 17.1972 19.8359 16.7536 19.828 16.3735L19.7915 15.3332C19.7915 14.8655 19.9159 14.4583 20.1333 14.0799C20.26 13.8593 20.4807 13.6575 20.7855 13.4801C21.2476 13.2112 21.801 13.2087 22.1392 13.2072C22.4773 13.2057 22.8341 13.2045 23.1322 13.2045C24.9663 13.2045 25.6334 13.2185 26.1368 13.3958C27.0094 13.7033 27.6751 14.3449 27.9852 15.1303C28.0628 15.3269 28.1177 15.5854 28.1471 16.0333C28.1771 16.49 28.1776 17.0729 28.1776 17.9132V19.0263C28.1776 19.564 28.6136 20 29.1513 20C29.6891 20 30.125 19.564 30.125 19.0263V17.88C30.125 17.0808 30.125 16.4333 30.0903 15.9047C30.0545 15.3601 29.9789 14.8744 29.7956 14.4102C29.2668 13.0709 28.1584 12.0367 26.7818 11.5517C25.923 11.2491 24.4509 11.2495 22.8959 11.25C20.0563 11.2496 18.3696 11.2494 16.9872 11.7365C14.7672 12.5187 12.9935 14.1814 12.1501 16.3175C11.869 17.0294 11.7444 17.7942 11.6842 18.711C11.625 19.6117 11.625 20.7243 11.625 22.1426V22.1426V24.7261C11.625 26.1742 11.625 27.3469 11.7348 28.2842C11.849 29.2576 12.0922 30.0955 12.662 30.8145C12.9572 31.187 13.3058 31.5158 13.6961 31.7919C14.4409 32.3185 15.3021 32.5416 16.3115 32.6472Z" fill="#1D9C7D"/>
<path fill-rule="evenodd" clip-rule="evenodd" d="M26.907 21.0023C27.3179 20.9743 27.7039 21.2011 27.8795 21.5736L29.4715 24.9504C29.6279 25.2824 29.715 25.4644 29.7905 25.5902C29.8051 25.6145 29.8169 25.6326 29.8259 25.6456C29.8366 25.6473 29.8499 25.6491 29.8662 25.6509C29.9979 25.6653 30.1821 25.6667 30.5347 25.6667H31.375C31.9273 25.6667 32.375 26.1144 32.375 26.6667C32.375 27.219 31.9273 27.6667 31.375 27.6667H30.5347C30.5213 27.6667 30.5078 27.6667 30.4944 27.6667C30.1987 27.6667 29.9023 27.6668 29.6482 27.6389C29.3566 27.607 29.038 27.5318 28.7283 27.3288C28.4224 27.1282 28.2249 26.8681 28.0755 26.6191C27.9421 26.3968 27.8125 26.1218 27.679 25.8385C27.6735 25.8268 27.668 25.815 27.6624 25.8033L27.1617 24.7412L25.729 29.2998C25.6055 29.6927 25.2538 29.9697 24.843 29.9977C24.4321 30.0257 24.0461 29.7989 23.8705 29.4264L22.2785 26.0496C22.1221 25.7177 22.035 25.5357 21.9595 25.4098C21.9449 25.3855 21.9331 25.3675 21.9241 25.3544C21.9134 25.3527 21.9001 25.351 21.8838 25.3492C21.7521 25.3347 21.5679 25.3333 21.2153 25.3333H20.375C19.8227 25.3333 19.375 24.8856 19.375 24.3333C19.375 23.7811 19.8227 23.3333 20.375 23.3333H21.2153C21.2287 23.3333 21.2422 23.3333 21.2556 23.3333C21.5513 23.3333 21.8477 23.3332 22.1018 23.3611C22.3934 23.3931 22.712 23.4682 23.0217 23.6712C23.3276 23.8718 23.5251 24.1319 23.6745 24.3809C23.8079 24.6032 23.9375 24.8782 24.071 25.1615C24.0765 25.1732 24.082 25.185 24.0876 25.1968L24.5883 26.2588L26.021 21.7002C26.1445 21.3073 26.4962 21.0303 26.907 21.0023ZM21.9609 25.3618C21.9609 25.3618 21.9604 25.3617 21.9595 25.3614L21.9609 25.3618ZM21.9028 25.3262C21.9018 25.3252 21.9013 25.3246 21.9013 25.3246C21.9012 25.3245 21.9018 25.325 21.9028 25.3262ZM29.7891 25.6382C29.7891 25.6382 29.7896 25.6384 29.7905 25.6387L29.7891 25.6382ZM29.8472 25.6738C29.8482 25.6748 29.8487 25.6754 29.8487 25.6755C29.8488 25.6755 29.8483 25.675 29.8472 25.6738Z" fill="#07271F"/>
</svg>
