<svg width="24" height="24" viewBox="0 0 24 24" fill="none" xmlns="http://www.w3.org/2000/svg">
<circle cx="12" cy="12" r="12" fill="#077BF8" fill-opacity="0.1"/>
<path d="M5.28662 14.5C5.08794 14.5 4.98856 14.5001 4.9292 14.5645C4.8698 14.6289 4.8782 14.7259 4.89404 14.9199C4.90002 14.9931 4.9064 15.0648 4.91357 15.1348C4.99718 15.9493 5.17035 16.6054 5.55615 17.166C5.79095 17.5071 6.07561 17.8091 6.40088 18.0586C6.93922 18.4714 7.57184 18.6568 8.35205 18.7461C9.11492 18.8333 10.0763 18.833 11.2993 18.833H12.6958C13.9188 18.833 14.8802 18.8333 15.6431 18.7461C16.4233 18.6569 17.0559 18.4713 17.5942 18.0586C17.9195 17.8091 18.2051 17.5071 18.4399 17.166C18.8256 16.6055 18.9989 15.9492 19.0825 15.1348C19.0897 15.0648 19.0961 14.9931 19.1021 14.9199C19.1179 14.7259 19.1253 14.6289 19.0659 14.5645C19.0065 14.5002 18.9072 14.5 18.7085 14.5L5.28662 14.5ZM11.3315 16C11.6996 16.0001 11.9976 16.2989 11.9976 16.667C11.9974 17.035 11.6995 17.3329 11.3315 17.333H11.3257C10.9576 17.333 10.6589 17.035 10.6587 16.667C10.6587 16.2988 10.9575 16 11.3257 16H11.3315ZM8.67041 16C9.0386 16 9.3374 16.2988 9.3374 16.667C9.33723 17.035 9.03849 17.333 8.67041 17.333H8.66455C8.29653 17.3329 7.99773 17.035 7.99756 16.667C7.99756 16.2989 8.29643 16.0001 8.66455 16H8.67041Z" fill="#000D1C"/>
<path d="M17.5956 5.94197C17.0571 5.529 16.4245 5.34324 15.644 5.25398C14.8811 5.16674 13.9201 5.16674 12.6971 5.16675H11.3003C10.0773 5.16674 9.11629 5.16674 8.35339 5.25398C7.57288 5.34325 6.94029 5.529 6.4018 5.94197C6.07654 6.19142 5.79157 6.49252 5.55677 6.83365C5.1709 7.39426 4.99783 8.05027 4.91422 8.86488C4.83202 9.66571 4.83203 10.6763 4.83203 11.9713V12.0289C4.83203 12.4119 4.83203 12.7701 4.83416 13.1054C4.83533 13.291 4.83592 13.3838 4.89442 13.442C4.95292 13.5001 5.04617 13.5001 5.23266 13.5001L18.7647 13.5001C18.9512 13.5001 19.0445 13.5001 19.103 13.442C19.1615 13.3838 19.1621 13.291 19.1632 13.1054C19.1654 12.7701 19.1654 12.412 19.1654 12.0289V11.9713C19.1654 10.6763 19.1654 9.66571 19.0832 8.86488C18.9996 8.05027 18.8265 7.39426 18.4406 6.83364C18.2058 6.49252 17.9209 6.19141 17.5956 5.94197Z" fill="#077BF8"/>
<path d="M12.7985 7.33417C13.0157 7.3228 13.2248 7.4181 13.3587 7.58949L14.7384 9.35463C14.7654 9.38686 14.8445 9.45283 14.9448 9.45883C15.0286 9.46779 15.1102 9.46742 15.2302 9.46688H15.2302H15.2303C15.2617 9.46674 15.2958 9.46659 15.3333 9.46659C15.7015 9.46659 16 9.76506 16 10.1333C16 10.5014 15.7015 10.7999 15.3333 10.7999C15.311 10.7999 15.2854 10.8003 15.257 10.8008L15.257 10.8008C15 10.8049 14.5123 10.8128 14.0889 10.5527C13.8787 10.4235 13.7387 10.2429 13.6292 10.1017L12.8941 9.16057L11.732 11.0199C11.6256 11.1902 11.4481 11.3034 11.2489 11.3282C11.0496 11.3529 10.8498 11.2866 10.705 11.1475L9.49159 9.98266C9.4019 9.89655 9.34872 9.84549 9.29451 9.80373C9.2452 9.76575 9.22119 9.75701 9.21268 9.75454C9.16176 9.73972 9.08805 9.73325 8.66667 9.73325C8.29848 9.73325 8 9.43478 8 9.06659C8 8.6984 8.29848 8.39992 8.66667 8.39992L8.73609 8.39986C9.04467 8.39944 9.32669 8.39907 9.58526 8.47432C9.96805 8.58572 10.2422 8.85261 10.3903 8.9968L11.0363 9.6173L12.268 7.64659C12.3833 7.46215 12.5813 7.34554 12.7985 7.33417Z" fill="#000D1C"/>
</svg>
