<svg width="24" height="24" viewBox="0 0 24 24" fill="none" xmlns="http://www.w3.org/2000/svg">
<circle cx="12" cy="12" r="12" fill="#077BF8" fill-opacity="0.1"/>
<path d="M6.66643 6.71996C6.66643 6.29712 6.98927 6.00008 7.33221 6.00008C7.7004 6.00008 7.99887 5.7016 7.99887 5.33341C7.99887 4.96522 7.7004 4.66675 7.33221 4.66675C6.20337 4.66675 5.3331 5.61126 5.3331 6.71996C5.3331 6.7569 5.33285 6.7952 5.33259 6.83472L5.33259 6.83473C5.32889 7.40137 5.32355 8.21814 6.03119 8.86782L6.95483 11.1819L6.95483 11.1819C7.15126 11.6738 7.30022 12.0468 7.55364 12.3607C7.80706 12.6745 8.14035 12.8987 8.57988 13.1943L9.6075 13.8864C9.83074 14.0367 10.1225 14.0381 10.3471 13.8898L11.3934 13.1994C11.8429 12.9031 12.1837 12.6785 12.4427 12.3608C12.7016 12.0432 12.853 11.6641 13.0526 11.1641L13.9695 8.86676C14.676 8.21726 14.6706 7.40112 14.6669 6.83479C14.6667 6.79535 14.6664 6.75698 14.6664 6.7201C14.6664 5.61132 13.7961 4.66675 12.6672 4.66675C12.299 4.66675 12.0005 4.96522 12.0005 5.33341C12.0005 5.7016 12.299 6.00008 12.6672 6.00008C13.0102 6.00008 13.3331 6.29719 13.3331 6.7201C13.3331 7.41714 13.3218 7.65336 13.0636 7.88839C12.2136 8.66214 11.6223 9.19869 11.1217 9.5494C10.636 9.88971 10.3101 10.0001 9.99977 10.0001C9.68947 10.0001 9.36358 9.88971 8.87783 9.5494C8.37722 9.19869 7.78591 8.66214 6.93592 7.88839C6.6777 7.65334 6.66643 7.41709 6.66643 6.71996Z" fill="#077BF8"/>
<path d="M13.332 12.6667C13.332 11.1939 14.5259 10 15.9987 10C17.4715 10 18.6654 11.1939 18.6654 12.6667C18.6654 14.1394 17.4715 15.3333 15.9987 15.3333C14.5259 15.3333 13.332 14.1394 13.332 12.6667Z" fill="#077BF8"/>
<path fill-rule="evenodd" clip-rule="evenodd" d="M17 12.6667C17 13.219 16.5543 13.6667 16.0045 13.6667L15.9955 13.6667C15.4457 13.6667 15 13.219 15 12.6667C15 12.1145 15.4457 11.6667 15.9955 11.6667L16.0045 11.6667C16.5543 11.6667 17 12.1145 17 12.6667Z" fill="#000D1C"/>
<path d="M10.3447 13.8906C10.1201 14.0389 9.82773 14.0371 9.60449 13.8867L9.33105 13.7021V15.667C9.33105 17.6922 10.9729 19.334 12.998 19.334C15.023 19.3337 16.6641 17.692 16.6641 15.667V15.2471C16.4508 15.302 16.2275 15.333 15.9971 15.333C15.7669 15.333 15.5441 15.3019 15.3311 15.2471V15.667C15.3311 16.9556 14.2866 18.0007 12.998 18.001C11.7093 18.001 10.6641 16.9558 10.6641 15.667V13.6797L10.3447 13.8906Z" fill="#000D1C"/>
</svg>
