<svg width="24" height="24" viewBox="0 0 24 24" fill="none" xmlns="http://www.w3.org/2000/svg">
<circle cx="12" cy="12" r="12" fill="#077BF8" fill-opacity="0.1"/>
<path d="M7.97147 12.8333C7.68293 12.8332 7.41838 12.8332 7.20317 12.8621C6.96618 12.894 6.7157 12.9689 6.50968 13.175C6.30367 13.381 6.2287 13.6315 6.19684 13.8685C6.16791 14.0837 6.16794 14.3482 6.16797 14.6368L6.16797 16.3756C6.16794 16.5944 6.16792 16.7994 6.18789 16.9707C6.21011 17.1613 6.26156 17.3617 6.39968 17.5468C6.5378 17.7319 6.71532 17.8382 6.89176 17.9137C7.05031 17.9816 7.24683 18.0399 7.45657 18.1021L10.7892 19.091C11.2721 19.2343 11.7898 19.172 12.2264 18.92L17.2368 16.0291C17.8589 15.6702 18.0191 14.8425 17.6047 14.2687C17.1428 13.6291 16.3358 13.3472 15.5821 13.5815L15.5811 13.5818L14.1641 14.0172C13.9983 14.0681 13.9154 14.0936 13.8895 14.1414C13.8635 14.1892 13.8945 14.2982 13.9565 14.5161C14.0037 14.6823 14.0093 14.8417 14.0013 14.9315C14.0013 15.5857 13.5553 16.1139 12.9791 16.2732L11.2852 16.7415C10.6707 16.9114 10.0125 16.853 9.43722 16.5746L8.35703 16.052C8.14989 15.9518 8.06321 15.7026 8.16344 15.4955C8.26366 15.2883 8.51284 15.2016 8.71998 15.3019L9.80017 15.8245C10.1926 16.0144 10.6428 16.0546 11.0631 15.9383L12.757 15.47C12.9904 15.4055 13.1679 15.1922 13.1679 14.9315C13.1679 13.9894 12.3835 13.7501 11.4507 13.7501L10.7556 13.75C10.6345 13.75 10.5156 13.7227 10.4085 13.6709L9.04719 13.0122C8.80345 12.8943 8.53554 12.8333 8.26452 12.8333L7.97147 12.8333Z" fill="#077BF8"/>
<path d="M15.3359 10.667C15.3358 11.7714 14.4404 12.667 13.3359 12.667C12.2316 12.6668 11.3361 11.7713 11.3359 10.667V9.33301L15.3359 9.33301V10.667Z" fill="#000D1C"/>
<path d="M15.3359 7.33301C15.3358 6.22856 14.4404 5.33301 13.3359 5.33301C12.2316 5.33324 11.3361 6.2287 11.3359 7.33301V8.66699L15.3359 8.66699V7.33301Z" fill="#077BF8"/>
</svg>
