<svg width="44" height="44" viewBox="0 0 44 44" fill="none" xmlns="http://www.w3.org/2000/svg">
    <rect width="44" height="44" rx="22" fill="#077BF8" fill-opacity="0.1"/>
    <path d="M20.5656 11.8036C20.9816 11.4861 21.4388 11.25 22 11.25C22.5612 11.25 23.0184 11.4861 23.4344 11.8036C23.8241 12.1009 24.2539 12.5308 24.7568 13.0337L24.7922 13.069C25.3067 13.5836 25.7553 13.7863 26.4479 13.7863C26.5345 13.7863 26.6442 13.7832 26.7682 13.7796C27.083 13.7707 27.49 13.7592 27.8456 13.7892C28.3672 13.8332 29.0205 13.9734 29.5187 14.4675C30.0207 14.9653 30.1643 15.6213 30.2097 16.1461C30.2407 16.505 30.2292 16.9151 30.2203 17.2321L30.2203 17.2324C30.2168 17.3559 30.2137 17.4653 30.2137 17.5521C30.2137 18.0029 30.2638 18.2547 30.3507 18.4535C30.4399 18.6578 30.5973 18.8742 30.931 19.2078L30.9664 19.2432C31.4693 19.7461 31.8991 20.1759 32.1964 20.5655C32.5139 20.9816 32.75 21.4388 32.75 22C32.75 22.5611 32.5139 23.0183 32.1964 23.4344C31.8991 23.8242 31.4691 24.2541 30.9661 24.7571L30.9309 24.7922C30.5973 25.1258 30.4399 25.3422 30.3507 25.5464C30.2638 25.7453 30.2137 25.9971 30.2137 26.4479C30.2137 26.5346 30.2168 26.644 30.2203 26.7676L30.2203 26.7679C30.2292 27.0849 30.2407 27.495 30.2097 27.8539C30.1643 28.3787 30.0207 29.0347 29.5186 29.5326C29.0204 30.0266 28.3671 30.1667 27.8456 30.2107C27.49 30.2408 27.083 30.2292 26.7682 30.2203C26.6442 30.2168 26.5345 30.2137 26.4479 30.2137C26.0067 30.2137 25.7587 30.2581 25.5635 30.3386C25.3685 30.4191 25.1599 30.5632 24.8458 30.8773C24.7787 30.9445 24.6902 31.0392 24.5882 31.1486C24.3583 31.3951 24.0593 31.7155 23.7801 31.9596C23.3563 32.33 22.7485 32.75 22 32.75C21.2516 32.75 20.6437 32.33 20.22 31.9596C19.9407 31.7155 19.6418 31.3951 19.4118 31.1486L19.4118 31.1486L19.4118 31.1486C19.3098 31.0392 19.2213 30.9445 19.1542 30.8774C18.8401 30.5632 18.6315 30.4191 18.4365 30.3386C18.2413 30.2581 17.9933 30.2137 17.5521 30.2137C17.4655 30.2137 17.3558 30.2168 17.2318 30.2203C16.917 30.2292 16.51 30.2408 16.1544 30.2107C15.6329 30.1667 14.9796 30.0266 14.4814 29.5326C13.9793 29.0347 13.8357 28.3787 13.7903 27.8539C13.7593 27.495 13.7708 27.0849 13.7797 26.7679C13.7832 26.6442 13.7863 26.5347 13.7863 26.4479C13.7863 25.9971 13.7362 25.7453 13.6493 25.5464C13.5601 25.3422 13.4027 25.1258 13.0691 24.7922L13.0339 24.7571C12.5309 24.2541 12.101 23.8242 11.8036 23.4344C11.4861 23.0183 11.25 22.5611 11.25 22C11.25 21.4388 11.4861 20.9816 11.8036 20.5655C12.1009 20.1759 12.5307 19.7461 13.0337 19.2432L13.069 19.2078C13.5837 18.6932 13.7863 18.2445 13.7863 17.5521C13.7863 17.4655 13.7832 17.3558 13.7797 17.2318L13.7797 17.2318C13.7707 16.917 13.7592 16.5099 13.7892 16.1544C13.8333 15.6328 13.9734 14.9796 14.4675 14.4813C14.9653 13.9793 15.6213 13.8357 16.1461 13.7903C16.505 13.7592 16.9151 13.7708 17.2321 13.7797C17.3558 13.7832 17.4653 13.7863 17.5521 13.7863C18.2445 13.7863 18.6932 13.5837 19.2078 13.069L19.2432 13.0337C19.7461 12.5307 20.1759 12.1009 20.5656 11.8036Z" fill="#077BF8"/>
    <path fill-rule="evenodd" clip-rule="evenodd" d="M18.2929 25.7071C17.9024 25.3166 17.9024 24.6834 18.2929 24.2929L24.2929 18.2929C24.6834 17.9024 25.3166 17.9024 25.7071 18.2929C26.0976 18.6834 26.0976 19.3166 25.7071 19.7071L19.7071 25.7071C19.3166 26.0976 18.6834 26.0976 18.2929 25.7071Z" fill="#000D1C"/>
    <path fill-rule="evenodd" clip-rule="evenodd" d="M18 19C18 18.4477 18.4477 18 19 18H19.0108C19.563 18 20.0108 18.4477 20.0108 19C20.0108 19.5523 19.563 20 19.0108 20H19C18.4477 20 18 19.5523 18 19ZM23.9892 25C23.9892 24.4477 24.437 24 24.9892 24H25C25.5523 24 26 24.4477 26 25C26 25.5523 25.5523 26 25 26H24.9892C24.437 26 23.9892 25.5523 23.9892 25Z" fill="#000D1C"/>
</svg>
