<svg width="20" height="20" viewBox="0 0 20 20" fill="none" xmlns="http://www.w3.org/2000/svg">
<g clip-path="url(#clip0_2262_16911)">
<path fill-rule="evenodd" clip-rule="evenodd" d="M13.9941 13.9941C14.3195 13.6686 14.8472 13.6686 15.1726 13.9941L18.9226 17.7441C19.248 18.0695 19.248 18.5972 18.9226 18.9226C18.5972 19.248 18.0695 19.248 17.7441 18.9226L13.9941 15.1726C13.6686 14.8472 13.6686 14.3195 13.9941 13.9941Z" fill="#000D1C"/>
<path fill-rule="evenodd" clip-rule="evenodd" d="M0.835938 9.16659C0.835938 4.56421 4.5669 0.833252 9.16927 0.833252C13.7716 0.833252 17.5026 4.56421 17.5026 9.16659C17.5026 13.769 13.7716 17.4999 9.16927 17.4999C4.5669 17.4999 0.835938 13.769 0.835938 9.16659ZM9.16927 2.49992C5.48737 2.49992 2.5026 5.48469 2.5026 9.16659C2.5026 12.8485 5.48737 15.8333 9.16927 15.8333C12.8512 15.8333 15.8359 12.8485 15.8359 9.16659C15.8359 5.48469 12.8512 2.49992 9.16927 2.49992Z" fill="#077BF8"/>
</g>
<defs>
<clipPath id="clip0_2262_16911">
<rect width="20" height="20" fill="white"/>
</clipPath>
</defs>
</svg>
