<svg width="24" height="24" viewBox="0 0 24 24" fill="none" xmlns="http://www.w3.org/2000/svg">
<path d="M17.98 10.79V14.79C17.98 15.05 17.97 15.3 17.94 15.54C17.71 18.24 16.12 19.58 13.19 19.58H12.79C12.54 19.58 12.3 19.7 12.15 19.9L10.95 21.5C10.42 22.21 9.56 22.21 9.03 21.5L7.82999 19.9C7.69999 19.73 7.41 19.58 7.19 19.58H6.79001C3.60001 19.58 2 18.79 2 14.79V10.79C2 7.86001 3.35001 6.27001 6.04001 6.04001C6.28001 6.01001 6.53001 6 6.79001 6H13.19C16.38 6 17.98 7.60001 17.98 10.79Z" fill="#1D9C7D"/>
<path d="M9.99023 14.0001C9.43023 14.0001 8.99023 13.5501 8.99023 13.0001C8.99023 12.4501 9.44023 12.0001 9.99023 12.0001C10.5402 12.0001 10.9902 12.4501 10.9902 13.0001C10.9902 13.5501 10.5502 14.0001 9.99023 14.0001Z" fill="#03110E"/>
<path d="M13.4902 14.0001C12.9302 14.0001 12.4902 13.5501 12.4902 13.0001C12.4902 12.4501 12.9402 12.0001 13.4902 12.0001C14.0402 12.0001 14.4902 12.4501 14.4902 13.0001C14.4902 13.5501 14.0402 14.0001 13.4902 14.0001Z" fill="#03110E"/>
<path d="M6.5 14.0001C5.94 14.0001 5.5 13.5501 5.5 13.0001C5.5 12.4501 5.95 12.0001 6.5 12.0001C7.05 12.0001 7.5 12.4501 7.5 13.0001C7.5 13.5501 7.05 14.0001 6.5 14.0001Z" fill="#03110E"/>
<path d="M21.98 6.79001V10.79C21.98 13.73 20.63 15.31 17.94 15.54C17.97 15.3 17.98 15.05 17.98 14.79V10.79C17.98 7.60001 16.38 6 13.19 6H6.79004C6.53004 6 6.28004 6.01001 6.04004 6.04001C6.27004 3.35001 7.86004 2 10.79 2H17.19C20.38 2 21.98 3.60001 21.98 6.79001Z" fill="#03110E"/>
</svg>
