<svg width="36" height="36" viewBox="0 0 36 36" fill="none" xmlns="http://www.w3.org/2000/svg">
<path d="M18 0.5C27.665 0.5 35.5 8.33502 35.5 18C35.5 27.665 27.665 35.5 18 35.5C8.33502 35.5 0.5 27.665 0.5 18C0.5 8.33502 8.33502 0.5 18 0.5Z" fill="white"/>
<path d="M18 0.5C27.665 0.5 35.5 8.33502 35.5 18C35.5 27.665 27.665 35.5 18 35.5C8.33502 35.5 0.5 27.665 0.5 18C0.5 8.33502 8.33502 0.5 18 0.5Z" stroke="#D0D5DD"/>
<path d="M21.5413 26.7499C22.3468 26.7499 22.9997 26.097 22.9997 25.2916C22.9997 24.4862 22.3468 23.8333 21.5413 23.8333C20.7359 23.8333 20.083 24.4862 20.083 25.2916C20.083 26.097 20.7359 26.7499 21.5413 26.7499Z" fill="#1D2939"/>
<path d="M14.8753 26.7499C15.6807 26.7499 16.3337 26.097 16.3337 25.2916C16.3337 24.4862 15.6807 23.8333 14.8753 23.8333C14.0699 23.8333 13.417 24.4862 13.417 25.2916C13.417 26.097 14.0699 26.7499 14.8753 26.7499Z" fill="#1D2939"/>
<path d="M12.0337 11.2834L11.867 13.3251C11.8337 13.7167 12.142 14.0417 12.5337 14.0417H25.292C25.642 14.0417 25.9337 13.7751 25.9587 13.4251C26.067 11.9501 24.942 10.7501 23.467 10.7501H13.242C13.1587 10.3834 12.992 10.0334 12.7337 9.74174C12.3253 9.30008 11.742 9.04175 11.142 9.04175H9.66699C9.32533 9.04175 9.04199 9.32508 9.04199 9.66675C9.04199 10.0084 9.32533 10.2917 9.66699 10.2917H11.117C11.3753 10.2917 11.617 10.4001 11.792 10.5834C11.967 10.7751 12.0503 11.0251 12.0337 11.2834Z" fill="#D0D5DD"/>
<path d="M25.0914 15.2917H12.3081C11.9581 15.2917 11.6747 15.5584 11.6414 15.9001L11.3414 19.5251C11.2247 20.9418 12.3414 22.1667 13.7664 22.1667H23.0331C24.2831 22.1667 25.3831 21.1418 25.4747 19.8918L25.7497 16.0001C25.7831 15.6168 25.4831 15.2917 25.0914 15.2917Z" fill="#1D2939"/>
</svg>
