<svg width="180" height="49" viewBox="0 0 180 49" fill="none" xmlns="http://www.w3.org/2000/svg">
<path d="M20.1377 1.98069V18.1551C20.1377 19.2505 19.2524 20.1358 18.1571 20.1358H1.98264C0.669086 20.1358 -0.273875 18.8799 0.0720147 17.6116C2.40265 9.10437 9.1022 2.40482 17.6094 0.0741802C18.8777 -0.271709 20.1336 0.667133 20.1336 1.98481L20.1377 1.98069Z" fill="white"/>
<path d="M48.4554 30.9526C46.1206 39.4351 39.4376 46.11 30.955 48.4447C29.6868 48.7947 28.4268 47.8518 28.4268 46.5341V30.4049C28.4268 29.3096 29.3121 28.4243 30.4074 28.4243H46.5448C47.8624 28.4243 48.8013 29.6843 48.4554 30.9526Z" fill="white"/>
<path d="M46.553 20.1353H35.8345C32.5939 20.1353 29.4891 21.4201 27.1996 23.7136L26.6314 24.2819L24.2843 26.629L23.716 27.1972C21.4266 29.4867 20.1377 32.5956 20.1377 35.8321V46.5423C20.1377 47.86 18.8777 48.7948 17.6053 48.4489C13.9117 47.44 10.5599 45.6076 7.76394 43.1452C6.92804 42.4246 6.13744 41.634 5.41683 40.7981C2.9462 38.0022 1.10557 34.6503 0.0884905 30.9609C-0.261517 29.6885 0.673208 28.4243 1.995 28.4243H12.734C15.9747 28.4243 19.0795 27.1396 21.3689 24.846L24.8525 21.3624C27.142 19.073 28.4308 15.9641 28.4308 12.7275V1.98026C28.4308 0.662582 29.695 -0.27626 30.9674 0.0737472C34.661 1.09083 38.0169 2.93969 40.8129 5.40209C41.6488 6.12269 42.4311 6.9133 43.16 7.7492C45.6141 10.5493 47.4506 13.9011 48.4636 17.5988C48.8095 18.8712 47.8748 20.1312 46.5571 20.1312L46.553 20.1353Z" fill="white"/>
<path d="M63.2175 31.6845C61.7207 30.8904 60.5495 29.7935 59.6983 28.3938C58.8471 26.9942 58.4186 25.4117 58.4186 23.6579C58.4186 21.904 58.8471 20.3215 59.6983 18.9219C60.5495 17.5222 61.7264 16.4254 63.2175 15.6313C64.7142 14.8372 66.3938 14.443 68.2733 14.443C70.1529 14.443 71.8325 14.8372 73.3292 15.6313C74.826 16.4254 75.9972 17.5222 76.8484 18.9219C77.6996 20.3215 78.1281 21.904 78.1281 23.6579C78.1281 25.4117 77.6996 26.9942 76.8484 28.3938C75.9972 29.7935 74.8203 30.8904 73.3292 31.6845C71.8325 32.4785 70.1529 32.8727 68.2733 32.8727C66.3938 32.8727 64.7142 32.4785 63.2175 31.6845ZM70.7013 28.0853C71.4269 27.6626 72.0039 27.0684 72.4209 26.2972C72.8437 25.5317 73.055 24.6462 73.055 23.6522C73.055 22.6581 72.8437 21.7726 72.4209 21.0071C71.9981 20.2416 71.4269 19.6417 70.7013 19.219C69.9758 18.7962 69.1646 18.5848 68.2676 18.5848C67.3707 18.5848 66.5595 18.7962 65.834 19.219C65.1084 19.6417 64.5314 20.2358 64.1144 21.0071C63.6916 21.7726 63.4802 22.6581 63.4802 23.6522C63.4802 24.6462 63.6916 25.5317 64.1144 26.2972C64.5371 27.0627 65.1084 27.6626 65.834 28.0853C66.5595 28.5081 67.3707 28.7195 68.2676 28.7195C69.1646 28.7195 69.9758 28.5081 70.7013 28.0853Z" fill="white"/>
<path d="M93.5871 20.0873C94.6269 21.0984 95.1467 22.6295 95.1467 24.669V32.5185H90.3365V25.4516C90.3365 23.5778 89.5824 22.6409 88.0799 22.6409C87.2515 22.6409 86.5888 22.9094 86.0918 23.4521C85.5948 23.9949 85.3434 24.8061 85.3434 25.8858V32.5242H80.5332V18.7961H85.1149V20.2929C85.6577 19.7331 86.2975 19.3103 87.0402 19.0132C87.7828 18.7162 88.5941 18.5676 89.4738 18.5676C91.182 18.5676 92.5531 19.0761 93.5871 20.0873Z" fill="white"/>
<path d="M112.32 26.8742H102.339C102.539 27.5826 102.933 28.1254 103.516 28.5081C104.099 28.8852 104.83 29.0794 105.704 29.0794C106.361 29.0794 106.932 28.988 107.412 28.7995C107.892 28.6167 108.378 28.3082 108.869 27.8854L111.4 30.5191C110.069 32.0044 108.115 32.7471 105.55 32.7471C103.945 32.7471 102.533 32.4443 101.322 31.833C100.105 31.2275 99.1629 30.382 98.5002 29.3022C97.8318 28.2225 97.5004 26.9999 97.5004 25.6288C97.5004 24.2577 97.8261 23.0695 98.4773 21.9954C99.1286 20.9214 100.026 20.0816 101.174 19.4761C102.322 18.8705 103.613 18.562 105.047 18.562C106.481 18.562 107.658 18.8477 108.772 19.4075C109.886 19.9731 110.766 20.79 111.417 21.8641C112.068 22.9381 112.394 24.2063 112.394 25.6745C112.394 25.7088 112.371 26.103 112.32 26.8628V26.8742ZM103.213 22.6181C102.716 23.0409 102.396 23.6122 102.265 24.3377H107.886C107.749 23.6122 107.435 23.0352 106.938 22.6181C106.441 22.1954 105.818 21.984 105.076 21.984C104.333 21.984 103.71 22.1954 103.213 22.6181Z" fill="white"/>
<path d="M116.901 32.3472C115.553 31.993 114.451 31.5188 113.611 30.9304L115.256 27.2341C116.05 27.7597 116.97 28.1825 118.015 28.5024C119.061 28.8223 120.095 28.9823 121.106 28.9823C123.031 28.9823 123.991 28.5024 123.991 27.5369C123.991 27.0285 123.717 26.6571 123.168 26.4115C122.62 26.1658 121.734 25.9088 120.523 25.6402C119.186 25.3546 118.072 25.0461 117.181 24.7148C116.29 24.3834 115.519 23.8578 114.879 23.1323C114.239 22.4068 113.919 21.4241 113.919 20.1959C113.919 19.1161 114.216 18.1392 114.805 17.2709C115.393 16.4025 116.279 15.7113 117.45 15.2085C118.621 14.7001 120.061 14.4487 121.769 14.4487C122.934 14.4487 124.082 14.5801 125.214 14.8429C126.345 15.1057 127.339 15.4885 128.201 15.9969L126.659 19.7217C124.968 18.8077 123.334 18.3563 121.746 18.3563C120.752 18.3563 120.026 18.5049 119.569 18.8019C119.112 19.099 118.884 19.4818 118.884 19.9559C118.884 20.4301 119.152 20.7843 119.695 21.0185C120.238 21.2528 121.106 21.4984 122.306 21.7555C123.654 22.0411 124.774 22.3496 125.659 22.681C126.545 23.0123 127.316 23.5322 127.961 24.252C128.613 24.9718 128.938 25.943 128.938 27.177C128.938 28.2396 128.641 29.2051 128.053 30.062C127.464 30.9247 126.573 31.6102 125.396 32.1244C124.214 32.6385 122.78 32.8956 121.089 32.8956C119.655 32.8956 118.261 32.7185 116.907 32.3643L116.901 32.3472Z" fill="white"/>
<path d="M140.484 31.9644C140.079 32.2157 139.587 32.41 139.004 32.5471C138.422 32.6842 137.799 32.7528 137.142 32.7528C135.354 32.7528 133.977 32.3129 133.012 31.4331C132.046 30.5533 131.566 29.2451 131.566 27.5083V22.8981H129.567V19.2989H131.566V15.7284H136.377V19.2989H139.519V22.8981H136.377V27.4569C136.377 27.9482 136.508 28.331 136.771 28.6109C137.034 28.8909 137.382 29.028 137.822 29.028C138.382 29.028 138.867 28.8851 139.29 28.5995L140.478 31.9701L140.484 31.9644Z" fill="white"/>
<path d="M144.837 31.8387C143.655 31.2331 142.729 30.3876 142.067 29.3079C141.398 28.2281 141.067 27.0056 141.067 25.6345C141.067 24.2634 141.398 23.0694 142.067 21.9897C142.735 20.9099 143.655 20.0701 144.826 19.4703C145.997 18.8704 147.328 18.5734 148.813 18.5734C150.299 18.5734 151.636 18.8704 152.813 19.4703C153.995 20.0701 154.915 20.9042 155.572 21.9782C156.229 23.0523 156.56 24.2691 156.56 25.6402C156.56 27.0113 156.229 28.2338 155.572 29.3136C154.915 30.3933 153.995 31.2388 152.813 31.8444C151.63 32.4499 150.299 32.7584 148.813 32.7584C147.328 32.7584 146.02 32.4557 144.837 31.8444V31.8387ZM150.893 28.051C151.436 27.4683 151.704 26.6628 151.704 25.6345C151.704 24.6062 151.436 23.8292 150.893 23.2522C150.35 22.6809 149.659 22.3896 148.813 22.3896C147.968 22.3896 147.277 22.6752 146.734 23.2522C146.191 23.8235 145.923 24.6176 145.923 25.6345C145.923 26.6514 146.191 27.4683 146.734 28.051C147.277 28.6337 147.968 28.9251 148.813 28.9251C149.659 28.9251 150.35 28.6337 150.893 28.051Z" fill="white"/>
<path d="M170.837 19.4417C171.859 20.0244 172.67 20.8528 173.27 21.9211C173.87 22.9951 174.167 24.2405 174.167 25.6573C174.167 27.0741 173.87 28.3195 173.27 29.3935C172.67 30.4675 171.859 31.2959 170.837 31.8786C169.814 32.4613 168.677 32.7527 167.432 32.7527C165.826 32.7527 164.552 32.2728 163.61 31.3073V37.4373H158.8V18.7961H163.381V20.1615C164.278 19.0989 165.626 18.5676 167.432 18.5676C168.683 18.5676 169.814 18.859 170.837 19.4417ZM168.494 28.051C169.037 27.4683 169.306 26.6685 169.306 25.6573C169.306 24.6461 169.037 23.8463 168.494 23.2636C167.952 22.6809 167.26 22.3895 166.415 22.3895C165.569 22.3895 164.878 22.6809 164.335 23.2636C163.793 23.8463 163.524 24.6461 163.524 25.6573C163.524 26.6685 163.793 27.4683 164.335 28.051C164.878 28.6337 165.569 28.9251 166.415 28.9251C167.26 28.9251 167.952 28.6337 168.494 28.051Z" fill="white"/>
<path d="M173.625 16.6825L172.545 15.1229H171.351V16.6825H170.054V11.0839H172.476C172.973 11.0839 173.402 11.1638 173.767 11.3295C174.133 11.4952 174.413 11.7294 174.613 12.0322C174.807 12.335 174.91 12.6949 174.91 13.1119C174.91 13.529 174.813 13.8889 174.613 14.1859C174.413 14.4887 174.127 14.7172 173.762 14.8772L175.019 16.6768H173.625V16.6825ZM173.299 12.3921C173.093 12.2264 172.802 12.1407 172.413 12.1407H171.357V14.0945H172.413C172.802 14.0945 173.099 14.0088 173.299 13.8375C173.499 13.6661 173.602 13.4261 173.602 13.1176C173.602 12.8091 173.499 12.5635 173.299 12.3921Z" fill="white"/>
<path d="M178.583 16.6825L177.641 15.3629L176.664 16.6825H175.304L176.961 14.5174L175.361 12.3807H176.761L177.675 13.6376L178.612 12.3807H179.937L178.338 14.4831L180 16.6825H178.583Z" fill="white"/>
</svg>
