<svg width="16" height="16" viewBox="0 0 16 16" fill="none" xmlns="http://www.w3.org/2000/svg">
<g clip-path="url(#clip0_117_12332)">
<path fill-rule="evenodd" clip-rule="evenodd" d="M11.1953 11.1953C11.4556 10.9349 11.8777 10.9349 12.1381 11.1953L15.1381 14.1953C15.3984 14.4556 15.3984 14.8777 15.1381 15.1381C14.8777 15.3984 14.4556 15.3984 14.1953 15.1381L11.1953 12.1381C10.9349 11.8777 10.9349 11.4556 11.1953 11.1953Z" fill="#D0D5DD"/>
<path fill-rule="evenodd" clip-rule="evenodd" d="M0.666016 7.33341C0.666016 3.65152 3.65078 0.666748 7.33268 0.666748C11.0146 0.666748 13.9993 3.65152 13.9993 7.33341C13.9993 11.0153 11.0146 14.0001 7.33268 14.0001C3.65078 14.0001 0.666016 11.0153 0.666016 7.33341ZM7.33268 2.00008C4.38716 2.00008 1.99935 4.3879 1.99935 7.33341C1.99935 10.2789 4.38716 12.6667 7.33268 12.6667C10.2782 12.6667 12.666 10.2789 12.666 7.33341C12.666 4.3879 10.2782 2.00008 7.33268 2.00008Z" fill="#1D2939"/>
</g>
<defs>
<clipPath id="clip0_117_12332">
<rect width="16" height="16" fill="white"/>
</clipPath>
</defs>
</svg>
