<svg width="18" height="18" viewBox="0 0 18 18" fill="none" xmlns="http://www.w3.org/2000/svg">
<g clip-path="url(#clip0_3463_21200)">
<path d="M9.86192 1.8557C9.99858 1.63459 10.24 1.5 10.4999 1.5C13.402 1.5 15.7499 3.84793 15.7499 6.75C15.7499 7.16421 15.4141 7.5 14.9999 7.5C14.5857 7.5 14.2499 7.16421 14.2499 6.75C14.2499 5.30962 13.4411 4.06093 12.2521 3.43259L11.6503 4.03441C11.5363 4.14842 11.4064 4.25631 11.2468 4.27868C10.9365 4.32214 10.6198 4.16679 10.4719 3.87112L9.82909 2.58541C9.71284 2.35292 9.72527 2.07681 9.86192 1.8557Z" fill="#1D2939"/>
<path d="M2.99991 10.5C3.41412 10.5 3.74991 10.8358 3.74991 11.25C3.74991 12.6904 4.55873 13.9391 5.7477 14.5674L6.34952 13.9656C6.46352 13.8516 6.59339 13.7437 6.75305 13.7213C7.06327 13.6779 7.38004 13.8332 7.52787 14.1289L8.17073 15.4146C8.28698 15.6471 8.27455 15.9232 8.1379 16.1443C8.00124 16.3654 7.75984 16.5 7.49991 16.5C4.59784 16.5 2.24991 14.1521 2.24991 11.25C2.24991 10.8358 2.5857 10.5 2.99991 10.5Z" fill="#1D2939"/>
<path d="M10.824 13.8702C12.2352 13.1266 14.0152 13.1266 15.4264 13.8702C15.4617 13.8888 15.5084 13.912 15.5634 13.9394C15.8261 14.0701 16.2781 14.2949 16.5864 14.562C16.7753 14.7257 17.0114 14.9865 17.0556 15.3446C17.1051 15.7455 16.8977 16.0804 16.6012 16.3304C16.1314 16.7265 15.5442 17.0625 14.7786 17.0625H11.4718C10.7063 17.0625 10.119 16.7265 9.6492 16.3304C9.35277 16.0804 9.14529 15.7455 9.19482 15.3446C9.23905 14.9865 9.47509 14.7257 9.66404 14.562C9.97236 14.2949 10.4244 14.0701 10.6871 13.9394C10.742 13.912 10.7887 13.8888 10.824 13.8702Z" fill="#D0D5DD"/>
<path d="M10.875 10.6875C10.875 9.45016 11.877 8.4375 13.125 8.4375C14.373 8.4375 15.375 9.45016 15.375 10.6875C15.375 11.9248 14.373 12.9375 13.125 12.9375C11.877 12.9375 10.875 11.9248 10.875 10.6875Z" fill="#D0D5DD"/>
<path d="M2.5733 6.3702C3.98447 5.6266 5.7645 5.6266 7.17566 6.3702C7.211 6.38882 7.25768 6.41204 7.31264 6.43938C7.57534 6.57007 8.02733 6.79493 8.33565 7.062C8.5246 7.22567 8.76065 7.48646 8.80488 7.84456C8.8544 8.24552 8.64692 8.58044 8.35049 8.83035C7.88067 9.22647 7.29342 9.5625 6.52791 9.5625H3.22106C2.45554 9.5625 1.8683 9.22647 1.39847 8.83036C1.10204 8.58044 0.894558 8.24552 0.944083 7.84456C0.988314 7.48646 1.22436 7.22567 1.41331 7.062C1.72163 6.79493 2.17362 6.57007 2.43632 6.43938C2.49128 6.41204 2.53796 6.38882 2.5733 6.3702Z" fill="#D0D5DD"/>
<path d="M2.62427 3.1875C2.62427 1.95016 3.62631 0.9375 4.87427 0.9375C6.12222 0.9375 7.12427 1.95016 7.12427 3.1875C7.12427 4.42484 6.12222 5.4375 4.87427 5.4375C3.62631 5.4375 2.62427 4.42484 2.62427 3.1875Z" fill="#D0D5DD"/>
</g>
<defs>
<clipPath id="clip0_3463_21200">
<rect width="18" height="18" fill="white"/>
</clipPath>
</defs>
</svg>
