<svg width="28" height="28" viewBox="0 0 28 28" fill="none" xmlns="http://www.w3.org/2000/svg">
<path fill-rule="evenodd" clip-rule="evenodd" d="M1.50821 1.50833C1.96382 1.05272 2.70252 1.05272 3.15813 1.50833L26.4915 24.8417C26.9471 25.2973 26.9471 26.036 26.4915 26.4916C26.0359 26.9472 25.2972 26.9472 24.8415 26.4916L1.50821 3.15825C1.0526 2.70264 1.0526 1.96395 1.50821 1.50833Z" fill="#1D2939"/>
<path fill-rule="evenodd" clip-rule="evenodd" d="M1.4585 7.71571C1.4585 5.88732 3.31467 4.82675 4.86218 5.1812C4.92754 5.19617 4.99336 5.21071 5.05965 5.22482C5.16595 5.24745 5.21911 5.25876 5.26368 5.28297C5.30825 5.30718 5.34532 5.34425 5.41947 5.4184L11.0304 11.0294C11.2509 11.2498 11.3611 11.36 11.3735 11.4844C11.3859 11.6087 11.2849 11.7609 11.0827 12.0652C10.7146 12.6193 10.5002 13.2843 10.5002 13.9994C10.5002 15.9324 12.0672 17.4994 14.0002 17.4994C14.7153 17.4994 15.3803 17.285 15.9344 16.9168C16.2387 16.7147 16.3908 16.6136 16.5152 16.626C16.6395 16.6385 16.7497 16.7487 16.9702 16.9691L21.108 21.1069C21.7621 21.761 22.0891 22.088 21.9935 22.3068C21.8978 22.5256 21.416 22.507 20.4524 22.4697C20.2483 22.4618 20.0419 22.4577 19.8335 22.4577C17.7036 22.4577 15.7913 22.8786 14.3704 23.5422C12.682 24.3308 10.5101 24.7911 8.16683 24.7911C6.86035 24.7911 5.61123 24.6481 4.47147 24.387C3.44986 24.153 2.64294 23.6958 2.11934 22.923C1.61299 22.1756 1.4585 21.2579 1.4585 20.2831V7.71571ZM7.5835 15.1661C7.5835 14.5217 7.06116 13.9994 6.41683 13.9994C5.7725 13.9994 5.25016 14.5217 5.25016 15.1661V15.1766C5.25016 15.8209 5.7725 16.3432 6.41683 16.3432C7.06116 16.3432 7.5835 15.8209 7.5835 15.1766V15.1661Z" fill="#1D2939"/>
<path fill-rule="evenodd" clip-rule="evenodd" d="M13.6289 4.45725C15.3174 3.66867 17.4893 3.20837 19.8326 3.20837C21.139 3.20837 22.3882 3.35137 23.5279 3.61242C24.5978 3.85748 25.4122 4.3309 25.9247 5.11873C26.4158 5.87366 26.5409 6.78668 26.5409 7.71634V20.2837C26.5409 20.614 26.4803 20.9192 26.372 21.1955C26.2585 21.4849 26.2018 21.6296 26.0165 21.6683C25.8313 21.707 25.6996 21.5753 25.4362 21.3119L17.581 13.4567C17.5099 13.3856 17.4743 13.35 17.4512 13.3099C17.4281 13.2698 17.4132 13.2135 17.3834 13.1009C17.0626 11.8907 16.1094 10.9378 14.8992 10.6168C14.7866 10.587 14.7304 10.572 14.6902 10.5489C14.6501 10.5258 14.6146 10.4903 14.5435 10.4192L10.6569 6.53261C10.2079 6.08365 9.98346 5.85917 10.0445 5.6583C10.1056 5.45743 10.43 5.3934 11.0786 5.26533C12.0343 5.07666 12.8968 4.79918 13.6289 4.45725ZM21.5826 11.6576C22.2269 11.6576 22.7492 12.1799 22.7492 12.8243V12.8347C22.7492 13.4791 22.2269 14.0014 21.5826 14.0014C20.9382 14.0014 20.4159 13.4791 20.4159 12.8347V12.8243C20.4159 12.1799 20.9382 11.6576 21.5826 11.6576Z" fill="#D0D5DD"/>
</svg>
