<svg width="18" height="18" viewBox="0 0 18 18" fill="none" xmlns="http://www.w3.org/2000/svg">
    <path d="M15 6.1875V13.5C15 15.75 13.6575 16.5 12 16.5H6C4.3425 16.5 3 15.75 3 13.5V6.1875C3 3.75 4.3425 3.1875 6 3.1875C6 3.6525 6.18748 4.0725 6.49498 4.38C6.80248 4.6875 7.2225 4.875 7.6875 4.875H10.3125C11.2425 4.875 12 4.1175 12 3.1875C13.6575 3.1875 15 3.75 15 6.1875Z" fill="#D0D5DD"/>
    <path d="M12 3.1875C12 4.1175 11.2425 4.875 10.3125 4.875H7.6875C7.2225 4.875 6.80248 4.6875 6.49498 4.38C6.18748 4.0725 6 3.6525 6 3.1875C6 2.2575 6.7575 1.5 7.6875 1.5H10.3125C10.7775 1.5 11.1975 1.6875 11.505 1.995C11.8125 2.3025 12 2.7225 12 3.1875Z" fill="#1D2939"/>
    <path d="M9 10.3125H6C5.6925 10.3125 5.4375 10.0575 5.4375 9.75C5.4375 9.4425 5.6925 9.1875 6 9.1875H9C9.3075 9.1875 9.5625 9.4425 9.5625 9.75C9.5625 10.0575 9.3075 10.3125 9 10.3125Z" fill="#1D2939"/>
    <path d="M12 13.3125H6C5.6925 13.3125 5.4375 13.0575 5.4375 12.75C5.4375 12.4425 5.6925 12.1875 6 12.1875H12C12.3075 12.1875 12.5625 12.4425 12.5625 12.75C12.5625 13.0575 12.3075 13.3125 12 13.3125Z" fill="#1D2939"/>
</svg>
