<svg width="16" height="16" viewBox="0 0 16 16" fill="none" xmlns="http://www.w3.org/2000/svg">
    <path d="M12.8926 9.66002L12.226 8.55335C12.086 8.30668 11.9593 7.84002 11.9593 7.56668V5.88002C11.9593 3.70668 10.1926 1.93335 8.01264 1.93335C5.83264 1.93335 4.06598 3.70668 4.06598 5.88002V7.56668C4.06598 7.84002 3.93931 8.30668 3.79931 8.54668L3.12598 9.66002C2.85931 10.1067 2.79931 10.6 2.96598 11.0534C3.12598 11.5 3.50598 11.8467 3.99931 12.0134C5.29264 12.4534 6.65264 12.6667 8.01264 12.6667C9.37264 12.6667 10.7326 12.4534 12.026 12.02C12.4926 11.8667 12.8526 11.5134 13.026 11.0534C13.1993 10.5934 13.1526 10.0867 12.8926 9.66002Z" fill="#077BF8"/>
    <path d="M9.88581 13.3399C9.60581 14.1133 8.86581 14.6666 7.99914 14.6666C7.47247 14.6666 6.95247 14.4533 6.58581 14.0733C6.37247 13.8733 6.21247 13.6066 6.11914 13.3333C6.20581 13.3466 6.29247 13.3533 6.38581 13.3666C6.53914 13.3866 6.69914 13.4066 6.85914 13.4199C7.23914 13.4533 7.62581 13.4733 8.01247 13.4733C8.39247 13.4733 8.77247 13.4533 9.14581 13.4199C9.28581 13.4066 9.42581 13.3999 9.55914 13.3799C9.66581 13.3666 9.77247 13.3533 9.88581 13.3399Z" fill="#000D1C"/>
    <path d="M9.49987 2.21325C9.03987 2.03325 8.53987 1.93325 8.0132 1.93325C7.4932 1.93325 6.9932 2.02659 6.5332 2.21325C6.81987 1.67325 7.38654 1.33325 8.0132 1.33325C8.64654 1.33325 9.20654 1.67325 9.49987 2.21325Z" fill="#000D1C"/>
</svg>
