<svg width="16" height="14" viewBox="0 0 16 14" fill="none" xmlns="http://www.w3.org/2000/svg">
    <path fill-rule="evenodd" clip-rule="evenodd" d="M8.90407 8.37731C9.24802 8.50868 9.42035 8.89401 9.28898 9.23797C8.84842 10.3914 8.16901 11.0445 7.33332 11.371C6.57534 11.6672 5.74111 11.667 5.0536 11.6668C5.03547 11.6668 5.01745 11.6668 4.99953 11.6668C4.24568 11.6668 3.65258 11.675 3.15103 11.871C2.7072 12.0445 2.27898 12.3914 1.95565 13.238C1.82428 13.5819 1.43895 13.7543 1.09499 13.6229C0.751037 13.4915 0.578704 13.1062 0.710076 12.7622C1.15064 11.6088 1.83005 10.9557 2.66574 10.6292C3.42372 10.333 4.25795 10.3332 4.94546 10.3334C4.96359 10.3334 4.98161 10.3334 4.99953 10.3334C5.75338 10.3334 6.34648 10.3252 6.84803 10.1292C7.29186 9.95572 7.72008 9.60877 8.04341 8.76223C8.17478 8.41827 8.56011 8.24594 8.90407 8.37731Z" fill="#077BF8"/>
    <path fill-rule="evenodd" clip-rule="evenodd" d="M8.62245 0.333253L11.3806 0.333253C12.1272 0.333225 12.754 0.333202 13.2525 0.400218C13.7802 0.471177 14.2628 0.628081 14.6514 1.01667C15.04 1.40526 15.1969 1.88785 15.2679 2.41564C15.3349 2.91409 15.3349 3.54086 15.3349 4.28751V5.71233C15.3349 6.45898 15.3349 7.08575 15.2679 7.58421C15.1969 8.11199 15.04 8.59458 14.6514 8.98317C14.2628 9.37176 13.7802 9.52867 13.2525 9.59962C12.754 9.66664 12.1272 9.66662 11.3806 9.66659L11.0007 9.66659C10.6325 9.66659 10.334 9.36811 10.334 8.99992C10.334 8.63173 10.6325 8.33325 11.0007 8.33325H11.3348C12.1394 8.33325 12.6757 8.33184 13.0748 8.27818C13.4547 8.2271 13.6091 8.13993 13.7086 8.04036C13.8082 7.9408 13.8954 7.78647 13.9464 7.40654C14.0001 7.00743 14.0015 6.47111 14.0015 5.66659V4.33325C14.0015 3.52873 14.0001 2.99241 13.9464 2.5933C13.8954 2.21337 13.8082 2.05905 13.7086 1.95948C13.6091 1.85992 13.4547 1.77274 13.0748 1.72166C12.6757 1.668 12.1394 1.66659 11.3348 1.66659L8.66818 1.66659C7.86366 1.66659 7.32734 1.668 6.92823 1.72166C6.5483 1.77274 6.39398 1.85992 6.29441 1.95948C6.20844 2.04546 6.13431 2.1697 6.08255 2.43394C6.02714 2.7168 6.00807 3.10108 6.00323 3.67224C6.00011 4.04042 5.69911 4.33635 5.33094 4.33323C4.96276 4.33011 4.66682 4.02911 4.66995 3.66094C4.67475 3.09439 4.69209 2.59621 4.77408 2.17764C4.85971 1.74046 5.02397 1.3443 5.3516 1.01667C5.74019 0.628081 6.22278 0.471177 6.75057 0.400218C7.24902 0.333202 7.87579 0.333225 8.62245 0.333253Z" fill="#077BF8"/>
    <path d="M2.83398 7.33341C2.83398 6.1368 3.80403 5.16675 5.00065 5.16675C6.19727 5.16675 7.16732 6.1368 7.16732 7.33341C7.16732 8.53003 6.19727 9.50008 5.00065 9.50008C3.80403 9.50008 2.83398 8.53003 2.83398 7.33341Z" fill="#000D1C"/>
    <path fill-rule="evenodd" clip-rule="evenodd" d="M7.33398 3.66667C7.33398 3.29848 7.63246 3 8.00065 3L12.0007 3C12.3688 3 12.6673 3.29848 12.6673 3.66667C12.6673 4.03486 12.3688 4.33333 12.0007 4.33333L8.00065 4.33333C7.63246 4.33333 7.33398 4.03486 7.33398 3.66667ZM9.33398 6.33333C9.33398 5.96514 9.63246 5.66667 10.0007 5.66667L12.0007 5.66667C12.3688 5.66667 12.6673 5.96514 12.6673 6.33333C12.6673 6.70152 12.3688 7 12.0007 7H10.0007C9.63246 7 9.33398 6.70152 9.33398 6.33333Z" fill="#000D1C"/>
</svg>
