<svg width="108" height="24" viewBox="0 0 108 24" fill="none" xmlns="http://www.w3.org/2000/svg">
    <path d="M9.96068 0.979532V8.97987C9.96068 9.52164 9.52278 9.95954 8.98101 9.95954H0.98067C0.330949 9.95954 -0.135466 9.33834 0.0356205 8.71102C1.18842 4.5031 4.5022 1.18932 8.71012 0.036519C9.33744 -0.134568 9.95864 0.32981 9.95864 0.981569L9.96068 0.979532Z" fill="#1D9C7D"/>
    <path d="M23.9678 15.31C22.8129 19.5057 19.5073 22.8073 15.3116 23.9621C14.6843 24.1352 14.061 23.6688 14.061 23.0171V15.0391C14.061 14.4973 14.4989 14.0594 15.0407 14.0594H23.0227C23.6745 14.0594 24.1388 14.6827 23.9678 15.31Z" fill="#1D9C7D"/>
    <path d="M23.0265 9.9595H17.7249C16.122 9.9595 14.5863 10.595 13.4538 11.7294L13.1728 12.0105L12.0118 13.1714L11.7308 13.4525C10.5983 14.585 9.96082 16.1227 9.96082 17.7236V23.0211C9.96082 23.6729 9.33758 24.1353 8.70822 23.9642C6.88126 23.4652 5.22335 22.5588 3.8404 21.3408C3.42694 20.9844 3.03589 20.5933 2.67946 20.1799C1.45741 18.7969 0.546985 17.139 0.043909 15.3141C-0.129214 14.6848 0.333127 14.0595 0.986922 14.0595H6.29875C7.90167 14.0595 9.43738 13.424 10.5698 12.2895L12.2929 10.5665C13.4253 9.43402 14.0628 7.89628 14.0628 6.2954V0.97949C14.0628 0.327731 14.6881 -0.136646 15.3175 0.0364774C17.1444 0.539554 18.8044 1.45405 20.1873 2.67202C20.6008 3.02846 20.9878 3.41951 21.3483 3.83297C22.5622 5.21796 23.4706 6.87587 23.9716 8.70487C24.1427 9.33422 23.6803 9.95746 23.0286 9.95746L23.0265 9.9595Z" fill="#077BF8"/>
    <path d="M36.7482 18.1408C35.4693 18.1408 34.3781 17.8709 33.4746 17.3312C32.5829 16.7915 31.8965 16.0405 31.4154 15.0784C30.9461 14.1163 30.7114 13.0192 30.7114 11.7872C30.7114 10.5317 30.952 9.4288 31.433 8.4784C31.9141 7.51627 32.6064 6.76533 33.5098 6.2256C34.4133 5.67413 35.5045 5.3984 36.7834 5.3984C38.0624 5.3984 39.1477 5.66827 40.0394 6.208C40.9429 6.74773 41.6352 7.49867 42.1162 8.4608C42.5973 9.4112 42.8378 10.5083 42.8378 11.752C42.8378 12.984 42.5973 14.0811 42.1162 15.0432C41.6469 16.0053 40.9546 16.7621 40.0394 17.3136C39.136 17.8651 38.0389 18.1408 36.7482 18.1408ZM36.7834 16.0992C37.6752 16.0992 38.4026 15.8939 38.9658 15.4832C39.529 15.0725 39.9397 14.5387 40.1978 13.8816C40.4677 13.2245 40.6026 12.5264 40.6026 11.7872C40.6026 11.224 40.5264 10.6843 40.3738 10.168C40.233 9.65173 40.0042 9.18827 39.6874 8.7776C39.3824 8.36693 38.9893 8.04427 38.5082 7.8096C38.0272 7.5632 37.4522 7.44 36.7834 7.44C35.9034 7.44 35.176 7.64533 34.601 8.056C34.0378 8.46667 33.6213 9.00053 33.3514 9.6576C33.0816 10.3147 32.9466 11.0245 32.9466 11.7872C32.9466 12.5381 33.0816 13.2421 33.3514 13.8992C33.6213 14.5563 34.0378 15.0901 34.601 15.5008C35.176 15.8997 35.9034 16.0992 36.7834 16.0992ZM44.5724 18V8.7248H46.5788L46.702 9.904C46.9484 9.57547 47.2359 9.31733 47.5644 9.1296C47.8929 8.94187 48.2391 8.80693 48.6028 8.7248C48.9665 8.63093 49.3068 8.584 49.6236 8.584C50.5036 8.584 51.1959 8.7776 51.7004 9.1648C52.2167 9.552 52.5804 10.0683 52.7916 10.7136C53.0028 11.3589 53.1084 12.0805 53.1084 12.8784V18H50.9612V13.2304C50.9612 12.8901 50.9377 12.5616 50.8908 12.2448C50.8439 11.9163 50.75 11.6229 50.6092 11.3648C50.4801 11.1067 50.2924 10.9013 50.046 10.7488C49.7996 10.5963 49.4711 10.52 49.0604 10.52C48.5559 10.52 48.1276 10.6549 47.7756 10.9248C47.4236 11.1947 47.1596 11.5584 46.9836 12.016C46.8076 12.4619 46.7196 12.9723 46.7196 13.5472V18H44.5724ZM59.2791 18.1232C58.317 18.1232 57.4957 17.9237 56.8151 17.5248C56.1463 17.1259 55.6359 16.5744 55.2839 15.8704C54.9437 15.1547 54.7735 14.3275 54.7735 13.3888C54.7735 12.4501 54.9495 11.6229 55.3015 10.9072C55.6653 10.1797 56.1815 9.61067 56.8503 9.2C57.5309 8.78933 58.3463 8.584 59.2967 8.584C60.0007 8.584 60.6167 8.71307 61.1447 8.9712C61.6727 9.2176 62.1127 9.55787 62.4647 9.992C62.8285 10.4261 63.0983 10.9189 63.2743 11.4704C63.4503 12.0219 63.5325 12.6027 63.5207 13.2128C63.509 13.3536 63.4973 13.4944 63.4855 13.6352C63.4738 13.7643 63.4562 13.9051 63.4327 14.0576H56.9207C56.9559 14.4683 57.0615 14.8437 57.2375 15.184C57.4253 15.5243 57.6834 15.7941 58.0119 15.9936C58.3522 16.1931 58.7746 16.2928 59.2791 16.2928C59.5725 16.2928 59.8541 16.2576 60.1239 16.1872C60.3938 16.1051 60.6285 15.9877 60.8279 15.8352C61.0391 15.6827 61.1799 15.4891 61.2503 15.2544H63.3975C63.245 15.9232 62.9634 16.4688 62.5527 16.8912C62.1421 17.3136 61.6493 17.6245 61.0743 17.824C60.5111 18.0235 59.9127 18.1232 59.2791 18.1232ZM56.9559 12.456H61.4263C61.4263 12.0688 61.3383 11.7168 61.1623 11.4C60.9863 11.0832 60.7341 10.8368 60.4055 10.6608C60.0887 10.4731 59.7015 10.3792 59.2439 10.3792C58.7511 10.3792 58.3405 10.4789 58.0119 10.6784C57.6834 10.8779 57.4311 11.136 57.2551 11.4528C57.0791 11.7696 56.9794 12.104 56.9559 12.456ZM70.2126 18.1408C69.3795 18.1408 68.5934 18.0176 67.8542 17.7712C67.1267 17.5131 66.5166 17.1083 66.0238 16.5568C65.531 15.9936 65.2083 15.2603 65.0558 14.3568H67.291C67.4318 14.8144 67.6547 15.1723 67.9598 15.4304C68.2766 15.6885 68.6462 15.8704 69.0686 15.976C69.491 16.0699 69.9192 16.1168 70.3534 16.1168C70.7406 16.1168 71.1043 16.0699 71.4446 15.976C71.7966 15.8704 72.084 15.7003 72.307 15.4656C72.5416 15.2309 72.659 14.92 72.659 14.5328C72.659 14.2395 72.5944 14.0048 72.4654 13.8288C72.348 13.6411 72.1779 13.4885 71.955 13.3712C71.7438 13.2421 71.4856 13.1424 71.1806 13.072C70.8872 12.9781 70.5704 12.896 70.2302 12.8256C69.8899 12.7552 69.5555 12.6789 69.227 12.5968C68.8984 12.5147 68.5875 12.4091 68.2942 12.28C67.9187 12.1509 67.555 12.0043 67.203 11.84C66.8627 11.664 66.5635 11.4528 66.3054 11.2064C66.059 10.96 65.8595 10.6549 65.707 10.2912C65.5544 9.92747 65.4782 9.49333 65.4782 8.9888C65.4782 8.41387 65.572 7.92107 65.7598 7.5104C65.9592 7.088 66.2174 6.74187 66.5342 6.472C66.8627 6.20213 67.2264 5.99093 67.6254 5.8384C68.036 5.68587 68.4584 5.5744 68.8926 5.504C69.3384 5.4336 69.7608 5.3984 70.1598 5.3984C70.9342 5.3984 71.6382 5.52747 72.2718 5.7856C72.9171 6.04373 73.4451 6.44267 73.8558 6.9824C74.2664 7.52213 74.5011 8.2144 74.5598 9.0592H72.4302C72.3832 8.66027 72.2424 8.34347 72.0078 8.1088C71.7731 7.8624 71.4798 7.6864 71.1278 7.5808C70.7758 7.46347 70.3944 7.4048 69.9838 7.4048C69.7022 7.4048 69.4206 7.42827 69.139 7.4752C68.8691 7.52213 68.6227 7.60427 68.3998 7.7216C68.1886 7.83893 68.0126 7.99733 67.8718 8.1968C67.7427 8.38453 67.6782 8.62507 67.6782 8.9184C67.6782 9.17653 67.7427 9.40533 67.8718 9.6048C68.0008 9.79253 68.1768 9.95093 68.3998 10.08C68.6344 10.2091 68.9102 10.3264 69.227 10.432C69.6376 10.5963 70.0835 10.7195 70.5646 10.8016C71.0574 10.8837 71.5208 10.9952 71.955 11.136C72.3774 11.2533 72.7646 11.4 73.1166 11.576C73.4803 11.7403 73.7912 11.9456 74.0494 12.192C74.3075 12.4267 74.507 12.72 74.6478 13.072C74.8003 13.4123 74.8766 13.8229 74.8766 14.304C74.8766 15.008 74.7475 15.6064 74.4894 16.0992C74.243 16.5803 73.8968 16.9733 73.451 17.2784C73.0168 17.5835 72.5182 17.8064 71.955 17.9472C71.4035 18.0763 70.8227 18.1408 70.2126 18.1408ZM80.495 18.1056C79.4742 18.1056 78.7291 17.824 78.2598 17.2608C77.7904 16.6976 77.5558 15.9173 77.5558 14.92V10.6256H76.1302V8.7248H77.5558V6.12H79.703V8.7248H82.519V10.6256H79.703V14.5152C79.703 14.8203 79.7382 15.096 79.8086 15.3424C79.879 15.5888 80.008 15.7824 80.1958 15.9232C80.3835 16.064 80.6416 16.1403 80.9702 16.152C81.2518 16.152 81.4923 16.1051 81.6918 16.0112C81.8912 15.9173 82.0555 15.8117 82.1846 15.6944L82.9062 17.3312C82.6832 17.5189 82.431 17.6715 82.1494 17.7888C81.8795 17.9061 81.6038 17.9883 81.3222 18.0352C81.0406 18.0821 80.7648 18.1056 80.495 18.1056ZM88.3109 18.1232C87.3605 18.1232 86.5392 17.9296 85.8469 17.5424C85.1664 17.1552 84.6384 16.6037 84.2629 15.888C83.8992 15.1723 83.7173 14.3333 83.7173 13.3712C83.7173 12.3973 83.905 11.5584 84.2805 10.8544C84.656 10.1387 85.184 9.58133 85.8645 9.1824C86.545 8.78347 87.3605 8.584 88.3109 8.584C89.2496 8.584 90.0592 8.78347 90.7397 9.1824C91.4202 9.58133 91.9424 10.1445 92.3061 10.872C92.6698 11.5877 92.8517 12.4325 92.8517 13.4064C92.8517 14.3568 92.6698 15.1899 92.3061 15.9056C91.9541 16.6096 91.4378 17.1552 90.7573 17.5424C90.0768 17.9296 89.2613 18.1232 88.3109 18.1232ZM88.2933 16.1696C88.88 16.1696 89.3493 16.0405 89.7013 15.7824C90.065 15.5243 90.329 15.184 90.4933 14.7616C90.6576 14.3392 90.7397 13.8816 90.7397 13.3888C90.7397 12.896 90.6576 12.4325 90.4933 11.9984C90.329 11.5643 90.065 11.2181 89.7013 10.96C89.3493 10.6901 88.88 10.5552 88.2933 10.5552C87.7066 10.5552 87.2314 10.6901 86.8677 10.96C86.504 11.2181 86.24 11.5643 86.0757 11.9984C85.9114 12.4208 85.8293 12.8843 85.8293 13.3888C85.8293 13.8816 85.9114 14.3451 86.0757 14.7792C86.2517 15.2016 86.5157 15.5419 86.8677 15.8C87.2314 16.0464 87.7066 16.1696 88.2933 16.1696ZM94.5708 21.4144V8.7248H96.5772L96.6828 9.9744C97.0466 9.49333 97.4807 9.14133 97.9852 8.9184C98.4898 8.69547 99.0471 8.584 99.6572 8.584C100.572 8.584 101.329 8.7952 101.928 9.2176C102.526 9.64 102.972 10.2091 103.265 10.9248C103.559 11.6405 103.705 12.4501 103.705 13.3536C103.705 14.2571 103.553 15.0725 103.248 15.8C102.943 16.5157 102.479 17.0848 101.857 17.5072C101.247 17.9179 100.479 18.1232 99.5516 18.1232C99.1175 18.1232 98.7186 18.0763 98.3548 17.9824C98.0028 17.8885 97.686 17.7536 97.4044 17.5776C97.1346 17.4016 96.9058 17.2021 96.718 16.9792V21.4144H94.5708ZM99.2172 16.1872C99.8156 16.1872 100.285 16.0581 100.625 15.8C100.966 15.5301 101.212 15.184 101.364 14.7616C101.517 14.3275 101.593 13.8699 101.593 13.3888C101.593 12.8843 101.511 12.4149 101.347 11.9808C101.194 11.5467 100.942 11.1947 100.59 10.9248C100.238 10.6549 99.7687 10.52 99.182 10.52C98.6423 10.52 98.1847 10.6549 97.8092 10.9248C97.4455 11.1829 97.1698 11.5291 96.982 11.9632C96.7943 12.3973 96.7004 12.8667 96.7004 13.3712C96.7004 13.8875 96.7884 14.3627 96.9644 14.7968C97.1404 15.2192 97.4162 15.5595 97.7916 15.8176C98.1671 16.064 98.6423 16.1872 99.2172 16.1872Z" fill="white"/>
    <path d="M101.786 6.59998V3.20638H103.125C103.298 3.20638 103.461 3.22398 103.615 3.25918C103.768 3.29118 103.904 3.34878 104.023 3.43198C104.141 3.51198 104.234 3.62238 104.301 3.76318C104.368 3.90398 104.402 4.07838 104.402 4.28638C104.402 4.45918 104.372 4.61118 104.311 4.74238C104.25 4.87358 104.165 4.98398 104.056 5.07358C103.951 5.16318 103.824 5.23198 103.677 5.27998L104.421 6.59998H103.749L103.082 5.37598H102.386V6.59998H101.786ZM102.386 4.84318H103.044C103.152 4.84318 103.252 4.83518 103.341 4.81918C103.434 4.79998 103.514 4.76958 103.581 4.72798C103.652 4.68638 103.704 4.63038 103.74 4.55998C103.778 4.48638 103.799 4.39358 103.802 4.28158C103.802 4.14718 103.773 4.04158 103.716 3.96478C103.661 3.88798 103.581 3.83358 103.476 3.80158C103.373 3.76958 103.25 3.75358 103.106 3.75358H102.386V4.84318ZM104.703 6.59998L105.596 5.30878L104.751 4.07038H105.433L105.98 4.91998L106.513 4.07038H107.18L106.335 5.32318L107.242 6.59998H106.556L105.956 5.72638L105.356 6.59998H104.703Z" fill="white"/>
</svg>
