<svg width="108" height="24" viewBox="0 0 108 24" fill="none" xmlns="http://www.w3.org/2000/svg">
    <path d="M9.96068 0.979471V8.97981C9.96068 9.52158 9.52278 9.95948 8.98101 9.95948H0.98067C0.330949 9.95948 -0.135466 9.33827 0.0356205 8.71096C1.18842 4.50304 4.5022 1.18926 8.71012 0.036458C9.33744 -0.134629 9.95864 0.329749 9.95864 0.981508L9.96068 0.979471Z" fill="#1D9C7D"/>
    <path d="M23.9678 15.3101C22.8129 19.5058 19.5073 22.8074 15.3116 23.9622C14.6843 24.1353 14.061 23.6689 14.061 23.0172V15.0392C14.061 14.4975 14.4989 14.0596 15.0407 14.0596H23.0227C23.6745 14.0596 24.1388 14.6828 23.9678 15.3101Z" fill="#1D9C7D"/>
    <path d="M23.0265 9.9595H17.7249C16.122 9.9595 14.5863 10.595 13.4538 11.7294L13.1728 12.0105L12.0118 13.1714L11.7308 13.4525C10.5983 14.585 9.96082 16.1227 9.96082 17.7236V23.0211C9.96082 23.6729 9.33758 24.1353 8.70822 23.9642C6.88126 23.4652 5.22335 22.5588 3.8404 21.3408C3.42694 20.9844 3.03589 20.5933 2.67946 20.1799C1.45741 18.7969 0.546985 17.139 0.043909 15.3141C-0.129214 14.6848 0.333127 14.0595 0.986922 14.0595H6.29875C7.90167 14.0595 9.43738 13.424 10.5698 12.2895L12.2929 10.5665C13.4253 9.43402 14.0628 7.89628 14.0628 6.2954V0.97949C14.0628 0.327731 14.6881 -0.136646 15.3175 0.0364774C17.1444 0.539554 18.8044 1.45405 20.1873 2.67202C20.6008 3.02846 20.9878 3.41951 21.3483 3.83297C22.5622 5.21796 23.4706 6.87587 23.9716 8.70487C24.1427 9.33422 23.6803 9.95746 23.0286 9.95746L23.0265 9.9595Z" fill="#077BF8"/>
    <path d="M36.7481 18.1408C35.4692 18.1408 34.378 17.8709 33.4745 17.3312C32.5828 16.7915 31.8964 16.0405 31.4153 15.0784C30.946 14.1163 30.7113 13.0192 30.7113 11.7872C30.7113 10.5317 30.9519 9.4288 31.4329 8.4784C31.914 7.51627 32.6063 6.76533 33.5097 6.2256C34.4132 5.67413 35.5044 5.3984 36.7833 5.3984C38.0623 5.3984 39.1476 5.66827 40.0393 6.208C40.9428 6.74773 41.6351 7.49867 42.1161 8.4608C42.5972 9.4112 42.8377 10.5083 42.8377 11.752C42.8377 12.984 42.5972 14.0811 42.1161 15.0432C41.6468 16.0053 40.9545 16.7621 40.0393 17.3136C39.1359 17.8651 38.0388 18.1408 36.7481 18.1408ZM36.7833 16.0992C37.6751 16.0992 38.4025 15.8939 38.9657 15.4832C39.5289 15.0725 39.9396 14.5387 40.1977 13.8816C40.4676 13.2245 40.6025 12.5264 40.6025 11.7872C40.6025 11.224 40.5263 10.6843 40.3737 10.168C40.2329 9.65173 40.0041 9.18827 39.6873 8.7776C39.3823 8.36693 38.9892 8.04427 38.5081 7.8096C38.0271 7.5632 37.4521 7.44 36.7833 7.44C35.9033 7.44 35.1759 7.64533 34.6009 8.056C34.0377 8.46667 33.6212 9.00053 33.3513 9.6576C33.0815 10.3147 32.9465 11.0245 32.9465 11.7872C32.9465 12.5381 33.0815 13.2421 33.3513 13.8992C33.6212 14.5563 34.0377 15.0901 34.6009 15.5008C35.1759 15.8997 35.9033 16.0992 36.7833 16.0992ZM44.5723 18V8.7248H46.5787L46.7019 9.904C46.9483 9.57547 47.2358 9.31733 47.5643 9.1296C47.8928 8.94187 48.239 8.80693 48.6027 8.7248C48.9664 8.63093 49.3067 8.584 49.6235 8.584C50.5035 8.584 51.1958 8.7776 51.7003 9.1648C52.2166 9.552 52.5803 10.0683 52.7915 10.7136C53.0027 11.3589 53.1083 12.0805 53.1083 12.8784V18H50.9611V13.2304C50.9611 12.8901 50.9376 12.5616 50.8907 12.2448C50.8438 11.9163 50.7499 11.6229 50.6091 11.3648C50.48 11.1067 50.2923 10.9013 50.0459 10.7488C49.7995 10.5963 49.471 10.52 49.0603 10.52C48.5558 10.52 48.1275 10.6549 47.7755 10.9248C47.4235 11.1947 47.1595 11.5584 46.9835 12.016C46.8075 12.4619 46.7195 12.9723 46.7195 13.5472V18H44.5723ZM59.279 18.1232C58.3169 18.1232 57.4955 17.9237 56.815 17.5248C56.1462 17.1259 55.6358 16.5744 55.2838 15.8704C54.9435 15.1547 54.7734 14.3275 54.7734 13.3888C54.7734 12.4501 54.9494 11.6229 55.3014 10.9072C55.6651 10.1797 56.1814 9.61067 56.8502 9.2C57.5307 8.78933 58.3462 8.584 59.2966 8.584C60.0006 8.584 60.6166 8.71307 61.1446 8.9712C61.6726 9.2176 62.1126 9.55787 62.4646 9.992C62.8283 10.4261 63.0982 10.9189 63.2742 11.4704C63.4502 12.0219 63.5323 12.6027 63.5206 13.2128C63.5089 13.3536 63.4971 13.4944 63.4854 13.6352C63.4737 13.7643 63.4561 13.9051 63.4326 14.0576H56.9206C56.9558 14.4683 57.0614 14.8437 57.2374 15.184C57.4251 15.5243 57.6833 15.7941 58.0118 15.9936C58.3521 16.1931 58.7745 16.2928 59.279 16.2928C59.5723 16.2928 59.8539 16.2576 60.1238 16.1872C60.3937 16.1051 60.6283 15.9877 60.8278 15.8352C61.039 15.6827 61.1798 15.4891 61.2502 15.2544H63.3974C63.2449 15.9232 62.9633 16.4688 62.5526 16.8912C62.1419 17.3136 61.6491 17.6245 61.0742 17.824C60.511 18.0235 59.9126 18.1232 59.279 18.1232ZM56.9558 12.456H61.4262C61.4262 12.0688 61.3382 11.7168 61.1622 11.4C60.9862 11.0832 60.7339 10.8368 60.4054 10.6608C60.0886 10.4731 59.7014 10.3792 59.2438 10.3792C58.751 10.3792 58.3403 10.4789 58.0118 10.6784C57.6833 10.8779 57.431 11.136 57.255 11.4528C57.079 11.7696 56.9793 12.104 56.9558 12.456ZM70.2125 18.1408C69.3794 18.1408 68.5933 18.0176 67.8541 17.7712C67.1266 17.5131 66.5165 17.1083 66.0237 16.5568C65.5309 15.9936 65.2082 15.2603 65.0557 14.3568H67.2909C67.4317 14.8144 67.6546 15.1723 67.9597 15.4304C68.2765 15.6885 68.6461 15.8704 69.0685 15.976C69.4909 16.0699 69.9191 16.1168 70.3533 16.1168C70.7405 16.1168 71.1042 16.0699 71.4445 15.976C71.7965 15.8704 72.0839 15.7003 72.3069 15.4656C72.5415 15.2309 72.6589 14.92 72.6589 14.5328C72.6589 14.2395 72.5943 14.0048 72.4653 13.8288C72.3479 13.6411 72.1778 13.4885 71.9549 13.3712C71.7437 13.2421 71.4855 13.1424 71.1805 13.072C70.8871 12.9781 70.5703 12.896 70.2301 12.8256C69.8898 12.7552 69.5554 12.6789 69.2269 12.5968C68.8983 12.5147 68.5874 12.4091 68.2941 12.28C67.9186 12.1509 67.5549 12.0043 67.2029 11.84C66.8626 11.664 66.5634 11.4528 66.3053 11.2064C66.0589 10.96 65.8594 10.6549 65.7069 10.2912C65.5543 9.92747 65.4781 9.49333 65.4781 8.9888C65.4781 8.41387 65.5719 7.92107 65.7597 7.5104C65.9591 7.088 66.2173 6.74187 66.5341 6.472C66.8626 6.20213 67.2263 5.99093 67.6253 5.8384C68.0359 5.68587 68.4583 5.5744 68.8925 5.504C69.3383 5.4336 69.7607 5.3984 70.1597 5.3984C70.9341 5.3984 71.6381 5.52747 72.2717 5.7856C72.917 6.04373 73.445 6.44267 73.8557 6.9824C74.2663 7.52213 74.501 8.2144 74.5597 9.0592H72.4301C72.3831 8.66027 72.2423 8.34347 72.0077 8.1088C71.773 7.8624 71.4797 7.6864 71.1277 7.5808C70.7757 7.46347 70.3943 7.4048 69.9837 7.4048C69.7021 7.4048 69.4205 7.42827 69.1389 7.4752C68.869 7.52213 68.6226 7.60427 68.3997 7.7216C68.1885 7.83893 68.0125 7.99733 67.8717 8.1968C67.7426 8.38453 67.6781 8.62507 67.6781 8.9184C67.6781 9.17653 67.7426 9.40533 67.8717 9.6048C68.0007 9.79253 68.1767 9.95093 68.3997 10.08C68.6343 10.2091 68.9101 10.3264 69.2269 10.432C69.6375 10.5963 70.0834 10.7195 70.5645 10.8016C71.0573 10.8837 71.5207 10.9952 71.9549 11.136C72.3773 11.2533 72.7645 11.4 73.1165 11.576C73.4802 11.7403 73.7911 11.9456 74.0493 12.192C74.3074 12.4267 74.5069 12.72 74.6477 13.072C74.8002 13.4123 74.8765 13.8229 74.8765 14.304C74.8765 15.008 74.7474 15.6064 74.4893 16.0992C74.2429 16.5803 73.8967 16.9733 73.4509 17.2784C73.0167 17.5835 72.5181 17.8064 71.9549 17.9472C71.4034 18.0763 70.8226 18.1408 70.2125 18.1408ZM80.4948 18.1056C79.474 18.1056 78.729 17.824 78.2596 17.2608C77.7903 16.6976 77.5556 15.9173 77.5556 14.92V10.6256H76.13V8.7248H77.5556V6.12H79.7028V8.7248H82.5188V10.6256H79.7028V14.5152C79.7028 14.8203 79.738 15.096 79.8084 15.3424C79.8788 15.5888 80.0079 15.7824 80.1956 15.9232C80.3834 16.064 80.6415 16.1403 80.97 16.152C81.2516 16.152 81.4922 16.1051 81.6916 16.0112C81.8911 15.9173 82.0554 15.8117 82.1844 15.6944L82.906 17.3312C82.6831 17.5189 82.4308 17.6715 82.1492 17.7888C81.8794 17.9061 81.6036 17.9883 81.322 18.0352C81.0404 18.0821 80.7647 18.1056 80.4948 18.1056ZM88.3108 18.1232C87.3604 18.1232 86.539 17.9296 85.8468 17.5424C85.1662 17.1552 84.6382 16.6037 84.2628 15.888C83.899 15.1723 83.7172 14.3333 83.7172 13.3712C83.7172 12.3973 83.9049 11.5584 84.2804 10.8544C84.6558 10.1387 85.1838 9.58133 85.8644 9.1824C86.5449 8.78347 87.3604 8.584 88.3108 8.584C89.2494 8.584 90.059 8.78347 90.7396 9.1824C91.4201 9.58133 91.9422 10.1445 92.306 10.872C92.6697 11.5877 92.8516 12.4325 92.8516 13.4064C92.8516 14.3568 92.6697 15.1899 92.306 15.9056C91.954 16.6096 91.4377 17.1552 90.7572 17.5424C90.0766 17.9296 89.2612 18.1232 88.3108 18.1232ZM88.2932 16.1696C88.8798 16.1696 89.3492 16.0405 89.7012 15.7824C90.0649 15.5243 90.3289 15.184 90.4932 14.7616C90.6574 14.3392 90.7396 13.8816 90.7396 13.3888C90.7396 12.896 90.6574 12.4325 90.4932 11.9984C90.3289 11.5643 90.0649 11.2181 89.7012 10.96C89.3492 10.6901 88.8798 10.5552 88.2932 10.5552C87.7065 10.5552 87.2313 10.6901 86.8676 10.96C86.5038 11.2181 86.2398 11.5643 86.0756 11.9984C85.9113 12.4208 85.8292 12.8843 85.8292 13.3888C85.8292 13.8816 85.9113 14.3451 86.0756 14.7792C86.2516 15.2016 86.5156 15.5419 86.8676 15.8C87.2313 16.0464 87.7065 16.1696 88.2932 16.1696ZM94.5707 21.4144V8.7248H96.5771L96.6827 9.9744C97.0465 9.49333 97.4806 9.14133 97.9851 8.9184C98.4897 8.69547 99.047 8.584 99.6571 8.584C100.572 8.584 101.329 8.7952 101.928 9.2176C102.526 9.64 102.972 10.2091 103.265 10.9248C103.558 11.6405 103.705 12.4501 103.705 13.3536C103.705 14.2571 103.553 15.0725 103.248 15.8C102.942 16.5157 102.479 17.0848 101.857 17.5072C101.247 17.9179 100.478 18.1232 99.5515 18.1232C99.1174 18.1232 98.7185 18.0763 98.3547 17.9824C98.0027 17.8885 97.6859 17.7536 97.4043 17.5776C97.1345 17.4016 96.9057 17.2021 96.7179 16.9792V21.4144H94.5707ZM99.2171 16.1872C99.8155 16.1872 100.285 16.0581 100.625 15.8C100.965 15.5301 101.212 15.184 101.364 14.7616C101.517 14.3275 101.593 13.8699 101.593 13.3888C101.593 12.8843 101.511 12.4149 101.347 11.9808C101.194 11.5467 100.942 11.1947 100.59 10.9248C100.238 10.6549 99.7686 10.52 99.1819 10.52C98.6422 10.52 98.1846 10.6549 97.8091 10.9248C97.4454 11.1829 97.1697 11.5291 96.9819 11.9632C96.7942 12.3973 96.7003 12.8667 96.7003 13.3712C96.7003 13.8875 96.7883 14.3627 96.9643 14.7968C97.1403 15.2192 97.4161 15.5595 97.7915 15.8176C98.167 16.064 98.6422 16.1872 99.2171 16.1872Z" fill="#001C3A"/>
    <path d="M101.786 6.6001V3.2065H103.125C103.298 3.2065 103.461 3.2241 103.615 3.2593C103.768 3.2913 103.904 3.3489 104.023 3.4321C104.141 3.5121 104.234 3.6225 104.301 3.7633C104.368 3.9041 104.402 4.0785 104.402 4.2865C104.402 4.4593 104.372 4.6113 104.311 4.7425C104.25 4.8737 104.165 4.9841 104.056 5.0737C103.951 5.1633 103.824 5.2321 103.677 5.2801L104.421 6.6001H103.749L103.082 5.3761H102.386V6.6001H101.786ZM102.386 4.8433H103.044C103.152 4.8433 103.252 4.8353 103.341 4.8193C103.434 4.8001 103.514 4.7697 103.581 4.7281C103.652 4.6865 103.704 4.6305 103.74 4.5601C103.778 4.4865 103.799 4.3937 103.802 4.2817C103.802 4.1473 103.773 4.0417 103.716 3.9649C103.661 3.8881 103.581 3.8337 103.476 3.8017C103.373 3.7697 103.25 3.7537 103.106 3.7537H102.386V4.8433ZM104.703 6.6001L105.596 5.3089L104.751 4.0705H105.433L105.98 4.9201L106.513 4.0705H107.18L106.335 5.3233L107.242 6.6001H106.556L105.956 5.7265L105.356 6.6001H104.703Z" fill="#001C3A"/>
</svg>
