<svg width="260" height="215" viewBox="0 0 260 215" fill="none" xmlns="http://www.w3.org/2000/svg">
<ellipse cx="134.5" cy="198.5" rx="125.5" ry="15.5" fill="#FEF6F6"/>
<path d="M24.8325 137.526L81.9145 193.813C83.218 195.09 84.9737 195.8 86.7983 195.787C88.623 195.773 90.3683 195.039 91.6532 193.743L95.7467 189.599L190.491 93.5231C191.769 92.2217 192.48 90.4671 192.469 88.6429C192.457 86.8187 191.724 85.0732 190.429 83.7882L139.998 34.0782L133.367 27.4997C132.062 26.2259 130.307 25.5187 128.483 25.5318C126.66 25.545 124.915 26.2773 123.628 27.5698L24.7827 127.786C23.5044 129.088 22.7924 130.842 22.8017 132.666C22.811 134.491 23.5409 136.237 24.8325 137.526Z" fill="#EA5353"/>
<path opacity="0.1" d="M24.8325 137.526L81.9145 193.813C83.218 195.09 84.9737 195.8 86.7983 195.787C88.623 195.773 90.3683 195.039 91.6532 193.743L95.7467 189.599L190.491 93.5231C191.769 92.2217 192.48 90.4671 192.469 88.6429C192.457 86.8187 191.724 85.0732 190.429 83.7882L139.998 34.0782L133.367 27.4997C132.062 26.2259 130.307 25.5187 128.483 25.5318C126.66 25.545 124.915 26.2773 123.628 27.5698L24.7827 127.786C23.5044 129.088 22.7924 130.842 22.8017 132.666C22.811 134.491 23.5409 136.237 24.8325 137.526Z" fill="white"/>
<path d="M156.508 50.3351L48.0015 160.367L76.1283 188.104L184.635 78.072L156.508 50.3351Z" fill="#EA5353"/>
<path opacity="0.3" d="M156.508 50.3351L48.0015 160.367L76.1283 188.104L184.635 78.072L156.508 50.3351Z" fill="white"/>
<path d="M156.969 67.9345L88.3999 137.468L98.4662 147.394L167.036 77.8612L156.969 67.9345Z" fill="#EA5353"/>
<path opacity="0.8" d="M156.969 67.9345L88.3999 137.468L98.4662 147.394L167.036 77.8612L156.969 67.9345Z" fill="white"/>
<path d="M147.364 39.806L38.9602 150.427L54.0465 165.211L162.45 54.59L147.364 39.806Z" fill="#EA5353"/>
<path opacity="0.3" d="M147.364 39.806L38.9602 150.427L54.0465 165.211L162.45 54.59L147.364 39.806Z" fill="black"/>
<path d="M42.995 131.604L95.7373 189.575L190.481 93.4987C191.76 92.1973 192.471 90.4427 192.459 88.6185C192.448 86.7942 191.714 85.0488 190.419 83.7637L139.988 34.0537L43.4592 121.876C42.1141 123.108 41.3106 124.822 41.2236 126.644C41.1367 128.466 41.7734 130.249 42.995 131.604Z" fill="#EA5353"/>
<path d="M47.8999 120.458L155.494 29.6931C156.892 28.5207 158.697 27.9495 160.514 28.1043C162.332 28.2591 164.015 29.1273 165.194 30.5191L216.885 91.7953C218.058 93.1929 218.63 94.9978 218.477 96.8159C218.324 98.634 217.458 100.318 216.067 101.499L108.473 192.264C107.074 193.434 105.268 194.003 103.451 193.849C101.633 193.695 99.9498 192.829 98.7671 191.44L47.0761 130.164C45.9032 128.766 45.3315 126.96 45.4859 125.141C45.6402 123.323 46.5081 121.639 47.8999 120.458Z" fill="#EA5353"/>
<path opacity="0.1" d="M47.8999 120.458L155.494 29.6931C156.892 28.5207 158.697 27.9495 160.514 28.1043C162.332 28.2591 164.015 29.1273 165.194 30.5191L216.885 91.7953C218.058 93.1929 218.63 94.9978 218.477 96.8159C218.324 98.634 217.458 100.318 216.067 101.499L108.473 192.264C107.074 193.434 105.268 194.003 103.451 193.849C101.633 193.695 99.9498 192.829 98.7671 191.44L47.0761 130.164C45.9032 128.766 45.3315 126.96 45.4859 125.141C45.6402 123.323 46.5081 121.639 47.8999 120.458Z" fill="white"/>
<path d="M184.979 53.9664L66.8591 153.608L89.3454 180.265L207.465 80.6226L184.979 53.9664Z" fill="#EA5353"/>
<path opacity="0.3" d="M184.979 53.9664L66.8591 153.608L89.3454 180.265L207.465 80.6226L184.979 53.9664Z" fill="white"/>
<path d="M162.977 45.1954L138.559 65.793L141.768 69.5968L166.185 48.9992L162.977 45.1954Z" fill="#EA5353"/>
<path opacity="0.8" d="M162.977 45.1954L138.559 65.793L141.768 69.5968L166.185 48.9992L162.977 45.1954Z" fill="white"/>
<path d="M202.272 91.7774L182.683 108.303L184.36 110.291L203.949 93.7654L202.272 91.7774Z" fill="#EA5353"/>
<path opacity="0.8" d="M202.272 91.7774L182.683 108.303L184.36 110.291L203.949 93.7654L202.272 91.7774Z" fill="white"/>
<path d="M205.477 95.581L180.233 116.876L181.91 118.864L207.154 97.5691L205.477 95.581Z" fill="#EA5353"/>
<path opacity="0.8" d="M205.477 95.581L180.233 116.876L181.91 118.864L207.154 97.5691L205.477 95.581Z" fill="white"/>
<path d="M114.34 168.547L101.718 179.194L105.326 183.471L117.947 172.823L114.34 168.547Z" fill="#EA5353"/>
<path opacity="0.8" d="M114.34 168.547L101.718 179.194L105.326 183.471L117.947 172.823L114.34 168.547Z" fill="white"/>
<path d="M176.161 96.7006L190.901 84.2699C191.676 83.6102 192.16 82.6711 192.247 81.6568C192.333 80.6425 192.016 79.635 191.364 78.8533C190.704 78.0779 189.765 77.5943 188.751 77.5076C187.736 77.4209 186.729 77.7381 185.947 78.3903L171.204 90.8293C170.428 91.489 169.945 92.4281 169.858 93.4424C169.771 94.4567 170.088 95.4643 170.741 96.2459C171.402 97.0212 172.342 97.5039 173.357 97.5891C174.372 97.6742 175.38 97.3549 176.161 96.7006Z" fill="#EA5353"/>
<path d="M150.913 117.999L165.657 105.56C166.425 104.901 166.904 103.968 166.991 102.96C167.078 101.952 166.767 100.95 166.123 100.17C165.462 99.3957 164.523 98.9137 163.51 98.8281C162.496 98.7426 161.489 99.0604 160.708 99.7126L145.971 112.149C145.196 112.809 144.712 113.748 144.625 114.762C144.539 115.777 144.856 116.784 145.508 117.566C146.172 118.334 147.11 118.809 148.122 118.89C149.133 118.971 150.136 118.651 150.913 117.999Z" fill="#EA5353"/>
<path d="M125.683 139.289L140.427 126.85C141.192 126.19 141.668 125.257 141.753 124.25C141.838 123.243 141.525 122.243 140.881 121.465C140.22 120.691 139.281 120.209 138.268 120.123C137.254 120.038 136.247 120.355 135.467 121.008L120.702 133.427C119.928 134.088 119.446 135.027 119.36 136.04C119.275 137.054 119.593 138.061 120.245 138.841C120.907 139.621 121.852 140.106 122.871 140.19C123.891 140.274 124.902 139.95 125.683 139.289Z" fill="#EA5353"/>
<path d="M100.423 160.593L115.167 148.154C115.936 147.496 116.417 146.562 116.505 145.554C116.594 144.545 116.283 143.542 115.639 142.761C114.978 141.987 114.039 141.505 113.026 141.42C112.012 141.334 111.005 141.652 110.225 142.304L95.481 154.743C94.7056 155.403 94.222 156.342 94.1353 157.356C94.0486 158.37 94.3659 159.378 95.018 160.16C95.6816 160.927 96.6205 161.403 97.6319 161.484C98.6433 161.565 99.646 161.245 100.423 160.593Z" fill="#EA5353"/>
<g opacity="0.8">
<path d="M176.161 96.6996L190.901 84.2689C191.676 83.6093 192.16 82.6702 192.246 81.6558C192.333 80.6415 192.016 79.634 191.364 78.8523C190.704 78.0769 189.765 77.5933 188.75 77.5066C187.736 77.4199 186.729 77.7372 185.947 78.3894L171.203 90.8283C170.428 91.488 169.944 92.4271 169.858 93.4414C169.771 94.4557 170.088 95.4633 170.74 96.245C171.401 97.0202 172.342 97.503 173.357 97.5881C174.372 97.6733 175.38 97.3539 176.161 96.6996Z" fill="white"/>
<path d="M150.913 117.998L165.656 105.559C166.424 104.9 166.903 103.967 166.991 102.959C167.078 101.951 166.766 100.949 166.122 100.169C165.462 99.3948 164.523 98.9127 163.509 98.8272C162.495 98.7416 161.489 99.0594 160.708 99.7116L145.97 112.148C145.195 112.808 144.712 113.747 144.625 114.761C144.538 115.776 144.855 116.783 145.508 117.565C146.171 118.333 147.11 118.808 148.121 118.889C149.133 118.97 150.135 118.65 150.913 117.998Z" fill="white"/>
<path d="M125.683 139.289L140.427 126.85C141.192 126.19 141.668 125.257 141.752 124.25C141.837 123.243 141.524 122.243 140.881 121.465C140.22 120.691 139.281 120.209 138.267 120.123C137.254 120.038 136.247 120.355 135.466 121.008L120.702 133.427C119.928 134.088 119.446 135.027 119.36 136.04C119.275 137.054 119.592 138.061 120.245 138.841C120.907 139.621 121.852 140.106 122.871 140.19C123.891 140.274 124.902 139.95 125.683 139.289Z" fill="white"/>
<path d="M100.423 160.592L115.167 148.153C115.936 147.495 116.417 146.561 116.505 145.553C116.593 144.544 116.282 143.541 115.639 142.76C114.978 141.986 114.039 141.504 113.025 141.419C112.012 141.333 111.005 141.651 110.224 142.303L95.4807 154.742C94.7054 155.402 94.2218 156.341 94.1351 157.355C94.0484 158.369 94.3656 159.377 95.0178 160.159C95.6813 160.926 96.6202 161.402 97.6317 161.483C98.6431 161.564 99.6457 161.244 100.423 160.592Z" fill="white"/>
</g>
<path d="M172.602 60.7011L159.483 71.7678C158.369 72.7078 158.228 74.373 159.168 75.4873L165.735 83.272C166.675 84.3863 168.34 84.5276 169.454 83.5876L182.573 72.5209C183.687 71.581 183.829 69.9157 182.889 68.8014L176.322 61.0167C175.382 59.9024 173.717 59.7611 172.602 60.7011Z" fill="#EA5353"/>
<path opacity="0.3" d="M172.602 60.7011L159.483 71.7678C158.369 72.7078 158.228 74.373 159.168 75.4873L165.735 83.272C166.675 84.3863 168.34 84.5276 169.454 83.5876L182.573 72.5209C183.687 71.581 183.829 69.9157 182.889 68.8014L176.322 61.0167C175.382 59.9024 173.717 59.7611 172.602 60.7011Z" fill="black"/>
<path d="M87.5866 112.097C86.7993 111.161 85.8353 110.39 84.7497 109.828C83.6641 109.265 82.4783 108.922 81.26 108.818C80.0417 108.714 78.8149 108.851 77.6497 109.222C76.4846 109.593 75.4039 110.189 74.4695 110.978L63.9847 120.215L63.8442 120.317L63.5402 120.604L63.3496 120.773C61.7137 122.415 60.7731 124.624 60.7232 126.941C60.6733 129.258 61.5179 131.505 63.0816 133.216C64.6453 134.927 66.8079 135.969 69.1201 136.127C71.4324 136.285 73.7166 135.546 75.4983 134.064L85.6143 125.814C85.9196 125.612 86.214 125.395 86.4962 125.162C86.7039 124.987 86.9024 124.801 87.0906 124.605C88.7161 122.957 89.6679 120.761 89.7597 118.447C89.8514 116.134 89.0765 113.869 87.5866 112.097Z" fill="#EA5353"/>
<path opacity="0.8" d="M87.5866 112.097C86.7993 111.161 85.8353 110.39 84.7497 109.828C83.6641 109.265 82.4783 108.922 81.26 108.818C80.0417 108.714 78.8149 108.851 77.6497 109.222C76.4846 109.593 75.4039 110.189 74.4695 110.978L63.9847 120.215L63.8442 120.317L63.5402 120.604L63.3496 120.773C61.7137 122.415 60.7731 124.624 60.7232 126.941C60.6733 129.258 61.5179 131.505 63.0816 133.216C64.6453 134.927 66.8079 135.969 69.1201 136.127C71.4324 136.285 73.7166 135.546 75.4983 134.064L85.6143 125.814C85.9196 125.612 86.214 125.395 86.4962 125.162C86.7039 124.987 86.9024 124.801 87.0906 124.605C88.7161 122.957 89.6679 120.761 89.7597 118.447C89.8514 116.134 89.0765 113.869 87.5866 112.097Z" fill="white"/>
<circle cx="195.707" cy="173.492" r="23.783" fill="#EA5353"/>
<path d="M202.049 181.922L187.049 166.922C186.537 166.409 186.537 165.559 187.049 165.047C187.562 164.534 188.412 164.534 188.924 165.047L203.924 180.047C204.437 180.559 204.437 181.409 203.924 181.922C203.412 182.434 202.562 182.434 202.049 181.922Z" fill="white"/>
<path d="M187.047 181.922C186.534 181.409 186.534 180.559 187.047 180.047L202.047 165.047C202.559 164.534 203.409 164.534 203.922 165.047C204.434 165.559 204.434 166.409 203.922 166.922L188.922 181.922C188.409 182.434 187.559 182.434 187.047 181.922Z" fill="white"/>
</svg>
