<svg width="44" height="44" viewBox="0 0 44 44" fill="none" xmlns="http://www.w3.org/2000/svg">
    <rect width="44" height="44" rx="22" fill="#077BF8" fill-opacity="0.1"/>
    <path d="M15.9553 23.25C15.5224 23.25 15.1256 23.2499 14.8028 23.2933C14.4473 23.3411 14.0716 23.4535 13.7626 23.7626C13.4535 24.0716 13.3411 24.4473 13.2933 24.8028C13.2499 25.1256 13.25 25.5224 13.25 25.9553L13.25 28.5635C13.25 28.8917 13.2499 29.1992 13.2799 29.4561C13.3132 29.7421 13.3904 30.0427 13.5976 30.3203C13.8047 30.5979 14.071 30.7574 14.3357 30.8707C14.5735 30.9725 14.8683 31.06 15.1829 31.1533L20.1818 32.6366C20.9063 32.8516 21.6827 32.7581 22.3377 32.3802L29.8533 28.0438C30.7865 27.5054 31.0266 26.2638 30.4051 25.4032C29.7123 24.4437 28.5017 24.0209 27.3712 24.3724L27.3697 24.3729L25.2442 25.0259C24.9956 25.1023 24.8712 25.1405 24.8322 25.2122C24.7933 25.2839 24.8398 25.4474 24.9328 25.7743C25.0037 26.0236 25.0121 26.2627 25 26.3973C25 27.3786 24.331 28.171 23.4667 28.4099L20.9258 29.1124C20.0041 29.3673 19.0169 29.2796 18.1539 28.8621L16.5336 28.0781C16.2229 27.9278 16.0929 27.554 16.2432 27.2433C16.3935 26.9326 16.7673 26.8026 17.078 26.9529L18.6983 27.7369C19.2869 28.0217 19.9622 28.082 20.5927 27.9076L23.1336 27.2051C23.4837 27.1083 23.75 26.7884 23.75 26.3973C23.75 24.9842 22.5733 24.6252 21.1741 24.6252L20.1315 24.6251C19.9497 24.6251 19.7714 24.5841 19.6108 24.5064L17.5688 23.5184C17.2032 23.3415 16.8014 23.25 16.3948 23.25L15.9553 23.25Z" fill="#077BF8"/>
    <path fill-rule="evenodd" clip-rule="evenodd" d="M20.9998 20V18H26.9998V20C26.9998 21.6569 25.6567 23 23.9998 23C22.3429 23 20.9998 21.6569 20.9998 20Z" fill="#000D1C"/>
    <path fill-rule="evenodd" clip-rule="evenodd" d="M20.9998 15V17H26.9998V15C26.9998 13.3431 25.6567 12 23.9998 12C22.3429 12 20.9998 13.3431 20.9998 15Z" fill="#077BF8"/>
</svg>
