<svg width="24" height="24" viewBox="0 0 24 24" fill="none" xmlns="http://www.w3.org/2000/svg">
<path d="M12 1.24939C14.6231 1.24951 16.7498 3.37632 16.75 5.99939C16.75 8.17623 15.2852 10.0103 13.2878 10.5717C13.1214 10.6185 13 10.7665 13 10.9393V17.7494C13 18.3017 12.5523 18.7494 12 18.7494C11.4477 18.7494 11 18.3017 11 17.7494V10.9394C11 10.7665 10.8786 10.6185 10.7122 10.5717C8.71459 10.0104 7.25 8.17637 7.25 5.99939C7.25025 3.37625 9.3768 1.24939 12 1.24939Z" fill="#D0D5DD"/>
<path fill-rule="evenodd" clip-rule="evenodd" d="M7.99924 19.7106C7.97855 19.1766 7.53909 18.75 7 18.75C6.44772 18.75 6 19.1977 6 19.75C6 20.3897 6.32823 20.898 6.70582 21.255C7.08129 21.6101 7.57094 21.8838 8.09308 22.0927C9.1429 22.5126 10.5246 22.75 12 22.75C13.4754 22.75 14.8571 22.5126 15.9069 22.0927C16.4291 21.8838 16.9187 21.6101 17.2942 21.255C17.6718 20.898 18 20.3897 18 19.75C18 19.1977 17.5523 18.75 17 18.75C16.4609 18.75 16.0215 19.1766 16.0008 19.7106C15.99 19.7273 15.9667 19.7578 15.92 19.8019C15.7894 19.9254 15.5468 20.0827 15.1641 20.2357C14.4043 20.5397 13.2861 20.75 12 20.75C10.7139 20.75 9.59568 20.5397 8.83586 20.2357C8.45317 20.0827 8.21059 19.9254 8.08003 19.8019C8.03333 19.7578 8.01001 19.7273 7.99924 19.7106Z" fill="#1D2939"/>
</svg>
