<svg width="240" height="240" viewBox="0 0 240 240" fill="none" xmlns="http://www.w3.org/2000/svg">
    <path d="M0 120C0 53.7258 53.7258 0 120 0C186.274 0 240 53.7258 240 120C240 186.274 186.274 240 120 240C53.7258 240 0 186.274 0 120Z" fill="#F04438" fill-opacity="0.05"/>
    <path d="M20 120C20 64.7715 64.7715 20 120 20C175.228 20 220 64.7715 220 120C220 175.228 175.228 220 120 220C64.7715 220 20 175.228 20 120Z" fill="#F04438"/>
    <path d="M120 14.5C178.266 14.5 225.5 61.734 225.5 120C225.5 178.266 178.266 225.5 120 225.5C61.734 225.5 14.5 178.266 14.5 120C14.5 61.734 61.734 14.5 120 14.5Z" stroke="#F04438" stroke-opacity="0.16" stroke-width="11"/>
    <path d="M116.62 101.625L103.556 101.625C102.005 101.625 100.668 101.625 99.5975 101.769C98.4504 101.923 97.3508 102.271 96.4589 103.163C95.5669 104.055 95.2191 105.154 95.0649 106.301C94.921 107.372 94.9211 108.709 94.9211 110.26L94.9211 126.824C94.9211 128.375 94.921 129.712 95.0649 130.782C95.2191 131.929 95.5669 133.029 96.4589 133.921C97.2231 134.685 98.1265 135.048 99.102 135.235C99.3772 135.287 99.5148 135.314 99.6013 135.234C99.6878 135.153 99.6708 135.003 99.6368 134.702C99.5999 134.376 99.581 134.044 99.581 133.708C99.581 128.876 103.498 124.958 108.331 124.958C113.163 124.958 117.081 128.876 117.081 133.708C117.081 133.725 117.081 133.741 117.081 133.757C117.076 134.616 117.074 135.046 117.279 135.252C117.484 135.458 117.862 135.458 118.619 135.458H121.377C122.133 135.458 122.511 135.458 122.716 135.252C122.922 135.046 122.919 134.616 122.914 133.757C122.914 133.741 122.914 133.725 122.914 133.708C122.914 128.876 126.832 124.958 131.664 124.958C136.497 124.958 140.414 128.876 140.414 133.708C140.414 134.064 140.393 134.414 140.352 134.759C140.313 135.083 140.573 135.377 140.897 135.332C142.021 135.175 143.072 134.74 143.835 133.877C144.576 133.038 144.851 132.041 144.973 131.036C145.062 130.307 145.082 129.44 145.087 128.458H142.754C141.788 128.458 141.004 127.675 141.004 126.708C141.004 125.742 141.788 124.958 142.754 124.958H145.043C144.984 124.051 144.848 123.255 144.454 122.452C143.762 121.041 142.513 120.185 140.942 119.11C139.318 117.997 138.011 116.627 136.952 114.966L136.91 114.9C136.081 113.601 135.397 112.529 134.755 111.697C134.082 110.826 133.374 110.11 132.45 109.586C131.519 109.059 130.552 108.832 129.479 108.725C129.086 108.686 128.754 109.003 128.754 109.398V117.375C128.754 118.342 127.971 119.125 127.004 119.125C126.038 119.125 125.254 118.342 125.254 117.375V108.625H125.247C125.235 107.754 125.201 106.975 125.111 106.301C124.957 105.154 124.609 104.055 123.717 103.163C122.825 102.271 121.725 101.923 120.578 101.769C119.508 101.625 118.171 101.625 116.62 101.625Z" fill="#FFFBFA"/>
    <path d="M145.087 128.458H142.755C141.788 128.458 141.005 127.675 141.005 126.708C141.005 125.742 141.788 124.958 142.755 124.958H145.043L145.087 128.458Z" fill="#912018"/>
    <path fill-rule="evenodd" clip-rule="evenodd" d="M110.671 108.625C111.638 108.625 112.421 109.409 112.421 110.375V113.292H115.338C116.304 113.292 117.088 114.075 117.088 115.042C117.088 116.008 116.304 116.792 115.338 116.792H112.421V119.708C112.421 120.675 111.638 121.458 110.671 121.458C109.705 121.458 108.921 120.675 108.921 119.708V116.792H106.005C105.038 116.792 104.255 116.008 104.255 115.042C104.255 114.075 105.038 113.292 106.005 113.292H108.921V110.375C108.921 109.409 109.705 108.625 110.671 108.625Z" fill="#F04438"/>
    <circle cx="131.667" cy="133.708" r="5.83333" fill="#FFFBFA"/>
    <circle cx="108.333" cy="133.708" r="5.83333" fill="#FFFBFA"/>
</svg>
