<svg width="44" height="44" viewBox="0 0 44 44" fill="none" xmlns="http://www.w3.org/2000/svg">
    <path d="M0 22C0 9.84974 9.84974 0 22 0C34.1503 0 44 9.84974 44 22C44 34.1503 34.1503 44 22 44C9.84974 44 0 34.1503 0 22Z" fill="#F04438" fill-opacity="0.1"/>
    <path d="M27.9933 19.3833C27.9826 18.4773 27.9515 17.6942 27.8619 17.0278C27.8573 16.9937 27.8526 16.9597 27.8477 16.9259C28.3059 16.5656 28.7204 16.262 29.0944 16.0361C29.7947 15.613 30.6822 15.2587 31.5929 15.7102C32.4895 16.1546 32.7673 17.0655 32.8829 17.8828C32.9991 18.7045 32.9991 19.8101 32.999 21.1382V22.8645C32.9991 24.1926 32.9991 25.2982 32.8829 26.1198C32.7673 26.9371 32.4895 27.848 31.5929 28.2925C30.6822 28.7439 29.7947 28.3896 29.0944 27.9666C28.7204 27.7406 28.3059 27.437 27.8477 27.0768C27.8526 27.0431 27.8574 27.0092 27.8619 26.9752C27.9515 26.3087 27.9826 25.5255 27.9933 24.6193C28.951 25.4085 29.6124 25.9429 30.1285 26.2547C30.3999 26.4186 30.5637 26.4778 30.6531 26.4955C30.6728 26.4994 30.6863 26.5007 30.6942 26.5012L30.6994 26.5013L30.7027 26.5013L30.7047 26.5005C30.709 26.4984 30.7108 26.4966 30.7108 26.4966C30.7136 26.4936 30.7286 26.4774 30.7499 26.4358C30.7977 26.3422 30.8567 26.1641 30.9026 25.8397C30.9966 25.1754 30.999 24.2135 30.999 22.7832V21.2194C30.999 19.7892 30.9966 18.8273 30.9026 18.1629C30.8567 17.8385 30.7977 17.6604 30.7499 17.5669C30.7286 17.5252 30.714 17.5095 30.7112 17.5065C30.7112 17.5065 30.709 17.5043 30.7047 17.5021L30.7032 17.5014C30.7032 17.5014 30.6982 17.5013 30.6942 17.5015C30.6863 17.5019 30.6728 17.5032 30.6531 17.5071C30.5637 17.5248 30.3999 17.584 30.1285 17.748C29.6124 18.0598 28.951 18.5942 27.9933 19.3833Z" fill="#1C0D09"/>
    <path d="M20.072 13H18.928C17.3393 13 16.0461 12.9999 15.0263 13.1371C13.9623 13.2801 13.0474 13.5887 12.318 14.318C11.5887 15.0474 11.2801 15.9623 11.1371 17.0263C10.9999 18.0461 11 19.3393 11 20.9279V23.072C11 24.6607 10.9999 25.9539 11.1371 26.9737C11.2801 28.0377 11.5887 28.9527 12.318 29.682C13.0474 30.4113 13.9623 30.7199 15.0263 30.8629C16.0462 31.0001 17.3393 31 18.928 31H20.072C21.6607 31 22.9538 31.0001 23.9737 30.8629C25.0377 30.7199 25.9527 30.4113 26.682 29.682C27.4113 28.9527 27.7199 28.0377 27.8629 26.9737C28.0001 25.9538 28 24.6607 28 23.072V20.928C28 19.3393 28.0001 18.0462 27.8629 17.0263C27.7199 15.9623 27.4113 15.0474 26.682 14.318C25.9527 13.5887 25.0377 13.2801 23.9737 13.1371C22.9539 12.9999 21.6607 13 20.072 13Z" fill="#F04438"/>
    <circle cx="21.5" cy="19.5" r="1.5" fill="#1C0D09"/>
    <path d="M32 38C32 34.6863 34.6863 32 38 32C41.3137 32 44 34.6863 44 38C44 41.3137 41.3137 44 38 44C34.6863 44 32 41.3137 32 38Z" fill="white"/>
    <circle cx="38" cy="38" r="4" fill="#12B76A"/>
</svg>
