<svg width="44" height="44" viewBox="0 0 44 44" fill="none" xmlns="http://www.w3.org/2000/svg">
    <path d="M0 22C0 9.84974 9.84974 0 22 0C34.1503 0 44 9.84974 44 22C44 34.1503 34.1503 44 22 44C9.84974 44 0 34.1503 0 22Z" fill="#F04438" fill-opacity="0.1"/>
    <path d="M26.0458 14.25C27.5002 14.3389 28.6488 14.5877 29.506 15.4474C30.1807 16.1241 30.476 16.9793 30.6152 18.018C30.75 19.0237 30.75 20.3062 30.75 21.9137V31.9986C30.75 32.4128 30.4142 32.7486 30 32.7486H14C13.5858 32.7486 13.25 32.4128 13.25 31.9986L13.25 21.9137V21.9137C13.25 20.3062 13.25 19.0237 13.3848 18.018C13.524 16.9793 13.8193 16.1241 14.494 15.4474C15.3512 14.5877 16.4998 14.3389 17.9542 14.25V16.0545C17.9542 17.9402 17.9542 18.883 18.54 19.4688C19.1258 20.0545 20.0686 20.0545 21.9542 20.0545H22.0458C23.9314 20.0545 24.8742 20.0545 25.46 19.4688C26.0458 18.883 26.0458 17.9402 26.0458 16.0545V14.25Z" fill="#F04438"/>
    <path fill-rule="evenodd" clip-rule="evenodd" d="M12 31.75C12 31.1977 12.4477 30.75 13 30.75L31 30.75C31.5523 30.75 32 31.1977 32 31.75C32 32.3023 31.5523 32.75 31 32.75L13 32.75C12.4477 32.75 12 32.3023 12 31.75Z" fill="#1C0D09"/>
    <path d="M22.0323 26.25C22.472 26.25 22.8514 26.25 23.1627 26.2782C23.4918 26.308 23.8178 26.3741 24.125 26.5514C24.467 26.7489 24.7511 27.033 24.9486 27.375C25.1259 27.6822 25.192 28.0082 25.2218 28.3374C25.25 28.6486 25.25 29.028 25.25 29.4678L25.25 32C25.25 32.4142 24.9142 32.75 24.5 32.75C24.0858 32.75 23.75 32.4142 23.75 32V29.5C23.75 29.0189 23.7493 28.7082 23.7279 28.4727C23.7279 27.9415 23.2608 27.7843 23.0273 27.7721C22.7918 27.7507 22.4811 27.75 22 27.75C21.5189 27.75 21.2082 27.7507 20.9727 27.7721C20.4223 27.7721 20.3015 28.2392 20.2721 28.4727C20.2507 28.7082 20.25 29.0189 20.25 29.5V32C20.25 32.4142 19.9142 32.75 19.5 32.75C19.0858 32.75 18.75 32.4142 18.75 32V29.4678V29.4677C18.75 29.028 18.75 28.6486 18.7782 28.3374C18.808 28.0082 18.8741 27.6822 19.0514 27.375C19.2489 27.033 19.533 26.7489 19.875 26.5514C20.1822 26.3741 20.5082 26.308 20.8374 26.2782C21.1486 26.25 21.5924 26.25 22.0322 26.25H22.0323Z" fill="#1C0D09"/>
    <path fill-rule="evenodd" clip-rule="evenodd" d="M17 23C17 22.4477 17.4477 22 18 22H18.009C18.5612 22 19.009 22.4477 19.009 23C19.009 23.5523 18.5612 24 18.009 24H18C17.4477 24 17 23.5523 17 23ZM20.991 23C20.991 22.4477 21.4388 22 21.991 22H22C22.5523 22 23 22.4477 23 23C23 23.5523 22.5523 24 22 24H21.991C21.4388 24 20.991 23.5523 20.991 23ZM24.9922 23C24.9922 22.4477 25.4399 22 25.9922 22H26.0011C26.5534 22 27.0011 22.4477 27.0011 23C27.0011 23.5523 26.5534 24 26.0011 24H25.9922C25.4399 24 24.9922 23.5523 24.9922 23Z" fill="#1C0D09"/>
    <path fill-rule="evenodd" clip-rule="evenodd" d="M21.948 11.25H22.052C22.9505 11.25 23.6997 11.2499 24.2945 11.3299C24.9223 11.4143 25.4891 11.6 25.9445 12.0555C26.4 12.5109 26.5857 13.0777 26.6701 13.7055C26.7501 14.3003 26.75 15.0495 26.75 15.948V16.052C26.75 16.9505 26.7501 17.6997 26.6701 18.2945C26.5857 18.9223 26.4 19.4891 25.9445 19.9445C25.4891 20.4 24.9223 20.5857 24.2945 20.6701C23.6997 20.7501 22.9505 20.75 22.052 20.75H21.948C21.0495 20.75 20.3003 20.7501 19.7055 20.6701C19.0777 20.5857 18.5109 20.4 18.0555 19.9445C17.6 19.4891 17.4143 18.9223 17.3299 18.2945C17.2499 17.6997 17.25 16.9505 17.25 16.052V15.948C17.25 15.0495 17.2499 14.3003 17.3299 13.7055C17.4143 13.0777 17.6 12.5109 18.0555 12.0555C18.5109 11.6 19.0777 11.4143 19.7055 11.3299C20.3003 11.2499 21.0495 11.25 21.948 11.25ZM19.9054 12.8165C19.4439 12.8786 19.2464 12.9858 19.1161 13.1161C18.9858 13.2464 18.8786 13.4439 18.8165 13.9054C18.7516 14.3884 18.75 15.036 18.75 16C18.75 16.964 18.7516 17.6116 18.8165 18.0946C18.8786 18.5561 18.9858 18.7536 19.1161 18.8839C19.2464 19.0142 19.4439 19.1214 19.9054 19.1835C20.3884 19.2484 21.036 19.25 22 19.25C22.964 19.25 23.6116 19.2484 24.0946 19.1835C24.5561 19.1214 24.7536 19.0142 24.8839 18.8839C25.0142 18.7536 25.1214 18.5561 25.1835 18.0946C25.2484 17.6116 25.25 16.964 25.25 16C25.25 15.036 25.2484 14.3884 25.1835 13.9054C25.1214 13.4439 25.0142 13.2464 24.8839 13.1161C24.7536 12.9858 24.5561 12.8786 24.0946 12.8165C23.6116 12.7516 22.964 12.75 22 12.75C21.036 12.75 20.3884 12.7516 19.9054 12.8165Z" fill="#1C0D09"/>
    <path fill-rule="evenodd" clip-rule="evenodd" d="M22 13.75C22.4142 13.75 22.75 14.0858 22.75 14.5V15.25H23.5C23.9142 15.25 24.25 15.5858 24.25 16C24.25 16.4142 23.9142 16.75 23.5 16.75H22.75V17.5C22.75 17.9142 22.4142 18.25 22 18.25C21.5858 18.25 21.25 17.9142 21.25 17.5V16.75H20.5C20.0858 16.75 19.75 16.4142 19.75 16C19.75 15.5858 20.0858 15.25 20.5 15.25H21.25V14.5C21.25 14.0858 21.5858 13.75 22 13.75Z" fill="#F04438"/>
</svg>
