<svg width="44" height="44" viewBox="0 0 44 44" fill="none" xmlns="http://www.w3.org/2000/svg">
<path d="M0 22C0 9.84974 9.84974 0 22 0C34.1503 0 44 9.84974 44 22C44 34.1503 34.1503 44 22 44C9.84974 44 0 34.1503 0 22Z" fill="#077BF8" fill-opacity="0.05"/>
<path d="M18.25 16.2501C18.25 15.9462 18.25 15.7942 18.326 15.6726C18.402 15.551 18.5386 15.4844 18.8119 15.3512L25.1701 12.2521C26.8246 11.4457 27.6518 11.0425 28.5741 11.3568C29.4964 11.6711 29.8129 12.3454 30.4461 13.6942C32.1846 17.3977 32.1846 21.6023 30.4461 25.3058C29.8129 26.6546 29.4964 27.3289 28.5741 27.6432C27.6518 27.9575 26.8246 27.5543 25.1701 26.7479L18.8119 23.6488C18.5386 23.5156 18.402 23.449 18.326 23.3274C18.25 23.2058 18.25 23.0538 18.25 22.7499L18.25 16.2501Z" fill="#077BF8"/>
<path d="M16.75 16.5777C16.75 16.5044 16.75 16.4678 16.7485 16.4485C16.7301 16.2118 16.6249 16.0801 16.3983 16.0097C16.3798 16.0039 16.3237 15.9911 16.2115 15.9656C15.8162 15.8757 15.6183 15.8307 15.4592 15.8123C13.4822 15.583 12.25 17.1718 12.25 18.9987V20.0013C12.25 21.8282 13.4822 23.417 15.4592 23.1877C15.6183 23.1693 15.8161 23.1243 16.2114 23.0344C16.3237 23.0089 16.3798 22.9961 16.3984 22.9903C16.6249 22.9199 16.7301 22.7882 16.7485 22.5516C16.75 22.5323 16.75 22.4956 16.75 22.4222L16.75 16.5777Z" fill="#077BF8"/>
<path d="M19.9162 25.9033C20.3623 26.6113 20.9223 27.1232 21.6033 27.5693C22.8574 28.3907 23.2525 30.2631 21.9346 31.3493L20.4433 32.5784C20.1704 32.8033 19.7774 32.807 19.5003 32.5872C17.7602 31.2072 16.8769 30.0933 16.5022 28.5783C16.3228 27.8528 16.2681 27.0682 16.2538 26.1787C16.2466 25.7305 16.2508 25.1153 16.2559 24.5413C16.2572 24.4029 16.3534 24.2836 16.4883 24.2529C16.8164 24.1783 17.1179 24.2135 17.4149 24.3583L19.4807 25.3651C19.5687 25.408 19.6127 25.4295 19.6463 25.4614C19.6799 25.4934 19.7053 25.5396 19.7562 25.6319C19.8082 25.7261 19.8615 25.8165 19.9162 25.9033Z" fill="#000D1C"/>
</svg>
