<svg width="25" height="24" viewBox="0 0 25 24" fill="none" xmlns="http://www.w3.org/2000/svg">
<path fill-rule="evenodd" clip-rule="evenodd" d="M19.7563 1.36606C18.8926 1.24994 17.8014 1.24997 16.4781 1.25H12.431C11.1077 1.24997 10.0164 1.24994 9.15275 1.36606C8.246 1.48797 7.4452 1.75375 6.804 2.39495C6.16281 3.03615 5.89702 3.83695 5.77511 4.74369C5.65899 5.60736 5.65902 6.6986 5.65906 8.02195L5.65906 15.3091C5.65906 15.5919 5.65906 15.7334 5.57119 15.8212C5.48332 15.9091 5.3419 15.9091 5.05905 15.9091L4.58344 15.9091C4.15936 15.9089 3.72951 15.9088 3.37244 15.9682C2.94525 16.0393 2.49876 16.2128 2.15457 16.6424C1.8333 17.0435 1.7363 17.4787 1.75151 17.9104C1.76352 18.2512 1.85016 18.6332 1.92954 18.9831C2.12629 19.8528 2.48532 20.8094 3.06295 21.5101C3.66342 22.2384 4.51879 22.75 5.62398 22.75H19.3347C20.7282 22.75 21.778 22.161 22.4321 21.1638C23.0448 20.23 23.25 19.033 23.25 17.8636V8.02197C23.25 6.69861 23.25 5.60737 23.1339 4.74369C23.012 3.83695 22.7462 3.03615 22.105 2.39495C21.4638 1.75375 20.663 1.48797 19.7563 1.36606ZM8.21377 15.9091C7.93093 15.9091 7.78951 15.9091 7.70164 15.8213C7.61377 15.7334 7.61377 15.592 7.61377 15.3091V8.09095C7.61377 6.68125 7.61585 5.72229 7.71239 5.00417C7.80516 4.31417 7.96873 3.99458 8.18624 3.77706C8.40376 3.55955 8.72334 3.39598 9.41335 3.30322C10.1315 3.20667 11.0904 3.20459 12.5001 3.20459H16.4092C17.8189 3.20459 18.7779 3.20667 19.496 3.30322C20.186 3.39598 20.5056 3.55955 20.7231 3.77706C20.9406 3.99458 21.1042 4.31417 21.197 5.00417C21.2935 5.72229 21.2956 6.68126 21.2956 8.09095V17.8637C21.2956 18.8532 21.1135 19.6108 20.798 20.0918C20.524 20.5095 20.1048 20.7955 19.3349 20.7955C18.9034 20.7955 18.5724 20.6191 18.2819 20.2668C17.9685 19.8867 17.7187 19.3115 17.56 18.6103C17.4543 18.143 17.3508 17.6854 17.2463 17.3635C17.1437 17.0476 16.9758 16.6313 16.6061 16.3364C16.2596 16.0599 15.8672 15.9763 15.544 15.9415C15.2424 15.909 14.8743 15.9091 14.4832 15.9091L8.21377 15.9091Z" fill="#D0D5DD"/>
<path fill-rule="evenodd" clip-rule="evenodd" d="M10 7C10 6.44772 10.4477 6 11 6H18C18.5523 6 19 6.44772 19 7C19 7.55228 18.5523 8 18 8H11C10.4477 8 10 7.55228 10 7Z" fill="#1D2939"/>
<path fill-rule="evenodd" clip-rule="evenodd" d="M10 11C10 10.4477 10.4477 10 11 10H14.5C15.0523 10 15.5 10.4477 15.5 11C15.5 11.5523 15.0523 12 14.5 12H11C10.4477 12 10 11.5523 10 11Z" fill="#1D2939"/>
</svg>
