<svg width="20" height="20" viewBox="0 0 20 20" fill="none" xmlns="http://www.w3.org/2000/svg">
<g clip-path="url(#clip0_2229_16795)">
<path fill-rule="evenodd" clip-rule="evenodd" d="M13.9941 13.9941C14.3195 13.6686 14.8472 13.6686 15.1726 13.9941L18.9226 17.7441C19.248 18.0695 19.248 18.5972 18.9226 18.9226C18.5972 19.248 18.0695 19.248 17.7441 18.9226L13.9941 15.1726C13.6686 14.8472 13.6686 14.3195 13.9941 13.9941Z" fill="#000D1C"/>
<path fill-rule="evenodd" clip-rule="evenodd" d="M0.832031 9.16683C0.832031 4.56446 4.56299 0.833496 9.16536 0.833496C13.7677 0.833496 17.4987 4.56446 17.4987 9.16683C17.4987 13.7692 13.7677 17.5002 9.16536 17.5002C4.56299 17.5002 0.832031 13.7692 0.832031 9.16683ZM9.16536 2.50016C5.48347 2.50016 2.4987 5.48493 2.4987 9.16683C2.4987 12.8487 5.48347 15.8335 9.16536 15.8335C12.8473 15.8335 15.832 12.8487 15.832 9.16683C15.832 5.48493 12.8473 2.50016 9.16536 2.50016Z" fill="#077BF8"/>
</g>
<defs>
<clipPath id="clip0_2229_16795">
<rect width="20" height="20" fill="white"/>
</clipPath>
</defs>
</svg>
