<svg width="20" height="20" viewBox="0 0 20 20" fill="none" xmlns="http://www.w3.org/2000/svg">
    <g clip-path="url(#clip0_2994_3626)">
        <path fill-rule="evenodd" clip-rule="evenodd" d="M13.9941 13.9941C14.3195 13.6686 14.8472 13.6686 15.1726 13.9941L18.9226 17.7441C19.248 18.0695 19.248 18.5972 18.9226 18.9226C18.5972 19.248 18.0695 19.248 17.7441 18.9226L13.9941 15.1726C13.6686 14.8472 13.6686 14.3195 13.9941 13.9941Z" fill="#000D1C"/>
        <path fill-rule="evenodd" clip-rule="evenodd" d="M0.833984 9.16658C0.833984 4.56421 4.56494 0.833252 9.16732 0.833252C13.7697 0.833252 17.5007 4.56421 17.5007 9.16658C17.5007 13.769 13.7697 17.4999 9.16732 17.4999C4.56494 17.4999 0.833984 13.769 0.833984 9.16658ZM9.16732 2.49992C5.48542 2.49992 2.50065 5.48469 2.50065 9.16658C2.50065 12.8485 5.48542 15.8333 9.16732 15.8333C12.8492 15.8333 15.834 12.8485 15.834 9.16658C15.834 5.48469 12.8492 2.49992 9.16732 2.49992Z" fill="#077BF8"/>
    </g>
    <defs>
        <clipPath id="clip0_2994_3626">
            <rect width="20" height="20" fill="white"/>
        </clipPath>
    </defs>
</svg>
