<svg width="10" height="10" viewBox="0 0 10 10" fill="none" xmlns="http://www.w3.org/2000/svg">
<path d="M7.91634 3.75004C7.91634 5.25837 6.77467 6.49587 5.31217 6.65004C5.20801 6.66254 5.10384 6.66671 4.99967 6.66671C4.89551 6.66671 4.79134 6.66254 4.68717 6.65004C3.22467 6.49587 2.08301 5.25837 2.08301 3.75004C2.08301 2.13754 3.38717 0.833374 4.99967 0.833374C6.61217 0.833374 7.91634 2.13754 7.91634 3.75004Z" fill="#D0D5DD"/>
<path d="M6.5625 7.91669C6.5625 8.08752 6.42083 8.22919 6.25 8.22919H5.3125V9.16669C5.3125 9.33752 5.17083 9.47919 5 9.47919C4.82917 9.47919 4.6875 9.33752 4.6875 9.16669V8.22919H3.75C3.57917 8.22919 3.4375 8.08752 3.4375 7.91669C3.4375 7.74586 3.57917 7.60419 3.75 7.60419H4.6875V6.65002C4.79167 6.66252 4.89583 6.66669 5 6.66669C5.10417 6.66669 5.20833 6.66252 5.3125 6.65002V7.60419H6.25C6.42083 7.60419 6.5625 7.74586 6.5625 7.91669Z" fill="#1D2939"/>
</svg>
