<svg width="10" height="10" viewBox="0 0 10 10" fill="none" xmlns="http://www.w3.org/2000/svg">
<path d="M7.50033 5.72917C7.50033 7.5125 6.05449 8.95833 4.27116 8.95833C2.48783 8.95833 1.04199 7.5125 1.04199 5.72917C1.04199 3.94583 2.48783 2.5 4.27116 2.5C5.05033 2.5 5.76283 2.775 6.32116 3.2375H6.32533C6.48783 3.37083 6.63366 3.51667 6.76283 3.67917C7.22533 4.2375 7.50033 4.95 7.50033 5.72917Z" fill="#D0D5DD"/>
<path d="M9.27083 1.04163V3.74996C9.27083 3.92079 9.12917 4.06246 8.95833 4.06246C8.7875 4.06246 8.64583 3.92079 8.64583 3.74996V1.79579L6.7625 3.67913C6.63333 3.51663 6.4875 3.37079 6.325 3.23746L8.20417 1.35413H6.25C6.07917 1.35413 5.9375 1.21246 5.9375 1.04163C5.9375 0.870793 6.07917 0.729126 6.25 0.729126H8.95833C9 0.729126 9.0375 0.737459 9.07917 0.754126C9.15417 0.783293 9.21667 0.845793 9.24583 0.920793C9.2625 0.962459 9.27083 0.999959 9.27083 1.04163Z" fill="#1D2939"/>
</svg>
