<svg width="44" height="44" viewBox="0 0 44 44" fill="none" xmlns="http://www.w3.org/2000/svg">
<rect width="44" height="44" rx="22" fill="#1D9C7D"/>
<path d="M18.3323 17.47L25.0973 15.2125C28.1348 14.2 29.7848 15.8575 28.7798 18.895L26.5223 25.66C25.0073 30.2125 22.5173 30.2125 21.0023 25.66L20.3348 23.65L18.3248 22.9825C13.7798 21.475 13.7798 18.9925 18.3323 17.47Z" fill="#F2F4F7"/>
<path d="M22.0898 21.7225L24.9473 18.8575L22.0898 21.7225Z" fill="#000D1C"/>
<path d="M22.0899 22.285C21.9474 22.285 21.8049 22.2325 21.6924 22.12C21.4749 21.9025 21.4749 21.5425 21.6924 21.325L24.5424 18.46C24.7599 18.2425 25.1199 18.2425 25.3374 18.46C25.5549 18.6775 25.5549 19.0375 25.3374 19.255L22.4874 22.12C22.3749 22.225 22.2324 22.285 22.0899 22.285Z" fill="#000D1C"/>
</svg>
