<svg width="32" height="30" viewBox="0 0 32 30" fill="none" xmlns="http://www.w3.org/2000/svg">
<path fill-rule="evenodd" clip-rule="evenodd" d="M10.9405 6.51535C12.1023 8.4938 12.4272 10.7289 12.0198 12.814L7.94022 7.73542L10.3731 13.7591C8.3443 13.0774 6.54277 11.694 5.38103 9.71387C3.97684 7.3204 3.79837 4.55524 4.652 2.13177C7.20109 2.5968 9.53635 4.12189 10.9405 6.51535Z" fill="#2EC66F"/>
<path fill-rule="evenodd" clip-rule="evenodd" d="M13.9021 17.6026V2.07678C13.9021 0.930053 14.8416 0 16 0C17.1584 0 18.0979 0.930053 18.0979 2.07678V7.68876C17.6736 7.7571 17.2577 7.92044 16.8873 8.19379C16.0875 8.78549 15.7777 9.5822 15.5201 10.6823C15.2962 11.6406 15.4427 11.2756 15.0689 11.769C14.4931 12.529 15.5302 15.3142 16.4731 13.8258C16.6617 13.5291 16.8216 13.0857 16.8671 12.6824C16.894 12.4357 16.8907 12.199 16.8098 11.9773C16.6331 11.484 16.1515 11.634 16.4377 10.2072C16.5287 9.75554 16.692 9.44386 16.9092 9.14051C17.1499 8.80383 17.5793 8.54214 18.0979 8.45714C18.0979 11.5056 18.0979 14.5541 18.0979 17.6043L13.9021 17.6026Z" fill="#EA5353"/>
<path fill-rule="evenodd" clip-rule="evenodd" d="M4.37251 10.7006C5.46185 11.469 6.17237 12.569 6.46027 13.7641L3.08618 12.0523L5.82048 14.6508C4.58634 14.7725 3.30338 14.4675 2.21404 13.6991C0.895717 12.7707 0.134694 11.3556 0 9.87721C1.45638 9.52052 3.05588 9.7722 4.37251 10.7006Z" fill="#2EC66F"/>
<path fill-rule="evenodd" clip-rule="evenodd" d="M27.6275 10.7006C26.5381 11.469 25.8276 12.569 25.5397 13.7641L28.9138 12.0523L26.1795 14.6508C27.4136 14.7708 28.6949 14.4675 29.7859 13.6991C31.1043 12.7707 31.8653 11.3556 32 9.87721C30.5436 9.52052 28.9458 9.7722 27.6275 10.7006Z" fill="#2EC66F"/>
<path fill-rule="evenodd" clip-rule="evenodd" d="M21.0594 6.51535C19.8977 8.4938 19.5728 10.7289 19.9802 12.814L24.0598 7.73542L21.6268 13.7591C23.6557 13.0774 25.4572 11.694 26.6189 9.71387C28.0231 7.3204 28.2016 4.55524 27.348 2.13177C24.8006 2.5968 22.4653 4.12189 21.0594 6.51535Z" fill="#2EC66F"/>
<path fill-rule="evenodd" clip-rule="evenodd" d="M1.94467 15.1925H9.51617C9.79398 16.1576 11.2133 17.501 12.1023 18.0677C13.0149 18.6494 14.0183 18.9977 15.1178 19.1294C15.5421 19.1794 15.367 19.1527 15.404 20.2195L16.5994 20.3261C16.5994 19.9911 16.5489 19.4427 16.6348 19.1544C18.076 19.0861 19.3068 18.4727 20.2244 17.846C20.876 17.3993 22.1825 16.1159 22.4805 15.1925H30.0537C29.9358 20.9195 26.6139 24.873 22.2953 26.8282H22.5041C23.3897 26.8282 24.1052 27.5382 24.1052 28.4149C24.1052 29.2916 23.388 30 22.5041 30H12.4273L19.5728 29.9967C18.9667 28.7149 16.7459 28.4266 16.6045 28.3399L16.5893 27.2282L15.4023 27.0582L15.3956 28.3666C14.6598 28.5399 14.2574 28.5733 13.6294 28.9149C13.1849 29.1583 12.5956 29.5966 12.4289 29.9983H9.49597C8.61036 29.9983 7.89311 29.2883 7.89311 28.4132C7.89311 27.6165 8.48576 26.9582 9.25857 26.8448C5.27499 24.9631 2.23426 21.1412 1.94467 15.1925ZM19.3421 28.1366C18.8774 27.0548 17.2426 26.5931 16.128 26.4198C13.9442 26.0814 13.2169 25.0381 15.1279 24.623L15.1498 24.0013C14.7591 23.9697 13.5132 24.3413 13.4509 25.2231C13.3112 27.1698 17.0995 26.5748 18.9044 27.8165C19.0593 27.9199 19.167 28.0316 19.3421 28.1366ZM15.4006 26.0531L16.6028 26.2731L16.6011 21.7562L15.4006 21.6295V26.0531ZM16.8722 23.7897L16.8536 24.4647C19.8674 24.253 20.2025 21.7762 17.65 20.8695C16.2425 20.3711 14.1598 20.6045 12.828 19.8094C11.9895 19.3111 12.338 18.8927 12.3666 18.526C12.1377 18.3994 11.8161 18.161 11.6107 18.076C11.0551 18.7644 11.2605 19.9228 12.2825 20.5511C14.254 21.7645 16.8738 21.0145 18.2174 22.1012C18.6417 22.4446 18.7276 22.9013 18.2545 23.263C17.7409 23.6546 17.3958 23.5596 16.8722 23.7897Z" fill="#EA5353"/>
</svg>
