<svg width="44" height="44" viewBox="0 0 44 44" fill="none" xmlns="http://www.w3.org/2000/svg">
    <rect width="44" height="44" rx="22" fill="#077BF8" fill-opacity="0.1"/>
    <path d="M22.0001 32C26.7884 32 30.6701 28.1183 30.6701 23.33C30.6701 18.5417 26.7884 14.66 22.0001 14.66C17.2118 14.66 13.3301 18.5417 13.3301 23.33C13.3301 28.1183 17.2118 32 22.0001 32Z" fill="#077BF8"/>
    <path d="M22 23.75C21.59 23.75 21.25 23.41 21.25 23V18C21.25 17.59 21.59 17.25 22 17.25C22.41 17.25 22.75 17.59 22.75 18V23C22.75 23.41 22.41 23.75 22 23.75Z" fill="#000D1C"/>
    <path d="M24.8899 13.45H19.1099C18.7099 13.45 18.3899 13.13 18.3899 12.73C18.3899 12.33 18.7099 12 19.1099 12H24.8899C25.2899 12 25.6099 12.32 25.6099 12.72C25.6099 13.12 25.2899 13.45 24.8899 13.45Z" fill="#000D1C"/>
</svg>
