<svg width="110" height="109" viewBox="0 0 110 109" fill="none" xmlns="http://www.w3.org/2000/svg">
    <path d="M4.96941 1.40491C6.23886 5.34767 7.4672 10.0058 7.9878 13.6536M7.9878 13.6536C8.83017 19.556 7.81951 22.8133 2.13151 16.1145C-0.465059 13.0565 2.41974 11.1309 7.9878 13.6536ZM7.9878 13.6536C11.512 15.2503 16.1111 18.629 21.0757 24.6306M85.7758 88.2536C88.5083 86.9453 94.6562 86.9976 97.3887 97.6733C100.121 108.349 106.269 103.691 109.002 100.028M4.48592 102.425C6.34864 103.16 9.37554 101.691 11.4711 96.5504C12.874 93.1089 14.2652 92.1451 17.7577 92.8796" stroke="white" stroke-width="1.66667" stroke-linecap="round"/>
    <path d="M44.123 103.002C45.4077 103.002 46.4492 104.043 46.4492 105.328C46.4492 106.613 45.4077 107.654 44.123 107.654C42.8384 107.654 41.7969 106.613 41.7969 105.328C41.7969 104.043 42.8384 103.002 44.123 103.002ZM7.12207 69.7762C7.98956 69.7764 8.69238 70.48 8.69238 71.3475C8.69227 72.215 7.9895 72.9177 7.12207 72.9178C6.25453 72.9178 5.55089 72.215 5.55078 71.3475C5.55078 70.4799 6.25447 69.7762 7.12207 69.7762ZM96.9824 66.7557C98.2669 66.756 99.3076 67.7974 99.3076 69.0819C99.3076 70.3664 98.2669 71.4078 96.9824 71.4081C95.6978 71.4081 94.6562 70.3666 94.6562 69.0819C94.6563 67.7973 95.6978 66.7557 96.9824 66.7557ZM5.61133 54.6737C7.31293 54.6737 8.69223 56.0532 8.69238 57.7548C8.69238 59.4565 7.31302 60.8358 5.61133 60.8358C3.90975 60.8357 2.53027 59.4564 2.53027 57.7548C2.53042 56.0533 3.90984 54.6738 5.61133 54.6737ZM91.6963 30.5096C92.5638 30.5097 93.2666 31.2134 93.2666 32.0809C93.2665 32.9484 92.5637 33.6511 91.6963 33.6512C90.8288 33.6512 90.1251 32.9484 90.125 32.0809C90.125 31.2133 90.8287 30.5096 91.6963 30.5096ZM87.9209 18.4276C90.0394 18.4279 91.7568 20.1459 91.7568 22.2645C91.7566 24.3829 90.0393 26.1002 87.9209 26.1005C85.8023 26.1005 84.0842 24.383 84.084 22.2645C84.084 20.1458 85.8022 18.4276 87.9209 18.4276ZM47.1436 9.36609C48.4282 9.36609 49.4697 10.4076 49.4697 11.6923C49.4697 12.9769 48.4282 14.0184 47.1436 14.0184C45.8589 14.0184 44.8174 12.9769 44.8174 11.6923C44.8174 10.4076 45.8589 9.3661 47.1436 9.36609ZM54.6953 6.34558C55.1457 6.34583 55.5107 6.71158 55.5107 7.16199C55.5105 7.61217 55.1455 7.97717 54.6953 7.97742C54.2449 7.97742 53.8792 7.61232 53.8789 7.16199C53.8789 6.71143 54.2448 6.34558 54.6953 6.34558Z" fill="white" stroke="white" stroke-width="1.38889"/>
    <path d="M85.2402 50.5692C87.629 53.5056 87.629 57.7158 85.2402 60.6522C83.554 62.7251 82.832 65.4192 83.2559 68.0575C83.8563 71.7949 81.7517 75.4413 78.2148 76.7899C75.7181 77.7421 73.746 79.714 72.7939 82.2108C71.4453 85.7475 67.7997 87.8521 64.0625 87.2518C61.4242 86.8279 58.7302 87.55 56.6572 89.2362C53.7208 91.6249 49.5106 91.6249 46.5742 89.2362C44.5013 87.5499 41.8073 86.828 39.1689 87.2518C35.4316 87.8523 31.7852 85.7477 30.4365 82.2108C29.4844 79.7139 27.5125 77.742 25.0156 76.7899C21.4788 75.4412 19.3741 71.7948 19.9746 68.0575C20.3985 65.4191 19.6765 62.7252 17.9902 60.6522C15.6016 57.7158 15.6015 53.5056 17.9902 50.5692C19.6764 48.4963 20.3985 45.8023 19.9746 43.1639C19.3743 39.4268 21.479 35.7812 25.0156 34.4325C27.5124 33.4804 29.4844 31.5084 30.4365 29.0116C31.7852 25.4747 35.4316 23.3701 39.1689 23.9706C41.8072 24.3944 44.5013 23.6724 46.5742 21.9862C49.5106 19.5975 53.7208 19.5975 56.6572 21.9862C58.7302 23.6723 61.4243 24.3945 64.0625 23.9706C67.7998 23.3703 71.4453 25.4748 72.7939 29.0116C73.746 31.5084 75.7181 33.4804 78.2148 34.4325C81.7517 35.7811 83.8562 39.4267 83.2559 43.1639C82.832 45.8022 83.5542 48.4963 85.2402 50.5692Z" fill="white" stroke="white" stroke-width="1.38889"/>
    <path d="M48.1564 68.8054C47.4739 68.8054 46.8256 68.5419 46.3479 68.0807L36.6914 58.7582C35.7018 57.8028 35.7018 56.2216 36.6914 55.2663C37.6809 54.311 39.3188 54.311 40.3083 55.2663L48.1564 62.843L65.6951 45.9108C66.6846 44.9555 68.3225 44.9555 69.312 45.9108C70.3015 46.8661 70.3015 48.4473 69.312 49.4027L49.9648 68.0807C49.4871 68.5419 48.8388 68.8054 48.1564 68.8054Z" fill="#077BF8"/>
</svg>
