<svg width="110" height="109" viewBox="0 0 110 109" fill="none" xmlns="http://www.w3.org/2000/svg">
<path d="M4.96746 1.40491C6.2369 5.34767 7.46525 10.0058 7.98585 13.6536M7.98585 13.6536C8.82822 19.556 7.81755 22.8133 2.12955 16.1145C-0.467013 13.0565 2.41779 11.1309 7.98585 13.6536ZM7.98585 13.6536C11.51 15.2503 16.1092 18.629 21.0737 24.6306M85.7739 88.2536C88.5063 86.9453 94.6543 86.9976 97.3867 97.6733C100.119 108.349 106.267 103.691 109 100.028M4.48397 102.425C6.34668 103.16 9.37359 101.691 11.4691 96.5504C12.872 93.1089 14.2632 92.1451 17.7558 92.8796" stroke="white" stroke-width="1.66667" stroke-linecap="round"/>
<path d="M44.1201 103.002C45.4048 103.002 46.4463 104.043 46.4463 105.328C46.4463 106.613 45.4048 107.654 44.1201 107.654C42.8355 107.654 41.7939 106.613 41.7939 105.328C41.794 104.043 42.8355 103.002 44.1201 103.002ZM7.11914 69.7762C7.98663 69.7764 8.68945 70.48 8.68945 71.3475C8.68934 72.215 7.98657 72.9177 7.11914 72.9178C6.2516 72.9178 5.54796 72.215 5.54785 71.3475C5.54785 70.4799 6.25154 69.7762 7.11914 69.7762ZM96.9795 66.7557C98.2639 66.756 99.3047 67.7974 99.3047 69.0819C99.3047 70.3664 98.2639 71.4078 96.9795 71.4081C95.6948 71.4081 94.6533 70.3666 94.6533 69.0819C94.6533 67.7973 95.6949 66.7557 96.9795 66.7557ZM5.6084 54.6737C7.31 54.6737 8.6893 56.0532 8.68945 57.7548C8.68945 59.4565 7.31009 60.8358 5.6084 60.8358C3.90682 60.8357 2.52734 59.4564 2.52734 57.7548C2.52749 56.0533 3.90691 54.6738 5.6084 54.6737ZM91.6934 30.5096C92.5609 30.5097 93.2637 31.2134 93.2637 32.0809C93.2635 32.9484 92.5608 33.6511 91.6934 33.6512C90.8258 33.6512 90.1222 32.9484 90.1221 32.0809C90.1221 31.2133 90.8258 30.5096 91.6934 30.5096ZM87.918 18.4276C90.0365 18.4279 91.7539 20.1459 91.7539 22.2645C91.7536 24.3829 90.0363 26.1002 87.918 26.1005C85.7994 26.1005 84.0813 24.383 84.0811 22.2645C84.0811 20.1458 85.7992 18.4276 87.918 18.4276ZM47.1406 9.36609C48.4253 9.36609 49.4668 10.4076 49.4668 11.6923C49.4668 12.9769 48.4253 14.0184 47.1406 14.0184C45.856 14.0184 44.8145 12.9769 44.8145 11.6923C44.8145 10.4076 45.856 9.3661 47.1406 9.36609ZM54.6924 6.34558C55.1427 6.34583 55.5078 6.71158 55.5078 7.16199C55.5075 7.61217 55.1426 7.97717 54.6924 7.97742C54.242 7.97742 53.8762 7.61232 53.876 7.16199C53.876 6.71143 54.2418 6.34558 54.6924 6.34558Z" fill="white" stroke="white" stroke-width="1.38889"/>
<path d="M85.2358 50.5692C87.6246 53.5056 87.6246 57.7158 85.2358 60.6522C83.5496 62.7251 82.8276 65.4192 83.2515 68.0575C83.852 71.7949 81.7474 75.4413 78.2104 76.7899C75.7137 77.7421 73.7416 79.714 72.7896 82.2108C71.4409 85.7475 67.7953 87.8521 64.0581 87.2518C61.4198 86.8279 58.7258 87.55 56.6528 89.2362C53.7164 91.6249 49.5062 91.6249 46.5698 89.2362C44.4969 87.5499 41.8029 86.828 39.1646 87.2518C35.4272 87.8523 31.7808 85.7477 30.4321 82.2108C29.48 79.7139 27.5081 77.742 25.0112 76.7899C21.4744 75.4412 19.3697 71.7948 19.9702 68.0575C20.3941 65.4191 19.6721 62.7252 17.9858 60.6522C15.5972 57.7158 15.5971 53.5056 17.9858 50.5692C19.672 48.4963 20.3941 45.8023 19.9702 43.1639C19.3699 39.4268 21.4746 35.7812 25.0112 34.4325C27.508 33.4804 29.48 31.5084 30.4321 29.0116C31.7808 25.4747 35.4272 23.3701 39.1646 23.9706C41.8028 24.3944 44.4969 23.6724 46.5698 21.9862C49.5062 19.5975 53.7164 19.5975 56.6528 21.9862C58.7258 23.6723 61.4199 24.3945 64.0581 23.9706C67.7954 23.3703 71.4409 25.4748 72.7896 29.0116C73.7416 31.5084 75.7137 33.4804 78.2104 34.4325C81.7473 35.7811 83.8518 39.4267 83.2515 43.1639C82.8276 45.8022 83.5498 48.4963 85.2358 50.5692Z" fill="white" stroke="white" stroke-width="1.38889"/>
<path d="M48.1544 68.8054C47.472 68.8054 46.8237 68.5419 46.3459 68.0807L36.6894 58.7582C35.6999 57.8028 35.6999 56.2216 36.6894 55.2663C37.679 54.311 39.3168 54.311 40.3064 55.2663L48.1544 62.843L65.6931 45.9108C66.6827 44.9555 68.3205 44.9555 69.3101 45.9108C70.2996 46.8661 70.2996 48.4473 69.3101 49.4027L49.9629 68.0807C49.4852 68.5419 48.8369 68.8054 48.1544 68.8054Z" fill="#077BF8"/>
</svg>
