<svg width="24" height="24" viewBox="0 0 24 24" fill="none" xmlns="http://www.w3.org/2000/svg">
    <circle cx="12" cy="12" r="12" fill="#EBF4FE"/>
    <path d="M4.89844 7.87427C4.89874 7.08519 5.21242 6.32852 5.77049 5.77066C6.32857 5.2128 7.08535 4.89941 7.87444 4.89941H15.8104C16.5993 4.89972 17.3558 5.21324 17.9136 5.77106C18.4715 6.32889 18.785 7.08538 18.7853 7.87427V15.8103C18.7853 16.5994 18.4719 17.3561 17.914 17.9142C17.3562 18.4723 16.5995 18.786 15.8104 18.7863H7.87444C7.08515 18.7863 6.3282 18.4727 5.77009 17.9146C5.21198 17.3565 4.89844 16.5996 4.89844 15.8103V7.87427Z" fill="#BABDCB"/>
    <path d="M16.5356 7.83199C16.5356 8.0237 16.4594 8.20756 16.3238 8.34313C16.1883 8.47869 16.0044 8.55485 15.8127 8.55485C15.621 8.55485 15.4371 8.47869 15.3016 8.34313C15.166 8.20756 15.0898 8.0237 15.0898 7.83199C15.0898 7.64027 15.166 7.45641 15.3016 7.32085C15.4371 7.18529 15.621 7.10913 15.8127 7.10913C16.0044 7.10913 16.1883 7.18529 16.3238 7.32085C16.4594 7.45641 16.5356 7.64027 16.5356 7.83199Z" fill="#4A4E5B"/>
    <path fill-rule="evenodd" clip-rule="evenodd" d="M15.8111 8.73601C16.0384 8.73601 16.2564 8.64571 16.4172 8.48496C16.5779 8.32422 16.6682 8.1062 16.6682 7.87887C16.6682 7.65154 16.5779 7.43353 16.4172 7.27278C16.2564 7.11203 16.0384 7.02173 15.8111 7.02173C15.5837 7.02173 15.3657 7.11203 15.205 7.27278C15.0442 7.43353 14.9539 7.65154 14.9539 7.87887C14.9539 8.1062 15.0442 8.32422 15.205 8.48496C15.3657 8.64571 15.5837 8.73601 15.8111 8.73601ZM8.32422 11.8423C8.32422 10.9087 8.69507 10.0134 9.3552 9.35328C10.0153 8.69316 10.9107 8.3223 11.8442 8.3223C12.7778 8.3223 13.6731 8.69316 14.3332 9.35328C14.9934 10.0134 15.3642 10.9087 15.3642 11.8423C15.3642 12.7759 14.9934 13.6712 14.3332 14.3313C13.6731 14.9914 12.7778 15.3623 11.8442 15.3623C10.9107 15.3623 10.0153 14.9914 9.3552 14.3313C8.69507 13.6712 8.32422 12.7759 8.32422 11.8423Z" fill="#4A4E5B"/>
</svg>
