<svg width="24" height="24" viewBox="0 0 24 24" fill="none" xmlns="http://www.w3.org/2000/svg">
    <circle cx="12" cy="12" r="12" fill="#EBF4FE"/>
    <g clip-path="url(#clip0_2861_22932)">
        <path d="M5 6.077V17.923C5 18.2086 5.11347 18.4826 5.31545 18.6846C5.51742 18.8865 5.79136 19 6.077 19H17.923C18.2086 19 18.4826 18.8865 18.6846 18.6846C18.8865 18.4826 19 18.2086 19 17.923V6.077C19 5.79136 18.8865 5.51742 18.6846 5.31545C18.4826 5.11347 18.2086 5 17.923 5H6.077C5.79136 5 5.51742 5.11347 5.31545 5.31545C5.11347 5.51742 5 5.79136 5 6.077Z" fill="#BABDCB"/>
        <path d="M12.769 13.895V19H10.357V13.895H9.667C9.57988 13.8963 9.49337 13.8803 9.41251 13.8478C9.33164 13.8154 9.25802 13.7672 9.19595 13.7061C9.13388 13.645 9.08459 13.5721 9.05095 13.4917C9.01731 13.4113 8.99999 13.3251 9 13.238V12.41C8.99999 12.3227 9.01734 12.2364 9.05104 12.156C9.08475 12.0755 9.13413 12.0026 9.1963 11.9415C9.25848 11.8803 9.33221 11.8321 9.4132 11.7998C9.49418 11.7674 9.5808 11.7515 9.668 11.753H10.357V10.493C10.313 10.134 10.3475 9.76974 10.4581 9.4254C10.5687 9.08106 10.7527 8.76484 10.9974 8.49859C11.2422 8.23234 11.5419 8.02241 11.8757 7.88331C12.2095 7.74421 12.5696 7.67926 12.931 7.69295H14.169C14.2567 7.69579 14.3431 7.7159 14.423 7.75212C14.503 7.78835 14.575 7.83998 14.635 7.90406C14.695 7.96814 14.7418 8.04342 14.7727 8.12559C14.8036 8.20776 14.8179 8.29522 14.815 8.38295V9.17895C14.8168 9.26545 14.8005 9.35136 14.7673 9.43124C14.7341 9.51112 14.6846 9.58321 14.622 9.64295C14.5637 9.70716 14.4921 9.75775 14.412 9.79111C14.332 9.82446 14.2456 9.83978 14.159 9.83595H13.631C13.221 9.83595 12.812 9.83595 12.812 10.741V11.753H13.534C13.7082 11.753 13.8754 11.8222 13.9986 11.9454C14.1218 12.0686 14.191 12.2357 14.191 12.41V13.24C14.1907 13.414 14.1214 13.5809 13.9982 13.7039C13.875 13.8269 13.7081 13.896 13.534 13.896L12.769 13.895Z" fill="#4A4E5B"/>
    </g>
    <defs>
        <clipPath id="clip0_2861_22932">
            <rect x="5" y="5" width="14" height="14" rx="3" fill="white"/>
        </clipPath>
    </defs>
</svg>
