<svg width="24" height="24" viewBox="0 0 24 24" fill="none" xmlns="http://www.w3.org/2000/svg">
    <g clip-path="url(#clip0_2274_17472)">
        <path d="M11.9992 23.9906C18.6241 23.9906 23.9945 18.6201 23.9945 11.9953C23.9945 5.37048 18.6241 0 11.9992 0C5.37439 0 0.00390625 5.37048 0.00390625 11.9953C0.00390625 18.6201 5.37439 23.9906 11.9992 23.9906Z" fill="#68BDA8"/>
        <path d="M7.64062 14.2633C8.28725 13.1106 9.31809 11.7705 8.27788 9.7369C6.20681 2.29605 13.807 1.24646 14.8753 4.16095C16.609 4.85443 16.5715 8.64982 15.6719 10.6459C15.6344 11.4612 14.9878 12.1453 16.4497 14.2539C12.5793 14.9005 10.3302 14.685 7.64062 14.2633Z" fill="#4A4E5B"/>
        <path d="M10.8296 12.1266C10.764 13.3917 10.3142 13.7853 9.68633 14.1133C9.3677 14.3944 7.11858 14.5631 6.29391 15.594C5.58168 16.4842 5.01003 19.4737 4.69141 21.5166C5.35677 22.0227 6.06899 22.4631 6.82807 22.8286L7.17481 19.0988C7.17481 19.0988 7.42784 20.945 7.66212 21.198C7.79332 21.348 7.83081 22.182 7.84018 22.9973L8.83354 23.569C9.84564 23.8501 10.9046 23.9907 12.0104 23.9907C13.0506 23.9907 14.0534 23.8595 15.0092 23.6158L16.0776 22.9973C16.087 22.1914 16.0682 21.4042 16.2556 21.198C16.4431 20.9918 16.7429 19.0988 16.7429 19.0988L17.0335 22.8942C17.8113 22.5381 18.5422 22.0977 19.217 21.5916C18.9827 19.6236 18.5704 16.6904 17.9893 15.7064C17.2771 14.5069 14.9343 14.3851 14.6438 14.1414C14.0346 13.804 13.5942 13.3823 13.5286 12.1172C13.5286 12.1172 12.6196 12.82 12.0573 12.717C11.495 12.6045 10.8484 12.1172 10.8484 12.1172L10.8296 12.1266Z" fill="#D8AB99"/>
        <path d="M10.4462 13.5137C10.2494 13.7854 9.99637 13.9635 9.69649 14.1134C9.37786 14.3946 7.12874 14.5633 6.30407 15.5941C5.59184 16.4844 5.02956 19.4832 4.71094 21.5262C5.40442 22.0603 6.1635 22.5195 6.96006 22.8944L7.1756 19.1084C7.1756 19.1084 7.48485 21.0201 7.66291 21.2075C7.79411 21.3481 7.81285 22.3696 7.82222 23.2505C9.12484 23.7378 10.5305 24.0002 12.0018 24.0002C13.4357 24.0002 14.8132 23.7472 16.0877 23.288C16.0971 22.4071 16.1159 21.3481 16.2471 21.2075C16.4251 21.0201 16.7344 19.1084 16.7344 19.1084L16.9874 22.9225C17.8214 22.5383 18.5993 22.0697 19.3209 21.5168C19.0491 19.5676 18.5524 16.6999 17.9808 15.7253C17.2685 14.5258 14.9257 14.404 14.6352 14.1603C14.3728 14.0104 14.1479 13.851 13.9604 13.6168L12.2736 16.8405L10.4368 13.5137H10.4462Z" fill="#D0D4E2"/>
        <path d="M10.8008 12.5202C11.1288 12.717 11.6817 13.3355 12.2065 13.3449C12.7219 13.3543 13.4529 12.5858 13.556 12.5296C13.5466 12.4546 13.5372 12.3797 13.5372 12.3047L13.5278 12.3141C13.4997 12.3328 12.6094 13.0357 12.0565 12.9232C11.5036 12.8201 10.8851 12.3422 10.8476 12.3141L10.8383 12.3047C10.8289 12.3797 10.8289 12.4546 10.8195 12.5202H10.8008Z" fill="#D19982"/>
        <path d="M9.36831 10.1021C9.93059 11.3016 10.1368 11.7702 10.8302 12.3137C10.8302 12.3137 11.4769 12.8104 12.0391 12.9228C12.6014 13.0353 13.5104 12.3137 13.5104 12.3137C14.2039 11.7702 14.4195 11.3016 14.9724 10.1021C15.1129 10.177 15.2535 10.2708 15.366 10.1489C15.4784 10.0177 16.0126 8.35901 15.9095 8.1341C15.8158 7.90918 15.619 8.0685 15.5815 8.15284C15.5534 8.19032 15.5253 8.35901 15.4878 8.35901C15.4503 8.35901 15.4409 8.28404 15.3847 8.12472C15.2254 7.66553 14.888 7.19696 14.7662 5.66943C12.2266 8.19032 9.84625 7.03765 9.02157 7.20633C8.80603 7.25319 8.78729 7.77799 8.80603 8.08724C8.80603 8.12472 8.86226 8.2653 8.84352 8.27467C8.8154 8.27467 8.73106 8.1341 8.71232 8.12472C7.88764 7.59056 8.9466 10.1208 8.96535 10.1489C9.0778 10.2801 9.21837 10.177 9.35894 10.1021H9.36831Z" fill="#E0AB95"/>
        <path d="M7.76382 23.2221C7.75445 22.3693 7.7357 21.3854 7.72633 21.301C7.10782 20.6263 7.1172 19.0988 7.1172 19.0988C7.1172 19.0988 7.82942 18.2741 8.38233 17.2339C9.26323 17.1308 11.9715 17.2151 11.9715 17.2151C11.9715 17.2151 14.6705 17.1308 15.5608 17.2339C15.7669 17.9273 16.8259 19.0988 16.8259 19.0988C16.854 19.3237 16.6385 21.0292 16.2449 21.2354C16.2261 21.301 16.2074 22.36 16.1887 23.2503C14.8954 23.7282 13.4897 23.9906 12.0278 23.9906C10.5377 23.9906 9.10392 23.7188 7.78256 23.2221H7.76382Z" fill="#077BF8"/>
        <path d="M9.49735 14.188L9.16935 18.6394C9.15998 18.7799 8.98193 18.958 8.5321 18.9486C8.08228 18.9299 8.14788 18.555 8.14788 18.555L8.57896 14.4691L9.50672 14.1974L9.49735 14.188Z" fill="#82BCFB"/>
        <path d="M14.9797 14.2535L14.9609 18.5831C14.9609 18.7236 15.1484 18.9486 15.6076 18.9298C16.0574 18.9111 16.0761 18.5081 16.0761 18.5081L15.9262 14.4972L14.9797 14.2441V14.2535Z" fill="#82BCFB"/>
        <path d="M8.63426 18.1147C8.79357 18.1147 8.92477 18.2459 8.92477 18.4053C8.92477 18.5646 8.79357 18.6958 8.63426 18.6958C8.47495 18.6958 8.34375 18.5646 8.34375 18.4053C8.34375 18.2459 8.47495 18.1147 8.63426 18.1147Z" fill="#6E95F7"/>
        <path d="M15.5054 18.1147C15.6647 18.1147 15.7959 18.2459 15.7959 18.4053C15.7959 18.5646 15.6647 18.6958 15.5054 18.6958C15.346 18.6958 15.2148 18.5646 15.2148 18.4053C15.2148 18.2459 15.346 18.1147 15.5054 18.1147Z" fill="#6E95F7"/>
        <path d="M10.4247 13.4854L11.493 15.4252C11.493 15.4252 10.4434 15.3221 10.2372 15.6876C10.0311 16.0531 9.5625 16.4936 9.5625 16.4936L10.1716 13.7946L10.4247 13.4854Z" fill="#F8F9FA"/>
        <path d="M13.984 13.5322L13 15.4346C13 15.4346 14.0121 15.3128 14.2183 15.6783C14.4244 16.0437 14.8649 16.3624 14.8649 16.3624L14.2932 13.7946L13.984 13.5322Z" fill="#F8F9FA"/>
        <path d="M16.2163 5.50118V8.49064H15.6634V5.50118C15.6634 4.19856 14.7356 3.36451 13.5548 2.99903C13.0863 2.84909 12.5708 2.78349 12.0554 2.78349C11.54 2.78349 11.0246 2.85846 10.556 2.99903C9.3752 3.36451 8.44744 4.19856 8.44744 5.50118V8.49064H7.89453V5.50118C7.89453 3.94554 8.98161 2.95217 10.3779 2.51172C10.9121 2.34304 11.4838 2.26807 12.0554 2.26807C12.6271 2.26807 13.1987 2.35241 13.7329 2.51172C15.1292 2.9428 16.2163 3.93616 16.2163 5.50118Z" fill="#F8F9FA"/>
        <path d="M8.55207 7.84375H8.28967C8.04601 7.84375 7.83984 8.04992 7.83984 8.29357V10.046C7.83984 10.2897 8.04601 10.4958 8.28967 10.4958H8.55207C8.79572 10.4958 9.00189 10.2897 9.00189 10.046V8.29357C9.00189 8.04992 8.79572 7.84375 8.55207 7.84375Z" fill="#82BCFB"/>
        <path d="M8.34661 7.69385H7.80307C7.7281 7.69385 7.67188 7.75945 7.67188 7.82505V10.5052C7.67188 10.5802 7.73747 10.6364 7.80307 10.6364H8.34661C8.42158 10.6364 8.47781 10.5708 8.47781 10.5052V7.82505C8.47781 7.75008 8.41221 7.69385 8.34661 7.69385Z" fill="#6E95F7"/>
        <path d="M15.5904 7.84375H15.8528C16.0965 7.84375 16.3027 8.04992 16.3027 8.29357V10.046C16.3027 10.2897 16.0965 10.4958 15.8528 10.4958H15.5904C15.3468 10.4958 15.1406 10.2897 15.1406 10.046V8.29357C15.1406 8.04992 15.3468 7.84375 15.5904 7.84375Z" fill="#82BCFB"/>
        <path d="M15.7953 7.69385H16.3388C16.4138 7.69385 16.47 7.75945 16.47 7.82505V10.5052C16.47 10.5802 16.4044 10.6364 16.3388 10.6364H15.7953C15.7203 10.6364 15.6641 10.5708 15.6641 10.5052V7.82505C15.6641 7.75008 15.7297 7.69385 15.7953 7.69385Z" fill="#6E95F7"/>
        <path d="M11.3268 12.8761C10.9238 12.8668 10.5302 12.8105 10.1648 12.6981C9.18077 12.3888 8.41232 11.6954 8.41232 10.6177V10.1397C8.42169 9.96166 8.01872 9.86795 7.95312 10.1397V10.6177C7.95312 11.9109 8.86214 12.7449 10.0242 13.1011C10.4365 13.2323 10.8864 13.2979 11.3362 13.3072V12.8855L11.3268 12.8761Z" fill="#F8F9FA"/>
        <path d="M11.3452 12.4077H12.4698C12.601 12.4077 12.7134 12.5202 12.7134 12.6514V13.4104C12.7134 13.5416 12.601 13.6541 12.4698 13.6541H11.3452C11.214 13.6541 11.1016 13.5416 11.1016 13.4104V12.6514C11.1016 12.5202 11.214 12.4077 11.3452 12.4077Z" fill="#4A4E5B"/>
        <path d="M11.1578 12.5952H12.6572C12.6853 12.5952 12.7134 12.6233 12.7134 12.6514V13.4012C12.7134 13.4293 12.6853 13.4574 12.6572 13.4574H11.1578C11.1297 13.4574 11.1016 13.4293 11.1016 13.4012V12.6514C11.1016 12.6233 11.1297 12.5952 11.1578 12.5952Z" fill="#777A88"/>
    </g>
    <defs>
        <clipPath id="clip0_2274_17472">
            <rect width="24" height="24" fill="white"/>
        </clipPath>
    </defs>
</svg>
