<svg width="24" height="24" viewBox="0 0 24 24" fill="none" xmlns="http://www.w3.org/2000/svg">
    <circle cx="12" cy="12" r="12" fill="#EBF4FE"/>
    <path d="M14.4227 6.13989C14.4227 5.87468 14.3174 5.62032 14.1298 5.43279C13.9423 5.24525 13.6879 5.13989 13.4227 5.13989C13.1575 5.13989 12.9032 5.24525 12.7156 5.43279C12.5281 5.62032 12.4227 5.87468 12.4227 6.13989V14.7199C12.4229 15.0943 12.3121 15.4604 12.1042 15.7719C11.8963 16.0833 11.6007 16.3261 11.2548 16.4695C10.909 16.6129 10.5283 16.6506 10.161 16.5776C9.79376 16.5047 9.45636 16.3245 9.19152 16.0598C8.92668 15.7951 8.74629 15.4578 8.67317 15.0906C8.60004 14.7233 8.63747 14.3427 8.78072 13.9967C8.92397 13.6507 9.1666 13.355 9.47792 13.147C9.78925 12.9389 10.1553 12.8279 10.5297 12.8279C10.7949 12.8279 11.0493 12.7225 11.2368 12.535C11.4244 12.3475 11.5297 12.0931 11.5297 11.8279C11.5297 11.5627 11.4244 11.3083 11.2368 11.1208C11.0493 10.9332 10.7949 10.8279 10.5297 10.8279C9.75976 10.8279 9.00709 11.0562 8.36689 11.484C7.72669 11.9117 7.22771 12.5198 6.93306 13.2311C6.63841 13.9425 6.56131 14.7252 6.71152 15.4804C6.86174 16.2355 7.23251 16.9292 7.77695 17.4737C8.3214 18.0181 9.01507 18.3889 9.77023 18.5391C10.5254 18.6893 11.3082 18.6122 12.0195 18.3176C12.7309 18.0229 13.3389 17.5239 13.7666 16.8837C14.1944 16.2435 14.4227 15.4909 14.4227 14.7209V10.2829C15.3571 11.0267 16.5165 11.4308 17.7107 11.4289C17.9759 11.4289 18.2303 11.3235 18.4178 11.136C18.6054 10.9485 18.7107 10.6941 18.7107 10.4289C18.7107 10.1637 18.6054 9.90932 18.4178 9.72179C18.2303 9.53425 17.9759 9.42889 17.7107 9.42889C16.8387 9.42889 16.0024 9.08248 15.3858 8.46586C14.7691 7.84924 14.4227 7.01292 14.4227 6.14089V6.13989Z" fill="#4A4E5B"/>
</svg>
