<svg width="24" height="24" viewBox="0 0 24 24" fill="none" xmlns="http://www.w3.org/2000/svg">
    <circle cx="12" cy="12" r="12" fill="#EBF4FE"/>
    <path d="M15.332 17.6666H8.66536C6.66536 17.6666 5.33203 16.6666 5.33203 14.3333V9.66659C5.33203 7.33325 6.66536 6.33325 8.66536 6.33325H15.332C17.332 6.33325 18.6654 7.33325 18.6654 9.66659V14.3333C18.6654 16.6666 17.332 17.6666 15.332 17.6666Z" fill="#BABDCB"/>
    <path d="M11.9992 12.58C11.4392 12.58 10.8725 12.4066 10.4392 12.0533L8.35253 10.3866C8.1392 10.2133 8.0992 9.89998 8.27254 9.68665C8.44587 9.47331 8.75921 9.43332 8.97254 9.60665L11.0592 11.2733C11.5659 11.68 12.4259 11.68 12.9325 11.2733L15.0192 9.60665C15.2325 9.43332 15.5525 9.46665 15.7192 9.68665C15.8925 9.89998 15.8592 10.22 15.6392 10.3866L13.5525 12.0533C13.1259 12.4066 12.5592 12.58 11.9992 12.58Z" fill="#4A4E5B"/>
</svg>
