<svg width="24" height="24" viewBox="0 0 24 24" fill="none" xmlns="http://www.w3.org/2000/svg">
<circle cx="12" cy="12" r="12" fill="#077BF8" fill-opacity="0.1"/>
<path d="M6.9116 7.5027L17.0858 7.5027C17.2144 7.50262 17.3283 7.50255 17.4394 7.51938C17.9495 7.59662 18.3723 7.92783 18.6485 8.37187C18.709 8.46911 18.7981 8.65003 18.8737 8.80337C18.982 9.02281 19.0698 9.20067 19.1102 9.35375C19.2032 9.70579 19.1751 10.0735 19.0523 10.3838C18.9317 10.6887 18.6948 10.9924 18.3275 11.1165C18.2204 11.1527 18.1143 11.1616 18.0326 11.1655C17.9509 11.1694 17.8509 11.1694 17.7404 11.1694H17.7404L6.25701 11.1694H6.257C6.14651 11.1694 6.04649 11.1694 5.96477 11.1655C5.88315 11.1616 5.77698 11.1527 5.66993 11.1165C5.3026 10.9924 5.06568 10.6887 4.94509 10.3838C4.82231 10.0735 4.7942 9.70579 4.88717 9.35375C4.9276 9.20066 5.01539 9.02282 5.12374 8.80335C5.19924 8.65008 5.28844 8.46909 5.3489 8.37187C5.62506 7.92783 6.04788 7.59662 6.55795 7.51938C6.6691 7.50255 6.78298 7.50262 6.9116 7.5027Z" fill="#077BF8"/>
<path fill-rule="evenodd" clip-rule="evenodd" d="M7.33203 13.3359C7.33203 12.9677 7.63051 12.6692 7.9987 12.6692L15.9987 12.6692C16.3669 12.6692 16.6654 12.9677 16.6654 13.3359C16.6654 13.704 16.3669 14.0025 15.9987 14.0025L7.9987 14.0025C7.63051 14.0025 7.33203 13.704 7.33203 13.3359Z" fill="#000D1C"/>
<path d="M8.66536 6.73867C8.66536 6.70808 8.67329 6.68805 8.68042 6.67637L9.97574 7.03357C9.97683 7.03476 9.97828 7.0365 9.98002 7.03896C9.9887 7.05123 9.9987 7.0743 9.9987 7.10636V7.50286L11.332 7.50286V7.10636C11.332 6.50886 10.9603 5.92197 10.3376 5.75026L9.00428 5.38258C8.07596 5.12658 7.33203 5.91007 7.33203 6.73867L7.33203 7.50286H8.66536V6.73867Z" fill="#000D1C"/>
<path fill-rule="evenodd" clip-rule="evenodd" d="M7.33203 16.0025C6.96384 16.0025 6.66536 16.301 6.66536 16.6692C6.66536 17.0374 6.96384 17.3359 7.33203 17.3359C7.70022 17.3359 7.9987 17.0374 7.9987 16.6692C7.9987 16.301 7.70022 16.0025 7.33203 16.0025ZM5.33203 16.6692C5.33203 15.5646 6.22746 14.6692 7.33203 14.6692C8.4366 14.6692 9.33203 15.5646 9.33203 16.6692C9.33203 17.7738 8.4366 18.6692 7.33203 18.6692C6.22746 18.6692 5.33203 17.7738 5.33203 16.6692Z" fill="#077BF8"/>
<path fill-rule="evenodd" clip-rule="evenodd" d="M16.6641 16.0025C16.2959 16.0025 15.9974 16.301 15.9974 16.6692C15.9974 17.0374 16.2959 17.3359 16.6641 17.3359C17.0323 17.3359 17.3307 17.0374 17.3307 16.6692C17.3307 16.301 17.0323 16.0025 16.6641 16.0025ZM14.6641 16.6692C14.6641 15.5646 15.5595 14.6692 16.6641 14.6692C17.7686 14.6692 18.6641 15.5646 18.6641 16.6692C18.6641 17.7738 17.7686 18.6692 16.6641 18.6692C15.5595 18.6692 14.6641 17.7738 14.6641 16.6692Z" fill="#077BF8"/>
<path d="M17.0209 12.1408L17.7871 11.1692L16.089 11.1692L15.9739 11.3152C15.3744 12.0754 15.1801 13.0755 15.4544 14.0029L15.7213 14.9057C16.0025 14.7549 16.324 14.6694 16.6654 14.6694C16.798 14.6694 16.9276 14.6823 17.0529 14.7069L16.733 13.6248C16.582 13.1145 16.6881 12.5628 17.0209 12.1408Z" fill="#000D1C"/>
<path d="M8.02412 11.3152L7.90898 11.1692L6.21094 11.1692L6.97716 12.1408C7.30996 12.5628 7.41597 13.1145 7.26505 13.6248L6.9451 14.7068C7.07029 14.6822 7.19966 14.6694 7.33203 14.6694C7.67366 14.6694 7.99528 14.755 8.27659 14.906L8.54365 14.0029C8.81792 13.0755 8.6236 12.0754 8.02412 11.3152Z" fill="#000D1C"/>
</svg>
