<svg width="24" height="24" viewBox="0 0 24 24" fill="none" xmlns="http://www.w3.org/2000/svg">
    <circle cx="12" cy="7" r="4" fill="#000D1C"/>
    <path d="M11.9293 14.0093L10.2427 12.3227C10.0854 12.1654 9.8819 12.0649 9.66024 12.0467C8.6728 11.9656 5.82163 11.8469 4.99964 13.0803C4 14.5802 4 18.08 4 18.08V19.08C4 20.1846 4.89543 21.08 6 21.08L18 21.08C19.1046 21.08 20 20.1846 20 19.08V18.08C20 18.08 20 14.5801 19 13.08C18.1777 11.8465 15.327 11.9655 14.3397 12.0467C14.1181 12.0649 13.9146 12.1654 13.7574 12.3226L12.0707 14.0093C12.0317 14.0484 11.9683 14.0484 11.9293 14.0093Z" fill="#077BF8"/>
    <path d="M8 12.5V15.9286M8 15.9286C9.10457 15.9286 10 16.6961 10 17.6429L10 18.5M8 15.9286C6.89543 15.9286 6 16.6961 6 17.6429L6 18.5" stroke="#000D1C" stroke-linecap="round" stroke-linejoin="round"/>
    <path d="M15.9951 12.5015L15.9951 17" stroke="#000D1C" stroke-linecap="round" stroke-linejoin="round"/>
    <path d="M17.2578 17.7271C17.2578 18.4287 16.689 18.9976 15.9873 18.9976C15.2856 18.9976 14.7168 18.4287 14.7168 17.7271C14.7168 17.0254 15.2856 16.4565 15.9873 16.4565C16.689 16.4565 17.2578 17.0254 17.2578 17.7271Z" fill="#000D1C"/>
</svg>
