<svg width="13" height="12" viewBox="0 0 13 12" fill="none" xmlns="http://www.w3.org/2000/svg">
<path d="M6.89949 1.59248C7.26492 1.27447 7.82626 1.30855 8.14821 1.67282C8.20484 1.74374 8.33518 1.91639 8.40352 2.03964C8.71837 2.55983 8.81431 3.17942 8.66958 3.76809C8.65341 3.83389 8.63281 3.90041 8.60113 4.00272L8.46447 4.44408C8.40772 4.62737 8.37338 4.73962 8.35583 4.82366C8.34273 4.87 8.34925 4.96413 8.48004 4.96988C8.57009 4.97791 8.92286 4.97826 9.1197 4.97826C9.73832 4.97825 10.2405 4.97824 10.6244 5.02905C11.0168 5.081 11.3731 5.19566 11.6157 5.49977C11.6636 5.55981 11.7064 5.62378 11.7434 5.69102C11.9331 6.03586 11.8929 6.40733 11.7787 6.78125C11.6675 7.14502 11.4594 7.59302 11.2045 8.14184C10.9679 8.6512 10.758 9.10327 10.57 9.42035C10.3756 9.74835 10.1677 10.0062 9.88045 10.2023C9.54389 10.432 9.09513 10.5522 8.71103 10.5891C8.33855 10.625 7.88106 10.625 7.30718 10.625C6.61517 10.625 5.75737 10.625 5.32026 10.5681C4.86792 10.5091 4.48688 10.3833 4.18315 10.089C3.87776 9.79315 3.74568 9.41923 3.68409 8.97541C3.62501 8.54957 3.62502 8.00867 3.62503 7.34007L3.62501 6.75373C3.62482 6.09476 3.62469 5.66407 3.77957 5.2647C3.93406 4.86631 4.22552 4.54375 4.67361 4.04784L6.77869 1.71684C6.81847 1.67271 6.8591 1.62763 6.89949 1.59248Z" fill="#D0D5DD"/>
<path fill-rule="evenodd" clip-rule="evenodd" d="M1.125 6.3125C1.125 5.51859 1.7486 4.875 2.51786 4.875C3.54353 4.875 4.375 5.73312 4.375 6.79167V8.70833C4.375 9.76688 3.54353 10.625 2.51786 10.625C1.7486 10.625 1.125 9.98141 1.125 9.1875V6.3125ZM2.51786 5.83333C2.26144 5.83333 2.05357 6.04786 2.05357 6.3125V9.1875C2.05357 9.45214 2.26144 9.66667 2.51786 9.66667C3.03069 9.66667 3.44643 9.23761 3.44643 8.70833V6.79167C3.44643 6.26239 3.03069 5.83333 2.51786 5.83333Z" fill="#1D2939"/>
</svg>
