<svg width="22" height="20" viewBox="0 0 22 20" fill="none" xmlns="http://www.w3.org/2000/svg">
<path d="M20.9962 17.2939C20.9938 18.953 20.9813 19.0459 20.7196 19.3609C20.6454 19.4501 20.4727 19.5738 20.3358 19.6356C20.0908 19.7463 20.0624 19.7481 18.4724 19.7481C16.9174 19.7481 16.8501 19.7442 16.6495 19.6449C16.5349 19.5881 16.3779 19.4806 16.3007 19.4059C16.0367 19.1507 15.9985 18.9868 15.9985 18.1125C15.9985 17.9462 15.9985 17.8631 16.0449 17.8075C16.0519 17.7991 16.0595 17.7914 16.0677 17.7843C16.1225 17.7369 16.2062 17.7354 16.3735 17.7324C17.3181 17.7157 17.7729 17.6813 18.2181 17.6106C18.3937 17.5828 18.5667 17.5496 18.7515 17.5142L18.7729 17.5101C19.4446 17.3813 20.0776 17.2023 20.6203 16.9587C20.6974 16.924 20.7359 16.9067 20.7593 16.9024C20.8689 16.8818 20.9645 16.9437 20.9906 17.052C20.9962 17.0751 20.9962 17.1139 20.9962 17.1914L20.9962 17.2939Z" fill="#1D2939"/>
<path d="M1.00195 17.2941C1.0044 18.9532 1.01685 19.0461 1.27862 19.3611C1.35279 19.4503 1.52545 19.574 1.66232 19.6358C1.90733 19.7465 1.93576 19.7483 3.52573 19.7483C5.08075 19.7483 5.14804 19.7444 5.34866 19.6451C5.46325 19.5883 5.62023 19.4808 5.69747 19.4061C5.96143 19.1509 5.99971 18.987 5.99966 18.1127C5.99966 17.9464 5.99966 17.8633 5.95325 17.8077C5.94627 17.7993 5.93871 17.7916 5.93046 17.7845C5.87565 17.7371 5.79198 17.7356 5.62464 17.7326C4.68003 17.7159 4.22529 17.6815 3.78012 17.6108C3.60444 17.583 3.43152 17.5498 3.24667 17.5144L3.22528 17.5103C2.55362 17.3815 1.92054 17.2025 1.37788 16.9589C1.30078 16.9243 1.26223 16.9069 1.23888 16.9026C1.12932 16.882 1.03371 16.9439 1.00757 17.0522C1.00199 17.0753 1.00199 17.1141 1.00197 17.1916L1.00195 17.2941Z" fill="#1D2939"/>
<path d="M19.9126 7.46313C19.8043 7.38965 19.6949 7.32095 19.5848 7.25672C19.4704 7.19003 19.3827 7.08467 19.3442 6.95797L17.9365 2.3223C17.759 1.73349 17.2232 1.26304 16.6518 1.07535C13.3017 -0.0251181 8.69828 -0.0251181 5.34816 1.07535C4.7768 1.26304 4.24104 1.73349 4.06354 2.3223L2.65708 6.95717C2.61861 7.08396 2.53086 7.18938 2.41638 7.25608C2.30582 7.3205 2.1961 7.38941 2.08739 7.46314C1.19056 8.07133 0.495355 8.86513 0.328025 9.77787C0.263522 10.1297 0.245336 10.7997 0.250963 11.4832C0.25681 12.1935 0.289843 13.0045 0.349061 13.6825C0.391724 14.1708 0.404101 14.7669 0.680225 15.1925C0.933987 15.5837 1.35743 15.8545 1.78953 16.0485C2.2396 16.2505 2.79254 16.4106 3.41565 16.53L3.42966 16.5327C3.62051 16.5693 3.77928 16.5997 3.93885 16.625C4.72818 16.7503 5.53737 16.7502 10.3484 16.75H11.6516C16.4627 16.7502 17.2719 16.7503 18.0612 16.625C18.2207 16.5997 18.3796 16.5693 18.5703 16.5327L18.5844 16.53C19.2075 16.4105 19.7604 16.2505 20.2105 16.0485C20.6426 15.8545 21.0661 15.5837 21.3198 15.1925C21.5959 14.7669 21.6083 14.1708 21.651 13.6826C21.7102 13.0045 21.7432 12.1935 21.7491 11.4832C21.7547 10.7997 21.7365 10.1297 21.672 9.77787C21.5047 8.86513 20.8095 8.07132 19.9126 7.46313Z" fill="#D0D5DD"/>
<path d="M19.3442 6.95797C19.3827 7.08467 19.4704 7.19003 19.5848 7.25672C19.6949 7.32095 19.8043 7.38965 19.9126 7.46313C20.0061 7.52648 20.0973 7.59184 20.1859 7.65914L20.8165 7.44895C21.3404 7.27431 21.6236 6.70799 21.449 6.18404C21.2743 5.6601 20.708 5.37694 20.184 5.55159L19.0336 5.93508L19.3442 6.95797Z" fill="#1D2939"/>
<path d="M1.81425 7.65902C1.90286 7.59177 1.99403 7.52645 2.08739 7.46314C2.1961 7.38941 2.30582 7.3205 2.41638 7.25608C2.53086 7.18938 2.61861 7.08396 2.65708 6.95717L2.96721 5.93516L1.8165 5.55159C1.29256 5.37694 0.726236 5.6601 0.551588 6.18404C0.37694 6.70799 0.6601 7.27431 1.18404 7.44895L1.81425 7.65902Z" fill="#1D2939"/>
<path fill-rule="evenodd" clip-rule="evenodd" d="M7.32783 6.27548C7.90534 6.25408 9.42393 6.2474 11 6.25097C12.5761 6.2474 14.0947 6.25408 14.6722 6.27548C15.2917 6.29684 15.9126 6.31147 16.5298 6.36924C16.8182 6.39623 16.9624 6.40973 17.0298 6.32732C17.0973 6.2449 17.0565 6.10977 16.975 5.83952L16.0913 2.9082C16.07 2.8713 16.0544 2.85956 16.0269 2.85051C13.082 1.88316 8.91801 1.88316 5.97314 2.85051C5.94561 2.85956 5.92998 2.8713 5.90866 2.9082L5.02496 5.83952C4.94349 6.10974 4.90276 6.24485 4.97021 6.32727C5.03766 6.4097 5.18184 6.39615 5.47021 6.36907C6.11254 6.30874 6.74047 6.29724 7.32783 6.27548ZM11.9692 13.0001H10.0314C9.04772 13.0001 8.55587 13.0001 8.17494 13.2736C7.87929 13.4859 7.70306 13.8252 7.46817 14.4193C7.36499 14.6803 7.3134 14.8108 7.37275 14.9054C7.4321 15.0001 7.56701 15.0001 7.83682 15.0001L14.1639 15.0001C14.4337 15.0001 14.5686 15.0001 14.6279 14.9054C14.6873 14.8108 14.6357 14.6803 14.5325 14.4193C14.2976 13.8252 14.1214 13.4859 13.8257 13.2736C13.4448 13.0001 12.9529 13.0001 11.9692 13.0001ZM2.73737 9.28875C2.34442 9.15777 1.91968 9.37014 1.78869 9.76309C1.65771 10.1561 1.87008 10.5808 2.26303 10.7118L3.76303 11.2118C4.15599 11.3428 4.58073 11.1304 4.71172 10.7374C4.8427 10.3445 4.63033 9.91974 4.23737 9.78875L2.73737 9.28875ZM19.7374 10.7118C20.1303 10.5808 20.3427 10.156 20.2117 9.76309C20.0807 9.37013 19.656 9.15776 19.263 9.28875L17.763 9.78875C17.3701 9.91974 17.1577 10.3445 17.2887 10.7374C17.4197 11.1304 17.8444 11.3428 18.2374 11.2118L19.7374 10.7118Z" fill="#1D2939"/>
</svg>
