<svg width="13" height="12" viewBox="0 0 13 12" fill="none" xmlns="http://www.w3.org/2000/svg">
<path fill-rule="evenodd" clip-rule="evenodd" d="M1.5 6C1.5 3.23858 3.73858 1 6.5 1C9.26142 1 11.5 3.23858 11.5 6C11.5 8.76142 9.26142 11 6.5 11C3.73858 11 1.5 8.76142 1.5 6ZM3.34007 3.54718C2.81354 4.22452 2.5 5.07564 2.5 6C2.5 8.20914 4.29086 10 6.5 10C7.42436 10 8.27548 9.68646 8.95282 9.15993L3.34007 3.54718ZM4.04718 2.84007L9.65993 8.45282C10.1865 7.77548 10.5 6.92436 10.5 6C10.5 3.79086 8.70914 2 6.5 2C5.57564 2 4.72452 2.31354 4.04718 2.84007Z" fill="#7A271A"/>
<path d="M6.5 1C9.26141 1.00002 11.5 3.23859 11.5 6C11.5 7.56078 10.7845 8.95417 9.66406 9.87109L2.62891 2.83594C3.54583 1.71545 4.93921 1 6.5 1ZM6.5 2C5.57569 2 4.7242 2.31336 4.04688 2.83984L9.65918 8.45312C10.1857 7.77578 10.5 6.92436 10.5 6C10.5 3.79096 8.709 2.00016 6.5 2Z" fill="#F04438"/>
</svg>
