<svg width="44" height="44" viewBox="0 0 44 44" fill="none" xmlns="http://www.w3.org/2000/svg">
    <rect width="44" height="44" rx="22" fill="#077BF8" fill-opacity="0.1"/>
    <path fill-rule="evenodd" clip-rule="evenodd" d="M16.0565 14.204C16.0218 14.3622 16 14.608 16 15V21H19.5C21.433 21 23 19.433 23 17.5C23 15.567 21.433 14 19.5 14H17C16.608 14 16.3622 14.0218 16.204 14.0565C16.1449 14.0695 16.1094 14.0819 16.09 14.09C16.0819 14.1094 16.0695 14.1449 16.0565 14.204ZM16 23H19.5C22.5376 23 25 20.5376 25 17.5C25 14.4624 22.5376 12 19.5 12H17C16.5647 12 16.1468 12.0214 15.7749 12.1031C15.3916 12.1873 14.9962 12.3486 14.6724 12.6724C14.3486 12.9962 14.1873 13.3916 14.1031 13.7749C14.0214 14.1468 14 14.5647 14 15V29C14 29.5523 14.4477 30 15 30C15.5523 30 16 29.5523 16 29V23Z" fill="#077BF8"/>
    <path d="M29.7071 25.7064C30.0976 25.3159 30.0976 24.6827 29.7071 24.2922C29.3166 23.9016 28.6834 23.9016 28.2929 24.2922L26.0004 26.5846L21.8767 22.4609C21.1816 22.7944 20.4055 22.9861 19.5859 22.9986L24.5862 27.9988L22.2929 30.2922C21.9024 30.6827 21.9024 31.3159 22.2929 31.7064C22.6834 32.0969 23.3166 32.0969 23.7071 31.7064L26.0004 29.413L28.2937 31.7063C28.6842 32.0968 29.3174 32.0968 29.7079 31.7063C30.0984 31.3158 30.0984 30.6826 29.7079 30.2921L27.4146 27.9988L29.7071 25.7064Z" fill="#000D1C"/>
</svg>
