<svg width="18" height="13" viewBox="0 0 18 13" fill="none" xmlns="http://www.w3.org/2000/svg">
<path d="M7.9135 0.0937511L3.71444 0.0937511C3.21584 0.0937269 2.78612 0.0937061 2.44209 0.13996C2.07336 0.189535 1.71991 0.301329 1.43323 0.588014C1.14654 0.874699 1.03475 1.22815 0.985175 1.59687C0.938921 1.94091 0.938942 2.37059 0.938966 2.86919L0.938966 8.19336C0.938942 8.69197 0.938921 9.12161 0.985175 9.46564C1.03475 9.83437 1.14654 10.1878 1.43323 10.4745C1.67888 10.7201 1.96925 10.837 2.2828 10.8969C2.37126 10.9138 2.41548 10.9223 2.4433 10.8965C2.47111 10.8707 2.46564 10.8224 2.45471 10.7257C2.44286 10.6208 2.43677 10.5143 2.43677 10.4063C2.43677 8.85295 3.69597 7.59375 5.24927 7.59375C6.80257 7.59375 8.06177 8.85295 8.06177 10.4063C8.06177 10.4115 8.06176 10.4167 8.06173 10.422C8.06021 10.6981 8.05946 10.8361 8.12543 10.9024C8.19141 10.9688 8.31295 10.9688 8.55603 10.9688H9.44251C9.68559 10.9688 9.80713 10.9688 9.87311 10.9024C9.93908 10.8361 9.93832 10.6981 9.93681 10.422C9.93678 10.4167 9.93677 10.4115 9.93677 10.4063C9.93677 8.85295 11.196 7.59375 12.7493 7.59375C14.3026 7.59375 15.5618 8.85295 15.5618 10.4063C15.5618 10.5205 15.555 10.6332 15.5417 10.7439C15.5292 10.8481 15.6128 10.9427 15.7168 10.9282C16.0782 10.8776 16.416 10.7377 16.6611 10.4605C16.8995 10.1909 16.988 9.87036 17.0272 9.54714C17.0556 9.31281 17.0621 9.03441 17.0635 8.71875H16.314C16.0033 8.71875 15.7515 8.46691 15.7515 8.15625C15.7515 7.84559 16.0033 7.59375 16.314 7.59375H17.0496C17.0307 7.3022 16.9868 7.04625 16.8602 6.78808C16.6378 6.33448 16.2363 6.05953 15.7314 5.71379C15.2094 5.35616 14.7893 4.91585 14.4488 4.38206L14.4352 4.36081C14.169 3.94333 13.9491 3.59871 13.7426 3.33132C13.5263 3.05128 13.299 2.82098 13.0017 2.65266C12.7025 2.48326 12.3917 2.41013 12.0468 2.37598C11.9206 2.36348 11.814 2.46524 11.814 2.59213L11.814 5.15625C11.814 5.46691 11.5621 5.71875 11.2515 5.71875C10.9408 5.71875 10.689 5.46691 10.689 5.15625L10.689 2.34376H10.6866C10.6827 2.06367 10.6719 1.81333 10.6428 1.59687C10.5932 1.22815 10.4814 0.874698 10.1947 0.588013C9.90803 0.301329 9.55458 0.189535 9.18585 0.13996C8.84182 0.0937061 8.41211 0.0937269 7.9135 0.0937511Z" fill="#D0D5DD"/>
<path d="M17.0635 8.71875H16.314C16.0033 8.71875 15.7515 8.46691 15.7515 8.15625C15.7515 7.84559 16.0033 7.59375 16.314 7.59375H17.0496L17.0635 8.71875Z" fill="#1D2939"/>
<path fill-rule="evenodd" clip-rule="evenodd" d="M6.00146 2.34375C6.31213 2.34375 6.56396 2.59559 6.56396 2.90625V3.84375H7.50146C7.81213 3.84375 8.06396 4.09559 8.06396 4.40625C8.06396 4.71691 7.81213 4.96875 7.50146 4.96875L6.56396 4.96875L6.56396 5.90625C6.56396 6.21691 6.31213 6.46875 6.00146 6.46875C5.6908 6.46875 5.43896 6.21691 5.43896 5.90625V4.96875H4.50146C4.1908 4.96875 3.93896 4.71691 3.93896 4.40625C3.93896 4.09559 4.1908 3.84375 4.50146 3.84375L5.43896 3.84375V2.90625C5.43896 2.59559 5.6908 2.34375 6.00146 2.34375Z" fill="#1D2939"/>
<circle cx="12.75" cy="10.4062" r="1.875" fill="#1D2939"/>
<circle cx="5.25" cy="10.4062" r="1.875" fill="#1D2939"/>
</svg>
