<svg width="62" height="62" viewBox="0 0 62 62" fill="none" xmlns="http://www.w3.org/2000/svg">
<rect width="62" height="62" rx="31" fill="#FE724E" fill-opacity="0.05"/>
<path d="M42.6696 19.7424L33.3913 15.6099C32.0296 15.0083 29.9713 15.0083 28.6096 15.6099L19.3313 19.7424C16.988 20.7874 16.6396 22.2124 16.6396 22.9724C16.6396 23.7324 16.988 25.1574 19.3313 26.2024L28.6096 30.3349C29.2905 30.6358 30.1455 30.7941 31.0005 30.7941C31.8555 30.7941 32.7105 30.6358 33.3913 30.3349L42.6696 26.2024C45.013 25.1574 45.3613 23.7324 45.3613 22.9724C45.3613 22.2124 45.0288 20.7874 42.6696 19.7424Z" fill="#FE724E"/>
<path opacity="0.4" d="M30.9995 38.98C30.3979 38.98 29.7962 38.8533 29.242 38.6158L18.5704 33.8658C16.9395 33.1375 15.6729 31.19 15.6729 29.4008C15.6729 28.7516 16.1954 28.2291 16.8445 28.2291C17.4937 28.2291 18.0162 28.7516 18.0162 29.4008C18.0162 30.2558 18.7287 31.3641 19.5204 31.7125L30.192 36.4625C30.6987 36.6841 31.2845 36.6841 31.7912 36.4625L42.4629 31.7125C43.2545 31.3641 43.967 30.2716 43.967 29.4008C43.967 28.7516 44.4895 28.2291 45.1387 28.2291C45.7879 28.2291 46.3104 28.7516 46.3104 29.4008C46.3104 31.1741 45.0437 33.1375 43.4129 33.8658L32.7412 38.6158C32.2029 38.8533 31.6012 38.98 30.9995 38.98Z" fill="#FE724E"/>
<path opacity="0.4" d="M30.9995 46.8334C30.3979 46.8334 29.7962 46.7067 29.242 46.4692L18.5704 41.7192C16.8129 40.9434 15.6729 39.1859 15.6729 37.2542C15.6729 36.605 16.1954 36.0825 16.8445 36.0825C17.4937 36.0825 18.0162 36.605 18.0162 37.2542C18.0162 38.2517 18.602 39.1542 19.5204 39.5659L30.192 44.3159C30.6987 44.5375 31.2845 44.5375 31.7912 44.3159L42.4629 39.5659C43.3654 39.17 43.967 38.2517 43.967 37.2542C43.967 36.605 44.4895 36.0825 45.1387 36.0825C45.7879 36.0825 46.3104 36.605 46.3104 37.2542C46.3104 39.1859 45.1704 40.9275 43.4129 41.7192L32.7412 46.4692C32.2029 46.7067 31.6012 46.8334 30.9995 46.8334Z" fill="#FE724E"/>
</svg>
