<svg width="28" height="28" viewBox="0 0 28 28" fill="none" xmlns="http://www.w3.org/2000/svg">
    <path d="M21.0468 15.8083C20.5568 16.2867 20.2768 16.975 20.3468 17.71C20.4517 18.97 21.6068 19.8917 22.8668 19.8917H25.0834V21.28C25.0834 23.695 23.1117 25.6667 20.6967 25.6667H7.30342C4.88842 25.6667 2.91675 23.695 2.91675 21.28V13.4284C2.91675 11.0134 4.88842 9.04169 7.30342 9.04169H20.6967C23.1117 9.04169 25.0834 11.0134 25.0834 13.4284V15.1084H22.7267C22.0734 15.1084 21.4784 15.365 21.0468 15.8083Z" fill="#D0D5DD"/>
    <path d="M17.3251 4.60836V9.04167H7.30341C4.88841 9.04167 2.91675 11.0134 2.91675 13.4284V9.14671C2.91675 7.75837 3.76841 6.52165 5.06341 6.03165L14.3267 2.53165C15.7734 1.99499 17.3251 3.05669 17.3251 4.60836Z" fill="#1D2939"/>
    <path d="M26.3199 16.2983V18.7017C26.3199 19.3434 25.8066 19.8683 25.1532 19.8916H22.8666C21.6066 19.8916 20.4516 18.97 20.3466 17.71C20.2766 16.975 20.5566 16.2866 21.0466 15.8083C21.4782 15.365 22.0732 15.1083 22.7266 15.1083H25.1532C25.8066 15.1317 26.3199 15.6566 26.3199 16.2983Z" fill="#1D2939"/>
    <path d="M16.3334 14.875H8.16675C7.68841 14.875 7.29175 14.4783 7.29175 14C7.29175 13.5217 7.68841 13.125 8.16675 13.125H16.3334C16.8117 13.125 17.2084 13.5217 17.2084 14C17.2084 14.4783 16.8117 14.875 16.3334 14.875Z" fill="#1D2939"/>
</svg>
