<svg width="33" height="32" viewBox="0 0 33 32" fill="none" xmlns="http://www.w3.org/2000/svg">
    <rect x="0.5" width="32" height="32" rx="16" fill="#077BF8" fill-opacity="0.1"/>
    <path d="M9.2336 9.35615C8.98919 9.3342 8.66806 9.33342 8.16659 9.33342C7.70635 9.33342 7.33325 8.96032 7.33325 8.50008C7.33325 8.03985 7.70635 7.66675 8.16659 7.66675C8.62331 7.66673 9.05478 7.66671 9.38268 7.69616C9.73178 7.72751 10.0762 7.79689 10.4062 7.97961C10.7247 8.15594 11.0009 8.39971 11.2153 8.69386C11.4376 8.99867 11.5491 9.33185 11.6235 9.67436C11.6934 9.99607 11.7626 10.5469 11.8193 11.0001L16.1404 11.0001H16.1404C17.0737 11 17.8572 11 18.4803 11.0838C19.14 11.1725 19.7432 11.3686 20.229 11.8544C20.7147 12.3401 20.9108 12.9433 20.9995 13.6031C21.0833 14.2261 21.0833 15.0096 21.0833 15.9429V15.9429L21.0833 16.8951C21.2785 16.9309 21.4666 16.9871 21.6472 17.0754C21.7645 17.1328 21.8769 17.1996 21.9836 17.2748C22.4275 17.588 22.7197 18.0754 23.057 18.6378C23.2263 18.9192 23.3935 19.1953 23.4727 19.3016C23.5791 19.2541 24.177 18.9241 24.4294 18.7843C24.832 18.5613 25.3392 18.7068 25.5622 19.1094C25.7852 19.512 25.6397 20.0192 25.2371 20.2422C25.0013 20.3729 24.2818 20.7715 24.0719 20.8579C23.8355 20.9552 23.5376 21.0385 23.1928 20.9815C23.0641 20.9602 22.939 20.9233 22.82 20.872C22.5076 20.7373 22.2995 20.5141 22.147 20.3118C22.0078 20.1271 21.8654 19.8905 21.7175 19.6446L21.7175 19.6446C21.343 19.0222 21.1872 18.7863 21.0833 18.6866V21.0001C21.0833 21.4603 20.7102 21.8334 20.2499 21.8334C19.7897 21.8334 19.4166 21.4603 19.4166 21.0001L19.4166 18.5001L15.6079 18.5001L15.3896 18.0004C14.8745 16.8214 13.6988 16.0001 12.3333 16.0001C11.5745 16.0001 10.7133 15.4897 10.5921 14.5418L10.1498 11.0841C10.0876 10.5865 10.047 10.268 9.99487 10.0282C9.94552 9.80104 9.90008 9.71892 9.86863 9.67579C9.79714 9.57774 9.7051 9.49648 9.59893 9.4377C9.55224 9.41185 9.46511 9.37694 9.2336 9.35615Z" fill="#077BF8"/>
    <path fill-rule="evenodd" clip-rule="evenodd" d="M20.2501 21.8334C20.02 21.8334 19.8334 22.02 19.8334 22.2501C19.8334 22.4802 20.02 22.6667 20.2501 22.6667C20.4802 22.6667 20.6667 22.4802 20.6667 22.2501C20.6667 22.02 20.4802 21.8334 20.2501 21.8334ZM18.1667 22.2501C18.1667 21.0995 19.0995 20.1667 20.2501 20.1667C21.4007 20.1667 22.3334 21.0995 22.3334 22.2501C22.3334 23.4007 21.4007 24.3334 20.2501 24.3334C19.0995 24.3334 18.1667 23.4007 18.1667 22.2501Z" fill="#1D2939"/>
    <path fill-rule="evenodd" clip-rule="evenodd" d="M13.5835 19.3333C13.5835 20.0236 13.0255 20.5833 12.3372 20.5833L12.3298 20.5833C11.6415 20.5833 11.0835 20.0236 11.0835 19.3333C11.0835 18.6429 11.6415 18.0833 12.3298 18.0833L12.3372 18.0833C13.0255 18.0833 13.5835 18.6429 13.5835 19.3333Z" fill="#077BF8"/>
    <path fill-rule="evenodd" clip-rule="evenodd" d="M12.3333 15.9999C10.4923 15.9999 8.99992 17.4923 8.99992 19.3333C8.99992 21.1742 10.4923 22.6666 12.3333 22.6666C14.1742 22.6666 15.6666 21.1742 15.6666 19.3333C15.6666 17.4923 14.1742 15.9999 12.3333 15.9999ZM7.33325 19.3333C7.33325 16.5718 9.57183 14.3333 12.3333 14.3333C15.0947 14.3333 17.3333 16.5718 17.3333 19.3333C17.3333 22.0947 15.0947 24.3333 12.3333 24.3333C9.57183 24.3333 7.33325 22.0947 7.33325 19.3333Z" fill="#1D2939"/>
</svg>
