<svg width="18" height="18" viewBox="0 0 18 18" fill="none" xmlns="http://www.w3.org/2000/svg">
<path d="M11.3483 2.8125C12.3602 2.81249 13.1662 2.81248 13.8107 2.88361C14.4742 2.95683 15.0296 3.11065 15.5133 3.46127C15.8983 3.74037 16.226 4.09688 16.4796 4.50853C16.7939 5.01879 16.9315 5.60152 16.9976 6.30683C17.0625 6.99876 17.0625 7.86698 17.0625 8.97091C17.0625 10.0748 17.0625 11.0012 16.9976 11.6932C16.9315 12.3985 16.7939 12.9812 16.4796 13.4915C16.226 13.9031 15.8983 14.2596 15.5133 14.5387C15.0296 14.8894 14.4742 15.0432 13.8107 15.1164C13.1662 15.1875 12.3602 15.1875 11.3483 15.1875H7.76898C7.06517 15.1875 6.49727 15.1875 6.02862 15.1425C5.5413 15.0957 5.12257 14.9976 4.72154 14.7801C4.32243 14.5636 4.00362 14.2628 3.68191 13.8743C3.36999 13.4975 2.88703 12.799 2.4631 12.1858C1.99745 11.5122 1.62124 10.9681 1.36546 10.4914C1.09918 9.99516 0.9375 9.52689 0.9375 9C0.9375 8.47311 1.09918 8.00484 1.36546 7.5086C1.62125 7.03189 1.99745 6.48775 2.46311 5.81423C2.88705 5.20102 3.36999 4.50248 3.68191 4.12573C4.00362 3.73716 4.32243 3.43638 4.72154 3.21989C5.12257 3.00237 5.54129 2.90429 6.02862 2.85749C6.49727 2.81249 7.06517 2.81249 7.76898 2.8125H7.76899H11.3483Z" fill="#D0D5DD"/>
<path fill-rule="evenodd" clip-rule="evenodd" d="M5.8125 9C5.8125 8.48223 6.23073 8.0625 6.74664 8.0625H6.75336C7.26927 8.0625 7.6875 8.48223 7.6875 9C7.6875 9.51777 7.26927 9.9375 6.75336 9.9375H6.74664C6.23073 9.9375 5.8125 9.51777 5.8125 9Z" fill="#1D2939"/>
<path fill-rule="evenodd" clip-rule="evenodd" d="M8.8125 9C8.8125 8.48223 9.23073 8.0625 9.74664 8.0625H9.75336C10.2693 8.0625 10.6875 8.48223 10.6875 9C10.6875 9.51777 10.2693 9.9375 9.75336 9.9375H9.74664C9.23073 9.9375 8.8125 9.51777 8.8125 9Z" fill="#1D2939"/>
<path fill-rule="evenodd" clip-rule="evenodd" d="M11.8125 9C11.8125 8.48223 12.2307 8.0625 12.7466 8.0625H12.7534C13.2693 8.0625 13.6875 8.48223 13.6875 9C13.6875 9.51777 13.2693 9.9375 12.7534 9.9375H12.7466C12.2307 9.9375 11.8125 9.51777 11.8125 9Z" fill="#1D2939"/>
</svg>
